/* XPM */
static char *magick[] = {
/* columns rows colors chars-per-pixel */
"24 26 167 2",
"   c #7e4949",
".  c #7d5959",
"X  c #7d5b5b",
"o  c #7c5e5e",
"O  c #7e5e5e",
"+  c #7e6262",
"@  c #7e6767",
"#  c #7e6969",
"$  c #7f7171",
"%  c #8e3b3b",
"&  c #8f3d3c",
"*  c #962c2c",
"=  c #9f2727",
"-  c #9a2a2a",
";  c #9b2b2a",
":  c #982e2d",
">  c #9a2c2c",
",  c #9b2c2c",
"<  c #9d2c2c",
"1  c #9d2e2d",
"2  c #9c2f2f",
"3  c #9d2e2e",
"4  c #9f2f2f",
"5  c #913535",
"6  c #903636",
"7  c #913636",
"8  c #943131",
"9  c #953b3b",
"0  c #973939",
"q  c #973a3a",
"w  c #963d3d",
"e  c #9b3131",
"r  c #9a3333",
"t  c #9f3433",
"y  c #9f3535",
"u  c #b20c0b",
"i  c #a02625",
"p  c #a22626",
"a  c #a42626",
"s  c #a52727",
"d  c #a62525",
"f  c #a12b2a",
"g  c #a22b2b",
"h  c #a02d2d",
"j  c #a22e2d",
"k  c #a52b2b",
"l  c #a72a2a",
"z  c #a52c2b",
"x  c #a72c2b",
"c  c #a52c2c",
"v  c #a52e2e",
"b  c #a72d2d",
"n  c #a62e2d",
"m  c #aa2322",
"M  c #ab2525",
"N  c #ac2422",
"B  c #ad2624",
"V  c #ac2727",
"C  c #ac2827",
"Z  c #a92828",
"A  c #af2a29",
"S  c #a23232",
"D  c #bd2423",
"F  c #834545",
"G  c #824646",
"H  c #844948",
"J  c #874b4b",
"K  c #884040",
"L  c #8f4242",
"P  c #894b4b",
"I  c #8c4b4b",
"U  c #835151",
"Y  c #825757",
"T  c #845757",
"R  c #875656",
"E  c #865857",
"W  c #835e5d",
"Q  c #845858",
"!  c #855d5d",
"~  c #885656",
"^  c #8a5454",
"/  c #8a5656",
"(  c #8c5150",
")  c #8e5050",
"_  c #895858",
"`  c #885a5a",
"'  c #8a5a5a",
"]  c #885d5d",
"[  c #914646",
"{  c #924545",
"}  c #954242",
"|  c #904847",
" . c #856363",
".. c #876564",
"X. c #866867",
"o. c #836c6c",
"O. c #836d6d",
"+. c #846968",
"@. c #846b6a",
"#. c #856a6a",
"$. c #866969",
"%. c #876f6f",
"&. c #886060",
"*. c #886363",
"=. c #817171",
"-. c #817373",
";. c #827777",
":. c #867171",
">. c #877474",
",. c #877676",
"<. c #877777",
"1. c #877979",
"2. c #887878",
"3. c #887a7a",
"4. c #897a7a",
"5. c #887c7c",
"6. c #897d7d",
"7. c #cd0d0d",
"8. c #c41a1a",
"9. c #cc1515",
"0. c #d10b0b",
"q. c #da0201",
"w. c #dc0d0b",
"e. c #e50807",
"r. c #ed0100",
"t. c #ec0403",
"y. c #868080",
"u. c #898080",
"i. c #888383",
"p. c #898282",
"a. c #8b8686",
"s. c #8c8282",
"d. c #8c8686",
"f. c #8c8787",
"g. c #8d8686",
"h. c #8d8787",
"j. c #8e8787",
"k. c #8e8989",
"l. c #8f8989",
"z. c #8e8a8a",
"x. c #8e8c8c",
"c. c #8f8c8c",
"v. c #908b8b",
"b. c #908d8d",
"n. c #918c8c",
"m. c #908e8e",
"M. c #928f8f",
"N. c #938f8f",
"B. c #929090",
"V. c #939090",
"C. c #939191",
"Z. c #949393",
"A. c #959494",
"S. c #969595",
"D. c Gray59",
"F. c #979797",
"G. c #989797",
"H. c #989898",
"J. c #999898",
"K. c Gray60",
"L. c #9a9a9a",
"P. c #9b9b9b",
"I. c Gray61",
"U. c #9d9d9d",
"Y. c Gray62",
"T. c #9f9f9f",
"R. c Gray75",
/* pixels */
"T.T.T.T.T.T.T.T.T.P.C.g.g.M.P.T.T.T.T.T.T.T.R.R.",
"T.T.T.T.T.T.T.v.&.} y v v S w E g.T.T.T.T.T.R.R.",
"T.T.T.T.T.C...t h P W o.o.! I z z Q x.T.T.T.R.R.",
"T.T.T.T.M.{ a Y a.T.T.T.T.T.T.g.T B & k.T.T.R.R.",
"T.T.T.M.{ = -.P.T.T.T.T.T.T.T.T.P.1.v % k.T.R.R.",
"T.T.T._ p -.P.T.T.T.T.T.T.T.T.T.T.T.4.l J D.R.R.",
"T.T.g.4 o T.T.T.T.T.T.T.T.T.T.T.T.T.T.#.a ;.R.R.",
"T.T._ 6 M.T.T.T.T.T.T.T.T.T.T.T.T.T.T.C.9 G R.R.",
"T.M.r X T.T.T.T.T.T.T.T.T.T.T.T.T.T.T.T. .; R.R.",
"T.s.: $ T.T.T.T.T.T.T.T.T.T.T.T.T.T.T.T.5.4 R.R.",
"T.>.: y.T.T.T.T.T.T.T.T.T.T.T.T.T.T.T.T.k.4 R.R.",
"T.%.* i.T.T.T.T.T.T.T.T.T.T.T.T.T.T.T.T.M.r R.R.",
"T.4.; ;.T.T.T.T.T.T.T.T.T.T.T.T.T.T.T.T.g.4 R.R.",
"T.g.4 # T.T.T.T.T.T.T.T.T.T.T.T.T.T.T.T.>.; R.R.",
"T.D.9 G D.T.T.T.T.T.T.T.T.T.T.T.T.T.T.T.~ 6 R.R.",
"T.T.X.p ;.T.T.T.T.T.T.T.T.T.T.T.T.T.T.g.h o R.R.",
"T.T.C.9 & C.T.T.T.T.T.T.T.T.T.T.T.T.D.) 8 x.R.R.",
"T.T.T.:.M U C.T.T.T.T.T.T.T.D.D.T.D.] m @ T.R.R.",
"T.T.T.P.#.B J g.P.T.T.T.G.>.L   i.~ N o P.T.R.R.",
"T.T.T.T.P.#.v g T i.M.5.| 9.w.Z l g + D.T.T.R.R.",
"T.T.T.T.T.I.g.~ l C v 8.t.r.0.a U i.P.T.T.T.R.R.",
"T.T.T.T.T.T.T.I.a.o.) D e.q.u X D.T.T.T.T.T.R.R.",
"T.T.T.T.T.T.T.T.T.T.T.g._ A 7.6 D.T.T.T.T.T.R.R.",
"T.T.T.T.T.T.T.T.T.T.T.T.T.k.&.2.T.T.T.T.T.T.R.R.",
"R.R.R.R.R.R.R.R.R.R.R.R.R.R.R.R.R.R.R.R.R.R.R.R.",
"R.R.R.R.R.R.R.R.R.R.R.R.R.R.R.R.R.R.R.R.R.R.R.R."
};
