/* XPM */
static char *magick[] = {
/* columns rows colors chars-per-pixel */
"32 32 99 2",
"   c #576e7f",
".  c #5f6a77",
"X  c #5f6b77",
"o  c #5b6c7b",
"O  c #5b6d7b",
"+  c #596d7d",
"@  c #586d7e",
"#  c #596d7e",
"$  c #586e7f",
"%  c #596e7f",
"&  c #5a6d7c",
"*  c #5a6d7d",
"=  c #5b6c7c",
"-  c #5b6d7c",
";  c #5a6d7e",
":  c #5d6b79",
">  c #5c6b7a",
",  c #5e6b78",
"<  c #5e6b79",
"1  c #5f6a78",
"2  c #5c6c79",
"3  c #5d6c79",
"4  c #5c6c7a",
"5  c #5c6c7b",
"6  c #5c6c7c",
"7  c #6b686f",
"8  c #6c686e",
"9  c #6c686f",
"0  c #6d686e",
"q  c #6f686d",
"w  c #6e686e",
"e  c #636973",
"r  c #616a75",
"t  c #606a76",
"y  c #606a77",
"u  c #616a76",
"i  c #626975",
"p  c #636974",
"a  c #626a75",
"s  c #636a74",
"d  c #646973",
"f  c #656972",
"g  c #656973",
"h  c #666871",
"j  c #666872",
"k  c #666972",
"l  c #686871",
"z  c #696870",
"x  c #6a6870",
"c  c #70686d",
"v  c #71686d",
"b  c #73686d",
"n  c #74686c",
"m  c #74686d",
"M  c #75686c",
"N  c #76686c",
"B  c #77696c",
"V  c #78696c",
"C  c #79696c",
"Z  c #7a696c",
"A  c #7b6a6c",
"S  c #7d6a6c",
"D  c #7f6a6c",
"F  c #7f6b6c",
"G  c #566f81",
"H  c #576e80",
"J  c #576f81",
"K  c #586e80",
"L  c #806b6c",
"P  c #816b6d",
"I  c #826b6d",
"U  c #826c6d",
"Y  c #836c6d",
"T  c #846c6d",
"R  c #856d6d",
"E  c #866d6e",
"W  c #876d6e",
"Q  c #886e6e",
"!  c #886e6f",
"~  c #896e6f",
"^  c #896f6f",
"/  c #8a6f6f",
"(  c #8a6f70",
")  c #8b6f70",
"_  c #8c7070",
"`  c #8d7070",
"'  c #8d7071",
"]  c #8e7171",
"[  c #8f7171",
"{  c #8f7172",
"}  c #8f7272",
"|  c #907272",
" . c #917272",
".. c #917373",
"X. c #927373",
"o. c #937373",
"O. c #937474",
"+. c #947474",
"@. c Gray75",
/* pixels */
"+.+.+.+.+.+.+.+.+.+.+.+.+.+.+.+.+.+.+.+.+.+.+.+.+.+.+.+.+.+.@.@.",
"+.+.+.+.+.+.+.+.+.+.o./ L C c w N C Y ( o.+.+.+.+.+.+.+.+.+.@.@.",
"+.+.+.+.+.+.+.+.o.Y w X $ G K $ G G $ u c / o.+.+.+.+.+.+.+.@.@.",
"+.+.+.+.+.+.o.R w o $ u w N D L C N w u $ X c / O.+.+.+.+.+.@.@.",
"+.+.+.+.+.o.D < $ g C _ O.+.+.+.+.+.o./ N u K u Y O.+.+.+.+.@.@.",
"+.+.+.+.o.D 2 < C _ +.+.+.+.+.+.+.+.+.+.o./ N $ X Y O.+.+.+.@.@.",
"+.+.+.o.D 2 < D o.+.+.+.+.+.+.+.+.+.+.+.+.+.o.C $ X Y +.+.+.@.@.",
"+.+.+.R < 2 D o.+.+.+.+.+.+.+.+.+.+.+.+.+.+.+.o.Z $ g _ +.+.@.@.",
"+.+.o.c K N o.+.+.+.+.+.+.+.+.+.+.+.+.+.+.+.+.+.o.w $ C +.+.@.@.",
"+.+.R 2 u _ +.+.+.+.+.+.+.+.+.+.+.+.+.+.+.+.+.+.+.Y o e _ +.@.@.",
"+.o.c $ C +.+.+.+.+.+.+.+.+.+.+.+.+.+.+.+.+.+.+.+.o.w   C +.@.@.",
"+._ u u ( +.+.+.+.+.+.+.+.+.+.+.+.+.+.+.+.+.+.+.+.+.L $ 7 o.@.@.",
"+.R 2 z o.+.+.+.+.+.+.+.+.+.+.+.+.+.+.+.+.+.+.+.+.+.( u g _ @.@.",
"+.L $ c +.+.+.+.+.+.+.+.+.+.+.+.+.+.+.+.+.+.+.+.+.+._ g < / @.@.",
"+.C G N +.+.+.+.+.+.+.+.+.+.+.+.+.+.+.+.+.+.+.+.+.+.o.w $ L @.@.",
"+.N G C +.+.+.+.+.+.+.+.+.+.+.+.+.+.+.+.+.+.+.+.+.+.+.w $ D @.@.",
"+.C G N +.+.+.+.+.+.+.+.+.+.+.+.+.+.+.+.+.+.+.+.+.+.o.7 6 R @.@.",
"+.Y $ w o.+.+.+.+.+.+.+.+.+.+.+.+.+.+.+.+.+.+.+.+.+._ e u ( @.@.",
"+./ X g _ +.+.+.+.+.+.+.+.+.+.+.+.+.+.+.+.+.+.+.+.+./ < g o.@.@.",
"O.o.z $ Y +.+.+.+.+.+.+.+.+.+.+.+.+.+.+.+.+.+.+.+.+.C   c O.@.@.",
"+.+.C $ w o.+.+.+.+.+.+.+.+.+.+.+.+.+.+.+.+.+.+.+._ u $ R +.@.@.",
"+.+._ g o Y +.+.+.+.+.+.+.+.+.+.+.+.+.+.+.+.+.+.+.Z $ w o.+.@.@.",
"+.+.+.C $ g / +.+.+.+.+.+.+.+.+.+.+.+.+.+.+.+.+.R u < R +.+.@.@.",
"+.+.+._ z G g / +.+.+.+.+.+.+.+.+.+.+.+.+.+.+.R u $ N o.+.+.@.@.",
"+.+.+.+./ g G g / +.+.+.+.+.+.+.+.+.+.+.+.O.R u $ N o.+.+.+.@.@.",
"+.+.+.+.+./ g G u C _ +.+.+.+.+.+.+.+.O./ N < $ N o.+.+.+.+.@.@.",
"+.+.+.+.+.+./ w o $ g C R ( _ o._ / R N u G < C o.+.+.+.+.+.@.@.",
"+.+.+.+.+.+.+.o.Y w o G o u g z g u $ K < c / o.O.O.+.+.+.+.@.@.",
"+.+.+.+.+.+.+.+.+.o.R c z g < 2 X g w N R o.+.+.+.+.+.+.+.+.@.@.",
"+.+.+.+.+.+.+.+.+.+.+.+.o._ / R / _ o.+.+.+.+.+.+.+.+.+.+.+.@.@.",
"@.@.@.@.@.@.@.@.@.@.@.@.@.@.@.@.@.@.@.@.@.@.@.@.@.@.@.@.@.@.@.@.",
"@.@.@.@.@.@.@.@.@.@.@.@.@.@.@.@.@.@.@.@.@.@.@.@.@.@.@.@.@.@.@.@."
};
