/* XPM */
static char *magick[] = {
/* columns rows colors chars-per-pixel */
"25 17 83 1",
"  c #1b1c1c",
". c Gray11",
"X c #1d1d1c",
"o c Gray12",
"O c #202220",
"+ c #232222",
"@ c #232323",
"# c #232423",
"$ c #272626",
"% c #282627",
"& c #292a2a",
"* c #2a2a2a",
"= c #2a2b2a",
"- c #2b2a2a",
"; c Gray17",
": c #2d2d2d",
"> c #2e2d2d",
", c Gray19",
"< c #313130",
"1 c #313131",
"2 c #303032",
"3 c #313032",
"4 c #323031",
"5 c #343434",
"6 c #353535",
"7 c #353536",
"8 c #353634",
"9 c #393939",
"0 c #3c3c3c",
"q c #414141",
"w c Gray26",
"e c #434242",
"r c #494949",
"t c Gray31",
"y c #4f4f50",
"u c #504f50",
"i c #515051",
"p c #515150",
"a c #525253",
"s c #525352",
"d c #535354",
"f c #535455",
"g c Gray33",
"h c #545455",
"j c #545554",
"k c #545555",
"l c #555454",
"z c #555455",
"x c #555554",
"c c #555555",
"v c #555456",
"b c #555556",
"n c #555655",
"m c #555656",
"M c #565556",
"N c #565656",
"B c #575858",
"V c #585757",
"C c #585858",
"Z c #595958",
"A c #5a5b5a",
"S c #5a5b5b",
"D c #5b5a5b",
"F c #737473",
"G c #747474",
"H c Gray47",
"J c #7c7c7c",
"K c #818181",
"L c Gray51",
"P c Gray52",
"I c Gray53",
"U c #898989",
"Y c Gray55",
"T c #8d8d8d",
"R c #909090",
"E c Gray57",
"W c #959595",
"Q c Gray59",
"! c #989898",
"~ c #9a9a9a",
"^ c #9d9d9d",
"/ c #9f9f9f",
"( c Gray75",
/* pixels */
"///////////////////////((",
"///////////////////////((",
"QQQETTTTUPPPPKJJJJHFFGF((",
"SZZZZVBVvvvvvvvvvvvvvvv((",
"vvvvvvfggvvgvvvvvgvvvvv((",
"vvvvvvvvvvvvvvvvvvvvvvg((",
"vvvvvvvvvvvvvvvvvvgvvgv((",
"vggggvgvvvvvvvvvvvvvvgv((",
"vgvvvvvvvvvvvvggvvvvgvv((",
"vggvgvvvvgvvvvaaaaaatat((",
"9996,,,,<>----$@#@@o ..((",
"O%>----,66550eeeeertttt((",
"KPTTTTTEQQQQ!!!!!!/////((",
"///////////////////////((",
"///////////////////////((",
"(((((((((((((((((((((((((",
"((((((((((((((((((((((((("
};
