/* XPM */
static char *magick[] = {
/* columns rows colors chars-per-pixel */
"12 12 31 1",
"  c #575857",
". c #585858",
"X c Gray35",
"o c Gray38",
"O c #636463",
"+ c #646463",
"@ c #646464",
"# c #656565",
"$ c #666565",
"% c #676766",
"& c #686868",
"* c #6f6f6f",
"= c #6f6f70",
"- c #6f706f",
"; c #6f7070",
": c #706f6f",
"> c #706f70",
", c #70706f",
"< c #777777",
"1 c #797979",
"2 c Gray48",
"3 c #7a7a7b",
"4 c #7b7a7b",
"5 c #7b7b7b",
"6 c #7c7d7d",
"7 c Gray50",
"8 c #808080",
"9 c #868686",
"0 c Gray55",
"q c Gray58",
"w c Gray75",
/* pixels */
"qqqqqqqqqqww",
"955555680qww",
"o&:****,6qww",
"X%::***>5qww",
".%-:*:*:5qww",
".%;*--**5qww",
".%===*>*5qww",
".@*=***,<qww",
" +*==**:<qww",
" o:**:*:<qww",
"wwwwwwwwwwww",
"wwwwwwwwwwww"
};
