/* XPM */
static char *magick[] = {
/* columns rows colors chars-per-pixel */
"18 28 82 1",
"  c #251c1c",
". c #2f2324",
"X c #2e2424",
"o c #302525",
"O c #312525",
"+ c #312526",
"@ c #302626",
"# c #312626",
"$ c #332727",
"% c #352729",
"& c #332828",
"* c #382b2b",
"= c #392b2b",
"- c #382c2b",
"; c #392c2b",
": c #392d2b",
"> c #392c2c",
", c #392c2d",
"< c #413435",
"1 c #423434",
"2 c #423435",
"3 c #423534",
"4 c #433434",
"5 c #433435",
"6 c #433534",
"7 c #433535",
"8 c #443434",
"9 c #443534",
"0 c #443535",
"q c #453636",
"w c #463535",
"e c #463536",
"r c #4b3b3b",
"t c #4b3c3b",
"y c #4d3b3c",
"u c #4c3c3c",
"i c #4e3d3d",
"p c #4e3d3e",
"a c #4f3d3e",
"s c #4e3e3d",
"d c #4f3f3d",
"f c #4e3e3e",
"g c #4f3e3e",
"h c #503f3d",
"j c #513e3f",
"k c #513f3f",
"l c #523f3f",
"z c #513f40",
"x c #523f40",
"c c #523f41",
"v c #533f40",
"b c #533f41",
"n c #50403f",
"m c #51403f",
"M c #52403f",
"N c #52413f",
"B c #53403f",
"V c #53413f",
"C c #514040",
"Z c #524040",
"A c #524141",
"S c #534040",
"D c #534041",
"F c #534140",
"G c #534141",
"H c #544140",
"J c #584444",
"K c #584544",
"L c #5c4747",
"P c #5d4747",
"I c #5c4848",
"U c #5d4848",
"Y c #634d4d",
"T c #634e4d",
"R c #644e4e",
"E c #654e4e",
"W c #685151",
"Q c #6a5353",
"! c #6a5354",
"~ c #6c5454",
"^ c #9f7c7c",
"/ c Gray75",
/* pixels */
"^^EccccnkccBSE^^//",
"^^ESScccSSScHE^^//",
"^^EcSSScccBcSE^^//",
"^^EBcSSckkScSE^^//",
"^^ESccBckkkSBE^^//",
"^^EBSSBcckBSBE^^//",
"^^EBSSBBScBkBE^^//",
"^^ESBBSkccBSSE^^//",
"^^EccSSkSckSSE^^//",
"~~JScckBSSkSSJ~~//",
"BkSSkBkcBSkBSBBc//",
"BSSSkkBSSkkSSSSS//",
"SSSSkkBSBBBSSSSS//",
"SBcBcBcSccBSSBBS//",
"CSSSSBBSccckSBBB//",
"CcBBSSBBckcgzCSB//",
"CnkkBSBBSBkccSSk//",
"ckcBBznCcSkSSSSB//",
"kSkSBBBccckSBSSB//",
"kSkSSkkkcckkcSkk//",
"##%:>:>*::>*:&#X//",
"QQr<<<<<<<<<0t!Q//",
"^^TgggggggggkT^^//",
"^^P#<0000000#P^^//",
"^^U yggggggg I^^//",
"^^QXgkkSkkBg.W^^//",
"//////////////////",
"//////////////////"
};
