/* XPM */
static char *magick[] = {
/* columns rows colors chars-per-pixel */
"12 16 31 1",
"  c #575050",
". c #585050",
"X c #585051",
"o c #585151",
"O c #595050",
"+ c #595150",
"@ c #5b5252",
"# c #635757",
"$ c #645757",
"% c #645857",
"& c #655858",
"* c #655958",
"= c #665858",
"- c #665958",
"; c #6a5a5b",
": c #6e5e5e",
"> c #6f5e5e",
", c #705e5e",
"< c #776363",
"1 c #796464",
"2 c #7a6565",
"3 c #7b6565",
"4 c #7c6666",
"5 c #7f6767",
"6 c #806868",
"7 c #826969",
"8 c #8a6e6e",
"9 c #8c6f6f",
"0 c #8f7171",
"q c #947474",
"w c Gray75",
/* pixels */
"qqqqqqqqqqww",
"q075555579ww",
"8>;,>,>,,5ww",
"*@*>>>>>>5ww",
"@@*>>>>>>2ww",
"@ *>>,,>>2ww",
"  *>>>>>,2ww",
" @*>>>>>>2ww",
" @%>>>>,>2ww",
" @#>>>>>,<ww",
"  #>>>>>,<ww",
" .$>,>>>><ww",
" .#>>>>>><ww",
" .#>>>>>><ww",
"wwwwwwwwwwww",
"wwwwwwwwwwww"
};
