/* XPM */
static char *magick[] = {
/* columns rows colors chars-per-pixel */
"17 38 41 1",
"  c Gray40",
". c #666667",
"X c #666766",
"o c #666767",
"O c #676666",
"+ c #676667",
"@ c #676766",
"# c #676767",
"$ c #676768",
"% c #676867",
"& c #686767",
"* c #686768",
"= c #686867",
"- c #686868",
"; c #686968",
": c Gray41",
"> c #6a6a6a",
", c #6a6a6b",
"< c #6a6b6a",
"1 c #6b6a6a",
"2 c #717172",
"3 c #717271",
"4 c #727171",
"5 c Gray45",
"6 c Gray46",
"7 c #777777",
"8 c #797979",
"9 c #7a797a",
"0 c #7b7b7b",
"q c Gray",
"w c #808080",
"e c Gray51",
"r c #868686",
"t c #878686",
"y c Gray53",
"u c #898989",
"i c #8b8b8b",
"p c #929292",
"a c #939393",
"s c Gray58",
"d c Gray75",
/* pixels */
"sp3-#########-idd",
"sp3%########$-idd",
"sp3$########%-idd",
"sp3##########-idd",
"ss6$########--idd",
"ss6%#########-idd",
"ss6##########-idd",
"ss6&########--idd",
"ss6%#########-idd",
"ss6##########-idd",
"ss6%#########-idd",
"ss6%#########-idd",
"ss6&##########rdd",
"ss6$##########rdd",
"ss8-##########rdd",
"ss8-##########rdd",
"ss8*##########rdd",
"ss8-##########rdd",
"ss8###########rdd",
"ss8=##########rdd",
"ss8-##########rdd",
"ss8=##########rdd",
"ss8-##########rdd",
"ss8*##########rdd",
"ssq-##########rdd",
"ssq-#########-rdd",
"ssq-#########-rdd",
"ssq-#########-rdd",
"ssq-#########-rdd",
"ssq-#########-rdd",
"ssq-#########-rdd",
"ssq-#########-idd",
"ssq-#########-rdd",
"ssw-#########-rdd",
"ssw-#########-rdd",
"ssw-###-#####-rdd",
"ddddddddddddddddd",
"ddddddddddddddddd"
};
