/* XPM */
static char *magick[] = {
/* columns rows colors chars-per-pixel */
"12 17 33 1",
"  c #444444",
". c Gray27",
"X c #464545",
"o c #474646",
"O c #484647",
"+ c #494747",
"@ c #4b4848",
"# c #504b4b",
"$ c #5d5353",
"% c #5f5454",
"& c #5f5555",
"* c #605555",
"= c #615555",
"- c #615556",
"; c #625657",
": c #645757",
"> c #635857",
", c #645858",
"< c #665858",
"1 c #675a5a",
"2 c #6f5e5e",
"3 c #705e5e",
"4 c #705f5f",
"5 c #7a6565",
"6 c #7b6565",
"7 c #7d6666",
"8 c #7e6767",
"9 c #7f6767",
"0 c #816969",
"q c #836a6a",
"w c #856b6b",
"e c #876d6d",
"r c Gray75",
/* pixels */
"e222222,#-rr",
"e422222,@Xrr",
"w422222,+Xrr",
"q222222:+Xrr",
"q222244:+Xrr",
"q222242>+Xrr",
"q222222-XXrr",
"q422222-XXrr",
"9242222-XXrr",
"9222224-XXrr",
"9222222%XXrr",
"9422222%XXrr",
"9222222$X rr",
"6242222$X rr",
"6244222$X rr",
"rrrrrrrrrrrr",
"rrrrrrrrrrrr"
};
