/* XPM */
static char *magick[] = {
/* columns rows colors chars-per-pixel */
"12 17 59 1",
"  c Gray0",
". c #020101",
"X c #030203",
"o c #040403",
"O c #040404",
"+ c #040405",
"@ c #070707",
"# c #090809",
"$ c #090909",
"% c #0b0c0b",
"& c #0d0d0e",
"* c #0d0e0d",
"= c #0d0e0e",
"- c #151616",
"; c #191919",
": c #201f20",
"> c #2d2d2d",
", c #313231",
"< c #373738",
"1 c #373838",
"2 c #3b3a3c",
"3 c #3f3f3d",
"4 c #3e3f3f",
"5 c #3f3e3f",
"6 c #3f3f3f",
"7 c #424142",
"8 c #444545",
"9 c Gray27",
"0 c #454546",
"q c #464546",
"w c #4b4a4b",
"e c #4e4d4e",
"r c #4f4f51",
"t c #4f504f",
"y c #505050",
"u c #505051",
"i c #535353",
"p c #545555",
"a c #555455",
"s c #555554",
"d c #555555",
"f c #555456",
"g c #555556",
"h c #555654",
"j c #555655",
"k c #555656",
"l c #555757",
"z c #565455",
"x c #565555",
"c c #565556",
"v c #565654",
"b c #565655",
"n c #565656",
"m c #5a5a5a",
"M c Gray39",
"N c #777777",
"B c #909090",
"V c #9d9d9d",
"C c Gray75",
/* pixels */
"llzlzz8*  CC",
"llilzl8*  CC",
"lsllll8*  CC",
"lilill7%  CC",
"zzslsl3#  CC",
"lllilz3#  CC",
"lssllz3#  CC",
"lsllll3#  CC",
"llzlll2@  CC",
"lzzill1O  CC",
"lzlllz<O  CC",
"lzilzl1O  CC",
"yrtrew,   CC",
"M8>:;-*   CC",
"VBNmyyyyyyCC",
"CCCCCCCCCCCC",
"CCCCCCCCCCCC"
};
