/* XPM */
static char *magick[] = {
/* columns rows colors chars-per-pixel */
"41 41 89 1",
"  c #8d4f4f",
". c #8f4f4f",
"X c #875757",
"o c #875858",
"O c #8b5050",
"+ c #8b5151",
"@ c #885454",
"# c #885554",
"$ c #885555",
"% c #895454",
"& c #895554",
"* c #8a5a5a",
"= c #8e5b5a",
"- c #984747",
"; c #994747",
": c #9b4646",
"> c #9d4646",
", c #9f4545",
"< c #9f4645",
"1 c #984847",
"2 c #994847",
"3 c #984848",
"4 c #9a4949",
"5 c #984f4f",
"6 c #935454",
"7 c #935555",
"8 c #965151",
"9 c #945555",
"0 c #9a5353",
"q c #836363",
"w c #846464",
"e c #846564",
"r c #846565",
"t c #876969",
"y c #886363",
"u c #886464",
"i c #886564",
"p c #886565",
"a c #896969",
"s c #886b6b",
"d c #896c6c",
"f c #8a6c6c",
"g c #8d6f6f",
"h c #8f7070",
"j c #8f7171",
"k c #907171",
"l c #907272",
"z c #917272",
"x c #937474",
"c c #947474",
"v c #a14444",
"b c #a14544",
"n c #a24444",
"m c #a34444",
"M c #a34544",
"N c #a34545",
"B c #a44444",
"V c #a44544",
"C c #a54444",
"Z c #a74645",
"A c #a64646",
"S c #a44848",
"D c #ad4544",
"F c #ae4544",
"G c #b54645",
"H c #b54646",
"J c #b64544",
"K c #b74444",
"L c #b74544",
"P c #b74848",
"I c #b84444",
"U c #b84544",
"Y c #b94544",
"T c #b94747",
"R c #bb4544",
"E c #ba4747",
"W c #bc4444",
"Q c #bc4646",
"! c #bc4746",
"~ c #bf4544",
"^ c #bf4545",
"/ c #be4646",
"( c #b84847",
") c #b94847",
"_ c #c14544",
"` c #c14545",
"' c #c24444",
"] c #c24544",
"[ c Gray75",
/* pixels */
"ccccccccccccccccw1,S6fccccccccccccccccc[[",
"ccccccccccccccccw1bJ(uccccccccccccccccc[[",
"ccccccccccccccccw1bU(uccccccccccccccccc[[",
"ccccccccccccccccw1bJ(uccccccccccccccccc[[",
"ccccccccccccccccw;bJ(uccccccccccccccccc[[",
"ccccccccccccccccw;bJ(uccccccccccccccccc[[",
"ccccccccccccccccw;bJ(uccccccccccccccccc[[",
"ccccccccccccccccw1bU(uccccccccccccccccc[[",
"ccccccccccccccccw;bJ(uccccccccccccccccc[[",
"ccccccccccccccccw;bJUuccccccccccccccccc[[",
"ccccccccccccccccw;bU(uccccccccccccccccc[[",
"ccccccccccccccccw;bU(uccccccccccccccccc[[",
"ccccccccccccccccw1bJ(uccccccccccccccccc[[",
"ccccccccccccccccw1bU(uccccccccccccccccc[[",
"ccccccccccccccccw1bU(uccccccccccccccccc[[",
"llllllllllllllllq;bJUyllllllllllllllccc[[",
"@@@@@@@@@@@@@@@@.,bJ~5@@@@@@@@@@@@@Xwhc[[",
";bVVVVbbVVbbbVVVVVVU]DVVVVVbVVVbVbVb3oa[[",
"OVJUJUUUUUUUUUUUJUU~]~UUUUUUUUUUJUUUUJ9[[",
"a8P(((((((((((((~~]]]~((((((((((((((((0[[",
"xfuuuuuuuuuuuuuu*VDU~=uuuuuuuuuuuuuuuua[[",
"ccccccccccccccccw;bJ(uccccccccccccccccc[[",
"ccccccccccccccccw;bJ(uccccccccccccccccc[[",
"ccccccccccccccccw;bJ(uccccccccccccccccc[[",
"ccccccccccccccccw;bJ(uccccccccccccccccc[[",
"ccccccccccccccccw;bJ(uccccccccccccccccc[[",
"ccccccccccccccccw;bJ(uccccccccccccccccc[[",
"ccccccccccccccccw;bJ(uccccccccccccccccc[[",
"ccccccccccccccccw;bJ(uccccccccccccccccc[[",
"ccccccccccccccccw;bU(uccccccccccccccccc[[",
"ccccccccccccccccw;bJ(uccccccccccccccccc[[",
"ccccccccccccccccw;bU(uccccccccccccccccc[[",
"ccccccccccccccccw1bJ(uccccccccccccccccc[[",
"ccccccccccccccccw;bU(uccccccccccccccccc[[",
"ccccccccccccccccw3bJ(uccccccccccccccccc[[",
"ccccccccccccccccfO,U(uccccccccccccccccc[[",
"ccccccccccccccccxt.J(uccccccccccccccccc[[",
"cccccccccccccccccxt60accccccccccccccccc[[",
"ccccccccccccccccccxhglccccccccccccccccc[[",
"[[[[[[[[[[[[[[[[[[[[[[[[[[[[[[[[[[[[[[[[[",
"[[[[[[[[[[[[[[[[[[[[[[[[[[[[[[[[[[[[[[[[["
};
