/* XPM */
static char *magick[] = {
/* columns rows colors chars-per-pixel */
"50 55 9 1",
"  c #6f5e5e",
". c #705e5e",
"X c #705e5f",
"o c #715f5f",
"O c #725f5f",
"+ c #726060",
"@ c #736161",
"# c #746161",
"$ c Gray75",
/* pixels */
"#   .               .       . .       .       . $$",
"#.  .              .          .       .       . $$",
"@.      . .       .        .                 .  $$",
"@       .   .     . .      .            .       $$",
"@         ..    .   .   .          .    .    .. $$",
"@       . .. .  .   .   .    .               .  $$",
".      .     .  .   . . .   ..    .       .    .$$",
".                   .  . . ..                   $$",
".      .   .                  .                 $$",
".      ... .        .       . .            .    $$",
".       .     .     . .     .                 . $$",
".       .                .      . .    .     .. $$",
".       . .            . . .  . .      .      . $$",
"         ..            .   .    ..              $$",
"      .      .             .           .      ..$$",
"      ..    .                     .  .    ..    $$",
"       .  .  .                 . .       .      $$",
".         .  .      .        . . .. ..  ..      $$",
" .     .            .        .    . .   . .     $$",
" .     .              .   .         .    ..     $$",
"    .                 .   .   .         ..   .  $$",
"             ..  .           .   . .            $$",
"   .      .  .  .           .    .             .$$",
"                   .           .  .             $$",
"   . .             .    .      .                $$",
".  . . ..  .           ..        .        .     $$",
"       .   . ..   .    .         .   ..   .    .$$",
"            ...   .             .    ..         $$",
"     .                  .        .    .   .     $$",
".                       .                       $$",
".      .. .   .         ..         .     .      $$",
".    .  .     .       .. ..      .    .  .      $$",
" .   .   .     ...    .   . .    .    . .       $$",
"..       .     .       .     .              ..  $$",
"  . .     .     .      .   . ..        .   .    $$",
"   .    .       .                        .      $$",
"              .    .             .     .        $$",
"  .          .       .                    .     $$",
"   .                    ..              .       $$",
"   .  .         .      . .              .       $$",
"     ..  .   .      .     . .                   $$",
"          .  . .    . .   .                .    $$",
"..            .      .   .. . ..           .    $$",
"              .       .    .         ..       . $$",
"                       ..     .       . .     . $$",
"        .  .              .                     $$",
"       .        . .          .     .            $$",
"   .   .                   . .     .           .$$",
"                .   .      .            .   .   $$",
"                       .                        $$",
"   .                    .              . ..  .  $$",
"          .          .  .               .  .    $$",
".  .                 .      .           ..  .   $$",
"$$$$$$$$$$$$$$$$$$$$$$$$$$$$$$$$$$$$$$$$$$$$$$$$$$",
"$$$$$$$$$$$$$$$$$$$$$$$$$$$$$$$$$$$$$$$$$$$$$$$$$$"
};
