/* XPM */
static char *magick[] = {
/* columns rows colors chars-per-pixel */
"46 12 22 1",
"  c #5d5353",
". c #6a5b5b",
"X c #6b5c5c",
"o c #6c5c5c",
"O c #6c5c5d",
"+ c #6c5d5c",
"@ c #6d5c5d",
"# c #6d5d5c",
"$ c #6d5d5d",
"% c #6e5d5d",
"& c #6e5d5e",
"* c #6e5e5d",
"= c #6f5e5e",
"- c #705e5e",
"; c #806868",
": c #826a6a",
"> c #836a6a",
", c #896e6e",
"< c #8b6f6f",
"1 c #8f7171",
"2 c #947474",
"3 c Gray75",
/* pixels */
"22222222<-ooooooo-oooooooooooo-oooo>2222222233",
"22222222<-oooooo-ooo-oooooooooooo-->2222222233",
"22222222<-ooooooooooooooooooooooooo>2222222233",
"22222222<-oooooooooooo-oooo-ooo-oo=>2222222233",
"22222222<-ooooooooooooooooooooooo-o>2222222233",
"22222222,-oooooooooo-ooooooooooooo=>2222222233",
"22222222<-ooooooooooooooooooo=ooooo;2222222233",
"22222222<-ooooooooooooooooooooooooo;2222222233",
"222222221X                        X<2222222233",
"222222222,;;;;;;;;;;;;;;;;;;;;;;;;<22222222233",
"3333333333333333333333333333333333333333333333",
"3333333333333333333333333333333333333333333333"
};
