/* XPM */
static char *magick[] = {
/* columns rows colors chars-per-pixel */
"12 12 31 1",
"  c #444444",
". c Gray27",
"X c #464545",
"o c #464646",
"O c #464647",
"+ c #464747",
"@ c #484948",
"# c #484949",
"$ c #494949",
"% c #5e5d5d",
"& c Gray37",
"* c #5f5f5f",
"= c Gray38",
"- c #636263",
"; c #656464",
": c #656565",
"> c #6f6f6f",
", c #6f6f70",
"< c #6f706f",
"1 c #706f6f",
"2 c #706f70",
"3 c #70706f",
"4 c #777777",
"5 c #797979",
"6 c Gray48",
"7 c #7a7a7b",
"8 c #7b7b7b",
"9 c #7d7c7c",
"0 c Gray50",
"q c #818181",
"w c Gray75",
/* pixels */
"q21>>><:@.ww",
"0>>,>>>:@.ww",
"0>>>>,>-@.ww",
"0>>><>>-..ww",
"0>>>1>>-..ww",
"8,>>><>-..ww",
"8>>>>>>*..ww",
"8>>>11>*..ww",
"82>>22>*..ww",
"423>2>1*..ww",
"wwwwwwwwwwww",
"wwwwwwwwwwww"
};
