/* XPM */
static char *magick[] = {
/* columns rows colors chars-per-pixel */
"32 10 7 1",
"  c #6d5d5d",
". c #6e5d5d",
"X c #6e5e5e",
"o c #6f5e5e",
"O c #876d6d",
"+ c #947474",
"@ c Gray75",
/* pixels */
"+OXXXXXX...................XO+@@",
"+OXXXXXX...................XO+@@",
"+OXXXXXX...................XO+@@",
"+OXXXXXX...................XO+@@",
"+OX.XXXX...................XO+@@",
"+OX.XXXX...................XO+@@",
"+OX.XXXX...................XO+@@",
"+OX..XXX...................XO+@@",
"@@@@@@@@@@@@@@@@@@@@@@@@@@@@@@@@",
"@@@@@@@@@@@@@@@@@@@@@@@@@@@@@@@@"
};
