/* XPM */
static char *magick[] = {
/* columns rows colors chars-per-pixel */
"19 19 89 1",
"  c #30237c",
". c #31267a",
"X c #31267b",
"o c #332779",
"O c #32267a",
"+ c #32267b",
"@ c #33267a",
"# c #32257f",
"$ c #382b73",
"% c #3b2e76",
"& c #3c2e76",
"* c #3d2e76",
"= c #382a79",
"- c #3a2b78",
"; c #3a2b7b",
": c #3c2e78",
"> c #3d2e78",
", c #3e2f78",
"< c #3f2f78",
"1 c #41336e",
"2 c #4f3d67",
"3 c #4a386c",
"4 c #4c3b69",
"5 c #4e3c6e",
"6 c #4e3c6f",
"7 c #4f3c6e",
"8 c #403075",
"9 c #403175",
"0 c #443475",
"q c #483870",
"w c #4b3971",
"e c #4c3a70",
"r c #4d3a70",
"t c #513e6e",
"y c #533f6c",
"u c #534068",
"i c #53406b",
"p c #554269",
"a c #5b4769",
"s c #5b466c",
"d c #5d4963",
"f c #5d4964",
"g c #5e4a66",
"h c #604b63",
"j c #654e68",
"k c #6a5366",
"l c #6b5366",
"z c #6b5367",
"x c #6c5467",
"c c #6f5666",
"v c #6a5269",
"b c #6c5369",
"n c #715866",
"m c #735968",
"M c #765c6a",
"N c #775c6a",
"B c #785e67",
"V c #795e67",
"C c #785c6a",
"Z c #785d6a",
"A c #7a5e6a",
"S c #7b5f6a",
"D c #7d6269",
"F c #7e636a",
"G c #261c89",
"H c #261c8a",
"J c #271c8b",
"K c #271c8c",
"L c #2b1f86",
"P c #281c8a",
"I c #2a1e8b",
"U c #211890",
"Y c #80646a",
"T c #81656a",
"R c #82666b",
"E c #82666c",
"W c #84666d",
"Q c #85686d",
"! c #86696d",
"~ c #886a6e",
"^ c #896b6f",
"/ c #8b6d70",
"( c #8c6d70",
") c #907072",
"_ c #927274",
"` c #957475",
"' c #997878",
"] c #9f7c7c",
"[ c Gray75",
/* pixels */
"]]]]]]/t0wW]]]]]][[",
"]]]]]]AH$Lx]]]]]][[",
"]]]]]]A,Rez]]]]]][[",
"]]]]]]A,Q6z]]]]]][[",
"]]]]]]N,Q6z]]]]]][[",
"]]]]]]A,Q6z]]]]]][[",
")AANNNs;~6yNCCAA/[[",
"bK XXX g`xXXXXXHa[[",
"v#nBBBD_]`RBBBBwu[[",
"jU;***9m'A9%**%Gp[[",
"Qhdgdd3,(61dgdggD[[",
"]]]]]]N,Q6z]]]]]][[",
"]]]]]]N,Q6z]]]]]][[",
"]]]]]]A,Q6z]]]]]][[",
"]]]]]]A,Rez]]]]]][[",
"]]]]]]AP;Pz]]]]]][[",
"]]]]]]~u24R]]]]]][[",
"[[[[[[[[[[[[[[[[[[[",
"[[[[[[[[[[[[[[[[[[["
};
