/* XPM */
static char *magick[] = {
/* columns rows colors chars-per-pixel */
"19 19 77 1",
"  c #57569d",
". c #57569f",
"X c #58579d",
"o c #58579f",
"O c #5c5b94",
"+ c #5d5d92",
"@ c #5d5d93",
"# c #5e5d93",
"$ c #5c5c94",
"% c #59589e",
"& c #5a589d",
"* c #5d5c98",
"= c #5554a0",
"- c #605f92",
"; c #61608f",
": c #65648f",
"> c #66668c",
", c #6c6b87",
"< c #68688b",
"1 c #69688d",
"2 c MediumSlateBlue",
"3 c #6b6a8d",
"4 c #6b6b8c",
"5 c #6b6b8d",
"6 c #6c6b8c",
"7 c #6c6b8d",
"8 c #6c6c88",
"9 c #6e6d88",
"0 c #6e6d8b",
"q c #6f6f89",
"w c #6e6e8b",
"e c #6c6c8c",
"r c #616093",
"t c #626290",
"y c #626291",
"u c #636290",
"i c #636291",
"p c #636293",
"a c #636393",
"s c #616194",
"d c #626194",
"f c #636294",
"g c #646393",
"h c #676690",
"j c #727285",
"k c #737384",
"l c #737385",
"z c #737386",
"x c #757585",
"c c #777787",
"v c #727289",
"b c #737389",
"n c #797987",
"m c #7a7a87",
"M c #7b7a86",
"N c #7b7b87",
"B c #7e7d86",
"V c #797988",
"C c #7a7a88",
"Z c #818187",
"A c #808088",
"S c #818188",
"D c #828288",
"F c #838388",
"G c #858589",
"H c #86868a",
"J c #87878b",
"K c #88888b",
"L c #89898c",
"P c #8a8a8c",
"I c #8b8b8d",
"U c #8d8d8e",
"Y c Gray56",
"T c #8f8f90",
"R c Gray57",
"E c Gray58",
"W c Gray75",
/* pixels */
"EEEEEEJ2heIEEEEEEWW",
"EEEEEECX;%AEEEEEEWW",
"EEEEEEM2JpAEEEEEEWW",
"EEEEEEC2KgAEEEEEEWW",
"EEEEEEM7KpAEEEEEEWW",
"EEEEEEC2KgAEEEEEEWW",
"IAAAAA02KsbAAAAAIWW",
"bX@@@@@MYz$@@@O.MWW",
"0<ZZZZJTEYZZZZB$CWW",
"0.p;pp>ARMpp;p-=xWW",
"Zzzzkk>7Is<zzzzxKWW",
"EEEEEEM2KpAEEEEEEWW",
"EEEEEEM7KpAEEEEEEWW",
"EEEEEEM2KgAEEEEEEWW",
"EEEEEEM2JsAEEEEEEWW",
"EEEEEEM%pXAEEEEEEWW",
"EEEEEEJ,,,IEEEEEEWW",
"WWWWWWWWWWWWWWWWWWW",
"WWWWWWWWWWWWWWWWWWW"
};
