/* XPM */
static char *magick[] = {
/* columns rows colors chars-per-pixel */
"24 24 43 1",
"  c #845d5d",
". c #875c5c",
"X c #875d5c",
"o c #8c5555",
"O c #8d5656",
"+ c #885c5c",
"@ c #885d5c",
"# c #885d5d",
"$ c #935555",
"% c #9b5151",
"& c #9c5151",
"* c #836464",
"= c #836564",
"- c #846161",
"; c #846464",
": c #846565",
"> c #866464",
", c #866969",
"< c #876868",
"1 c #886060",
"2 c #896161",
"3 c #886464",
"4 c #886564",
"5 c #886565",
"6 c #896a6a",
"7 c #8c6e6e",
"8 c #8c6f6f",
"9 c #8d6f6f",
"0 c #8e7070",
"q c #8f7171",
"w c #907171",
"e c #917272",
"r c #917373",
"t c #927373",
"y c #947474",
"u c #a34b4b",
"i c #a04c4c",
"p c #a34c4c",
"a c #a74d4c",
"s c #af4747",
"d c #a84a49",
"f c #b74646",
"g c Gray75",
/* pixels */
"yyyyyyyyyy<1qyyyyyyyyygg",
"yyyyyyyyyy+%8yyyyyyyyygg",
"yyyyyyyyyy+&8yyyyyyyyygg",
"yyyyyyyyyy+%8yyyyyyyyygg",
"yyyyyyyyyyX&8yyyyyyyyygg",
"yyyyyyyyyy+%8yyyyyyyyygg",
"yyyyyyyyyyX&8yyyyyyyyygg",
"yyyyyyyyyyX&8yyyyyyyyygg",
"yyyyyyyyyy+&8yyyyyyyyygg",
"t633333333$a1333333338gg",
"qouuuuuuuusfduuuuuuup;gg",
"t<********op-*******;8gg",
"yyyyyyyyyy+&8yyyyyyyyygg",
"yyyyyyyyyy+&8yyyyyyyyygg",
"yyyyyyyyyy+%8yyyyyyyyygg",
"yyyyyyyyyyX%8yyyyyyyyygg",
"yyyyyyyyyy+&8yyyyyyyyygg",
"yyyyyyyyyy+&8yyyyyyyyygg",
"yyyyyyyyyy+%8yyyyyyyyygg",
"yyyyyyyyyyX%8yyyyyyyyygg",
"yyyyyyyyyy;Xtyyyyyyyyygg",
"yyyyyyyyyyttyyyyyyyyyygg",
"gggggggggggggggggggggggg",
"gggggggggggggggggggggggg"
};
