/* XPM */
static char *magick[] = {
/* columns rows colors chars-per-pixel */
"24 24 44 1",
"  c #8c5f5f",
". c #935f5f",
"X c #9b5959",
"o c #9b5a59",
"O c #9c5959",
"+ c #9c5a59",
"@ c #846d6d",
"# c #876c6c",
"$ c #876d6c",
"% c #8d6262",
"& c #886c6c",
"* c #886d6c",
"= c #886d6d",
"- c #847474",
"; c #837a7a",
": c #847a7a",
"> c #847b7b",
", c #867878",
"< c #887272",
"1 c #897474",
"2 c #887a7a",
"3 c #887b7b",
"4 c #a34f4f",
"5 c #a84d4d",
"6 c #af4949",
"7 c #a3504f",
"8 c #a05251",
"9 c #a35252",
"0 c #a75252",
"q c #b74847",
"w c #868181",
"e c #878080",
"r c #898383",
"t c #8c8989",
"y c #8c8a8a",
"u c #8c8b8b",
"i c #8d8b8b",
"p c #8e8e8e",
"a c Gray56",
"s c #908f8f",
"d c Gray57",
"f c #929292",
"g c Gray58",
"h c Gray75",
/* pixels */
"gggggggggge<aggggggggghh",
"gggggggggg&ouggggggggghh",
"gggggggggg&+uggggggggghh",
"gggggggggg&ouggggggggghh",
"gggggggggg$+uggggggggghh",
"gggggggggg&ouggggggggghh",
"gggggggggg$+uggggggggghh",
"gggggggggg$+uggggggggghh",
"gggggggggg&+uggggggggghh",
"fr22222222.0122222222uhh",
"a%474444746q544444479:hh",
"fe;;;;;;;; 9-;;;;;;;:uhh",
"gggggggggg&+uggggggggghh",
"gggggggggg&+uggggggggghh",
"gggggggggg&ouggggggggghh",
"gggggggggg$ouggggggggghh",
"gggggggggg&+uggggggggghh",
"gggggggggg&+uggggggggghh",
"gggggggggg&ouggggggggghh",
"gggggggggg$ouggggggggghh",
"gggggggggg:$sggggggggghh",
"ggggggggggffgggggggggghh",
"hhhhhhhhhhhhhhhhhhhhhhhh",
"hhhhhhhhhhhhhhhhhhhhhhhh"
};
