/* XPM */
static char *magick[] = {
/* columns rows colors chars-per-pixel */
"32 10 22 1",
"  c #6d6d6d",
". c #6d6d6e",
"X c #6d6e6d",
"o c #6d6e6e",
"O c #6e6d6d",
"+ c #6e6d6e",
"@ c #6e6e6d",
"# c Gray43",
"$ c #6e6e6f",
"% c #6e6f6e",
"& c #6e6f6f",
"* c #6f6e6f",
"= c #6f6f6e",
"- c #6f6f6f",
"; c #6f7070",
": c #838383",
"> c #868686",
", c Gray53",
"< c #898989",
"1 c #8b8b8b",
"2 c Gray58",
"3 c Gray75",
/* pixels */
"2,======  ==== == ====     =,233",
"2,===               =  ==  =,233",
"2,== =  = ==   ====== ======,233",
"2,== == ====   =====   = ===,233",
"2,== =======   =   ===  = ==,233",
"2,==    ==  == =   === ==  =,233",
"2<== =        ==    = ==   =,233",
"2<$  =        ==    =       :233",
"33333333333333333333333333333333",
"33333333333333333333333333333333"
};
