/* XPM */
static char *magick[] = {
/* columns rows colors chars-per-pixel */
"12 17 39 1",
"  c #444444",
". c Gray27",
"X c #464646",
"o c #474647",
"O c #474746",
"+ c Gray28",
"@ c #484848",
"# c #494949",
"$ c #4b4b4b",
"% c #504f4f",
"& c #5d5d5d",
"* c #5f5f5f",
"= c #606061",
"- c #606161",
"; c Gray38",
": c #626263",
"> c #636464",
", c #646463",
"< c #646464",
"1 c #666665",
"2 c #676868",
"3 c #6f6f6f",
"4 c #6f6f70",
"5 c #6f706f",
"6 c #6f7070",
"7 c #706f6f",
"8 c #706f70",
"9 c #70706f",
"0 c Gray44",
"q c Gray48",
"w c #7b7b7b",
"e c #7d7c7c",
"r c #7e7f7f",
"t c Gray50",
"y c #818181",
"u c #838383",
"i c Gray52",
"p c Gray53",
"a c Gray75",
/* pixels */
"p3333532%*aa",
"p036633<$Xaa",
"p944534<$ aa",
"u544353<$ aa",
"u353397,$ aa",
"u533584>$ aa",
"u343533;X aa",
"u053533;X aa",
"t393343;XXaa",
"t433337;X aa",
"t333333*XXaa",
"t733333*XXaa",
"t345333*X aa",
"w375333*X aa",
"w377333*X aa",
"aaaaaaaaaaaa",
"aaaaaaaaaaaa"
};
