/* XPM */
static char *magick[] = {
/* columns rows colors chars-per-pixel */
"25 17 78 1",
"  c #1b1515",
". c #1d1615",
"X c #1c1616",
"o c #1f1818",
"O c #201a18",
"+ c #231b1b",
"@ c #231b1c",
"# c #231c1c",
"$ c #271e1e",
"% c #281d1e",
"& c #292121",
"* c #2a2121",
"= c #2b2020",
"- c #2b2121",
"; c #2a2220",
": c #2d2323",
"> c #2e2323",
", c #302525",
"< c #302627",
"1 c #312626",
"2 c #312627",
"3 c #322626",
"4 c #342929",
"5 c #352a29",
"6 c #352a2a",
"7 c #392c2c",
"8 c #392d2d",
"9 c #3c2e2e",
"0 c #413333",
"q c #423434",
"w c #433434",
"e c #493838",
"r c #4f3e3e",
"t c #4f3e3f",
"y c #503e3f",
"u c #513f3f",
"i c #524041",
"p c #524140",
"a c #534142",
"s c #534242",
"d c #554143",
"f c #554341",
"g c #544242",
"h c #544243",
"j c #544342",
"k c #544343",
"l c #554242",
"z c #554243",
"x c #554342",
"c c #554343",
"v c #564343",
"b c #574545",
"n c #584444",
"m c #584545",
"M c #594645",
"N c #5a4746",
"B c #5a4747",
"V c #5b4647",
"C c #735b5a",
"Z c #745b5b",
"A c #785e5e",
"S c #7c6161",
"D c #816565",
"F c #826666",
"G c #856868",
"H c #876a6a",
"J c #896b6b",
"K c #8c6d6d",
"L c #8d6e6e",
"P c #907171",
"I c #917171",
"U c #957474",
"Y c #967575",
"T c #987777",
"R c #9a7878",
"E c #9d7b7b",
"W c #9f7c7c",
"Q c Gray75",
/* pixels */
"WWWWWWWWWWWWWWWWWWWWWWWQQ",
"WWWWWWWWWWWWWWWWWWWWWWWQQ",
"YYYILLLLJGGGGDSSSSAZZZCQQ",
"MMMMMMbMlllllllllllllllQQ",
"llllllsllllllllllllllllQQ",
"lllllllllllllllllllllllQQ",
"lllllllllllllllllllllllQQ",
"lllllllllllllllllllllllQQ",
"lllllllllllllllllllllllQQ",
"llllllllllllllsssssuruuQQ",
"888611111>====$@##Oo XXQQ",
"O%>====1666690wwwwerrrrQQ",
"DGLLLLLIYYYYTRRRRREWWWWQQ",
"WWWWWWWWWWWWWWWWWWWWWWWQQ",
"WWWWWWWWWWWWWWWWWWWWWWWQQ",
"QQQQQQQQQQQQQQQQQQQQQQQQQ",
"QQQQQQQQQQQQQQQQQQQQQQQQQ"
};
