/* XPM */
static char *magick[] = {
/* columns rows colors chars-per-pixel */
"12 16 49 1",
"  c Gray0",
". c #120e0e",
"X c #151110",
"o c #161010",
"O c #161011",
"+ c #161110",
"@ c #161111",
"# c #191314",
"$ c #1b1616",
"% c #1c1515",
"& c #1d1515",
"* c #1c1516",
"= c #201919",
"- c #241c1c",
"; c #483839",
": c #493a3b",
"> c #4a3a3b",
", c #4b3a3b",
"< c #4a3b3c",
"1 c #4d3d3c",
"2 c #4f3f3e",
"3 c #4f3f3f",
"4 c #503d3e",
"5 c #503e3e",
"6 c #503f3e",
"7 c #513f3f",
"8 c #524140",
"9 c #544242",
"0 c #544243",
"q c #544342",
"w c #544343",
"e c #554242",
"r c #554243",
"t c #554342",
"y c #554343",
"u c #564242",
"i c #564243",
"p c #564342",
"a c #564343",
"s c #574344",
"d c #584545",
"f c #584646",
"g c #5a4746",
"h c #5a4747",
"j c #5b4647",
"k c #5b4746",
"l c #5b4747",
"z c #5c4949",
"x c Gray75",
/* pixels */
"zaaaaaw-  xx",
"jsaaaa4=  xx",
"jaaaaa2%  xx",
"jaaaaa4%  xx",
"jaaaaa4%  xx",
"jaaaaa2%  xx",
"jaaaaa2%  xx",
"daawaa2#  xx",
"daawaa<X  xx",
"daaaaa,X  xx",
"daaaaa,X  xx",
"daaaaa,X  xx",
"sawaaa,X  xx",
"aawaaa,.  xx",
"xxxxxxxxxxxx",
"xxxxxxxxxxxx"
};
