/* XPM */
static char *magick[] = {
/* columns rows colors chars-per-pixel */
"12 16 49 1",
"  c #505050",
". c #515251",
"X c #535353",
"o c Gray33",
"O c #555455",
"+ c #565657",
"@ c Gray34",
"# c #575758",
"$ c #575857",
"% c #575858",
"& c #585757",
"* c #585758",
"= c #585857",
"- c #585858",
"; c #595858",
": c #595958",
"> c Gray35",
", c #5a5959",
"< c #5a5a5a",
"1 c #5a5b5a",
"2 c #5d5d5d",
"3 c #626262",
"4 c #636463",
"5 c #646565",
"6 c #666565",
"7 c #666665",
"8 c Gray40",
"9 c #676667",
"0 c #676867",
"q c #676868",
"w c #686767",
"e c #686768",
"r c #686868",
"t c #6a6969",
"y c #6c6d6c",
"u c #6c6d6d",
"i c #6d6c6c",
"p c #6d6c6d",
"a c #6d6d6c",
"s c #6d6d6d",
"d c #6f6f6f",
"f c #6f6f70",
"g c #6f706f",
"h c #6f7070",
"j c #706f6f",
"k c #70706f",
"l c Gray44",
"z c #707170",
"x c Gray75",
/* pixels */
"#&1tdgdddkxx",
"%%1tdddddgxx",
"$=1qdfjddkxx",
"#%10dfdddjxx",
"&#1ejjdjddxx",
"&#1wdjddddxx",
"@1=6dddjjjxx",
"&116ddddhhxx",
"&#16dfdddfxx",
"@&16dddflkxx",
"@@16dddddfxx",
"@$%4ddddjjxx",
"#*#3ydyiddxx",
"@XXXo@@26lxx",
"xxxxxxxxxxxx",
"xxxxxxxxxxxx"
};
