/* XPM */
static char *magick[] = {
/* columns rows colors chars-per-pixel */
"24 15 2 1",
"  c Gray58",
". c Gray75",
/* pixels */
"                      ..",
"                      ..",
"                      ..",
"                      ..",
"                      ..",
"                      ..",
"                      ..",
"                      ..",
"                      ..",
"                      ..",
"                      ..",
"                      ..",
"                      ..",
"........................",
"........................"
};
