/* XPM */
static char *magick[] = {
/* columns rows colors chars-per-pixel */
"12 17 66 1",
"  c #252625",
". c #252626",
"X c #252726",
"o c #262625",
"O c #272625",
"+ c Gray15",
"@ c #262627",
"# c #262726",
"$ c #272626",
"% c #272726",
"& c #323132",
"* c #323232",
"= c #333434",
"- c #353636",
"; c #373537",
": c #363635",
"> c Gray21",
", c #373937",
"< c #393939",
"1 c #393a3a",
"2 c #3a3939",
"3 c #3a3a3a",
"4 c #3c3b3d",
"5 c Gray24",
"6 c #3e3e3d",
"7 c #4e4f4e",
"8 c #4f504f",
"9 c #505051",
"0 c #515252",
"q c #525151",
"w c #525152",
"e c #535251",
"r c #525253",
"t c #525353",
"y c #535253",
"u c #525453",
"i c #535454",
"p c #555355",
"a c #545555",
"s c #555455",
"d c #555554",
"f c #555555",
"g c #545556",
"h c #555556",
"j c #545655",
"k c #555655",
"l c #555656",
"z c #555756",
"x c #565555",
"c c #565556",
"v c #565655",
"b c #565656",
"n c #585858",
"m c #585859",
"M c #595a5b",
"N c #5a5a5a",
"B c #5a5a5b",
"V c #5a5b5b",
"C c #5b5c5c",
"Z c #5d5d5d",
"A c #5f5f5f",
"S c #605e60",
"D c #616262",
"F c #646565",
"G c #656565",
"H c Gray75",
/* pixels */
"  5ssssssGHH",
"  5ssssssGHH",
"  4psssssDHH",
"  3yssszsAHH",
"  3yssszsDHH",
"  3ssssssAHH",
"  3usssssZHH",
"$$,esssszCHH",
"  :yssszsNHH",
"  :ysszssNHH",
"  :ysszssVHH",
"$ :ysssssNHH",
"  :ysszssNHH",
"  *7ssszsNHH",
"  *8sssssnHH",
"HHHHHHHHHHHH",
"HHHHHHHHHHHH"
};
