/* XPM */
static char *magick[] = {
/* columns rows colors chars-per-pixel */
"12 16 37 1",
"  c #444444",
". c #4d4e4d",
"X c Gray31",
"o c #4f4f50",
"O c #4f504f",
"+ c #515151",
"@ c Gray32",
"# c #525253",
"$ c #525353",
"% c #535252",
"& c #545555",
"* c #565756",
"= c Gray41",
"- c #696a6a",
"; c #6a6a6a",
": c #6a6a6b",
"> c #6b6c6b",
", c #6c6c6c",
"< c #6c6d6c",
"1 c #6c6d6d",
"2 c #6d6c6c",
"3 c #6d6d6c",
"4 c #6d6d6d",
"5 c Gray43",
"6 c #6f6f6f",
"7 c #6f6f70",
"8 c #6f706f",
"9 c #706f6f",
"0 c #706f70",
"q c #70706f",
"w c Gray44",
"e c #707171",
"r c #717171",
"t c #717271",
"y c #727272",
"u c Gray45",
"i c Gray75",
/* pixels */
"u666686*  ii",
"uu66666&  ii",
"u666666+  ii",
"u966666+  ii",
"u6q6666+  ii",
"u696666+  ii",
"u666996+  ii",
"u66608>+  ii",
"u69679:.  ii",
"u66760-.  ii",
"u66666-o  ii",
"u66676-O  ii",
"666666-.  ii",
"666966-.  ii",
"iiiiiiiiiiii",
"iiiiiiiiiiii"
};
