/* XPM */
static char *magick[] = {
/* columns rows colors chars-per-pixel */
"32 32 204 2",
"   c #3e799b",
".  c #3f7a9b",
"X  c #3c7b9e",
"o  c #3d7a9e",
"O  c #3d7b9e",
"+  c #3d7c9f",
"@  c #377da6",
"#  c #367fa7",
"$  c #377ea7",
"%  c #337fac",
"&  c #357fa9",
"*  c #347fab",
"=  c #357eab",
"-  c #357faa",
";  c #367ea8",
":  c #347fac",
">  c #3b7ba1",
",  c #3a7da2",
"<  c #387ca5",
"1  c #397da5",
"2  c #387ea5",
"3  c #387ea6",
"4  c #387fa7",
"5  c #3c7ba1",
"6  c #3d7ba0",
"7  c #3c7ca1",
"8  c #4d778e",
"9  c #4d778f",
"0  c #4f768c",
"q  c #4f768d",
"w  c #4f778d",
"e  c #437896",
"r  c #437996",
"t  c #437997",
"y  c #447896",
"u  c #447996",
"i  c #467894",
"p  c #407999",
"a  c #417999",
"s  c #41799a",
"d  c #407a99",
"f  c #427998",
"g  c #427a99",
"h  c #487791",
"j  c #497791",
"k  c #497792",
"l  c #4b7790",
"z  c #50768b",
"x  c #51768b",
"c  c #52768b",
"v  c #53768b",
"b  c #53778a",
"n  c #50768c",
"m  c #557689",
"M  c #54768a",
"N  c #567788",
"B  c #567789",
"V  c #577688",
"C  c #577789",
"Z  c #587787",
"A  c #597687",
"S  c #5c7787",
"D  c #5d7786",
"F  c #5e7785",
"G  c #5f7785",
"H  c #5e7885",
"J  c #5f7886",
"K  c #617885",
"L  c #627885",
"P  c #637884",
"I  c #637885",
"U  c #647884",
"Y  c #647885",
"T  c #647984",
"R  c #677a84",
"E  c #697a83",
"W  c #6a7a83",
"Q  c #687a84",
"!  c #697a84",
"~  c #697b84",
"^  c #6a7a84",
"/  c #6b7b84",
"(  c #6c7b84",
")  c #6d7b84",
"_  c #6d7c84",
"`  c #6e7c84",
"'  c #707d84",
"]  c #747f85",
"[  c #757f85",
"{  c #2f81b1",
"}  c #2f82b0",
"|  c #2f82b2",
" . c #2d83b5",
".. c #2e83b4",
"X. c #2f83b4",
"o. c #2c85b7",
"O. c #2d85b6",
"+. c #2e84b5",
"@. c #2e84b7",
"#. c #2e85b7",
"$. c #2f85b7",
"%. c #2b85bb",
"&. c #2b87bb",
"*. c #2987bd",
"=. c #2b87bd",
"-. c #2a86be",
";. c #2c86ba",
":. c #2c87bb",
">. c #2e84b8",
",. c #2e85b9",
"<. c #2988bf",
"1. c #2b88be",
"2. c #3380ab",
"3. c #3381ad",
"4. c #3580a9",
"5. c #3680a9",
"6. c #3081b0",
"7. c #3082b0",
"8. c #3182b0",
"9. c #3182b1",
"0. c #3083b3",
"q. c #2789c3",
"w. c #278ac3",
"e. c #258bc5",
"r. c #268ac5",
"t. c #268bc4",
"y. c #278ac4",
"u. c #278bc5",
"i. c #268ac6",
"p. c #268bc6",
"a. c #248cc8",
"s. c #248cc9",
"d. c #258cca",
"f. c #248eca",
"g. c #268cc8",
"h. c #268dc8",
"j. c #2888c0",
"k. c #2889c1",
"l. c #2988c0",
"z. c #2889c2",
"x. c #298ac1",
"c. c #288bc5",
"v. c #768085",
"b. c #778085",
"n. c #778185",
"m. c #798186",
"M. c #7b8287",
"N. c #7c8387",
"B. c #7d8387",
"V. c #7d8487",
"C. c #7d8388",
"Z. c #7e8488",
"A. c #7f8588",
"S. c #808588",
"D. c #818689",
"F. c #82878a",
"G. c #82888a",
"H. c #83888b",
"J. c #84888b",
"K. c #84898c",
"L. c #86898c",
"P. c #878a8c",
"I. c #888b8d",
"U. c #898b8c",
"Y. c #898c8d",
"T. c #898c8e",
"R. c #8a8c8f",
"E. c #8a8d8e",
"W. c #8b8d8f",
"Q. c #8b8e8f",
"!. c #8c8e8f",
"~. c #8d8f90",
"^. c #8e9090",
"/. c #8e9091",
"(. c #8f9191",
"). c #909192",
"_. c #909193",
"`. c #919293",
"'. c #919393",
"]. c #919294",
"[. c #949495",
"{. c #949595",
"}. c #959596",
"|. c #959597",
" X c #959696",
".X c #969697",
"XX c #969797",
"oX c #979797",
"OX c #979898",
"+X c #989898",
"@X c #989999",
"#X c Gray60",
"$X c #99999a",
"%X c #999a9a",
"&X c #9a9a9a",
"*X c #9a9a9b",
"=X c #9a9b9b",
"-X c #9b9b9b",
";X c #9b9c9c",
":X c Gray61",
">X c #9d9d9d",
",X c Gray62",
"<X c #9f9f9f",
"1X c Gray75",
/* pixels */
"<X<X<X<X<X<X<X<X<X<X<X<X<X<X<X<X<X<X<X<X<X<X<X<X<X<X<X<X<X<X1X1X",
"<X<X<X<X<X<X<X<X<X<X%XQ.m.( D N D ` V.~.%X<X<X<X<X<X<X<X<X<X1X1X",
"<X<X<X<X<X<X<X<X%XZ.v 4.<.a.c.j.u.u.;.@ A P.<X<X<X<X<X<X<X<X1X1X",
"<X<X<X<X<X<X<XD.v +.j.X v P ] b.` D 0 @ u.& D T.<X<X<X<X<X<X1X1X",
"<X<X<X<X<X<X] 3.j.s ` ).<X<X<X<X<X<X<XQ.K < u., V.<X<X<X<X<X1X1X",
"<X<X<X<X<X] 3.{ ! ).<X<X<X<X<X<X<X<X<X<X:XT.D >.@ N.<X<X<X<X1X1X",
"<X<X<X<X] { { ] :X<X<X<X<X<X<X<X<X<X<X<X<X<X%X! +.4.Z.<X<X<X1X1X",
"<X<X<XH.% { ] <X<X<X<X<X<X<X<X<X<X<X<X<X<X<X<X%X! %.r ).<X<X1X1X",
"<X<X%XN u.Y <X<X<X<X<X<X<X<X<X<X<X<X<X<X<X<X<X<X%Xn j.! <X<X1X1X",
"<X<XH.8.6 ^.<X<X<X<X<X<X<X<X<X<X<X<X<X<X<X<X<X<X<XN.+.+ ^.<X1X1X",
"<X<XN w.Y <X<X<X<X<X<X<X<X<X<X<X<X<X<X<X<X<X<X<X<X%Xn u.! <X1X1X",
"<X).> 1 Q.<X<X<X<X<X<X<X<X<X<X<X<X<X<X<X<X<X<X<X<X<Xm.=.0 ;X1X1X",
"<XJ.8.k %X<X<X<X<X<X<X<X<X<X<X<X<X<X<X<X<X<X<X<X<X<X!.@ . }.1X1X",
"<Xb.j.N <X<X<X<X<X<X<X<X<X<X<X<X<X<X<X<X<X<X<X<X<X<X}.s 2.Q.1X1X",
"<X! a.Y <X<X<X<X<X<X<X<X<X<X<X<X<X<X<X<X<X<X<X<X<X<X<X0 =.m.1X1X",
"<XP a.! <X<X<X<X<X<X<X<X<X<X<X<X<X<X<X<X<X<X<X<X<X<X<XN j.b.1X1X",
"<X( u.J <X<X<X<X<X<X<X<X<X<X<X<X<X<X<X<X<X<X<X<X<X<X;X0 +.D.1X1X",
"<XN.;.0 <X<X<X<X<X<X<X<X<X<X<X<X<X<X<X<X<X<X<X<X<X<X}.. 1 ~.1X1X",
"<XQ.& s }.<X<X<X<X<X<X<X<X<X<X<X<X<X<X<X<X<X<X<X<X<XT.% y OX1X1X",
"<X}.y ;.N.<X<X<X<X<X<X<X<X<X<X<X<X<X<X<X<X<X<X<X<X<XE u.A <X1X1X",
"<X<X` j.v %X<X<X<X<X<X<X<X<X<X<X<X<X<X<X<X<X<X<X<X^.X +.Z.<X1X1X",
"<X<X).s +.V.<X<X<X<X<X<X<X<X<X<X<X<X<X<X<X<X<X<X<XY u.N %X<X1X1X",
"<X<X<X` j.s Q.<X<X<X<X<X<X<X<X<X<X<X<X<X<X<X<X<XH.@ 8.D.<X<X1X1X",
"<X<X<X).k a.y Q.<X<X<X<X<X<X<X<X<X<X<X<X<X<X<XH.6 =.Y %X<X<X1X1X",
"<X<X<X<XQ.r a.r Q.<X<X<X<X<X<X<X<X<X<X<X<X<XH.7 =.P }.<X<X<X1X1X",
"<X<X<X<X<XQ.r a.X ` ).<X<X<X<X<X<X<X<X<XQ.P & <.P }.<X<X<X<X1X1X",
"<X<X<X<X<X<XQ.v X.w.s E D.~.}.%X}.!.Z.P 1 u.& ! }.<X<X<X<X<X1X1X",
"<X<X<X<X<X<X<X%XC.v X.u.+.1 r k s 1 %.a.: D P.-X<X<X<X<X<X<X1X1X",
"<X<X<X<X<X<X<X<X<X%XZ.D k . & X.& s 0 P P.<X<X<X<X<X<X<X<X<X1X1X",
"<X<X<X<X<X<X<X<X<X<X<X<X%X}.T.D.Q.}.<X<X<X<X<X<X<X<X<X<X<X<X1X1X",
"1X1X1X1X1X1X1X1X1X1X1X1X1X1X1X1X1X1X1X1X1X1X1X1X1X1X1X1X1X1X1X1X",
"1X1X1X1X1X1X1X1X1X1X1X1X1X1X1X1X1X1X1X1X1X1X1X1X1X1X1X1X1X1X1X1X"
};
