/* XPM */
static char *magick[] = {
/* columns rows colors chars-per-pixel */
"16 15 62 1",
"  c #302524",
". c #312525",
"X c #352928",
"o c #392c2c",
"O c #3c2f2f",
"+ c #3e3030",
"@ c #423232",
"# c #443535",
"$ c #463637",
"% c #4a393a",
"& c #4b3b3b",
"* c #4b3c3b",
"= c #4b3c3c",
"- c #4c3b3b",
"; c #4d3b3b",
": c #4c3b3c",
"> c #4d3b3c",
", c #4c3c3b",
"< c #4c3c3c",
"1 c #4c3d3c",
"2 c #4d3c3c",
"3 c #4d3c3d",
"4 c #4d3d3c",
"5 c #4e3c3c",
"6 c #4e3c3d",
"7 c #4e3d3c",
"8 c #4e3d3d",
"9 c #4f3e3d",
"0 c #503e3e",
"q c #503f3f",
"w c #513f3f",
"e c #544040",
"r c #544141",
"t c #554343",
"y c #564343",
"u c #574443",
"i c #574444",
"p c #584344",
"a c #5e4849",
"s c #5e4949",
"d c #634e4e",
"f c #644e4e",
"g c #675151",
"h c #685151",
"j c #6d5555",
"k c #775d5d",
"l c #795e5e",
"z c #7d6262",
"x c #7e6363",
"c c #7f6363",
"v c #896b6b",
"b c #8f6f6f",
"n c #8f7070",
"m c #927171",
"M c #967575",
"N c #997878",
"B c #9a7878",
"V c #9b7979",
"C c #9c7a7a",
"Z c #9e7c7c",
"A c #9f7c7c",
"S c Gray75",
/* pixels */
"AAAVmVAAAAAAAASS",
"AAAxrdvCAAAAAASS",
"AAnu55rjnAAAAASS",
"AVg55555pkMAAASS",
"Axq555=555axVASS",
"ni555=555555dvSS",
"h5555:5:55555rSS",
"q5=55==555:5,@SS",
"555:5=5=555=$OSS",
"5=5:=5=555=% aSS",
"5=555%5:55*O+bSS",
"&5%,=:;555$ lASS",
"55=:5:5,5%XrVASS",
"SSSSSSSSSSSSSSSS",
"SSSSSSSSSSSSSSSS"
};
