/* XPM */
static char *magick[] = {
/* columns rows colors chars-per-pixel */
"50 14 2 1",
"  c #9f7c7c",
". c Gray75",
/* pixels */
"                                                ..",
"                                                ..",
"                                                ..",
"                                                ..",
"                                                ..",
"                                                ..",
"                                                ..",
"                                                ..",
"                                                ..",
"                                                ..",
"                                                ..",
"                                                ..",
"..................................................",
".................................................."
};
