/* XPM */
static char *magick[] = {
/* columns rows colors chars-per-pixel */
"12 16 21 1",
"  c #575050",
". c #585050",
"X c #585150",
"o c #585151",
"O c #595050",
"+ c #595150",
"@ c #595151",
"# c #5a5151",
"$ c #5a5252",
"% c #5b5252",
"& c #655858",
"* c #665859",
"= c #675959",
"- c #685959",
"; c #685a59",
": c #695a5a",
"> c #695b5a",
", c #6a5b5b",
"< c #6f5e5e",
"1 c #705e5e",
"2 c Gray75",
/* pixels */
"  %,<<<<<<22",
"  %,1<<<<<22",
"  %,1<<<<<22",
" %%,<<<<<<22",
" %%,<<<<<122",
"% %,<<<<<<22",
"% %,<<<<<122",
"  %=<<<<<122",
"%  =<<<<<<22",
"% %=<<<<<<22",
"  %=<<<<<<22",
"% %,<11<<<22",
"%% =<1<<<<22",
"%  =<<<<<<22",
"222222222222",
"222222222222"
};
