/* XPM */
static char *magick[] = {
/* columns rows colors chars-per-pixel */
"24 26 165 2",
"   c #7f5756",
".  c #7e5b5b",
"X  c #7d5e5d",
"o  c #7e5c5c",
"O  c #7e5d5d",
"+  c #7f5e5e",
"@  c #7e6262",
"#  c #7e6464",
"$  c #7e6767",
"%  c #7e6a6a",
"&  c #883d3d",
"*  c #8f3a3a",
"=  c #982e2e",
"-  c #9d2d2c",
";  c #9f2c2c",
":  c #9f2d2d",
">  c #933332",
",  c #933333",
"<  c #913433",
"1  c #953737",
"2  c #953b3b",
"3  c #963b3b",
"4  c #953d3d",
"5  c #943f3d",
"6  c #953f3f",
"7  c #993332",
"8  c #9b3130",
"9  c #9b3131",
"0  c #993635",
"q  c #9a3636",
"w  c #9b3636",
"e  c #9d3534",
"r  c #9e3636",
"t  c #993939",
"y  c #9a3a3a",
"u  c #bf0705",
"i  c #b71e1c",
"p  c #ba1d1c",
"a  c #bc1e1e",
"s  c #a42322",
"d  c #a62727",
"f  c #a22a29",
"g  c #a22b2b",
"h  c #a02c2b",
"j  c #a22f2e",
"k  c #a52929",
"l  c #a52c2c",
"z  c #a52d2c",
"x  c #a42e2e",
"c  c #a72c2c",
"v  c #a72d2c",
"b  c #a92525",
"n  c #aa2726",
"m  c #ac2222",
"M  c #ac2624",
"N  c #ac2625",
"B  c #ac2727",
"V  c #ab2827",
"C  c #a2302f",
"Z  c #a33131",
"A  c #a33736",
"S  c #a93232",
"D  c #bb2020",
"F  c #804343",
"G  c #824544",
"H  c #874242",
"J  c #844545",
"K  c #864444",
"L  c #864847",
"P  c #814d4d",
"I  c #824d4d",
"U  c #834e4e",
"Y  c #864848",
"T  c #8b4444",
"R  c #8e4242",
"E  c #884949",
"W  c #8a4a4a",
"Q  c #8a4f4f",
"!  c #8d4949",
"~  c #8e4c4c",
"^  c #89504f",
"/  c #815454",
"(  c #865757",
")  c #895353",
"_  c #8b5151",
"`  c #885454",
"'  c #895757",
"]  c #885a59",
"[  c #885e5e",
"{  c #885f5e",
"}  c #934141",
"|  c #914545",
" . c #944040",
".. c #944544",
"X. c #836161",
"o. c #846565",
"O. c #856464",
"+. c #836b6a",
"@. c #806f6f",
"#. c #856b6b",
"$. c #866b6b",
"%. c #876b6b",
"&. c #866c6c",
"*. c #866d6d",
"=. c #866f6f",
"-. c #876e6e",
";. c #837676",
":. c #847070",
">. c #847171",
",. c #877272",
"<. c #877373",
"1. c #847676",
"2. c #877474",
"3. c #847979",
"4. c #857878",
"5. c #847b7b",
"6. c #867a7a",
"7. c #867b7b",
"8. c #877b7b",
"9. c #857e7e",
"0. c #887c7c",
"q. c #897f7f",
"w. c #cc1010",
"e. c #dc0706",
"r. c #da110f",
"t. c #e50201",
"y. c #e20807",
"u. c #e60907",
"i. c #f00200",
"p. c #898181",
"a. c #898282",
"s. c #8b8181",
"d. c #8a8383",
"f. c #8b8383",
"g. c #8b8585",
"h. c #8c8585",
"j. c #8d8787",
"k. c #8e8888",
"l. c #8e8989",
"z. c #8e8a8a",
"x. c #8e8b8b",
"c. c #8f8b8b",
"v. c #8f8e8e",
"b. c #908c8c",
"n. c #908e8e",
"m. c #928f8f",
"M. c #939191",
"N. c #949191",
"B. c #949292",
"V. c #949393",
"C. c #959494",
"Z. c #969595",
"A. c #979696",
"S. c #979797",
"D. c #989898",
"F. c #999898",
"G. c Gray60",
"H. c #9a9a9a",
"J. c #9b9b9b",
"K. c #9c9b9b",
"L. c Gray61",
"P. c #9d9d9d",
"I. c Gray62",
"U. c #9f9f9f",
"Y. c Gray75",
/* pixels */
"U.U.U.U.U.U.U.U.K.Z.k.d.b.Z.U.U.U.U.U.U.U.U.Y.Y.",
"U.U.U.U.U.U.V.&...r c c Z y Q 5.D.U.U.U.U.U.Y.Y.",
"U.U.U.U.D.2.4 k R ( +.,.X.^ w V E d.U.U.U.U.Y.Y.",
"U.U.U.D.[ N Y 5.D.U.U.U.U.U.b.o.C ; 5.U.U.U.Y.Y.",
"U.U.D.[ m o Z.U.U.U.U.U.U.U.U.U.k.2 ; 5.U.U.Y.Y.",
"U.U.2.b . Z.U.U.U.U.U.U.U.U.U.U.U.k.y > k.U.Y.Y.",
"U.Z. .J Z.U.U.U.U.U.U.U.U.U.U.U.U.U.0.k o U.Y.Y.",
"U.,.; 5.U.U.U.U.U.U.U.U.U.U.U.U.U.U.D._ > k.Y.Y.",
"U.~ H D.U.U.U.U.U.U.U.U.U.U.U.U.U.U.U.d.h @.Y.Y.",
"Z.2   U.U.U.U.U.U.U.U.U.U.U.U.U.U.U.U.V.w o Y.Y.",
"b.8 $ U.U.U.U.U.U.U.U.U.U.U.U.U.U.U.U.D.} I Y.Y.",
"k.; % U.U.U.U.U.U.U.U.U.U.U.U.U.U.U.U.K.| L Y.Y.",
"b.7 o U.U.U.U.U.U.U.U.U.U.U.U.U.U.U.U.D.2 / Y.Y.",
"D.5 I U.U.U.U.U.U.U.U.U.U.U.U.U.U.U.U.b.8 $ Y.Y.",
"U.' < v.U.U.U.U.U.U.U.U.U.U.U.U.U.U.U.&.g 9.Y.Y.",
"U.d.g @ U.U.U.U.U.U.U.U.U.U.U.U.U.U.Z.4 J Z.Y.Y.",
"U.D._ = g.U.U.U.U.U.U.U.U.U.U.U.U.U.$.d ;.U.Y.Y.",
"U.U.h.j * k.U.U.U.U.U.U.U.D.C.U.U.,.B I S.U.Y.Y.",
"U.U.U.5.c 1 5.D.U.U.U.K.d.! & 5.%.N G b.U.U.Y.Y.",
"U.U.U.U.0.w b E 5.k.d.' a y.p c b I b.U.U.U.Y.Y.",
"U.U.U.U.U.b.o.r b c D u.i.e.i T 2.S.U.U.U.U.Y.Y.",
"U.U.U.U.U.U.U.b.,.] S r.t.u F k.U.U.U.U.U.U.Y.Y.",
"U.U.U.U.U.U.U.U.U.U.M.%.A w.s d.U.U.U.U.U.U.Y.Y.",
"U.U.U.U.U.U.U.U.U.U.U.U.V.&.&.Z.U.U.U.U.U.U.Y.Y.",
"Y.Y.Y.Y.Y.Y.Y.Y.Y.Y.Y.Y.Y.Y.Y.Y.Y.Y.Y.Y.Y.Y.Y.Y.",
"Y.Y.Y.Y.Y.Y.Y.Y.Y.Y.Y.Y.Y.Y.Y.Y.Y.Y.Y.Y.Y.Y.Y.Y."
};
