/* XPM */
static char *magick[] = {
/* columns rows colors chars-per-pixel */
"12 16 56 1",
"  c #251d1d",
". c #251d1f",
"X c #251e1d",
"o c #261d1c",
"O c #261d1d",
"+ c #271d1d",
"@ c #261d1e",
"# c #261d1f",
"$ c #261e1d",
"% c #261f1d",
"& c #261e1f",
"* c #261f1f",
"= c #271e1e",
"- c #281e1d",
"; c #281e1f",
": c #2f2525",
"> c #312626",
", c #312627",
"< c #312726",
"1 c #322627",
"2 c #342729",
"3 c #34292a",
"4 c #35292a",
"5 c #352a29",
"6 c #342a2a",
"7 c #362a2a",
"8 c #392d2d",
"9 c #4e3c3d",
"0 c #4f3e3e",
"q c #4f3f3e",
"w c #503f3e",
"e c #513f3f",
"r c #523f3f",
"t c #523f40",
"y c #523f41",
"u c #52403f",
"i c #534141",
"p c #534242",
"a c #544343",
"s c #554243",
"d c #554342",
"f c #554343",
"g c #564242",
"h c #564342",
"j c #564343",
"k c #564344",
"l c #574443",
"z c #584445",
"x c #594445",
"c c #594545",
"v c #5b4646",
"b c #5b4746",
"n c #5c4647",
"m c #5c4746",
"M c #5e4949",
"N c Gray75",
/* pixels */
"OO8pffffkMNN",
"OO7pfffffnNN",
"OO7ufffffnNN",
"OO7ufffffbNN",
"OO7tfffffnNN",
"OO7tfffffbNN",
"OO7efffffbNN",
"OO2efffffbNN",
"OO,efffffbNN",
"OO,efffffbNN",
"OO,0fffffbNN",
"-O,0fffffzNN",
"-*10fffffzNN",
"OO:0ffffffNN",
"NNNNNNNNNNNN",
"NNNNNNNNNNNN"
};
