/* XPM */
static char *magick[] = {
/* columns rows colors chars-per-pixel */
"12 12 51 1",
"  c #252525",
". c #252625",
"X c #262525",
"o c #262625",
"O c Gray15",
"+ c #2f2f30",
"@ c #323031",
"# c #323231",
"$ c #323332",
"% c #333434",
"& c #353535",
"* c #343536",
"= c #363635",
"- c #383839",
"; c #4f4e4f",
": c #50504e",
"> c #515052",
", c #525051",
"< c #525150",
"1 c #535251",
"2 c #545353",
"3 c #545354",
"4 c #545453",
"5 c Gray33",
"6 c #545455",
"7 c #545555",
"8 c #555455",
"9 c #555555",
"0 c #555456",
"q c #555556",
"w c #555655",
"e c #555656",
"r c #565555",
"t c #565556",
"y c #565656",
"u c #565757",
"i c #575656",
"p c #575758",
"a c #585758",
"s c #595958",
"d c Gray35",
"f c #5a5a5a",
"g c #5b5c5c",
"h c #5c5c5b",
"j c Gray36",
"k c #868686",
"l c Gray54",
"z c #8e8e8e",
"x c #929292",
"c c #979797",
"v c Gray75",
/* pixels */
".-999999hcvv",
".=399999gcvv",
".=299999jcvv",
".=499999sxvv",
".%>99999szvv",
".$>99999szvv",
".$>99999szvv",
".$>99999alvv",
".$:99999pkvv",
".+;99999pkvv",
"vvvvvvvvvvvv",
"vvvvvvvvvvvv"
};
