/* XPM */
static char *magick[] = {
/* columns rows colors chars-per-pixel */
"32 10 7 1",
"  c #6d5d5d",
". c #6e5d5d",
"X c #6e5e5e",
"o c #6f5e5e",
"O c #876d6d",
"+ c #947474",
"@ c Gray75",
/* pixels */
"+Oooo  oooo    oo  o     oooO+@@",
"+Oooo ooooo    oo  oooo  oooO+@@",
"+Oooooooooooo  oo ooooo  o oO+@@",
"+Ooooo oooooo oo o     oo  oO+@@",
"+Oo  o oooo o oo oo  ooo   oO+@@",
"+Oo    oo o o     oo ooo  ooO+@@",
"+Oo o   ooo o    oo o o oo oO+@@",
"+Oo o oooooo o o oo ooo   ooO+@@",
"@@@@@@@@@@@@@@@@@@@@@@@@@@@@@@@@",
"@@@@@@@@@@@@@@@@@@@@@@@@@@@@@@@@"
};
