/* XPM */
static char *magick[] = {
/* columns rows colors chars-per-pixel */
"19 19 95 2",
"   c #211fb8",
".  c #302e9f",
"X  c #33329b",
"o  c #31319c",
"O  c #31319d",
"+  c #32319c",
"@  c #32319d",
"#  c #33319c",
"$  c #38369b",
"%  c #383894",
"&  c #3b3b97",
"*  c #3c3b97",
"=  c #3d3b97",
"-  c #3a389a",
";  c #3a389d",
":  c #3c3a9b",
">  c #3d3b9a",
",  c #3d3c99",
"<  c #3e3d99",
"1  c #3f3d99",
"2  c #2624af",
"3  c #2b29ab",
"4  c #2625b0",
"5  c #2725b2",
"6  c #2725b3",
"7  c #2825b1",
"8  c #2a27b2",
"9  c #3230a3",
"0  c #403e96",
"q  c #403f96",
"w  c #41418e",
"e  c #4c4b87",
"r  c #4f4e85",
"t  c #4a498a",
"y  c #4c4b8f",
"u  c #4d4b8f",
"i  c #4e4d8d",
"p  c #4e4d8e",
"a  c #4f4e8d",
"s  c #444396",
"d  c #484790",
"f  c #4b4a91",
"g  c #4c4a90",
"h  c #535286",
"j  c #555487",
"k  c #53528a",
"l  c #51508e",
"z  c #5b5b87",
"x  c #5d5d80",
"c  c #5d5d81",
"v  c #5e5e83",
"b  c #5b5a8a",
"n  c #606080",
"m  c #656485",
"M  c #6b6a83",
"N  c #6a6986",
"B  c #6a6a84",
"V  c #6b6a84",
"C  c #6b6a85",
"Z  c #6b6b84",
"A  c #6c6b87",
"S  c #6c6c85",
"D  c #6f6f84",
"F  c #717183",
"G  c #737386",
"H  c #767688",
"J  c #777688",
"K  c #777788",
"L  c #787788",
"P  c #787885",
"I  c #797885",
"U  c #7d7d87",
"Y  c #7e7e87",
"T  c #787888",
"R  c #7a7988",
"E  c #7b7b88",
"W  c #808089",
"Q  c #818188",
"!  c #82828a",
"~  c #82828b",
"^  c #85858b",
"/  c #86868b",
"(  c #84848c",
")  c #86868c",
"_  c #86868d",
"`  c #88888d",
"'  c #89898f",
"]  c #8b8b8f",
"[  c #8c8c90",
"{  c #909093",
"}  c #929294",
"|  c #959596",
" . c Gray60",
".. c #9f9f9f",
"X. c Gray75",
/* pixels */
"............[ l s f ( ............X.X.",
"............R 6 % 3 S ............X.X.",
"............L : ! g Z ............X.X.",
"............L < / p Z ............X.X.",
"............K < / p Z ............X.X.",
"............L < ( p Z ............X.X.",
"{ R L K K K b ; ` u k K L L L L ` X.X.",
"A 6 . O O O . v | S X O O O O 6 z X.X.",
"Z 9 F P P P U } ..| ! P P P P d k X.X.",
"m   $ = = = q G  .E q % = = % 2 j X.X.",
"/ n x v v v t < [ a w v v v v v U X.X.",
"............K < ( p A ............X.X.",
"............K < ( p M ............X.X.",
"............L < ( p Z ............X.X.",
"............L : ! u Z ............X.X.",
"............L 7 - 7 M ............X.X.",
"............` h r e ! ............X.X.",
"X.X.X.X.X.X.X.X.X.X.X.X.X.X.X.X.X.X.X.",
"X.X.X.X.X.X.X.X.X.X.X.X.X.X.X.X.X.X.X."
};
