/* XPM */
static char *magick[] = {
/* columns rows colors chars-per-pixel */
"17 12 48 1",
"  c #473738",
". c #473837",
"X c #473838",
"o c #483738",
"O c #483838",
"+ c #493838",
"@ c #4b3b3a",
"# c #4c3939",
"$ c #4c3a39",
"% c #4c3b39",
"& c #4d3c3c",
"* c #4d3d3d",
"= c #4f3e3f",
"- c #4f3f3f",
"; c #503e3f",
": c #503f3e",
"> c #503f3f",
", c #513f3e",
"< c #514041",
"1 c #514140",
"2 c #514141",
"3 c #524040",
"4 c #524041",
"5 c #524140",
"6 c #524141",
"7 c #534040",
"8 c #534041",
"9 c #534140",
"0 c #534141",
"q c #544041",
"w c #544140",
"e c #544141",
"r c #544241",
"t c #554240",
"y c #664f4e",
"u c #675050",
"i c #6c5454",
"p c #6d5455",
"a c #705757",
"s c #745b5a",
"d c #755b5b",
"f c #7a5f5f",
"g c #7c6060",
"h c #7c6061",
"j c #846666",
"k c #856767",
"l c #9f7c7c",
"z c Gray75",
/* pixels */
"lh@ ...@ @X @jlzz",
"lh9,======,,=jlzz",
"lfe999993999,jlzz",
"lde999999999,jlzz",
"lde999999999,jlzz",
"lae999999999=jlzz",
"lie999999999%jlzz",
"lie999999999%jlzz",
"lue999999999@jlzz",
"lye999999999@jlzz",
"zzzzzzzzzzzzzzzzz",
"zzzzzzzzzzzzzzzzz"
};
