/* XPM */
static char *magick[] = {
/* columns rows colors chars-per-pixel */
"20 57 48 1",
"  c #6d6d6d",
". c #6d6e6d",
"X c #6d6e6e",
"o c #6e6d6d",
"O c #6e6d6e",
"+ c #6e6e6d",
"@ c Gray43",
"# c #6f6f6e",
"$ c #6f6f6f",
"% c #6f6f70",
"& c #70706f",
"* c Gray44",
"= c #707071",
"- c #707170",
"; c #707171",
": c #717070",
"> c #717071",
", c #717170",
"< c #717171",
"1 c Gray46",
"2 c #767676",
"3 c #777778",
"4 c #777877",
"5 c #777878",
"6 c #787777",
"7 c #787778",
"8 c #787877",
"9 c Gray47",
"0 c #797979",
"q c Gray48",
"w c #7a7a7b",
"e c #7a7b7a",
"r c #7a7b7b",
"t c #7b7a7a",
"y c #7b7a7b",
"u c #7b7b7a",
"i c #7b7b7b",
"p c Gray49",
"a c Gray50",
"s c #818181",
"d c #838383",
"f c Gray53",
"g c #898989",
"h c #8b8b8b",
"j c #929292",
"k c #939393",
"l c Gray58",
"z c Gray75",
/* pixels */
"lf$::::::::::dllllzz",
"lf$::::::::::dllllzz",
"lf$::::::::::dllllzz",
"lf$::::::::::allllzz",
"lf$::::::::::allllzz",
"lf$::::::::::allllzz",
"lf$::::::::::allllzz",
"lf$::::::::::allllzz",
"lf$::::::::::allllzz",
"lf$::::::::::allllzz",
"lf$::::::::::allllzz",
"lf$::::::::::allllzz",
"lf$::::::::::allllzz",
"lf$::::::::::allllzz",
"lf$::::::::::allllzz",
"lf$::::::::::allllzz",
"lf$::::::::::allllzz",
"lf$::::::::::allllzz",
"lf$::::::::::allllzz",
"lf$::::::::::allllzz",
"lf$::::::::::ullllzz",
"lf$::::::::::ullllzz",
"lf$%:::::::::ullllzz",
"lf$::::::::::ullllzz",
"lf$::::::::::ullllzz",
"lf$:%::::::::ullllzz",
"lf$::::::::::ullllzz",
"lf$::::::::::ullllzz",
"kf$::::::::::ullllzz",
"lf$::::::::::ullllzz",
"lf$=:::::::::ullllzz",
"lf$::::::::::ullllzz",
"lf$::::::::::ullllzz",
"lf$::::::::::ullllzz",
"lh$%:::::::::ullllzz",
"lh:::::::::::ullllzz",
"lh:::::::::::7llllzz",
"lh:::::::::::5llllzz",
"lh%::::::::::ullllzz",
"lh:::::::::::4llllzz",
"lh:::::::::::6llllzz",
"lh:::::::::::5llllzz",
"lh%::::::::::5llllzz",
"lh:::::::::::ullllzz",
"lh:::::::::::6llllzz",
"lh:::::::::::3llllzz",
"lh:::::::::::5llllzz",
"lh:::::::::::8llllzz",
"lh:::::::::::3llllzz",
"lh:::::::::::6llllzz",
"lh:::::::::::4llllzz",
"lh:::::::::::8llllzz",
"lh&::::::::::1jlllzz",
"lh:::::::::::1jlllzz",
"lh:::::::::::1jlllzz",
"zzzzzzzzzzzzzzzzzzzz",
"zzzzzzzzzzzzzzzzzzzz"
};
