/* XPM */
static char *magick[] = {
/* columns rows colors chars-per-pixel */
"25 17 95 2",
"   c #1b1313",
".  c #191414",
"X  c #1b1415",
"o  c #1d1716",
"O  c #1f1919",
"+  c #201819",
"@  c #211918",
"#  c #211919",
"$  c #201a19",
"%  c #251b1c",
"&  c #261e1e",
"*  c #271e1f",
"=  c #271f1e",
"-  c #2b2021",
";  c #2b2121",
":  c #2c2322",
">  c #2e2323",
",  c #2f2323",
"<  c #2d2423",
"1  c #312526",
"2  c #322727",
"3  c #342828",
"4  c #342829",
"5  c #342929",
"6  c #34292a",
"7  c #342a29",
"8  c #342a2a",
"9  c #352a2a",
"0  c #3c2e2e",
"q  c #413333",
"w  c #423434",
"e  c #483838",
"r  c #493939",
"t  c #4a3839",
"y  c #4a3a39",
"u  c #4a3a3a",
"i  c #4b3c3c",
"p  c #4c3b3c",
"a  c #4c3c3c",
"s  c #4d3c3d",
"d  c #4d3d3c",
"f  c #4d3d3d",
"g  c #4d3e3d",
"h  c #4e3c3c",
"j  c #4e3c3d",
"k  c #4e3d3c",
"l  c #4e3d3d",
"z  c #4f3c3d",
"x  c #4f3d3d",
"c  c #4e3c3e",
"v  c #4e3d3e",
"b  c #4f3c3e",
"n  c #4e3e3c",
"m  c #4e3e3d",
"M  c #4e3e3e",
"N  c #4f3e3e",
"B  c #4f3f3e",
"V  c #4f3f3f",
"C  c #503f3e",
"Z  c #513e3e",
"A  c #513f3f",
"S  c #523f40",
"D  c #50403f",
"F  c #51403f",
"G  c #514040",
"H  c #524040",
"J  c #544142",
"K  c #544143",
"L  c #544242",
"P  c #554242",
"I  c #554343",
"U  c #574444",
"Y  c #574445",
"T  c #735a5a",
"R  c #785d5e",
"E  c #7b6060",
"W  c #7b6160",
"Q  c #7c6160",
"!  c #7c6161",
"~  c #806465",
"^  c #826666",
"/  c #856868",
"(  c #876a6a",
")  c #896b6b",
"_  c #8c6d6d",
"`  c #8d6e6e",
"'  c #907171",
"]  c #917171",
"[  c #957474",
"{  c #967575",
"}  c #987777",
"|  c #9a7878",
" . c #9d7b7b",
".. c #9f7c7c",
"X. c Gray75",
/* pixels */
"..............................................X.X.",
"..............................................X.X.",
"T T T T R Q Q E W ~ / / / / ) ` ` ` ` ' { { { X.X.",
"b b b b C C b D b C H D H D S L L L L L U U U X.X.",
"b b k b b b b b b b D b b b b b b b b b b b b X.X.",
"b b k b b b b k b b b b b b b b b b b k b b b X.X.",
"b b b b b b k b D i b b b b b b b k b b k b b X.X.",
"b b k k b b b b k k b b b b b b k b b b b k b X.X.",
"b b b b b b b b b b b b b b b b b b b b b k b X.X.",
"u u u u u i b i b b b b k b b b b b k b k k k X.X.",
"  X X o # # O # % = = * = ; < < < , , 1 8 7 2 X.X.",
"b b b b u w w q q 0 0 8 8 8 8 1 ; ; ; ; , * @ X.X.",
"........ .| | | | | } [ [ [ [ ' ` ` ` ` ` / ~ X.X.",
"..............................................X.X.",
"..............................................X.X.",
"X.X.X.X.X.X.X.X.X.X.X.X.X.X.X.X.X.X.X.X.X.X.X.X.X.",
"X.X.X.X.X.X.X.X.X.X.X.X.X.X.X.X.X.X.X.X.X.X.X.X.X."
};
