/* XPM */
static char *magick[] = {
/* columns rows colors chars-per-pixel */
"25 17 65 1",
"  c Gray32",
". c #535352",
"X c #535353",
"o c Gray33",
"O c #545554",
"+ c #565656",
"@ c #565756",
"# c #585758",
"$ c #585858",
"% c #595a59",
"& c #595a5a",
"* c #5a5959",
"= c #5a5a5a",
"- c #5b5b5b",
"; c #5c5b5b",
": c Gray36",
"> c #5d5d5d",
", c #5d5d5e",
"< c #5e5d5d",
"1 c #5f5f5f",
"2 c #5f5f60",
"3 c #5f605f",
"4 c Gray38",
"5 c #626262",
"6 c #656565",
"7 c Gray40",
"8 c Gray41",
"9 c #6c6c6c",
"0 c #6c6c6d",
"q c #6d6c6d",
"w c #6d6d6d",
"e c Gray43",
"r c #6e6e6f",
"t c #6e6f6f",
"y c #6f6e6f",
"u c #6f6f6e",
"i c #6f6f6f",
"p c #6f6f70",
"a c #6f706f",
"s c #6f7070",
"d c #706f70",
"f c #70706f",
"g c Gray44",
"h c #707171",
"j c #717070",
"k c #717171",
"l c #727272",
"z c #7e7f7e",
"x c Gray50",
"c c #818181",
"v c #838383",
"b c Gray52",
"n c #868686",
"m c Gray53",
"M c #888888",
"N c #898989",
"B c #8b8b8b",
"V c #8d8d8d",
"C c Gray56",
"Z c #909090",
"A c Gray57",
"S c #929292",
"D c #939393",
"F c Gray58",
"G c Gray75",
/* pixels */
"FFFFFFFFFFFFFFFFFFFFFFFGG",
"FFFFFFFFFFFFFFFFFDFFFFFGG",
"ZZZVBBBBBmmmmmvvvvvzzzzGG",
"kkkkkkkkkpidafpiiiiiiipGG",
"iiiiiiiiiiiiiiiiiiiiiiiGG",
"iiiiiiiiiiiiiiiiiiiiiiiGG",
"iiiiiiiiiiiiiiiiiiiiiiiGG",
"iiiiiiiiiiiiiiiiiiiiiiiGG",
"iiiiiiiiiiiiiiiiiiiiiiiGG",
"iiiiiiiiiiisiiiiiiii9iiGG",
"5553>>>>>;*****+++++   GG",
"+#*****>2>>>5777778i99iGG",
"mBBBVBBVVZVZZZZZZZFFFFFGG",
"FFFZFFFFFFFFFFFFFFFFFFFGG",
"FFFFFFFFFFFFFFFFFFFFFFFGG",
"GGGGGGGGGGGGGGGGGGGGGGGGG",
"GGGGGGGGGGGGGGGGGGGGGGGGG"
};
