/* XPM */
static char *magick[] = {
/* columns rows colors chars-per-pixel */
"19 15 53 1",
"  c #464646",
". c #474646",
"X c #484747",
"o c #494747",
"O c #4b4949",
"+ c #4e4a4a",
"@ c #534d4d",
"# c #544e4e",
"$ c #554e4e",
"% c #595151",
"& c #5b5352",
"* c #5c5252",
"= c #5f5554",
"- c #635656",
"; c #635756",
": c #635757",
"> c #645757",
", c #645758",
"< c #635858",
"1 c #645858",
"2 c #655858",
"3 c #665858",
"4 c #665959",
"5 c #675a5a",
"6 c #685a5a",
"7 c #685b5a",
"8 c #695a5a",
"9 c #695b5b",
"0 c #6a5b5b",
"q c #6b5b5c",
"w c #6b5c5b",
"e c #6b5c5c",
"r c #6c5c5c",
"t c #6c5d5d",
"y c #6d5d5d",
"u c #6d5d5e",
"i c #6d5e5d",
"p c #6d5e5e",
"a c #6e5d5d",
"s c #6e5d5e",
"d c #6e5e5e",
"f c #6f5e5e",
"g c #705e5e",
"h c #736161",
"j c #746161",
"k c #786364",
"l c #7a6565",
"z c #826969",
"x c #826a6a",
"c c #8b6f6f",
"v c #927373",
"b c #947474",
"n c Gray75",
/* pixels */
"bbbbbbbbvcxljjxaann",
"bbbbvcxljaaaaa04ann",
"vcxlhgaaaaaaaa:<enn",
"hgaaaaaaaaaaaa4,enn",
"0aaaaaaaaaaaaa04ann",
"4aaaaaaaaaaaaaq4enn",
":aaaaaaaaaaaaaawann",
":aaaaaaaaaaaaaaaann",
"40aaaaaaaaaaaaaaann",
"a4aaaaaaaaaaaaaaann",
"l:aaaaaaaaaaae0:=nn",
"k4aaaaaaaa0:*$+o nn",
"aaaaaaa>%$+o O@%%nn",
"nnnnnnnnnnnnnnnnnnn",
"nnnnnnnnnnnnnnnnnnn"
};
