/* XPM */
static char *magick[] = {
/* columns rows colors chars-per-pixel */
"19 19 76 1",
"  c #392b7f",
". c #3a2b7f",
"X c #3b2b7e",
"o c #3f2f7a",
"O c #3d2e7c",
"+ c #443576",
"@ c #453576",
"# c #473575",
"$ c #463576",
"% c #403178",
"& c #413178",
"* c #40307a",
"= c #423178",
"- c #433378",
"; c #443378",
": c #493773",
"> c #483774",
", c #483775",
"< c #493873",
"1 c #4a3873",
"2 c #4b3873",
"3 c #493874",
"4 c #4a3874",
"5 c #4c3a71",
"6 c #4d3b71",
"7 c #4e3c71",
"8 c #4f3c71",
"9 c #513e6f",
"0 c #533f6e",
"q c #513e70",
"w c #54406d",
"e c #55406d",
"r c #54406e",
"t c #56426d",
"y c #56436d",
"u c #57436d",
"i c #56426e",
"p c #58446c",
"a c #5c476c",
"s c #5e496a",
"d c #5f496a",
"f c #5f496b",
"g c #5e4a6b",
"h c #614a6a",
"j c #624d6a",
"k c #674f6a",
"l c #6b5369",
"z c #705869",
"x c #765c6a",
"c c #775c6a",
"v c #785d6a",
"b c #7b606a",
"n c #302386",
"m c #332683",
"M c #382a81",
"N c #83666d",
"B c #85686d",
"V c #876a6e",
"C c #8d6d70",
"Z c #8d6d71",
"A c #907173",
"S c #927274",
"D c #947375",
"F c #957475",
"G c #967575",
"H c #987676",
"J c #987777",
"K c #997777",
"L c #987778",
"P c #997778",
"I c #9a7878",
"U c #9a7879",
"Y c #9c7a7a",
"T c #9e7c7c",
"R c #9f7c7c",
"E c Gray75",
/* pixels */
"RRRRRRDZZGRRRRRRREE",
"RRRRRPi@%aYRRRRRREE",
"RRRRRG%gi:URRRRRREE",
"RRRRRG%lg3URRRRRREE",
"RRRRRG%lg3URRRRRREE",
"RRRRRG%lg<URRRRRREE",
"RRRRRG%lg3URRRRRREE",
"hiiiiqObzOiiiiikJEE",
"n7ggggvUJzgggg% SEE",
"mjccccBRYBcccc9 SEE",
"6@<<<@@Nb%,<<<;9GEE",
"JGGGGZOlg@AGGGGPREE",
"RRRRRG%lg3URRRRRREE",
"RRRRRG%lg3URRRRRREE",
"RRRRRG%lg<URRRRRREE",
"RRRRRGop7,URRRRRREE",
"RRRRRJ6 MiYRRRRRREE",
"EEEEEEEEEEEEEEEEEEE",
"EEEEEEEEEEEEEEEEEEE"
};
