/* XPM */
static char *magick[] = {
/* columns rows colors chars-per-pixel */
"25 10 36 1",
"  c #8f3636",
". c #8f3e3e",
"X c #9c2a2a",
"o c #9c2e2e",
"O c #903434",
"+ c #913434",
"@ c #913534",
"# c #923434",
"$ c #923534",
"% c #903e3e",
"& c #903f3e",
"* c #983333",
"= c #a02828",
"- c #a42a2a",
"; c #aa2222",
": c #864e4d",
"> c #8d4140",
", c #875353",
"< c #865757",
"1 c #865e5e",
"2 c #885b5b",
"3 c #8a6363",
"4 c #8b6666",
"5 c #8b6767",
"6 c #8e6b6b",
"7 c #906d6d",
"8 c #957373",
"9 c #967474",
"0 c #987676",
"q c #9a7878",
"w c #9b7878",
"e c #9d7b7b",
"r c #9f7c7c",
"t c #d50e0d",
"y c #d2100f",
"u c Gray75",
/* pixels */
"rrrrrrrrrrrrrrrrrrrrrrruu",
"rrrrrrrrrrq79rrrrrrrrrruu",
"rrrrrrrrrr6o2rrrrrrrrrruu",
"r3>..&....*y-.&......,quu",
"r1 +++++++Xt;++++++++:quu",
"reqqqqqqqq5=<qqqqqqqqeruu",
"rrrrrrrrrr058rrrrrrrrrruu",
"rrrrrrrrrrrrrrrrrrrrrrruu",
"uuuuuuuuuuuuuuuuuuuuuuuuu",
"uuuuuuuuuuuuuuuuuuuuuuuuu"
};
