/* XPM */
static char *magick[] = {
/* columns rows colors chars-per-pixel */
"12 12 26 1",
"  c #574f50",
". c #57504f",
"X c #575050",
"o c #585050",
"O c #585051",
"+ c #585151",
"@ c #595151",
"# c #595152",
"$ c #5a5252",
"% c #665858",
"& c #665959",
"* c #67595a",
"= c #685a59",
"- c #685a5a",
"; c #695a5a",
": c #695b5b",
"> c #6f5e5e",
", c #705e5e",
"< c #776363",
"1 c #796464",
"2 c #7a6565",
"3 c #7b6565",
"4 c #7c6666",
"5 c #7f6767",
"6 c #816969",
"7 c Gray75",
/* pixels */
"X$;,,>>,>677",
".$;,>>>,>677",
"$$;>>>,>,477",
"X$*,>>,>>477",
" $;>>>>>>477",
"X$;>>>,>>277",
" X*>>>>>>277",
"X$*>>>,>>277",
"X$*>>>>>>177",
"XX%>>>>>,<77",
"777777777777",
"777777777777"
};
