/* XPM */
static char *aligntoface_xpm[] = {
/* width height num_colors chars_per_pixel */
"    32    32      256            2",
/* colors */
"`` c #000000",
"`. c #1c8e24",
"`# c #9c0000",
"`a c #004a84",
"`b c #0c0e6c",
"`c c #54423c",
"`d c #848284",
"`e c #003274",
"`f c #002254",
"`g c #3c6a6c",
"`h c #24b61c",
"`i c #0c2274",
"`j c #e43634",
"`k c #4472a4",
"`l c #00063c",
"`m c #c4c2c4",
"`n c #d40000",
"`o c #3c425c",
"`p c #e4ba4c",
"`q c #4c828c",
"`r c #001a44",
"`s c #00529c",
"`t c #34326c",
"`u c #14128c",
"`v c #9c9a9c",
"`w c #242244",
"`x c #0062ac",
"`y c #008aec",
"`z c #646264",
"`A c #346aac",
"`B c #444274",
"`C c #14229c",
"`D c #646694",
"`E c #0072c4",
"`F c #bc1e1c",
"`G c #0c3694",
"`H c #0c0a54",
"`I c #e42224",
"`J c #3c322c",
"`K c #141644",
"`L c #14a61c",
"`M c #0c42a4",
"`N c #34d234",
"`O c #1c569c",
"`P c #1c1a8c",
"`Q c #acaaac",
"`R c #0066d4",
"`S c #6c766c",
"`T c #c40000",
"`U c #0c1a7c",
"`V c #54565c",
"`W c #8c8e8c",
"`X c #ff0000",
"`Y c #003a6c",
"`Z c #24227c",
"`0 c #cc5634",
"`1 c #4c86cc",
"`2 c #2c2ea4",
"`3 c #2422a4",
"`4 c #0c8a74",
"`5 c #0c0e7c",
"`6 c #8c8a9c",
"`7 c #1c2e54",
"`8 c #2cbe5c",
".` c #000e3c",
".. c #bcbabc",
".# c #0c165c",
".a c #005aac",
".b c #a4a2a4",
".c c #2c2e4c",
".d c #006eb4",
".e c #0092f4",
".f c #545684",
".g c #0c125c",
".h c #243264",
".i c #9c0e0c",
".j c #14468c",
".k c #5c4a44",
".l c #002264",
".m c #ec3e3c",
".n c #0c0a3c",
".o c #dc0e0c",
".p c #2442bc",
".q c #14168c",
".r c #9c9eac",
".s c #7c6654",
".t c #7c7aac",
".u c #0c3aac",
".v c #0c0e64",
".w c #141e64",
".x c #004ea4",
".y c #1c1a9c",
".z c #7c7a7c",
".A c #003a7c",
".B c #649ee4",
".C c #3432bc",
".D c #2422b4",
".E c #343254",
".F c #00062c",
".G c #149a3c",
".H c #8c8a8c",
".I c #002654",
".J c #2cc224",
".K c #0c2684",
".L c #ec3634",
".M c #e40000",
".N c #001e54",
".O c #005694",
".P c #2c225c",
".Q c #0066bc",
".R c #008eec",
".S c #646664",
".T c #444694",
".U c #6c6aa4",
".V c #007ad4",
".W c #cc2624",
".X c #0c0e5c",
".Y c #ff3214",
".Z c #1c1a54",
".0 c #1caa14",
".1 c #44d234",
".2 c #1c5eac",
".3 c #acaebc",
".4 c #006ec4",
".5 c #747274",
".6 c #b4120c",
".7 c #645244",
".8 c #ff0e0c",
"#` c #1c1e94",
"#. c #ffffff",
"## c #7c826c",
"#a c #349254",
"#b c #345a84",
"#c c #245a9c",
"#d c #d46664",
"#e c #d4b2a4",
"#f c #5c92d4",
"#g c #3c76c4",
"#h c #dc2e2c",
"#i c #243a9c",
"#j c #3c3e54",
"#k c #5c5aa4",
"#l c #ac0a0c",
"#m c #34c64c",
"#n c #2c2e84",
"#o c #f41614",
"#p c #0c2e84",
"#q c #c40a0c",
"#r c #2c2e64",
"#s c #0c4eb4",
"#t c #24921c",
"#u c #1c1ea4",
"#v c #5c5a64",
"#w c #949294",
"#x c #14127c",
"#y c #c4b6b4",
"#z c #a40a00",
"#A c #143eb4",
"#B c #24228c",
"#C c #0c1e84",
"#D c #0c3aa4",
"#E c #5c4e54",
"#F c #6ca2e4",
"#G c #3c3654",
"#H c #007ee4",
"#I c #44d644",
"#J c #c41e14",
"#K c #dc0000",
"#L c #2c2244",
"#M c #141654",
"#N c #0c0a4c",
"#O c #006ed4",
"#P c #004e8c",
"#Q c #0066b4",
"#R c #14aa14",
"#S c #acaeb4",
"#T c #0c1a64",
"#U c #3436c4",
"#V c #2cc62c",
"#W c #848684",
"#X c #e4be4c",
"#Y c #9c9e9c",
"#Z c #144a8c",
"#0 c #2426b4",
"#1 c #ec3a34",
"#2 c #747674",
"#3 c #0c0e74",
"#4 c #544244",
"#5 c #001a4c",
"#6 c #141294",
"#7 c #44427c",
"#8 c #0c0a5c",
"a` c #0c42ac",
"a. c #1c1a94",
"a# c #0c1a84",
"aa c #003a74",
"ab c #2422ac",
"ac c #8c8aa4",
"ad c #005ab4",
"ae c #006ebc",
"af c #0092ff",
"ag c #0c0a44",
"ah c #141694",
"ai c #9c9eb4",
"aj c #1c1aa4",
"ak c #003a84",
"al c #000634",
"am c #00265c",
"an c #00569c",
"ao c #008ef4",
"ap c #64666c",
"aq c #6c6aac",
"ar c #1c5eb4",
"as c #141284",
"at c #000000",
"au c #000000",
"av c #000000",
"aw c #000000",
"ax c #000000",
"ay c #000000",
"az c #000000",
"aA c #000000",
"aB c #000000",
"aC c #000000",
"aD c #000000",
"aE c #000000",
"aF c #000000",
"aG c #000000",
"aH c #000000",
"aI c #000000",
"aJ c #000000",
"aK c #000000",
"aL c #000000",
"aM c #000000",
"aN c #000000",
"aO c #000000",
"aP c #000000",
"aQ c #000000",
"aR c #000000",
"aS c #000000",
"aT c #000000",
"aU c #000000",
"aV c #000000",
"aW c #000000",
"aX c #000000",
"aY c #000000",
"aZ c #000000",
"a0 c #000000",
"a1 c #000000",
"a2 c #000000",
"a3 c #000000",
"a4 c #000000",
"a5 c #000000",
"a6 c #000000",
"a7 c #000000",
"a8 c #000000",
/* pixels */
"`m`m`m#d.8#d`m`m`m`m`m`m`m`m`m`m`m`m`m`m`m`m`m`m`m`m`m`m`m`m`m`m",
"`m`m`m#e#q#o.M#d#y`m`m`m`m`m`m`m`m`m`m`m`m`m`m`m`N`m```````````m",
"`m`m`m`m#z`T#K#K.L`m`m`m`m`m`m`m`m`m`m`m`m`6#S#I`h`z`z`z`z`z```m",
"`m`m`m`m#d#K#K`T.Y#o`m`m`m`m`m`m`m`m`m#S#7#3.f#V#R`z#.#.#.`z```m",
"`m`m`m`m`m`##K`n#o`m`m`m`m`m`m`m`m`m`6`Zah#b`N.0#R`z#.#.#.`z```m",
"`m`m`m`m`m#z#o#z`I.m`m`m`m`m`m`m#S`tah#i`E#m`h#R`.`z#.#.#.`z```m",
"`m`m`m`m`m`m#d`m#z.o#o`m`m`m`m`D#Baj`k`E`E#V#R`L`E`z`z`z`z`z`m`m",
"`m`m`m`m`m`m`m`m`m#z#K`X`m`6.Z.X`u`E`E`E`N.0#R`4`E`E`E`7#N#Bai`m",
"`m`m`m`m`m`m`m`m`m#S#z`n#1#`.F`l#8#8`E`8`h#R.G`E`E`g.v#6`5#3.3`m",
"`m`m`m`m`m`macac#i#u.v#z`F.Lal.`#X#N.w#V#R`L`E`E`E#3ah#s.n#x`m`m",
"`m`m.r.t.t.q.y.y#Aadam.v#z.6`j#X#X#X.1.0#R#a`E`Easah`R.Vag#B`m`m",
"#Y#rasah`Ca`ad`E`E`E.Oag`U#z#l#h#X#X.J#R#t.w`q`7`C`yaf.4#N.T`m`m",
"`W`K`5.a`E`E`E`E`E`E`E#5.v.N#z#z.W#1#R#R#X`l`H.q#H.eaf`x`H.T`m`m",
".5.c`b.Q`E`E`E`E`E`E`E.O#N`l#X#z#z#J#R#F#X#Xal`u#H.eaf`x`H.T`m`m",
".5#v.v.K`E`E`E`E`E`E`E`E`r`J`p#X.i`0#g#F#X#X#8#Dao.eaf`s#8.U`m`m",
".5ap#M`U#Q`E`E`E`E`E`xak#8.k#X#X#X###c#g#F#X`b#Oao.eaf`s.v#k`m`m",
".z.5.E`b.x`E`E`Eak`i`Pab#u.h.7#X#X#X`S#Z`1#F#C`yao.eaf`s.v.t`m`m",
".H.5#j#8.Kak`i`P.yajajad`E#P`c#X#X#X#X`o.j`A.B.Raoao.e.A`b.t`m`m",
"#W.5`V`H#x.yah.uad.Q`E`E`Eae.I#E#X#X#X#X.2.j`O#faoao.e`e`5ai`m`m",
"#Y.5.5`w#3`M.Q`E`E`E`E`E`E`E#P#L#X#X#X#X#G`y.j`A.Bao.e.l#n.3`m`m",
".b.z.5#j.v.K`E`E`E`E`E`E`E`Eae`f.s#X#X.7`B`y.2.j`O#f`R`2#x`m`m`m",
"`Q`d.5`V`H`U#Q`E`E`E`E`E`E`E`E`a#4#X#X.Par`y#O`y.j`A.B.t.3`m`m`m",
"..#w.5.5`K#3.a`E`E`E`E`E`E`E`Eae`f`lal`b#D.p.C`2.2.j`O#f`m`m`m`m",
"`m.b.z.5`w.v`G`E`E`E`E`E`E`E`E`xam.F`H#`#U#i.t`m`m`m.j`A.B`m`m`m",
"`m.b`d.5.5`Ha##Q`E`E`E`E.daa.#.v.C`3`b.Uac`m`m`m`m`m`m.j`O#f`m`m",
"`m`m.H.5.S#N#3.a`E`Ean.l#T`P#0.D.D.t.3`m`m`m`m`m`m`m`m`m.j#Z`m`m",
"`m..`v#2.5`w.v#p`Y.g.v#u#u.yaqai`m`m`m`m`m`m`m`m`m`m`m`m`m`m`m`m",
"`m...b.z.5#j#8.X#xa.aj#B.t.3`m`m`m`m`m`m`m`m`m`m`m`m`m`m`m`m`m`m",
"`m`m`Q#W`W.z.vahah.Tai`m`m`m`m`m`m`m`m`m`m`m`m`m`m`m`m`m`m`m`m`m",
"`m`m......`m.T.U`m`m`m`m`m`m`m`m`m`m`m`m`m`m`m`m`m`m`m`m`m`m`m`m",
"`m`m`m`m`m`m`m`m`m`m`m`m`m`m`m`m`m`m`m`m`m`m`m`m`m`m`m`m`m`m`m`m",
"`m`m`m`m`m`m`m`m`m`m`m`m`m`m`m`m`m`m`m`m`m`m`m`m`m`m`m`m`m`m`m`m"
};
