/* XPM */
static char *bevelplus_xpm[] = {
/* width height num_colors chars_per_pixel */
"    32    32      256            2",
/* colors */
"`` c #c1c1c1",
"`. c #afafb9",
"`# c #8c8cae",
"`a c #8b8bac",
"`b c #9e9eb6",
"`c c #7c7cb1",
"`d c #0754b7",
"`e c #0460bb",
"`f c #064ba8",
"`g c #064ba7",
"`h c #073f99",
"`i c #193a85",
"`j c #3c4783",
"`k c #656589",
"`l c #8b8ba5",
"`m c #132c9a",
"`n c #0461c1",
"`o c #007bd1",
"`p c #006fc2",
"`q c #034d97",
"`r c #081f6b",
"`s c #8b8ba7",
"`t c #0d2d99",
"`u c #0160ab",
"`v c #071d60",
"`w c #53537e",
"`x c #63677b",
"`y c #07388e",
"`z c #016dc6",
"`A c #0077ca",
"`B c #034082",
"`C c #1a2569",
"`D c #9c9caa",
"`E c #234723",
"`F c #06142e",
"`G c #0a1769",
"`H c #0b2789",
"`I c #093798",
"`J c #093796",
"`K c #0552ad",
"`L c #015ca4",
"`M c #07124c",
"`N c #8a8aa4",
"`O c #698f69",
"`P c #003300",
"`Q c #004900",
"`R c #01460b",
"`S c #005e05",
"`T c #025013",
"`U c #034a1c",
"`V c #042a20",
"`W c #071a38",
"`X c #0c1b62",
"`Y c #0362ba",
"`Z c #044c9a",
"`0 c #11309c",
"`1 c #035fb7",
"`2 c #0360ba",
"`3 c #0063af",
"`4 c #182b69",
"`5 c #9d9db0",
"`6 c #5a5e5a",
"`7 c #003900",
"`8 c #005600",
".` c #006700",
".. c #007400",
".# c #007900",
".a c #007800",
".b c #004200",
".c c #01290d",
".d c #042964",
".e c #0067b2",
".f c #0c0c61",
".g c #042222",
".h c #08183f",
".i c #0b1455",
".j c #0c0c60",
".k c #0c0c62",
".l c #0e1b85",
".m c #014b8c",
".n c #2f2f6e",
".o c #7d7d7d",
".p c #0c330c",
".q c #003800",
".r c #005200",
".s c #006500",
".t c #006a00",
".u c #007000",
".v c #005e00",
".w c #003e00",
".x c #003100",
".y c #070c3d",
".z c #0456b0",
".A c #092273",
".B c #0e1f77",
".C c #0f1869",
".D c #091f46",
".E c #025411",
".F c #0846aa",
".G c #0073c4",
".H c #091157",
".I c #b5b5b5",
".J c #264426",
".K c #003000",
".L c #003d00",
".M c #004a00",
".N c #005300",
".O c #004f00",
".P c #003700",
".Q c #002b00",
".R c #051529",
".S c #09215b",
".T c #0c2a90",
".U c #016ebe",
".V c #0a0a54",
".W c #8a97a0",
".X c #405040",
".Y c #002f00",
".Z c #004600",
".0 c #003b00",
".1 c #002d00",
".2 c #002500",
".3 c #0745a5",
".4 c #026ec8",
".5 c #024d93",
".6 c #111187",
".7 c #469046",
".8 c #0c360c",
"#` c #004700",
"#. c #004b00",
"## c #004300",
"#a c #002e00",
"#b c #002400",
"#c c #011c0e",
"#d c #024b90",
"#e c #056d29",
"#f c #239923",
"#g c #9f9f9f",
"#h c #4d574d",
"#i c #193f19",
"#j c #002205",
"#k c #05112b",
"#l c #092274",
"#m c #151591",
"#n c #009400",
"#o c #888888",
"#p c #5a5f5a",
"#q c #4d584d",
"#r c #193719",
"#s c #002c00",
"#t c #002d06",
"#u c #041c22",
"#v c #091147",
"#w c #2424a9",
"#x c #28289e",
"#y c #02870d",
"#z c #009600",
"#A c #46a446",
"#B c #193a19",
"#C c #004400",
"#D c #004d05",
"#E c #005606",
"#F c #034718",
"#G c #045820",
"#H c #074f28",
"#I c #0c7a19",
"#J c #0ea00e",
"#K c #099b09",
"#L c #019701",
"#M c #008f00",
"#N c #699d69",
"#O c #005700",
"#P c #006000",
"#Q c #006b00",
"#R c #007b00",
"#S c #008300",
"#T c #038b03",
"#U c #0b980b",
"#V c #0d9d0d",
"#W c #029702",
"#X c #009000",
"#Y c #007500",
"#Z c #9db29d",
"#0 c #003600",
"#1 c #005000",
"#2 c #0c710c",
"#3 c #006c00",
"#4 c #017d01",
"#5 c #079407",
"#6 c #059105",
"#7 c #008200",
"#8 c #238323",
"a` c #939393",
"a. c #334733",
"a# c #003200",
"aa c #0c450c",
"ab c #236723",
"ac c #007100",
"ad c #127412",
"ae c #007200",
"af c #004e00",
"ag c #006400",
"ah c #006900",
"ai c #006e00",
"aj c #117c11",
"ak c #334a33",
"al c #005f00",
"am c #006600",
"an c #006f00",
"ao c #007300",
"ap c #405240",
"aq c #003a00",
"ar c #004500",
"as c #005800",
"at c #579657",
"au c #405340",
"av c #0c410c",
"aw c #004800",
"ax c #8f8f8f",
"ay c #9fa39f",
"az c #afb3af",
"aA c #000000",
"aB c #000000",
"aC c #000000",
"aD c #000000",
"aE c #000000",
"aF c #000000",
"aG c #000000",
"aH c #000000",
"aI c #000000",
"aJ c #000000",
"aK c #000000",
"aL c #000000",
"aM c #000000",
"aN c #000000",
"aO c #000000",
"aP c #000000",
"aQ c #000000",
"aR c #000000",
"aS c #000000",
"aT c #000000",
"aU c #000000",
"aV c #000000",
"aW c #000000",
"aX c #000000",
"aY c #000000",
"aZ c #000000",
"a0 c #000000",
"a1 c #000000",
"a2 c #000000",
"a3 c #000000",
"a4 c #000000",
"a5 c #000000",
"a6 c #000000",
"a7 c #000000",
"a8 c #000000",
/* pixels */
"````````````````````````````````````````````````````````````````",
"````````````````````````````````````````````````````````````````",
"````````````````````````````````````````````````````````````````",
"````````````````````````````````````````````````````````````````",
"`````````````````````````.`#`a`b`.``````````````````````````````",
"```````````````.`c`c`c`c`d`e`f`g`h`i`j`k`l`.````````````````````",
"```````````````m`n`o`o`o`o`o`o`o`o`o`o`p`q`r`k`s````````````````",
"```````````l`t`o`o`o`o`o`o`o`o`o`o`o`o`o`o`o`u`v`w`.````````````",
"```````````x`y`z`o`o`o`o`o`o`o`o`o`o`o`o`o`o`o`A`B`C`D``````````",
"```````````E`F`G`H`I`I`J`K`z`o`o`o`o`o`o`o`o`o`o`o`L`M`N````````",
"`````````O`P`Q`R`S`T`U`V`W`X`Y`o`o`o`Z`0`1`2`z`o`o`o`3`4`5``````",
"`````````6`7`8.`...#.a.`.b.c.d`z`o.e.f.g.h.i.j.k.l`z`o.m.n``````",
"``.o.o.o.o.p.q.r.s.t.u.v.w.x.y.z`o`p.A.B.C.D.E`X.F`o`o.G.H`b````",
".I.I.I.I.I.J.K.L.M.N.O.P`P.Q.R.F`o`o`o`o`o.d.S.T`o`o`o.U.V.W````",
"``.o.o.o.o.X.Y.P.M.N.Z.0.1.2.R.3`o`o`o`o`o`o.U.4`o`o`o.5.6.7````",
"````.o.o.o.o.J.8#`#.##`7#a#b#c.A`z`o`o`o`o`o`o`o`o`o#d.6#e#f````",
"``````.I#g.o.o#h#i.Q.K`P.Q.2#j#k#l`K`2`o`o`o`o`o.z`m#m#e#n#f````",
"``````````````#o#o#p#q#p.X#r#s#t#u#v.k`H.T`t#m#w#x#x#y#z#z#A````",
"``````````````.o.o.o.o.o.o#B.q#C.O#D#E#F`V#G#H#I#J#K#L#z#M#N````",
"````````````````````````````.P.M#O#P#Q..#R#S#T#U#V#K#W#X#Y#Z````",
"``````````````.o.o.o.o.o.o.o#s#0#1#2#3..#4#S#T#5#K#6#7#Y#8``````",
"``````````````a`.o.o.o.o.oa..Q.Ka#aaab#2#2#2ac#4adae..#Y.7``````",
"````````````````a`a`a`a`a`#p.p.Ka#`7.Zaf`8.vagahaiae#Yaj````````",
"``````````````````.o.o.o.o.oak.8a#.0.Zaf#Oalam.tanao#8``````````",
"````````````````````.Ia`.o.o.oap#iaqar.Oas#Pam#3.uat````````````",
"``````````````````````````#g#o#o#pauav##.rawab`O````````````````",
"``````````````````````````````.I#ga`ax#oayaz````````````````````",
"````````````````````````````````````````````````````````````````",
"````````````````````````````````````````````````````````````````",
"````````````````````````````````````````````````````````````````",
"````````````````````````````````````````````````````````````````",
"````````````````````````````````````````````````````````````````"
};
