/* XPM */
static char *beveledge_xpm[] = {
/* width height num_colors chars_per_pixel */
"    32    32      256            2",
/* colors */
"`` c #c1c1c1",
"`. c #a4a4b4",
"`# c #a7a7cc",
"`a c #a0a0c0",
"`b c #8791c5",
"`c c #7a8fcd",
"`d c #627cb7",
"`e c #526daf",
"`f c #6c779b",
"`g c #a7a7b2",
"`h c #8286a6",
"`i c #5a70ba",
"`j c #547ac0",
"`k c #557ac8",
"`l c #4180ca",
"`m c #3c82cb",
"`n c #3a86d0",
"`o c #3c8acf",
"`p c #4597d0",
"`q c #347fc1",
"`r c #3575ac",
"`s c #4c6997",
"`t c #b4b4ba",
"`u c #5d6c96",
"`v c #1e428c",
"`w c #3c7fbd",
"`x c #4595cd",
"`y c #317bbe",
"`z c #3879b0",
"`A c #3f81b3",
"`B c #3b6da2",
"`C c #596c98",
"`D c #8d8dab",
"`E c #28447d",
"`F c #285490",
"`G c #3e8ac3",
"`H c #4593c9",
"`I c #4089c2",
"`J c #3d7bc3",
"`K c #4671c7",
"`L c #3668b4",
"`M c #456cbf",
"`N c #3154ae",
"`O c #334e93",
"`P c #42669c",
"`Q c #346190",
"`R c #3668aa",
"`S c #446fc9",
"`T c #3e79cb",
"`U c #2d69ad",
"`V c #2d5ea2",
"`W c #4586b3",
"`X c #364e8b",
"`Y c #34538e",
"`Z c #4580a9",
"`0 c #2a488c",
"`1 c #3471b7",
"`2 c #3071c0",
"`3 c #2d6cc0",
"`4 c #2a7abb",
"`5 c #39538b",
"`6 c #275295",
"`7 c #3580c4",
"`8 c #2a6db0",
".` c #394f87",
".. c #72789a",
".# c #416697",
".a c #355f91",
".b c #2964a7",
".c c #405c91",
".d c #2f598d",
".e c #2b69b9",
".f c #464f9f",
".g c #9c9cab",
".h c #5869b1",
".i c #7785bc",
".j c #9595b5",
".k c #a9a9b4",
".l c #47479c",
".m c #afafba",
".n c #81829f",
".o c #4c8aca",
".p c #587fd4",
".q c #4e68b8",
".r c #6b78b7",
".s c #9498c1",
".t c #9e9eb8",
".u c #6868c0",
".v c #3232a4",
".w c #1b3cbc",
".x c #0669d4",
".y c #07429f",
".z c #202078",
".A c #9d9db5",
".B c #71719b",
".C c #5f5fcb",
".D c #3737b0",
".E c #0f42bb",
".F c #085bcb",
".G c #0095fe",
".H c #0095fd",
".I c #0094fc",
".J c #045dba",
".K c #0d1879",
".L c #6868a1",
".M c #212194",
".N c #2121aa",
".O c #1e42c0",
".P c #185ed3",
".Q c #0099ff",
".R c #0097ff",
".S c #0096ff",
".T c #0376da",
".U c #0b2889",
".V c #454592",
".W c #12127c",
".X c #0d1c82",
".Y c #00a1ff",
".Z c #009dff",
".0 c #009bff",
".1 c #0185ed",
".2 c #093592",
".3 c #0f0f79",
".4 c #68689a",
".5 c #0e2ba1",
".6 c #0451a6",
".7 c #111182",
".8 c #0482e6",
"#` c #0094fb",
"#. c #0742a0",
"## c #0f0f77",
"#a c #89899c",
"#b c #0849b1",
"#c c #072d7b",
"#d c #0e2d9d",
"#e c #0190f1",
"#f c #0093fb",
"#g c #0278dd",
"#h c #33338b",
"#i c #9898a2",
"#j c #0c0c5a",
"#k c #101f9b",
"#l c #064ba5",
"#m c #0950bb",
"#n c #0b3bab",
"#o c #191992",
"#p c #131387",
"#q c #656593",
"#r c #bdbdbd",
"#s c #adadad",
"#t c #9f9f9f",
"#u c #6d6d77",
"#v c #061950",
"#w c #015ea9",
"#x c #121273",
"#y c #0c3fb3",
"#z c #1e1e89",
"#A c #0f367d",
"#B c #0f4491",
"#C c #828282",
"#D c #737373",
"#E c #03346c",
"#F c #062b70",
"#G c #0189ef",
"#H c #1e1e9d",
"#I c #163d88",
"#J c #1b90d5",
"#K c #176ecc",
"#L c #143fa5",
"#M c #b2b2b2",
"#N c #868686",
"#O c #313157",
"#P c #052d69",
"#Q c #0a1b6d",
"#R c #054191",
"#S c #0d0d64",
"#T c #2142bf",
"#U c #3eb0e8",
"#V c #1742ad",
"#W c #2533b7",
"#X c #17178f",
"#Y c #11176c",
"#Z c #0a0a52",
"#0 c #656584",
"#1 c #7a7a7a",
"#2 c #65656a",
"#3 c #181f72",
"#4 c #033265",
"#5 c #0c278f",
"#6 c #024786",
"#7 c #2e3fbd",
"#8 c #2727a5",
"a` c #232380",
"a. c #2f88ba",
"a# c #2e90d8",
"aa c #2159bc",
"ab c #01447b",
"ac c #00487b",
"ad c #090946",
"ae c #a9a9a9",
"af c #232362",
"ag c #0a115b",
"ah c #203987",
"ai c #2f7ba8",
"aj c #3eafd4",
"ak c #2457b5",
"al c #2331aa",
"am c #2d2da9",
"an c #1e1e85",
"ao c #141b65",
"ap c #013b70",
"aq c #004b80",
"ar c #00518a",
"as c #00528c",
"at c #bababa",
"au c #8c8c8c",
"av c #16226a",
"aw c #3049ba",
"ax c #3535b8",
"ay c #004a7d",
"az c #004c82",
"aA c #004e85",
"aB c #052661",
"aC c #53537a",
"aD c #071753",
"aE c #2f2fa4",
"aF c #022953",
"aG c #013968",
"aH c #1c38b2",
"aI c #041947",
"aJ c #060631",
"aK c #031234",
"aL c #061041",
"aM c #004372",
"aN c #00477a",
"aO c #0d3f9b",
"aP c #1c2eaf",
"aQ c #08185c",
"aR c #06062e",
"aS c #04133a",
"aT c #080841",
"aU c #1d279e",
"aV c #737395",
"aW c #a4a4a4",
"aX c #171752",
"aY c #071149",
"aZ c #07428d",
"a0 c #2f2f4b",
"a1 c #021938",
"a2 c #2929b2",
"a3 c #48487d",
"a4 c #14143f",
"a5 c #1b1b52",
"a6 c #000000",
"a7 c #000000",
"a8 c #000000",
/* pixels */
"````````````````````````````````````````````````````````````````",
"`````````````.`#`a`b`c`d`e`f`g``````````````````````````````````",
"`````h`i`j`k`l`m`n`o`p`p`q`r`s`h`t``````````````````````````````",
"`````u`v`w`x`x`x`x`x`x`x`y`z`A`B`C`D`#``````````````````````````",
"`````h`E`F`G`H`H`H`H`I`J`K`L`K`M`N`O`g``````````````````````````",
"`````.`P`Q`R`K`K`S`N`T`K`U`V`W`W`W`X````````````````````````````",
"```````Y`Z`0`V`1`1`2`T`3`4`U`r`W`W`5````````````````````````````",
"```````X`L`6`3`m`7`G`G`H`H`G`8`r`W.`````````````````````````````",
"``````...#.a`R`H`H`H`H`H`H`H`G.b`U.c````````````````````````````",
"`````````u.d.b`H`H`H`H`H`H`H`H`w.e.f`t``````````````````````````",
"````````.g`5`6`H`H`H`G`J`T`k.h.i.j.k`D`b.l.m````````````````````",
"``````````.n`0.o.p.q.r.s.g``.t.u.u.v.w.x.y.z.A``````````````````",
"```````````t.B.t`t``.t.u.C.D.E.F.x.G.G.H.I.J.K.L.m``````````````",
"``````````````.m.M.N.O.P.P.Q.Q.Q.R.S.G.G.H.I.T.U.V.A````````````",
"````````````.A.W.X.x.Y.Z.Z.0.Q.Q.Q.R.S.G.G.H.I.1.2.3`D``````````",
"````````````.4.5.6.7.8.Y.Z.0.0.Q.Q.R.R.S.G.H.I.I#`#.##.L.A``````",
"````````````#a.7#b#c#d#e.Z.0.0.Q.Q.R.R.S.G.G.I.I#`#f#g.X#h.A````",
"````````````#i#j#k#l.U#m.Z.0.Q.Q.Q.R.R.S.G.G.H.I.I.1#n#o#p.7#q``",
"``````#r#s#t#u#v.K#d#w#x#x.0.Q.Q.Q.R.S.S.G.H.1#y.w#o#z#A#B.W#h``",
"``````#s#C#D#D#v#E.7#l#F.X#G.Q.Q.R.R.S#g.F.w#H#z#I.b#J#K#L.N#h``",
"``````#M#N#D#D#O#P#Q#Q#R#S#n#G.R.x#y#T.M#z`v`4#U#U#V#W#X#Y#Z#0``",
"``````#M#N#1#D#2#3#4###5#6#Q#d#7#8a``va.#Ua#aa#W#H#x#Pabacad#a``",
"````````ae#C#D#Daf#4ag.7.2#j#xahaiaj#Uakalamanaoapaqaras#Eaf````",
"````````atau#D#D#2av#4.K#S#Z.M`N.eawax.vao#PayazaAararasaBaC````",
"``````````#t#1#D#D#OaBaD#Z#S#xamaEaoaFaGayayazaAaAarasaH.W#a````",
"````````#rae#N#D#D#2avaIaJaKaLadaFaMaNayayazaAaAaOaP#H#q.g``````",
"``````````atau#D#D#D#OaQaRaSaKaTaNaNayayaz#6#LaUanaV#r``````````",
"``````````#raW#C#D#D#2aXaJaSaKaYaNacayaZaZam#h#a#r``````````````",
"````````````#rae#1#D#Da0aRaSa1#vay.2a2.Ma3.g#r``````````````````",
"````````````````#sau#1#Da4agad#Zam.z#0#i````````````````````````",
"``````````````````#rau#1#2#Oa0a5#0#r````````````````````````````",
"````````````````````````#Mauae``````````````````````````````````"
};
