/* XPM */
static char *borderverts_xpm[] = {
/* width height num_colors chars_per_pixel */
"    32    32      256            2",
/* colors */
"`` c #c1c1c1",
"`. c #fffe5a",
"`# c #8b8baa",
"`a c #afafba",
"`b c #aeaeb6",
"`c c #33338a",
"`d c #c3c915",
"`e c #064498",
"`f c #0a2c89",
"`g c #8c8caf",
"`h c #09328e",
"`i c #007bd2",
"`j c #06449e",
"`k c #0b227f",
"`l c #2e398d",
"`m c #565695",
"`n c #9d9db1",
"`o c #0b2788",
"`p c #0b2a8f",
"`q c #0461be",
"`r c #026ec7",
"`s c #035aad",
"`t c #10107d",
"`u c #016ec5",
"`v c #0262b3",
"`w c #044ea1",
"`x c #202075",
"`y c #68689e",
"`z c #7a7aa5",
"`A c #9d9db2",
"`B c #8b8ba8",
"`C c #0f0f7a",
"`D c #016ec7",
"`E c #0262b6",
"`F c #054aa0",
"`G c #0a2683",
"`H c #0c1c7c",
"`I c #0e1e8c",
"`J c #0a389e",
"`K c #0363bd",
"`L c #016fc5",
"`M c #045ab2",
"`N c #10107c",
"`O c #016fc7",
"`P c #006ec1",
"`Q c #0360b7",
"`R c #063d92",
"`S c #0c1771",
"`T c #0456ad",
"`U c #016dc3",
"`V c #0e1e8d",
"`W c #06449d",
"`X c #073990",
"`Y c #0b2789",
"`Z c #0c1a7b",
"`0 c #09389a",
"`1 c #0653b3",
"`2 c #10107b",
"`3 c #026ec8",
"`4 c #0265b9",
"`5 c #565693",
"`6 c #0e0e72",
"`7 c #093899",
"`8 c #016ec6",
".` c #016dc1",
".. c #10107f",
".# c #09328f",
".a c #016fc3",
".b c #0356a8",
".c c #0f0f78",
".d c #0d1b7f",
".e c #0653b1",
".f c #0a257e",
".g c #454593",
".h c #10107e",
".i c #0262b7",
".j c #054395",
".k c #151571",
".l c #0e1d88",
".m c #0f0f73",
".n c #016fc8",
".o c #083188",
".p c #0c2b95",
".q c #073e95",
".r c #0a237c",
".s c #0d0d6b",
".t c #9d9daf",
".u c #afafb8",
".v c #33338b",
".w c #0d1c81",
".x c #151574",
".y c #0d2c89",
".z c #0e0e70",
".A c #0d1d83",
".B c #064ba6",
".C c #0360bb",
".D c #054fa5",
".E c #006bbc",
".F c #0360b8",
".G c #0c1c7d",
".H c #0162b3",
".I c #054a9f",
".J c #0a2680",
".K c #1f1f7e",
".L c #0b2a90",
".M c #0553b1",
".N c #063889",
".O c #222288",
".P c #b7b7b7",
".Q c #191965",
".R c #0e0e6f",
".S c #0b2a91",
".T c #093795",
".U c #0360b9",
".V c #016dc2",
".W c #0f1e86",
".X c #0e2d93",
".Y c #083184",
".Z c #0d1b7d",
".0 c #0f0f75",
".1 c #0351a1",
".2 c #848484",
".3 c #606060",
".4 c #53535a",
".5 c #3f3f57",
".6 c #1f1f4d",
".7 c #19196b",
".8 c #0745a6",
"#` c #0d1a7c",
"#. c #016fc2",
"## c #0355a4",
"#a c #0d1979",
"#b c #787878",
"#c c #0c0c63",
"#d c #0f0f74",
"#e c #0845a7",
"#f c #054aa2",
"#g c #111183",
"#h c #034d9a",
"#i c #9c9c9c",
"#j c #6c6c6c",
"#k c #55555b",
"#l c #343452",
"#m c #20205a",
"#n c #0c0c5f",
"#o c #0c0c5d",
"#p c #212181",
"#q c #a8a8a8",
"#r c #0d0d69",
"#s c #0d1d84",
"#t c #044998",
"#u c #111184",
"#v c #676794",
"#w c #29294f",
"#x c #21215e",
"#y c #0d0d67",
"#z c #0f0f76",
"#A c #0b278a",
"#B c #b4b4b4",
"#C c #4a4a58",
"#D c #29294b",
"#E c #9d9db0",
"#F c #909090",
"#G c #000000",
"#H c #000000",
"#I c #000000",
"#J c #000000",
"#K c #000000",
"#L c #000000",
"#M c #000000",
"#N c #000000",
"#O c #000000",
"#P c #000000",
"#Q c #000000",
"#R c #000000",
"#S c #000000",
"#T c #000000",
"#U c #000000",
"#V c #000000",
"#W c #000000",
"#X c #000000",
"#Y c #000000",
"#Z c #000000",
"#0 c #000000",
"#1 c #000000",
"#2 c #000000",
"#3 c #000000",
"#4 c #000000",
"#5 c #000000",
"#6 c #000000",
"#7 c #000000",
"#8 c #000000",
"a` c #000000",
"a. c #000000",
"a# c #000000",
"aa c #000000",
"ab c #000000",
"ac c #000000",
"ad c #000000",
"ae c #000000",
"af c #000000",
"ag c #000000",
"ah c #000000",
"ai c #000000",
"aj c #000000",
"ak c #000000",
"al c #000000",
"am c #000000",
"an c #000000",
"ao c #000000",
"ap c #000000",
"aq c #000000",
"ar c #000000",
"as c #000000",
"at c #000000",
"au c #000000",
"av c #000000",
"aw c #000000",
"ax c #000000",
"ay c #000000",
"az c #000000",
"aA c #000000",
"aB c #000000",
"aC c #000000",
"aD c #000000",
"aE c #000000",
"aF c #000000",
"aG c #000000",
"aH c #000000",
"aI c #000000",
"aJ c #000000",
"aK c #000000",
"aL c #000000",
"aM c #000000",
"aN c #000000",
"aO c #000000",
"aP c #000000",
"aQ c #000000",
"aR c #000000",
"aS c #000000",
"aT c #000000",
"aU c #000000",
"aV c #000000",
"aW c #000000",
"aX c #000000",
"aY c #000000",
"aZ c #000000",
"a0 c #000000",
"a1 c #000000",
"a2 c #000000",
"a3 c #000000",
"a4 c #000000",
"a5 c #000000",
"a6 c #000000",
"a7 c #000000",
"a8 c #000000",
/* pixels */
"````````````````````````````````````````````````````````````````",
"````````````````````````````````````````````````````````````````",
"````````````````````````````````````````````````````````````````",
"````````````````````````````````````````````````````````````````",
"````````````````````````````````````````````````````````````````",
"````````````````````````````````````````````````````````````````",
"````````````````````````````````````````````````````````````````",
"````````````````````````````````````````````````````````````````",
"`````````````````````````.`.`#`a````````````````````````````````",
"`````````````````````b`c`d`d`e`f`.`.`g`a````````````````````````",
"```````````````````.`.`h`i`i`i`i`d`d`j`k`l`m`.`.````````````````",
"`````````````````n`d`d`o`p`q`r`s`t`u`i`i`v`w`d`d`x`y`z`A````````",
"```````````````B`C`D`i`E`F`G`H`I`J`K`L`i`i`M`N`O`P`Q`R`S`.`.````",
"`````````````.`.`T`i`i`i`i`U`V`W`X`Y`Z`0`1`2`3`i`i`i`i`4`.`.````",
"```````````5`.`.`6`7`3`8.`...#`i`i`i.a.b`N.c.d.e`3`D`i.f.g``````",
"`````````c.h`8`i.i.j`G.k.l.m.n`i`i`i`i.o.p`i.b.q.r.s`.`..t``````",
"````.u.v.w`i`i`i`i`i`O.x.y`h.z.A.B.C.D.h`D`i`i`i`i.E`d`d````````",
"```b`.`..B.F`i`i`i`i`t.G`i`i.H.I.J`H.K.L.M`u`i`i`i.N.O`b````````",
"``.P`.`..Q.R.S.T.U.l.l.V`i`i`i`i`i.W.X.Y.Z.0`0`1.1`2`m``````````",
"``.2.3.3.4.5.6.7`.`..8`r`i`i`i`i#`..`U`i#.##`W#a`.`.````````````",
"``````.2#b.3.3.3`.`.#c#d`p#e`r#f#g`r`i`i`i`i`i#h`d`.````````````",
"``````````#i.2#j.3.3#k#l#m#n`.`.`J`r`i`i`i`i`i#o#p``````````````",
"````````````````#q#b#j.3.3#k`.`.#r.0#s`1`D`i#t#u#v``````````````",
"``````````````````````#i#b.3.3.3#k#w#x#y#z#A`C#p````````````````",
"``````````````````````````#B.2#j.3.3.3#C#D`.`.#E````````````````",
"````````````````````````````````#q.2#j.3.3`.`.``````````````````",
"````````````````````````````````````#B#F#b#q````````````````````",
"````````````````````````````````````````````````````````````````",
"````````````````````````````````````````````````````````````````",
"````````````````````````````````````````````````````````````````",
"````````````````````````````````````````````````````````````````",
"````````````````````````````````````````````````````````````````"
};
