/* XPM */
static char *centerpivot_xpm[] = {
/* width height num_colors chars_per_pixel */
"    32    32      256            2",
/* colors */
"`` c #00127c",
"`. c #4c768c",
"`# c #e47654",
"`a c #54b2e4",
"`b c #840000",
"`c c #7c8284",
"`d c #5c9e64",
"`e c #94726c",
"`f c #c40000",
"`g c #4c86ac",
"`h c #14461c",
"`i c #ff260c",
"`j c #aca29c",
"`k c #4c96c4",
"`l c #84a2bc",
"`m c #94b2c4",
"`n c #749ab4",
"`o c #e40000",
"`p c #4c6e84",
"`q c #4ca6e4",
"`r c #647684",
"`s c #6ccae4",
"`t c #e41200",
"`u c #a40000",
"`v c #9ca2b4",
"`w c #d4927c",
"`x c #6c8ea4",
"`y c #ff9e6c",
"`z c #4c7e9c",
"`A c #ff3e14",
"`B c #00660c",
"`C c #0036ff",
"`D c #a4928c",
"`E c #4c8eb4",
"`F c #4c9ed4",
"`G c #ec5e34",
"`H c #5cbee4",
"`I c #8c92ac",
"`J c #acb6bc",
"`K c #8ca6b4",
"`L c #f40000",
"`M c #ff8e5c",
"`N c #8c1e00",
"`O c #84dee4",
"`P c #4caee4",
"`Q c #7cd6e4",
"`R c #f41a00",
"`S c #ac2600",
"`T c #ff9664",
"`U c #24327c",
"`V c #4c7a9c",
"`W c #5cbae4",
"`X c #84929c",
"`Y c #d40000",
"`Z c #24562c",
"`0 c #ff3214",
"`1 c #4c9ad4",
"`2 c #6caad4",
"`3 c #6c72a4",
"`4 c #b40000",
"`5 c #a4aaac",
"`6 c #4c82ac",
"`7 c #146e1c",
"`8 c #4c92c4",
".` c #ff6634",
".. c #c4c2c4",
".# c #ff0a00",
".a c #ff1e0c",
".b c #4c7a94",
".c c #dc866c",
".d c #5cb6e4",
".e c #940000",
".f c #848284",
".g c #4c8ab4",
".h c #1c4a24",
".i c #4c9acc",
".j c #8c9eac",
".k c #547284",
".l c #54aae4",
".m c #74828c",
".n c #74d2e4",
".o c #a4a6a4",
".p c #ffa674",
".q c #4c82a4",
".r c #ff4e24",
".s c #1432dc",
".t c #4c92bc",
".u c #4ca2dc",
".v c #b4babc",
".w c #84a6c4",
".x c #ff0000",
".y c #94e6e4",
".z c #ff1600",
".A c #ff9a7c",
".B c #1c2eb4",
".C c #ff3a14",
".D c #74a6c4",
".E c #1c6e1c",
".F c #4c7694",
".G c #e47a54",
".H c #54b6e4",
".I c #6c9e74",
".J c #cc0000",
".K c #4c86b4",
".L c #144a1c",
".M c #acb2b4",
".N c #4c96cc",
".O c #a4b6c4",
".P c #ec0a00",
".Q c #4c728c",
".R c #4caae4",
".S c #6c7a84",
".T c #74cee4",
".U c #ac0000",
".V c #748e9c",
".W c #4c7ea4",
".X c #f4461c",
".Y c #4c8ebc",
".Z c #4c9edc",
".0 c #ff5a2c",
".1 c #64c2e4",
".2 c #8c96c4",
".3 c #acbac4",
".4 c #ff9264",
".5 c #9c2200",
".6 c #8ce2e4",
".7 c #54aee4",
".8 c #7cdae4",
"#` c #ff9a6c",
"#. c #3426a4",
"## c #1c32ff",
"#a c #ff6a44",
"#b c #dc0000",
"#c c #bc0000",
"#d c #9c0000",
"#e c #8ca2b4",
"#f c #ffaa7c",
"#g c #84aacc",
"#h c #74aacc",
"#i c #ff3614",
"#j c #848684",
"#k c #ff0600",
"#l c #a4a6ac",
"#m c #ff160c",
"#n c #1c6e24",
"#o c #000000",
"#p c #000000",
"#q c #000000",
"#r c #000000",
"#s c #000000",
"#t c #000000",
"#u c #000000",
"#v c #000000",
"#w c #000000",
"#x c #000000",
"#y c #000000",
"#z c #000000",
"#A c #000000",
"#B c #000000",
"#C c #000000",
"#D c #000000",
"#E c #000000",
"#F c #000000",
"#G c #000000",
"#H c #000000",
"#I c #000000",
"#J c #000000",
"#K c #000000",
"#L c #000000",
"#M c #000000",
"#N c #000000",
"#O c #000000",
"#P c #000000",
"#Q c #000000",
"#R c #000000",
"#S c #000000",
"#T c #000000",
"#U c #000000",
"#V c #000000",
"#W c #000000",
"#X c #000000",
"#Y c #000000",
"#Z c #000000",
"#0 c #000000",
"#1 c #000000",
"#2 c #000000",
"#3 c #000000",
"#4 c #000000",
"#5 c #000000",
"#6 c #000000",
"#7 c #000000",
"#8 c #000000",
"a` c #000000",
"a. c #000000",
"a# c #000000",
"aa c #000000",
"ab c #000000",
"ac c #000000",
"ad c #000000",
"ae c #000000",
"af c #000000",
"ag c #000000",
"ah c #000000",
"ai c #000000",
"aj c #000000",
"ak c #000000",
"al c #000000",
"am c #000000",
"an c #000000",
"ao c #000000",
"ap c #000000",
"aq c #000000",
"ar c #000000",
"as c #000000",
"at c #000000",
"au c #000000",
"av c #000000",
"aw c #000000",
"ax c #000000",
"ay c #000000",
"az c #000000",
"aA c #000000",
"aB c #000000",
"aC c #000000",
"aD c #000000",
"aE c #000000",
"aF c #000000",
"aG c #000000",
"aH c #000000",
"aI c #000000",
"aJ c #000000",
"aK c #000000",
"aL c #000000",
"aM c #000000",
"aN c #000000",
"aO c #000000",
"aP c #000000",
"aQ c #000000",
"aR c #000000",
"aS c #000000",
"aT c #000000",
"aU c #000000",
"aV c #000000",
"aW c #000000",
"aX c #000000",
"aY c #000000",
"aZ c #000000",
"a0 c #000000",
"a1 c #000000",
"a2 c #000000",
"a3 c #000000",
"a4 c #000000",
"a5 c #000000",
"a6 c #000000",
"a7 c #000000",
"a8 c #000000",
/* pixels */
"................................................................",
"..`Y.z....................................................`L`f..",
"...x`Y.x.................................................x.J.r..",
".....z.J#m.............................................x`f.r....",
".......#.J.x.0`o.A........`J`l.w.D.D#g`m.3....#`#b.a.x`f.4......",
".........z.J`f.J#k....`J`J.Y.N`1`F.u.u.u.Z`2.3`R.U.J`f.4........",
"........`M.U#c.J.x..`K.g`8.i`F.Z.u`q`q`q`q`q.u#b`u#c.J.a........",
"........`f.e.U#c`Y`x.g`8.N`1.Z.u`q`q.R.R.R.R`T`u`u#d.U`L........",
"........#f.X`Y#d#c`i.Y`k.i`F.u`q`q.R.R`P`P.R`0`u.e`t.p..........",
"................`A.x.Y.N.i`F.u`q.R.7`a`W.H`a.C`y`q.u.O..........",
"...............j.q.g.Y`k`1`F.I`d.R`a`s.8.n`H`a.R.R`q#h..........",
"...............Q.q.g.t.N`1`F`h`B.l.d`Q.y.6`s.H.R.R`q`F..........",
"............`5.F.q.g.Y`k.i`F`Z`7`q`a.T.6`O.T`a.R.R`q.u`m........",
"...............F.q.g.Y`8.i`1.L`7`q.l.d.1.1`W.7.R`q`q.u.D........",
"............`X.F.W`g.Y`8.N.i`Z.E.u`q.l`a`a.7.R`q`q.u`F.D........",
"............`X.Q`z`g.g.Y`8.N.h#n.u.u.u`q`q`q`q`q`q.u`F.D........",
"............`c.Q`V.q.K.Y`8`k.i`1`G`G`#.G.c`w.u.u.u`F.i.w........",
"............`c`p.F`z`g.g.Y.2`C#.#.`N.5`S`S`S.Z.Z`F.i`8`l........",
"........#j#j.f.k.Q`V.q`g.g.s##`k.N.i`j`D`e`D`1`1.i`k.Y.v........",
"......#j#j#j#j`r`p`.`V.q`3``.B`8`8.N.N.N.i.i.i.N`8.Y`n..........",
"......#j#j#j#j#j.k`p.F`z`I`U`v.Y.Y.t`8`8`8`8`8.t.Y`g`J..........",
"......#j#j#j#j#j#j`p`p`.`V.W`6`g.g`E`E.Y.Y.Y`E.g`6#e............",
".......o#j#j#j#j.x.x`p`p.Q.b`z.q`6`g`g`g.K`g.a.x.z..............",
"........#j.x.x`o`o.x#j.k`p.Q.Q.F`V`z.W.W.W`V.4`f#b`o.x`i........",
"........#b`Y`o`o#b.C#j#j`r.k`p`p.Q.Q.Q.Q`p.V.M`f`f#b#b`Y........",
".........p`f`4`o.x#j#j#j#j#j.f.S`r.S.S.m#l.....P`4.U`f`0........",
"........#a.J.U`f.x.o#j#j#j#j#j#j#j.o#l.v......`y#d`b`Y.x........",
"......#a`Y.x.p`Y.4..............................#b...`#b.x......",
"....#i.J.x............................................`T#b.x....",
"..#i`Y.x.................................................`#b.x..",
"..`Y.x....................................................`y`Y..",
"................................................................"
};
