/* XPM */
static char *conformnormal_xpm[] = {
/* width height num_colors chars_per_pixel */
"    32    32      256            2",
/* colors */
"`` c #c1c1c1",
"`. c #f8f766",
"`# c #c4c4bc",
"`a c #c7c7b7",
"`b c #c8c8b5",
"`c c #ccccaf",
"`d c #c9c9b3",
"`e c #565697",
"`f c #9999a1",
"`g c #afafba",
"`h c #ceceaa",
"`i c #4b4b84",
"`j c #093797",
"`k c #235a91",
"`l c #0a2c89",
"`m c #8a8a8d",
"`n c #c5c5ba",
"`o c #9c9cae",
"`p c #264a88",
"`q c #007bd2",
"`r c #5aa9a8",
"`s c #0c81cc",
"`t c #444e83",
"`u c #0b227f",
"`v c #2e398d",
"`w c #5e5e92",
"`x c #b4b48f",
"`y c #9d9db3",
"`z c #a9a8a7",
"`A c #202083",
"`B c #284083",
"`C c #0b2a8f",
"`D c #0461be",
"`E c #026ec7",
"`F c #035aad",
"`G c #348baf",
"`H c #0262b3",
"`I c #226399",
"`J c #0e1a84",
"`K c #7a7aa5",
"`L c #9d9db2",
"`M c #2b2b76",
"`N c #016ec7",
"`O c #2074ab",
"`P c #054aa0",
"`Q c #495e78",
"`R c #2e3c77",
"`S c #0e1e8c",
"`T c #2175b1",
"`U c #016fc5",
"`V c #226da8",
"`W c #016fc7",
"`X c #063d92",
"`Y c #0c1771",
"`Z c #31317b",
"`0 c #7a7aaa",
"`1 c #79799f",
"`2 c #226aa3",
"`3 c #2d92bd",
"`4 c #067ecf",
"`5 c #0e1e8d",
"`6 c #06449d",
"`7 c #0c1a7b",
"`8 c #09389a",
".` c #0653b3",
".. c #2c2c77",
".# c #218cc2",
".a c #0265b9",
".b c #10107d",
".c c #9d9db1",
".d c #565693",
".e c #2a2a6f",
".f c #093899",
".g c #026ec8",
".h c #016ec6",
".i c #016dc1",
".j c #09328f",
".k c #1887c7",
".l c #016fc3",
".m c #0f5ea4",
".n c #646470",
".o c #2b2b74",
".p c #0653b1",
".q c #0a257e",
".r c #454593",
".s c #33338a",
".t c #10107e",
".u c #2074ac",
".v c #054395",
".w c #0a2683",
".x c #0e0e72",
".y c #0e1d88",
".z c #016fc8",
".A c #254983",
".B c #1e8ac4",
".C c #073e95",
".D c #0a237c",
".E c #0d0d6b",
".F c #0b217b",
".G c #22228a",
".H c #9d9daf",
".I c #afafb8",
".J c #33338b",
".K c #0d1c81",
".L c #1284ca",
".M c #0f0f75",
".N c #0b2a89",
".O c #0e0e70",
".P c #0d1d83",
".Q c #064ba6",
".R c #0360bb",
".S c #054fa5",
".T c #2c2c7a",
".U c #006bbc",
".V c #0c0c61",
".W c #68689f",
".X c #aeaeb6",
".Y c #1f1f71",
".Z c #0f0f79",
".0 c #0360b8",
".1 c #0c1c7d",
".2 c #0162b3",
".3 c #054a9f",
".4 c #0a2680",
".5 c #0c1c7c",
".6 c #101080",
".7 c #28438a",
".8 c #016ec5",
"#` c #063889",
"#. c #222288",
"## c #b7b7b7",
"#a c #565664",
"#b c #2b2b5a",
"#c c #191965",
"#d c #0e0e6f",
"#e c #0b2a91",
"#f c #093795",
"#g c #0360b9",
"#h c #016dc2",
"#i c #0e1d86",
"#j c #0c2b93",
"#k c #25497f",
"#l c #0351a1",
"#m c #10107b",
"#n c #565695",
"#o c #848484",
"#p c #606060",
"#q c #53535a",
"#r c #3f3f57",
"#s c #1f1f4d",
"#t c #19196b",
"#u c #0f0f74",
"#v c #0745a6",
"#w c #0d1a7c",
"#x c #10107f",
"#y c #e6bc4c",
"#z c #94a262",
"#A c #0d1979",
"#B c #0d0d67",
"#C c #787878",
"#D c #343451",
"#E c #151553",
"#F c #0c0c63",
"#G c #0845a7",
"#H c #054aa2",
"#I c #111183",
"#J c #676794",
"#K c #9c9c9c",
"#L c #6c6c6c",
"#M c #55555b",
"#N c #343452",
"#O c #20205a",
"#P c #0c0c5f",
"#Q c #0c0c5d",
"#R c #212181",
"#S c #a8a8a8",
"#T c #33334c",
"#U c #161659",
"#V c #0d0d69",
"#W c #044998",
"#X c #111184",
"#Y c #29294f",
"#Z c #21215e",
"#0 c #0f0f76",
"#1 c #0b278a",
"#2 c #0f0f7a",
"#3 c #b4b4b4",
"#4 c #4a4a58",
"#5 c #29294b",
"#6 c #171760",
"#7 c #0e0e6e",
"#8 c #9d9db0",
"a` c #737373",
"a. c #898998",
"a# c #909090",
"aa c #000000",
"ab c #000000",
"ac c #000000",
"ad c #000000",
"ae c #000000",
"af c #000000",
"ag c #000000",
"ah c #000000",
"ai c #000000",
"aj c #000000",
"ak c #000000",
"al c #000000",
"am c #000000",
"an c #000000",
"ao c #000000",
"ap c #000000",
"aq c #000000",
"ar c #000000",
"as c #000000",
"at c #000000",
"au c #000000",
"av c #000000",
"aw c #000000",
"ax c #000000",
"ay c #000000",
"az c #000000",
"aA c #000000",
"aB c #000000",
"aC c #000000",
"aD c #000000",
"aE c #000000",
"aF c #000000",
"aG c #000000",
"aH c #000000",
"aI c #000000",
"aJ c #000000",
"aK c #000000",
"aL c #000000",
"aM c #000000",
"aN c #000000",
"aO c #000000",
"aP c #000000",
"aQ c #000000",
"aR c #000000",
"aS c #000000",
"aT c #000000",
"aU c #000000",
"aV c #000000",
"aW c #000000",
"aX c #000000",
"aY c #000000",
"aZ c #000000",
"a0 c #000000",
"a1 c #000000",
"a2 c #000000",
"a3 c #000000",
"a4 c #000000",
"a5 c #000000",
"a6 c #000000",
"a7 c #000000",
"a8 c #000000",
/* pixels */
"````````````````````````````````````````````````````````````````",
"````````````````````````````````````````````````````````````````",
"````````````````````````````````````````````````````````````````",
"````````````````````````````````````````````````````````````````",
"```````````````````````````.````````````````````````````````````",
"```````````````````````````.```````#`.``````````````````````````",
"`````````````````````.`a```.`b`````b`.``````````````````````````",
"`````````````````````.`b```.`b```c`d`.`````````````.````````````",
"`````````````````````.`b`e`.`f`g`.`h`.`````````````.````````````",
"`````````````````````.`i`j`.`k`l`.`m`.`g```````````.````````````",
"```````````````.`n`o`.`p`q`r`s`q`.`t`.`u`v`w`x`y```.````````````",
"```````````````.`z`A`.`B`C`D`E`F`.`G`.`q`H`I`.`J`y`.`K`L````````",
"```````````````.`M`N`.`O`P`Q`R`S`.`T`U`q`q`V`.`W`q`.`X`Y`Z`0````",
"`````````````1`.`2`q`3`4`q`.`5`6`.`B`7`8.`..`.`q.#`.`q.a.b.c````",
"``````````.d.b`..e.f.g.h.i`..j`q`..k.l.m.n.o`..p.g`N`q.q.r``````",
"````````.s.t.h`..u.v.w.x.y`..z`q`q`q`q.A`..B`..C.D.E.F.G.H``````",
"````.I.J.K`q`q`..L`q`W.M.N`..O.P.Q.R.S.T`..L`.`q`q.U.V.W````````",
"``.X.Y.Z.Q.0`q`q`q`q.b.1`q`..2.3.4.5.6.7`..8`q`q`q#`#..X````````",
"``###a#b#c#d#e#f#g.y.y#h`q`.`q`q`q#i#j#k`..M`8.`#l#m#n``````````",
"``#o#p#p#q#r#s#t#u.M#v`E`q`q`q`q#w#x#y#y`.#z#z#A#B.Z````````````",
"``````#o#C#p#p#p#D#E#F#u`C#G`E#H#I#y#y#y`.#y#y#z#I#J````````````",
"``````````#K#o#L#p#p#M#N#O#P.M#x#z#y#y#y#y#y#y#Q#R``````````````",
"````````````````#S#C#L#p#p#M#T#U#V.M#z#y#y#y#W#X#J``````````````",
"``````````````````````#K#C#p#p#p#M#Y#Z#B#0#1#2#R````````````````",
"``````````````````````````#3#o#L#p#p#p#4#5#6#7#8````````````````",
"````````````````````````````````#S#o#L#p#pa`a.``````````````````",
"````````````````````````````````````#3a##C#S````````````````````",
"````````````````````````````````````````````````````````````````",
"````````````````````````````````````````````````````````````````",
"````````````````````````````````````````````````````````````````",
"````````````````````````````````````````````````````````````````",
"````````````````````````````````````````````````````````````````"
};
