/* XPM */
static char *createpoly_xpm[] = {
/* width height num_colors chars_per_pixel */
"    32    32      256            2",
/* colors */
"`` c #c1c1c1",
"`. c #000000",
"`# c #5d5d5e",
"`a c #666767",
"`b c #e1e1ff",
"`c c #69696a",
"`d c #232424",
"`e c #000102",
"`f c #696969",
"`g c #000101",
"`h c #b9b9b9",
"`i c #bdbdbd",
"`j c #8a8aa4",
"`k c #5f5f94",
"`l c #1f1f70",
"`m c #010108",
"`n c #000001",
"`o c #686868",
"`p c #acacac",
"`q c #575792",
"`r c #3030a5",
"`s c #303fa0",
"`t c #2278cf",
"`u c #1a8cdc",
"`v c #1574af",
"`w c #5b5bff",
"`x c #464663",
"`y c #8b8ba6",
"`z c #303095",
"`A c #2971ce",
"`B c #177ccb",
"`C c #1dadff",
"`D c #1dabff",
"`E c #5064ff",
"`F c #7777ef",
"`G c #8a8aa1",
"`H c #565690",
"`I c #4848ab",
"`J c #1e1e81",
"`K c #2d75d2",
"`L c #177ccc",
"`M c #1b9dec",
"`N c #3e77f9",
"`O c #7575ef",
"`P c #8b8ba5",
"`Q c #595997",
"`R c #33339b",
"`S c #1b1b86",
"`T c #2761c9",
"`U c #198cdc",
"`V c #2597f4",
"`W c #5a5aff",
"`X c #a8a8d0",
"`Y c #787898",
"`Z c #686898",
"`0 c #33339c",
"`1 c #18187f",
"`2 c #266fd5",
"`3 c #166cba",
"`4 c #5062fd",
"`5 c #8f8fe0",
"`6 c #1e1f20",
"`7 c #020310",
"`8 c #13136d",
".` c #1a54b2",
".. c #187ccd",
".# c #466eff",
".a c #6969f7",
".b c #b4b4c8",
".c c #737373",
".d c #373839",
".e c #01020e",
".f c #020314",
".g c #188ed0",
".h c #2598f8",
".i c #5858ff",
".j c #0c0d0e",
".k c #020211",
".l c #0a0a51",
".m c #123d95",
".n c #1b9df0",
".o c #1da4f5",
".p c #4f5ff9",
".q c #9c9cd8",
".r c #262727",
".s c #333334",
".t c #3c3c4e",
".u c #16164f",
".v c #102d84",
".w c #1a8ddf",
".x c #3e72f5",
".y c #5d5dff",
".z c #a5a5a5",
".A c #848484",
".B c #787878",
".C c #777777",
".D c #57575f",
".E c #151544",
".F c #0f297d",
".G c #187dd3",
".H c #1daaff",
".I c #367bf5",
".J c #393aa3",
".K c #2b2c3b",
".L c #8c8c8c",
".M c #bcbcbc",
".N c #7e7e7e",
".O c #656569",
".P c #151541",
".Q c #0c0c5e",
".R c #155db3",
".S c #1b9dee",
".T c #1da3fb",
".U c #1d90e0",
".V c #08263c",
".W c #111213",
".X c #a9a9a9",
".Y c #8d8d8d",
".Z c #656568",
".0 c #212143",
".1 c #0b0b55",
".2 c #1d91e0",
".3 c #323245",
".4 c #343536",
".5 c #aeaeae",
".6 c #989898",
".7 c #0a0a4f",
".8 c #1a8de1",
"#` c #1da4f6",
"#. c #7bb1fb",
"## c #abc0f9",
"#a c #d8d8ff",
"#b c #101118",
"#c c #b6b6b6",
"#d c #939393",
"#e c #57575e",
"#f c #161649",
"#g c #0e1d74",
"#h c #3cabfb",
"#i c #6ca9f3",
"#j c #cacaff",
"#k c #d5d5ff",
"#l c #babaf1",
"#m c #5b5ba9",
"#n c #030317",
"#o c #adadad",
"#p c #919191",
"#q c #7b7b7b",
"#r c #23234c",
"#s c #0c0c5f",
"#t c #1560b4",
"#u c #187dc0",
"#v c #4ba9f7",
"#w c #82b0f8",
"#x c #9f9fe4",
"#y c #5b5bae",
"#z c #31317c",
"#A c #9d9daf",
"#B c #b0b0b0",
"#C c #1e1e3c",
"#D c #01020a",
"#E c #021019",
"#F c #7c90ca",
"#G c #9191d6",
"#H c #303088",
"#I c #55558d",
"#J c #bbbbbb",
"#K c #51525e",
"#L c #6c6cbb",
"#M c #1f1f79",
"#N c #afafb8",
"#O c #929292",
"#P c #757575",
"#Q c #1f1f20",
"#R c #01020b",
"#S c #676796",
"#T c #838383",
"#U c #343535",
"#V c #bebebe",
"#W c #b4b4b4",
"#X c #a1a1a1",
"#Y c #bfbfbf",
"#Z c #7a7b7b",
"#0 c #000000",
"#1 c #000000",
"#2 c #000000",
"#3 c #000000",
"#4 c #000000",
"#5 c #000000",
"#6 c #000000",
"#7 c #000000",
"#8 c #000000",
"a` c #000000",
"a. c #000000",
"a# c #000000",
"aa c #000000",
"ab c #000000",
"ac c #000000",
"ad c #000000",
"ae c #000000",
"af c #000000",
"ag c #000000",
"ah c #000000",
"ai c #000000",
"aj c #000000",
"ak c #000000",
"al c #000000",
"am c #000000",
"an c #000000",
"ao c #000000",
"ap c #000000",
"aq c #000000",
"ar c #000000",
"as c #000000",
"at c #000000",
"au c #000000",
"av c #000000",
"aw c #000000",
"ax c #000000",
"ay c #000000",
"az c #000000",
"aA c #000000",
"aB c #000000",
"aC c #000000",
"aD c #000000",
"aE c #000000",
"aF c #000000",
"aG c #000000",
"aH c #000000",
"aI c #000000",
"aJ c #000000",
"aK c #000000",
"aL c #000000",
"aM c #000000",
"aN c #000000",
"aO c #000000",
"aP c #000000",
"aQ c #000000",
"aR c #000000",
"aS c #000000",
"aT c #000000",
"aU c #000000",
"aV c #000000",
"aW c #000000",
"aX c #000000",
"aY c #000000",
"aZ c #000000",
"a0 c #000000",
"a1 c #000000",
"a2 c #000000",
"a3 c #000000",
"a4 c #000000",
"a5 c #000000",
"a6 c #000000",
"a7 c #000000",
"a8 c #000000",
/* pixels */
"````````````````````````````````````````````````````````````````",
"`````````````````````````````````````````````````````.`.`.`.`.``",
"```````````````````````````````````````````````````#`#`#`#`#`.``",
"```````````````````````````````````````````````````a`b`b`b`#`.``",
"`````````````````````````````````````````````c`d`e`#`b`b`b`f`.``",
"`````````````````````````````````````````````.`g`e`a`b`b`b`a`.``",
"```````````````````````````````````h`h`i`j`k`l`m`n`a`f`o`a`#````",
"`````````````````````````````````p`j`q`r`s`t`u`v`w`x````````````",
"`````````````````````````````y`q`z`q`A`B`C`C`C`D`E`F````````````",
"```````````````````````G`H`I`J`K`L`M`C`C`C`C`C`C`N`O````````````",
"`````````````````P`Q`R`S`T`U`C`C`C`C`C`C`C`C`C`C`V`W`X``````````",
"`````e`e`c`Y`Z`0`1`2`3`C`C`C`C`C`C`C`C`C`C`C`C`C`C`4`5``````````",
"```6`e`e`7`8.`..`C`C`C`C`C`C`C`C`C`C`C`C`C`C`C`C`C.#.a.b````````",
".c.d`n.e.f.g`C`C`C`C`C`C`C`C`C`C`C`C`C`C`C`C`C`C`C.h.i`X````````",
".c`a.j.k.l.m.n`C`C`C`C`C`C`C`C`C`C`C`C`C`C`C`C`C`C.o.p.q````````",
".c.c.r.s.t.u.v.w`C`C`C`C`C`C`C`C`C`C`C`C`C`C`C`C`C`C.x.y.b``````",
".z.A.B.C.c.D.E.F.G`C`C`C`C`C`C`C`C`C`C`C`C`C`C`C`C.H.I.J.K.L````",
"``.M.z.N.c.c.O.P.Q.R.S`C`C`C`C`C`C`C`C`C`C`C`C`C.T.U.V`e`e.W.L``",
"`````i.X.Y.c.c.Z.0.1.m.n`C`C`C`C`C`C`C`C`C`C`C`C`C.2.3`g`e`e.4``",
"````````.5.6.B.c.c.t.7.v.8`C`C`C`C`C`C`C`C`C`C#`#.###a#b`n`n`f``",
"``````````#c#d.B.c.c#e#f#g.G`C`C`C`C`C`C`C#h#i#j#k#l#m#n`n`f````",
"````````````#o#p#q.c.c#e#r#s#t#u`C`C`C#v#w#j#j#x#y#z#A.L````````",
"``````````````#B#p.c.c.c.O#C#D`e`e#E#F`b#k#G#H#I#A``````````````",
"``````````````#J.6.c.c.c.c`#`g`e`e`e#K#L#M#I#N``````````````````",
"````````````````.X#O#q.c.c#P#Q`g`e`e#R#S#N``````````````````````",
"``````````````````.z#T.c.c.N`o`n`n`n#U``````````````````````````",
"``````````````````#V#W#X#X``#Y#U#U#Z````````````````````````````",
"````````````````````````````````````````````````````````````````",
"````````````````````````````````````````````````````````````````",
"````````````````````````````````````````````````````````````````",
"````````````````````````````````````````````````````````````````",
"````````````````````````````````````````````````````````````````"
};
