/* XPM */
static char *doubleradius_xpm[] = {
/* width height num_colors chars_per_pixel */
"    20    20      256            2",
/* colors */
"`` c #ffffff",
"`. c #333333",
"`# c #c6c4c5",
"`a c #c7c5c6",
"`b c #c9c7c8",
"`c c #cac9c9",
"`d c #cbcaca",
"`e c #cccbcb",
"`f c #cbcbcb",
"`g c #cac9c8",
"`h c #cac8c8",
"`i c #c7c6c7",
"`j c #cdcbca",
"`k c #cecdcc",
"`l c #cecfce",
"`m c #d1a8a8",
"`n c #d38d8d",
"`o c #cccccc",
"`p c #cccaca",
"`q c #cdcdcc",
"`r c #d38e8e",
"`s c #cecccb",
"`t c #d0d0ce",
"`u c #cfd0cf",
"`v c #d48a8a",
"`w c #e10505",
"`x c #d76868",
"`y c #cecdcd",
"`z c #cececd",
"`A c #d76a69",
"`B c #cdcccb",
"`C c #d0d0cf",
"`D c #cec0c0",
"`E c #da4848",
"`F c #df1818",
"`G c #d57777",
"`H c #d0acac",
"`I c #cccbca",
"`J c #d0adac",
"`K c #d67070",
"`L c #df1313",
"`M c #d95353",
"`N c #cec5c5",
"`O c #d1d2d0",
"`P c #cfcfcd",
"`Q c #cdcfcf",
"`R c #e00606",
"`S c #d48383",
"`T c #d3d3d1",
"`U c #d7d6d3",
"`V c #d5d4d1",
"`W c #d0cecd",
"`X c #cecfcf",
"`Y c #dc3333",
"`Z c #e00f0f",
"`0 c #d29797",
"`1 c #d2d2d1",
"`2 c #d4d2d1",
"`3 c #ced0cf",
"`4 c #d29696",
"`5 c #df1212",
"`6 c #d95757",
"`7 c #cbc9c9",
"`8 c #cfcdcc",
".` c #cec6c6",
".. c #d94f4f",
".# c #e10000",
".a c #d66f6f",
".b c #cdcdcd",
".c c #c8c7c7",
".d c #cfcecd",
".e c #d48484",
".f c #d67272",
".g c #cccccd",
".h c #cdcecd",
".i c #d67373",
".j c #c6c4c6",
".k c #c8c6c7",
".l c #b0b6bb",
".m c #8ea5bb",
".n c #99a8b9",
".o c #c5c7c7",
".p c #c5c3c5",
".q c #c9c7c7",
".r c #99a1a8",
".s c #396dac",
".t c #3488df",
".u c #3684d3",
".v c #587ca2",
".w c #b8b9b9",
".x c #c4c2c4",
".y c #a0a3a8",
".z c #2d5c92",
".A c #2470da",
".B c #3891e8",
".C c #3b9ae9",
".D c #2472c8",
".E c #4b6b8c",
".F c #bababb",
".G c #b2b3b7",
".H c #2c537f",
".I c #195db8",
".J c #2477df",
".K c #389ae7",
".L c #45a7eb",
".M c #2b86de",
".N c #1759a8",
".O c #566b83",
".P c #c0bfc1",
".Q c #b2b4b7",
".R c #425e79",
".S c #15529f",
".T c #226ccf",
".U c #2380e3",
".V c #38a0e7",
".W c #50b2eb",
".X c #3492e2",
".Y c #206fc5",
".Z c #1b5495",
".0 c #6d7d8c",
".1 c #bdbdbf",
".2 c #c1c0c2",
".3 c #9fa3a9",
".4 c #395672",
".5 c #195291",
".6 c #1c63bb",
".7 c #2272d8",
".8 c #2588e4",
"#` c #3aa1e6",
"#. c #59b7eb",
"## c #3a9fe7",
"#a c #2481d5",
"#b c #1f6bb8",
"#c c #1b5189",
"#d c #556d80",
"#e c #7c8a98",
"#f c #98a1ad",
"#g c #b4b7bc",
"#h c #516a85",
"#i c #20446a",
"#j c #154b87",
"#k c #1a5fb0",
"#l c #206ecc",
"#m c #237de1",
"#n c #258ae3",
"#o c #38a1e6",
"#p c #56b7eb",
"#q c #3fa5e9",
"#r c #288fdf",
"#s c #257dcf",
"#t c #1e65af",
"#u c #154c87",
"#v c #123d67",
"#w c #153f69",
"#x c #000000",
"#y c #000000",
"#z c #000000",
"#A c #000000",
"#B c #000000",
"#C c #000000",
"#D c #000000",
"#E c #000000",
"#F c #000000",
"#G c #000000",
"#H c #000000",
"#I c #000000",
"#J c #000000",
"#K c #000000",
"#L c #000000",
"#M c #000000",
"#N c #000000",
"#O c #000000",
"#P c #000000",
"#Q c #000000",
"#R c #000000",
"#S c #000000",
"#T c #000000",
"#U c #000000",
"#V c #000000",
"#W c #000000",
"#X c #000000",
"#Y c #000000",
"#Z c #000000",
"#0 c #000000",
"#1 c #000000",
"#2 c #000000",
"#3 c #000000",
"#4 c #000000",
"#5 c #000000",
"#6 c #000000",
"#7 c #000000",
"#8 c #000000",
"a` c #000000",
"a. c #000000",
"a# c #000000",
"aa c #000000",
"ab c #000000",
"ac c #000000",
"ad c #000000",
"ae c #000000",
"af c #000000",
"ag c #000000",
"ah c #000000",
"ai c #000000",
"aj c #000000",
"ak c #000000",
"al c #000000",
"am c #000000",
"an c #000000",
"ao c #000000",
"ap c #000000",
"aq c #000000",
"ar c #000000",
"as c #000000",
"at c #000000",
"au c #000000",
"av c #000000",
"aw c #000000",
"ax c #000000",
"ay c #000000",
"az c #000000",
"aA c #000000",
"aB c #000000",
"aC c #000000",
"aD c #000000",
"aE c #000000",
"aF c #000000",
"aG c #000000",
"aH c #000000",
"aI c #000000",
"aJ c #000000",
"aK c #000000",
"aL c #000000",
"aM c #000000",
"aN c #000000",
"aO c #000000",
"aP c #000000",
"aQ c #000000",
"aR c #000000",
"aS c #000000",
"aT c #000000",
"aU c #000000",
"aV c #000000",
"aW c #000000",
"aX c #000000",
"aY c #000000",
"aZ c #000000",
"a0 c #000000",
"a1 c #000000",
"a2 c #000000",
"a3 c #000000",
"a4 c #000000",
"a5 c #000000",
"a6 c #000000",
"a7 c #000000",
"a8 c #000000",
/* pixels */
"```````````````````````````````````````.",
"```#`a`b`c`d`e`f`g`h`g`f`e`d`c`b`a`#`.`.",
"```i`h`j`k`l`m`n`o`p`q`r`m`l`k`j`h`i`.`.",
"```c`s`t`u`v`w`x`y`j`z`A`w`v`u`t`s`c`.`.",
"```B`C`D`E`F`G`H`y`I`k`J`G`F`E`D`C`B`.`.",
"```l`K`L`M`N`O`P`j`p`e`P`O`N`M`L`K`l`.`.",
"```Q`R`S`T`U`V`W`j`p`p`W`V`U`T`S`R`Q`.`.",
"```X`Y`Z`0`1`2`W`j`d`p`W`2`1`0`Z`Y`X`.`.",
"```z`3`4`5`6`D`l`j`p`p`l`D`6`5`4`3`z`.`.",
"```7`8`u.`...#.a.b`I`z`K.#...``u`8`7`.`.",
"``.c`7`B.d`l.e.f.g`p.h.i.e`l.d`B`7.c`.`.",
"``.j.k`h`7`p`o`o.l.m.n.o`o`p`7`h.k.j`.`.",
"``.p`#`a.k.q`b.r.s.t.u.v.w.q.k`a`#.p`.`.",
"``.x.x.p`#.p.y.z.A.B.C.D.E.F`#.p.x.x`.`.",
"``.x.x.x.x.G.H.I.J.K.L.M.N.O.P.x.x.x`.`.",
"``.x.x.x.Q.R.S.T.U.V.W.X.Y.Z.0.1.x.x`.`.",
"``.x.2.3.4.5.6.7.8#`#.###a#b#c#d#e#f`.`.",
"``#g#h#i#j#k#l#m#n#o#p#q#r#s#t#u#v#w`.`.",
"```.`.`.`.`.`.`.`.`.`.`.`.`.`.`.`.`.`.`.",
"`.`.`.`.`.`.`.`.`.`.`.`.`.`.`.`.`.`.`.`."
};
