/* XPM */
static char *doubleopac_xpm[] = {
/* width height num_colors chars_per_pixel */
"    20    20      256            2",
/* colors */
"`` c #ffffff",
"`. c #333333",
"`# c #c4c2c4",
"`a c #a6acb3",
"`b c #829bb5",
"`c c #8a9db2",
"`d c #b7b8bb",
"`e c #9199a3",
"`f c #2a63a7",
"`g c #257fdd",
"`h c #277bd0",
"`i c #4a709c",
"`j c #b1b2b4",
"`k c #c3c1c3",
"`l c #9c9fa5",
"`m c #23548f",
"`n c #1b6ad9",
"`o c #308de8",
"`p c #3396e9",
"`q c #1a6bc6",
"`r c #446589",
"`s c #b7b7b9",
"`t c #b2b3b7",
"`u c #2a527e",
"`v c #175cb8",
"`w c #2275df",
"`x c #369ae7",
"`y c #43a7eb",
"`z c #2985de",
"`A c #1558a7",
"`B c #556a83",
"`C c #c0bfc1",
"`D c #b2b4b7",
"`E c #425e79",
"`F c #15529f",
"`G c #226ccf",
"`H c #2380e3",
"`I c #38a0e7",
"`J c #50b2eb",
"`K c #3492e2",
"`L c #206fc5",
"`M c #1b5495",
"`N c #6d7d8c",
"`O c #bdbdbf",
"`P c #c1c0c2",
"`Q c #9fa3a9",
"`R c #395672",
"`S c #195291",
"`T c #1c63bb",
"`U c #2272d8",
"`V c #2588e4",
"`W c #3aa1e6",
"`X c #59b7eb",
"`Y c #3a9fe7",
"`Z c #2481d5",
"`0 c #1f6bb8",
"`1 c #1b5189",
"`2 c #556d80",
"`3 c #7c8a98",
"`4 c #98a1ad",
"`5 c #b4b7bc",
"`6 c #516a85",
"`7 c #20446a",
"`8 c #154b87",
".` c #1a5fb0",
".. c #206ecc",
".# c #237de1",
".a c #258ae3",
".b c #38a1e6",
".c c #56b7eb",
".d c #3fa5e9",
".e c #288fdf",
".f c #257dcf",
".g c #1e65af",
".h c #154c87",
".i c #123d67",
".j c #153f69",
".k c #000000",
".l c #000000",
".m c #000000",
".n c #000000",
".o c #000000",
".p c #000000",
".q c #000000",
".r c #000000",
".s c #000000",
".t c #000000",
".u c #000000",
".v c #000000",
".w c #000000",
".x c #000000",
".y c #000000",
".z c #000000",
".A c #000000",
".B c #000000",
".C c #000000",
".D c #000000",
".E c #000000",
".F c #000000",
".G c #000000",
".H c #000000",
".I c #000000",
".J c #000000",
".K c #000000",
".L c #000000",
".M c #000000",
".N c #000000",
".O c #000000",
".P c #000000",
".Q c #000000",
".R c #000000",
".S c #000000",
".T c #000000",
".U c #000000",
".V c #000000",
".W c #000000",
".X c #000000",
".Y c #000000",
".Z c #000000",
".0 c #000000",
".1 c #000000",
".2 c #000000",
".3 c #000000",
".4 c #000000",
".5 c #000000",
".6 c #000000",
".7 c #000000",
".8 c #000000",
"#` c #000000",
"#. c #000000",
"## c #000000",
"#a c #000000",
"#b c #000000",
"#c c #000000",
"#d c #000000",
"#e c #000000",
"#f c #000000",
"#g c #000000",
"#h c #000000",
"#i c #000000",
"#j c #000000",
"#k c #000000",
"#l c #000000",
"#m c #000000",
"#n c #000000",
"#o c #000000",
"#p c #000000",
"#q c #000000",
"#r c #000000",
"#s c #000000",
"#t c #000000",
"#u c #000000",
"#v c #000000",
"#w c #000000",
"#x c #000000",
"#y c #000000",
"#z c #000000",
"#A c #000000",
"#B c #000000",
"#C c #000000",
"#D c #000000",
"#E c #000000",
"#F c #000000",
"#G c #000000",
"#H c #000000",
"#I c #000000",
"#J c #000000",
"#K c #000000",
"#L c #000000",
"#M c #000000",
"#N c #000000",
"#O c #000000",
"#P c #000000",
"#Q c #000000",
"#R c #000000",
"#S c #000000",
"#T c #000000",
"#U c #000000",
"#V c #000000",
"#W c #000000",
"#X c #000000",
"#Y c #000000",
"#Z c #000000",
"#0 c #000000",
"#1 c #000000",
"#2 c #000000",
"#3 c #000000",
"#4 c #000000",
"#5 c #000000",
"#6 c #000000",
"#7 c #000000",
"#8 c #000000",
"a` c #000000",
"a. c #000000",
"a# c #000000",
"aa c #000000",
"ab c #000000",
"ac c #000000",
"ad c #000000",
"ae c #000000",
"af c #000000",
"ag c #000000",
"ah c #000000",
"ai c #000000",
"aj c #000000",
"ak c #000000",
"al c #000000",
"am c #000000",
"an c #000000",
"ao c #000000",
"ap c #000000",
"aq c #000000",
"ar c #000000",
"as c #000000",
"at c #000000",
"au c #000000",
"av c #000000",
"aw c #000000",
"ax c #000000",
"ay c #000000",
"az c #000000",
"aA c #000000",
"aB c #000000",
"aC c #000000",
"aD c #000000",
"aE c #000000",
"aF c #000000",
"aG c #000000",
"aH c #000000",
"aI c #000000",
"aJ c #000000",
"aK c #000000",
"aL c #000000",
"aM c #000000",
"aN c #000000",
"aO c #000000",
"aP c #000000",
"aQ c #000000",
"aR c #000000",
"aS c #000000",
"aT c #000000",
"aU c #000000",
"aV c #000000",
"aW c #000000",
"aX c #000000",
"aY c #000000",
"aZ c #000000",
"a0 c #000000",
"a1 c #000000",
"a2 c #000000",
"a3 c #000000",
"a4 c #000000",
"a5 c #000000",
"a6 c #000000",
"a7 c #000000",
"a8 c #000000",
/* pixels */
"```````````````````````````````````````.",
"```#`#`#`#`#`#`#`#`#`#`#`#`#`#`#`#`#`.`.",
"```#`#`#`#`#`#`#`#`#`#`#`#`#`#`#`#`#`.`.",
"```#`#`#`#`#`#`#`#`#`#`#`#`#`#`#`#`#`.`.",
"```#`#`#`#`#`#`#`#`#`#`#`#`#`#`#`#`#`.`.",
"```#`#`#`#`#`#`#`#`#`#`#`#`#`#`#`#`#`.`.",
"```#`#`#`#`#`#`#`#`#`#`#`#`#`#`#`#`#`.`.",
"```#`#`#`#`#`#`#`#`#`#`#`#`#`#`#`#`#`.`.",
"```#`#`#`#`#`#`#`#`#`#`#`#`#`#`#`#`#`.`.",
"```#`#`#`#`#`#`#`#`#`#`#`#`#`#`#`#`#`.`.",
"```#`#`#`#`#`#`#`#`#`#`#`#`#`#`#`#`#`.`.",
"```#`#`#`#`#`#`#`a`b`c`d`#`#`#`#`#`#`.`.",
"```#`#`#`#`#`#`e`f`g`h`i`j`#`#`#`#`#`.`.",
"```#`#`#`#`k`l`m`n`o`p`q`r`s`#`#`#`#`.`.",
"```#`#`#`#`t`u`v`w`x`y`z`A`B`C`#`#`#`.`.",
"```#`#`#`D`E`F`G`H`I`J`K`L`M`N`O`#`#`.`.",
"```#`P`Q`R`S`T`U`V`W`X`Y`Z`0`1`2`3`4`.`.",
"```5`6`7`8.`...#.a.b.c.d.e.f.g.h.i.j`.`.",
"```.`.`.`.`.`.`.`.`.`.`.`.`.`.`.`.`.`.`.",
"`.`.`.`.`.`.`.`.`.`.`.`.`.`.`.`.`.`.`.`."
};
