/* XPM */
static char *erasebrushdown_xpm[] = {
/* width height num_colors chars_per_pixel */
"    32    32      256            2",
/* colors */
"`` c #3b3b3b",
"`. c #ffffff",
"`# c #c4c2c4",
"`a c #b4becc",
"`b c #6c92e4",
"`c c #4c72c4",
"`d c #647ab4",
"`e c #94a2bc",
"`f c #b4b6bc",
"`g c #a4aebc",
"`h c #a4aeb4",
"`i c #bcbabc",
"`j c #bcbec4",
"`k c #6c8edc",
"`l c #4472dc",
"`m c #5c8ae4",
"`n c #7ca6ec",
"`o c #3c6ee4",
"`p c #a4aab4",
"`q c #9caebc",
"`r c #a4b2cc",
"`s c #a4b6cc",
"`t c #a4b2c4",
"`u c #9caabc",
"`v c #b4b6b4",
"`w c #bcc2c4",
"`x c #7c9adc",
"`y c #5c8ef4",
"`z c #547ee4",
"`A c #8caaec",
"`B c #8caeec",
"`C c #6492ec",
"`D c #548eff",
"`E c #2c5ed4",
"`F c #9caec4",
"`G c #9c9e94",
"`H c #a4a694",
"`I c #849ebc",
"`J c #5c82cc",
"`K c #3c76e4",
"`L c #4c7aec",
"`M c #4476e4",
"`N c #346ef4",
"`O c #0c3eb4",
"`P c #00001c",
"`Q c #acaeb4",
"`R c #9caab4",
"`S c #a4bacc",
"`T c #8c8e7c",
"`U c #bcbaa4",
"`V c #ffffdc",
"`W c #ffffe4",
"`X c #dce2cc",
"`Y c #648ed4",
"`Z c #002a94",
"`0 c #000000",
"`1 c #9ca6b4",
"`2 c #949a8c",
"`3 c #d4d2c4",
"`4 c #cccaac",
"`5 c #8c8e74",
"`6 c #bcbe9c",
"`7 c #f4f2c4",
"`8 c #ffffcc",
".` c #ffffd4",
".. c #7c8eac",
".# c #00000c",
".a c #1c3674",
".b c #9ca6ac",
".c c #9c9e84",
".d c #dcdabc",
".e c #fffff4",
".f c #eceecc",
".g c #7c7a64",
".h c #b4b28c",
".i c #c4c294",
".j c #546a7c",
".k c #001e5c",
".l c #a4a6ac",
".m c #a4becc",
".n c #94967c",
".o c #c4c6a4",
".p c #94927c",
".q c #8c8e6c",
".r c #5c6a6c",
".s c #000064",
".t c #b4bac4",
".u c #a4aaac",
".v c #9cb2c4",
".w c #acbecc",
".x c #d4d2b4",
".y c #fffad4",
".z c #948e64",
".A c #848a84",
".B c #b4bacc",
".C c #b4bab4",
".D c #949684",
".E c #a4a284",
".F c #f4f6d4",
".G c #acae8c",
".H c #848264",
".I c #b4babc",
".J c #bcbebc",
".K c #acb2b4",
".L c #9ca2ac",
".M c #9c9a84",
".N c #a4b6c4",
".O c #447eb4",
".P c #0c5ea2",
".Q c #246aac",
".R c #3c7aac",
".S c #5486ac",
".T c #5c86ac",
".U c #5c8aac",
".V c #648eac",
".W c #7c9eb4",
".X c #94b2c4",
".Y c #7492b4",
".Z c #14568c",
".0 c #0c4e8c",
".1 c #0c5694",
".2 c #0c66ac",
".3 c #0c6eb4",
".4 c #0c76c4",
".5 c #1476c0",
".6 c #147abc",
".7 c #146eac",
".8 c #246a9c",
"#` c #4c7ea4",
"#. c #7c9ab4",
"## c #94aabc",
"#a c #8c9eb4",
"#b c #2c628c",
"#c c #0c467c",
"#d c #0c4e84",
"#e c #0c6ab4",
"#f c #0c72c4",
"#g c #0c7ad4",
"#h c #0c82d4",
"#i c #1486d9",
"#j c #148adc",
"#k c #147ecc",
"#l c #147ac4",
"#m c #0c6aac",
"#n c #0c4a7c",
"#o c #0c4274",
"#p c #1c4e84",
"#q c #346294",
"#r c #54769c",
"#s c #748aa4",
"#t c #0c569c",
"#u c #0c62b4",
"#v c #0c6ec4",
"#w c #0c76cd",
"#x c #0c86dc",
"#y c #0c8ae4",
"#z c #148ee4",
"#A c #1492e4",
"#B c #1482d4",
"#C c #0c7acc",
"#D c #0c6ebc",
"#E c #0c3e74",
"#F c #003e7c",
"#G c #003a7c",
"#H c #94a6b4",
"#I c #1c528c",
"#J c #004a8c",
"#K c #005294",
"#L c #005aa4",
"#M c #0c66b4",
"#N c #0c8eec",
"#O c #0c92ec",
"#P c #1496ec",
"#Q c #1492ec",
"#R c #0c6abc",
"#S c #0c5eac",
"#T c #0c5294",
"#U c #0c4684",
"#V c #4472a4",
"#W c #004a94",
"#X c #00529c",
"#Y c #005eac",
"#Z c #006abc",
"#0 c #0c72cc",
"#1 c #0c7ed6",
"#2 c #0c92f4",
"#3 c #0c96f4",
"#4 c #149aec",
"#5 c #0c529c",
"#6 c #00468c",
"#7 c #004e9c",
"#8 c #004e94",
"a` c #00569c",
"a. c #0066b4",
"a# c #0c9af4",
"aa c #149ef4",
"ab c #14a2ff",
"ac c #14aaff",
"ad c #1caaff",
"ae c #14a2f4",
"af c #0c8adc",
"ag c #0c66bc",
"ah c #0062b4",
"ai c #0056a4",
"aj c #0c82dc",
"ak c #0c8ee4",
"al c #0c96ec",
"am c #14a6f4",
"an c #1caaf4",
"ao c #1caef4",
"ap c #1cb2f4",
"aq c #1caeff",
"ar c #7c9ebc",
"as c #4c82b4",
"at c #347ab4",
"au c #2476b4",
"av c #1472bc",
"aw c #149af4",
"ax c #0c9aec",
"ay c #0c86e4",
"az c #2c7abc",
"aA c #acbac4",
"aB c #9cb6c4",
"aC c #7caacc",
"aD c #5ca2d4",
"aE c #3c9ad4",
"aF c #1c8edc",
"aG c #0c8aec",
"aH c #84a2bc",
"aI c #a4bac4",
"aJ c #74a6cc",
"aK c #3492d4",
"aL c #1466b4",
"aM c #74a2c4",
"aN c #3482c4",
"aO c #0c6ac4",
"aP c #0066bc",
"aQ c #0062bc",
"aR c #005eb4",
"aS c #005aac",
"aT c #648ab4",
"aU c #000000",
"aV c #000000",
"aW c #000000",
"aX c #000000",
"aY c #000000",
"aZ c #000000",
"a0 c #000000",
"a1 c #000000",
"a2 c #000000",
"a3 c #000000",
"a4 c #000000",
"a5 c #000000",
"a6 c #000000",
"a7 c #000000",
"a8 c #000000",
/* pixels */
"````````````````````````````````````````````````````````````````",
"```````````````````````````````````````````````````````````````.",
"`````#`#`#`#`#`#`#`#`#`#`#`#`#`#`#`#`#`#`#`#`#`#`#`#`#`#`#`#`.`.",
"`````#`#`#`#`#`#`#`#`#`#`#`#`#`#`#`#`#`#`#`#`#`#`#`#`#`#`#`#`.`.",
"`````#`#`#`#`#`#`#`#`#`#`#`#`#`#`#`#`#`#`#`#`#`#`#`#`#`#`#`#`.`.",
"`````#`#`#`#`#`#`#`#`#`#`#`#`#`#`#`#`#`#`#`#`#`#`#`a`b`c`d`e`.`.",
"`````#`#`#`#`#`#`#`#`#`#`#`#`#`f`g`g`h`i`#`#`#`j`k`l`m`n`m`o`.`.",
"`````#`#`#`#`#`#`#`#`#`#`#`#`p`q`r`s`t`u`v`w`x`y`z`A`B`C`D`E`.`.",
"`````#`#`#`#`#`#`#`#`#`#`#`p`u`F`r`s`s`t`G`H`I`J`K`L`M`N`O`P`.`.",
"`````#`#`#`#`#`#`#`#`#`#`Q`R`F`r`s`S`S`T`U`V`W`X`g`Y`N`Z`0`0`.`.",
"`````#`#`#`#`#`#`#`#`#`v`1`u`F`r`s`S`2`3`4`5`6`7`8.`...#`0.a`.`.",
"`````#`#`#`#`#`#`#`#`i.b`u`q`F`r`s`S.c.d.e.f.c.g.h.i.j`0.k`w`.`.",
"`````#`#`#`#`#`#`#`#.l`R`q`F`t`s`S.m.n.o.e`V`V.f.p.q.r.s.t`#`.`.",
"`````#`#`#`#`#`#`#.u`1`u`q.v`t`s`S.w`H.n.x.f.y`W.o.z.A.B`#`#`.`.",
"`````#`#`#`#`#`#`Q`1`u`q`F`t`r`s`S.w.w.C.D.E`6.F.G.H.C.I.J`#`.`.",
"`````#`#`#`#.K.L.b`R`q`F.v`t`s`s`S.w.w.w`S`q`2.M.p.K.b.b.b.b`.`.",
"`````#`#.J`p.b`1`R`u`q`F`t`t`s`s`S.m.w.w`S.N.N`q`q`q`R`1.b.b`.`.",
"`````#`f`1`1`R`R`u`q`F`t`t`s`s`s`S.m.w.w`S`S.N.N`t`q`q`R`R`1`.`.",
"`````h`1`1`R`R`u`q`q.v.O.P.Q.R.S.T.U.V.W.X`S.N.N`t`t`q`q`R`R`.`.",
"`````R`R`R`R`u`q`q.Y.Z.0.1.P.2.3.4.5.6.5.7.8#`.V#.##`t`q`u`R`.`.",
"`````R`R`R`u`u#a#b#c#d.P#e#f#g#h#i#j#i#i#k#l#m.1#n#o#p#q#r#s`.`.",
"````.J.J.I.I#r#c#d#t#u#v#w#h#x#y#z#A#A#z#j#B#C#D.P.0#c#E#F#G`.`.",
"`````#`##H#I#J#K#L#M#f#g#x#y#y#N#O#P#P#Q#z#j#h#w#R#S#T#U#F#F`.`.",
"`````j#V#W#X#L#Y#Z#0#1#x#y#N#2#3#3#4#4#P#Q#z#x#1.4#R#S#5#W#6`.`.",
"````#7#8a`#La.#D#w#1#x#y#O#3a#aaabacadae#4#Aaf#h#C#fagahai#t`.`.",
"````a`#L#Ya.#v#w#1aj#yakalaaamanaoapaqanaaal#Naf#1#f#v#Zahar`.`.",
"````asatauav.4#C#h#xaf#y#Nal#4awaaaaa#axal#N#yayaj#g#w#vaz`#`.`.",
"`````#`#`#`#`jaAaBaCaDaEaF#y#yakak#yaG#yay#xaj#1#g#w#f#vaH`#`.`.",
"`````#`#`#`#`#`#`#`#`#`#`#aIaJaKaj#1#1#g#w#w#w#f#v#R#MaL`w`#`.`.",
"`````#`#`#`#`#`#`#`#`#`#`#`#`#`#.taMaNaOaPaQaRaR#YaSaiaT`#`#`.`.",
"```.`.`.`.`.`.`.`.`.`.`.`.`.`.`.`.`.`.`.`.`.`.`.`.`.`.`.`.`.`.`.",
"`.`.`.`.`.`.`.`.`.`.`.`.`.`.`.`.`.`.`.`.`.`.`.`.`.`.`.`.`.`.`.`."
};
