/* XPM */
static char *flipedge_xpm[] = {
/* width height num_colors chars_per_pixel */
"    32    32      256            2",
/* colors */
"`` c #c1c1c1",
"`. c #bdbdbe",
"`# c #aaaab8",
"`a c #9090ad",
"`b c #7e7fb8",
"`c c #5f66bc",
"`d c #42497f",
"`e c #9f9fab",
"`f c #bdbdbf",
"`g c #9c9cb1",
"`h c #8888b0",
"`i c #7478c4",
"`j c #505dc3",
"`k c #5273c3",
"`l c #4770b8",
"`m c #497cae",
"`n c #3d6c9d",
"`o c #363c67",
"`p c #9090a2",
"`q c #9b9ba7",
"`r c #696ab9",
"`s c #4e58bb",
"`t c #455cbd",
"`u c #3d6cb2",
"`v c #4d80ad",
"`w c #6498bd",
"`x c #679abf",
"`y c #335c89",
"`z c #505085",
"`A c #383a97",
"`B c #38389c",
"`C c #3866aa",
"`D c #5887b2",
"`E c #5a8eb8",
"`F c #356494",
"`G c #323e68",
"`H c #7c7c90",
"`I c #2b2f6a",
"`J c #152e79",
"`K c #1a357c",
"`L c #213a7f",
"`M c #243c7f",
"`N c #253d81",
"`O c #41639a",
"`P c #517caa",
"`Q c #517aa6",
"`R c #6294ba",
"`S c #6597bc",
"`T c #679abe",
"`U c #406993",
"`V c #253c69",
"`W c #656588",
"`X c #283d7f",
"`Y c #588bb5",
"`Z c #366297",
"`0 c #234584",
"`1 c #223d83",
"`2 c #223d81",
"`3 c #385793",
"`4 c #496c9c",
"`5 c #283f6c",
"`6 c #656587",
"`7 c #474a73",
"`8 c #314b8a",
".` c #5083af",
".. c #2e5390",
".# c #234283",
".a c #222f64",
".b c #50507b",
".c c #2c3f7d",
".d c #4970a2",
".e c #5a8db5",
".f c #184489",
".g c #0f2f7c",
".h c #1b3075",
".i c #464db3",
".j c #6161a2",
".k c #5c8cb5",
".l c #487cab",
".m c #4b7eb4",
".n c #1b4da4",
".o c #1644af",
".p c #173795",
".q c #2436af",
".r c #2631a7",
".s c #6a6eb4",
".t c #7b7b9d",
".u c #3a3d6f",
".v c #41669d",
".w c #2053af",
".x c #153fa6",
".y c #2043b0",
".z c #3c5ec3",
".A c #3255c4",
".B c #262d9c",
".C c #0f379a",
".D c #061241",
".E c #222269",
".F c #9898af",
".G c #4b73a4",
".H c #578bb5",
".I c #3d71ab",
".J c #1c4ea6",
".K c #143ea0",
".L c #2147be",
".M c #2b48af",
".N c #2443b7",
".O c #2548c0",
".P c #1043a4",
".Q c #081d5f",
".R c #0f0f75",
".S c #0554b3",
".T c #0061a8",
".U c #23236d",
".V c #143ca8",
".W c #2649b7",
".X c #2f50b4",
".Y c #1a43a7",
".Z c #06489d",
".0 c #006fc0",
".1 c #006cb7",
".2 c #071c57",
".3 c #0f2197",
".4 c #0072c2",
".5 c #060935",
".6 c #bcbcbc",
".7 c #5b5b7a",
".8 c #3f3f8e",
"#` c #20209a",
"#. c #131478",
"## c #2648be",
"#a c #214cb8",
"#b c #0846a0",
"#c c #0164b6",
"#d c #006fbf",
"#e c #005593",
"#f c #0d0d66",
"#g c #0654b4",
"#h c #005ca0",
"#i c #05103e",
"#j c #bfbfbf",
"#k c #b6b6b6",
"#l c #18183a",
"#m c #10107a",
"#n c #0b3ba3",
"#o c #0261b5",
"#p c #0c3899",
"#q c #0c3c98",
"#r c #025aac",
"#s c #0070bf",
"#t c #101487",
"#u c #005697",
"#v c #b5b5b5",
"#w c #8f8f8f",
"#x c #7d7d7d",
"#y c #5f5f65",
"#z c #0a0a50",
"#A c #0c2183",
"#B c #00599a",
"#C c #090b4b",
"#D c #0d30a2",
"#E c #07093a",
"#F c #737373",
"#G c #707070",
"#H c #0e1171",
"#I c #023061",
"#J c #014c89",
"#K c #0b2b8c",
"#L c #006bb7",
"#M c #07124b",
"#N c #12148f",
"#O c #0262b9",
"#P c #01417b",
"#Q c #070a40",
"#R c #232370",
"#S c #c0c0c0",
"#T c #adadad",
"#U c #787878",
"#V c #181844",
"#W c #0d106f",
"#X c #0455ac",
"#Y c #004c87",
"#Z c #0c0c5f",
"#0 c #111895",
"#1 c #0071c0",
"#2 c #014882",
"#3 c #bbbbbb",
"#4 c #8a8a8a",
"#5 c #434350",
"#6 c #0a0a54",
"#7 c #042456",
"#8 c #111185",
"a` c #0848ac",
"a. c #006dba",
"a# c #022852",
"aa c #0b0b53",
"ab c #acacbe",
"ac c #9e9e9e",
"ad c #0d0d69",
"ae c #005896",
"af c #0b0b58",
"ag c #121591",
"ah c #006cb8",
"ai c #014e90",
"aj c #23238b",
"ak c #3737c3",
"al c #0c1e81",
"am c #023668",
"an c #1c1c81",
"ao c #3131b7",
"ap c #2626a4",
"aq c #7272a9",
"ar c #b7b7b7",
"as c #999999",
"at c #757575",
"au c #17173c",
"av c #0066ae",
"aw c #071651",
"ax c #25258a",
"ay c #3838d1",
"az c #2d2db4",
"aA c #bcbcbf",
"aB c #00487e",
"aC c #10229d",
"aD c #024584",
"aE c #081c62",
"aF c #3030c0",
"aG c #2626a9",
"aH c #919191",
"aI c #626264",
"aJ c #0647a1",
"aK c #042151",
"aL c #10107d",
"aM c #0b3daa",
"aN c #081656",
"aO c #1b1b8a",
"aP c #4141c6",
"aQ c #0060a7",
"aR c #006cb9",
"aS c #02407d",
"aT c #0a155c",
"aU c #2d2dbf",
"aV c #6161a5",
"aW c #b8b8b8",
"aX c #7e7e7e",
"aY c #181842",
"aZ c #081351",
"a0 c #111b92",
"a1 c #3333c4",
"a2 c #7a7a7a",
"a3 c #9898ad",
"a4 c #2424ae",
"a5 c #2222a8",
"a6 c #4f4f9e",
"a7 c #9999b1",
"a8 c #000000",
/* pixels */
"`````````````````````````````.`#````````````````````````````````",
"```````````````````````#`a`b`c`d`e``````````````````````````````",
"```````````````f`g`h`i`j`k`l`m`n`o`p````````````````````````````",
"```````.`q`h`r`s`t`k`u`v`w`x`x`w`y`o`p``````````````````````````",
"```#`z`A`B`t`C`D`E`x`x`x`x`x`x`x`w`F`G`H`.``````````````````````",
"```#`I`J`K`L`M`N`O`P`Q`R`S`x`T`T`T`T`U`V`W`.````````````````````",
"`````H`X`D`Y`n`Z`Z`0`1`2`N`3`O`4`Q`R`S`S`5`6`.``````````````````",
"`````.`7`8`S`x`x`x`w`R.``n`Z...#`2`2`N`3...a.b`#````````````````",
"```````q.c.d`T`T`T`T`T`T`T`T`T.e`v`Z.f.g.h.h.i.j````````````````",
"```````.`7`N.k`T`T`T`T`T`T`S.l.m.n.o.p.q.r.s.t`f````````````````",
"`````````q.u.v`T`T`T`T`Y.m.w.x.y.z.A.B.C.D.E.F``````````````````",
"```````````H.c.G.H.I.J.K.L.M.N.O.P.Q.R.S.T.D.U`#````````````````",
"```````````#`#.g.o.V.W.X.A.Y.Z.0.1.2.3.0.4.T.5.E.F``````````````",
"````.6.7.8#`#.#.#####a#b#c#d.4.4#e#f#g.4.4.4#h#i.E.F````````````",
"``#j#k#l#m#n#o#p#q#r#d.4.4.4.4#s#s#t.0.4.4.4.4#u#i.E`#``````````",
"#v#w#x#y#z#A.4.4.4.4.4.4.4.4.4#B#C#D.4.4.4.4.4.4#B#E.U.F````````",
"#v#x#F#G#G#H#o.4.4.4.4.4.4.4.4#I.R#n.4.4.4.4.4.4.4#J#E.U`#``````",
"#k#w#F#F#y#z#K.4.4.4.4.4.4.4#L#M#N#O.4.4.4.4.4.4.4.4#P#Q#R`#````",
"#S#T#U#F#G#V#W#X.4.4.4.4.4.4#Y#Z#0.4.4.4.4.4.4.4.4.4#1#2.5.U.F``",
"``#3#4#F#F#5#6#K#d.4.4.4.4#s#7#8a`.4.4.4.4.4.4.4.4.4.4a.a#aa`Bab",
"``#jac#U#F#G#Vad#X.4.4.4.4aeafag#O.4.4.4.4.4.4.4.4ahai.Qajakak`h",
"``#S#v#4#F#F#Fafal#d.4.4#1amad#D.4.4.4.4.4.4.4.1#2.2anaoapaq`#``",
"````arasat#F#Gauad.Z.4.4av.5#8.S.4.4.4.4.4#d#PawaxayazaqaA``````",
"``````#Tat#F#F#F#Cal#d.4aB#6aC.0.4.4.4#LaDaEaxaFaGaq`#``````````",
"``````.6aH#F#FaI#EadaJ.1aKaLaM.4.4ah#2aNaOaPaz.jaA``````````````",
"````````acat#F#F#F#z#HaQ#C#N#OaRaSaTajaUapaVaA``````````````````",
"````````aWaX#F#F#GaYadaZada0a0aZaOa1aG.j`#``````````````````````",
"````````.6asa2#F#F#F#C#Z#m#CaOazazaVa3``````````````````````````",
"````````#S#TaX#F#FaIaYadaOa4aGaq`#``````````````````````````````",
"``````````#kaH#Fa2#4#5aOa5a6a7``````````````````````````````````",
"``````````#j#T#4#TaW.6a6`#``````````````````````````````````````",
"````````````#jaW#j``````````````````````````````````````````````"
};
