/* XPM */
static char *gravity_xpm[] = {
/* width height num_colors chars_per_pixel */
"    32    32      256            2",
/* colors */
"`` c #00fe00",
"`. c #c1c1c1",
"`# c #adb4ad",
"`a c #afb5af",
"`b c #698869",
"`c c #587f58",
"`d c #5a825a",
"`e c #5c845c",
"`f c #9aaa9a",
"`g c #afb3af",
"`h c #9ea99e",
"`i c #113b11",
"`j c #034503",
"`k c #afb4af",
"`l c #577a57",
"`m c #004200",
"`n c #034703",
"`o c #0c510c",
"`p c #175d17",
"`q c #2e772e",
"`r c #418b41",
"`s c #7aa07a",
"`t c #aeb6ae",
"`u c #001f00",
"`v c #024002",
"`w c #9da89d",
"`x c #024202",
"`y c #235223",
"`z c #003f00",
"`A c #004100",
"`B c #012901",
"`C c #253c25",
"`D c #2a462a",
"`E c #215a21",
"`F c #448544",
"`G c #6bb36b",
"`H c #3b803b",
"`I c #002100",
"`J c #023f02",
"`K c #113d11",
"`L c #014201",
"`M c #466646",
"`N c #003a00",
"`O c #003e00",
"`P c #465946",
"`Q c #748e74",
"`R c #8d9f8d",
"`S c #9ea69e",
"`T c #1f411f",
"`U c #397e39",
"`V c #4c944c",
"`W c #4b7f4b",
"`X c #013d01",
"`Y c #afb0af",
"`Z c #003600",
"`0 c #465e46",
"`1 c #114b11",
"`2 c #004000",
"`3 c #4f764f",
"`4 c #9a9d9a",
"`5 c #114a11",
"`6 c #246824",
"`7 c #1a631a",
"`8 c #7b947b",
".` c #002300",
".. c #013f01",
".# c #9da79d",
".a c #698069",
".b c #003400",
".c c #003300",
".d c #8c938c",
".e c #698569",
".f c #003d00",
".g c #295d29",
".h c #064806",
".i c #0c4e0c",
".j c #105610",
".k c #6a8a6a",
".l c #002500",
".m c #466246",
".n c #114111",
".o c #346034",
".p c #003c00",
".q c #002700",
".r c #002800",
".s c #002900",
".t c #013301",
".u c #044504",
".v c #054805",
".w c #356635",
".x c #002200",
".y c #113911",
".z c #345434",
".A c #003100",
".B c #003200",
".C c #345f34",
".D c #003b00",
".E c #9da49d",
".F c #355a35",
".G c #235723",
".H c #002400",
".I c #113a11",
".J c #465f46",
".K c #002d00",
".L c #114011",
".M c #698369",
".N c #114811",
".O c #466946",
".P c #004300",
".Q c #697569",
".R c #003000",
".S c #003900",
".T c #466846",
".U c #577457",
".V c #002000",
".W c #344e34",
".X c #002c00",
".Y c #113f11",
".Z c #9da09d",
".0 c #697769",
".1 c #8c988c",
".2 c #466746",
".3 c #234f23",
".4 c #7a847a",
".5 c #113411",
".6 c #113c11",
".7 c #577357",
".8 c #7a8d7a",
"#` c #577557",
"#. c #234b23",
"## c #003500",
"#a c #9da69d",
"#b c #7a887a",
"#c c #113311",
"#d c #002600",
"#e c #002f00",
"#f c #002e00",
"#g c #7b897b",
"#h c #001e00",
"#i c #576657",
"#j c #234423",
"#k c #697669",
"#l c #8c918c",
"#m c #466046",
"#n c #465d46",
"#o c #466146",
"#p c #234a23",
"#q c #466546",
"#r c #697969",
"#s c #7a817a",
"#t c #345234",
"#u c #344f34",
"#v c #003700",
"#w c #466446",
"#x c #697269",
"#y c #001400",
"#z c #001a00",
"#A c #002a00",
"#B c #002b00",
"#C c #697469",
"#D c #9da19d",
"#E c #112d11",
"#F c #001900",
"#G c #001c00",
"#H c #576a57",
"#I c #233323",
"#J c #001700",
"#K c #344534",
"#L c #001b00",
"#M c #001600",
"#N c #697369",
"#O c #112811",
"#P c #465c46",
"#Q c #112311",
"#R c #233e23",
"#S c #8c9b8c",
"#T c #466a46",
"#U c #345d34",
"#V c #235123",
"#W c #004900",
"#X c #344234",
"#Y c #001500",
"#Z c #7a857a",
"#0 c #8c948c",
"#1 c #697869",
"#2 c #112611",
"#3 c #233423",
"#4 c #113211",
"#5 c #344334",
"#6 c #234123",
"#7 c #576357",
"#8 c #234323",
"a` c #001800",
"a. c #112711",
"a# c #113511",
"aa c #465446",
"ab c #afb2af",
"ac c #8c968c",
"ad c #9da29d",
"ae c #344434",
"af c #7a827a",
"ag c #697a69",
"ah c #7a897a",
"ai c #000000",
"aj c #000000",
"ak c #000000",
"al c #000000",
"am c #000000",
"an c #000000",
"ao c #000000",
"ap c #000000",
"aq c #000000",
"ar c #000000",
"as c #000000",
"at c #000000",
"au c #000000",
"av c #000000",
"aw c #000000",
"ax c #000000",
"ay c #000000",
"az c #000000",
"aA c #000000",
"aB c #000000",
"aC c #000000",
"aD c #000000",
"aE c #000000",
"aF c #000000",
"aG c #000000",
"aH c #000000",
"aI c #000000",
"aJ c #000000",
"aK c #000000",
"aL c #000000",
"aM c #000000",
"aN c #000000",
"aO c #000000",
"aP c #000000",
"aQ c #000000",
"aR c #000000",
"aS c #000000",
"aT c #000000",
"aU c #000000",
"aV c #000000",
"aW c #000000",
"aX c #000000",
"aY c #000000",
"aZ c #000000",
"a0 c #000000",
"a1 c #000000",
"a2 c #000000",
"a3 c #000000",
"a4 c #000000",
"a5 c #000000",
"a6 c #000000",
"a7 c #000000",
"a8 c #000000",
/* pixels */
"`.`.`.`.`.`.`.`.`.`.`.`.`.`.`.`.`.`.`.`.`.`.`.`.`.`.`.`.`.`.`.`.",
"`.`.`.`.`.`.`#`.`.`.`.`.`.`a`b`c`d`e`f`.`.`.`.`.`.`g`h`.`.`.`.`.",
"`.`.`.`.`.`i`j`k`.`.`.`.`l`m`n`o`p`q`r`s`t`.`.`.`.`u`v`w`.`.`.`.",
"`.`.`.`.`.`i`x`k`.`.`g`y`z`A`B`C`D`E`F`G`H`t`.`.`.`I`J`w`.`.`.`.",
"`.`.`.`.`.`K`L`k`.`.`M`N`O`P`.`Q`R`S`T`U`V`W`.`.`.`u`X`w`.`.`.`.",
"`.`.`.`.`.`i`L`k`.`Y`Z`N`0`a`1`2`x`3`4`5`6`7`8`.`..`..`w`.`.`.`.",
"`.`.`.`.`.`K`A.#`..a.b.c.d.e.f`O`2`L.g.h.i.j.k`.`..l`X`w`.`.`.`.",
"`.`.`.`.`.`i`A`k`..m.c.n`..o.p.f.q.r.s.t.u.v.w`.`..x`O`w`.`.`.`.",
"`.`.`.`.`..y`A`k`..z.A.B`..C.D.p`k.E`Y.F`2`A.G`.`..H`O`w`.`.`.`.",
"`.`.`.`.`..I`A.#`..J.K.L`g.M`N.D.D.N`..O`O`O`y`.`..x.f`w`.`.`.`.",
"`.`.`.`.`..I.P.#`..Q.s.R.#`..I.S`N.J`..T.p.D.U`.`..V.p`k`.`.`.`.",
"`.`.`.`.`.`K`2`k`.`..W.X.Y`k.Z.0.1`.`..2.S.3`.`.`..V`O`w`.`.`.`.",
"`.`.`.`.`.`i`2.#`.`..4.5.X.6.7.8#`.3.T#.###a`.`.`..V.p`w`.`.`.`.",
"`.`.`.`.`..y`A`k`.`.`.#b#c#d.s.X.f.R#e#f#g`.`.`.`.#h.p`w`.`.`.`.",
"`.`.`.`.`..y`m.#`.`.`.`.`.#i.W.r`2#j#k`.`.`.`.`.`..V.f`w`.`.`.`.",
"`.`.`.`.`..y`m.#`.`.`.`.`.`.`..x`2`g`.`.`.`.`.`.`.#h.f`k`.`.`.`.",
"`.`.`.`.`.`K`m.#`.`.`.`.`.`.`..x`z`g`.`.`.`.`.`.`.`u.f`k`.`.`.`.",
"`.#l#m#n#o.b`N#p#q.T#r`.`.`.`..H`m`g`.`.`.#s#n#t#u#d#v#w#q#w#r`.",
"`.#x#y#z.x.q#A#B#e.c#C`.`.`.`.#A`m`g`.`.`.#D#E.l#F#G`I#d.r.r#H`.",
"`.`.#I#J`u.q#A#B.R#j`.`.`.`.`..l`2`g`.`.`.`.#K`u#L#L.x#d.r#c`.`.",
"`.`.#s#M#G#d#A#B.q#N`.`.`.`.`..H`m`g`.`.`.`.#D#O#F#G.x.q.r#P`.`.",
"`.`.`.#Q#z.H#A#A#R`.`.#S#T#U#V#v#W`y#V#T#S`.`.#X#F#L.x.r.5`.`.`.",
"`.`.`.#l#Y.x#A.s#Z`.`.#0#L#h.x#e.D#e.s#B#1`.`.#D#2#z.`.r#r`.`.`.",
"`.`.`.`.#3#h#A#4`.`.`.`.#5#M#z.x#d.s.s#6`.`.`.`.#7#F.`#8`.`.`.`.",
"`.`.`.`.#D#E.s#Z`.`.`.`.#s#ya`.V#d.s.r#1`.`.`.`.#Da..H#b`.`.`.`.",
"`.`.`.`.`.`Pa#`.`.`.`.`.`.#5#J`u.q.s#6`.`.`.`.`.`.aa#6`.`.`.`.`.",
"`.`.`.`.`.abac`.`.`.`.`.`.#s#Y`u.q.s#1`.`.`.`.`.`.ad.E`.`.`.`.`.",
"`.`.`.`.`.`.`.`.`.`.`.`.`.`.ae#z.q#d`.`.`.`.`.`.`.`.`.`.`.`.`.`.",
"`.`.`.`.`.`.`.`.`.`.`.`.`.`.afa`#dag`.`.`.`.`.`.`.`.`.`.`.`.`.`.",
"`.`.`.`.`.`.`.`.`.`.`.`.`.`.`.#O#8`.`.`.`.`.`.`.`.`.`.`.`.`.`.`.",
"`.`.`.`.`.`.`.`.`.`.`.`.`.`.`..4ah`.`.`.`.`.`.`.`.`.`.`.`.`.`.`.",
"`.`.`.`.`.`.`.`.`.`.`.`.`.`.`.`.`.`.`.`.`.`.`.`.`.`.`.`.`.`.`.`."
};
