/* XPM */
static char *halfradius_xpm[] = {
/* width height num_colors chars_per_pixel */
"    20    20      256            2",
/* colors */
"`` c #ffffff",
"`. c #333333",
"`# c #c7c5c6",
"`a c #c9c7c7",
"`b c #cbcbcb",
"`c c #cccbcb",
"`d c #cbcaca",
"`e c #cac9c9",
"`f c #c9c7c8",
"`g c #c8c6c7",
"`h c #d38d8d",
"`i c #d1a8a8",
"`j c #cecfce",
"`k c #cecdcc",
"`l c #cdcbca",
"`m c #cbc9c9",
"`n c #c9c8c8",
"`o c #cccccc",
"`p c #d76868",
"`q c #e10505",
"`r c #d48a8a",
"`s c #cfd0cf",
"`t c #d0d0ce",
"`u c #cfcdcc",
"`v c #cdcccc",
"`w c #cecccc",
"`x c #d0cecc",
"`y c #c8c7c7",
"`z c #d0acac",
"`A c #d57777",
"`B c #df1818",
"`C c #da4848",
"`D c #cfc1c1",
"`E c #d2d2d1",
"`F c #d2d1cf",
"`G c #d3d1cf",
"`H c #d1d1d0",
"`I c #cec0c0",
"`J c #cfcfcd",
"`K c #d1d2d0",
"`L c #cec5c5",
"`M c #d95353",
"`N c #e01816",
"`O c #d97977",
"`P c #d4d5d3",
"`Q c #d67070",
"`R c #df1313",
"`S c #d0cecd",
"`T c #d5d4d1",
"`U c #d7d6d3",
"`V c #d3d3d1",
"`W c #d58685",
"`X c #e21813",
"`Y c #d4d6d4",
"`Z c #cdcfcf",
"`0 c #e00606",
"`1 c #d48383",
"`2 c #d4d2d1",
"`3 c #d29797",
"`4 c #e11413",
"`5 c #de413d",
"`6 c #d5d5d4",
"`7 c #cfd0d0",
"`8 c #dc3333",
".` c #e00f0f",
".. c #d95757",
".# c #df1212",
".a c #d39897",
".b c #d0d2d1",
".c c #d29696",
".d c #d66f6f",
".e c #e10000",
".f c #d94f4f",
".g c #cec6c6",
".h c #d0d1cf",
".i c #d1cfcd",
".j c #cfcecc",
".k c #d1cfce",
".l c #d0d0cf",
".m c #cbcccc",
".n c #d67272",
".o c #d48484",
".p c #cfcecd",
".q c #cdcccb",
".r c #cccaca",
".s c #cac8c9",
".t c #cac8c8",
".u c #acb1b7",
".v c #88a1b8",
".w c #90a2b5",
".x c #bcbcbe",
".y c #c6c4c6",
".z c #969ea6",
".A c #3067a9",
".B c #2981dd",
".C c #2b7ed0",
".D c #4f749e",
".E c #b5b6b7",
".F c #c5c3c5",
".G c #c6c4c5",
".H c #9fa2a7",
".I c #265790",
".J c #1d6bd9",
".K c #308de8",
".L c #3396e9",
".M c #1c6cc6",
".N c #47678a",
".O c #b9b9ba",
".P c #c4c2c4",
".Q c #b2b3b7",
".R c #2b537e",
".S c #175cb8",
".T c #2275df",
".U c #369ae7",
".V c #43a7eb",
".W c #2985de",
".X c #1558a7",
".Y c #566b83",
".Z c #c0bfc1",
".0 c #b2b4b7",
".1 c #425e79",
".2 c #15529f",
".3 c #226ccf",
".4 c #2380e3",
".5 c #38a0e7",
".6 c #50b2eb",
".7 c #3492e2",
".8 c #206fc5",
"#` c #1b5495",
"#. c #6d7d8c",
"## c #bdbdbf",
"#a c #c1c0c2",
"#b c #9fa3a9",
"#c c #395672",
"#d c #195291",
"#e c #1c63bb",
"#f c #2272d8",
"#g c #2588e4",
"#h c #3aa1e6",
"#i c #59b7eb",
"#j c #3a9fe7",
"#k c #2481d5",
"#l c #1f6bb8",
"#m c #1b5189",
"#n c #556d80",
"#o c #7c8a98",
"#p c #98a1ad",
"#q c #b4b7bc",
"#r c #516a85",
"#s c #20446a",
"#t c #154b87",
"#u c #1a5fb0",
"#v c #206ecc",
"#w c #237de1",
"#x c #258ae3",
"#y c #38a1e6",
"#z c #56b7eb",
"#A c #3fa5e9",
"#B c #288fdf",
"#C c #257dcf",
"#D c #1e65af",
"#E c #154c87",
"#F c #123d67",
"#G c #153f69",
"#H c #000000",
"#I c #000000",
"#J c #000000",
"#K c #000000",
"#L c #000000",
"#M c #000000",
"#N c #000000",
"#O c #000000",
"#P c #000000",
"#Q c #000000",
"#R c #000000",
"#S c #000000",
"#T c #000000",
"#U c #000000",
"#V c #000000",
"#W c #000000",
"#X c #000000",
"#Y c #000000",
"#Z c #000000",
"#0 c #000000",
"#1 c #000000",
"#2 c #000000",
"#3 c #000000",
"#4 c #000000",
"#5 c #000000",
"#6 c #000000",
"#7 c #000000",
"#8 c #000000",
"a` c #000000",
"a. c #000000",
"a# c #000000",
"aa c #000000",
"ab c #000000",
"ac c #000000",
"ad c #000000",
"ae c #000000",
"af c #000000",
"ag c #000000",
"ah c #000000",
"ai c #000000",
"aj c #000000",
"ak c #000000",
"al c #000000",
"am c #000000",
"an c #000000",
"ao c #000000",
"ap c #000000",
"aq c #000000",
"ar c #000000",
"as c #000000",
"at c #000000",
"au c #000000",
"av c #000000",
"aw c #000000",
"ax c #000000",
"ay c #000000",
"az c #000000",
"aA c #000000",
"aB c #000000",
"aC c #000000",
"aD c #000000",
"aE c #000000",
"aF c #000000",
"aG c #000000",
"aH c #000000",
"aI c #000000",
"aJ c #000000",
"aK c #000000",
"aL c #000000",
"aM c #000000",
"aN c #000000",
"aO c #000000",
"aP c #000000",
"aQ c #000000",
"aR c #000000",
"aS c #000000",
"aT c #000000",
"aU c #000000",
"aV c #000000",
"aW c #000000",
"aX c #000000",
"aY c #000000",
"aZ c #000000",
"a0 c #000000",
"a1 c #000000",
"a2 c #000000",
"a3 c #000000",
"a4 c #000000",
"a5 c #000000",
"a6 c #000000",
"a7 c #000000",
"a8 c #000000",
/* pixels */
"```````````````````````````````````````.",
"```#`a`b`c`d`e`f`#`#`#`#`f`e`d`c`b`a`.`.",
"```g`b`h`i`j`k`l`m`n`f`m`l`k`j`i`h`b`.`.",
"```a`o`p`q`r`s`t`u`v`w`x`t`s`r`q`p`o`.`.",
"```y`c`z`A`B`C`D`E`F`G`H`I`C`B`A`z`c`.`.",
"```g`d`J`K`L`M`N`O`P`K`Q`R`M`L`K`J`d`.`.",
"```g`m`S`T`U`V`W`X`Y`Z`0`1`V`U`T`S`m`.`.",
"```g`m`S`2`E`3`4`5`6`7`8.``3`E`2`S`m`.`.",
"```g`m`j`I...#.a.b`V`H`s.c.#..`I`j`m`.`.",
"```y`o.d.e.f.g.h.i`u.j.k.l.g.f.e.d`o`.`.",
"```g.m.n.o`j.p.q.r`e.s.r.q.p`j.o.n.m`.`.",
"```#`f`o`o.r`m.t.u.v.w.x.t`m.r`o`o`f`.`.",
"``.y`#`y`f`a`g.z.A.B.C.D.E`g`a`f`y`#`.`.",
"``.F.G.y.y.F.H.I.J.K.L.M.N.O.y.y.y.G`.`.",
"``.P.P.P.P.Q.R.S.T.U.V.W.X.Y.Z.P.P.P`.`.",
"``.P.P.P.0.1.2.3.4.5.6.7.8#`#.##.P.P`.`.",
"``.P#a#b#c#d#e#f#g#h#i#j#k#l#m#n#o#p`.`.",
"``#q#r#s#t#u#v#w#x#y#z#A#B#C#D#E#F#G`.`.",
"```.`.`.`.`.`.`.`.`.`.`.`.`.`.`.`.`.`.`.",
"`.`.`.`.`.`.`.`.`.`.`.`.`.`.`.`.`.`.`.`."
};
