/* XPM */
static char *laminaface_xpm[] = {
/* width height num_colors chars_per_pixel */
"    32    32      256            2",
/* colors */
"`` c #0c0e6c",
"`. c #0c76cc",
"`# c #00429c",
"`a c #747674",
"`b c #002e7c",
"`c c #4c4a54",
"`d c #acaaa4",
"`e c #849274",
"`f c #24326c",
"`g c #547a8c",
"`h c #8c725c",
"`i c #5c5e64",
"`j c #0c5eac",
"`k c #0c1e7c",
"`l c #44425c",
"`m c #7476a4",
"`n c #3c9adc",
"`o c #0c368c",
"`p c #c4c6c4",
"`q c #8c92ac",
"`r c #4c4a8c",
"`s c #0052ac",
"`t c #242a8c",
"`u c #646264",
"`v c #8c866c",
"`w c #1c2664",
"`x c #0c167c",
"`y c #5c9acc",
"`z c #bcbab4",
"`A c #1c8ad4",
"`B c #9c9a8c",
"`C c #4c5e9c",
"`D c #4ca2dc",
"`E c #143684",
"`F c #0c267c",
"`G c #243a94",
"`H c #1c1a84",
"`I c #004aa4",
"`J c #8c7a5c",
"`K c #1c2a64",
"`L c #54565c",
"`M c #3c76b4",
"`N c #8c8a8c",
"`O c #4c9ad4",
"`P c #9c9e9c",
"`Q c #0c1a84",
"`R c #2c7abc",
"`S c #0c1e84",
"`T c #2c4a94",
"`U c #003e94",
"`V c #545684",
"`W c #3c3a7c",
"`X c #849e7c",
"`Y c #3466a4",
"`Z c #d4d2cc",
"`0 c #2456a4",
"`1 c #c4c2bc",
"`2 c #3c86c4",
"`3 c #9c9eb4",
"`4 c #343e84",
"`5 c #0c82d4",
"`6 c #0c2a8c",
"`7 c #b4b2ac",
"`8 c #3c3a64",
".` c #5c6e7c",
".. c #848e6c",
".# c #5c526c",
".a c #94928c",
".b c #0c72c4",
".c c #7c82ac",
".d c #1452ac",
".e c #6462a4",
".f c #1c1e7c",
".g c #14127c",
".h c #bcbac4",
".i c #5c6a9c",
".j c #0c4aa4",
".k c #848284",
".l c #549ad4",
".m c #141e84",
".n c #444a84",
".o c #5c5a94",
".p c #14166c",
".q c #14429c",
".r c #7c7e74",
".s c #4c4a74",
".t c #343254",
".u c #5c6674",
".v c #449edc",
".w c #0c369c",
".x c #cccecc",
".y c #005ab4",
".z c #348ed4",
".A c #a4a294",
".B c #8c826c",
".C c #5c5a64",
".D c #848aac",
".E c #141a7c",
".F c #2c529c",
".G c #0c3e94",
".H c #34368c",
".I c #448ac4",
".J c #a4a6b4",
".K c #14167c",
".L c #147ac4",
".M c #0c46a4",
".N c #003284",
".O c #4c4e5c",
".P c #acaabc",
".Q c #849a7c",
".R c #0c62bc",
".S c #142274",
".T c #44465c",
".U c #7c7a9c",
".V c #4496cc",
".W c #0c3a94",
".X c #cccac4",
".Y c #4c529c",
".Z c #0056ac",
".0 c #6c6a6c",
".1 c #848684",
".2 c #242664",
".3 c #64aedc",
".4 c #bcbebc",
".5 c #9c9e8c",
".6 c #54669c",
".7 c #143e94",
".8 c #004ea4",
"#` c #8c7e64",
"#. c #14327c",
"## c #3486c4",
"#a c #6c6ea4",
"#b c #4c5a9c",
"#c c #1c86d4",
"#d c #a4a69c",
"#e c #1c72bc",
"#f c #007ed4",
"#g c #3c7ebc",
"#h c #dcdad4",
"#i c #242684",
"#j c #8c8e84",
"#k c #2c2e5c",
"#l c #1c3a94",
"#m c #4482bc",
"#n c #1c1a64",
"#o c #548294",
"#p c #0c328c",
"#q c #3496dc",
"#r c #3c3e8c",
"#s c #7c7a7c",
"#t c #0c2a74",
"#u c #2c2e84",
"#v c #8c8ea4",
"#w c #3c3a8c",
"#x c #6cb2e4",
"#y c #5c6274",
"#z c #248ed4",
"#A c #54a6dc",
"#B c #1486d4",
"#C c #242274",
"#D c #9492a4",
"#E c #142674",
"#F c #4476b4",
"#G c #9c9eac",
"#H c #3c66a4",
"#I c #b4b2bc",
"#J c #8c8e6c",
"#K c #8482ac",
"#L c #343264",
"#M c #14328c",
"#N c #0046a4",
"#O c #4c9edc",
"#P c #0c2284",
"#Q c #2c4e9c",
"#R c #84a284",
"#S c #d4d6d4",
"#T c #5c6ea4",
"#U c #549ed4",
"#V c #acaeb4",
"#W c #849674",
"#X c #0c227c",
"#Y c #4c4e8c",
"#Z c #8c8a6c",
"#0 c #245aa4",
"#1 c #3c3e64",
"#2 c #94968c",
"#3 c #bcbec4",
"#4 c #0c4ea4",
"#5 c #4c4a5c",
"#6 c #0c5eb4",
"#7 c #444264",
"#8 c #0c3694",
"a` c #64626c",
"a. c #bcbabc",
"a# c #9c9a94",
"aa c #8c7a64",
"ab c #545664",
"ac c #0c1a8c",
"ad c #0c1e8c",
"ae c #003e9c",
"af c #c4c2c4",
"ag c #3c86cc",
"ah c #9c9ebc",
"ai c #0c2a94",
"aj c #b4b2b4",
"ak c #5c6e84",
"al c #141284",
"am c #141e8c",
"an c #5c5a9c",
"ao c #141674",
"ap c #7c7e7c",
"aq c #5c667c",
"ar c #5c5a6c",
"as c #141a84",
"at c #2c52a4",
"au c #0c3e9c",
"av c #a4a6bc",
"aw c #141684",
"ax c #7c7aa4",
"ay c #4496d4",
"az c #cccacc",
"aA c #0056b4",
"aB c #5466a4",
"aC c #004eac",
"aD c #4c5aa4",
"aE c #3c3e94",
"aF c #8c8eac",
"aG c #3c3a94",
"aH c #549edc",
"aI c #000000",
"aJ c #000000",
"aK c #000000",
"aL c #000000",
"aM c #000000",
"aN c #000000",
"aO c #000000",
"aP c #000000",
"aQ c #000000",
"aR c #000000",
"aS c #000000",
"aT c #000000",
"aU c #000000",
"aV c #000000",
"aW c #000000",
"aX c #000000",
"aY c #000000",
"aZ c #000000",
"a0 c #000000",
"a1 c #000000",
"a2 c #000000",
"a3 c #000000",
"a4 c #000000",
"a5 c #000000",
"a6 c #000000",
"a7 c #000000",
"a8 c #000000",
/* pixels */
"afafafafafafafafafafafafafafafafafafafafafafafafafafafafafafafaf",
"afafafafafafafafafafafafafafafafafafafafafafafafafafafafafafafaf",
"afafafafafafafafafafafafafafafafafafafafafafafafafafafafafafafaf",
"afafafafafafafafafafafafafafafafafafafafafafafafafafafafafafafaf",
"afafafafafafafafafafafafafafafafafafafafafafafafafafafafafafafaf",
"afafafafafafafafafafafafafafafafafafafafafafafafafafafafafafafaf",
"afafafafafafafafafafafafafafafafafafafafafafafafafafafafafafafaf",
"afafafafafafafafafafafafafafafafafafafafafafafafafafafafafafafaf",
"afafafafafafafafafafafafan#a`q#I`p`p`p`p`p`pafafafafafafafafafaf",
"afafafafafafafafafaf#V#w.q.L#0`T#b#Kah.h.X.X`p`pafafafafafafafaf",
"afafafafafafafafaf#GaG.7#c#z#q`n#maD#F`CaB`m`3.P`p`p`paf#3afafaf",
"afafafafafafafaf`3#i#M`G#Qag.l#8`QaC#O#x`y#g`V.Y#Y.c.D.J`pafafaf",
"afafafafafafafaF.K`.#B`R`M#T`0adau`I.j.d#6.y.Kay#U.I#H`4.n#Kafaf",
"afafafafafaf.U.g`j#B#z`n`D.Vam.W`v#`aa`v.Z.g.w.MaH.3`D##.H.J`paf",
"afafafafaf.o.K.S.fat.z`O.Gas`k#R#R#R`X`e#Padaaak`s`#.W#X.e.X`paf",
"afafafaf.Haw.b`5#e`Y.6.i`x`S.8au.M#o#o#yac#R`e`v#``haaaoavaz`paf",
"afaf#I.H.m#f`5#B#z.v#U.K#P.B`haa.`ae#p.g#N#o#R#R#R.Q`FaE`Zaz`paf",
"af#V#C.g#4.R`5`A#q#A`t`S#R#R#W#J#`aa`Qai`UauauaA#R.u`Hax`Zaz`paf",
"afa..C#k#nao#l.F`2.E`x`g#R#R#R#R#R`Q`Q#yaa.#aq`I#p``#u#h`Z.X`paf",
"af.1`u`u`L.T.t`W`r.2#t`oauaC#o#oaral.Q#R`X`e#Z`J.N.g#v#S.x`pafaf",
"afafaf.1#s`u.0`aa``l#1`8`f#.`o`6alaC#R#R#R#R#R..``#r#h`Zaz`pafaf",
"afafafafaf`P`Nap.r#j.0ab.T#1`8.2#E#8au.M#R#R#R`b`H#v#S.x`pafafaf",
"afafafafafafaf`paj.a#2`B.k.0.O`l#1`8`w`E`oau#8.g#r#h`Z.X`pafafaf",
"afafafafafafafaf`p.X.x`7.A`B.A`a`u#5.T#1#L`K.pao#V`Z.x`pafafafaf",
"afafafafafafafafaf`p`p.Xaz`p#d`B`B.A`a`i`c#7.s#D#S.x.X`pafafafaf",
"afafafafafafafafafafaf`p`p.X.X.x`z#d.5`Bap`aaj`Z.x.X`pafafafafaf",
"afafafafafafafafafafafafaf`p`p`p.Xaz`1`da#.4.xaz.X`pafafafafafaf",
"afafafafafafafafafafafafafafafaf`p`p`p.X.X.X.X`p`pafafafafafafaf",
"afafafafafafafafafafafafafafafafafafaf`p`p`p`pafafafafafafafafaf",
"afafafafafafafafafafafafafafafafafafafafafafafafafafafafafafafaf",
"afafafafafafafafafafafafafafafafafafafafafafafafafafafafafafafaf",
"afafafafafafafafafafafafafafafafafafafafafafafafafafafafafafafaf"
};
