/* XPM */
static char *lessthan_xpm[] = {
/* width height num_colors chars_per_pixel */
"    20    20      256            2",
/* colors */
"`` c #ffffff",
"`. c #333333",
"`# c #c4c2c4",
"`a c #9aa5b2",
"`b c #889db3",
"`c c #bdbcbe",
"`d c #abadb2",
"`e c #2669b3",
"`f c #1f77d4",
"`g c #8794a4",
"`h c #c1c0c2",
"`i c #5d7594",
"`j c #176dd9",
"`k c #278fec",
"`l c #2965a7",
"`m c #b0b0b3",
"`n c #a3a7ac",
"`o c #18519d",
"`p c #1f7ce3",
"`q c #3aa4ef",
"`r c #1669c2",
"`s c #708093",
"`t c #546c85",
"`u c #125aba",
"`v c #2387e7",
"`w c #43aded",
"`x c #227ed6",
"`y c #255890",
"`z c #abadb1",
"`A c #7f8995",
"`B c #144b89",
"`C c #1667cf",
"`D c #248ce6",
"`E c #4bb2ec",
"`F c #2a91e2",
"`G c #135fae",
"`H c #42617e",
"`I c #828f9e",
"`J c #7d8c9d",
"`K c #123d6b",
"`L c #1258aa",
"`M c #1a73db",
"`N c #238ee6",
"`O c #48b2ec",
"`P c #309be8",
"`Q c #1b76cb",
"`R c #104b8b",
"`S c #7d8fa4",
"`T c #174779",
"`U c #104d93",
"`V c #1865c0",
"`W c #1b7be0",
"`X c #2390e5",
"`Y c #46b2ec",
"`Z c #36a5ea",
"`0 c #1e83d6",
"`1 c #1863b0",
"`2 c #114685",
"`3 c #75889f",
"`4 c #315989",
"`5 c #0d4589",
"`6 c #1256a9",
"`7 c #1b6dcb",
"`8 c #177ce2",
".` c #238fe6",
".. c #44afed",
".# c #3ba9eb",
".a c #218bdb",
".b c #186fc0",
".c c #2d63a3",
".d c #b2b5bc",
".e c #000000",
".f c #000000",
".g c #000000",
".h c #000000",
".i c #000000",
".j c #000000",
".k c #000000",
".l c #000000",
".m c #000000",
".n c #000000",
".o c #000000",
".p c #000000",
".q c #000000",
".r c #000000",
".s c #000000",
".t c #000000",
".u c #000000",
".v c #000000",
".w c #000000",
".x c #000000",
".y c #000000",
".z c #000000",
".A c #000000",
".B c #000000",
".C c #000000",
".D c #000000",
".E c #000000",
".F c #000000",
".G c #000000",
".H c #000000",
".I c #000000",
".J c #000000",
".K c #000000",
".L c #000000",
".M c #000000",
".N c #000000",
".O c #000000",
".P c #000000",
".Q c #000000",
".R c #000000",
".S c #000000",
".T c #000000",
".U c #000000",
".V c #000000",
".W c #000000",
".X c #000000",
".Y c #000000",
".Z c #000000",
".0 c #000000",
".1 c #000000",
".2 c #000000",
".3 c #000000",
".4 c #000000",
".5 c #000000",
".6 c #000000",
".7 c #000000",
".8 c #000000",
"#` c #000000",
"#. c #000000",
"## c #000000",
"#a c #000000",
"#b c #000000",
"#c c #000000",
"#d c #000000",
"#e c #000000",
"#f c #000000",
"#g c #000000",
"#h c #000000",
"#i c #000000",
"#j c #000000",
"#k c #000000",
"#l c #000000",
"#m c #000000",
"#n c #000000",
"#o c #000000",
"#p c #000000",
"#q c #000000",
"#r c #000000",
"#s c #000000",
"#t c #000000",
"#u c #000000",
"#v c #000000",
"#w c #000000",
"#x c #000000",
"#y c #000000",
"#z c #000000",
"#A c #000000",
"#B c #000000",
"#C c #000000",
"#D c #000000",
"#E c #000000",
"#F c #000000",
"#G c #000000",
"#H c #000000",
"#I c #000000",
"#J c #000000",
"#K c #000000",
"#L c #000000",
"#M c #000000",
"#N c #000000",
"#O c #000000",
"#P c #000000",
"#Q c #000000",
"#R c #000000",
"#S c #000000",
"#T c #000000",
"#U c #000000",
"#V c #000000",
"#W c #000000",
"#X c #000000",
"#Y c #000000",
"#Z c #000000",
"#0 c #000000",
"#1 c #000000",
"#2 c #000000",
"#3 c #000000",
"#4 c #000000",
"#5 c #000000",
"#6 c #000000",
"#7 c #000000",
"#8 c #000000",
"a` c #000000",
"a. c #000000",
"a# c #000000",
"aa c #000000",
"ab c #000000",
"ac c #000000",
"ad c #000000",
"ae c #000000",
"af c #000000",
"ag c #000000",
"ah c #000000",
"ai c #000000",
"aj c #000000",
"ak c #000000",
"al c #000000",
"am c #000000",
"an c #000000",
"ao c #000000",
"ap c #000000",
"aq c #000000",
"ar c #000000",
"as c #000000",
"at c #000000",
"au c #000000",
"av c #000000",
"aw c #000000",
"ax c #000000",
"ay c #000000",
"az c #000000",
"aA c #000000",
"aB c #000000",
"aC c #000000",
"aD c #000000",
"aE c #000000",
"aF c #000000",
"aG c #000000",
"aH c #000000",
"aI c #000000",
"aJ c #000000",
"aK c #000000",
"aL c #000000",
"aM c #000000",
"aN c #000000",
"aO c #000000",
"aP c #000000",
"aQ c #000000",
"aR c #000000",
"aS c #000000",
"aT c #000000",
"aU c #000000",
"aV c #000000",
"aW c #000000",
"aX c #000000",
"aY c #000000",
"aZ c #000000",
"a0 c #000000",
"a1 c #000000",
"a2 c #000000",
"a3 c #000000",
"a4 c #000000",
"a5 c #000000",
"a6 c #000000",
"a7 c #000000",
"a8 c #000000",
/* pixels */
"```````````````````````````````````````.",
"```#`#`#`#`#`#`#`#`#`#`#`#`#`#`#`#`#`.`.",
"```#`#`#`#`#`#`#`#`#`#`#`#`#`#`#`#`#`.`.",
"```#`#`#`#`#`#`#`#`#`#`#`#`#`#`#`#`#`.`.",
"```#`#`#`#`#`#`#`#`#`#`#`#`#`#`#`#`#`.`.",
"```#`#`#`#`#`#`#`#`#`#`#`#`#`#`#`#`#`.`.",
"```#`#`#`#`#`#`#`#`#`#`#`#`#`#`#`#`#`.`.",
"```#`#`#`#`#`#`#`#`#`#`#`#`#`#`#`#`#`.`.",
"```#`#`#`#`#`#`#`#`#`#`#`#`#`#`#`#`#`.`.",
"```#`#`#`#`#`#`#`a`b`c`#`#`#`#`#`#`#`.`.",
"```#`#`#`#`#`#`d`e`f`g`#`#`#`#`#`#`#`.`.",
"```#`#`#`#`#`h`i`j`k`l`m`#`#`#`#`#`#`.`.",
"```#`#`#`#`#`n`o`p`q`r`s`#`#`#`#`#`#`.`.",
"```#`#`#`#`#`t`u`v`w`x`y`z`#`#`#`#`#`.`.",
"```#`#`#`#`A`B`C`D`E`F`G`H`I`#`#`#`#`.`.",
"```#`#`#`J`K`L`M`N`O`P`Q`R`H`I`#`#`#`.`.",
"```#`#`S`T`U`V`W`X`Y`Z`0`1`2`G`3`#`#`.`.",
"```#`S`4`5`6`7`8.`...#.a.b.c`2`2.c.d`.`.",
"```.`.`.`.`.`.`.`.`.`.`.`.`.`.`.`.`.`.`.",
"`.`.`.`.`.`.`.`.`.`.`.`.`.`.`.`.`.`.`.`."
};
