/* XPM */
static char *shader_xpm[] = {
/* width height num_colors chars_per_pixel */
"    32    32        8            1",
/* colors */
"` c #262526",
". c #8d8c8d",
"# c #5c5c5d",
"a c #c3c2c3",
"b c #747374",
"c c #aba9ab",
"d c #414041",
"e c #e1e0e1",
/* pixels */
"aaaaaaaaaaaaaaaaaaaaaaaaaaaaaaaa",
"aaaaaaaaaaaacc.....caaaaaaaaaaaa",
"aaaaaaaaaacbbbb######.caaaaaaaaa",
"aaaaaaaacbbbbbbbbb###d#.aaaaaaaa",
"aaaaaac.bbb...bbbbbb##dd#caaaaaa",
"aaaaacbbb.......bbbb###dddcaaaaa",
"aaaacbb..........bbbb###dddcaaaa",
"aaaabbb...........bbb###dd`dcaaa",
"aaa.bb....ccccc...bbbb###dd`baaa",
"aacbb....cccaacc...bbb###dd``caa",
"aa.bb....caaaeac...bbb###dd``baa",
"aabbb...ccaeeeecc..bbb###dd``daa",
"ac#bb....caeeeea...bbb###dd```ca",
"ac#bb....cceeeac..bbb####dd```.a",
"a.#bbb....ccaacc..bbb###ddd```.a",
"a.#bbbb....cccc..bbb####ddd```ba",
"a.##bbbb........bbb####dddd```ba",
"a.##bbbbbb.....bbbb####dddd```.a",
"a.###bbbbbbbbbbbbb####dddd````.a",
"acd###bbbbbbbbbb#####ddddd````ca",
"aa#d#####bbbbb######ddddd````daa",
"aa.dd##############ddddd`````.aa",
"aacddd###########dddddd`````dcaa",
"aaa.dddd#######ddddddd``````baaa",
"aaaa#ddddddddddddddd```````#aaaa",
"aaaacd`ddddddddddd````````dcaaaa",
"aaaaacd```ddddd``````````dcaaaaa",
"aaaaaacd````````````````dcaaaaaa",
"aaaaaaaab``````````````baaaaaaaa",
"aaaaaaaaac.d````````d.caaaaaaaaa",
"aaaaaaaaaaaac.b##b.caaaaaaaaaaaa",
"aaaaaaaaaaaaaaaaaaaaaaaaaaaaaaaa"
};
