/* XPM */
static char *makerigid_xpm[] = {
/* width height num_colors chars_per_pixel */
"    32    32      256            2",
/* colors */
"`` c #00fe00",
"`. c #c1c1c1",
"`# c #a9a9a9",
"`a c #939393",
"`b c #bbbbbb",
"`c c #393939",
"`d c #7d7d7d",
"`e c #b3b3b3",
"`f c #aaaaaa",
"`g c #b6b6b6",
"`h c #3d3d3d",
"`i c #585858",
"`j c #7a7a7a",
"`k c #868686",
"`l c #a1a1a1",
"`m c #565656",
"`n c #a8a8a8",
"`o c #a3a3a3",
"`p c #838383",
"`q c #9e9d9d",
"`r c #bababa",
"`s c #a0a0a0",
"`t c #b8b8b8",
"`u c #b0b0b0",
"`v c #666666",
"`w c #a7a6a6",
"`x c #b1b1b1",
"`y c #bebebe",
"`z c #aeaeae",
"`A c #3c3c3c",
"`B c #737373",
"`C c #9a9a9a",
"`D c #6d6d6d",
"`E c #8d8d8d",
"`F c #b2b2b2",
"`G c #b5b5b5",
"`H c #555555",
"`I c #717171",
"`J c #917a7a",
"`K c #be9898",
"`L c #b34f4f",
"`M c #333333",
"`N c #696969",
"`O c #a4a4a4",
"`P c #d9d9d9",
"`Q c #b7b7b7",
"`R c #bdbdbd",
"`S c #4e4e4e",
"`T c #767777",
"`U c #311818",
"`V c #4f0d0d",
"`W c #700505",
"`X c #880303",
"`Y c #920000",
"`Z c #901313",
"`0 c #515151",
"`1 c #2e2e2e",
"`2 c #535353",
"`3 c #808080",
"`4 c #b9b9b9",
"`5 c #ababab",
"`6 c #464646",
"`7 c #8a8a8a",
"`8 c #a4a3a3",
".` c #3f2525",
".. c #3d0b0b",
".# c #744242",
".a c #885555",
".b c #b19b9b",
".c c #969696",
".d c #292929",
".e c #606060",
".f c #919191",
".g c #a2a2a2",
".h c #424242",
".i c #5e5e5e",
".j c #838484",
".k c #525252",
".l c #757575",
".m c #909090",
".n c #9ea0a2",
".o c #362e2e",
".p c #676767",
".q c #626262",
".r c #484848",
".s c #515c63",
".t c #62686e",
".u c #942e2e",
".v c #362525",
".w c #7c7d81",
".x c #311414",
".y c #5d5151",
".z c #575757",
".A c #836969",
".B c #363636",
".C c #be7575",
".D c #970101",
".E c #4e2f2f",
".F c #413333",
".G c #1c0000",
".H c #736b6b",
".I c #c5c5c5",
".J c #6f3737",
".K c #3f3f3f",
".L c #9e8181",
".M c #a03838",
".N c #9a0505",
".O c #3c3737",
".P c #2c0000",
".Q c #511919",
".R c #786868",
".S c #703131",
".T c #cbcbcb",
".U c #5a5a5a",
".V c #6a6a6a",
".W c #241e1e",
".X c #4b2020",
".Y c #720000",
".Z c #7d0000",
".0 c #290808",
".1 c #390000",
".2 c #530d0d",
".3 c #4b0508",
".4 c #797979",
".5 c #727272",
".6 c #2a0000",
".7 c #450000",
".8 c #5e0000",
"#` c #783838",
"#. c #978b8b",
"## c #272727",
"#a c #2f2828",
"#b c #400000",
"#c c #571422",
"#d c #5b0f19",
"#e c #381919",
"#f c #420808",
"#g c #757173",
"#h c #818181",
"#i c #5d6367",
"#j c #a3a0a0",
"#k c #41373b",
"#l c #422d2f",
"#m c #483645",
"#n c #504256",
"#o c #320909",
"#p c #646464",
"#q c #323232",
"#r c #3f4143",
"#s c #465967",
"#t c #4b6271",
"#u c #3a4349",
"#v c #313a41",
"#w c #2b404e",
"#x c #4f4343",
"#y c #4a4a4a",
"#z c #313131",
"#A c #424c53",
"#B c #475762",
"#C c #1f435c",
"#D c #074a79",
"#E c #005c9d",
"#F c #006bb6",
"#G c #0074c6",
"#H c #176195",
"#I c #344048",
"#J c #143751",
"#K c #00497d",
"#L c #005b9a",
"#M c #006dba",
"#N c #0079ce",
"#O c #0085e3",
"#P c #008bed",
"#Q c #0b7bca",
"#R c #8da6b8",
"#S c #393b3d",
"#T c #091f2d",
"#U c #003459",
"#V c #004e84",
"#W c #0064ab",
"#X c #0072c2",
"#Y c #0281da",
"#Z c #048ff0",
"#0 c #0498fd",
"#1 c #0098ff",
"#2 c #34a0e9",
"#3 c #afbcc4",
"#4 c #505050",
"#5 c #001d31",
"#6 c #003a63",
"#7 c #00548f",
"#8 c #0065ac",
"a` c #0075c8",
"a. c #2fc4ff",
"a# c #08a4ff",
"aa c #009dff",
"ab c #69abd9",
"ac c #494949",
"ad c #162027",
"ae c #003e6a",
"af c #00528c",
"ag c #1194eb",
"ah c #50dbff",
"ai c #4ee4ff",
"aj c #0facff",
"ak c #34a4ed",
"al c #07151e",
"am c #003b64",
"an c #005089",
"ao c #0061a5",
"ap c #16a1f7",
"aq c #059fff",
"ar c #0096fb",
"as c #091924",
"at c #00192b",
"au c #008ff3",
"av c #0095fc",
"aw c #0093f8",
"ax c #1c272e",
"ay c #001b2e",
"az c #002946",
"aA c #004170",
"aB c #005692",
"aC c #007ed7",
"aD c #0087e5",
"aE c #008ff4",
"aF c #303436",
"aG c #00233b",
"aH c #0069b3",
"aI c #4695cc",
"aJ c #1c2e3a",
"aK c #002c4b",
"aL c #003c67",
"aM c #005fa1",
"aN c #afb8bf",
"aO c #003052",
"aP c #1169a7",
"aQ c #afb7bd",
"aR c #30373c",
"aS c #1c3342",
"aT c #103854",
"aU c #14496e",
"aV c #698aa1",
"aW c #000000",
"aX c #000000",
"aY c #000000",
"aZ c #000000",
"a0 c #000000",
"a1 c #000000",
"a2 c #000000",
"a3 c #000000",
"a4 c #000000",
"a5 c #000000",
"a6 c #000000",
"a7 c #000000",
"a8 c #000000",
/* pixels */
"`.`.`.`.`.`.`.`.`.`.`.`.`.`.`.`.`.`.`.`.`.`.`.`.`.`.`.`.`.`.`.`.",
"`.`.`.`.`.`.`.`.`.`.`#`a`b`.`.`.`.`.`.`.`.`.`.`.`.`.`.`.`.`.`.`.",
"`.`.`.`.`.`.`.`.`.`.`c`d`e`f`g`.`.`.`.`.`.`.`.`.`.`.`.`.`.`.`.`.",
"`.`.`.`.`.`.`.`.`.`e`h`i`j`k`.`.`.`.`.`.`.`.`.`.`.`.`.`.`.`.`.`.",
"`.`.`.`.`.`.`.`.`.`.`l`m`k`n`.`.`.`.`.`.`o`p`q`r`.`.`.`.`.`.`.`.",
"`.`.`.`.`s`t`r`.`.`.`u`v`w`e`x`y`.`.`.`z`A`B`C`n`z`b`.`.`.`.`.`.",
"`.`.`e`D`E`z`F`G`.`.`H`I`J`K`L`L`.`.`.`i`M`N`O`P`Q`R`.`.`.`.`.`.",
"`.`.`S`T`o`P`e`R`.`.`U`V`W`X`Y`Z`.`.`.`0`1`2`3`4`5`u`.`.`.`.`.`.",
"`.`z`6`v`7`q`8`5`.`..`...#.a.b`w`b.c`T`h.d`A.e`d.f.g`.`.`.`.`.`.",
"`.`.`H.h.i`T.j`f`t`.`B`A`D`E`s`n.k.h`M`1`c`A`6.i.l`F`.`.`.`.`.`.",
"`.`.`..k`S.i.m`y.g`O`3`1.i`7.n.o.p.q.r.h`6`H.s.t`w`.`.`.`.`.`.`.",
"`.`.`.`..q.i`C`z`e`4.u.v`0`k.w.x.y`p`7`N.i.z`B`q.A.b`b`.`.`.`.`.",
"`.`.`.`z.B`I`7`O`O.C.D.E`A`3.F.G...H`q.I`o`q`#.J.J`.`4`.`.`G`.`.",
"`.`.`b`k.K`v`k.L.M.D.N`j.B.O.`.G.P.Q.R`s`#`z`f.S.L.L.T.U.V`w`y`.",
"`.`.`.`7.W.X`W.Y.Z`Z`Z`q`6.O`U.W.0.1.2.#.#`J.A.3.m`z.4`6.5`.`g`.",
"`.`.`.`..y.6.7.8#`#.`o`o.h`h##.d#a.x#b.3#c#d#e#f#g#h.r.B#i`a`o`.",
"`.`.`.`.#j#k.v.z.l`7.j.q.r.d##`1`M`A#l#m#n#k.o#o#k`i`d#p`h`v`t`.",
"`.`.`.`.`.`a.B`6.q`j.4.U.B##.d#q.B#r#s#t#u#v#w.o#x`O`.`.`F`e`.`.",
"`a`u`f`O`x`b`T#q#y.e`N.k#z##`1.B`A#A#B#C#D#E#F#G#H#I`q`.`.`.`.`.",
".U`N`m.q`m`j`7`S.B#y`m`h##`1`M`c#r#u#J#K#L#M#N#O#P#Q#R`.`.`.`.`.",
"`c`c`c`c`c`c`c`h#q.K#y#z.d#z`c.K#S#T#U#V#W#X#Y#Z#0#1#2#3`.`.`.`.",
".h`c`c`c`c`c`c`c`c`c.h#z`1.B`h#4`m#5#6#7#8a`#P#Pa.a#aaab`.`.`.`.",
".5ac#4.h`c`c`c`c`c`c.B`6.K.h.V.cad#5aeaf#W#Gagahaiajaaak`.`.`.`.",
"`r`w`C`7#p#p#4.h`c`c.B`A.r.z`S`cal#5amanao#X#Yapapaqaaar#3`.`.`.",
"`.`.`.`.`r`e`a`d.V.h#4`c.h`c`c`casat#U#K#E#M#N#Oauav#1aw`.`.`.`.",
"`.`.`.`.`.`.`w`q.m`k.f`d`2`c`c`caxayazaAaB#8#XaCaDaEawaw`.`.`.`.",
"`.`.`.`.`.`.`.`.`.`.`4`O.i`c`c`caFayaG#6#K#LaH#GaC#O#OaI`.`.`.`.",
"`.`.`.`.`.`.`.`.`.`.`.`..5.K`c`c`caJaGaKaLanaM#F#X#N#XaN`.`.`.`.",
"`.`.`.`.`.`.`.`.`.`.`.`.`C`i`c`c`c`caJazaOae#V#LaoaPaQ`.`.`.`.`.",
"`.`.`.`.`.`.`.`.`.`.`.`.`..g#p.h`c`c`caRaSaSaTaUaV`.`.`.`.`.`.`.",
"`.`.`.`.`.`.`.`.`.`.`.`.`.`.`g`q.4`2`6.h`h`i`E`t`.`.`.`.`.`.`.`.",
"`.`.`.`.`.`.`.`.`.`.`.`.`.`.`.`.`.`e`O`w`t`r`.`.`.`.`.`.`.`.`.`."
};
