/* XPM */
static char *mirrorjoint_xpm[] = {
/* width height num_colors chars_per_pixel */
"    32    32      256            2",
/* colors */
"`` c #00fe00",
"`. c #c1c1c1",
"`# c #8e8ea5",
"`a c #8383a5",
"`b c #9c9cb1",
"`c c #a8a8b7",
"`d c #7b7ba9",
"`e c #5757a1",
"`f c #5757a5",
"`g c #8c8cb3",
"`h c #777793",
"`i c #5e5e90",
"`j c #60609a",
"`k c #6464a1",
"`l c #60609e",
"`m c #343476",
"`n c #00007a",
"`o c #000092",
"`p c #0909a3",
"`q c #010197",
"`r c #6969a7",
"`s c #a8a8b0",
"`t c #5e5e8a",
"`u c #5e5e97",
"`v c #b8b8e1",
"`w c #7171b2",
"`x c #6a6a9d",
"`y c #b4b4ba",
"`z c #696982",
"`A c #00005e",
"`B c #2b2b9e",
"`C c #5959de",
"`D c #0d0da2",
"`E c #232390",
"`F c #afafba",
"`G c #83839a",
"`H c #5e5e8b",
"`I c #b6b6be",
"`J c #5f5f9e",
"`K c #a8a8b3",
"`L c #575775",
"`M c #020257",
"`N c #343482",
"`O c #a1a1ba",
"`P c #000083",
"`Q c #000076",
"`R c #5e5e8c",
"`S c #7575a5",
"`T c #bdbdc4",
"`U c #a8a8b8",
"`V c #5e5e9a",
"`W c #a0a0ac",
"`X c #040449",
"`Y c #232366",
"`Z c #afafb7",
"`0 c #7a7a9e",
"`1 c #00006b",
"`2 c #000060",
"`3 c #8c8c9e",
"`4 c #6a6a94",
"`5 c #5e5e96",
"`6 c #6565a9",
"`7 c #6e6ea4",
"`8 c #575787",
".` c #020254",
".. c #00004f",
".# c #000043",
".a c #00004d",
".b c #000045",
".c c #23234d",
".d c #83839f",
".e c #6a6a97",
".f c #636397",
".g c #7171ab",
".h c #5a5a98",
".i c #5e5e9b",
".j c #6a6aa0",
".k c #9d9daf",
".l c #000062",
".m c #00005d",
".n c #000048",
".o c #000033",
".p c #111137",
".q c #a0a0b4",
".r c #5c5c92",
".s c #5e5e92",
".t c #5e5e9e",
".u c #5f5faa",
".v c #a8a8ba",
".w c #53539a",
".x c #090973",
".y c #000063",
".z c #8c8c9c",
".A c #b4b4bb",
".B c #6b6b98",
".C c #5e5ea8",
".D c #8e8eb5",
".E c #292991",
".F c #1b1b8f",
".G c #34346e",
".H c #5e5e99",
".I c #6969ae",
".J c #b4b4be",
".K c #8b8baf",
".L c #16168c",
".M c #0d0d6e",
".N c #11115a",
".O c #8f8faa",
".P c #5e5e93",
".Q c #5f5fae",
".R c #9e9eba",
".S c #53539d",
".T c #09097d",
".U c #000050",
".V c #5e5e94",
".W c #5959ab",
".X c #6c6cad",
".Y c #8c8cb0",
".Z c #070792",
".0 c #030362",
".1 c #9d9dac",
".2 c #77779e",
".3 c #6767ae",
".4 c #5f5fa1",
".5 c #6060a2",
".6 c #9c9cb4",
".7 c #000096",
".8 c #0000a3",
"#` c #0303bd",
"#. c #000086",
"## c #b4b4b7",
"#a c #696987",
"#b c #9e9ed8",
"#c c #8585c8",
"#d c #575782",
"#e c #09098f",
"#f c #000094",
"#g c #3d3dc2",
"#h c #0505a0",
"#i c #5e5e88",
"#j c #bbbbc7",
"#k c #8080b7",
"#l c #1b1b66",
"#m c #07077c",
"#n c #57579f",
"#o c #01018d",
"#p c #232381",
"#q c #63639c",
"#r c #ababc4",
"#s c #6a6aa8",
"#t c #5e5ea4",
"#u c #09095e",
"#v c #57578f",
"#w c #69699f",
"#x c #00006f",
"#y c #23236f",
"#z c #b4b4b9",
"#A c #6f6f99",
"#B c #68689e",
"#C c #61619f",
"#D c #060648",
"#E c #000042",
"#F c #111151",
"#G c #00004e",
"#H c #000049",
"#I c #7373a1",
"#J c #6868a9",
"#K c #6b6ba3",
"#L c #5e5e91",
"#M c #00002b",
"#N c #000028",
"#O c #00003c",
"#P c #000058",
"#Q c #5757aa",
"#R c #a8a8b5",
"#S c #6a6aa2",
"#T c #8383a0",
"#U c #8c8c8e",
"#V c #000038",
"#W c #000095",
"#X c #23239e",
"#Y c #afafbd",
"#Z c #5e5e95",
"#0 c #6a6a9a",
"#1 c #000036",
"#2 c #00007d",
"#3 c #000034",
"#4 c #00004c",
"#5 c #000032",
"#6 c #646495",
"#7 c #23234b",
"#8 c #000031",
"a` c #6969b6",
"a. c #8c8cbc",
"a# c #6464a4",
"aa c #4949a3",
"ab c #afafb3",
"ac c #11115f",
"ad c #0000ba",
"ae c #3434b7",
"af c #8c8cb8",
"ag c #b4b4b8",
"ah c #5e5e89",
"ai c #6161a1",
"aj c #6363b3",
"ak c #7f7fa9",
"al c #040484",
"am c #0505ab",
"an c #0d0db9",
"ao c #11119a",
"ap c #8f8fa2",
"aq c #6a6a9e",
"ar c #b4b4bc",
"as c #6464a5",
"at c #5e5e98",
"au c #050568",
"av c #23238b",
"aw c #b0b0be",
"ax c #07079d",
"ay c #000082",
"az c #9d9db0",
"aA c #6b6b9c",
"aB c #5e5e9d",
"aC c #9c9caa",
"aD c #010143",
"aE c #343471",
"aF c #9d9db2",
"aG c #000073",
"aH c #8c8c9f",
"aI c #a8a8b2",
"aJ c #7878aa",
"aK c #00002c",
"aL c #23235a",
"aM c #777798",
"aN c #5e5e8e",
"aO c #636393",
"aP c #464650",
"aQ c #00001b",
"aR c #000014",
"aS c #69696e",
"aT c #000000",
"aU c #000000",
"aV c #000000",
"aW c #000000",
"aX c #000000",
"aY c #000000",
"aZ c #000000",
"a0 c #000000",
"a1 c #000000",
"a2 c #000000",
"a3 c #000000",
"a4 c #000000",
"a5 c #000000",
"a6 c #000000",
"a7 c #000000",
"a8 c #000000",
/* pixels */
"`.`.`.`.`.`.`.`.`.`.`.`.`.`.`.`.`.`.`.`.`.`.`.`.`.`.`.`.`.`.`.`.",
"`.`.`.`#`a`b`c`.`.`.`.`.`.`.`.`.`.`.`.`.`.`.`.`.`.`d`e`f`g`.`.`.",
"`.`.`h`i`j`k`l`c`.`.`.`.`.`.`.`.`.`.`.`.`.`.`.`.`m`n`o`p`q`r`.`.",
"`.`s`t`u`d`v`w`x`y`.`.`.`.`.`.`.`.`.`.`.`.`.`.`z`A`n`B`C`D`E`F`.",
"`.`G`H`x`.`I`J`u`K`.`.`.`.`.`.`.`.`.`.`.`.`.`.`L`M`N`.`O`P`Q`#`.",
"`.`G`R`S`T`U`V`u`W`.`.`.`.`.`.`.`.`.`.`.`.`.`.`.`X`Y`Z`0`1`2`3`.",
"`.`y`4`S`w`5`6`7`c`.`.`.`.`.`.`.`.`.`.`.`.`.`.`8.`...#.a.b.c`.`.",
"`.`..d.e.f.g.h.i.j`.`.`.`.`.`.`.`.`.`.`.`.`..k.l.l.m.n.o.p`.`.`.",
"`.`.`.`..q.r.s.t.u.v`.`.`.`.`.`.`.`.`.`.`.`..w.x.y..`Y.z`.`.`.`.",
"`.`.`.`..A.B.s`6.C.D`.`.`.`.`.`.`.`.`.`.`.`..E.F.....G`.`.`.`.`.",
"`.`.`.`.`..A.B.H.t.I.J`.`.`.`.`.`.`.`.`.`..K.L.M...N`.`.`.`.`.`.",
"`.`.`.`.`.`..O.P.t.Q.R`.`.`.`.`.`.`.`.`.`..S.T.U.N`Z`.`.`.`.`.`.",
"`.`.`.`.`.`.`.`a.V.W.X`b`c`.`.`.`.`.`..Y.I.Z.0.U.1`.`.`.`.`.`.`.",
"`.`.`.`.`.`.`.`..2.w.3.4.5.6`.`.`.`.`..7.8#`#.`0`.`.`.`.`.`.`.`.",
"`.`.`.`.`.`.`.###a`j.5#b#c.4`c`.`.#d#e#f#g`C#h`e`.`.`.`.`.`.`.`.",
"`.`.`.`.`.`.`.`s#i`V`.#j#k.Q`a`.`.#l#m#n`.`w#o#p`.`.`.`.`.`.`.`.",
"`.`.`.`.`.`.`.`s`t#q#r`.#s#t`#`.`.#l#u#v`.#w#x#y`.`.`.`.`.`.`.`.",
"`.`.`.`.`.`.`.#z#A#B#c#C`V.P#z`.`.`.#D#E#F#G#H#H.R`.`.`.`.`.`.`.",
"`.`.`.`.`.`..A.s#I#J#K#L`t#z`.`.`.`.`.#M#N#O#P#.#Q`.`.`.`.`.`.`.",
"`.`.`.`.`.`.#R.s#L.V#S#T#z`.`.`.`.`.`.#U`L#V#G#W#X#Y`.`.`.`.`.`.",
"`.`.`.`.`.`..2#L.P#Z#0.A`.`.`.`.`.`.`.`.`z#1#1#2.7`w`.`.`.`.`.`.",
"`.`.`.`.`.`.#L#L.P#0.A`.`.`.`.`.`.`.`.`.`.`L#3#4.7#Q`.`.`.`.`.`.",
"`.`.`.`.`..k#L.P.P.A`.`.`.`.`.`.`.`.`.`.`.`.`.#5#2.7#Y`.`.`.`.`.",
"`.`.`.`..A#6#L.s.O`.`.`.`.`.`.`.`.`.`.`.`.`.`.#7#8#oa`a.`.`.`.`.",
"`.`.`y.ea##Qaa`7`.`.`.`.`.`.`.`.`.`.`.`.`.`.`.abacad#`adaeaf`.`.",
"`.agah`5ai#bajak`.`.`.`.`.`.`.`.`.`.`.`.`.`.`..kal`qamamanao`F`.",
"`.ap`Raqar#rasat`y`.`.`.`.`.`.`.`.`.`.`.`.`.`.#aauavaw#caxayaz`.",
"`.`h`HaA`.araB`iaC`.`.`.`.`.`.`.`.`.`.`.`.`.`.`.aDaE`.aFaG.yaH`.",
"`.aI`RaJ.DaA.V#i`.`.`.`.`.`.`.`.`.`.`.`.`.`.`.`.aK#5aLaL.##3ab`.",
"`.`.aMaNaO`H#i`s`.`.`.`.`.`.`.`.`.`.`.`.`.`.`.`.aPaQaQaRaRaR`.`.",
"`.`.`..O.dap#z`.`.`.`.`.`.`.`.`.`.`.`.`.`.`.`.`.`.`.aPaS#U`.`.`.",
"`.`.`.`.`.`.`.`.`.`.`.`.`.`.`.`.`.`.`.`.`.`.`.`.`.`.`.`.`.`.`.`."
};
