/* XPM */
static char *movenormal_xpm[] = {
/* width height num_colors chars_per_pixel */
"    32    32      256            2",
/* colors */
"`` c #c1c1c1",
"`. c #c0c8c0",
"`# c #c0d0c0",
"`a c #003f00",
"`b c #a8c0a8",
"`c c #000000",
"`d c #b8d0b8",
"`e c #606060",
"`f c #b0c8b0",
"`g c #507050",
"`h c #286028",
"`i c #ffffff",
"`j c #b8c8b8",
"`k c #90a090",
"`l c #b8c0b8",
"`m c #b8c0c0",
"`n c #c0c0b8",
"`o c #b8c8c0",
"`p c #9898c8",
"`q c #c0c8b8",
"`r c #0000ff",
"`s c #b0b8c0",
"`t c #b8b8c0",
"`u c #57b33a",
"`v c #0a6800",
"`w c #7fa778",
"`x c #9090c8",
"`y c #a0a098",
"`z c #686038",
"`A c #8078a0",
"`B c #989890",
"`C c #b8b8b8",
"`D c #888070",
"`E c #988010",
"`F c #e0b000",
"`G c #a08038",
"`H c #a08000",
"`I c #887820",
"`J c #407038",
"`K c #686048",
"`L c #806000",
"`M c #d0a800",
"`N c #e8b800",
"`O c #c8a020",
"`P c #e0b008",
"`Q c #705800",
"`R c #080000",
"`S c #a0a0a0",
"`T c #706838",
"`U c #605000",
"`V c #403000",
"`W c #806800",
"`X c #b89008",
"`Y c #c8a000",
"`Z c #504000",
"`0 c #a8a8a0",
"`1 c #786838",
"`2 c #988000",
"`3 c #987800",
"`4 c #786000",
"`5 c #281800",
"`6 c #b89000",
"`7 c #c0b8b8",
"`8 c #787048",
".` c #907800",
".. c #584000",
".# c #e0a000",
".a c #f03800",
".b c #b83000",
".c c #c0a8a8",
".d c #c0b0b0",
".e c #c09898",
".f c #c08888",
".g c #686848",
".h c #887000",
".i c #584800",
".j c #d8a800",
".k c #e86000",
".l c #f81000",
".m c #f02020",
".n c #d86060",
".o c #c8a8a8",
".p c #b0a0a0",
".q c #c09090",
".r c #c88080",
".s c #c87870",
".t c #c86868",
".u c #c06060",
".v c #787870",
".w c #907000",
".x c #483800",
".y c #d8b000",
".z c #c8a820",
".A c #b0a8a0",
".B c #e05860",
".C c #f80000",
".D c #f01818",
".E c #d08080",
".F c #b8b8b0",
".G c #a08888",
".H c #a86868",
".I c #c86060",
".J c #d05858",
".K c #d84848",
".L c #d84040",
".M c #989898",
".N c #686858",
".O c #383000",
".P c #685000",
".Q c #908020",
".R c #e83838",
".S c #c8a098",
".T c #a07878",
".U c #905050",
".V c #b84040",
".W c #e03030",
".X c #e83030",
".Y c #d06060",
".Z c #484838",
".0 c #c89898",
".1 c #d87070",
".2 c #b8a8a8",
".3 c #987870",
".4 c #a02830",
".5 c #e83028",
".6 c #f02828",
".7 c #f82020",
".8 c #f81818",
"#` c #f01010",
"#. c #d85858",
"## c #b0a8a8",
"#a c #903838",
"#b c #b81818",
"#c c #f81010",
"#d c #f80808",
"#e c #e05858",
"#f c #e05050",
"#g c #a89090",
"#h c #802020",
"#i c #b00808",
"#j c #f80800",
"#k c #f03030",
"#l c #905858",
"#m c #800808",
"#n c #e80808",
"#o c #702830",
"#p c #d80000",
"#q c #c89090",
"#r c #d08078",
"#s c #b08080",
"#t c #c00808",
"#u c #d00800",
"#v c #e00800",
"#w c #f80008",
"#x c #804040",
"#y c #600808",
"#z c #680808",
"#A c #880000",
"#B c #900000",
"#C c #a00000",
"#D c #a00800",
"#E c #c80800",
"#F c #d80808",
"#G c #985858",
"#H c #a07070",
"#I c #000000",
"#J c #000000",
"#K c #000000",
"#L c #000000",
"#M c #000000",
"#N c #000000",
"#O c #000000",
"#P c #000000",
"#Q c #000000",
"#R c #000000",
"#S c #000000",
"#T c #000000",
"#U c #000000",
"#V c #000000",
"#W c #000000",
"#X c #000000",
"#Y c #000000",
"#Z c #000000",
"#0 c #000000",
"#1 c #000000",
"#2 c #000000",
"#3 c #000000",
"#4 c #000000",
"#5 c #000000",
"#6 c #000000",
"#7 c #000000",
"#8 c #000000",
"a` c #000000",
"a. c #000000",
"a# c #000000",
"aa c #000000",
"ab c #000000",
"ac c #000000",
"ad c #000000",
"ae c #000000",
"af c #000000",
"ag c #000000",
"ah c #000000",
"ai c #000000",
"aj c #000000",
"ak c #000000",
"al c #000000",
"am c #000000",
"an c #000000",
"ao c #000000",
"ap c #000000",
"aq c #000000",
"ar c #000000",
"as c #000000",
"at c #000000",
"au c #000000",
"av c #000000",
"aw c #000000",
"ax c #000000",
"ay c #000000",
"az c #000000",
"aA c #000000",
"aB c #000000",
"aC c #000000",
"aD c #000000",
"aE c #000000",
"aF c #000000",
"aG c #000000",
"aH c #000000",
"aI c #000000",
"aJ c #000000",
"aK c #000000",
"aL c #000000",
"aM c #000000",
"aN c #000000",
"aO c #000000",
"aP c #000000",
"aQ c #000000",
"aR c #000000",
"aS c #000000",
"aT c #000000",
"aU c #000000",
"aV c #000000",
"aW c #000000",
"aX c #000000",
"aY c #000000",
"aZ c #000000",
"a0 c #000000",
"a1 c #000000",
"a2 c #000000",
"a3 c #000000",
"a4 c #000000",
"a5 c #000000",
"a6 c #000000",
"a7 c #000000",
"a8 c #000000",
/* pixels */
"`````````````````````.`#`````.`.````````````````````````````````",
"`````````````````````.`#`a`b`.`.`a```````````````````c`c`c`c`c``",
"`````````````````````.`d`a`a`.`.`a`````````````````e`e`e`e`e`c``",
"`````````````````````.`f`a`g`h`.`a`````````````````e`i`i`i`e`c``",
"```````````````````````j`a`k`a`k`a`````````````g`b`e`i`i`i`e`c``",
"```````````````````````.`a`l`h`g`a```````````m`a`k`e`i`i`i`e`c``",
"```````````````````````.`a`l`j`a`a`n`````````o`h`g`e`e`e`e`e````",
"```````````````````````.`a`m`p`k`a`n```n`````q`k`a`n`l`a`k``````",
"`````````````````````````k```r`s`k```````````m`b`a`k`k`a`b``````",
"`````````````````````````````r`t`````````n```m`o`h`g`g`h````````",
"```````````````````````````n`r`s```````n`n`u`v`w`k`a`a`k````````",
"`````````````````````````m```r`x`````m`n`u`v`w`j`q`g`g``````````",
"`````````````````````````y`z`r`A`B`C`l`u`v`w````````````````````",
"`````````````````````C`D`E`F`r`G`H`I`J`v`w``````````````````````",
"`````````````````````K`L`M`N`O`P`F`Q`R`S````````````````````````",
"`````````````````````T`U`V`W`X`Y`V`Z`H`0````````````````````````",
"`````````````````````1`2`3`4`V`5`4`M`6`C````````````````````````",
"```n`7`7`````````````8`3`3.``W...#.a.b.c````````````````````````",
".d.c.e.f.d``````````.g.``3.`.h.i.j.k.l.m.n.o`````````a```````a``",
".p.q.r.s.t.u.c``````.v`Z`4.w`W.x.y.z.A.B.m.C.D.E`7`.`a```````a``",
".F.G.H.I.J.K.L.I.c````.M.N.O.P`Z.Q`7`````7.E.R.C.C.S`a```````a``",
"```C.T.U.V.L.W.X.R.Y.c`````C`e.Z`C````````````.0.1`q`a`b```b`a``",
"``````.2.3.4.5.6.7.8#`#.`7`````7.o`````````````````.`a`k```k`a``",
"``````````###a#b.8#c#c#d.X#e.d#f.D`7```````````````.`g`a`g`a`g``",
"`````````````C#g#h#i#d#d#d#j#j#j#j#k`7```````````````b`g`a`g`b``",
"`````````````````C#l#m#n#d#j#j#j#j.C#e``````````````````````````",
"````````````````````#g#o#p#j#j#j#j#j#d#q````````````````````````",
"``````````````````````#r#j#j#j#j#j#j.C.D.c``````````````````````",
"````````````````````#s#t#u#v.C#j#j.C#w#d#k`7````````````````````",
"````````````````````#g#x#x#y#z#A#B#C#D#E#F.t````````````````````",
"`````````````````````````````C.p#g.T#l#l#G#H````````````````````",
"````````````````````````````````````````````````````````````````"
};
