/* XPM */
static char *ncone_xpm[] = {
/* width height num_colors chars_per_pixel */
"    32    32      256            2",
/* colors */
"`` c #c1c1c1",
"`. c #aebbc5",
"`# c #aebdc7",
"`a c #4d90b9",
"`b c #8ec4d3",
"`c c #afb3b6",
"`d c #0062a7",
"`e c #3bace7",
"`f c #afbac2",
"`g c #57778d",
"`h c #0070be",
"`i c #2dbbfb",
"`j c #579ac9",
"`k c #afb2b5",
"`l c #00497c",
"`m c #0073c4",
"`n c #41cffc",
"`o c #2593df",
"`p c #afb9c0",
"`q c #577386",
"`r c #005794",
"`s c #007cd3",
"`t c #47d1fc",
"`u c #0d9bf3",
"`v c #7aa4c2",
"`w c #003a62",
"`x c #0063a9",
"`y c #0080d9",
"`z c #45d0fc",
"`A c #15a6f8",
"`B c #3495da",
"`C c #afb8bf",
"`D c #577081",
"`E c #004c81",
"`F c #0068b1",
"`G c #0081dc",
"`H c #3ac5fb",
"`I c #26b6fc",
"`J c #0088e7",
"`K c #8caec6",
"`L c #afb2b4",
"`M c #003356",
"`N c #005592",
"`O c #006dba",
"`P c #0080da",
"`Q c #2fbafb",
"`R c #3dcdff",
"`S c #0291f4",
"`T c #1181d0",
"`U c #afb8be",
"`V c #697b88",
"`W c #003f6b",
"`X c #005ea0",
"`Y c #0071c0",
"`Z c #0081db",
"`0 c #26b1fa",
"`1 c #50e0ff",
"`2 c #0595f6",
"`3 c #0084e1",
"`4 c #9db4c3",
"`5 c #002c4c",
"`6 c #0061a5",
"`7 c #0073c3",
"`8 c #0082dd",
".` c #24b0fa",
".. c #55e6ff",
".# c #0e9ffa",
".a c #008bec",
".b c #348fcf",
".c c #848484",
".d c #9c9c9c",
".e c #a8a8a8",
".f c #b4b4b4",
".g c #697a87",
".h c #003860",
".i c #005089",
".j c #0064ab",
".k c #0074c6",
".l c #0080db",
".m c #19a4f7",
".n c #5bebff",
".o c #1fb1fd",
".p c #0190f5",
".q c #9db3c2",
".r c #909090",
".s c #606060",
".t c #6c6c6c",
".u c #787878",
".v c #95989a",
".w c #234760",
".x c #004271",
".y c #005591",
".z c #0067af",
".A c #0075c7",
".B c #0082de",
".C c #119cf5",
".D c #51e1ff",
".E c #2bbdfe",
".F c #0393f8",
".G c #0089e8",
".H c #2383c7",
".I c #304350",
".J c #003053",
".K c #00487b",
".L c #005c9c",
".M c #006bb6",
".N c #0078cd",
".O c #0083de",
".P c #0d97f5",
".Q c #44d3ff",
".R c #38caff",
".S c #0596f9",
".T c #008df0",
".U c #007fd8",
".V c #8cacc2",
".W c #54585b",
".X c #0c2f47",
".Y c #003c66",
".Z c #004f86",
".0 c #0077cb",
".1 c #0a93f1",
".2 c #3ac9ff",
".3 c #39caff",
".4 c #0a9bfc",
".5 c #008ff3",
".6 c #0086e3",
".7 c #1179c2",
".8 c #3c4953",
"#` c #002d4d",
"#. c #004474",
"## c #0063a8",
"#a c #0070bf",
"#b c #0079ce",
"#c c #048ded",
"#d c #29b7ff",
"#e c #40d1ff",
"#f c #14a6ff",
"#g c #0091f6",
"#h c #008aeb",
"#i c #007bd2",
"#j c #8caac0",
"#k c #00385f",
"#l c #004b7f",
"#m c #005896",
"#n c #0065ac",
"#o c #0070c0",
"#p c #007acf",
"#q c #068ff0",
"#r c #27b5fe",
"#s c #18aafe",
"#t c #0293f8",
"#u c #008cef",
"#v c #0085e3",
"#w c #4690c5",
"#x c #485157",
"#y c #003d69",
"#z c #005c9d",
"#A c #0067b0",
"#B c #0072c2",
"#C c #007cd4",
"#D c #0083e0",
"#E c #038beb",
"#F c #1eacfe",
"#G c #34c4ff",
"#H c #1dafff",
"#I c #0294f9",
"#J c #008ef1",
"#K c #0087e6",
"#L c #afb9c1",
"#M c #243d4e",
"#N c #003357",
"#O c #004678",
"#P c #00548f",
"#Q c #005fa1",
"#R c #006cb7",
"#S c #0075c8",
"#T c #028bea",
"#U c #14a1fd",
"#V c #2dbdff",
"#W c #1eb0ff",
"#X c #0496fb",
"#Y c #0090f5",
"#Z c #5796c2",
"#0 c #244054",
"#1 c #003b64",
"#2 c #006cb9",
"#3 c #0077ca",
"#4 c #007dd4",
"#5 c #038ded",
"#6 c #109dfc",
"#7 c #25b5ff",
"#8 c #0799fd",
"a` c #4695cc",
"a. c #485660",
"a# c #004270",
"aa c #005088",
"ab c #005a99",
"ac c #006fbd",
"ad c #0076ca",
"ae c #007dd5",
"af c #028cec",
"ag c #0e9bfc",
"ah c #1fafff",
"ai c #1eafff",
"aj c #0a9cfe",
"ak c #0091f7",
"al c #008ef2",
"am c #0089e9",
"an c #9db5c6",
"ao c #8c8c8c",
"ap c #30556f",
"aq c #00538e",
"ar c #005ea1",
"as c #007ed6",
"at c #0084e0",
"au c #0189e9",
"av c #0894f7",
"aw c #17a6ff",
"ax c #1bacff",
"ay c #0b9eff",
"az c #0192f8",
"aA c #8cb2cd",
"aB c #959595",
"aC c #576772",
"aD c #24608b",
"aE c #007ed7",
"aF c #018aea",
"aG c #0794f6",
"aH c #12a1fe",
"aI c #17a8ff",
"aJ c #59a8e0",
"aK c #afbcc5",
"aL c #9d9d9d",
"aM c #838d94",
"aN c #4e83a8",
"aO c #3d80ae",
"aP c #3485be",
"aQ c #3495d8",
"aR c #479edb",
"aS c #50a5e0",
"aT c #68b0df",
"aU c #7cb6d9",
"aV c #000000",
"aW c #000000",
"aX c #000000",
"aY c #000000",
"aZ c #000000",
"a0 c #000000",
"a1 c #000000",
"a2 c #000000",
"a3 c #000000",
"a4 c #000000",
"a5 c #000000",
"a6 c #000000",
"a7 c #000000",
"a8 c #000000",
/* pixels */
"````````````````````````````````````````````````````````````````",
"````````````````````````````````````````````````````````````````",
"````````````````````````````````````````````````````````````````",
"```````````````````````````````.`#``````````````````````````````",
"```````````````````````````````a`b``````````````````````````````",
"`````````````````````````````c`d`e`f````````````````````````````",
"`````````````````````````````g`h`i`j````````````````````````````",
"```````````````````````````k`l`m`n`o`p``````````````````````````",
"```````````````````````````q`r`s`t`u`v``````````````````````````",
"`````````````````````````k`w`x`y`z`A`B`C````````````````````````",
"`````````````````````````D`E`F`G`H`I`J`K````````````````````````",
"```````````````````````L`M`N`O`P`Q`R`S`T`U``````````````````````",
"```````````````````````V`W`X`Y`Z`0`1`2`3`4``````````````````````",
"```````````````````````5`l`6`7`8.`...#.a.b``````````````````````",
"``````.c.d.e.f``````.g.h.i.j.k.l.m.n.o.p`Z.q````````````````````",
"``````.r.s.s.t.u.r.v.w.x.y.z.A.B.C.D.E.F.G.H````````````````````",
"````````.s.s.s.s.s.I.J.K.L.M.N.O.P.Q.R.S.T.U.V``````````````````",
"````````.u.s.s.s.W.X.Y.Z`X`O.0.O.1.2.3.4.5.6.7``````````````````",
"````````.d.s.s.s.8#`#..y###a#b`G#c#d#e#f#g#h#i#j````````````````",
"``````````.t.s.s.X#k#l#m#n#o#p`8#q#r.3#s#t#u#v#w````````````````",
"``````````.u.s#x#`#y.i#z#A#B#C#D#E#F#G#H#I#J#K#b#L``````````````",
"``````````.e.s#M#N#O#P#Q#R#S`s`3#T#U#V#W#X#Y#h`8#Z``````````````",
"````````````.u#0#1#l`r`d#2#3#4`3#5#6#7#W#8#g.T`Ja```````````````",
"````````````.da.a#aaab#nacadae`3afagahaiajakalaman``````````````",
"``````````````aoapaqar`Fac.0asatauavawaxayaz.5aA````````````````",
"````````````````aBaCaD`F#B#baEataFaGaHaIajaJaK``````````````````",
"````````````````````aLaMaNaOaPaQaRaSaTaU````````````````````````",
"````````````````````````````````````````````````````````````````",
"````````````````````````````````````````````````````````````````",
"````````````````````````````````````````````````````````````````",
"````````````````````````````````````````````````````````````````",
"````````````````````````````````````````````````````````````````"
};
