/* XPM */
static char *ncylinder_xpm[] = {
/* width height num_colors chars_per_pixel */
"    32    32      256            2",
/* colors */
"`` c #c1c1c1",
"`. c #8cb1cb",
"`# c #57a1d5",
"`a c #69a6d2",
"`b c #7aacce",
"`c c #afbbc4",
"`d c #0087e6",
"`e c #118ce3",
"`f c #5798c5",
"`g c #118be1",
"`h c #5782a0",
"`i c #0077ca",
"`j c #1187d9",
"`k c #697f8e",
"`l c #003b64",
"`m c #006db9",
"`n c #0080da",
"`o c #0084e1",
"`p c #0590eb",
"`q c #008def",
"`r c #0070bf",
"`s c #115d93",
"`t c #00345a",
"`u c #00385f",
"`v c #00416f",
"`w c #005b9c",
"`x c #0068b1",
"`y c #0070c0",
"`z c #0073c4",
"`A c #0386e2",
"`B c #0c92e8",
"`C c #21a4df",
"`D c #3dc3e6",
"`E c #27a3d4",
"`F c #178ecb",
"`G c #0371b9",
"`H c #005ea0",
"`I c #005b9a",
"`J c #34719c",
"`K c #8c99a2",
"`L c #003358",
"`M c #00375f",
"`N c #003962",
"`O c #003f6b",
"`P c #004474",
"`Q c #004b80",
"`R c #005088",
"`S c #00548f",
"`T c #005693",
"`U c #005998",
"`V c #005c9d",
"`W c #005fa1",
"`X c #005fa2",
"`Y c #005b9b",
"`Z c #34709b",
"`0 c #003357",
"`1 c #00375e",
"`2 c #003961",
"`3 c #003e6a",
"`4 c #004a7e",
"`5 c #004f86",
"`6 c #00538d",
"`7 c #005794",
"`8 c #005a99",
".` c #005c9c",
".. c #467a9f",
".# c #9da6ac",
".a c #003d67",
".b c #004b7f",
".c c #46799c",
".d c #003154",
".e c #003e69",
".f c #004473",
".g c #00548e",
".h c #005793",
".i c #005d9f",
".j c #698ea7",
".k c #113f60",
".l c #00365d",
".m c #003c66",
".n c #004373",
".o c #00497d",
".p c #004f87",
".q c #005d9e",
".r c #7a98ac",
".s c #9c9c9c",
".t c #113a57",
".u c #00365c",
".v c #003d68",
".w c #004372",
".x c #005795",
".y c #8ca1b1",
".z c #787878",
".A c #6c6c6c",
".B c #606060",
".C c #183d57",
".D c #003860",
".E c #003b65",
".F c #004e86",
".G c #005897",
".H c #9dabb5",
".I c #244359",
".J c #003960",
".K c #003c67",
".L c #004271",
".M c #00497c",
".N c #183d56",
".O c #00538e",
".P c #005ea1",
".Q c #b4b4b4",
".R c #30495a",
".S c #00355a",
".T c #004a7d",
".U c #004e85",
".V c #115e95",
".W c #304859",
".X c #00355b",
".Y c #003a63",
".Z c #004270",
".0 c #34729d",
".1 c #a8a8a8",
".2 c #48545d",
".3 c #00487b",
".4 c #005a9a",
".5 c #848484",
".6 c #545a5f",
".7 c #18405c",
".8 c #9dadb8",
"#` c #545b60",
"#. c #184260",
"## c #003a62",
"#a c #7293aa",
"#b c #909090",
"#c c #696969",
"#d c #3c5262",
"#e c #18496c",
"#f c #00487a",
"#g c #004e84",
"#h c #005c9e",
"#i c #34607e",
"#j c #8c949a",
"#k c #727272",
"#l c #545d64",
"#m c #485c6a",
"#n c #545e65",
"#o c #3c5d74",
"#p c #485e6e",
"#q c #576874",
"#r c #959595",
"#s c #000000",
"#t c #000000",
"#u c #000000",
"#v c #000000",
"#w c #000000",
"#x c #000000",
"#y c #000000",
"#z c #000000",
"#A c #000000",
"#B c #000000",
"#C c #000000",
"#D c #000000",
"#E c #000000",
"#F c #000000",
"#G c #000000",
"#H c #000000",
"#I c #000000",
"#J c #000000",
"#K c #000000",
"#L c #000000",
"#M c #000000",
"#N c #000000",
"#O c #000000",
"#P c #000000",
"#Q c #000000",
"#R c #000000",
"#S c #000000",
"#T c #000000",
"#U c #000000",
"#V c #000000",
"#W c #000000",
"#X c #000000",
"#Y c #000000",
"#Z c #000000",
"#0 c #000000",
"#1 c #000000",
"#2 c #000000",
"#3 c #000000",
"#4 c #000000",
"#5 c #000000",
"#6 c #000000",
"#7 c #000000",
"#8 c #000000",
"a` c #000000",
"a. c #000000",
"a# c #000000",
"aa c #000000",
"ab c #000000",
"ac c #000000",
"ad c #000000",
"ae c #000000",
"af c #000000",
"ag c #000000",
"ah c #000000",
"ai c #000000",
"aj c #000000",
"ak c #000000",
"al c #000000",
"am c #000000",
"an c #000000",
"ao c #000000",
"ap c #000000",
"aq c #000000",
"ar c #000000",
"as c #000000",
"at c #000000",
"au c #000000",
"av c #000000",
"aw c #000000",
"ax c #000000",
"ay c #000000",
"az c #000000",
"aA c #000000",
"aB c #000000",
"aC c #000000",
"aD c #000000",
"aE c #000000",
"aF c #000000",
"aG c #000000",
"aH c #000000",
"aI c #000000",
"aJ c #000000",
"aK c #000000",
"aL c #000000",
"aM c #000000",
"aN c #000000",
"aO c #000000",
"aP c #000000",
"aQ c #000000",
"aR c #000000",
"aS c #000000",
"aT c #000000",
"aU c #000000",
"aV c #000000",
"aW c #000000",
"aX c #000000",
"aY c #000000",
"aZ c #000000",
"a0 c #000000",
"a1 c #000000",
"a2 c #000000",
"a3 c #000000",
"a4 c #000000",
"a5 c #000000",
"a6 c #000000",
"a7 c #000000",
"a8 c #000000",
/* pixels */
"````````````````````````````````````````````````````````````````",
"````````````````````````````````````````````````````````````````",
"````````````````````````````````````````````````````````````````",
"````````````````````````````````````````````````````````````````",
"````````````````````````````````````````````````````````````````",
"`````````````````````````.`#`#`#`#`#`a`b`.`c````````````````````",
"```````````````````a`d`d`d`d`d`d`d`d`d`d`d`d`#`.````````````````",
"`````````````````e`d`d`d`d`d`d`d`d`d`d`d`d`d`d`d`a``````````````",
"```````````````f`d`d`d`d`d`d`d`d`d`d`d`d`d`d`d`d`g``````````````",
"```````````````h`i`d`d`d`d`d`d`d`d`d`d`d`d`d`d`d`j``````````````",
"```````````````k`l`m`n`o`d`d`d`d`d`d`d`d`d`p`q`r`s``````````````",
"```````````````k`t`u`v`w`x`y`z`A`B`C`D`E`F`G`H`I`J``````````````",
"```````````````K`L`M`N`O`P`Q`R`S`T`U`V`H`W`X`H`Y`Z``````````````",
"```````````````K`0`1`2`3`P`4`5`6`7`8.``H`W`X`H`8..``````````````",
"``````````````.#`0`1`2.a`P.b`5`6`T`U.``H`X`X`H`I.c``````````````",
"````````````````.d`1`2.e.f`4`5.g.h`8`V`H`W`X.i`U.j``````````````",
"````````````````.k.l`2.m.n.o.p.g`7`8`V`H`W`X.q`8.r``````````````",
"``````````````.s.t.u`2.v.w.o`5.g.h`8`V`H`X`X.q.x.y``````````````",
"``````````.z.A.B.C.u.D.E`P`4.F`6`7`8`V`H`X`W.q.G.H``````````````",
"````````.z.B.B.B.I.u.J.K.L.M.F`6`7`8`V`H`X`W.q`T````````````````",
"``````.z.B.B.B.B.N.u.D.K.L.M.p.O.h`8`V`H`X.P`V`S````````````````",
"````.Q.B.B.B.B.B.R.S.D`l.w.T.U.O`7`8.q`H`X`W`V.V````````````````",
"````.Q.z.B.B.B.B.W.X`u.Y.Z.o.U.O.x`8.q`H`X`W`V.0````````````````",
"``````.1.A.B.B.B.2.S`u.Y.L.3.U.O.x.4.q`H`X`H`Y.0````````````````",
"``````````.5.A.B.6.7`u`l`v.3.U`6`7`8`V`H`X`H`I.8````````````````",
"````````````.1.z.A#`#.##.Z.M.U`6.x.4`V`H`X`H#a``````````````````",
"````````````````.1#b#c#d#e#f#g.O.x`8#h.P#i#j````````````````````",
"````````````````````.Q#b#k#l#m#n#o#p#q#r.Q``````````````````````",
"``````````````````````````.Q.1.1.1.Q````````````````````````````",
"````````````````````````````````````````````````````````````````",
"````````````````````````````````````````````````````````````````",
"````````````````````````````````````````````````````````````````"
};
