/* XPM */
static char *newlayer_xpm[] = {
/* width height num_colors chars_per_pixel */
"    32    32      256            2",
/* colors */
"`` c #ebe9ed",
"`. c #b3b3b2",
"`# c #d1cc76",
"`a c #d5d069",
"`b c #aaa9a9",
"`c c #dcd336",
"`d c #e6dc25",
"`e c #c6c4ad",
"`f c #bfbfbf",
"`g c #ceca84",
"`h c #959595",
"`i c #d5cc29",
"`j c #eee30f",
"`k c #dad354",
"`l c #dcd54c",
"`m c #b9b9b9",
"`n c #ccc659",
"`o c #f1e614",
"`p c #d8d14a",
"`q c #bdb96a",
"`r c #e5da14",
"`s c #fcef02",
"`t c #c5bf4c",
"`u c #ebe120",
"`v c #eae017",
"`w c #afa939",
"`x c #b7b7b7",
"`y c #979795",
"`z c #aca74d",
"`A c #dfd41e",
"`B c #fff200",
"`C c #9b9741",
"`D c #d1c824",
"`E c #898768",
"`F c #979797",
"`G c #bdbdbd",
"`H c #aaaaaa",
"`I c #8b8b8b",
"`J c #8f8c50",
"`K c #8c8c8c",
"`L c #908d53",
"`M c #b3b3b3",
"`N c #bcbcbc",
"`O c #b2b08d",
"`P c #ebe010",
"`Q c #9d9d9d",
"`R c #fdf000",
"`S c #f3e70a",
"`T c #c3bf73",
"`U c #bebebe",
"`V c #cac677",
"`W c #f7ea0b",
"`X c #c7be20",
"`Y c #f9ed06",
"`Z c #f2e60e",
"`0 c #c8c024",
"`1 c #f7ea01",
"`2 c #d4ce57",
"`3 c #979236",
"`4 c #626262",
"`5 c #d5cb1c",
"`6 c #e4d914",
"`7 c #787878",
"`8 c #737373",
".` c #a8a348",
".. c #c7c149",
".# c #a1a1a1",
".a c #ababab",
".b c #a7a7a7",
".c c #ada743",
".d c #94903e",
".e c #7e7e7e",
".f c #898989",
".g c #ddd416",
".h c #dbd218",
".i c #a3a3a3",
".j c #919191",
".k c #999995",
".l c #c0c0c0",
".m c #8a8a8a",
".n c #4a4a4a",
".o c #5c5c5c",
".p c #484848",
".q c #434343",
".r c #969696",
".s c #a3a29c",
".t c #d9cf1e",
".u c #c0b833",
".v c #b6b6b6",
".w c #b5b5b5",
".x c #717171",
".y c #323232",
".z c #a4a4a4",
".A c #a8a8a8",
".B c #5d5d5d",
".C c #3f3f3f",
".D c #444444",
".E c #999999",
".F c #adadad",
".G c #525252",
".H c #595959",
".I c #b4b4b4",
".J c #a5a5a5",
".K c #797979",
".L c #585858",
".M c #3d3d3d",
".N c #a2a2a2",
".O c #4c4c4c",
".P c #868686",
".Q c #3b3b3b",
".R c #1c1c1c",
".S c #7f7f7f",
".T c #b8b8b8",
".U c #2c2c2c",
".V c #9c9c9c",
".W c #696969",
".X c #4b4b4b",
".Y c #9e9e9e",
".Z c #757575",
".0 c #727272",
".1 c #4e4e4e",
".2 c #686868",
".3 c #929292",
".4 c #676767",
".5 c #a9a9a9",
".6 c #7c7c7c",
".7 c #888888",
".8 c #2b2b2b",
"#` c #464646",
"#. c #a6a6a6",
"## c #949494",
"#a c #aeaeae",
"#b c #000000",
"#c c #000000",
"#d c #000000",
"#e c #000000",
"#f c #000000",
"#g c #000000",
"#h c #000000",
"#i c #000000",
"#j c #000000",
"#k c #000000",
"#l c #000000",
"#m c #000000",
"#n c #000000",
"#o c #000000",
"#p c #000000",
"#q c #000000",
"#r c #000000",
"#s c #000000",
"#t c #000000",
"#u c #000000",
"#v c #000000",
"#w c #000000",
"#x c #000000",
"#y c #000000",
"#z c #000000",
"#A c #000000",
"#B c #000000",
"#C c #000000",
"#D c #000000",
"#E c #000000",
"#F c #000000",
"#G c #000000",
"#H c #000000",
"#I c #000000",
"#J c #000000",
"#K c #000000",
"#L c #000000",
"#M c #000000",
"#N c #000000",
"#O c #000000",
"#P c #000000",
"#Q c #000000",
"#R c #000000",
"#S c #000000",
"#T c #000000",
"#U c #000000",
"#V c #000000",
"#W c #000000",
"#X c #000000",
"#Y c #000000",
"#Z c #000000",
"#0 c #000000",
"#1 c #000000",
"#2 c #000000",
"#3 c #000000",
"#4 c #000000",
"#5 c #000000",
"#6 c #000000",
"#7 c #000000",
"#8 c #000000",
"a` c #000000",
"a. c #000000",
"a# c #000000",
"aa c #000000",
"ab c #000000",
"ac c #000000",
"ad c #000000",
"ae c #000000",
"af c #000000",
"ag c #000000",
"ah c #000000",
"ai c #000000",
"aj c #000000",
"ak c #000000",
"al c #000000",
"am c #000000",
"an c #000000",
"ao c #000000",
"ap c #000000",
"aq c #000000",
"ar c #000000",
"as c #000000",
"at c #000000",
"au c #000000",
"av c #000000",
"aw c #000000",
"ax c #000000",
"ay c #000000",
"az c #000000",
"aA c #000000",
"aB c #000000",
"aC c #000000",
"aD c #000000",
"aE c #000000",
"aF c #000000",
"aG c #000000",
"aH c #000000",
"aI c #000000",
"aJ c #000000",
"aK c #000000",
"aL c #000000",
"aM c #000000",
"aN c #000000",
"aO c #000000",
"aP c #000000",
"aQ c #000000",
"aR c #000000",
"aS c #000000",
"aT c #000000",
"aU c #000000",
"aV c #000000",
"aW c #000000",
"aX c #000000",
"aY c #000000",
"aZ c #000000",
"a0 c #000000",
"a1 c #000000",
"a2 c #000000",
"a3 c #000000",
"a4 c #000000",
"a5 c #000000",
"a6 c #000000",
"a7 c #000000",
"a8 c #000000",
/* pixels */
".l.l.l.l.l.l.l.l.l.l.l.l.l.l.l.l.l.l.l.l.l.l.l.l.l.l.l.l.l.l.l.l",
".l.l.l.l.l.l.l.l.l.l.l.l.l.l.l.l.l.l.l.l.l.l.l.l.l.l.l.l.l.l.l.l",
".l.l.l.l.l.l.l.l.l.l.l.l.l.l.l.l.l.l.l.l.l.l.l.l.l.l.l.l.l.l.l.l",
".l.l.l.l.l.l.l.l.l.l.l.l.l.l.l.l.l.l.l.l.l.l.l.l.l.l.l.l.l.l.l.l",
".l.l.l.l.l.l.l.l.l.l.l.l.l.l.l.l.l.l.l.l.l.l.l.l.l.l.l.l.l.l.l.l",
".l.l.l.l.l.l.l.l.l.l.l.l.l.l.l.l.l.l.l.l.l.l.l.l.l.l.l.l.l.l.l.l",
".l.l.l.l.l.l.l.l.l.l.l.l.l.l.l.l.l.l.l`.`#`a`..l.l.l.l.l.l.l.l.l",
".l.l.l.l.l.l.l.l.l.l.l.l.l.l.l.l.l`..l`b`c`d`b.l`.`e.l.l.l.l.l.l",
".l.l.l.l.l.l.l.l.l.l.l.l.l.l.l`f`e`g`.`h`i`j`h`.`k`l.l.l.l.l.l.l",
".l.l.l.l.l.l.l.l.l.l.l.l.l.l.l`m`n`o`p`q`r`s`t`u`v`w.l.l.l.l.l.l",
".l.l.l.l.l.l.l.l.l.l.l.l.l.l.l`x`y`z`A`B`t`C`B`D`E`F.l.l.l.l.l.l",
".l.l.l.l.l.l.l.l.l.l.l.l.l.l.l`G`H`I`J`B`K`C`B`L`h`M.l.l.l.l.l.l",
".l.l.l.l.l.l.l.l.l.l.l.l.l.l.l.l`N`O`P`B`Q`C`R`S`T.l.l.l.l.l.l.l",
".l.l.l.l.l.l.l.l.l.l.l.l.l.l.l`U`V`W`B`X`Y`Z`C`0`1`2.l.l.l.l.l.l",
".l.l.l.l.l.l.l.l.l.l.l.l.l.l.l`M`B`B`3`4`5`6`7`8.`...l.l.l.l.l.l",
".l.l.l.l.l.l.l.l.l.l.l.l.#`K.a.b.c.d.e.f.g.h`F.i.j.k.l.l.l.l.l.l",
".l.l.l.l.l.l.l.l.l.l.l.m.n.o.p.q.n`4.r.s.t.u.b`U.v.w.l.l.l.l.l.l",
".l.l.l.l.l.l.l.l.l.l.x.y.z.l.l.A.e.B.q.C.D.B.E`U.l.l.l.l.l.l.l.l",
".l.l.l.l.l.l.l.l.F.G.H.I.l.l.l.l.l.l.l.J.K.L.M.M.q.i.l.l.l.l.l.l",
".l.l.l.l.l.l.l.N.O`8`N.l.l.l.l.l.l.l.l.l.l.l.l.P.Q.i.l.l.l.l.l.l",
".l.l.l.l.l.l.z.R.S.l.l.l.l.l.l.l.l.l.l.l.l.l.T.U.V.l.l.l.l.l.l.l",
".l.l.l.l.l.l.b.W.X.X.x.Y`G.l.l.l.l.l.l.l.l.v.O.Z.l.l.l.l.l.l.l.l",
".l.l.l.l.l.l.l.l`N.#.0.1.n.2.3`x.l.l.l.l.l.4.B.l.l.l.l.l.l.l.l.l",
".l.l.l.l.l.l.l.l.l.l.l.l.5.6.G.D.o.P.v.l.7.G.w.l.l.l.l.l.l.l.l.l",
".l.l.l.l.l.l.l.l.l.l.l.l.l.l.l`M.7.L.8#`.U#..l.l.l.l.l.l.l.l.l.l",
".l.l.l.l.l.l.l.l.l.l.l.l.l.l.l.l.l.l.l###a.l.l.l.l.l.l.l.l.l.l.l",
".l.l.l.l.l.l.l.l.l.l.l.l.l.l.l.l.l.l.l.l.l.l.l.l.l.l.l.l.l.l.l.l",
".l.l.l.l.l.l.l.l.l.l.l.l.l.l.l.l.l.l.l.l.l.l.l.l.l.l.l.l.l.l.l.l",
".l.l.l.l.l.l.l.l.l.l.l.l.l.l.l.l.l.l.l.l.l.l.l.l.l.l.l.l.l.l.l.l",
".l.l.l.l.l.l.l.l.l.l.l.l.l.l.l.l.l.l.l.l.l.l.l.l.l.l.l.l.l.l.l.l",
".l.l.l.l.l.l.l.l.l.l.l.l.l.l.l.l.l.l.l.l.l.l.l.l.l.l.l.l.l.l.l.l",
".l.l.l.l.l.l.l.l.l.l.l.l.l.l.l.l.l.l.l.l.l.l.l.l.l.l.l.l.l.l.l.l"
};
