/* XPM */
static char *nonborderverts_xpm[] = {
/* width height num_colors chars_per_pixel */
"    32    32      256            2",
/* colors */
"`` c #c1c1c1",
"`. c #565697",
"`# c #68689e",
"`a c #8b8baa",
"`b c #afafba",
"`c c #aeaeb6",
"`d c #33338a",
"`e c #093797",
"`f c #016dc4",
"`g c #064498",
"`h c #0a2c89",
"`i c #2e398d",
"`j c #68689c",
"`k c #8c8caf",
"`l c #9c9cae",
"`m c #343490",
"`n c #09328e",
"`o c #007bd2",
"`p c #0356ab",
"`q c #0f1d8e",
"`r c #06449e",
"`s c #0b227f",
"`t c #565695",
"`u c #8b8bac",
"`v c #9d9db3",
"`w c #9d9db1",
"`x c #202083",
"`y c #0b2685",
"`z c #0b2788",
"`A c #0b2a8f",
"`B c #0461be",
"`C c #026ec7",
"`D c #035aad",
"`E c #10107d",
"`F c #016ec5",
"`G c #0262b3",
"`H c #044ea1",
"`I c #0d0d65",
"`J c #0e1a84",
"`K c #202075",
"`L c #7a7aa5",
"`M c #9d9db2",
"`N c #8b8ba8",
"`O c #0f0f7a",
"`P c #016ec7",
"`Q c #0262b6",
"`R c #054aa0",
"`S c #0a2683",
"`T c #fffe5a",
"`U c #0a389e",
"`V c #0363bd",
"`W c #016fc5",
"`X c #045ab2",
"`Y c #10107c",
"`Z c #016fc7",
"`0 c #006ec1",
"`1 c #0360b7",
"`2 c #063d92",
"`3 c #0c1771",
"`4 c #31317b",
"`5 c #7a7aaa",
"`6 c #79799f",
"`7 c #0456ad",
"`8 c #016dc3",
".` c #c3c915",
".. c #073990",
".# c #0b2789",
".a c #0c1a7b",
".b c #09389a",
".c c #026ec8",
".d c #0265b9",
".e c #565693",
".f c #0c1974",
".g c #0e0e72",
".h c #093899",
".i c #016ec6",
".j c #016dc1",
".k c #10107f",
".l c #09328f",
".m c #016fc3",
".n c #0356a8",
".o c #0d1b7f",
".p c #0653b1",
".q c #0a257e",
".r c #454593",
".s c #10107e",
".t c #0262b7",
".u c #054395",
".v c #0f0f73",
".w c #016fc8",
".x c #083188",
".y c #0c2b95",
".z c #073e95",
".A c #0a237c",
".B c #0d0d6b",
".C c #0b217b",
".D c #22228a",
".E c #9d9daf",
".F c #afafb8",
".G c #33338b",
".H c #0d1c81",
".I c #0e0e70",
".J c #0d1d83",
".K c #064ba6",
".L c #0360bb",
".M c #054fa5",
".N c #006bbc",
".O c #0c0c61",
".P c #68689f",
".Q c #1f1f71",
".R c #0f0f79",
".S c #0360b8",
".T c #0c1c7d",
".U c #0162b3",
".V c #054a9f",
".W c #0a2680",
".X c #0b2a90",
".Y c #0553b1",
".Z c #063889",
".0 c #222288",
".1 c #b7b7b7",
".2 c #565664",
".3 c #2b2b5a",
".4 c #191965",
".5 c #0e0e6f",
".6 c #0b2a91",
".7 c #093795",
".8 c #0360b9",
"#` c #0e1d88",
"#. c #016dc2",
"## c #083184",
"#a c #0d1b7d",
"#b c #0f0f75",
"#c c #0653b3",
"#d c #0351a1",
"#e c #10107b",
"#f c #848484",
"#g c #606060",
"#h c #53535a",
"#i c #3f3f57",
"#j c #1f1f4d",
"#k c #19196b",
"#l c #0f0f74",
"#m c #0745a6",
"#n c #0d1a7c",
"#o c #016fc2",
"#p c #0355a4",
"#q c #06449d",
"#r c #0d1979",
"#s c #0d0d67",
"#t c #787878",
"#u c #343451",
"#v c #151553",
"#w c #0c0c63",
"#x c #0845a7",
"#y c #054aa2",
"#z c #111183",
"#A c #034d9a",
"#B c #676794",
"#C c #9c9c9c",
"#D c #6c6c6c",
"#E c #55555b",
"#F c #343452",
"#G c #20205a",
"#H c #0c0c5f",
"#I c #0c0c5d",
"#J c #212181",
"#K c #a8a8a8",
"#L c #33334c",
"#M c #161659",
"#N c #0d0d69",
"#O c #0d1d84",
"#P c #044998",
"#Q c #111184",
"#R c #29294f",
"#S c #21215e",
"#T c #0f0f76",
"#U c #0b278a",
"#V c #b4b4b4",
"#W c #4a4a58",
"#X c #29294b",
"#Y c #171760",
"#Z c #0e0e6e",
"#0 c #9d9db0",
"#1 c #737373",
"#2 c #898998",
"#3 c #909090",
"#4 c #000000",
"#5 c #000000",
"#6 c #000000",
"#7 c #000000",
"#8 c #000000",
"a` c #000000",
"a. c #000000",
"a# c #000000",
"aa c #000000",
"ab c #000000",
"ac c #000000",
"ad c #000000",
"ae c #000000",
"af c #000000",
"ag c #000000",
"ah c #000000",
"ai c #000000",
"aj c #000000",
"ak c #000000",
"al c #000000",
"am c #000000",
"an c #000000",
"ao c #000000",
"ap c #000000",
"aq c #000000",
"ar c #000000",
"as c #000000",
"at c #000000",
"au c #000000",
"av c #000000",
"aw c #000000",
"ax c #000000",
"ay c #000000",
"az c #000000",
"aA c #000000",
"aB c #000000",
"aC c #000000",
"aD c #000000",
"aE c #000000",
"aF c #000000",
"aG c #000000",
"aH c #000000",
"aI c #000000",
"aJ c #000000",
"aK c #000000",
"aL c #000000",
"aM c #000000",
"aN c #000000",
"aO c #000000",
"aP c #000000",
"aQ c #000000",
"aR c #000000",
"aS c #000000",
"aT c #000000",
"aU c #000000",
"aV c #000000",
"aW c #000000",
"aX c #000000",
"aY c #000000",
"aZ c #000000",
"a0 c #000000",
"a1 c #000000",
"a2 c #000000",
"a3 c #000000",
"a4 c #000000",
"a5 c #000000",
"a6 c #000000",
"a7 c #000000",
"a8 c #000000",
/* pixels */
"````````````````````````````````````````````````````````````````",
"````````````````````````````````````````````````````````````````",
"````````````````````````````````````````````````````````````````",
"````````````````````````````````````````````````````````````````",
"````````````````````````````````````````````````````````````````",
"````````````````````````````````````````````````````````````````",
"````````````````````````````````````````````````````````````````",
"````````````````````````````````````````````````````````````````",
"`````````````````````````.`#`a`b````````````````````````````````",
"`````````````````````c`d`e`f`g`h`i`j`k`b````````````````````````",
"```````````````````l`m`n`o`o`o`o`p`q`r`s`i`t`u`v````````````````",
"`````````````````w`x`y`z`A`B`C`D`E`F`o`o`G`H`I`J`K`#`L`M````````",
"```````````````N`O`P`o`Q`R`S`T`T`U`V`W`o`o`X`Y`Z`0`1`2`3`4`5````",
"`````````````6`O`7`o`o`o`o`8.`.`...#.a.b`T`T.c`o`o`o`o.d`E`w````",
"``````````.e`E.f.g.h.c.i.j.k.l`o`o`o.m.n`T`T.o.p.c`P`o.q.r``````",
"`````````d.s.i`o.t.u`S`T`T.v.w`o`o`o`o.x.y`o.n.z.A.B.C.D.E``````",
"````.F.G.H`o`o`o`o`o`Z`T`T`n.I.J.K.L.M.s`P`o`o`o`o.N.O.P````````",
"```c.Q.R.K.S`o`o`o`o`E.T`o`o.U.V.W`T`T.X.Y`F`o`o`o.Z.0`c````````",
"``.1.2.3.4.5.6.7.8#`#`#.`o`o`o`o`o`T`T###a#b.b#c#d#e`t``````````",
"``#f#g#g#h#i#j#k#l#b#m`C`o`o`o`o#n.k`8`o#o#p#q#r#s.R````````````",
"``````#f#t#g#g#g#u#v#w#l`A#x`C#y#z`C`o`o`o`o`o#A#z#B````````````",
"``````````#C#f#D#g#g#E#F#G#H#b.k`U`C`o`o`o`o`o#I#J``````````````",
"````````````````#K#t#D#g#g#E#L#M#N#b#O#c`P`o#P#Q#B``````````````",
"``````````````````````#C#t#g#g#g#E#R#S#s#T#U`O#J````````````````",
"``````````````````````````#V#f#D#g#g#g#W#X#Y#Z#0````````````````",
"````````````````````````````````#K#f#D#g#g#1#2``````````````````",
"````````````````````````````````````#V#3#t#K````````````````````",
"````````````````````````````````````````````````````````````````",
"````````````````````````````````````````````````````````````````",
"````````````````````````````````````````````````````````````````",
"````````````````````````````````````````````````````````````````",
"````````````````````````````````````````````````````````````````"
};
