/* XPM */
static char *nontriangle_xpm[] = {
/* width height num_colors chars_per_pixel */
"    32    32      256            2",
/* colors */
"`` c #0c1664",
"`. c #8486ac",
"`# c #844254",
"`a c #004a94",
"`b c #c4361c",
"`c c #4c4a44",
"`d c #cc624c",
"`e c #3c3264",
"`f c #b4b2b4",
"`g c #845a44",
"`h c #e43a14",
"`i c #002e7c",
"`j c #4c6284",
"`k c #0066b4",
"`l c #a43234",
"`m c #bc7a7c",
"`n c #4c4e7c",
"`o c #242e74",
"`p c #ac4234",
"`q c #246aac",
"`r c #b4422c",
"`s c #cccabc",
"`t c #ec4a1c",
"`u c #cc4224",
"`v c #7c4e3c",
"`w c #d4927c",
"`x c #ec4214",
"`y c #003a7c",
"`z c #242254",
"`A c #2c4e7c",
"`B c #e46e44",
"`C c #146eb4",
"`D c #b44a34",
"`E c #9c9a8c",
"`F c #844e3c",
"`G c #d43a1c",
"`H c #5c3a54",
"`I c #dcae94",
"`J c #f43a0c",
"`K c #64625c",
"`L c #ec5a2c",
"`M c #a45664",
"`N c #0c328c",
"`O c #006ebc",
"`P c #6c4a5c",
"`Q c #dca284",
"`R c #0c1e5c",
"`S c #005aa4",
"`T c #bcbeac",
"`U c #ec3a0c",
"`V c #545a84",
"`W c #b44644",
"`X c #d4d2c4",
"`Y c #dc3a14",
"`Z c #7472ac",
"`0 c #0c6eb4",
"`1 c #6c5a6c",
"`2 c #54564c",
"`3 c #3c3e54",
"`4 c #e47a54",
"`5 c #2c3a7c",
"`6 c #a44a2c",
"`7 c #34669c",
"`8 c #dc421c",
".` c #9c4e4c",
".. c #74726c",
".# c #5c5aa4",
".a c #a48e84",
".b c #8c7264",
".c c #bc4224",
".d c #cccebc",
".e c #d4421c",
".f c #e49274",
".g c #0c3a9c",
".h c #1c1a74",
".i c #2c5e94",
".j c #bc4a34",
".k c #a4a294",
".l c #ec6234",
".m c #0c3684",
".n c #0c1e74",
".o c #c4c2b4",
".p c #ec3e0c",
".q c #dc3e14",
".r c #74566c",
".s c #a44e44",
".t c #8c8eac",
".u c #9c3634",
".v c #00529c",
".w c #dc623c",
".x c #443a64",
".y c #8c5a7c",
".z c #142e6c",
".A c #ec5224",
".B c #dc967c",
".C c #ec4614",
".D c #00428c",
".E c #e4724c",
".F c #1c6eac",
".G c #b44a3c",
".H c #5c427c",
".I c #6c6664",
".J c #b46a6c",
".K c #142e84",
".L c #0072bc",
".M c #dca68c",
".N c #005ea4",
".O c #bcbebc",
".P c #5c5e7c",
".Q c #0c72bc",
".R c #5c5674",
".S c #e48a6c",
".T c #2c426c",
".U c #3c628c",
".V c #945254",
".W c #bc4634",
".X c #ec663c",
".Y c #ac4a3c",
".Z c #0c1a74",
".0 c #c43a24",
".1 c #5c4a44",
".2 c #d46244",
".3 c #b4b6ac",
".4 c #84565c",
".5 c #e43e14",
".6 c #4c628c",
".7 c #cc7e6c",
".8 c #242e7c",
"#` c #2c6aa4",
"#. c #ccc2bc",
"## c #bc766c",
"#a c #6c3664",
"#b c #3c5a8c",
"#c c #944a64",
"#d c #8c4e54",
"#e c #e48264",
"#f c #1c2284",
"#g c #241e6c",
"#h c #9c3e3c",
"#i c #143674",
"#j c #0c52ac",
"#k c #d4c6b4",
"#l c #5c5a54",
"#m c #9492b4",
"#n c #ec6a44",
"#o c #6c4e6c",
"#p c #0c226c",
"#q c #444254",
"#r c #bc463c",
"#s c #d4cebc",
"#t c #2c427c",
"#u c #ec4e24",
"#v c #cc462c",
"#w c #d49684",
"#x c #b44e2c",
"#y c #9c9e94",
"#z c #a4a69c",
"#A c #0c227c",
"#B c #3c6694",
"#C c #d43e1c",
"#D c #f43e0c",
"#E c #64665c",
"#F c #545e84",
"#G c #d4d6c4",
"#H c #74766c",
"#I c #745a6c",
"#J c #003a84",
"#K c #2c4e84",
"#L c #0c3294",
"#M c #dca28c",
"#N c #005aac",
"#O c #bcbeb4",
"#P c #ec3a14",
"#Q c #dc3a1c",
"#R c #0c6ebc",
"#S c #6c5a74",
"#T c #5c5aac",
"#U c #bc422c",
"#V c #d44224",
"#W c #ec623c",
"#X c #ec3e14",
"#Y c #dc3e1c",
"#Z c #443a6c",
"#0 c #ec461c",
"#1 c #1c6eb4",
"#2 c #0072c4",
"#3 c #ac4a44",
"#4 c #000000",
"#5 c #000000",
"#6 c #000000",
"#7 c #000000",
"#8 c #000000",
"a` c #000000",
"a. c #000000",
"a# c #000000",
"aa c #000000",
"ab c #000000",
"ac c #000000",
"ad c #000000",
"ae c #000000",
"af c #000000",
"ag c #000000",
"ah c #000000",
"ai c #000000",
"aj c #000000",
"ak c #000000",
"al c #000000",
"am c #000000",
"an c #000000",
"ao c #000000",
"ap c #000000",
"aq c #000000",
"ar c #000000",
"as c #000000",
"at c #000000",
"au c #000000",
"av c #000000",
"aw c #000000",
"ax c #000000",
"ay c #000000",
"az c #000000",
"aA c #000000",
"aB c #000000",
"aC c #000000",
"aD c #000000",
"aE c #000000",
"aF c #000000",
"aG c #000000",
"aH c #000000",
"aI c #000000",
"aJ c #000000",
"aK c #000000",
"aL c #000000",
"aM c #000000",
"aN c #000000",
"aO c #000000",
"aP c #000000",
"aQ c #000000",
"aR c #000000",
"aS c #000000",
"aT c #000000",
"aU c #000000",
"aV c #000000",
"aW c #000000",
"aX c #000000",
"aY c #000000",
"aZ c #000000",
"a0 c #000000",
"a1 c #000000",
"a2 c #000000",
"a3 c #000000",
"a4 c #000000",
"a5 c #000000",
"a6 c #000000",
"a7 c #000000",
"a8 c #000000",
/* pixels */
"#G#G#G#G#G#G#G#G#G#G#G#G#G#G#G#G#G#G#G#G#G#G#G#G#G#G#G#G#G#G#G#G",
"#G#G#G#G#G#G#G#G#G#G#G#G#G#G#G#G#G#G#G#G#G#G#G#G#G#G#G#G#G#G#G#G",
"#G#G#G#G#G#G#G#G#G#G#G#G#G#G#G#G#G#G#G#G#G#G#G#G#G#G#G#G#G#G#G#G",
"#G#G#G#G#G#G#G#G#G#G#G#G#G#G#G#G#G#G#G#G#G#G#G#G#G#G#G#G#G#G#G#G",
"#G#G#G#G#G#G#G#G#G#G#G#G#G#G#G#G#G#G#G#G#G#G#G#G#G#G#G#G#G#G#G#G",
"#G#G#G#G#G#G#G#G#G#G#G#G#G#G#G#G#G#G#G#G#G#G#G#G#G#G#G#G#G#G#G#G",
"#G#G#G#G#G#G#G#G#G#G#s`Q`B`L#D#D`L.w###.#G#G#G#G#G#G#G#G#G#G#G#G",
"#G#G#G#G#G#G#G#G#G.B`t`J`J`U`U`U`U`U`U.q`w#G#G#G#G#G#G#G#G#G#G#G",
"#G#G#G#G#G#G`T`E#r`J`U`U.5.q#Y#Y#Y.5`U`U`J.E#s#G#G#G#G#G#G#G#G#G",
"#G#G#G#G#G.d.I.c`J`U.5#V.j#3.s.s#3#U`G.5`U`J.X`X#G#G#G#G#G#G#G#G",
"#G#G#G#G#G#O`6`J`U`h`u.``1#F.6.6#F`P#h.e`J`J`J.S#G#G#G#G#G#G#G#G",
"#G#G#G#G#G.a.p`U.5`u.u.R#`#1`C`C#1.T`#`U`J.p`U.p#k#G#G#G#G#G#G#G",
"#G#G#G#G#O#x`U`U#V.``H#K#R.L#2#2.L.x.5`J#v#V.p`U`d#G#G#G#G#G#G#G",
"#G#G#G#G#z.q`U.5`D#S.i.z#N#2#2#2`q`Y`J.Y#S`D.5`U`Y`f#G#G#G#G#G#G",
"#G#G#G#G.b`J`U#Y.s`j`C`k#p#N#2`C`u`J.G.F`j.s`8.p`J`e.O#G#G#G#G#G",
"#G#G#G`s`g`J`U#V.V#B`0#2`a`i.Q.W`J`b`C`0#B.V#V.p`J#b`5.O#G#G#G#G",
"#G#G`X.k`F`U#P#v.4`7#R#2#2.m`p`J#C`o#2#R`7.4#v#X`U.6`S`o.O#G#G#G",
"#G#G#G..`v`J.p#V.V#B`0#2#2#d`J.5`A`N#2`0#B.V#V.p`J#B#2.v`V`s#G#G",
"#G#G.d#E.1`J.p`8.s`j`C.L#I`J`U#Z`y.g.L`C`j.s`8.p`J`C.N.D.K.#`s#G",
"#G#G.3`2`3.0`U.5`D#S#`.P`J`J#F#J``#j#R#``1`r`h`U.0#f#T`Z#m.O#G#G",
"#G#G#H`2`z#o`U.p#V.`.4.p`J.r.L`O`R#i#t#a`l#Q.p`J.7#G#G#G#G#G#G#G",
"#G`X`K`c.Z.L#V`U.5#V.p`J`p#t.8#g.H.y.J.2.A`x#D#u`X#G#G#G#G#G#G#G",
"#G#y#l#q#L#2.U`U`U`U`J`h`W`M`m#w.f`4#W#u`x#D#D`I#G#G#G#G#G#G#G#G",
"#G.d.o`n#A.n.h#c`J`J#D#0.A.l#n#n.l.A#0.p#D`J.B#G#G#G#G#G#G#G#G#G",
"#G#G#G`..t.O#G#G.M`x#D#D.p`x.C.C`x.p#D#D`x.M#G#G#G#G#G#G#G#G#G#G",
"#G#G#G#G#G#G#G#G#G#k`4`x#D#D#D#D#D#D`x`4#k#G#G#G#G#G#G#G#G#G#G#G",
"#G#G#G#G#G#G#G#G#G#G#G#s#M#e`4`4#e#M#s#G#G#G#G#G#G#G#G#G#G#G#G#G",
"#G#G#G#G#G#G#G#G#G#G#G#G#G#G#G#G#G#G#G#G#G#G#G#G#G#G#G#G#G#G#G#G",
"#G#G#G#G#G#G#G#G#G#G#G#G#G#G#G#G#G#G#G#G#G#G#G#G#G#G#G#G#G#G#G#G",
"#G#G#G#G#G#G#G#G#G#G#G#G#G#G#G#G#G#G#G#G#G#G#G#G#G#G#G#G#G#G#G#G",
"#G#G#G#G#G#G#G#G#G#G#G#G#G#G#G#G#G#G#G#G#G#G#G#G#G#G#G#G#G#G#G#G",
"#G#G#G#G#G#G#G#G#G#G#G#G#G#G#G#G#G#G#G#G#G#G#G#G#G#G#G#G#G#G#G#G"
};
