/* XPM */
static char *paintfx_xpm[] = {
/* width height num_colors chars_per_pixel */
"    32    32      256            2",
/* colors */
"`` c #f5f25e",
"`. c #faf964",
"`# c #e3e066",
"`a c #c1c1c5",
"`b c #c1c1c1",
"`c c #ccc42e",
"`d c #fdfd76",
"`e c #fefd3f",
"`f c #c8c7ab",
"`g c #a9a216",
"`h c #fffe5a",
"`i c #feff45",
"`j c #bcbbbd",
"`k c #8c840e",
"`l c #d5cd35",
"`m c #faf729",
"`n c #5e5906",
"`o c #a89f16",
"`p c #ffff49",
"`q c #a09ac3",
"`r c #7a6acc",
"`s c #9da6ac",
"`t c #8bab8b",
"`u c #69719a",
"`v c #7a928a",
"`w c #97b298",
"`x c #8fa990",
"`y c #a9aaaa",
"`z c #bdc1bd",
"`A c #55532a",
"`B c #87800c",
"`C c #c0bfc1",
"`D c #bfbec9",
"`E c #6f8484",
"`F c #0f4819",
"`G c #20302f",
"`H c #334836",
"`I c #4f6250",
"`J c #616862",
"`K c #515e54",
"`L c #505750",
"`M c #4f6854",
"`N c #4b604b",
"`O c #a5a9a6",
"`P c #6c6b61",
"`Q c #597264",
"`R c #485c6a",
"`S c #bbbcbb",
"`T c #c0c1bf",
"`U c #3c3a18",
"`V c #dcd639",
"`W c #bfc1c4",
"`X c #917bdd",
"`Y c #1c5923",
"`Z c #959596",
"`0 c #bfc1c1",
"`1 c #706f60",
"`2 c #5a5507",
"`3 c #23217b",
"`4 c #969b9a",
"`5 c #a8a7a8",
"`6 c #9b9b9b",
"`7 c #8c8d8d",
"`8 c #a7a6a8",
".` c #b3b4b4",
".. c #58572b",
".# c #acb4b2",
".a c #5c5c5c",
".b c #08670f",
".c c #bebec1",
".d c #afa419",
".e c #f08f3c",
".f c #dc7b62",
".g c #c0bebe",
".h c #636468",
".i c #91939e",
".j c #2e3987",
".k c #8167dd",
".l c #bdbcc5",
".m c #aaa9a7",
".n c #311805",
".o c #851000",
".p c #cf1313",
".q c #fc0405",
".r c #f01c1c",
".s c #888989",
".t c #7b7b7c",
".u c #172a54",
".v c #1f5761",
".w c #7ba482",
".x c #6f5f5f",
".y c #630000",
".z c #a30101",
".A c #cc9797",
".B c #c1c0c1",
".C c #477948",
".D c #064c0e",
".E c #5f868c",
".F c #987fe4",
".G c #2f0303",
".H c #e73c3d",
".I c #c0c2c2",
".J c #738978",
".K c #273088",
".L c #3f1dd0",
".M c #596c8a",
".N c #908686",
".O c #540203",
".P c #9a0000",
".Q c #c40506",
".R c #b40707",
".S c #a1a1a2",
".T c #6d6d6d",
".U c #b0b0af",
".V c #969996",
".W c #092c15",
".X c #114820",
".Y c #26722c",
".Z c #a9bbad",
".0 c #513d3c",
".1 c #302e33",
".2 c #49484d",
".3 c #5f6661",
".4 c #06260a",
".5 c #2a7138",
".6 c #5936e0",
".7 c #6b42f7",
".8 c #a3a9bb",
"#` c #898788",
"#. c #27292a",
"## c #14151b",
"#a c #36383e",
"#b c #2f2f34",
"#c c #b1b0b1",
"#d c #626263",
"#e c #989699",
"#f c #2a5a34",
"#g c #3e6748",
"#h c #6b6c6c",
"#i c #050609",
"#j c #4b4c51",
"#k c #212228",
"#l c #989797",
"#m c #a4a4a4",
"#n c #061905",
"#o c #08370e",
"#p c #1d6a2d",
"#q c #6aac78",
"#r c #a8a5cc",
"#s c #767978",
"#t c #727473",
"#u c #030306",
"#v c #131416",
"#w c #313738",
"#x c #0a1b11",
"#y c #090b0e",
"#z c #88a688",
"#A c #3c1bcf",
"#B c #5328fa",
"#C c #065c0a",
"#D c #334289",
"#E c #2f8351",
"#F c #83a985",
"#G c #016301",
"#H c #043506",
"#I c #97b096",
"#J c #16331e",
"#K c #0f4810",
"#L c #219426",
"#M c #003b00",
"#N c #005400",
"#O c #608f60",
"#P c #174a1f",
"#Q c #39815c",
"#R c #042b04",
"#S c #004400",
"#T c #015f00",
"#U c #007700",
"#V c #18891a",
"#W c #6e6d70",
"#X c #a9bbb1",
"#Y c #4522f4",
"#Z c #6432ff",
"#0 c #767b75",
"#1 c #004f00",
"#2 c #006e00",
"#3 c #27654c",
"#4 c #2a2193",
"#5 c #351fbc",
"#6 c #3d3ead",
"#7 c #86ab8a",
"#8 c #017a02",
"a` c #4da04d",
"a. c #7d7e80",
"a# c #5d5f60",
"aa c #147519",
"ab c #849d86",
"ac c #14ab16",
"ad c #3aaa4c",
"ae c #1a6519",
"af c #618ca7",
"ag c #603eff",
"ah c #603df4",
"ai c #6e90a7",
"aj c #c1c7c6",
"ak c #3f21d2",
"al c #62b066",
"am c #37409d",
"an c #4537dd",
"ao c #4da363",
"ap c #4826e7",
"aq c #418b65",
"ar c #312dad",
"as c #1d9022",
"at c #35a339",
"au c #2e943d",
"av c #6d786f",
"aw c #17a01b",
"ax c #056608",
"ay c #3b703c",
"az c #868b87",
"aA c #103113",
"aB c #5e6860",
"aC c #83bb83",
"aD c #000000",
"aE c #000000",
"aF c #000000",
"aG c #000000",
"aH c #000000",
"aI c #000000",
"aJ c #000000",
"aK c #000000",
"aL c #000000",
"aM c #000000",
"aN c #000000",
"aO c #000000",
"aP c #000000",
"aQ c #000000",
"aR c #000000",
"aS c #000000",
"aT c #000000",
"aU c #000000",
"aV c #000000",
"aW c #000000",
"aX c #000000",
"aY c #000000",
"aZ c #000000",
"a0 c #000000",
"a1 c #000000",
"a2 c #000000",
"a3 c #000000",
"a4 c #000000",
"a5 c #000000",
"a6 c #000000",
"a7 c #000000",
"a8 c #000000",
/* pixels */
"```.`#`a`b`b`b`b`b`b`b`b`b`b`b`b`b`b`b`b`b`b`b`b`b`b`b`b`b`b`b`b",
"`c`d`e`f`b`b`b`b`b`b`b`b`b`b`b`b`b`b`b`b`b`b`b`b`b`b`b`b`b`b`b`b",
"`g```h`i`j`b`b`b`b`b`b`b`b`b`b`b`b`b`b`b`b`b`b`b`b`b`b`b`b`b`b`b",
"`k`l`d`m`f`b`b`a`b`b`b`b`b`b`b`b`b`a`b`a`b`b`b`b`b`a`b`b`b`b`b`b",
"`n`o```p`#`a`b`b`b`b`b`a`b`b`b`a`b`b`a`q`r`s`t`u`v`w`x`v`y`z`z`b",
"`A`B`c`.`m`f`b`b`b`b`b`b`b`b`C`D`q`E`E`F`G`H`I`J`J`J`K`L`M`N`O`b",
"`P`n`g`.`i`#`D`b`b`b`b`b`C`b`b`a`Q`G`R`S`T`b`b`C`b`b`C`b`a`b`b`b",
"`S`U`k`V`h`m`T`b`a`b`b`b`C`W`D`X`Y`Z`j`0`b`b`b`C`b`b`b`b`b`b`b`b",
"`b`1`2`g```i`#`b`b`b`b`a`C`0`Q`3`R`Z`4`5`6`7`5`6`O`8`4`y.``b`b`b",
"`b`S..`k`V`p`m`T`b`b`b`b`C.#.a.b`M.c`b`b`a`b`b`b`b`b`C`b`b`b`b`b",
"`b`b`P`2.d.e.e.f.g`C`b`b`j.h.i.j.k`C.l`b`b`a`b`b`b`b`b`b`b`b`b`b",
"`b`b.m.n.o.p.q.r.g`b`b`b.s.t`v.u.v.w`a`a`C`0`a`C`C`b`b`b`b`a`b`b",
"`b`b`b.x.y.z.r.q.A.B`b`b.t`Z`j.C.D.E.F.l`a`b`0`b`b`C`b`b`b`b`b`b",
"`b`b`b`j.G.o.p.q.H`b`b`b.t.s.I`0.J.K.L.M`0`C`a`b`b`b`b`a`b`b`b`b",
"`b`b`b`b.N.O.P.Q.R`j`b`b.S.T.U`b.V.W.X.Y.Z`a`a`0`a`0`0`b`b`b`b`b",
"`j`b`b`b`b.0.O.1.2`L`y`b`S.T.t`b`b`4.3.4.5.6.7.8`a`b`b`b`b`a`b`b",
"#``j`b`a`b`j#.###a###b`j`b#c#d#e`b`b`b`y#f.u.K#g`a`a`W`b`b`b`b`b",
".a#h`j`b`b`T.1#i#j#k#i.a`b`b#l#d#m.c`b`b`7#n#o#p#q#r`q.c`b`b`b`b",
".a.a#s`j`b`b#t#u#v#w#x#y#z`b`b#l.h.s`j`T`0`S`O`K#p#A#B`r`z`b`b`b",
".a.a.a#s`j`b`j#v#i#k#C#i.Y`S`b`b.U#h#h`j`b`a`C`a#g`R#D#E#F`b`b`b",
"#m#h.a.a#h`j`b`y#i#y#G.4#H#I.g`0`b`j.T.T#c`b`0`0#s#J#K#L#I`b`b`b",
"`b`j.t.a.a#h#c`b`L#M#N#G#G#O`b`b`b`b`j#s#d`Z`j`W`a`S#e#P#Q.l`a`a",
"`b`b`b#m#h.a#h#c`y#R#S#T#U#V`S`0`b.c`a`j.s#d#W`S`a`b#X`Q#Y#Z`r.c",
"`b`b`b`b#c#s.a#h#c#0#R#1#2#U#I`b`b`a`b`a`W#e.3.t`0`z`v#3#4#5#6#7",
"`b`b`b`b`b`j.S#h`M`8#0#H#N#8a``0`b`b`W`0`a`aa.a#.S`0.Zaa#E#3#pab",
"`b`b`b`b`b`b`b.`.t#d.T#0#Maaac.Z`a`W.#`W`a`a.l.3`Q`q#radaaae.C`j",
"`b`b`b`b`b`b`b`C`C#c#h#s.V#f#V#V`zafagahai`Waj.wak#Z#Z#E`Y`z`T`b",
"`b`b`b`a`b`b`b.B.B`b.g#W.t`S`wala`am#Y#Banal`zao#4akap.M`t`b`b`b",
"`b`b`b`b`b`b`b`b.B.B`b`b.g.t#caj.waq#4ar.Easatau#E.v#D#E`v`T`b`b",
"`b`b`b`b`a`b`b`b`b`b`b`b`C`z`7`7av#oauadac#2aaawaxac#Vay`z`T`b`b",
"`b`b`b`b`b`b`b`a`b`b`b`b`0`b`0.#az`HaAae`M.3aBav#FaCal`S`T`T`b`b",
"`b`b`b`b`b`b`b`b`b`a`b`b`b`C`b`b`a.`.S#t#t.s`s`z.I`z`T`T`b`b`b`b"
};
