/* XPM */
static char *phelix_xpm[] = {
/* width height num_colors chars_per_pixel */
"    32    32      256            2",
/* colors */
"`` c #00060c",
"`. c #0066b4",
"`# c #00365c",
"`a c #343e6c",
"`b c #6c6a6c",
"`c c #004e94",
"`d c #1c366c",
"`e c #949aac",
"`f c #001e34",
"`g c #00426c",
"`h c #3c669c",
"`i c #0c265c",
"`j c #007ed4",
"`k c #74829c",
"`l c #34527c",
"`m c #1c2e5c",
"`n c #0c367c",
"`o c #005a94",
"`p c #acb2b4",
"`q c #0072c4",
"`r c #004284",
"`s c #00325c",
"`t c #1c4284",
"`u c #8c8a8c",
"`v c #4c5a84",
"`w c #1466bc",
"`x c #344a7c",
"`y c #747674",
"`z c #144284",
"`A c #14366c",
"`B c #144e9c",
"`C c #a4a6a4",
"`D c #14367c",
"`E c #145eac",
"`F c #0052a4",
"`G c #2c3a6c",
"`H c #005aac",
"`I c #bcbebc",
"`J c #142e64",
"`K c #003e6c",
"`L c #148adc",
"`M c #445274",
"`N c #949294",
"`O c #001224",
"`P c #243e6c",
"`Q c #004a84",
"`R c #6c7694",
"`S c #006ebc",
"`T c #002a4c",
"`U c #14265c",
"`V c #1c326c",
"`W c #003e7c",
"`X c #bcbabc",
"`Y c #003a6c",
"`Z c #344674",
"`0 c #00569c",
"`1 c #1c3a7c",
"`2 c #646664",
"`3 c #848284",
"`4 c #b4babc",
"`5 c #1476c4",
"`6 c #2c427c",
"`7 c #0c66b4",
"`8 c #0c4e9c",
".` c #a4a2a4",
".. c #14467c",
".# c #1486dc",
".a c #b4b2b4",
".b c #0c2e6c",
".c c #444e7c",
".d c #acaeac",
".e c #0062ac",
".f c #8c92a4",
".g c #546694",
".h c #9ca2ac",
".i c #142254",
".j c #0c427c",
".k c #0c86dc",
".l c #3c5a8c",
".m c #1c2a6c",
".n c #005aa4",
".o c #007acc",
".p c #5c628c",
".q c #146ebc",
".r c #3c4a74",
".s c #142e74",
".t c #445a74",
".u c #0c1a3c",
".v c #0c4a84",
".w c #747e9c",
".x c #14266c",
".y c #5c7294",
".z c #000e1c",
".A c #006ac4",
".B c #34427c",
".C c #6c7294",
".D c #00529c",
".E c #24366c",
".F c #9c9a9c",
".G c #0c2654",
".H c #00427c",
".I c #0c7ed4",
".J c #7c829c",
".K c #3c527c",
".L c #0c3a7c",
".M c #0c4284",
".N c #24427c",
".O c #8c8ea4",
".P c #546284",
".Q c #7c7e7c",
".R c #144a94",
".S c #acaaac",
".T c #143e84",
".U c #0c56a4",
".V c #0c5aac",
".W c #1c8edc",
".X c #747a94",
".Y c #0c3e7c",
".Z c #0c366c",
".0 c #b4b6b4",
".1 c #9496ac",
".2 c #3c4e74",
".3 c #000a0c",
".4 c #006ab4",
".5 c #0c3a64",
".6 c #34426c",
".7 c #747274",
".8 c #00528c",
"#` c #001e44",
"#. c #848aa4",
"## c #142e44",
"#a c #646a84",
"#b c #001a34",
"#c c #1c66ac",
"#d c #0c2e64",
"#e c #545e84",
"#f c #7c7a7c",
"#g c #c4c2c4",
"#h c #243674",
"#i c #34568c",
"#j c #144694",
"#k c #a4a6b4",
"#l c #001634",
"#m c #1c72c4",
"#n c #646e94",
"#o c #9c9eac",
"#p c #24468c",
"#q c #0c3e74",
"#r c #0c2a54",
"#s c #24326c",
"#t c #3c467c",
"#u c #0c7ad4",
"#v c #445284",
"#w c #004a94",
"#x c #445a84",
"#y c #0c4a94",
"#z c #0c3e8c",
"#A c #646a94",
"#B c #00223c",
"#C c #0c2a5c",
"#D c #005e9c",
"#E c #0076cc",
"#F c #8c8e8c",
"#G c #4c5e8c",
"#H c #747a7c",
"#I c #143a74",
"#J c #143a7c",
"#K c #2c3e74",
"#L c #148ee4",
"#M c #6c7a9c",
"#N c #142a5c",
"#O c #2c4674",
"#P c #0c326c",
"#Q c #8c96a4",
"#R c #1c2e6c",
"#S c #143274",
"#T c #243a64",
"#U c #0c82d4",
"#V c #7c869c",
"#W c #6c6e6c",
"#X c #004684",
"#Y c #1c4684",
"#Z c #146abc",
"#0 c #0056a4",
"#1 c #005eac",
"#2 c #949694",
"#3 c #848684",
"#4 c #0c6ab4",
"#5 c #0c529c",
"#6 c #005ea4",
"#7 c #142a6c",
"#8 c #9c9e9c",
"a` c #00467c",
"a. c #0c5eac",
"a# c #0c3264",
"aa c #243a74",
"ab c #a4aab4",
"ac c #003664",
"ad c #004274",
"ae c #1c2e64",
"af c #0c3684",
"ag c #005a9c",
"ah c #acb2bc",
"ai c #0072cc",
"aj c #8c8a94",
"ak c #14428c",
"al c #bcbec4",
"am c #142e6c",
"an c #003e74",
"ao c #44527c",
"ap c #243e74",
"aq c #004a8c",
"ar c #006ec4",
"as c #1c3274",
"at c #003a74",
"au c #34467c",
"av c #b4b2bc",
"aw c #acaeb4",
"ax c #0062b4",
"ay c #146ec4",
"az c #3c4a7c",
"aA c #0c1a44",
"aB c #3c5284",
"aC c #0c3a84",
"aD c #0c428c",
"aE c #0c56ac",
"aF c #1c8ee4",
"aG c #747a9c",
"aH c #0c3e84",
"aI c #0c3674",
"aJ c #b4b6bc",
"aK c #3c4e7c",
"aL c #000a14",
"aM c #006abc",
"aN c #344274",
"aO c #005294",
"aP c #0c2a64",
"aQ c #143a84",
"aR c #142a64",
"aS c #2c467c",
"aT c #0c3274",
"aU c #8c96ac",
"aV c #1c2e74",
"aW c #14327c",
"aX c #243a6c",
"aY c #0c82dc",
"aZ c #7c86a4",
"a0 c #000000",
"a1 c #000000",
"a2 c #000000",
"a3 c #000000",
"a4 c #000000",
"a5 c #000000",
"a6 c #000000",
"a7 c #000000",
"a8 c #000000",
/* pixels */
"#g#g#g#g#g#g#g#g#g#g#g#g#g#g#g#g#g#g#g#g#g#g#g#g#g#g#g#g#g#g#g#g",
"#g#g#g#g#g#g#g#g#g#g#g#g#g#g#g#g`e.g`6.x`h#V#g#g#g#g#g#g#g#g#g#g",
"#g#g#g#g#g#g#g#g#g#g#g#gaJ#naS.saWaQ#Z#L#p#v#g#g#g#g#g#g#g#g#g#g",
"#g#g#g#g#g#g#g#g#g#gab#x.s`D.V#uak#Z.k.k#7#R#g#g#g#g#g#g#g#g#g#g",
"#g#g#g#g#g#g#g#g`X`laTaDafaEarar#7#E`j.o`t#v#g#g#g#g#g#g#g#g#g#g",
"#g#g#g#g#g#g#g#g.t.b`r`c#7#1.eax`n.Man#d.E#V#g#g#g#g#g#g#g#g#g#g",
"#g#g#g#g#g#g#g#g`i#d.H#X.b#C.Gae`V#s#e#.aw#g#g#g#g#g#g#g#g#g#g#g",
"#g#g#g#g#g#g#g#gaR.G#b`O.u.xaI#S.mau#A.Oah#g#g#g#g#g#g#g#g#g#g#g",
"#g#g#g#g#g#g#g#g.6.uaL``#Ba`.nar`8#5#5`zasaVazaZav#g#g#g#g#g#g#g",
"#g#g#g#g#g#g#g#gaw`M.i#l`f.H.naMa.ak#LaF.W#c`1#i.BaB#Maw#g#g#g#g",
"#g#g#g#g#g#g#g#g#g#g#oaN.m`U#Can#6#7`j#U#U.I#7.I#4.v#IaaaK#.#g#g",
"#g#g#g#g#g#g#g#g#g#g#g#g`I.1.P#s#7#7#P.HaO`c`n`o#XaI`K`Q..`Z.f#g",
"#g#g#g#g#g#g#g#g#g#g#g#g#g#g#g`4#A.CaG.raR.x.L#D.L#0.4ax`0`A#.#g",
"#g#g#g#g#g#g#g#g#g#g#g#g#g#g`I`e.y.l#Y`D.s#y`5`L#7.Iaiax`Q.E.f#g",
"#g#g#g#g#g#g#g#g#g#g#gaw.P.N.s.s.R`E.qak#m#L.k#UaH.nagat`J#t`X#g",
"#g#g#g#g#g#g#g#g#g#Qap#7#zaEaQ`w.I.I.I#7.o.o#E`S.Mam.x#K.w#g#g#g",
"#g#g#g#g#g#g#g#g.P#7.L`F`Hax#7.Aaiai`qaCaq.H#daR`a#aaJ#g#g#g#g#g",
"#g#g#g#g#g#g#g#g#r`Y#X`c.D`0aTataca##TaX#sao.Jav#g#g#g#g#g#g#g#g",
"#g#g#g#g#g#g#g#g##`s`s`T#B`faR#7#7am`x#n.1ahal#g#g#g#g#g#g#g#g#g",
"#g#g#g#g#g#g#g#g#H.zaL.3#b`Y#w.U.R`D`B#j.T`Das`6#G.f`I#g#g#g#g#g",
"#g#g#g#g#g#g#g#g#g#a`maA#`acaO`.ar#7aY`LaF`L`D`.`c.L#h`vaw#g#g#g",
"#g`I`X.0.a.d`C#8`N#3aj.X`aae#N.Z.M`n#E.o.o`7ak`j`S.8a`a#`d#o#g#g",
".``u.Q`y.7#W`b`b`b`b`2`y.aaJaU#e`V#Ramam.L.M#SaO.8`g`#ad`W#O`X#g",
"#8`b`2`2`2`2`2`2.7#f`3`u.`.a`X`I#g`4ab`e`k.K`P.ZaI.YaHaO`caP#k#g",
".0.F#2`N#F#3.Q`y`y`y.7.7#W#W`b#W.7#f#f.Q.2#J.T`8aMaHa.aM.n`d.h#g",
"#g#g#g`X.0`C.F`N`u#3.Q#f`y#W`b`2`2`2`2`2am.q#L`L.##7`..8.5.c`p#g",
"#g#g#g#g.`.7`2`2`2`2`2`2`2`2#W`y.Q`3`3#3aPay.I#E`q.L.j`A`Z`e#g#g",
"#g#g#g#g.0.F`u.Q#f`y#W`b`2`2`2`b#W.7`y#faPax`.`0#qae#s`RaJ#g#g#g",
"#g#g#g#g#g`I.0.d.S`C#8.F#2#2`N#F#F#F#F#3.p#7.m`G#e.JaJ#g#g#g#g#g",
"#g#g#g#g#g#g#g#g#g#g#g#g`I`I`I`X.0.0.0`X`X`I#g#g#g#g#g#g#g#g#g#g",
"#g#g#g#g#g#g#g#g#g#g#g#g#g#g#g#g#g#g#g#g#g#g#g#g#g#g#g#g#g#g#g#g",
"#g#g#g#g#g#g#g#g#g#g#g#g#g#g#g#g#g#g#g#g#g#g#g#g#g#g#g#g#g#g#g#g"
};
