/* XPM */
static char *poke_xpm[] = {
/* width height num_colors chars_per_pixel */
"    32    32      256            2",
/* colors */
"`` c #c4c2c4",
"`. c #a4a6ac",
"`# c #acaebc",
"`a c #8482a4",
"`b c #7c7eb4",
"`c c #7c82cc",
"`d c #5462ac",
"`e c #bcbabc",
"`f c #9496ac",
"`g c #8c8aac",
"`h c #6472c4",
"`i c #747acc",
"`j c #546acc",
"`k c #4c76a4",
"`l c #5c86ac",
"`m c #5c8aac",
"`n c #3c567c",
"`o c #54567c",
"`p c #a4a6a4",
"`q c #7476a4",
"`r c #7c7abc",
"`s c #5c6ec4",
"`t c #5c76c4",
"`u c #4c7ab4",
"`v c #6c96bc",
"`w c #74a2bc",
"`x c #5482ac",
"`y c #646684",
"`z c #b4b6b4",
"`A c #5466c4",
"`B c #3c66a4",
"`C c #6c96b4",
"`D c #b4b2b4",
"`E c #64668c",
"`F c #344684",
"`G c #6492b4",
"`H c #44567c",
"`I c #4c5a84",
"`J c #4c6a9c",
"`K c #3c568c",
"`L c #6486b4",
"`M c #94969c",
"`N c #4c5a8c",
"`O c #445e94",
"`P c #2c56ac",
"`Q c #244aa4",
"`R c #3c5a9c",
"`S c #5466ac",
"`T c #949294",
"`U c #444a7c",
"`V c #4c6ea4",
"`W c #6492bc",
"`X c #3c66ac",
"`Y c #2c56c4",
"`Z c #1c42ac",
"`0 c #2b51aa",
"`1 c #4a6490",
"`2 c #2c42b4",
"`3 c #4c52a4",
"`4 c #44568c",
"`5 c #345ea4",
"`6 c #1c3eac",
"`7 c #245ab4",
"`8 c #345ebc",
".` c #b0b059",
".. c #eed826",
".# c #5e6443",
".a c #24266c",
".b c #9c9eac",
".c c #3c62bc",
".d c #244eb4",
".e c #1c42b4",
".f c #042674",
".g c #3c66c4",
".h c #4b7787",
".i c #f3dc23",
".j c #e8d326",
".k c #236b93",
".l c #0c2254",
".m c #142274",
".n c #9c9e9c",
".o c #34366c",
".p c #0c2274",
".q c #0c3294",
".r c #1c36a4",
".s c #3c66cc",
".t c #2c2a94",
".u c #0472bc",
".v c #0472c4",
".w c #0c72b7",
".x c #d1cb39",
".y c #729a71",
".z c #0466b4",
".A c #045ea4",
".B c #041a44",
".C c #1c1e64",
".D c #54526c",
".E c #36347b",
".F c #635e7d",
".G c #3531a1",
".H c #0c2684",
".I c #244eac",
".J c #04429c",
".K c #04529c",
".L c #83a86b",
".M c #c6c03b",
".N c #0767ba",
".O c #042264",
".P c #0c1664",
".Q c #242e94",
".R c #242644",
".S c #35325f",
".T c #d2c535",
".U c #a1a64e",
".V c #698c72",
".W c #2e749a",
".X c #0466bc",
".Y c #046abc",
".Z c #046ebc",
".0 c #3186a6",
".1 c #edd927",
".2 c #f0da25",
".3 c #3a4a64",
".4 c #243ebc",
".5 c #8c8e8c",
".6 c #7c7e7c",
".7 c #747674",
".8 c #4c4a54",
"#` c #3d3643",
"#. c #b4ab3d",
"## c #e8d325",
"#a c #ebd728",
"#b c #b5bc49",
"#c c #80a36d",
"#d c #4f8b86",
"#e c #bfbb3b",
"#f c #8b9958",
"#g c #045eac",
"#h c #041244",
"#i c #848684",
"#j c #747274",
"#k c #14163c",
"#l c #0c0e64",
"#m c #0452ac",
"#n c #2b769c",
"#o c #649375",
"#p c #9c9d43",
"#q c #cec434",
"#r c #eed926",
"#s c #c6bd38",
"#t c #9a9841",
"#u c #699377",
"#v c #39839a",
"#w c #0c6eb7",
"#x c #046ec4",
"#y c #044684",
"#z c #54565c",
"#A c #0c0a4c",
"#B c #0c1a7c",
"#C c #156baa",
"#D c #4a8689",
"#E c #817e43",
"#F c #a9a239",
"#G c #ccc338",
"#H c #9fb259",
"#I c #6f9d78",
"#J c #428894",
"#K c #126da4",
"#L c #044a8c",
"#M c #04164c",
"#N c #0c0e6c",
"#O c #045aac",
"#P c #99ae5a",
"#Q c #928f3d",
"#R c #64684a",
"#S c #948c3e",
"#T c #c0b431",
"#U c #eed825",
"#V c #d4cc36",
"#W c #a4b04b",
"#X c #696836",
"#Y c #1c1e6c",
"#Z c #0c1a74",
"#0 c #e2d12a",
"#1 c #2677a0",
"#2 c #046ab4",
"#3 c #2e7b9a",
"#4 c #5b8e7f",
"#5 c #8b8d43",
"#6 c #b8b43f",
"#7 c #e8d529",
"#8 c #ada834",
"a` c #0c0a44",
"a. c #34329c",
"a# c #a4a6b4",
"aa c #242244",
"ab c #1c1ea4",
"ac c #50918b",
"ad c #c3bc38",
"ae c #0462b4",
"af c #265b7d",
"ag c #5b6153",
"ah c #5a5577",
"ai c #2c2ec4",
"aj c #2426a4",
"ak c #9c9eb4",
"al c #a4b655",
"am c #6f7147",
"an c #04468c",
"ao c #0c2674",
"ap c #3c3ec4",
"aq c #2c2ea4",
"ar c #24223c",
"as c #0f73b5",
"at c #1d72a5",
"au c #04366c",
"av c #041a64",
"aw c #1c1e84",
"ax c #3c3ad4",
"ay c #7c7aac",
"az c #5b9184",
"aA c #b8b037",
"aB c #0462ac",
"aC c #04123c",
"aD c #3436c4",
"aE c #2426ac",
"aF c #6c6a9c",
"aG c #646664",
"aH c #0446a4",
"aI c #b0b247",
"aJ c #646f4f",
"aK c #043a74",
"aL c #0c125c",
"aM c #242a94",
"aN c #6c6aa4",
"aO c #155ca2",
"aP c #f0da24",
"aQ c #155c9b",
"aR c #04569c",
"aS c #3c3aac",
"aT c #667d65",
"aU c #ada336",
"aV c #043274",
"aW c #242294",
"aX c #3c3a44",
"aY c #6e633b",
"aZ c #dfcd28",
"a0 c #5e5c48",
"a1 c #64666c",
"a2 c #141684",
"a3 c #292aa9",
"a4 c #54569c",
"a5 c #a4a2bc",
"a6 c #000000",
"a7 c #000000",
"a8 c #000000",
/* pixels */
"```````````````````````````````.````````````````````````````````",
"```````````````````````#`a`b`c`d`d``````````````````````````````",
"```e```e```e```e`f`g`h`i`j`k`l`m`n`o`#```e```e```e```e```e`````e",
"`````````p`q`r`s`j`t`u`v`w`w`w`w`x`n`y`z```````````````````e````",
"`````y`t`A`u`B`x`C`w`w`w`w`w`w`w`w`x`n`y`D`e`````e`````e````````",
"`````E`F`x`G`w`w`w`w`w`w`w`v`w`v`w`w`G`n`H`p`````````````````e``",
"```e`z`I`J`w`w`v`w`w`v`w`w`w`w`w`w`w`w`C`I`I`p`````````````````e",
"`````e```K`L`w`w`w`w`w`w`v`w`w`w`w`w`w`w`v`H`H`M`````e```e``````",
"```````.`N`O`w`w`v`w`w`w`w`w`v`w`v`u`P`Q`J`R`S`r`e`````````````e",
"`````````T`U`V`w`w`w`w`v`w`w`W`X`Y`Z`0`1`2`3`a``````````````````",
"```e```````o`4`v`w`v`w`v`5`Y`6`6`7`8.`...#.a.b`e`````e```````e``",
"`````e`````#`U`V`W.c.d.e.f`2`8.g`7.h.i.j.k.l.m.n````````````````",
"```````e```#.o.p.q.r.r.s`2.t.u.v.w.x.i.y.z.A.B.C.b```e```````e``",
"```e``.D.E.F.G.H.d`Y.I.J.K.v.v.v.L.i.M.N.u.v.O.P.Q.n````````````",
"```e`z.R.S.i.i.T.U.V.W.X.Y.Z.v.0.1.2.3.X.v.v.v.4.B.C.5`e`````e``",
"`z.6.7.8#`#.##.i.i.i.i#a#b#c#d#e.i#f#g.Y.v.u.v.u.A#h.m.b````````",
"`D#i#j#j#k#l#m#n#o#p#q.i.i.i#r#s#r#t#u#v#w.Y#x.u.v#y#h.C.b`e````",
"``#i.7#j#z#A#B.Y.Y.z.z#C#D#E#F.i.i.i.i.i.i#G#H#I#J#K#L#M.m.n````",
"```p.7.7#j.R#N#O#x.v.u.v.Y.z#P.i#Q#R#S#T#U.i.i.i.i.i#V#W#X#Y`g`e",
"````.5#j#j#z#A#Z.u.v.v.u.v.w#0.i#1.Y#2.Y.X#3#4#5#6#7.i.i#8a`a.a#",
"```e.n.6#j#jaa#lab.v.v.v.vac.iad.Z.v.v.v.u.v.Z#2ae#gafagahaiajak",
"`````e.7.7#j#z#A#B.X.v.u#xal.iam.Z.v.u.v.v.v.v#2anao.Qapaq`b````",
"``````.n.7#j#jar#l.J.v.vas#a.2at.Z.v.v.v.u.vauavawaxaqay````````",
"```````##i#j#j.8#A#B.z.vaz.iaAae.v.v.uaBaC#l.taDaEaF`#``````````",
"```````z`M.7.7aGaa#NaH.YaI.iaJae.Z.ZaKaLawawaMaNak```````e```e``",
"`e```````p.6#j#j.8a`#BaOaPaPaQaRaKaLaMaDaSaN````````````````````",
"`````````z.5#j#j#jaa#NaT.iaUaV.paWaiajaN`#`````e`````e`e```e````",
"```e```e``.n.7.7#jaXa`aYaZa0aWaiabaN.b`````````````e````````````",
"```````````z.5#j#ja1aa#la2a3abay.b```e`````e`e```````````````e``",
"```e```e`````M.7.7`Ma1a2aba4.b```````````e``````````````````````",
"`````````e```z.n`e`e`Ma4a5```e```````e```````````e`````z```````e",
"`e`````````e`````````````e`````````e````````````````````````````"
};
