/* XPM */
static char *ppipe_xpm[] = {
/* width height num_colors chars_per_pixel */
"    32    32      256            2",
/* colors */
"`` c #c1c1c1",
"`. c #b3b4bb",
"`# c #7980a5",
"`a c #4e5994",
"`b c #303e89",
"`c c #1c2b81",
"`d c #10207c",
"`e c #0b1c7a",
"`f c #b6b7bd",
"`g c #626b9c",
"`h c #233587",
"`i c #173086",
"`j c #174194",
"`k c #1052a6",
"`l c #0864b9",
"`m c #0373ca",
"`n c #007dd6",
"`o c #0373cb",
"`p c #0764b8",
"`q c #0e51a4",
"`r c #164094",
"`s c #223587",
"`t c #a6a8b6",
"`u c #2d458f",
"`v c #12338a",
"`w c #0655ae",
"`x c #007ed7",
"`y c #0654ad",
"`z c #11318a",
"`A c #2b438e",
"`B c #2d4b95",
"`C c #093590",
"`D c #0173cd",
"`E c #026fc6",
"`F c #064697",
"`G c #092e82",
"`H c #0a237b",
"`I c #0a1d7a",
"`J c #0a1b7a",
"`K c #0a237c",
"`L c #064597",
"`M c #026fc5",
"`N c #274893",
"`O c #0a2381",
"`P c #035fba",
"`Q c #092b7d",
"`R c #0a2662",
"`S c #0a3764",
"`T c #0a416a",
"`U c #0a4670",
"`V c #0a4771",
"`W c #0a4770",
"`X c #0a436b",
"`Y c #0a3966",
"`Z c #0a2765",
"`0 c #092b7c",
"`1 c #0360bb",
"`2 c #0a2380",
"`3 c #bfbfc0",
"`4 c #0a1c7b",
"`5 c #026ec8",
"`6 c #092a7c",
"`7 c #0a426b",
"`8 c #0a4671",
".` c #0a4772",
".. c #0a436c",
".# c #0a2865",
".a c #092a7b",
".b c #0453af",
".c c #b0b2bb",
".d c #0b1e7c",
".e c #092785",
".f c #064496",
".g c #0a227b",
".h c #026ec4",
".i c #082f8b",
".j c #0a1c7a",
".k c #bbbbbe",
".l c #0a1f79",
".m c #0a1e78",
".n c #092d87",
".o c #0553ae",
".p c #092d88",
".q c #0c2a80",
".r c #0a2079",
".s c #0a2278",
".t c #0a2f74",
".u c #0a2379",
".v c #09267e",
".w c #07368c",
".x c #064ca2",
".y c #0461b7",
".z c #0272ca",
".A c #0b3b92",
".B c #0c2a83",
".C c #0d2b84",
".D c #124492",
".E c #144d98",
".F c #0a1d7b",
".G c #aaaaaa",
".H c #8b8b8b",
".I c #727272",
".J c #626262",
".K c #0a2178",
".L c #0b456e",
".M c #0b426f",
".N c #093472",
".O c #0a1e79",
".P c #0a247d",
".Q c #0a217c",
".R c #0a257d",
".S c #103a8c",
".T c #144e98",
".U c #1968a8",
".V c #1a6fac",
".W c #134c97",
".X c #9e9e9e",
".Y c #6f6f6f",
".Z c #606060",
".0 c #0b3b85",
".1 c #0c578e",
".2 c #0b4287",
".3 c #134895",
".4 c #0e1f7b",
".5 c #0a2378",
".6 c #0a2078",
".7 c #091f78",
".8 c #0b3282",
"#` c #0b4187",
"#. c #134996",
"## c #114191",
"#a c #10227c",
"#b c #232f72",
"#c c #0b416f",
"#d c #092376",
"#e c #0a277e",
"#f c #124794",
"#g c #0f3589",
"#h c #16287f",
"#i c #263172",
"#j c #0b3d70",
"#k c #082476",
"#l c #124694",
"#m c #0e3288",
"#n c #1b2c7f",
"#o c #273271",
"#p c #0b3a71",
"#q c #082575",
"#r c #0a237d",
"#s c #0e3086",
"#t c #203082",
"#u c #2a3570",
"#v c #0a1d79",
"#w c #0b3772",
"#x c #082774",
"#y c #0e2e85",
"#z c #2e3c87",
"#A c #2c3770",
"#B c #0b3473",
"#C c #072973",
"#D c #0a207c",
"#E c #124593",
"#F c #0d2d85",
"#G c #414d8f",
"#H c #323b6e",
"#I c #0b3074",
"#J c #072c72",
"#K c #0a1f7b",
"#L c #0d2c84",
"#M c #525d96",
"#N c #474c68",
"#O c #0b3373",
"#P c #062d71",
"#Q c #0c528c",
"#R c #124493",
"#S c #15569d",
"#T c #646d9d",
"#U c #808080",
"#V c #5d5e61",
"#W c #0a2d75",
"#X c #0b3b71",
"#Y c #062e71",
"#Z c #0c4d8b",
"#0 c #114783",
"#1 c #0f3489",
"#2 c #9da0b3",
"#3 c #a8a8a8",
"#4 c #6e6e6e",
"#5 c #5b5d60",
"#6 c #092571",
"#7 c #0a2a76",
"#8 c #0b4789",
"a` c #196caa",
"a. c #0d307f",
"a# c #757d9f",
"aa c #c0c0c1",
"ab c #bebebe",
"ac c #949494",
"ad c #5b6266",
"ae c #11326e",
"af c #091f79",
"ag c #092179",
"ah c #0b2e80",
"ai c #0b4588",
"aj c #0b3783",
"ak c #0c277f",
"al c #0b237c",
"am c #0f247b",
"an c #4f5f8e",
"ao c #c0c0c0",
"ap c #b4b4b4",
"aq c #a0a3a4",
"ar c #778691",
"as c #355481",
"at c #19367d",
"au c #0e267b",
"av c #0b1e7a",
"aw c #0b1d7a",
"ax c #0b1e7b",
"ay c #152a7d",
"az c #4e5f90",
"aA c #a8acb5",
"aB c #000000",
"aC c #000000",
"aD c #000000",
"aE c #000000",
"aF c #000000",
"aG c #000000",
"aH c #000000",
"aI c #000000",
"aJ c #000000",
"aK c #000000",
"aL c #000000",
"aM c #000000",
"aN c #000000",
"aO c #000000",
"aP c #000000",
"aQ c #000000",
"aR c #000000",
"aS c #000000",
"aT c #000000",
"aU c #000000",
"aV c #000000",
"aW c #000000",
"aX c #000000",
"aY c #000000",
"aZ c #000000",
"a0 c #000000",
"a1 c #000000",
"a2 c #000000",
"a3 c #000000",
"a4 c #000000",
"a5 c #000000",
"a6 c #000000",
"a7 c #000000",
"a8 c #000000",
/* pixels */
"````````````````````````````````````````````````````````````````",
"````````````````````````````````````````````````````````````````",
"````````````````````````````````````````````````````````````````",
"````````````````````````````````````````````````````````````````",
"````````````````````````````````````````````````````````````````",
"`````````````````````.`#`a`b`c`d`e`d`c`b`a`#`.``````````````````",
"`````````````````f`g`h`i`j`k`l`m`n`o`p`q`r`i`s`g`f``````````````",
"```````````````t`u`v`w`x`x`x`x`x`x`x`x`x`x`x`y`z`A`t````````````",
"```````````````B`C`D`x`E`F`G`H`I`J`I`K`G`L`M`x`D`C`N````````````",
"```````````````O`P`x`x`Q`R`S`T`U`V`W`X`Y`Z`0`x`x`1`2`3``````````",
"```````````````4`5`x`x`6`R`S`7`8.``V..`Y.#.a`x`x.b`4.c``````````",
"``````````````.d.e`D`x`M.f`G.g`I`J`I`K`G.f.h`x`D.i.j.k``````````",
"``````````````.l.m.n.o`x`x`x`x`x`x`x`x`x`x`x.o.p.q`4````````````",
"``````````````.r.s.t.u.v.w.x.y.z`n.z.y.x.A.B.C.D.E.F````````````",
"``````.G.H.I.J.K.s.L.M.N.O.P.Q.F`J.F.Q.R.S.T.U.V.W.d````````````",
"````.X.Y.Z.Z.Z.s.K.L.L.L.O.0.1.1.1.1.2.j.E.V.V.V.3.4````````````",
"``.G.Y.Z.Z.Z.Z.5.6.L.L.L.7.8.1.1.1.1#``J#..V.V.V###a````````````",
"``.H.Z.Z.Z.Z.Z#b.O#c.L.L#d#e.1.1.1.1.2.j#f.V.V.V#g#h````````````",
"``.I.Z.Z.Z.Z.Z#i.O#j.L.L#k.R.1.1.1.1.2.j#l.V.V.V#m#n````````````",
"``.J.Z.Z.Z.Z.Z#o.O#p.L.L#q#r.1.1.1.1.2`J#l.V.V.V#s#t````````````",
"``.I.Z.Z.Z.Z.Z#u#v#w.L.L#x.Q.1.1.1.1.2.j#l.V.V.V#y#z````````````",
"``.H.Z.Z.Z.Z.Z#A#v#B.L.L#C#D.1.1.1.1.2.j#E.V.V.V#F#G````````````",
"``.G.Y.Z.Z.Z.Z#H#v#I.L.L#J#K.1.1.1.1.2.j#E.V.V.V#L#M````````````",
"````.X.Y.Z.Z.Z#N.l#O.L.L#P#K#Q.1.1.1.2.j#R.V.V#S.C#T````````````",
"``````.G#U.Z.Z#V#W.O#X.L#Y#D#Z.1.1.1.2.j#R.V.V#0#1#2````````````",
"``````````#3#4.Z#5#6#v#7#Y.Q#8.1.1.1.2.j.Da`#Sa.a#aa````````````",
"````````````abac.Yadaeafagah#`aiaiaiaj.jakalamanao``````````````",
"````````````````abapaqarasatauav.j.jawaxayazaA``````````````````",
"```````````````````````````````````````3ao``````````````````````",
"````````````````````````````````````````````````````````````````",
"````````````````````````````````````````````````````````````````",
"````````````````````````````````````````````````````````````````"
};
