/* XPM */
static char *pplane_xpm[] = {
/* width height num_colors chars_per_pixel */
"    32    32      256            2",
/* colors */
"`` c #c1c1c1",
"`. c #565697",
"`# c #68689e",
"`a c #8b8baa",
"`b c #afafba",
"`c c #aeaeb6",
"`d c #33338a",
"`e c #093797",
"`f c #016dc4",
"`g c #064498",
"`h c #0a2c89",
"`i c #2e398d",
"`j c #68689c",
"`k c #8c8caf",
"`l c #9c9cae",
"`m c #343490",
"`n c #09328e",
"`o c #007bd2",
"`p c #0356ab",
"`q c #0f1d8e",
"`r c #06449e",
"`s c #0b227f",
"`t c #565695",
"`u c #8b8bac",
"`v c #9d9db3",
"`w c #9d9db1",
"`x c #202083",
"`y c #0b2685",
"`z c #0b2788",
"`A c #0b2a8f",
"`B c #0461be",
"`C c #026ec7",
"`D c #035aad",
"`E c #10107d",
"`F c #016ec5",
"`G c #0262b3",
"`H c #044ea1",
"`I c #0d0d65",
"`J c #0e1a84",
"`K c #202075",
"`L c #7a7aa5",
"`M c #9d9db2",
"`N c #8b8ba8",
"`O c #0f0f7a",
"`P c #016ec7",
"`Q c #0262b6",
"`R c #054aa0",
"`S c #0a2683",
"`T c #0c1c7c",
"`U c #0e1e8c",
"`V c #0a389e",
"`W c #0363bd",
"`X c #016fc5",
"`Y c #045ab2",
"`Z c #10107c",
"`0 c #016fc7",
"`1 c #006ec1",
"`2 c #0360b7",
"`3 c #063d92",
"`4 c #0c1771",
"`5 c #31317b",
"`6 c #7a7aaa",
"`7 c #79799f",
"`8 c #0456ad",
".` c #016dc3",
".. c #0e1e8d",
".# c #06449d",
".a c #073990",
".b c #0b2789",
".c c #0c1a7b",
".d c #09389a",
".e c #0653b3",
".f c #10107b",
".g c #026ec8",
".h c #0265b9",
".i c #565693",
".j c #0c1974",
".k c #0e0e72",
".l c #093899",
".m c #016ec6",
".n c #016dc1",
".o c #10107f",
".p c #09328f",
".q c #016fc3",
".r c #0356a8",
".s c #0f0f78",
".t c #0d1b7f",
".u c #0653b1",
".v c #0a257e",
".w c #454593",
".x c #10107e",
".y c #0262b7",
".z c #054395",
".A c #0e1d88",
".B c #0f0f73",
".C c #016fc8",
".D c #083188",
".E c #0c2b95",
".F c #073e95",
".G c #0a237c",
".H c #0d0d6b",
".I c #0b217b",
".J c #22228a",
".K c #9d9daf",
".L c #afafb8",
".M c #33338b",
".N c #0d1c81",
".O c #0f0f75",
".P c #0b2a89",
".Q c #0e0e70",
".R c #0d1d83",
".S c #064ba6",
".T c #0360bb",
".U c #054fa5",
".V c #006bbc",
".W c #0c0c61",
".X c #68689f",
".Y c #1f1f71",
".Z c #0f0f79",
".0 c #0360b8",
".1 c #0c1c7d",
".2 c #0162b3",
".3 c #054a9f",
".4 c #0a2680",
".5 c #101080",
".6 c #0b2a90",
".7 c #0553b1",
".8 c #063889",
"#` c #222288",
"#. c #b7b7b7",
"## c #565664",
"#a c #2b2b5a",
"#b c #191965",
"#c c #0e0e6f",
"#d c #0b2a91",
"#e c #093795",
"#f c #0360b9",
"#g c #016dc2",
"#h c #0e1d86",
"#i c #0c2b93",
"#j c #083184",
"#k c #0d1b7d",
"#l c #0351a1",
"#m c #848484",
"#n c #606060",
"#o c #53535a",
"#p c #3f3f57",
"#q c #1f1f4d",
"#r c #19196b",
"#s c #0f0f74",
"#t c #0745a6",
"#u c #0d1a7c",
"#v c #016fc2",
"#w c #0355a4",
"#x c #0d1979",
"#y c #0d0d67",
"#z c #787878",
"#A c #343451",
"#B c #151553",
"#C c #0c0c63",
"#D c #0845a7",
"#E c #054aa2",
"#F c #111183",
"#G c #034d9a",
"#H c #676794",
"#I c #9c9c9c",
"#J c #6c6c6c",
"#K c #55555b",
"#L c #343452",
"#M c #20205a",
"#N c #0c0c5f",
"#O c #0c0c5d",
"#P c #212181",
"#Q c #a8a8a8",
"#R c #33334c",
"#S c #161659",
"#T c #0d0d69",
"#U c #0d1d84",
"#V c #044998",
"#W c #111184",
"#X c #29294f",
"#Y c #21215e",
"#Z c #0f0f76",
"#0 c #0b278a",
"#1 c #b4b4b4",
"#2 c #4a4a58",
"#3 c #29294b",
"#4 c #171760",
"#5 c #0e0e6e",
"#6 c #9d9db0",
"#7 c #737373",
"#8 c #898998",
"a` c #909090",
"a. c #000000",
"a# c #000000",
"aa c #000000",
"ab c #000000",
"ac c #000000",
"ad c #000000",
"ae c #000000",
"af c #000000",
"ag c #000000",
"ah c #000000",
"ai c #000000",
"aj c #000000",
"ak c #000000",
"al c #000000",
"am c #000000",
"an c #000000",
"ao c #000000",
"ap c #000000",
"aq c #000000",
"ar c #000000",
"as c #000000",
"at c #000000",
"au c #000000",
"av c #000000",
"aw c #000000",
"ax c #000000",
"ay c #000000",
"az c #000000",
"aA c #000000",
"aB c #000000",
"aC c #000000",
"aD c #000000",
"aE c #000000",
"aF c #000000",
"aG c #000000",
"aH c #000000",
"aI c #000000",
"aJ c #000000",
"aK c #000000",
"aL c #000000",
"aM c #000000",
"aN c #000000",
"aO c #000000",
"aP c #000000",
"aQ c #000000",
"aR c #000000",
"aS c #000000",
"aT c #000000",
"aU c #000000",
"aV c #000000",
"aW c #000000",
"aX c #000000",
"aY c #000000",
"aZ c #000000",
"a0 c #000000",
"a1 c #000000",
"a2 c #000000",
"a3 c #000000",
"a4 c #000000",
"a5 c #000000",
"a6 c #000000",
"a7 c #000000",
"a8 c #000000",
/* pixels */
"````````````````````````````````````````````````````````````````",
"````````````````````````````````````````````````````````````````",
"````````````````````````````````````````````````````````````````",
"````````````````````````````````````````````````````````````````",
"````````````````````````````````````````````````````````````````",
"````````````````````````````````````````````````````````````````",
"````````````````````````````````````````````````````````````````",
"````````````````````````````````````````````````````````````````",
"`````````````````````````.`#`a`b````````````````````````````````",
"`````````````````````c`d`e`f`g`h`i`j`k`b````````````````````````",
"```````````````````l`m`n`o`o`o`o`p`q`r`s`i`t`u`v````````````````",
"`````````````````w`x`y`z`A`B`C`D`E`F`o`o`G`H`I`J`K`#`L`M````````",
"```````````````N`O`P`o`Q`R`S`T`U`V`W`X`o`o`Y`Z`0`1`2`3`4`5`6````",
"`````````````7`O`8`o`o`o`o.`...#.a.b.c.d.e.f.g`o`o`o`o.h`E`w````",
"``````````.i`E.j.k.l.g.m.n.o.p`o`o`o.q.r`Z.s.t.u.g`P`o.v.w``````",
"`````````d.x.m`o.y.z`S.k.A.B.C`o`o`o`o.D.E`o.r.F.G.H.I.J.K``````",
"````.L.M.N`o`o`o`o`o`0.O.P`n.Q.R.S.T.U.x`P`o`o`o`o.V.W.X````````",
"```c.Y.Z.S.0`o`o`o`o`E.1`o`o.2.3.4`T.5.6.7`F`o`o`o.8#``c````````",
"``#.###a#b#c#d#e#f.A.A#g`o`o`o`o`o#h#i#j#k.O.d.e#l.f`t``````````",
"``#m#n#n#o#p#q#r#s.O#t`C`o`o`o`o#u.o.``o#v#w.##x#y.Z````````````",
"``````#m#z#n#n#n#A#B#C#s`A#D`C#E#F`C`o`o`o`o`o#G#F#H````````````",
"``````````#I#m#J#n#n#K#L#M#N.O.o`V`C`o`o`o`o`o#O#P``````````````",
"````````````````#Q#z#J#n#n#K#R#S#T.O#U.e`P`o#V#W#H``````````````",
"``````````````````````#I#z#n#n#n#K#X#Y#y#Z#0`O#P````````````````",
"``````````````````````````#1#m#J#n#n#n#2#3#4#5#6````````````````",
"````````````````````````````````#Q#m#J#n#n#7#8``````````````````",
"````````````````````````````````````#1a`#z#Q````````````````````",
"````````````````````````````````````````````````````````````````",
"````````````````````````````````````````````````````````````````",
"````````````````````````````````````````````````````````````````",
"````````````````````````````````````````````````````````````````",
"````````````````````````````````````````````````````````````````"
};
