/* XPM */
static char *ppyramid_xpm[] = {
/* width height num_colors chars_per_pixel */
"    32    32      256            2",
/* colors */
"`` c #00127c",
"`. c #006acc",
"`# c #003e9c",
"`a c #6c6a64",
"`b c #3c3e6c",
"`c c #002a8c",
"`d c #9c9a94",
"`e c #2c327c",
"`f c #0056ac",
"`g c #1c2a7c",
"`h c #008eec",
"`i c #2c3e7c",
"`j c #003294",
"`k c #004aa4",
"`l c #8c8284",
"`m c #b4b2b4",
"`n c #5c5664",
"`o c #646a94",
"`p c #007edc",
"`q c #143284",
"`r c #0c1e7c",
"`s c #6c728c",
"`t c #a4a6a4",
"`u c #1442a4",
"`v c #14267c",
"`w c #0062b4",
"`x c #009eff",
"`y c #003aa4",
"`z c #545e9c",
"`A c #0046ac",
"`B c #747674",
"`C c #64625c",
"`D c #0076d4",
"`E c #144aac",
"`F c #0c3e9c",
"`G c #444e74",
"`H c #0c2e8c",
"`I c #0096f4",
"`J c #0c328c",
"`K c #0052ac",
"`L c #949294",
"`M c #bcbebc",
"`N c #14227c",
"`O c #9c9ab4",
"`P c #005eb4",
"`Q c #6c6e7c",
"`R c #002a9c",
"`S c #3c366c",
"`T c #1c3684",
"`U c #5c5e64",
"`V c #0086e4",
"`W c #001e8c",
"`X c #0072d4",
"`Y c #0056bc",
"`Z c #008eff",
"`0 c #344684",
"`1 c #0c4aac",
"`2 c #acaaac",
"`3 c #444e94",
"`4 c #00167c",
"`5 c #006edc",
"`6 c #74726c",
"`7 c #0c2684",
"`8 c #a4a2a4",
".` c #343a6c",
".. c #1c3284",
".# c #004eb4",
".a c #7c82a4",
".b c #bcbab4",
".c c #0062c4",
".d c #0c42ac",
".e c #0c329c",
".f c #006ecc",
".g c #0042ac",
".h c #746e74",
".i c #9c9ea4",
".j c #0092ec",
".k c #003694",
".l c #004ea4",
".m c #0082ec",
".n c #143a9c",
".o c #142e94",
".p c #00a6ff",
".q c #847e84",
".r c #6c6674",
".s c #007ae4",
".t c #0c429c",
".u c #544e64",
".v c #9492ac",
".w c #c4c2bc",
".x c #5c5e74",
".y c #0c228c",
".z c #0c2a84",
".A c #0c0e74",
".B c #00429c",
".C c #6c6e74",
".D c #4c4264",
".E c #9c9e9c",
".F c #34326c",
".G c #005ab4",
".H c #1c2e8c",
".I c #344274",
".J c #b4b6b4",
".K c #5c5674",
".L c #646ea4",
".M c #0082dc",
".N c #14329c",
".O c #0c2284",
".P c #7c7ea4",
".Q c #9ca6bc",
".R c #142a8c",
".S c #0c3a9c",
".T c #7c7e7c",
".U c #64665c",
".V c #007adc",
".W c #009aff",
".X c #0c3694",
".Y c #0c52ac",
".Z c #9ca2b4",
".0 c #008ae4",
".1 c #00228c",
".2 c #005abc",
".3 c #344694",
".4 c #acaebc",
".5 c #848aac",
".6 c #0066c4",
".7 c #001284",
".8 c #006ad4",
"#` c #003ea4",
"#. c #8c8e94",
"## c #7476a4",
"#a c #243e94",
"#b c #44325c",
"#c c #7c7684",
"#d c #747284",
"#e c #9c9694",
"#f c #1c3a94",
"#g c #8c8eac",
"#h c #4c4e6c",
"#i c #0c2a94",
"#j c #645e5c",
"#k c #24327c",
"#l c #645e6c",
"#m c #a4a6b4",
"#n c #0c46ac",
"#o c #0c167c",
"#p c #2c3674",
"#q c #1c2e84",
"#r c #14368c",
"#s c #142a84",
"#t c #9c9eac",
"#u c #54526c",
"#v c #6c6e64",
"#w c #5c5a64",
"#x c #1446a4",
"#y c #00a2ff",
"#z c #0092ff",
"#A c #344a84",
"#B c #acaeac",
"#C c #445294",
"#D c #0c369c",
"#E c #00aaff",
"#F c #9496ac",
"#G c #3c3e74",
"#H c #9c9a9c",
"#I c #0056b4",
"#J c #008ef4",
"#K c #00329c",
"#L c #004aac",
"#M c #646a9c",
"#N c #0c1e84",
"#O c #0062bc",
"#P c #0076dc",
"#Q c #0c3ea4",
"#R c #0c2e94",
"#S c #0096ff",
"#T c #0c3294",
"#U c #0052b4",
"#V c #bcbec4",
"#W c #142284",
"#X c #005ebc",
"#Y c #0c268c",
"#Z c #343a74",
"#0 c #bcbabc",
"#1 c #0062cc",
"#2 c #006ed4",
"#3 c #0092f4",
"#4 c #00369c",
"#5 c #004eac",
"#6 c #0c42a4",
"#7 c #c4c2c4",
"#8 c #0c2a8c",
"a` c #b4b6bc",
"a. c #0082e4",
"a# c #0c3aa4",
"aa c #646664",
"ab c #008aec",
"ac c #002294",
"ad c #005ac4",
"ae c #000000",
"af c #000000",
"ag c #000000",
"ah c #000000",
"ai c #000000",
"aj c #000000",
"ak c #000000",
"al c #000000",
"am c #000000",
"an c #000000",
"ao c #000000",
"ap c #000000",
"aq c #000000",
"ar c #000000",
"as c #000000",
"at c #000000",
"au c #000000",
"av c #000000",
"aw c #000000",
"ax c #000000",
"ay c #000000",
"az c #000000",
"aA c #000000",
"aB c #000000",
"aC c #000000",
"aD c #000000",
"aE c #000000",
"aF c #000000",
"aG c #000000",
"aH c #000000",
"aI c #000000",
"aJ c #000000",
"aK c #000000",
"aL c #000000",
"aM c #000000",
"aN c #000000",
"aO c #000000",
"aP c #000000",
"aQ c #000000",
"aR c #000000",
"aS c #000000",
"aT c #000000",
"aU c #000000",
"aV c #000000",
"aW c #000000",
"aX c #000000",
"aY c #000000",
"aZ c #000000",
"a0 c #000000",
"a1 c #000000",
"a2 c #000000",
"a3 c #000000",
"a4 c #000000",
"a5 c #000000",
"a6 c #000000",
"a7 c #000000",
"a8 c #000000",
/* pixels */
"#7#7#7#7#7#7#7#7#7#7#7#7#7#7#7#7#7#7#7#7#7#7#7#7#7#7#7#7#7#7#7#7",
"#7#7#7#7#7#7#7#7#7#7#7#7#7#7#7#7#7#7#7#7#7#7#7#7#7#7#7#7#7#7#7#7",
"#7#7#7#7#7#7#7#7#7#7#7#7#7#7#7#7#7#7#7#7#7#7#7#7#7#7#7#7#7#7#7#7",
"#7#7#7#7#7#7#7#7#7#7#7#7#7#7#7#7#7#7#7#7#7#7#7#7#7#7#7#7#7#7#7#7",
"#7#7#7#7#7#7#7#7#7#7#7#7#7#7#7#7#7#7#7#7#7#7#7#7#7#7#7#7#7#7#7#7",
"#7#7#7#7#7#7#7#7#7#7#7#7#7#7#7#7#7#7#7#7#7#7#7#7#7#7#7#7#7#7#7#7",
"#7#7#7#7#7#7#7#7#7#7#7#7#7#7#7#7#7#7#7#7#7#7#7#7#7#7#7#7#7#7#7#7",
"#7#7#7#7#7#7#7#7#7#7#7#7#7#7.L`3.P.4#V#7#7#7#7#7#7#7#7#7#7#7#7#7",
"#7#7#7#7#7#7#7#7#7#7#7#7#t.H.O#a`H#Y.R`z`Oa`#7#7#7#7#7#7#7#7#7#7",
"#7#7#7#7#7#7#7#7#7#7#0`o.R#D.X#8#f#D#R#Y`7.R#C.a#ma`#7#7#7#7#7#7",
"#7#7#7#7#7#7#7#7`M.i#A.1#Q`E`u#N.A.A#T#T#8`7`r#N#W.3#M.5.Q#7#7#7",
"#7#7#7#7#7#7#7`m`s#s`R#x.n.o#Y#8`v.Sa##2.c.#`A#n#6.S#8#N#T#7#7#7",
"#7#7#7#7#7`M`L`0`c#K.N.R#Y.X`k.G`Ta.`A#1#y.W.Wab.V`..6#U#N#7#7#7",
"#7#7#7#7`t`Q..`W.y#8#T.B`K`P`P`k#6`V.M#Qad#y#S#S#3#3`I.j#R#7#7#7",
"#7#7`M.T`G`N.7.y`F`k.G`P`P`P`P.z.f`V`V`X.e#1`x#z#J#J`h#3#Y#7#7#7",
"#7`t.C`i``.1`k`f`w`P`P`P`P`P`f#8`V`V`V`V`.#D`5`x#z#J#J.W.O#7#7#7",
"#7.Eaa.Iac`P`P`P`P`P`P`P`P`P.k#5`V`V`V`V`V.6#4.s`x#z#3`x#Y#7#7#7",
"#7#0`6`U`q#L`P`P`P`P`P`P`P`P#o`p`V`V`V`V`V`V#I#D.m.W#z#y#ia`#7#7",
"#7#7.E.U#u`W#X`P`P`P`P`P`P.l`H`V`V`V`V`V`V`V`V`1.d`Z.W#y#T.4#7#7",
"#7#7#7.T`C#G#4`P`P`P`P`P`P.O#X`V`V`V`V`V`V`V`V`V#L.##z#E`y.Z#7#7",
"#7#7#7#B#v#w#q#L`P`P`P`P#O.A`V`V`V`V`V`V`V`V`V.0`V#8`Y.p.g#F#7#7",
"#7#7#7#7#H`C#h`H.G`P`P`P`##``V`V`V`V`V`V`V`V`V`V`V.M`F.8.##g#7#7",
"#7#7#7#7`M.T#j#Z`#`P`P`P`r.f`V`V`V`V`V`V`V`V`V`V`V`V.0#``y###7#7",
"#7#7#7#7#7`2`6`n`g#L`P`K#Y`V`V`V`V`V`V`V`V`V`V.V`..2`Y`j`4.v#7#7",
"#7#7#7#7#7#7`d`a.D`J`P.k#U`V`V`V`Vab#P.6#U`A#Q#r#k.F#b.K#d.J#7#7",
"#7#7#7#7#7#7#0.T`C.`.t`c`D.V.c.Y#6.S`T#p`S.D#l#c#.`8#B.J#0#7#7#7",
"#7#7#7#7#7#7#7`2`6`n`e#N.X`T#p`b.u.r.q`L`t.J#0.w#7#7#7#7#7#7#7#7",
"#7#7#7#7#7#7#7#7`L`B.r.x.h`l#e`2.b`M#7#7#7#7#7#7#7#7#7#7#7#7#7#7",
"#7#7#7#7#7#7#7#7#7`M`M`M.w#7#7#7#7#7#7#7#7#7#7#7#7#7#7#7#7#7#7#7",
"#7#7#7#7#7#7#7#7#7#7#7#7#7#7#7#7#7#7#7#7#7#7#7#7#7#7#7#7#7#7#7#7",
"#7#7#7#7#7#7#7#7#7#7#7#7#7#7#7#7#7#7#7#7#7#7#7#7#7#7#7#7#7#7#7#7",
"#7#7#7#7#7#7#7#7#7#7#7#7#7#7#7#7#7#7#7#7#7#7#7#7#7#7#7#7#7#7#7#7"
};
