/* XPM */
static char *pullbrush_xpm[] = {
/* width height num_colors chars_per_pixel */
"    32    32      256            2",
/* colors */
"`` c #c4c2c4",
"`. c #bcaeac",
"`# c #641a1c",
"`a c #9c4e4c",
"`b c #8c6a6c",
"`c c #7c0a0c",
"`d c #cc0e14",
"`e c #c4aaac",
"`f c #6c3a3c",
"`g c #ac0a0c",
"`h c #ff0e0c",
"`i c #b46664",
"`j c #6c0e0c",
"`k c #dc0a0c",
"`l c #ff0e14",
"`m c #6c4244",
"`n c #940a0c",
"`o c #a48684",
"`p c #741a14",
"`q c #ac9294",
"`r c #7c3234",
"`s c #f42a2c",
"`t c #b4a6a4",
"`u c #945a54",
"`v c #ec5254",
"`w c #bcb2b4",
"`x c #a48284",
"`y c #dc7e7c",
"`z c #bcbabc",
"`A c #cca6a4",
"`B c #748694",
"`C c #245e94",
"`D c #1c66ac",
"`E c #3c628c",
"`F c #949ea4",
"`G c #345674",
"`H c #145eb4",
"`I c #1c7ae4",
"`J c #2486e4",
"`K c #247adc",
"`L c #145294",
"`M c #7c8694",
"`N c #3c526c",
"`O c #1452a4",
"`P c #1c6ad4",
"`Q c #1c7ee4",
"`R c #2c8ee4",
"`S c #1c72d4",
"`T c #144a8c",
"`U c #747e84",
"`V c #546674",
"`W c #145ec4",
"`X c #1c6ee4",
"`Y c #2482e4",
"`Z c #3496e4",
"`0 c #2c92e4",
"`1 c #247edc",
"`2 c #1c62b4",
"`3 c #144274",
"`4 c #949a9c",
"`5 c #7c828c",
"`6 c #0c3e74",
"`7 c #1456ac",
"`8 c #1462cc",
".` c #1c72e4",
".. c #349eec",
".# c #3ca2ec",
".a c #1c6ecc",
".b c #1456a4",
".c c #143a64",
".d c #b4b2b4",
".e c #a4a6a4",
".f c #0c365c",
".g c #144e9c",
".h c #145ebc",
".i c #3ca6ec",
".j c #44aaec",
".k c #1c76d4",
".l c #144e8c",
".m c #344a64",
".n c #24425c",
".o c #144684",
".p c #1c66c4",
".q c #1c6edc",
".r c #1c82e4",
".s c #2c96e4",
".t c #3caaec",
".u c #4caeec",
".v c #1c6ac4",
".w c #145aa4",
".x c #144a84",
".y c #3c5664",
".z c #14427c",
".A c #14529c",
".B c #1c76e4",
".C c #1c86e4",
".D c #44aeec",
".E c #54b6ec",
".F c #2486dc",
".G c #1c76cc",
".H c #1c66bc",
".I c #14569c",
".J c #6c7a84",
".K c #445a6c",
".L c #0c3e6c",
".M c #144e94",
".N c #145aac",
".O c #1462c4",
".P c #1c6ed4",
".Q c #248ae4",
".R c #2c9ae4",
".S c #5cbaec",
".T c #248ee4",
".U c #1c7ed4",
".V c #1c72c4",
".W c #1c62ac",
".X c #143e6c",
".Y c #4c6274",
".Z c #84929c",
".0 c #a4aeb4",
".1 c #bcbebc",
".2 c #0c2a4c",
".3 c #0c3a6c",
".4 c #1462bc",
".5 c #1c6acc",
".6 c #1c72dc",
".7 c #1c8ae4",
".8 c #2496e4",
"#` c #1c6ebc",
"#. c #145ea4",
"## c #0c3254",
"#a c #0c3a64",
"#b c #2c527c",
"#c c #a4aab4",
"#d c #24466c",
"#e c #0c325c",
"#f c #1466c4",
"#g c #3caeec",
"#h c #54baec",
"#i c #2c9aec",
"#j c #248edc",
"#k c #1c66b4",
"#l c #0c3664",
"#m c #748a9c",
"#n c #1c76dc",
"#o c #34a2ec",
"#p c #248adc",
"#q c #14467c",
"#r c #5c7694",
"#s c #44668c",
"#t c #0c427c",
"#u c #1c7adc",
"#v c #4cb6ec",
"#w c #44b2ec",
"#x c #1c86d4",
"#y c #1c7acc",
"#z c #1462ac",
"#A c #8496ac",
"#B c #4cb2ec",
"#C c #349ee4",
"#D c #2492e4",
"#E c #1c82d4",
"#F c #1c76c4",
"#G c #1c6abc",
"#H c #1c5eac",
"#I c #b4babc",
"#J c #1462b4",
"#K c #1c72cc",
"#L c #1c7ad4",
"#M c #34aaec",
"#N c #34a2e4",
"#O c #2c92dc",
"#P c #1c8ad4",
"#Q c #1c7ac4",
"#R c #748eac",
"#S c #acb2bc",
"#T c #9caab4",
"#U c #8c9eb4",
"#V c #7c92ac",
"#W c #6c8eb4",
"#X c #5c86b4",
"#Y c #4c82bc",
"#Z c #3c7abc",
"#0 c #2c76c4",
"#1 c #1c7edc",
"#2 c #1c82dc",
"#3 c #3caae4",
"#4 c #34a6e4",
"#5 c #2ca2e4",
"#6 c #2c9ee4",
"#7 c #2492dc",
"#8 c #1c7ecc",
"a` c #1c6eb4",
"a. c #2c62a4",
"a# c #b4bec4",
"aa c #94aec4",
"ab c #649acc",
"ac c #3486cc",
"ad c #248ed4",
"ae c #2c96dc",
"af c #2c9adc",
"ag c #1c86cc",
"ah c #1462a4",
"ai c #145a9c",
"aj c #849eb4",
"ak c #84aac4",
"al c #4c96cc",
"am c #248ac4",
"an c #2c8ecc",
"ao c #2486c4",
"ap c #1c7abc",
"aq c #1c6eac",
"ar c #346a9c",
"as c #9cb2bc",
"at c #5c9abc",
"au c #348abc",
"av c #247ab4",
"aw c #1c6aa4",
"ax c #14629c",
"ay c #145694",
"az c #547ea4",
"aA c #1c5a8c",
"aB c #547a9c",
"aC c #000000",
"aD c #000000",
"aE c #000000",
"aF c #000000",
"aG c #000000",
"aH c #000000",
"aI c #000000",
"aJ c #000000",
"aK c #000000",
"aL c #000000",
"aM c #000000",
"aN c #000000",
"aO c #000000",
"aP c #000000",
"aQ c #000000",
"aR c #000000",
"aS c #000000",
"aT c #000000",
"aU c #000000",
"aV c #000000",
"aW c #000000",
"aX c #000000",
"aY c #000000",
"aZ c #000000",
"a0 c #000000",
"a1 c #000000",
"a2 c #000000",
"a3 c #000000",
"a4 c #000000",
"a5 c #000000",
"a6 c #000000",
"a7 c #000000",
"a8 c #000000",
/* pixels */
"```````````````````````````````.`#`a````````````````````````````",
"```````````````````````````````b`c`d`e``````````````````````````",
"`````````````````````````````.`f`g`h`i``````````````````````````",
"`````````````````````````````b`j`k`l`d`.````````````````````````",
"`````````````````````````````m`n`h`l`k`i````````````````````````",
"```````````````````````````````o`p`l````````````````````````````",
"```````````````````````````````o`p`l````````````````````````````",
"```````````````````````````````q`r`s````````````````````````````",
"```````````````````````````````t`u`v````````````````````````````",
"```````````````````````````````w`x`y````````````````````````````",
"```````````````````````````````z`t`A````````````````````````````",
"````````````````````````````````````````````````````````````````",
"```````````````````````````````B`C`D`E`F````````````````````````",
"`````````````````````````````G`H`I`J`K`L`M``````````````````````",
"```````````````````````````N`O`P`Q`R`J`S`T`U````````````````````",
"`````````````````````````V`T`W`X`Y`Z`0`1`2`3`4``````````````````",
"```````````````````````5`6`7`8.``R...#`J.a.b.c.d````````````````",
"````````````````````.e.f.g.h`P`I`0.i.j`0.k`H.l.m````````````````",
"````````````````````.n.o`7.p.q.r.s.t.u`Z`1.v.w.x`V``````````````",
"``````````````````.y.z.A.h`P.B.C.s.D.E.i.F.G.H.I`3.J````````````",
"````````````````.K.L.M.N.O.P`I.Q.R.D.S.j.T.U.V.W`L.X.Y.Z.0.1````",
"````````````.J.2.3`T.b.4.5.6.r.7.R.j.E.j.8.F.U#`#..l.L##.f#a#b`E",
"````````#c#d#e.L.x.A`H#f`S`I.r.Q.R#g#h.u#i#j.F.G#k.w.l`3#a#l.L`6",
"``````#m.L.L.z.x.I.N.4.5#n.r.C.T.R.t#h.D#o.8#p.U.V#k.I.l#q`3.X#r",
"``.1#s`3#t.o.l.A.N`H.v`S#u.r.C.T.R.t#v#w.t.R#j#x#y#`#z.b.M.o`E``",
"#A#q.z#t.o.M.g.b`H.p.a.k`Q`Q.C.T.R.t#B#w.t#C#D#p#E#F#G#H.A.M#I``",
".x#q.o.o`T.M.A.N#J.v#K#L#u.r.C.T.s.i#w.D#M#N#O#P#E#Q#`#k.I#R````",
"````#S#T#U#V#W#X#Y#Z#0.G.k#1#2#p.8#C#3#4#5#6#7#x#8#Fa`#za.``````",
"``````````````````````a#aaabac#xadaeafafafaeadag#Qa`ahaiaj``````",
"``````````````````````````````a#akalamamananaoapaqah.Iar````````",
"``````````````````````````````````````asatauavawaxaiay#T````````",
"````````````````````````````````````````````#IajazaAaB``````````"
};
