/* XPM */
static char *pullbrushdown_xpm[] = {
/* width height num_colors chars_per_pixel */
"    32    32      256            2",
/* colors */
"`` c #3b3b3b",
"`. c #ffffff",
"`# c #c4c2c4",
"`a c #bcaeac",
"`b c #6c3a3c",
"`c c #ac0a0c",
"`d c #ff0e0c",
"`e c #b46664",
"`f c #8c6a6c",
"`g c #6c0e0c",
"`h c #dc0a0c",
"`i c #ff0e14",
"`j c #cc0e14",
"`k c #6c4244",
"`l c #940a0c",
"`m c #a48684",
"`n c #741a14",
"`o c #ac9294",
"`p c #7c3234",
"`q c #f42a2c",
"`r c #b4a6a4",
"`s c #945a54",
"`t c #ec5254",
"`u c #bcb2b4",
"`v c #a48284",
"`w c #dc7e7c",
"`x c #bcbabc",
"`y c #cca6a4",
"`z c #748694",
"`A c #245e94",
"`B c #1c66ac",
"`C c #3c628c",
"`D c #949ea4",
"`E c #345674",
"`F c #145eb4",
"`G c #1c7ae4",
"`H c #2486e4",
"`I c #247adc",
"`J c #145294",
"`K c #7c8694",
"`L c #3c526c",
"`M c #1452a4",
"`N c #1c6ad4",
"`O c #1c7ee4",
"`P c #2c8ee4",
"`Q c #1c72d4",
"`R c #144a8c",
"`S c #747e84",
"`T c #546674",
"`U c #145ec4",
"`V c #1c6ee4",
"`W c #2482e4",
"`X c #3496e4",
"`Y c #2c92e4",
"`Z c #247edc",
"`0 c #1c62b4",
"`1 c #144274",
"`2 c #949a9c",
"`3 c #7c828c",
"`4 c #0c3e74",
"`5 c #1456ac",
"`6 c #1462cc",
"`7 c #1c72e4",
"`8 c #349eec",
".` c #3ca2ec",
".. c #1c6ecc",
".# c #1456a4",
".a c #143a64",
".b c #b4b2b4",
".c c #a4a6a4",
".d c #0c365c",
".e c #144e9c",
".f c #145ebc",
".g c #3ca6ec",
".h c #44aaec",
".i c #1c76d4",
".j c #144e8c",
".k c #344a64",
".l c #24425c",
".m c #144684",
".n c #1c66c4",
".o c #1c6edc",
".p c #1c82e4",
".q c #2c96e4",
".r c #3caaec",
".s c #4caeec",
".t c #1c6ac4",
".u c #145aa4",
".v c #144a84",
".w c #3c5664",
".x c #14427c",
".y c #14529c",
".z c #1c76e4",
".A c #1c86e4",
".B c #44aeec",
".C c #54b6ec",
".D c #2486dc",
".E c #1c76cc",
".F c #1c66bc",
".G c #14569c",
".H c #6c7a84",
".I c #445a6c",
".J c #0c3e6c",
".K c #144e94",
".L c #145aac",
".M c #1462c4",
".N c #1c6ed4",
".O c #248ae4",
".P c #2c9ae4",
".Q c #5cbaec",
".R c #248ee4",
".S c #1c7ed4",
".T c #1c72c4",
".U c #1c62ac",
".V c #143e6c",
".W c #4c6274",
".X c #84929c",
".Y c #a4aeb4",
".Z c #bcbebc",
".0 c #0c2a4c",
".1 c #0c3a6c",
".2 c #1462bc",
".3 c #1c6acc",
".4 c #1c72dc",
".5 c #1c8ae4",
".6 c #2496e4",
".7 c #1c6ebc",
".8 c #145ea4",
"#` c #0c3254",
"#. c #0c3a64",
"## c #a4aab4",
"#a c #24466c",
"#b c #0c325c",
"#c c #1466c4",
"#d c #3caeec",
"#e c #54baec",
"#f c #2c9aec",
"#g c #248edc",
"#h c #1c66b4",
"#i c #0c3664",
"#j c #748a9c",
"#k c #1c76dc",
"#l c #34a2ec",
"#m c #248adc",
"#n c #14467c",
"#o c #44668c",
"#p c #0c427c",
"#q c #1c7adc",
"#r c #4cb6ec",
"#s c #44b2ec",
"#t c #1c86d4",
"#u c #1c7acc",
"#v c #1462ac",
"#w c #4cb2ec",
"#x c #349ee4",
"#y c #2492e4",
"#z c #1c82d4",
"#A c #1c76c4",
"#B c #1c6abc",
"#C c #1c5eac",
"#D c #1462b4",
"#E c #1c72cc",
"#F c #1c7ad4",
"#G c #34aaec",
"#H c #34a2e4",
"#I c #2c92dc",
"#J c #1c8ad4",
"#K c #1c7ac4",
"#L c #748eac",
"#M c #acb2bc",
"#N c #9caab4",
"#O c #8c9eb4",
"#P c #7c92ac",
"#Q c #6c8eb4",
"#R c #5c86b4",
"#S c #4c82bc",
"#T c #3c7abc",
"#U c #2c76c4",
"#V c #1c7edc",
"#W c #1c82dc",
"#X c #3caae4",
"#Y c #34a6e4",
"#Z c #2ca2e4",
"#0 c #2c9ee4",
"#1 c #2492dc",
"#2 c #1c7ecc",
"#3 c #1c6eb4",
"#4 c #2c62a4",
"#5 c #b4bec4",
"#6 c #94aec4",
"#7 c #649acc",
"#8 c #3486cc",
"a` c #248ed4",
"a. c #2c96dc",
"a# c #2c9adc",
"aa c #1c86cc",
"ab c #1462a4",
"ac c #145a9c",
"ad c #849eb4",
"ae c #84aac4",
"af c #4c96cc",
"ag c #248ac4",
"ah c #2c8ecc",
"ai c #2486c4",
"aj c #1c7abc",
"ak c #1c6eac",
"al c #346a9c",
"am c #000000",
"an c #000000",
"ao c #000000",
"ap c #000000",
"aq c #000000",
"ar c #000000",
"as c #000000",
"at c #000000",
"au c #000000",
"av c #000000",
"aw c #000000",
"ax c #000000",
"ay c #000000",
"az c #000000",
"aA c #000000",
"aB c #000000",
"aC c #000000",
"aD c #000000",
"aE c #000000",
"aF c #000000",
"aG c #000000",
"aH c #000000",
"aI c #000000",
"aJ c #000000",
"aK c #000000",
"aL c #000000",
"aM c #000000",
"aN c #000000",
"aO c #000000",
"aP c #000000",
"aQ c #000000",
"aR c #000000",
"aS c #000000",
"aT c #000000",
"aU c #000000",
"aV c #000000",
"aW c #000000",
"aX c #000000",
"aY c #000000",
"aZ c #000000",
"a0 c #000000",
"a1 c #000000",
"a2 c #000000",
"a3 c #000000",
"a4 c #000000",
"a5 c #000000",
"a6 c #000000",
"a7 c #000000",
"a8 c #000000",
/* pixels */
"````````````````````````````````````````````````````````````````",
"```````````````````````````````````````````````````````````````.",
"`````#`#`#`#`#`#`#`#`#`#`#`#`a`b`c`d`e`#`#`#`#`#`#`#`#`#`#`#`.`.",
"`````#`#`#`#`#`#`#`#`#`#`#`#`f`g`h`i`j`a`#`#`#`#`#`#`#`#`#`#`.`.",
"`````#`#`#`#`#`#`#`#`#`#`#`#`k`l`d`i`h`e`#`#`#`#`#`#`#`#`#`#`.`.",
"`````#`#`#`#`#`#`#`#`#`#`#`#`#`m`n`i`#`#`#`#`#`#`#`#`#`#`#`#`.`.",
"`````#`#`#`#`#`#`#`#`#`#`#`#`#`m`n`i`#`#`#`#`#`#`#`#`#`#`#`#`.`.",
"`````#`#`#`#`#`#`#`#`#`#`#`#`#`o`p`q`#`#`#`#`#`#`#`#`#`#`#`#`.`.",
"`````#`#`#`#`#`#`#`#`#`#`#`#`#`r`s`t`#`#`#`#`#`#`#`#`#`#`#`#`.`.",
"`````#`#`#`#`#`#`#`#`#`#`#`#`#`u`v`w`#`#`#`#`#`#`#`#`#`#`#`#`.`.",
"`````#`#`#`#`#`#`#`#`#`#`#`#`#`x`r`y`#`#`#`#`#`#`#`#`#`#`#`#`.`.",
"`````#`#`#`#`#`#`#`#`#`#`#`#`#`#`#`#`#`#`#`#`#`#`#`#`#`#`#`#`.`.",
"`````#`#`#`#`#`#`#`#`#`#`#`#`#`z`A`B`C`D`#`#`#`#`#`#`#`#`#`#`.`.",
"`````#`#`#`#`#`#`#`#`#`#`#`#`E`F`G`H`I`J`K`#`#`#`#`#`#`#`#`#`.`.",
"`````#`#`#`#`#`#`#`#`#`#`#`L`M`N`O`P`H`Q`R`S`#`#`#`#`#`#`#`#`.`.",
"`````#`#`#`#`#`#`#`#`#`#`T`R`U`V`W`X`Y`Z`0`1`2`#`#`#`#`#`#`#`.`.",
"`````#`#`#`#`#`#`#`#`#`3`4`5`6`7`P`8.``H...#.a.b`#`#`#`#`#`#`.`.",
"`````#`#`#`#`#`#`#`#.c.d.e.f`N`G`Y.g.h`Y.i`F.j.k`#`#`#`#`#`#`.`.",
"`````#`#`#`#`#`#`#`#.l.m`5.n.o.p.q.r.s`X`Z.t.u.v`T`#`#`#`#`#`.`.",
"`````#`#`#`#`#`#`#.w.x.y.f`N.z.A.q.B.C.g.D.E.F.G`1.H`#`#`#`#`.`.",
"`````#`#`#`#`#`#.I.J.K.L.M.N`G.O.P.B.Q.h.R.S.T.U`J.V.W.X.Y.Z`.`.",
"`````#`#`#`#.H.0.1`R.#.2.3.4.p.5.P.h.C.h.6.D.S.7.8.j.J#`.d#.`.`.",
"`````#`####a#b.J.v.y`F#c`Q`G.p.O.P#d#e.s#f#g.D.E#h.u.j`1#.#i`.`.",
"`````##j.J.J.x.v.G.L.2.3#k.p.A.R.P.r#e.B#l.6#m.S.T#h.G.j#n`1`.`.",
"````#o`1#p.m.j.y.L`F.t`Q#q.p.A.R.P.r#r#s.r.P#g#t#u.7#v.#.K.m`.`.",
"````.x#p.m.K.e.#`F.n...i`O`O.A.R.P.r#w#s.r#x#y#m#z#A#B#C.y.K`.`.",
"````.m.m`R.K.y.L#D.t#E#F#q.p.A.R.q.g#s.B#G#H#I#J#z#K.7#h.G#L`.`.",
"````#M#N#O#P#Q#R#S#T#U.E.i#V#W#m.6#x#X#Y#Z#0#1#t#2#A#3#v#4`#`.`.",
"`````#`#`#`#`#`#`#`#`##5#6#7#8#ta`a.a#a#a#a.a`aa#K#3abacad`#`.`.",
"`````#`#`#`#`#`#`#`#`#`#`#`#`##5aeafagagahahaiajakab.Gal`#`#`.`.",
"```.`.`.`.`.`.`.`.`.`.`.`.`.`.`.`.`.`.`.`.`.`.`.`.`.`.`.`.`.`.`.",
"`.`.`.`.`.`.`.`.`.`.`.`.`.`.`.`.`.`.`.`.`.`.`.`.`.`.`.`.`.`.`.`."
};
