/* XPM */
static char *quadfrom35_xpm[] = {
/* width height num_colors chars_per_pixel */
"    32    32      256            2",
/* colors */
"`` c #c1c1c1",
"`. c #afbac2",
"`# c #1182d0",
"`a c #007bd2",
"`b c #348ecd",
"`c c #579bca",
"`d c #9db4c4",
"`e c #8caec5",
"`f c #017cd2",
"`g c #027cd2",
"`h c #037dd2",
"`i c #047dd3",
"`j c #368fcd",
"`k c #6aa1c8",
"`l c #077fd3",
"`m c #0a80d3",
"`n c #0d82d4",
"`o c #0f83d4",
"`p c #1a87c8",
"`q c #3691b0",
"`r c #5da191",
"`s c #7bac7f",
"`t c #a7bd67",
"`u c #6ba2c6",
"`v c #268ab7",
"`w c #4497a7",
"`x c #6aa791",
"`y c #90b77a",
"`z c #aac26c",
"`A c #c9d057",
"`B c #ecdd3a",
"`C c #f4df31",
"`D c #f4de2c",
"`E c #f3dd28",
"`F c #f3dc24",
"`G c #f3dc23",
"`H c #1f88bb",
"`I c #2388cf",
"`J c #c7c4ae",
"`K c #bcc465",
"`L c #b4c350",
"`M c #cecd3e",
"`N c #f3dd29",
"`O c #f5e139",
"`P c #f5e241",
"`Q c #f5e44c",
"`R c #f5e343",
"`S c #ebdd43",
"`T c #c8cf54",
"`U c #a0bd69",
"`V c #83af77",
"`W c #61a28c",
"`X c #1182c6",
"`Y c #4694cc",
"`Z c #589cba",
"`0 c #d9d338",
"`1 c #c1c951",
"`2 c #9fbe77",
"`3 c #8dba92",
"`4 c #c0dad1",
"`5 c #f5f9fb",
"`6 c #6eb3da",
"`7 c #3d9bda",
"`8 c #2b91d8",
".` c #1988d5",
".. c #4a999c",
".# c #318eaf",
".a c #1083d4",
".b c #248ed7",
".c c #3b9ada",
".d c #bddcf2",
".e c #ffffff",
".f c #c7e2f4",
".g c #55a7dd",
".h c #3e9bda",
".i c #268fd7",
".j c #1184d4",
".k c #69a1c8",
".l c #0e82d4",
".m c #238dd7",
".n c #6eb4e2",
".o c #fcfdfe",
".p c #fdfeff",
".q c #83bfe5",
".r c #52a5dd",
".s c #3697d9",
".t c #1c89d6",
".u c #0b81d3",
".v c #1f8bd6",
".w c #3a99da",
".x c #5aaade",
".y c #c5e1f3",
".z c #d5e9f6",
".A c #65afdf",
".B c #469fdb",
".C c #2890d7",
".D c #1284d4",
".E c #057ed3",
".F c #b4b4b4",
".G c #727272",
".H c #48677c",
".I c #2471a7",
".J c #0c78c4",
".K c #1887d5",
".L c #3194d9",
".M c #51a5dd",
".N c #7dbce4",
".O c #f9fcfe",
".P c #91c6e8",
".Q c #58a9de",
".R c #3797d9",
".S c #848484",
".T c #6c6c6c",
".U c #606060",
".V c #3c6a8b",
".W c #258ed7",
".X c #429ddb",
".Y c #63aedf",
".Z c #c4e0f2",
".0 c #dcedf7",
".1 c #68b1e0",
".2 c #48a0dc",
".3 c #2990d7",
".4 c #1385d5",
".5 c #9c9c9c",
".6 c #54636e",
".7 c #0d79c4",
".8 c #087fd3",
"#` c #3295d9",
"#. c #7abae3",
"## c #f8fbfd",
"#a c #98cae9",
"#b c #5e9fcc",
"#c c #a8a8a8",
"#d c #787878",
"#e c #4b697e",
"#f c #3179ab",
"#g c #2d8bca",
"#h c #409cdb",
"#i c #60addf",
"#j c #bbdcf0",
"#k c #deeef8",
"#l c #b3bec4",
"#m c #c2c2c2",
"#n c #909090",
"#o c #616160",
"#p c #646463",
"#q c #637178",
"#r c #588aa8",
"#s c #669cbb",
"#t c #75b3d8",
"#u c #f5fafd",
"#v c #8bc3e8",
"#w c #439edb",
"#x c #81b0ce",
"#y c #c5c5c4",
"#z c #6e6e6e",
"#A c #696966",
"#B c #757570",
"#C c #84847b",
"#D c #83989c",
"#E c #bdcdd2",
"#F c #dfedf6",
"#G c #5aa6d8",
"#H c #cbcbc8",
"#I c #c6c6c4",
"#J c #9f9f9e",
"#K c #848481",
"#L c #83837d",
"#M c #929286",
"#N c #f2f2f1",
"#O c #d6ddde",
"#P c #b5c6cf",
"#Q c #c9c9c7",
"#R c #c4c4c3",
"#S c #bbbbb9",
"#T c #aaaaa6",
"#U c #9b9b95",
"#V c #999991",
"#W c #cdcdca",
"#X c #cacac8",
"#Y c #c7c7c6",
"#Z c #c6c6c5",
"#0 c #c8c8c6",
"#1 c #c3c3c2",
"#2 c #c3c3c3",
"#3 c #c4c4c4",
"#4 c #000000",
"#5 c #000000",
"#6 c #000000",
"#7 c #000000",
"#8 c #000000",
"a` c #000000",
"a. c #000000",
"a# c #000000",
"aa c #000000",
"ab c #000000",
"ac c #000000",
"ad c #000000",
"ae c #000000",
"af c #000000",
"ag c #000000",
"ah c #000000",
"ai c #000000",
"aj c #000000",
"ak c #000000",
"al c #000000",
"am c #000000",
"an c #000000",
"ao c #000000",
"ap c #000000",
"aq c #000000",
"ar c #000000",
"as c #000000",
"at c #000000",
"au c #000000",
"av c #000000",
"aw c #000000",
"ax c #000000",
"ay c #000000",
"az c #000000",
"aA c #000000",
"aB c #000000",
"aC c #000000",
"aD c #000000",
"aE c #000000",
"aF c #000000",
"aG c #000000",
"aH c #000000",
"aI c #000000",
"aJ c #000000",
"aK c #000000",
"aL c #000000",
"aM c #000000",
"aN c #000000",
"aO c #000000",
"aP c #000000",
"aQ c #000000",
"aR c #000000",
"aS c #000000",
"aT c #000000",
"aU c #000000",
"aV c #000000",
"aW c #000000",
"aX c #000000",
"aY c #000000",
"aZ c #000000",
"a0 c #000000",
"a1 c #000000",
"a2 c #000000",
"a3 c #000000",
"a4 c #000000",
"a5 c #000000",
"a6 c #000000",
"a7 c #000000",
"a8 c #000000",
/* pixels */
"````````````````````````````````````````````````````````````````",
"````````````````````````````````````````````````````````````````",
"````````````````````````````````````````````````````````````````",
"````````````````````````````````````````````````````````````````",
"````````````````````````````````````````````````````````````````",
"````````````````````````````````````````````````````````````````",
"````````````````````````````````````````````````````````````````",
"````````````````````````````````````````````````````````````````",
"```````````````````````````.````````````````````````````````````",
"```````````````````````.`#`a`b`c`d`.````````````````````````````",
"`````````````````````e`a`f`g`h`i`i`i`j`k`.`.````````````````````",
"```````````````````e`a`f`i`l`m`n`o`n`p`q`r`s`t`u`e`.````````````",
"`````````````````e`a`a`v`w`x`y`z`A`B`C`D`E`F`G`H`a`I`b`c`e``````",
"`````````````J`K`L`M`G`F`N`C`O`P`Q`R`S`T`U`V`W`X`a`a`a`a`Y``````",
"`````````````Z`G`G`G`G`0`1`2`3`4`5`6`7`8.``m`g`a`a`a`a`I````````",
"```````````Y`a`W...#`a`h.a.b.c.d.e.f.g.h.i.j`i`a`a`a`a.k````````",
"`````````#`a`a`a`a`a`a`h.l.m.h.n.o.p.q.r.s.t`m`g`a`a`#``````````",
"```````b`a`a`a`a`a`a`a`g.u.v.w.x.y.e.z.A.B.C.D.E`f`a`d``````````",
"````.F.G.H.I.J`a`a`a`a`f`l.K.L.M.N.O.e.P.Q.R.t`m`g`Y````````````",
"````.S.T.U.U.U.V.J.J`a`a`i`o.W.X.Y.Z.e.0.1.2.3.4.E`d````````````",
"``````.F.5.T.T.U.U.6.V.J.7.8.K#`.r#.##.e#a.Q.R.t#b``````````````",
"````````````#c.S#d.U.U.U.6#e#f#g#h#i#j.e#k#i#h.m#l#m````````````",
"``````````````````.F#n#d.U#o#p#q#r#s#t#u.e#v#w#x#y#m````````````",
"````````````````````````#c#n#z#A#B#C#D#E.e#F#G#H#I#m````````````",
"``````````````````````````````#J#K#L#C#M#N#O#P#Q#y#m````````````",
"``````````````````````````````#m#R#S#T#U#V#W#X#Y#R#m````````````",
"````````````````````````````````#m#R#Z#0#Q#0#Z#y#1``````````````",
"``````````````````````````````````#m#2#R#y#3#R#1#m``````````````",
"``````````````````````````````````````#m#m#m#m``````````````````",
"````````````````````````````````````````````````````````````````",
"````````````````````````````````````````````````````````````````",
"````````````````````````````````````````````````````````````````"
};
