/* XPM */
static char *randompoly_xpm[] = {
/* width height num_colors chars_per_pixel */
"    32    32      256            2",
/* colors */
"`` c #c1c1c1",
"`. c #565697",
"`# c #68689e",
"`a c #8b8baa",
"`b c #afafba",
"`c c #aeaeb6",
"`d c #33338a",
"`e c #093797",
"`f c #857565",
"`g c #0a2c89",
"`h c #2e398d",
"`i c #68689c",
"`j c #8c8caf",
"`k c #9c9cae",
"`l c #343490",
"`m c #09328e",
"`n c #e6bc4c",
"`o c #5a4b59",
"`p c #0f1d8e",
"`q c #06449e",
"`r c #0b227f",
"`s c #565695",
"`t c #8b8bac",
"`u c #9d9db3",
"`v c #9d9db1",
"`w c #202083",
"`x c #0b2685",
"`y c #0b2788",
"`z c #0b2a8f",
"`A c #10107d",
"`B c #016ec5",
"`C c #007bd2",
"`D c #0262b3",
"`E c #044ea1",
"`F c #0d0d65",
"`G c #0e1a84",
"`H c #202075",
"`I c #7a7aa5",
"`J c #9d9db2",
"`K c #8b8ba8",
"`L c #0f0f7a",
"`M c #054aa0",
"`N c #0a2683",
"`O c #0c1c7c",
"`P c #0e1e8c",
"`Q c #0a389e",
"`R c #0363bd",
"`S c #016fc5",
"`T c #045ab2",
"`U c #10107c",
"`V c #0c1771",
"`W c #31317b",
"`X c #7a7aaa",
"`Y c #79799f",
"`Z c #0e1e8d",
"`0 c #06449d",
"`1 c #073990",
"`2 c #0b2789",
"`3 c #0c1a7b",
"`4 c #09389a",
"`5 c #0653b3",
"`6 c #10107b",
"`7 c #565693",
"`8 c #0c1974",
".` c #0e0e72",
".. c #10107f",
".# c #09328f",
".a c #0f0f78",
".b c #0d1b7f",
".c c #0a257e",
".d c #454593",
".e c #10107e",
".f c #016ec6",
".g c #0262b7",
".h c #054395",
".i c #0e1d88",
".j c #0f0f73",
".k c #083188",
".l c #0c2b95",
".m c #0356a8",
".n c #073e95",
".o c #0a237c",
".p c #0d0d6b",
".q c #0b217b",
".r c #22228a",
".s c #9d9daf",
".t c #afafb8",
".u c #33338b",
".v c #0d1c81",
".w c #016fc7",
".x c #0f0f75",
".y c #0b2a89",
".z c #0e0e70",
".A c #b9a45f",
".B c #016ec7",
".C c #006bbc",
".D c #0c0c61",
".E c #68689f",
".F c #1f1f71",
".G c #0f0f79",
".H c #064ba6",
".I c #0360b8",
".J c #0c1c7d",
".K c #0a2680",
".L c #101080",
".M c #0b2a90",
".N c #0553b1",
".O c #063889",
".P c #222288",
".Q c #b7b7b7",
".R c #565664",
".S c #2b2b5a",
".T c #191965",
".U c #0e0e6f",
".V c #0b2a91",
".W c #093795",
".X c #0360b9",
".Y c #0e1d86",
".Z c #0c2b93",
".0 c #083184",
".1 c #0d1b7d",
".2 c #0351a1",
".3 c #848484",
".4 c #606060",
".5 c #53535a",
".6 c #3f3f57",
".7 c #1f1f4d",
".8 c #19196b",
"#` c #0f0f74",
"#. c #0d1a7c",
"## c #0d1979",
"#a c #0d0d67",
"#b c #787878",
"#c c #343451",
"#d c #151553",
"#e c #0c0c63",
"#f c #5f4f6c",
"#g c #111183",
"#h c #676794",
"#i c #9c9c9c",
"#j c #6c6c6c",
"#k c #55555b",
"#l c #343452",
"#m c #20205a",
"#n c #0c0c5f",
"#o c #0c0c5d",
"#p c #212181",
"#q c #a8a8a8",
"#r c #33334c",
"#s c #161659",
"#t c #0d0d69",
"#u c #111184",
"#v c #29294f",
"#w c #21215e",
"#x c #0f0f76",
"#y c #b4b4b4",
"#z c #4a4a58",
"#A c #29294b",
"#B c #171760",
"#C c #0e0e6e",
"#D c #9d9db0",
"#E c #737373",
"#F c #898998",
"#G c #909090",
"#H c #000000",
"#I c #000000",
"#J c #000000",
"#K c #000000",
"#L c #000000",
"#M c #000000",
"#N c #000000",
"#O c #000000",
"#P c #000000",
"#Q c #000000",
"#R c #000000",
"#S c #000000",
"#T c #000000",
"#U c #000000",
"#V c #000000",
"#W c #000000",
"#X c #000000",
"#Y c #000000",
"#Z c #000000",
"#0 c #000000",
"#1 c #000000",
"#2 c #000000",
"#3 c #000000",
"#4 c #000000",
"#5 c #000000",
"#6 c #000000",
"#7 c #000000",
"#8 c #000000",
"a` c #000000",
"a. c #000000",
"a# c #000000",
"aa c #000000",
"ab c #000000",
"ac c #000000",
"ad c #000000",
"ae c #000000",
"af c #000000",
"ag c #000000",
"ah c #000000",
"ai c #000000",
"aj c #000000",
"ak c #000000",
"al c #000000",
"am c #000000",
"an c #000000",
"ao c #000000",
"ap c #000000",
"aq c #000000",
"ar c #000000",
"as c #000000",
"at c #000000",
"au c #000000",
"av c #000000",
"aw c #000000",
"ax c #000000",
"ay c #000000",
"az c #000000",
"aA c #000000",
"aB c #000000",
"aC c #000000",
"aD c #000000",
"aE c #000000",
"aF c #000000",
"aG c #000000",
"aH c #000000",
"aI c #000000",
"aJ c #000000",
"aK c #000000",
"aL c #000000",
"aM c #000000",
"aN c #000000",
"aO c #000000",
"aP c #000000",
"aQ c #000000",
"aR c #000000",
"aS c #000000",
"aT c #000000",
"aU c #000000",
"aV c #000000",
"aW c #000000",
"aX c #000000",
"aY c #000000",
"aZ c #000000",
"a0 c #000000",
"a1 c #000000",
"a2 c #000000",
"a3 c #000000",
"a4 c #000000",
"a5 c #000000",
"a6 c #000000",
"a7 c #000000",
"a8 c #000000",
/* pixels */
"````````````````````````````````````````````````````````````````",
"````````````````````````````````````````````````````````````````",
"````````````````````````````````````````````````````````````````",
"````````````````````````````````````````````````````````````````",
"````````````````````````````````````````````````````````````````",
"````````````````````````````````````````````````````````````````",
"````````````````````````````````````````````````````````````````",
"````````````````````````````````````````````````````````````````",
"`````````````````````````.`#`a`b````````````````````````````````",
"`````````````````````c`d`e`f`f`g`h`i`j`b````````````````````````",
"```````````````````k`l`m`n`n`n`n`o`p`q`r`h`s`t`u````````````````",
"`````````````````v`w`x`y`z`f`n`f`A`B`C`C`D`E`F`G`H`#`I`J````````",
"```````````````K`L`f`n`f`M`N`O`P`Q`R`S`C`C`T`U`n`n`f`f`V`W`X````",
"`````````````Y`L`f`n`n`n`n`f`Z`0`1`2`3`4`5`6`f`n`n`n`n`n`A`v````",
"```````````7`A`8.``f`n`n`n...#`n`n`n`f`o`U.a.b`f`n`n`n.c.d``````",
"`````````d.e.f`C.g.h`N.`.i.j`n`n`n`n`n.k.l`C.m.n.o.p.q.r.s``````",
"````.t.u.v`C`C`C`C`C.w.x.y`m.z.A`n`n`f.e.B`C`C`C`C.C.D.E````````",
"```c.F.G.H.I`C`C`C`C`A.J`n`n`n`f.K`O.L.M.N`B`C`C`C.O.P`c````````",
"``.Q.R.S.T.U.V.W.X.i.i`n`n`n`n`n`n.Y.Z.0.1.x`4`5.2`6`s``````````",
"``.3.4.4.5.6.7.8#`.x`f`n`n`n`n`n#...`n`n`n`f`0###a.G````````````",
"``````.3#b.4.4.4#c#d#e#f.A`n`n`f#g`n`n`n`n`n`n`o#g#h````````````",
"``````````#i.3#j.4.4#k#l#m#n.x..`f`n`n`n`n`n`n#o#p``````````````",
"````````````````#q#b#j.4.4#k#r#s#t.x`f`n`n`n`o#u#h``````````````",
"``````````````````````#i#b.4.4.4#k#v#w#a#x`o`L#p````````````````",
"``````````````````````````#y.3#j.4.4.4#z#A#B#C#D````````````````",
"````````````````````````````````#q.3#j.4.4#E#F``````````````````",
"````````````````````````````````````#y#G#b#q````````````````````",
"````````````````````````````````````````````````````````````````",
"````````````````````````````````````````````````````````````````",
"````````````````````````````````````````````````````````````````",
"````````````````````````````````````````````````````````````````",
"````````````````````````````````````````````````````````````````"
};
