/* XPM */
static char *rebuildcurvenurb_xpm[] = {
/* width height num_colors chars_per_pixel */
"    32    32      256            2",
/* colors */
"`` c #c1c1c1",
"`. c #000000",
"`# c #606060",
"`a c #ffffff",
"`b c #f0ff00",
"`c c #9595b2",
"`d c #9999b0",
"`e c #0b40b3",
"`f c #0b40b4",
"`g c #094cb8",
"`h c #0b40b5",
"`i c #0b41b5",
"`j c #4b4b83",
"`k c #1b1b96",
"`l c #1c1c97",
"`m c #1b1b94",
"`n c #3e3e9f",
"`o c #4f4fa3",
"`p c #4f4fa0",
"`q c #6060a4",
"`r c #7171a3",
"`s c #9999b1",
"`t c #35399d",
"`u c #027de4",
"`v c #008aeb",
"`w c #008cee",
"`x c #008bec",
"`y c #008df0",
"`z c #008bed",
"`A c #0088eb",
"`B c #0e2190",
"`C c #48488b",
"`D c #131399",
"`E c #14149a",
"`F c #14149b",
"`G c #181899",
"`H c #161690",
"`I c #0957c6",
"`J c #009cfe",
"`K c #009afe",
"`L c #009bfe",
"`M c #075bc3",
"`N c #9797a8",
"`O c #6161a6",
"`P c #7272ab",
"`Q c #6161a7",
"`R c #6161a8",
"`S c #3e3ea1",
"`T c #1c1c9a",
"`U c #18189a",
"`V c #14149d",
"`W c #13179a",
"`X c #0573d5",
"`Y c #00a3ff",
"`Z c #00a2ff",
"`0 c #0c35a3",
"`1 c #3d3d99",
"`2 c #1227ac",
"`3 c #0c36a0",
"`4 c #00a8ff",
"`5 c #0194e9",
"`6 c #121695",
"`7 c #7171a4",
"`8 c #171793",
".` c #0e34a7",
".. c #0754b0",
".# c #00aaff",
".a c #00a9ff",
".b c #0663bf",
".c c #131397",
".d c #7171a1",
".e c #6060a2",
".f c #2d2d99",
".g c #171794",
".h c #fffe5a",
".i c #0e1272",
".j c #0197e8",
".k c #00abff",
".l c #0b46af",
".m c #171792",
".n c #9999b5",
".o c #4f4fa2",
".p c #14149c",
".q c #131396",
".r c #12128c",
".s c #0286d8",
".t c #00a7fa",
".u c #0f2598",
".v c #3e3e9d",
".w c #4f4f9d",
".x c #18189c",
".y c #12128b",
".z c #16168a",
".A c #2b2b8d",
".B c #4e4e97",
".C c #4a4a98",
".D c #0195ed",
".E c #0282d3",
".F c #131394",
".G c #5f5f9d",
".H c #70709c",
".I c #9494ae",
".J c #3a3aa1",
".K c #0c46bb",
".L c #00a6ff",
".M c #00a7ff",
".N c #0763c4",
".O c #81819c",
".P c #8383aa",
".Q c #121798",
".R c #028cec",
".S c #00a1ff",
".T c #00a4ff",
".U c #00a5ff",
".V c #282895",
".W c #16168d",
".X c #7272a7",
".Y c #8383ac",
".Z c #282898",
".0 c #0097fb",
".1 c #009cff",
".2 c #009dff",
".3 c #009eff",
".4 c #009fff",
".5 c #027fda",
".6 c #121692",
".7 c #4e4e96",
".8 c #5050aa",
"#` c #14149f",
"#. c #1414a0",
"## c #13139a",
"#a c #131398",
"#b c #111a95",
"#c c #111993",
"#d c #111991",
"#e c #111992",
"#f c #121a99",
"#g c #111a94",
"#h c #0755b7",
"#i c #121290",
"#j c #8282a3",
"#k c #5c5ca5",
"#l c #131393",
"#m c #121292",
"#n c #131395",
"#o c #12128f",
"#p c #12128e",
"#q c #0f1481",
"#r c #262683",
"#s c #9898ac",
"#t c #373789",
"#u c #101486",
"#v c #064fb0",
"#w c #0464c7",
"#x c #0465c9",
"#y c #0465c8",
"#z c #0658be",
"#A c #065ac1",
"#B c #084db6",
"#C c #065bc1",
"#D c #101080",
"#E c #5e5e90",
"#F c #111183",
"#G c #0c2f9a",
"#H c #055bbd",
"#I c #0077d0",
"#J c #007bd3",
"#K c #007fd8",
"#L c #0080d9",
"#M c #0081db",
"#N c #0083de",
"#O c #0082de",
"#P c #0083e0",
"#Q c #0084e1",
"#R c #0086e4",
"#S c #0177d7",
"#T c #0d2088",
"#U c #131372",
"#V c #121592",
"#W c #0d2f9f",
"#X c #0940a6",
"#Y c #064dab",
"#Z c #0369c5",
"#0 c #007ad4",
"#1 c #007ed6",
"#2 c #0080db",
"#3 c #0171ca",
"#4 c #0c1f83",
"#5 c #0e0e73",
"#6 c #6f6f90",
"#7 c #8484b2",
"#8 c #6161ab",
"a` c #5050a8",
"a. c #2e2ea2",
"a# c #18189f",
"aa c #14149e",
"ab c #121696",
"ac c #10188f",
"ad c #0e2595",
"ae c #074db0",
"af c #0c1e80",
"ag c #0f0f74",
"ah c #595989",
"ai c #8484b0",
"aj c #7373b0",
"ak c #2e2ea3",
"al c #18189e",
"am c #242479",
"an c #8b8bab",
"ao c #7f7fac",
"ap c #000000",
"aq c #000000",
"ar c #000000",
"as c #000000",
"at c #000000",
"au c #000000",
"av c #000000",
"aw c #000000",
"ax c #000000",
"ay c #000000",
"az c #000000",
"aA c #000000",
"aB c #000000",
"aC c #000000",
"aD c #000000",
"aE c #000000",
"aF c #000000",
"aG c #000000",
"aH c #000000",
"aI c #000000",
"aJ c #000000",
"aK c #000000",
"aL c #000000",
"aM c #000000",
"aN c #000000",
"aO c #000000",
"aP c #000000",
"aQ c #000000",
"aR c #000000",
"aS c #000000",
"aT c #000000",
"aU c #000000",
"aV c #000000",
"aW c #000000",
"aX c #000000",
"aY c #000000",
"aZ c #000000",
"a0 c #000000",
"a1 c #000000",
"a2 c #000000",
"a3 c #000000",
"a4 c #000000",
"a5 c #000000",
"a6 c #000000",
"a7 c #000000",
"a8 c #000000",
/* pixels */
"````````````````````````````````````````````````````````````````",
"`````````````````````````````````````````````````````.`.`.`.`.``",
"```````````````````````````````````````````````````#`#`#`#`#`.``",
"```````````````````````````````````````````````````#`a`a`a`#`.``",
"```````````````````````````````````````````````````#`a`a`a`#`.``",
"```````````````````````````````````````````````````#`a`a`a`#`.``",
"```````````````````````````````````````````````````#`#`#`#`#````",
"````````````````````````````````````````````````````````````````",
"```````````````````````````````````b`b```````````````c`b`b``````",
"`````````````b`````b`````````````d`b`b`e`e`f`f`g`h`i`i`b`b`j````",
"`````k`l`k`k`m`b`b`n`o`p`q`r```s`t`u`v`w`w`x`y`y`x`z`A`B`C``````",
"`````D`E`E`D`D`b`b`F`F`F`F`D`G`H`I`J`J`K`K`K`J`K`K`L`M`H`N``````",
"`````O`P`P`P`b`Q`R`b`R`n`S`T`U`V`W`X`Y`Y`Z`Z`Z`Z`Z`Y`0`1````````",
"`````````````````````````````S`2`W`3`4`4`4`4`4`4`4`5`6`7````````",
"```````````````````````````b`8.``b...#.#.#.#.#.a.a.b.c``````````",
"````````````````````.d.e.f.g`b.h.i.j.k.k.k.k.k.k.#.l.m``````````",
"````````````.n.o`8`D.p.p.q.r`b`b.s.#.#.#.k.#.k.k.t.u.v``````````",
"``````````.w.x.q.y.z.A.B.C`b.D`4`b.a.a.a.a.a.a.a.E.F.G``````````",
"```````b`7`V`b.H.I``````.J.K.L.L.M.L.M.M.M`4`4`4.N`E````````````",
"`````````b`b.O````````.P.Q.R.S`Z`Z`Z`Y.T.T.U.T.U`3.V````````````",
"`````````b`b.W.X.Y`b``.Z`b.0.1.2.3.3.3.4`b`b`b.5.6.7````````````",
"```````b``.8`b#`#.`b###a`b`6#b#c#c#d#e#f`b#g.h#h#i#j````````````",
"``````````````#k.y`b.F#l`b.c#m#n#n#i#o#p`b.r`b#q#r``````````````",
"````````````#s#t#u#v`b`b#w#x#y#z#A#B#B#C`b`b`b#D#E``````````````",
"```````````b`b#F#G#H#I#J#K#L#M#N#O#P#Q#R#R#S#T#U````````````````",
"```````````b`b`V`V###a#V#W#X#Y#Z#0#1#L#2#3#4#5#6````````````````",
"````````````````#7#8a`a.a#aa`V`Eabacadaeafagah``````````````````",
"``````````````````````````aiaja`akal`V`b`bam````````````````````",
"````````````````````````````````anaoai`b`b#s````````````````````",
"````````````````````````````````````````````````````````````````",
"````````````````````````````````````````````````````````````````",
"````````````````````````````````````````````````````````````````"
};
