/* XPM */
static char *relaxbrush_xpm[] = {
/* width height num_colors chars_per_pixel */
"    32    32      256            2",
/* colors */
"`` c #c4c2c4",
"`. c #acb2b4",
"`# c #9caab4",
"`a c #9caabe",
"`b c #b4babc",
"`c c #9ca6ac",
"`d c #9ca6bc",
"`e c #949aac",
"`f c #ac9aac",
"`g c #9caec4",
"`h c #94a6b4",
"`i c #94a6bc",
"`j c #a4a6b4",
"`k c #8c7684",
"`l c #c47684",
"`m c #9cb2cc",
"`n c #94aec4",
"`o c #94a2b4",
"`p c #a4aaac",
"`q c #94aac4",
"`r c #a49ea4",
"`s c #84525c",
"`t c #dc4e54",
"`u c #9cb6cc",
"`v c #9cb2c3",
"`w c #94aabc",
"`x c #94a2ac",
"`y c #b4b6bc",
"`z c #ac8a8c",
"`A c #741a14",
"`B c #ff0e14",
"`C c #a4bacc",
"`D c #949eac",
"`E c #bcbebc",
"`F c #bcbabc",
"`G c #a48684",
"`H c #9ca2ac",
"`I c #94aecc",
"`J c #a4becc",
"`K c #a4a6ac",
"`L c #9caecc",
"`M c #acaeb4",
"`N c #643e44",
"`O c #940a0c",
"`P c #ff0e0c",
"`Q c #dc0a0c",
"`R c #ac7a7c",
"`S c #949aa4",
"`T c #8c767c",
"`U c #6c0e0c",
"`V c #cc0e14",
"`W c #acbac4",
"`X c #949ea4",
"`Y c #a4aab4",
"`Z c #a4b2bc",
"`0 c #64363c",
"`1 c #ac0a0c",
"`2 c #ac8284",
"`3 c #acb2bc",
"`4 c #ac7274",
"`5 c #7c6a74",
"`6 c #7c0a0c",
"`7 c #9cbacc",
"`8 c #a4aeb4",
".` c #5c1a1c",
".. c #9c7a84",
".# c #946a74",
".a c #dc4a54",
".b c #bc7284",
".c c #aca2ac",
".d c #c47a84",
".e c #ac7e7c",
".f c #5c161c",
".g c #8c7e84",
".h c #641a1c",
".i c #c4babc",
".j c #8c7274",
".k c #6c3a3c",
".l c #547a9c",
".m c #1c5e94",
".n c #0c62ac",
".o c #1466ac",
".p c #24669c",
".q c #547ea0",
".r c #94aebc",
".s c #a4a2a4",
".t c #947674",
".u c #6c4244",
".v c #bcbec4",
".w c #748a9c",
".x c #145a94",
".y c #0c6ecc",
".z c #147ee4",
".A c #248ee4",
".B c #349eec",
".C c #147ad4",
".D c #0c5a9c",
".E c #3c6a94",
".F c #8caac4",
".G c #94b2c4",
".H c #643a3c",
".I c #848e9c",
".J c #0c4a8c",
".K c #0c5aac",
".L c #146ad4",
".M c #1c76e4",
".N c #1c86e4",
".O c #2c96e4",
".P c #44aeec",
".Q c #54b2ec",
".R c #1476d4",
".S c #0c62b4",
".T c #2c66a0",
".U c #7492ac",
".V c #546674",
".W c #14467c",
".X c #14529c",
".Y c #145ebc",
".Z c #1c6ad4",
".0 c #54b6ec",
".1 c #3ca6ec",
".2 c #1c82dc",
".3 c #1c76cc",
".4 c #1c66bc",
".5 c #4c6e94",
".6 c #8496a4",
".7 c #445a6c",
".8 c #0c3e6c",
"#` c #144e94",
"#. c #145aaa",
"## c #1462c4",
"#a c #1c6ed4",
"#b c #1c7ae4",
"#c c #248ae0",
"#d c #2c9ae4",
"#e c #5cbaec",
"#f c #44aaec",
"#g c #1c7ed4",
"#h c #1c72c4",
"#i c #1c62ac",
"#j c #1c5694",
"#k c #1c4a74",
"#l c #546a84",
"#m c #6c7a84",
"#n c #0c2a4c",
"#o c #0c3a6c",
"#p c #144a8c",
"#q c #1456a4",
"#r c #1462bc",
"#s c #1c6acc",
"#t c #1c72dc",
"#u c #1c82e4",
"#v c #1c8ae4",
"#w c #2496e4",
"#x c #2486dc",
"#y c #1c6ebc",
"#z c #145ea4",
"#A c #144e8c",
"#B c #0c3254",
"#C c #14365c",
"#D c #143e64",
"#E c #2c527c",
"#F c #44628c",
"#G c #24466c",
"#H c #0c325c",
"#I c #144a84",
"#J c #145eb4",
"#K c #1466c4",
"#L c #1c72d4",
"#M c #3caeec",
"#N c #54baec",
"#O c #4caeec",
"#P c #2c9aec",
"#Q c #248edc",
"#R c #1c66b4",
"#S c #144274",
"#T c #0c3a64",
"#U c #0c3664",
"#V c #0c3e74",
"#W c #14427c",
"#X c #14569a",
"#Y c #1c76dc",
"#Z c #1c8ee4",
"#0 c #3caaeb",
"#1 c #34a2ec",
"#2 c #143e6c",
"#3 c #5c7694",
"#4 c #44668c",
"#5 c #0c427c",
"#6 c #144684",
"#7 c #1c6ac4",
"#8 c #1c7adc",
"a` c #4cb6ec",
"a. c #44b2ec",
"a# c #1c86d2",
"aa c #1c7acc",
"ab c #1462ac",
"ac c #3c628c",
"ad c #8496ac",
"ae c #144e9c",
"af c #1c66c4",
"ag c #1c6ecc",
"ah c #1c76d4",
"ai c #1c7ee1",
"aj c #4cb2ec",
"ak c #349ee4",
"al c #2492e4",
"am c #1c86dc",
"an c #1c76c4",
"ao c #1c6abc",
"ap c #1c5eac",
"aq c #1462b4",
"ar c #1c72cc",
"as c #1c7ad4",
"at c #34aaec",
"au c #34a2e4",
"av c #2c92dc",
"aw c #1c8ad4",
"ax c #1c82d4",
"ay c #1c7ac1",
"az c #748eac",
"aA c #8c9eb4",
"aB c #7c92ac",
"aC c #6c8eb4",
"aD c #5c86b4",
"aE c #4c82bc",
"aF c #3c7abc",
"aG c #2c76c4",
"aH c #34a6e4",
"aI c #2ca2e4",
"aJ c #2c9ee4",
"aK c #2492dc",
"aL c #1c7ecc",
"aM c #1c6eb4",
"aN c #2c62a4",
"aO c #b4bec4",
"aP c #649acc",
"aQ c #3486cc",
"aR c #248ed4",
"aS c #2c96dc",
"aT c #2c9adc",
"aU c #1462a1",
"aV c #145a9c",
"aW c #849eb4",
"aX c #84aac4",
"aY c #4c96cc",
"aZ c #248ac4",
"a0 c #2c8ecc",
"a1 c #2486c4",
"a2 c #1c6eac",
"a3 c #346a9c",
"a4 c #5c9abc",
"a5 c #348abc",
"a6 c #247ab4",
"a7 c #1c6aa4",
"a8 c #1c5a8c",
/* pixels */
"````````````````````````````````````````````````````````````````",
"```````````````````````````````.`#`a`#`b````````````````````````",
"`````````````````````````````c`d`e`f`g`h`.``````````````````````",
"```````````````````````````c`i`j`k`l`m`n`o`.````````````````````",
"`````````````````````````p`o`q`r`s`t`u`v`w`x`y``````````````````",
"```````````````````````.`x`i`q`z`A`B`C`m`n`i`D`E````````````````",
"`````````````````````F`D`h`w`q`G`A`B`C`u`g`w`h`H````````````````",
"`````````````````````H`o`i`q`I`G`A`B`J`u`v`q`i`o`p``````````````",
"```````````````````K`x`i`w`q`L`G`A`B`J`C`m`g`w`i`x`M````````````",
"`````````````````K`x`h`i`q`n`N`O`P`B`Q`R`u`v`g`w`h`x`p`y`E``````",
"`````````````M`S`D`o`i`w`q`L`T`U`Q`B`V`W`u`v`v`n`w`h`x`X`X`D`c`Y",
"`````````F`H`X`x`o`i`w`q`n`L`Z`0`1`P`2`J`u`u`v`g`w`i`h`x`D`D`x`x",
"```````3`H`4`x`o`i`i`q`q`g`m`m`5`6`V`C`J`7`u`m`v`n`w`i`4`c`x`x`8",
"`````j`R`V`Q`h`h`i`w`q`n`L`m`m`a.`..`J`J`C`u`u`v`g`n`w`Q`V`R`j``",
"`y.#`V`P`B`B`B`B`B`B.a.b`f`m`m`u`u`C`J`J.c.d`t`B`B`B`B`B`B`P`V.e",
"`o.f`6`1`Q`P`A`A`A`A`s`k`e`m`m`u`u`7`J`J`x.g`s`A`A`A`A`P`Q`1`6.h",
"``.i.j.k`U`O`G`G`G`z`r`j`a`n.l.m.n.o.p.q.r`8.s`z`G`G`G`O`U.k.j.i",
"``````.i.t.u``````````.v.w.x.y.z.A.B.B.C.D.E.F.G`g.r`w.H.t.i````",
"````````````````````.I.J.K.L.M.N.O.P.Q.O.R.S.T.U`w`w`h`a````````",
"``````````````````.V.W.X.Y.Z.M.N.O.P.0.1.2.3.4.T.5.6`h`b````````",
"````````````````.7.8#`#.###a#b#c#d.P#e#f.A#g#h#i#j#k#l`x`y.v````",
"````````````#m#n#o#p#q#r#s#t#u#v#d#f.0#f#w#x#g#y#z#A.8#B#C#D#E#F",
"`````````Y#G#H.8#I.X#J#K#L#b#u#c#d#M#N#O#P#Q#x.3#R#.#A#S#T#U.8#V",
"``````.w.8.8#W#I#X#.#r#s#Y#u.N#Z#d#0#N.P#1#w#c#g#h#R#X#A.W#S#2#3",
"```E#4#S#5#6#A.X#.#J#7#L#8#u.N.A#d#0a`a.#0#d#Qa#aa#yab#q#`#6ac``",
"ad.W#W#5#6#`ae#q#Jafagahaiai.N.A#d#0aja.#0akalam#ganaoap.X#``b``",
"#I.W#6#6#p#`.X#.aq#7aras#8#u.N.A.O.1a..Patauavawaxay#y#R#Xaz````",
"`````3`#aAaBaCaDaEaFaG.3ahai.2#c#wak#0aHaIaJaKa#aLanaMabaN``````",
"``````````````````````aO`naPaQa#aRaSaTaTaTaSaRa#ayaMaUaVaW``````",
"``````````````````````````````aOaXaYaZaZa0a0a1aya2aU#Xa3````````",
"```````````````````````````````````````va4a5a6a7aUaV#X`#````````",
"`````````````````````````````````````````````baW.qa8.l``````````"
};
