/* XPM */
static char *selectnurbedges_xpm[] = {
/* width height num_colors chars_per_pixel */
"    32    32      256            2",
/* colors */
"`` c #000000",
"`. c #ffffff",
"`# c #bcbcbf",
"`a c #bcbcbe",
"`b c #bcbcbd",
"`c c #0456b1",
"`d c #055bbb",
"`e c #055bb9",
"`f c #035eb7",
"`g c #0268c3",
"`h c #036ac8",
"`i c #0368c5",
"`j c #0177d7",
"`k c #0283ec",
"`l c #0182e5",
"`m c #027ed9",
"`n c #0098ff",
"`o c #0096fe",
"`p c #0097fe",
"`q c #0098fe",
"`r c #0095fd",
"`s c #0094fc",
"`t c #0095fc",
"`u c #0093fb",
"`v c #0094fb",
"`w c #0093fa",
"`x c #0092f8",
"`y c #0090f7",
"`z c #0091f7",
"`A c #0091f6",
"`B c #0090f5",
"`C c #008df3",
"`D c #008ef2",
"`E c #008ef1",
"`F c #008cef",
"`G c #008cee",
"`H c #008bed",
"`I c #008aec",
"`J c #008aeb",
"`K c #008aea",
"`L c #0089e9",
"`M c #0088e8",
"`N c #0087e7",
"`O c #0087e6",
"`P c #0085e3",
"`Q c #0085e2",
"`R c #0084e1",
"`S c #0084e0",
"`T c #0083df",
"`U c #0082de",
"`V c #0082dd",
"`W c #0081dc",
"`X c #0080da",
"`Y c #007ed9",
"`Z c #007fd9",
"`0 c #007fd8",
"`1 c #007ed7",
"`2 c #007ad3",
"`3 c #007bd3",
"`4 c #028aec",
"`5 c #009aff",
"`6 c #009bff",
"`7 c #009cff",
"`8 c #009dff",
".` c #009eff",
".. c #009fff",
".# c #0099fe",
".a c #0098fb",
".b c #009afb",
".c c #009bfb",
".d c #009cfa",
".e c #00a0ff",
".f c #ffff00",
".g c #f4f495",
".h c #e3e3b2",
".i c #e0e0d3",
".j c #c1c1c1",
".k c #ffffff",
".l c #000000",
".m c #000000",
".n c #000000",
".o c #000000",
".p c #000000",
".q c #000000",
".r c #000000",
".s c #000000",
".t c #000000",
".u c #000000",
".v c #000000",
".w c #000000",
".x c #000000",
".y c #000000",
".z c #000000",
".A c #000000",
".B c #000000",
".C c #000000",
".D c #000000",
".E c #000000",
".F c #000000",
".G c #000000",
".H c #000000",
".I c #000000",
".J c #000000",
".K c #000000",
".L c #000000",
".M c #000000",
".N c #000000",
".O c #000000",
".P c #000000",
".Q c #000000",
".R c #000000",
".S c #000000",
".T c #000000",
".U c #000000",
".V c #000000",
".W c #000000",
".X c #000000",
".Y c #000000",
".Z c #000000",
".0 c #000000",
".1 c #000000",
".2 c #000000",
".3 c #000000",
".4 c #000000",
".5 c #000000",
".6 c #000000",
".7 c #000000",
".8 c #000000",
"#` c #000000",
"#. c #000000",
"## c #000000",
"#a c #000000",
"#b c #000000",
"#c c #000000",
"#d c #000000",
"#e c #000000",
"#f c #000000",
"#g c #000000",
"#h c #000000",
"#i c #000000",
"#j c #000000",
"#k c #000000",
"#l c #000000",
"#m c #000000",
"#n c #000000",
"#o c #000000",
"#p c #000000",
"#q c #000000",
"#r c #000000",
"#s c #000000",
"#t c #000000",
"#u c #000000",
"#v c #000000",
"#w c #000000",
"#x c #000000",
"#y c #000000",
"#z c #000000",
"#A c #000000",
"#B c #000000",
"#C c #000000",
"#D c #000000",
"#E c #000000",
"#F c #000000",
"#G c #000000",
"#H c #000000",
"#I c #000000",
"#J c #000000",
"#K c #000000",
"#L c #000000",
"#M c #000000",
"#N c #000000",
"#O c #000000",
"#P c #000000",
"#Q c #000000",
"#R c #000000",
"#S c #000000",
"#T c #000000",
"#U c #000000",
"#V c #000000",
"#W c #000000",
"#X c #000000",
"#Y c #000000",
"#Z c #000000",
"#0 c #000000",
"#1 c #000000",
"#2 c #000000",
"#3 c #000000",
"#4 c #000000",
"#5 c #000000",
"#6 c #000000",
"#7 c #000000",
"#8 c #000000",
"a` c #000000",
"a. c #000000",
"a# c #000000",
"aa c #000000",
"ab c #000000",
"ac c #000000",
"ad c #000000",
"ae c #000000",
"af c #000000",
"ag c #000000",
"ah c #000000",
"ai c #000000",
"aj c #000000",
"ak c #000000",
"al c #000000",
"am c #000000",
"an c #000000",
"ao c #000000",
"ap c #000000",
"aq c #000000",
"ar c #000000",
"as c #000000",
"at c #000000",
"au c #000000",
"av c #000000",
"aw c #000000",
"ax c #000000",
"ay c #000000",
"az c #000000",
"aA c #000000",
"aB c #000000",
"aC c #000000",
"aD c #000000",
"aE c #000000",
"aF c #000000",
"aG c #000000",
"aH c #000000",
"aI c #000000",
"aJ c #000000",
"aK c #000000",
"aL c #000000",
"aM c #000000",
"aN c #000000",
"aO c #000000",
"aP c #000000",
"aQ c #000000",
"aR c #000000",
"aS c #000000",
"aT c #000000",
"aU c #000000",
"aV c #000000",
"aW c #000000",
"aX c #000000",
"aY c #000000",
"aZ c #000000",
"a0 c #000000",
"a1 c #000000",
"a2 c #000000",
"a3 c #000000",
"a4 c #000000",
"a5 c #000000",
"a6 c #000000",
"a7 c #000000",
"a8 c #000000",
/* pixels */
".j.j.j.j.j.j.j.j.j.j.j.j.j.j.j.j.j.j.j.j.j.j.j.j.j.j.j.j.j.j.j.j",
".j.j.j.j.j.j.j.j.j.j.j.j.j.j.j.j.j.j.j.j.j.j.j.j.j.j.j.j.j.j.j.j",
".j.j.j.j.j.j.j.j.j.j.j.j.j.j.j.j.j.j.j.j.j.j.j.j.j.j.j.j.j.j.j.j",
".j.j.j.j.j.j.j.j.j.j.j.j.j.j.j.j.j.j.j.j.j.j.j.j.j.j.j.j.j.j.j.j",
".j.j.j.j.j.j.j.j.j.j.j.j.j.j.j.j.j.j.j.j.j.j.j.j.j.j.j.j.j.j.j.j",
".j.j.j.j.j.j.j.j.j.j.j.j.j.j.j.j.j.j.j.j.j.j.j.j.j.j.j.j.j.j.j.j",
".j.j.j.j.j.j.j.j.j.j.j.j.j.j.j.j`b.h.h.h.h.h.h.h.h.h.h.h.h.j.j.j",
".j.j.j.j.j.j.j.j.j.j.j.j.j.j.j.h.h.f.f.f.f.f.f.f.f.f.f.f.h.j.j.j",
".j.j.j.j.j.j.j.j.j.j.j.j.j.j.h.f`h`M`J`N`L`L`M`K`K.h.f.h.j.j.j.j",
".j.j.j.j.j.j.j.j.j.j.j.j.j.h.f`k`r`s`r`r`v`v`v`t`y.h.f.j.j.j.j.j",
".j.j.j.j.j.j.j.j.j.j.j.j.j.f.h`6`6`5`5`5`5`5`5`5.g.f.h.j.j.j.j.j",
".j.j.j.j.j.j.j.j.j.j.j.j.i.f.b.`.`.`.`.``8`8`8`8.f.g`b.j.j.j.j.j",
".j.j.j.j.j.j.j.j.j.j.j.j.h.f.................`.c.f.h.j.j.j.j.j.j",
".j.j.j.j.j.j.j.j.j.j.j`#.g.f.e.e.e.e.e.e.e.....f.h.i.j.j.j.j.j.j",
".j.j.j.j.j.j.j.j.j.j.j.i.f`m.e.e.e.e.e.e.e.e.e.f.h`a.j.j.j.j.j.j",
".j.j.j.j.j.j.j.j.j.j`a.f.h...e.e.e.e.e.e.e.e.d.f.h.j.j.j.j.j.j.j",
".j.j.j.j.j.j.j.j.j.j.h.f`4.`.................f.h.h.j.j.j.j.j.j.j",
".j.j.j.j.j.j.j.j.j`#.g.f`6`6`7`8`8`8`8`8.`.`.f.h.i.j.j.j.j.j.j.j",
".j.j.j.j.j.j.j.j`#.h.f`u`q.#`n`5`5`5`6`5`6.a.f.h.j.j.j.j.j.j.j.j",
".j.j.j.j.j.j.j`#.h.f`C`x`w`u`u`r`o`o`p`p`p.h.f.i.j.j.j.j.j.j.j.j",
".j.j.j.j.j`a.i.h.f`j`I`H`F`E`D`D`B`z`A`z`l.f.h`a.j.j.j.j.j.j.j.j",
".j.j.j.j.i.h.f.f`Y`V`T`R`P`O`M`M`L`H`G`F.h.f.h.j.j.j.j.j.j.j.j.j",
".j.j.j.i.h.f.h.h`i`f`3`Z`Z`X`W`U`R`S`Q`d.f.h`b.j.j.j.j.j.j.j.j.j",
".j.j.j.h.f.f.f.f.f.h.h.h.h`e`g`2`1`0`c.h.f.i.j.j.j.j.j.j.j.j.j.j",
".j.j.j.j.j`b.i.i.i.f.f.f.f.f.f.h.h.h.h.f.i.j.j.j.j.j.j.j.j.j.j.j",
".j.j.j.j.j.j.j.j.j.j`b.i.i.i.f.f.f.f.f.f.j.j.j.j.j.j.j.j.j.j.j.j",
".j.j.j.j.j.j.j.j.j.j.j.j.j.j.j`b.i.i.i.j.j.j.j.j.j.j.j.j.j.j.j.j",
".j.j.j.j.j.j.j.j.j.j.j.j.j.j.j.j.j.j.j.j.j.j.j.j.j.j.j.j.j.j.j.j",
".j.j.j.j.j.j.j.j.j.j.j.j.j.j.j.j.j.j.j.j.j.j.j.j.j.j.j.j.j.j.j.j",
".j.j.j.j.j.j.j.j.j.j.j.j.j.j.j.j.j.j.j.j.j.j.j.j.j.j.j.j.j.j.j.j",
".j.j.j.j.j.j.j.j.j.j.j.j.j.j.j.j.j.j.j.j.j.j.j.j.j.j.j.j.j.j.j.j",
".j.j.j.j.j.j.j.j.j.j.j.j.j.j.j.j.j.j.j.j.j.j.j.j.j.j.j.j.j.j.j.j"
};
