/* XPM */
static char *smoothbrush_xpm[] = {
/* width height num_colors chars_per_pixel */
"    32    32      256            2",
/* colors */
"`` c #c4c2c4",
"`. c #8c959c",
"`# c #547a9c",
"`a c #6486a4",
"`b c #a4aab0",
"`c c #4c7298",
"`d c #3c8ece",
"`e c #3ca6ec",
"`f c #446d9c",
"`g c #acb6bc",
"`h c #5c86b4",
"`i c #3c76b7",
"`j c #3c7ecc",
"`k c #4c76a0",
"`l c #3c85c4",
"`m c #3c9aea",
"`n c #3caaeb",
"`o c #3c9ad8",
"`p c #4486c4",
"`q c #648aac",
"`r c #3c7aac",
"`s c #3c8edc",
"`t c #3c92e1",
"`u c #3c8ad2",
"`v c #3c86cf",
"`w c #3c96e9",
"`x c #3caeec",
"`y c #3c9ee9",
"`z c #3c86dc",
"`A c #3c72b4",
"`B c #547eac",
"`C c #bcbabc",
"`D c #b4a6a4",
"`E c #cca6a4",
"`F c #3c729c",
"`G c #3c8ac4",
"`H c #3c76c4",
"`I c #3c8adc",
"`J c #5c84a4",
"`K c #bcb2b4",
"`L c #a48584",
"`M c #dc7e7c",
"`N c #3c6a90",
"`O c #3c72ac",
"`P c #3ca2ea",
"`Q c #4c9ad4",
"`R c #4496d9",
"`S c #945a54",
"`T c #ec5254",
"`U c #3c6286",
"`V c #3c76a4",
"`W c #4c9edc",
"`X c #4c96cf",
"`Y c #ac8a8c",
"`Z c #741a14",
"`0 c #ff0e12",
"`1 c #94a6c4",
"`2 c #7c9ac0",
"`3 c #449ee0",
"`4 c #54a6dc",
"`5 c #3c82cc",
"`6 c #54aae4",
"`7 c #3c82ba",
"`8 c #3c6e9c",
".` c #94a2b1",
".. c #acb2ba",
".# c #bcbec1",
".a c #3c7ab8",
".b c #3c92d4",
".c c #5caadc",
".d c #6cb7dc",
".e c #5ca6d9",
".f c #448ed4",
".g c #3c7ebc",
".h c #445a70",
".i c #445e7c",
".j c #446280",
".k c #54728c",
".l c #647e9c",
".m c #64b1dc",
".n c #74bae0",
".o c #549ed7",
".p c #5499d4",
".q c #4c3244",
".r c #940a0c",
".s c #dc0a0c",
".t c #9c666c",
".u c #446684",
".v c #44658c",
".w c #8c9aac",
".x c #4492dc",
".y c #4c98dc",
".z c #54a2d7",
".A c #84727c",
".B c #6c0e0c",
".C c #cc0e14",
".D c #647a94",
".E c #7c8a9c",
".F c #64829c",
".G c #3c96dc",
".H c #4496e4",
".I c #7c9ec4",
".J c #542e3c",
".K c #ac0a0c",
".L c #946a7c",
".M c #446a93",
".N c #4c92d4",
".O c #545a7c",
".P c #7c0a0c",
".Q c #4c77ac",
".R c #4c6e9c",
".S c #446e94",
".T c #448ad4",
".U c #4c8eca",
".V c #2c6eac",
".W c #145a9c",
".X c #0c5eac",
".Y c #0c62b0",
".Z c #1c66a4",
".0 c #347aac",
".1 c #548ec4",
".2 c #5c161c",
".3 c #645a7c",
".4 c #4c82b8",
".5 c #8c9eb4",
".6 c #b4b8bc",
".7 c #9caab4",
".8 c #849eb4",
"#` c #6c96bc",
"#. c #648ebc",
"## c #4c8acc",
"#a c #346ea4",
"#b c #0c5698",
"#c c #0c6ecc",
"#d c #147ae4",
"#e c #1c8ee4",
"#f c #349ee8",
"#g c #147ad4",
"#h c #24669c",
"#i c #4c92cc",
"#j c #4c86bc",
"#k c #4c7eb0",
"#l c #848e9c",
"#m c #0c4a8c",
"#n c #0c5aac",
"#o c #146ad4",
"#p c #1c76e1",
"#q c #1c86e3",
"#r c #2c96e1",
"#s c #44adec",
"#t c #4caeec",
"#u c #1476d4",
"#v c #2462a4",
"#w c #4c8ebc",
"#x c #447aac",
"#y c #9ca6b4",
"#z c #546674",
"#A c #144680",
"#B c #14529c",
"#C c #145eb6",
"#D c #1c6acf",
"#E c #54b8ec",
"#F c #1c82e2",
"#G c #1c76cf",
"#H c #1c66c0",
"#I c #1c5ea8",
"#J c #2c5e8c",
"#K c #44729c",
"#L c #0c3e6c",
"#M c #144e95",
"#N c #145aaa",
"#O c #1462bf",
"#P c #1c6ed0",
"#Q c #1c7ae0",
"#R c #248ae0",
"#S c #2c9ae2",
"#T c #5cbaec",
"#U c #248fe4",
"#V c #1c7ed2",
"#W c #1c72c4",
"#X c #1c62ac",
"#Y c #145699",
"#Z c #144277",
"#0 c #2c5278",
"#1 c #8492a4",
"#2 c #6c7a84",
"#3 c #0c2a4c",
"#4 c #0c3a68",
"#5 c #144a8c",
"#6 c #1456a4",
"#7 c #1c72dc",
"#8 c #1c8ae4",
"a` c #2496e4",
"a. c #2486dc",
"a# c #1c6ebc",
"aa c #145ea4",
"ab c #144e8c",
"ac c #0c3258",
"ad c #14365c",
"ae c #143e68",
"af c #24466c",
"ag c #144a84",
"ah c #1466c4",
"ai c #1c72d1",
"aj c #2c9aec",
"ak c #248ed8",
"al c #1c66b4",
"am c #0c3664",
"an c #0c3e74",
"ao c #748a9c",
"ap c #34a2e8",
"aq c #5c7694",
"ar c #0c427c",
"as c #1c6ac1",
"at c #4cb4ec",
"au c #44b2ec",
"av c #1c86d2",
"aw c #1c7ad0",
"ax c #1462a8",
"ay c #8496ac",
"az c #1c7ee1",
"aA c #2492dc",
"aB c #1c76c4",
"aC c #1462b4",
"aD c #34aaec",
"aE c #2c92dc",
"aF c #1c8ad4",
"aG c #1c82d4",
"aH c #1c7ac1",
"aI c #748eac",
"aJ c #7c92ac",
"aK c #6c8eb4",
"aL c #2c76c4",
"aM c #34a6e4",
"aN c #2ca2e4",
"aO c #2c9ee4",
"aP c #1c6eb4",
"aQ c #2c62a4",
"aR c #b4bec4",
"aS c #94aec4",
"aT c #649acc",
"aU c #3486cc",
"aV c #84aac4",
"aW c #248ac4",
"aX c #2c8ecc",
"aY c #2486c4",
"aZ c #1c6eac",
"a0 c #346a9c",
"a1 c #9cb2bc",
"a2 c #5c9abc",
"a3 c #348abc",
"a4 c #247ab4",
"a5 c #1c6aa4",
"a6 c #14629c",
"a7 c #547ea4",
"a8 c #1c5a8c",
/* pixels */
"````````````````````````````````````````````````````````````````",
"````````````````````````````````````````````````````````````````",
"```````````````````````````````.`#`#`a`b````````````````````````",
"`````````````````````````````c`d`e`e`d`f`.``````````````````````",
"```````````````````g`h`i`j`k`l`m`n`n`o`p`f`.````````````````````",
"```````````````````q`r`s`t`u`v`w`e`x`y`z`j`A`B`g`C`D`E``````````",
"```````````````````F`G`y`u`i`H`I`y`n`y`w`t`s`r`J`K`L`M``````````",
"```````````````````N`l`d`O`A`j`z`w`P`y`Q`R`y`G`F`D`S`T``````````",
"```````````````````U`V`F`r`s`w`m`y`y`P`W`X`y`l`N`Y`Z`0``````````",
"```````````````1`2`N`F`F`G`y`P`P`y`y`3`4`X`d`V`U`L`Z`0``````````",
"```````````g`h`i`j`5`V`N`l`y`P`m`o`3`6`u`v`7`8`N`L`Z`0.`...#````",
"```````````q`r`s`w`m.a`U`V`d.b`d`R.c.d.e`R.f.g`5`L`Z`0.h.i.j.k.l",
"````````..`F`G`y`y`d.g`N`8`7`v`u`W.m.n.d.e.o.p.q.r`0`0.s.t.j.u.v",
"``````.w.u`N`l`y.b`u`u`5.g`v.x.y`4.m.n.d.c.z.p.A.B.s`0.C.D.v.u.E",
"``.#.F.v.v`U`V`d`d`d.b.G`t.H.y`W`4.m.d.d.m`4.o.I.J.K`0.L`c.M.l``",
".`.M.M.M.M`N`8`7`v`u.N.N.y.y.y.o`4.m.d.d.m.c.z.p.O.P.C.Q.Q.R.#``",
".S.M.M.M`f`5.g`v.T.U.U.U.N.N.V.W.X.Y.Z.0.e.c.z`Q.1.2.3.4.Q.5````",
"````.6...7.`.8`2#`#..1###a#b#c#d#e#f#f#g#b#h`X`X#i.U#j#k`B``````",
"````````````````````#l#m#n#o#p#q#r#s#t#r#u.Y#v`7#w#j#k#x#y``````",
"``````````````````#z#A#B#C#D#p#q#r#s#E`e#F#G#H#I#J#K`k`J````````",
"````````````````.h#L#M#N#O#P#Q#R#S#s#T#s#U#V#W#X#Y#Z#0#1.6.#````",
"````````````#2#3#4#5#6#O#D#7#F#8#S#s#E#sa`a.#Va#aaab#Lacadae#0.v",
"`````````bafac#Lag#B#Cahai#Q#F#R#S`x#E#tajaka.#Gal#Nab#Z#4am#Lan",
"``````ao#L#L#Zag#Y#N#O#D#p#F#q#e#S`n#E#sapa`#R#V#Wal#Yab#A#Zaeaq",
"``.#.v#Zar#Aab#B#N#Casai#Q#F#q#U#S`natau`n#Sakavawa#ax#6#M#A`U``",
"ay#A#Zar#A#M#M#6#C#H#P#Gazaz#q#U#S`natau`n#faA#q#VaBas#I#B#M.6``",
"ag#A#A#A#5#M#B#NaCasaiaw#Q#F#q#U#r`eau#saDapaEaFaGaHa#al#YaI````",
"````...7.5aJaK`h.4.aaL#G#Gaz#F#Ra`#f`naMaNaOaAav#VaBaPaxaQ``````",
"``````````````````````aRaSaTaUavak#r#S#S#S#rakavaHaPax.W.8``````",
"``````````````````````````````aRaV`XaWaWaXaXaYaHaZax#Ya0````````",
"``````````````````````````````````````a1a2a3a4a5a6.W#Y.7````````",
"````````````````````````````````````````````.6.8a7a8`#``````````"
};
