/* XPM */
static char *softmod_xpm[] = {
/* width height num_colors chars_per_pixel */
"    32    32      256            2",
/* colors */
"`` c #c1c1c1",
"`. c #c4b2b4",
"`# c #000000",
"`a c #9c6a6c",
"`b c #b45e5c",
"`c c #606060",
"`d c #740204",
"`e c #b42224",
"`f c #bcaeac",
"`g c #ffffff",
"`h c #ac5654",
"`i c #840204",
"`j c #b40e0c",
"`k c #6c1214",
"`l c #8c0204",
"`m c #a42224",
"`n c #7c5654",
"`o c #640204",
"`p c #940204",
"`q c #a40204",
"`r c #a45654",
"`s c #b48e8c",
"`t c #943634",
"`u c #b44a4c",
"`v c #8c1214",
"`w c #fcfe04",
"`x c #b4bac4",
"`y c #8492cc",
"`z c #0426d4",
"`A c #acb6c4",
"`B c #0416d4",
"`C c #0c56dc",
"`D c #147ef4",
"`E c #0c32dc",
"`F c #9cb2bc",
"`G c #6c82cc",
"`H c #0412d4",
"`I c #047adc",
"`J c #1c9ef4",
"`K c #0422dc",
"`L c #0c62e4",
"`M c #0c22d4",
"`N c #a4aac4",
"`O c #5456dc",
"`P c #2c3ed4",
"`Q c #0472dc",
"`R c #0c8aec",
"`S c #1ca6f4",
"`T c #24aefc",
"`U c #0c7af4",
"`V c #0c4ee4",
"`W c #044adc",
"`X c #0422d4",
"`Y c #043ae4",
"`Z c #0442f4",
"`0 c #042edc",
"`1 c #949ec4",
"`2 c #046ab4",
"`3 c #046ebc",
"`4 c #047acc",
"`5 c #0476d4",
"`6 c #047ee4",
"`7 c #044ee4",
"`8 c #043ad4",
".` c #046adc",
".. c #0c7ee4",
".# c #24aaf4",
".a c #2cbefc",
".b c #0c46e4",
".c c #0c76e4",
".d c #041edc",
".e c #54a2e4",
".f c #1c72ec",
".g c #040ee4",
".h c #0472c4",
".i c #0482dc",
".j c #0482ec",
".k c #047aec",
".l c #343ee4",
".m c #1496f4",
".n c #149ef4",
".o c #24aafc",
".p c #34cafc",
".q c #04a2fc",
".r c #0452ec",
".s c #0c42e4",
".t c #1486d4",
".u c #0452e4",
".v c #4c7ee4",
".w c #7c86cc",
".x c #9cb6c4",
".y c #0412ec",
".z c #046ed4",
".A c #045ee4",
".B c #047edc",
".C c #0476e4",
".D c #149af4",
".E c #0ca2fc",
".F c #0496fc",
".G c #0426dc",
".H c #1ca6fc",
".I c #0c7ef4",
".J c #041aec",
".K c #041adc",
".L c #0466dc",
".M c #048aec",
".N c #048ef4",
".O c #041eec",
".P c #0476dc",
".Q c #0c8ef4",
".R c #14aafc",
".S c #1492f4",
".T c #1c96f4",
".U c #040edc",
".V c #0492fc",
".W c #047ad4",
".X c #0c3edc",
".Y c #0c36dc",
".Z c #0c3adc",
".0 c #0c2ee4",
".1 c #0426f4",
".2 c #042aec",
".3 c #344ee4",
".4 c #0482e4",
".5 c #0c4edc",
".6 c #048af4",
".7 c #0c8af4",
".8 c #2cb6f4",
"#` c #2ca2f4",
"#. c #148ef4",
"## c #046efc",
"#a c #149efc",
"#b c #040aec",
"#c c #0486ec",
"#d c #0c92f4",
"#e c #24befc",
"#f c #34cefc",
"#g c #0c9efc",
"#h c #046afc",
"#i c #044ef4",
"#j c #048efc",
"#k c #045aec",
"#l c #0c26dc",
"#m c #0402f4",
"#n c #0c4ed4",
"#o c #0c5ad4",
"#p c #0486e4",
"#q c #1cb6fc",
"#r c #2ccafc",
"#s c #042ef4",
"#t c #149afc",
"#u c #0426ec",
"#v c #4c6edc",
"#w c #0462dc",
"#x c #0c8eec",
"#y c #1496ec",
"#z c #14aefc",
"#A c #3cd6fc",
"#B c #0456f4",
"#C c #0482fc",
"#D c #0432f4",
"#E c #047af4",
"#F c #1ca2f4",
"#G c #34c6fc",
"#H c #0462f4",
"#I c #047afc",
"#J c #044af4",
"#K c #0406ec",
"#L c #1432ec",
"#M c #0c86e4",
"#N c #0c96ec",
"#O c #0c22ec",
"#P c #0476f4",
"#Q c #043af4",
"#R c #0412f4",
"#S c #040ef4",
"#T c #041ef4",
"#U c #0c3eec",
"#V c #1c42ec",
"#W c #4462e4",
"#X c #5c6ed4",
"#Y c #9ca2cc",
"#Z c #0422f4",
"#0 c #045ef4",
"#1 c #044efc",
"#2 c #040af4",
"#3 c #041af4",
"#4 c #1c46ec",
"#5 c #4472e4",
"#6 c #5c9ae4",
"#7 c #8cb6d4",
"#8 c #2426ec",
"a` c #3432ec",
"a. c #344aec",
"a# c #4c6ae4",
"aa c #6c8edc",
"ab c #a4b6cc",
"ac c #040eec",
"ad c #047ae4",
"ae c #0416f4",
"af c #3c52e4",
"ag c #0432ec",
"ah c #1442ec",
"ai c #8496d4",
"aj c #b4b6c4",
"ak c #000000",
"al c #000000",
"am c #000000",
"an c #000000",
"ao c #000000",
"ap c #000000",
"aq c #000000",
"ar c #000000",
"as c #000000",
"at c #000000",
"au c #000000",
"av c #000000",
"aw c #000000",
"ax c #000000",
"ay c #000000",
"az c #000000",
"aA c #000000",
"aB c #000000",
"aC c #000000",
"aD c #000000",
"aE c #000000",
"aF c #000000",
"aG c #000000",
"aH c #000000",
"aI c #000000",
"aJ c #000000",
"aK c #000000",
"aL c #000000",
"aM c #000000",
"aN c #000000",
"aO c #000000",
"aP c #000000",
"aQ c #000000",
"aR c #000000",
"aS c #000000",
"aT c #000000",
"aU c #000000",
"aV c #000000",
"aW c #000000",
"aX c #000000",
"aY c #000000",
"aZ c #000000",
"a0 c #000000",
"a1 c #000000",
"a2 c #000000",
"a3 c #000000",
"a4 c #000000",
"a5 c #000000",
"a6 c #000000",
"a7 c #000000",
"a8 c #000000",
/* pixels */
"````````````````````````````````````````````````````````````````",
"```````````````````````````````.`````````````````````#`#`#`#`#``",
"`````````````````````````````a`b```````````````````c`c`c`c`c`#``",
"`````````````````````````````d`e`f`````````````````c`g`g`g`c`#``",
"```````````````````````````h`i`j`h`````````````````c`g`g`g`c`#``",
"```````````````````````````k`l`j`m`f```````````````c`g`g`g`c`#``",
"`````````````````````````n`o`p`j`q`r```````````````c`c`c`c`c````",
"`````````````````````````s`t`l`j`u`s````````````````````````````",
"`````````````````````````````o`i````````````````````````````````",
"`````````````````````````````k`i````````````````````````````````",
"`````````````````````````````k`v````````````````````````````````",
"`````````````````````````````w`w````````````````````````````````",
"`````````````````````````x`y`w`w`z``````````````````````````````",
"```````````````````````A`y`B`C`D`E`z````````````````````````````",
"`````````````````````F`G`H`I`J`J`K`L`M`N````````````````````````",
"```````G`O`P`B`B`B`P`M`H`Q`R`S`T`U`V`W`X`Y`Z`0`1````````````````",
"```````H`2`3`4`5`6`7`8.`..`S.#.a``.b.c.c.d.e.f`Z````````````````",
"`````F.g.h.i.j.k.l`X`z`Q.m.n.o.p.q.r.s`S.t.u.v`E.w``````````````",
"````.x.y.z.A.l`X.B`4.y.C`R.D`S.p.E.F.G`J.H.I.J.d`P``````````````",
"`````F.K`X.L.M.N.N.i.O.P.k.Q``.p.R.q`w`w.S.T.u`E.K.w````````````",
"`````F.U`Q.M.V.N.M.W`w`w`C.X.X`E.Y.Z`w`w.0`Y.1.2`0.3````````````",
"`````A.g`5.N.N.4.`.5`w`w.6.7`S.8#`.m#..Z###a.R.V.6.y`1``````````",
"`````A#b`4`I.L.b`C`Q`0#c.6#d.##e#f#e#g#h#i.R.R#j.V#k#l``````````",
"`````x#m#n.Z#o.z.B#p`E#c.M.Q`S#q#f#r.E.V#s.R#t.V.V#p#u#v````````",
"``````.g#w`6#p#x#y`R.2.M.M.N.##z#f#A#z.q#B.V.F#C#C#C#C.K`F``````",
"``````.K.i`R#y.n.n.D#D#E.N.M#F.R#r#G#z.q#H#C#C#I#H#J.O#K#L``````",
"``````.g#M.D.n#F.n#N#O#P.M.M.V.E#z#t#h#Q#R#S#T.1#U#V#W#X#Y``````",
"``````.y#x.n`S#F.n.D#Z#k.M#0#1#s#2#3#4#5#6#7````````````````````",
"```````H.M.n.n.D#N#d#3#8a`a.a#aaab``````````````````````````````",
"``````acad...B#J#3aeaf#Y`A``````````````````````````````````````",
"``````.yagah#Xaiaj``````````````````````````````````````````````",
"```````Faj``````````````````````````````````````````````````````"
};
