/* XPM */
static char *stitchnurb_xpm[] = {
/* width height num_colors chars_per_pixel */
"    32    32      256            2",
/* colors */
"`` c #c1c1c1",
"`. c #afafb9",
"`# c #8b8bac",
"`a c #8c8cae",
"`b c #7b7bab",
"`c c #8c8cb0",
"`d c #000000",
"`e c #575757",
"`f c #8c8c8c",
"`g c #454596",
"`h c #0d1a76",
"`i c #0452a8",
"`j c #0459b6",
"`k c #0463c2",
"`l c #055ab8",
"`m c #606060",
"`n c #787895",
"`o c #393939",
"`p c #333388",
"`q c #0b2785",
"`r c #0189e9",
"`s c #0086e6",
"`t c #0088e7",
"`u c #ffffff",
"`v c #aeaeb4",
"`w c #111111",
"`x c #7b7b7c",
"`y c #027ede",
"`z c #008df1",
"`A c #008ef1",
"`B c #008df0",
"`C c #008def",
"`D c #636377",
"`E c #242424",
"`F c #aeaeaf",
"`G c #0d1c80",
"`H c #0183e7",
"`I c #0092f8",
"`J c #0092f9",
"`K c #0091f6",
"`L c #10107d",
"`M c #026dc7",
"`N c #0096fe",
"`O c #3a6db8",
"`P c #cd040b",
"`Q c #416cb8",
"`R c #0095fe",
"`S c #0094fd",
"`T c #0094fb",
"`U c #0093fa",
"`V c #474747",
"`W c #222282",
"`X c #0655b7",
"`Y c #009bff",
"`Z c #009aff",
"`0 c #d50204",
"`1 c #d10101",
"`2 c #942843",
"`3 c #0097ff",
"`4 c #6b4a7d",
"`5 c #cf0305",
"`6 c #57579b",
"`7 c #0094fc",
"`8 c #065dc3",
".` c #121289",
".. c #9d9db3",
".# c #9d9d9d",
".a c #0a49b7",
".b c #e61d1d",
".c c #d80f0f",
".d c #2977c6",
".e c #277dd2",
".f c #de0505",
".g c #b9121f",
".h c #53558c",
".i c #3474c3",
".j c #0b3ca3",
".k c #14147c",
".l c #40406e",
".m c #1f1f6f",
".n c #310e67",
".o c #db1313",
".p c #d5080c",
".q c #1375d6",
".r c #5f4984",
".s c #dc0c0c",
".t c #902d4e",
".u c #0f8ced",
".v c #2071c5",
".w c #19198a",
".x c #1d1d1d",
".y c #505050",
".z c #7b6c82",
".A c #c30000",
".B c #cf0000",
".C c #1f0f71",
".D c #5c083f",
".E c #bb0000",
".F c #af111d",
".G c #0b3cac",
".H c #3f4194",
".I c #cf0b10",
".J c #144fad",
".K c #2c2caa",
".L c #66668d",
".M c #926969",
".N c #be1111",
".O c #c70000",
".P c #4b2e5f",
".Q c #2b0b56",
".R c #ab0a1b",
".S c #0d0d66",
".T c #6b0634",
".U c #9b0620",
".V c #101077",
".W c #2929a7",
".X c #777777",
".Y c #a54949",
".Z c #d62323",
".0 c #d06969",
".1 c #c69d9d",
".2 c #890e33",
".3 c #083690",
".4 c #9b213c",
".5 c #bc0409",
".6 c #862b4b",
".7 c #60294c",
".8 c #3333aa",
"#` c #c4afaf",
"#. c #700b0b",
"## c #990000",
"#a c #b30000",
"#b c #e20000",
"#c c #e71112",
"#d c #84083d",
"#e c #2f3c92",
"#f c #046acd",
"#g c #4c5fa4",
"#h c #0098ff",
"#i c #ab1121",
"#j c #7e3055",
"#k c #b1050b",
"#l c #5d477c",
"#m c #421971",
"#n c #c0afaf",
"#o c #7c0000",
"#p c #380c0c",
"#q c #836161",
"#r c #651c51",
"#s c #a51a31",
"#t c #dc070e",
"#u c #4b6fb4",
"#v c #1c84d9",
"#w c #933355",
"#x c #7c4877",
"#y c #1194ed",
"#z c #495fa0",
"#A c #8c375e",
"#B c #4f5a99",
"#C c #7a092c",
"#D c #4b0840",
"#E c #b12323",
"#F c #b92323",
"#G c #a80000",
"#H c #bdafaf",
"#I c #8181ac",
"#J c #2424ae",
"#K c #0287df",
"#L c #00a5ff",
"#M c #3d75b5",
"#N c #615b90",
"#O c #00a2ff",
"#P c #55588f",
"#Q c #635387",
"#R c #009cff",
"#S c #1c80d8",
"#T c #7f5a6c",
"#U c #af3434",
"#V c #3f3fac",
"#W c #1435a6",
"#X c #00a9ff",
"#Y c #00a8ff",
"#Z c #00a7ff",
"#0 c #00a4ff",
"#1 c #00a1ff",
"#2 c #009fff",
"#3 c #009dff",
"#4 c #0099ff",
"#5 c #0299ff",
"#6 c #0c389e",
"#7 c #c35757",
"#8 c #bd0000",
"a` c #1818a5",
"a. c #019bef",
"a# c #00aaff",
"aa c #00a0ff",
"ab c #019bff",
"ac c #41419e",
"ad c #cb1111",
"ae c #b1b1bb",
"af c #00a3ff",
"ag c #009eff",
"ah c #0570cf",
"ai c #434384",
"aj c #36369e",
"ak c #111186",
"al c #0289de",
"am c #065cbb",
"an c #8a8aa1",
"ao c #121290",
"ap c #0f0f76",
"aq c #4747a1",
"ar c #0477d3",
"as c #046fcc",
"at c #074aac",
"au c #65658a",
"av c #0f2090",
"aw c #0f0f79",
"ax c #10107b",
"ay c #0f2196",
"az c #028af1",
"aA c #056bd2",
"aB c #303070",
"aC c #3f3f65",
"aD c #1c1c57",
"aE c #0c0c62",
"aF c #0d2fa3",
"aG c #0b3eb0",
"aH c #037ae4",
"aI c #0d1c84",
"aJ c #656584",
"aK c #383851",
"aL c #101082",
"aM c #494962",
"aN c #1b1b52",
"aO c #0b0b56",
"aP c #0185ea",
"aQ c #9b9ba2",
"aR c #646480",
"aS c #19194a",
"aT c #0b0b5a",
"aU c #0f1f92",
"aV c #0d0d69",
"aW c #88888e",
"aX c #51516a",
"aY c #111173",
"aZ c #11116a",
"a0 c #888894",
"a1 c #000000",
"a2 c #000000",
"a3 c #000000",
"a4 c #000000",
"a5 c #000000",
"a6 c #000000",
"a7 c #000000",
"a8 c #000000",
/* pixels */
"````````````````````````````````````````````````````````````````",
"```````````````````````````````````.`#`a`b`b`b`b`b`c`d`d`d`d`d`.",
"`````e`f`````````````````````````g`h`i`j`k`l`j`l`l`m`m`m`m`m`d`n",
"`````f`o```````````````````````p`q`r`r`r`s`s`s`t`s`m`u`u`u`m`d`v",
"```````w`x```````````````````p`q`y`z`A`A`z`B`B`B`C`m`u`u`u`m`d``",
"```````D`E`F```````````````g`G`H`I`J`I`I`I`I`I`K`K`m`u`u`u`m`d``",
"```````F`w`x`````````````a`L`M`N`O`P`Q`R`R`S`T`T`U`m`m`m`m`m````",
"`````````V`E`F`````````v`W`X`Y`Z`0`1`2`3`4`5`6`S`S`7`T`8.`..````",
"````````.#`w`e`````````v`W`W.a.a.b.c.d.e.f.g.h`R.i.e`7.j.k``````",
"```````````D`w`f`````````v.l.m.n.o.p.q.r.s.t`N.u`0`P.v.w`p``````",
"``````````.#.x.y`````````````v.z.A.B.C.D.E.F.G.H`1.I.J.K.L``````",
"`````````````V`o.M``````````````.N.O.P.Q.R.A.S.T.O.U.V.W..``````",
"````````````.X.Y.B.Z.0.1``..`6`g.2.E.Q.3.4.5.5.6.E.7`h.8#```````",
"`````````````f#.###a`1#b#c#d#e#f#g#g.i#h`4#i.d#j#k#l#l#m.o#n````",
"``````````````#o#p#q#r.2#s#s#t#u#v#w#x#y#z.4#A#B#B#C.K#D#E``````",
"````````````#F#G#H#I#J#K#L#M#N#y#O#P#Q#R`Z#S#S`N`O`O.K#T#H``````",
"````````````.A#U``#V#W#X#Y#Z#L#0#O#1#2#3`Y`Z#4#5#5#6.8``````````",
"``````````#7#8#8`ba`a.a##X#Y#L#0#Oaa#2#3#Rabab#5`r`rac``````````",
"``````````ad#Fae.W.ja#a#a##Y#Z#Laf#1aaag#3#Rababahahai``````````",
"``````````.1#najakala#a##X#Z#L#0af#1aaag#3#R#Rabam#Jan``````````",
"`````````````6aoal#Y#Y#Y#Z#L#0af#O#1#2ag#3#R#R`Yap.k````````````",
"``````````aq.`ar#L#L#L#L#0af#O#1aa#2ag#3#3#R`Y`y.`ai````````````",
"``````..ajakas#1#1#1#O#1#1aa#2#2ag#3#R#R#R`Y`Zat.`au````````````",
"````.L`Wav`y#3agag#2agagag#3#3#R`Y`Y`Z`Z`Z#4#4awax`v````````````",
"```.ap.`ay.aaz`Z`Z`Z`Z`Y`Y`Z`Z`Z#4#4#h#h#h#haAakaB``````````````",
"````aCaDaEapakaFaGaHaz#h#h`3`3`3`N`N`N`N`N`NaIaxaJ``````````````",
"```````F`DaKaKaEawaLak.G`8aH`S`7`S`7`7`7`T`8akaB`v``````````````",
"`````````````F`xaMaNaOap`Lakay.aaAaP`I`I`JaIaL.L````````````````",
"````````````````````aQaRaSaTapaxaLaU.G`yataLaV`v````````````````",
"``````````````````````````aWaXaSaTaVaxak.`.w.L``````````````````",
"````````````````````````````````aQ`DaSaOaYaZ`F``````````````````",
"``````````````````````````````````````aQ`Da0````````````````````"
};
