/* XPM */
static char *togglecurve_s32_xpm[] = {
/* width height num_colors chars_per_pixel */
"    32    32      256            2",
/* colors */
"`` c #c1c1c1",
"`. c #9d9d9d",
"`# c #000000",
"`a c #afafaf",
"`b c #6b6b63",
"`c c #7a7a71",
"`d c #8a8a7f",
"`e c #2a2a28",
"`f c #7b7b71",
"`g c #7b7b72",
"`h c #8a8a80",
"`i c #9898ae",
"`j c #8282a7",
"`k c #70709e",
"`l c #9494ae",
"`m c #8282a6",
"`n c #9494ad",
"`o c #2f2f2e",
"`p c #6c6c64",
"`q c #8b8b80",
"`r c #3c3c86",
"`s c #111177",
"`t c #101074",
"`u c #12127c",
"`v c #111176",
"`w c #13137b",
"`x c #14147f",
"`y c #19198c",
"`z c #202094",
"`A c #4c4cae",
"`B c #4a4aaa",
"`C c #6767ac",
"`D c #7272a4",
"`E c #7c7c72",
"`F c #36365d",
"`G c #070738",
"`H c #07073a",
"`I c #080843",
"`J c #07073b",
"`K c #080841",
"`L c #08083f",
"`M c #09094b",
"`N c #090949",
"`O c #0a0a51",
"`P c #0b0b57",
"`Q c #0c0c59",
"`R c #0f0f63",
"`S c #12126e",
"`T c #1c1c88",
"`U c #2626a1",
"`V c #2d2db1",
"`W c #3333b1",
"`X c #7070b8",
"`Y c #8c8c8c",
"`Z c #8b8b81",
"`0 c #7e7e88",
"`1 c #919198",
"`2 c #6b6b77",
"`3 c #7e7e87",
"`4 c #6b6b78",
"`5 c #6c6c78",
"`6 c #6c6c79",
"`7 c #595969",
"`8 c #333349",
".` c #46465c",
".. c #33334c",
".# c #09092b",
".a c #05052d",
".b c #0a0a4d",
".c c #0f0f62",
".d c #2d2da5",
".e c #3333af",
".f c #62629e",
".g c #2b2b29",
".h c #6d6d64",
".i c #8c8c81",
".j c #1c1c38",
".k c #060634",
".l c #0d0d57",
".m c #2626a5",
".n c #1e1e4a",
".o c #161680",
".p c #85859a",
".q c #121266",
".r c #4b4b82",
".s c #5f5f94",
".t c #17177c",
".u c #181887",
".v c #0d0d61",
".w c #808098",
".x c #9494ab",
".y c #4d4d8d",
".z c #2c2c8d",
".A c #19198b",
".B c #1b1b8e",
".C c #141479",
".D c #0b0b59",
".E c #434366",
".F c #5f5f95",
".G c #3b3b86",
".H c #191985",
".I c #151583",
".J c #151582",
".K c #1a1a89",
".L c #0c0c5c",
".M c #0a0a4f",
".N c #7f7f8d",
".O c #8c8c82",
".P c #707097",
".Q c #242475",
".R c #101077",
".S c #13137e",
".T c #0f0f6e",
".U c #0c0c3f",
".V c #353556",
".W c #6c6c7b",
".X c #8d8d82",
".Y c #59598c",
".Z c #0f0f71",
".0 c #0e0e6d",
".1 c #0c0c60",
".2 c #0b0b39",
".3 c #5a5a72",
".4 c #7d7d73",
".5 c #4b4b7f",
".6 c #0e0e6f",
".7 c #0d0d69",
".8 c #0d0d48",
"#` c #5a5a6f",
"#. c #6d6d65",
"## c #111162",
"#a c #0e0e6e",
"#b c #202058",
"#c c #96969d",
"#d c #92929f",
"#e c #0d0d67",
"#f c #5b5b7a",
"#g c #7f7f8e",
"#h c #0d0d63",
"#i c #81819b",
"#j c #0f0f57",
"#k c #1d1d98",
"#l c #4a4a90",
"#m c #474764",
"#n c #0f0f6a",
"#o c #3232bb",
"#p c #4545a3",
"#q c #71719e",
"#r c #9393a9",
"#s c #303055",
"#t c #0e0e63",
"#u c #2929b2",
"#v c #2424a6",
"#w c #1f1f95",
"#x c #505099",
"#y c #5f5f96",
"#z c #8282a5",
"#A c #59596d",
"#B c #0c0c42",
"#C c #121274",
"#D c #2525a5",
"#E c #2424a8",
"#F c #2727ae",
"#G c #2626af",
"#H c #2a2aac",
"#I c #202099",
"#J c #212194",
"#K c #22228c",
"#L c #3b3ba1",
"#M c #38389c",
"#N c #4646a1",
"#O c #45459f",
"#P c #333398",
"#Q c #45459e",
"#R c #8e8eba",
"#S c #7f7f89",
"#T c #5a5a71",
"#U c #36365c",
"#V c #1f1f4e",
"#W c #090947",
"#X c #0a0a52",
"#Y c #111170",
"#Z c #141478",
"#0 c #1a1a86",
"#1 c #1f1f8e",
"#2 c #262696",
"#3 c #2929a0",
"#4 c #2d2da2",
"#5 c #2f2fa6",
"#6 c #3030a7",
"#7 c #2f2fa8",
"#8 c #3030a8",
"a` c #7474b6",
"a. c #919197",
"a# c #7e7e89",
"aa c #7f7f8c",
"ab c #5b5b77",
"ac c #484866",
"ad c #48486d",
"ae c #232350",
"af c #35355a",
"ag c #36365f",
"ah c #9797a6",
"ai c #89897f",
"aj c #6b6b62",
"ak c #000000",
"al c #000000",
"am c #000000",
"an c #000000",
"ao c #000000",
"ap c #000000",
"aq c #000000",
"ar c #000000",
"as c #000000",
"at c #000000",
"au c #000000",
"av c #000000",
"aw c #000000",
"ax c #000000",
"ay c #000000",
"az c #000000",
"aA c #000000",
"aB c #000000",
"aC c #000000",
"aD c #000000",
"aE c #000000",
"aF c #000000",
"aG c #000000",
"aH c #000000",
"aI c #000000",
"aJ c #000000",
"aK c #000000",
"aL c #000000",
"aM c #000000",
"aN c #000000",
"aO c #000000",
"aP c #000000",
"aQ c #000000",
"aR c #000000",
"aS c #000000",
"aT c #000000",
"aU c #000000",
"aV c #000000",
"aW c #000000",
"aX c #000000",
"aY c #000000",
"aZ c #000000",
"a0 c #000000",
"a1 c #000000",
"a2 c #000000",
"a3 c #000000",
"a4 c #000000",
"a5 c #000000",
"a6 c #000000",
"a7 c #000000",
"a8 c #000000",
/* pixels */
"`````````````````````````````````````````````````````````````.`#",
"```````````````````````````````````````````````````````````a`#`b",
"`````````````````````````````````````````````````````````.`#`c`d",
"```````````````````````````````````````````````````````a`e`f`d`d",
"`````````````````````````````````````````````````````.`#`g`h`h`d",
"`````i`j`k`l`j`j`m`m`n`n```````````````````````````.`o`p`q`h`h`d",
"`````r`s`t`u`s`v`u`w`x`y`y`z`A`B`C`D`m```````````.`#`E`q`q`q`h`h",
"`````F`G`H`I`J`K`L`M`N`O`P`Q`R`S`T`U`V`W`X`````Y`#`E`Z`q`q`q`q`h",
"```````0`1`2`3`4`5`0`6`7`8.`...#.a`H.b.c.d.e.f.g.h.i`Z`Z`q`q`q`h",
"```````````````````````````````````3`7.j.k.l.m`m.i.i.i`Z`q`q`q`q",
"`````````````````````````````````````````..n.o`r.i.i.i`Z`Z`q`q`q",
"```````````````````````````````````````Y.p.q.o.r.i.i.i.i`Z`q`q`q",
"`````````````````````````````````````..s.t.u.v.w.i.i.i.i`Z`q`q`q",
"````````````````````````````.x`k.y.z.A.B.C.D.E.i.i.i.i.i`Z`Z`q`q",
"````````````````````.x.F.G.H.I.J.K.C.L.M.n.N.O.i.i.i.i.i.i`Z`q`q",
"````````````````.P.Q.R.S.T.v`P.b.U.V.W.X.X.i.i.i.i.i.i.i.i`Z`q`q",
"``````````````.Y.Z.0.1`M.2.3`5`1.4.X.X.X.i.i.i.i.i.i.i.i.i.i.i`q",
"````````````.5.6.7.8#``````..g#..i.i.i.i.i.i.i.i.i.i.i.i.i.i`q`q",
"````````````###a#b#c`````Y`o#..i.i.i.i.i.i.i.i.i.i.i.i.i.i.i`q`q",
"``````````#d#e#a#f`````a`##..X.i.i.i.i.i.i.i.i.i.i.i.i.i.i.i.i.i",
"``````````#g#h.R#i```Y`##..X.i.i.i.i.i.i.i.i.i.i.i.i.i.i.i.i.i`q",
"````````````#j#k#l`..g#..O.O.i.i.i.i.i.i.i.i.i.i.i.i.i.i.i.i.i.i",
"````````````#m#n#o#p#q#r.i.O.O.i.i.i.i.i.i.i.i.i.i.i.i.i.i.i.i.i",
"``````````````#s#t.m#u#v#w#x#y#q#z.i.i.i.i.i.i.i.i.i.i.i.i.i`q`h",
"`````````````.`##A#B`P#C#w#D#E#F#F#F#G#H#I#J#K#L#M#N#O#P#Q#R`q`h",
"```````````.`#`p.i.i#S#T#U#V#W#X`P#h#Y#Z#0#1#2#3#4#5#6#7#8a``h`h",
"`````````a`o`E`Z`Z`Z.i.i.i.i.ia.a#.Waa#T#mab#macad`Faeafagah`h`d",
"```````.`#`p`q`q`q`Z`Z.i.i.i.i.i.i.i.i.i.i.i.i.i.i.i.i.i`q`h`d`d",
"`````a`e`g`q`q`q`q`q`q`Z`Z`Z`Z`Z`Z`Z.i.i.i.i.i.i.i.i`q`h`h`d`d`d",
"```.`o`f`h`h`q`q`q`q`q`q`q`q`Z`q`Z`Z`q`q.i.i.i.i.i.i.i.i.i.i.i.i",
"`a`e`c`d`d`h`h`q`q`q`q`q`q`q`q`q`q`q`q.i.i.i.i.i.i.i.i.i`d`d`dai",
"`eaj`d`d`d`d`d`h`h`q`q`q`q`q`q`q`q`q`q.i`q.i.i.i`h`h`d.i.i.i.iai"
};
