/* XPM */
static char *togglenormals_32_xpm[] = {
/* width height num_colors chars_per_pixel */
"    32    32      256            2",
/* colors */
"`` c #c1c1c1",
"`. c #9d9d9d",
"`# c #000000",
"`a c #6c6c64",
"`b c #afafaf",
"`c c #2f2f2e",
"`d c #7c7c72",
"`e c #8b8b81",
"`f c #8b8b80",
"`g c #f8f766",
"`h c #fffe5a",
"`i c #2a2a28",
"`j c #7b7b72",
"`k c #7b7b71",
"`l c #8a8a80",
"`m c #7a7a71",
"`n c #8a8a7f",
"`o c #afbac2",
"`p c #8c8c8c",
"`q c #6b6b62",
"`r c #1182d0",
"`s c #007bd2",
"`t c #348ecd",
"`u c #ebf267",
"`v c #b8c2b6",
"`w c #2b2b29",
"`x c #6d6d64",
"`y c #8c8c81",
"`z c #8caec5",
"`A c #e1ef68",
"`B c #1e8ac4",
"`C c #69a1c8",
"`D c #0c78c4",
"`E c #4694cc",
"`F c #87c092",
"`G c #99ca8a",
"`H c #1284ca",
"`I c #b4b4b4",
"`J c #727272",
"`K c #48677c",
"`L c #2471a7",
"`M c #848484",
"`N c #6c6c6c",
"`O c #606060",
"`P c #3c6a8b",
"`Q c #9c9c9c",
"`R c #54636e",
"`S c #a8a8a8",
"`T c #787878",
"`U c #306e99",
"`V c #1874b5",
"`W c #7c7c73",
"`X c #728898",
"`Y c #89897f",
"`Z c #000000",
"`0 c #000000",
"`1 c #000000",
"`2 c #000000",
"`3 c #000000",
"`4 c #000000",
"`5 c #000000",
"`6 c #000000",
"`7 c #000000",
"`8 c #000000",
".` c #000000",
".. c #000000",
".# c #000000",
".a c #000000",
".b c #000000",
".c c #000000",
".d c #000000",
".e c #000000",
".f c #000000",
".g c #000000",
".h c #000000",
".i c #000000",
".j c #000000",
".k c #000000",
".l c #000000",
".m c #000000",
".n c #000000",
".o c #000000",
".p c #000000",
".q c #000000",
".r c #000000",
".s c #000000",
".t c #000000",
".u c #000000",
".v c #000000",
".w c #000000",
".x c #000000",
".y c #000000",
".z c #000000",
".A c #000000",
".B c #000000",
".C c #000000",
".D c #000000",
".E c #000000",
".F c #000000",
".G c #000000",
".H c #000000",
".I c #000000",
".J c #000000",
".K c #000000",
".L c #000000",
".M c #000000",
".N c #000000",
".O c #000000",
".P c #000000",
".Q c #000000",
".R c #000000",
".S c #000000",
".T c #000000",
".U c #000000",
".V c #000000",
".W c #000000",
".X c #000000",
".Y c #000000",
".Z c #000000",
".0 c #000000",
".1 c #000000",
".2 c #000000",
".3 c #000000",
".4 c #000000",
".5 c #000000",
".6 c #000000",
".7 c #000000",
".8 c #000000",
"#` c #000000",
"#. c #000000",
"## c #000000",
"#a c #000000",
"#b c #000000",
"#c c #000000",
"#d c #000000",
"#e c #000000",
"#f c #000000",
"#g c #000000",
"#h c #000000",
"#i c #000000",
"#j c #000000",
"#k c #000000",
"#l c #000000",
"#m c #000000",
"#n c #000000",
"#o c #000000",
"#p c #000000",
"#q c #000000",
"#r c #000000",
"#s c #000000",
"#t c #000000",
"#u c #000000",
"#v c #000000",
"#w c #000000",
"#x c #000000",
"#y c #000000",
"#z c #000000",
"#A c #000000",
"#B c #000000",
"#C c #000000",
"#D c #000000",
"#E c #000000",
"#F c #000000",
"#G c #000000",
"#H c #000000",
"#I c #000000",
"#J c #000000",
"#K c #000000",
"#L c #000000",
"#M c #000000",
"#N c #000000",
"#O c #000000",
"#P c #000000",
"#Q c #000000",
"#R c #000000",
"#S c #000000",
"#T c #000000",
"#U c #000000",
"#V c #000000",
"#W c #000000",
"#X c #000000",
"#Y c #000000",
"#Z c #000000",
"#0 c #000000",
"#1 c #000000",
"#2 c #000000",
"#3 c #000000",
"#4 c #000000",
"#5 c #000000",
"#6 c #000000",
"#7 c #000000",
"#8 c #000000",
"a` c #000000",
"a. c #000000",
"a# c #000000",
"aa c #000000",
"ab c #000000",
"ac c #000000",
"ad c #000000",
"ae c #000000",
"af c #000000",
"ag c #000000",
"ah c #000000",
"ai c #000000",
"aj c #000000",
"ak c #000000",
"al c #000000",
"am c #000000",
"an c #000000",
"ao c #000000",
"ap c #000000",
"aq c #000000",
"ar c #000000",
"as c #000000",
"at c #000000",
"au c #000000",
"av c #000000",
"aw c #000000",
"ax c #000000",
"ay c #000000",
"az c #000000",
"aA c #000000",
"aB c #000000",
"aC c #000000",
"aD c #000000",
"aE c #000000",
"aF c #000000",
"aG c #000000",
"aH c #000000",
"aI c #000000",
"aJ c #000000",
"aK c #000000",
"aL c #000000",
"aM c #000000",
"aN c #000000",
"aO c #000000",
"aP c #000000",
"aQ c #000000",
"aR c #000000",
"aS c #000000",
"aT c #000000",
"aU c #000000",
"aV c #000000",
"aW c #000000",
"aX c #000000",
"aY c #000000",
"aZ c #000000",
"a0 c #000000",
"a1 c #000000",
"a2 c #000000",
"a3 c #000000",
"a4 c #000000",
"a5 c #000000",
"a6 c #000000",
"a7 c #000000",
"a8 c #000000",
/* pixels */
"`````````````````````````````````````````````````````````````.`#",
"```````````````````````````````````````````````````````````.`#`a",
"`````````````````````````````````````````````````````````b`c`d`e",
"```````````````````````````````````````````````````````.`#`a`f`f",
"```````````````````````````````g`h```````````````````b`i`j`f`f`f",
"```````````````````````````````g`h`````````````````.`c`k`l`l`f`f",
"```````````````````````````````g`h```````````````b`i`m`n`n`l`l`f",
"```````````````````````````o```g`h`````````````p`i`q`n`n`n`n`n`l",
"```````````````````````o`r`s`t`u`h`v`````````p`w`x`y`e`e`f`f`f`l",
"`````````````````````z`s`s`s`s`A`h`B`t`C`o`o`#`x`y`y`y`e`f`f`f`f",
"```````````````````z`s`s`s`s`s`A`h`B`s`s`s`r`D`D`D`e`y`e`e`f`f`f",
"`````````````````z`s`s`s`s`s`s`A`h`B`s`s`s`s`s`s`s`D`D`D`f`f`f`f",
"```````````````C`s`s`s`s`s`s`s`A`h`B`s`s`s`s`s`s`s`s`s`s`f`f`f`f",
"`````````````E`s`s`s`s`s`s`s`s`A`h`B`s`s`s`s`s`s`s`s`s`D`e`e`f`f",
"```````````E`s`s`s`s`s`s`s`s`s`A`h`B`s`s`s`s`s`s`s`s`s`f`y`e`f`f",
"`````````r`s`s`s`s`s`s`s`s`s`s`F`G`H`s`s`s`s`s`s`s`s`D`f`y`e`f`f",
"```````t`s`s`s`s`s`s`s`s`s`s`s`s`s`s`s`s`s`s`s`s`s`s`e`e`e`e`f`f",
"`````I`J`K`L`D`s`s`s`s`s`s`s`s`s`s`s`s`s`s`s`s`s`s`D`f`f`y`e`f`f",
"`````M`N`O`O`O`P`D`D`s`s`s`s`s`s`s`s`s`s`s`s`s`s`s`e`f`f`f`e`f`f",
"```````I`Q`N`N`O`O`R`P`D`D`s`s`s`s`s`s`s`s`s`s`s`D`f`f`f`f`f`f`f",
"`````````````S`M`T`O`O`O`R`K`L`D`s`s`s`s`s`s`s`s`e`f`f`f`f`f`f`f",
"```````````````````I`c`T`O`O`O`R`U`L`D`s`s`s`s`D`f`f`f`f`f`f`f`f",
"`````````````````p`c`x`y`e`e`N`O`O`O`K`P`V`D`D`f`f`f`f`f`f`f`f`f",
"```````````````b`#`W`y`y`y`y`y`e`T`N`O`O`O`X`e`f`f`f`f`f`f`f`f`f",
"`````````````.`#`W`y`y`y`y`y`y`y`y`e`e`e`e`f`f`f`f`f`f`f`f`f`f`f",
"```````````.`#`a`y`y`y`y`y`y`y`y`y`y`f`f`f`f`f`f`f`e`f`f`f`f`l`l",
"`````````b`c`d`e`e`e`y`y`y`y`y`y`y`y`y`f`f`f`f`f`e`f`f`f`f`l`l`n",
"```````.`#`a`f`f`f`e`e`y`y`y`y`y`y`y`f`f`y`f`f`f`f`f`f`f`f`l`n`n",
"`````b`i`j`f`f`f`f`f`f`e`e`e`e`e`e`e`e`e`f`f`f`f`f`f`f`f`l`n`n`n",
"```.`c`k`l`l`f`f`f`f`f`f`f`f`e`f`e`e`f`f`f`f`f`f`f`f`f`f`l`n`n`n",
"`b`i`m`n`n`l`l`f`f`f`f`f`f`f`f`f`f`f`f`f`f`f`f`f`f`l`l`n`n`n`n`Y",
"`i`q`n`n`n`n`n`l`l`f`f`f`f`f`f`f`f`f`f`f`f`f`f`f`f`f`n`n`n`n`Y`Y"
};
