/* XPM */
static char *togglepolyinfo_s32_xpm[] = {
/* width height num_colors chars_per_pixel */
"    32    32      256            2",
/* colors */
"`` c #000000",
"`. c #ffffff",
"`# c #cbe2df",
"`a c #c1c1c1",
"`b c #8b8b81",
"`c c #8b8b80",
"`d c #8a8a7f",
"`e c #4b91c2",
"`f c #6262bb",
"`g c #5a5bab",
"`h c #5b5bac",
"`i c #5c5cad",
"`j c #6061b3",
"`k c #5a5aa6",
"`l c #5757a1",
"`m c #595aa1",
"`n c #57579c",
"`o c #545493",
"`p c #535390",
"`q c #53538d",
"`r c #525287",
"`s c #6c6cb1",
"`t c #525284",
"`u c #555583",
"`v c #7878b7",
"`w c #6f6faa",
"`x c #53537e",
"`y c #53537b",
"`z c #7171a5",
"`A c #8181b3",
"`B c #7c7ca9",
"`C c #646487",
"`D c #78789c",
"`E c #7f7fa5",
"`F c #60607c",
"`G c #8484a4",
"`H c #6c6c84",
"`I c #9292ad",
"`J c #5c5c6d",
"`K c #86869c",
"`L c #77778a",
"`M c #8f8fa4",
"`N c #828294",
"`O c #9a9aaf",
"`P c #9d9db0",
"`Q c #82828f",
"`R c #8d8d97",
"`S c #acacb7",
"`T c #98989e",
"`U c #b5b5ba",
"`V c #bbbbbe",
"`W c #a7a7a9",
"`X c #b2b2b3",
"`Y c #6062ad",
"`Z c #535592",
"`0 c #53558c",
"`1 c #525488",
"`2 c #595a91",
"`3 c #7273ab",
"`4 c #4f506d",
"`5 c #535694",
"`6 c #50527b",
"`7 c #505278",
"`8 c #666cba",
".` c #43477a",
".. c #5c6099",
".# c #515582",
".a c #5a62a6",
".b c #666a92",
".c c #4a5595",
".d c #5966b2",
".e c #5661a7",
".f c #525f9c",
".g c #7984bb",
".h c #8a97d2",
".i c #7d8cc3",
".j c #808dbe",
".k c #949cbb",
".l c #566db3",
".m c #546aad",
".n c #6071ab",
".o c #697cb9",
".p c #a5acc2",
".q c #5166a0",
".r c #50608f",
".s c #506392",
".t c #8896bb",
".u c #506698",
".v c #5374b4",
".w c #516da7",
".x c #4d5e7d",
".y c #99a4b7",
".z c #4f6a97",
".A c #7c90b2",
".B c #4f75aa",
".C c #4f7fb8",
".D c #4e7eb7",
".E c #4e7cb4",
".F c #4e7eb5",
".G c #4d7eb1",
".H c #4c6c8c",
".I c #81a3c6",
".J c #4c7eac",
".K c #1b4d78",
".L c #4d87ba",
".M c #4c86b7",
".N c #538cbc",
".O c #4c7ba2",
".P c #6898bf",
".Q c #4b8ebf",
".R c #4b88b5",
".S c #688fac",
".T c #2a6a95",
".U c #4b8fc0",
".V c #5297c5",
".W c #7faecf",
".X c #bad8ed",
".Y c #bddaee",
".Z c #66a6cd",
".0 c #3c81aa",
".1 c #66a7ce",
".2 c #7eb3d1",
".3 c #b7dbef",
".4 c #b5d5e8",
".5 c #bbdbee",
".6 c #65a5c6",
".7 c #75b2d3",
".8 c #78b5d5",
"#` c #b4d4e5",
"#. c #84bdd8",
"## c #b5dbea",
"#a c #b0d2e0",
"#b c #b3d4e2",
"#c c #5ea0b9",
"#d c #b1dceb",
"#e c #b3d7e5",
"#f c #bddae5",
"#g c #b2d3de",
"#h c #8fcadc",
"#i c #b1dae6",
"#j c #aad0db",
"#k c #b5d5de",
"#l c #bbd9e2",
"#m c #afe3f0",
"#n c #b0e1ee",
"#o c #afdeea",
"#p c #a8d5e0",
"#q c #a9ced7",
"#r c #a1dbe7",
"#s c #a6dee9",
"#t c #aae0ec",
"#u c #b1d4db",
"#v c #8fd1dc",
"#w c #b1d3d9",
"#x c #cbe1e5",
"#y c #273434",
"#z c #cacece",
"#A c #abb7b6",
"#B c #c5ddda",
"#C c #cbe1de",
"#D c #cce2df",
"#E c #bbc8c5",
"#F c #b1beb9",
"#G c #a8b2ab",
"#H c #a6afa8",
"#I c #26fe09",
"#J c #25fb09",
"#K c #25f909",
"#L c #25f609",
"#M c #25f509",
"#N c #24f209",
"#O c #24f109",
"#P c #24ef09",
"#Q c #23ec09",
"#R c #23e809",
"#S c #20d608",
"#T c #20d408",
"#U c #20d308",
"#V c #1fd008",
"#W c #1fcf08",
"#X c #22e609",
"#Y c #22e209",
"#Z c #22e109",
"#0 c #21de09",
"#1 c #21dd09",
"#2 c #21db09",
"#3 c #1fcc08",
"#4 c #1fcb08",
"#5 c #1ec408",
"#6 c #1dc208",
"#7 c #1dbf08",
"#8 c #1cbc08",
"a` c #28ff0b",
"a. c #1cb708",
"a# c #1bb508",
"aa c #30ff15",
"ab c #31ff16",
"ac c #32ff17",
"ad c #34ff19",
"ae c #35ff1a",
"af c #36ff1b",
"ag c #39ff1e",
"ah c #43ff2a",
"ai c #47ff2f",
"aj c #4bff32",
"ak c #54ff3d",
"al c #57ff41",
"am c #5bff45",
"an c #5cff47",
"ao c #64ff4f",
"ap c #69ff55",
"aq c #72ff5f",
"ar c #74ff61",
"as c #76ff64",
"at c #7bff6a",
"au c #89ff79",
"av c #90ff81",
"aw c #91ff83",
"ax c #95ff87",
"ay c #9aff8c",
"az c #9dff90",
"aA c #a3ff96",
"aB c #acffa1",
"aC c #b2ffa8",
"aD c #c0ffb8",
"aE c #b9ffaf",
"aF c #9da39b",
"aG c #9fa49b",
"aH c #94988f",
"aI c #81837b",
"aJ c #93948d",
"aK c #909188",
"aL c #909187",
"aM c #6d6d64",
"aN c #8c8c81",
"aO c #7b7b71",
"aP c #8e8e83",
"aQ c #6b6b63",
"aR c #8c8c82",
"aS c #89897f",
"aT c #7c7c73",
"aU c #7b7b72",
"aV c #707068",
"aW c #6e6e66",
"aX c #2a2a28",
"aY c #2c2c2a",
"aZ c #2f2f2e",
"a0 c #8e8d82",
"a1 c #c4c4c4",
"a2 c #afafaf",
"a3 c #9f9f9f",
"a4 c #9d9d9d",
"a5 c #8e8e8e",
"a6 c #111111",
"a7 c #070707",
"a8 c #000000",
/* pixels */
"`a`a`a`a`a`a`a`a`a`a`a`a`a`a`V`S`A`v`2`I`a`a`a`a`a`a`a`a`a`aa4``",
"`a`a`a`a`a`a`a`a`a`S`I`v`Y`j.p.k.v.C.x`u`a`a`a`a`a`a`a`a`aa2``aQ",
"`a`a`a`V`U`B`s`s`j`3`D.l.D.Q.Q`e`e`e.R`4`D`a`a`a`a`a`a`aa4``aO`d",
"`K`z`k`3.o.l.v.L.U.R`7.B`e`e`e`e`e`e`e.O`6`G`a`a`a`a`aa2aXaO`d`d",
"`H`o.E.U`e`e`e`e`e`e.x`1.L`e`e`e`e`e`e`e.H`x`P`a`a`aa4``aU`d`d`d",
"`N`q.G`e`e`e`e`e`e`e.R`6.q`e`e.V.1.8.2.W.I.t.t#za1a4aZaM`c`d`d`d",
"`U`D.B`e`e`e`e`e`e`e`e.x`0.N.P#.##.5.Y.X.3###u#f#E#yaI`c`c`c`d`d",
"`a`C.q`e`e`e`e`e.Q.M.J.u`2.j.X.Y.5aEaBaAayauas#q#q#B#HaL`c`c`c`d",
"`a`F`Z.U.U.M.B.w.a`j`j`8.A#b#daDaCaxaraoaoaqaqanag#x#CaF`c`c`c`d",
"`a`N`p.q`m`k`g.d.m.D.F.Z#o#gaEaAaq#I#P#Q#Na`alamad#L#D#FaL`c`c`c",
"`a`R`r.e.m.D.U`e`e`e.V#.#mayavak#P#S#m#m#t#vadalaf#N#k`#aF`c`c`c",
"`a`X`M.f`e`e`e`e`e`e.1#m#maoae#R#3#m#m#.#c#r#sakab#Q#2#l#G`c`c`c",
"`a`a`N`5.U`e`e`e`e`e.8#maf#J#X#3#n#m.6.T.0#h#saj#J#Y#W#`.p`c`c`c",
"`a`a`H`q.G`e`e`e`e`e.8#m#P#Z#3#8#e#..K.T.S#p#jaj#O#T#6#f#AaR`c`c",
"`a`a`Q`r.w`e`e`e`e`e.1#m#m#V#6#w#g.K.`.g.4.4atae#Z#5a.#D#G`b`caR",
"`a`a`T`t.f`e`e`e`e`e.V.7#o#i#e#`.n`Y.i#`#laAap#O#4a#`##CaG`b`c`c",
"`a`a`W`y`5.G`e.Q.J.z.#...g.h.i.c.b.y`#`#aBau#J#Ua.`#`##HaK`b`c`c",
"`a`a`a`H`p.r.s`0`m`i`f`Y`w`E`JaTaF#C`#aBawac#2#8`#`##HaK`b`b`c`c",
"`a`a`a`L`n`l`g`h`w`B`O`Sa2``aTaJ#F`#azavah#Y#7`#`##HaK`b`b`b`b`b",
"`a`a`a`M`m`z`I`a`a`a`a`Xa6aVaPaF`#`#atai#R#5`#`##HaK`b`b`b`b`b`c",
"`a`a`a`a`a`a`a`a`a`aa5a7aWa0a0#G`#amah#O#W`#`##HaK`b`b`b`b`b`b`b",
"`a`a`a`a`a`a`a`a`aa3aYaMaRaR`b#A`#ag#K#Z#5`##FaK`b`b`b`b`b`b`b`b",
"`a`a`a`a`a`a`a`aa5aZaMaNaNaR`c#G`##I#M#1`#`#aF`b`b`b`b`b`b`b`b`b",
"`a`a`a`a`a`a`aa2``aTaNaN`b`b`baF#C`##L#Y`##FaK`b`b`b`b`b`b`b`b`b",
"`a`a`a`a`a`aa4``aTaNaNaNaNaN`baH#E`#`#`#`##AaK`b`b`b`b`b`b`b`b`b",
"`a`a`a`a`aa4``aMaNaNaNaNaN`b`baF#C`#ab#O`##CaF`b`b`b`b`b`b`b`b`b",
"`a`a`a`aa2aZaT`b`b`baNaNaNaNaN#G`#aa#J#Q#0`##G`b`b`b`b`b`b`b`b`b",
"`a`a`aa4``aM`c`c`c`b`baN`b`b`b#G`##M#Q#0#S`##G`b`b`b`b`b`b`b`b`b",
"`a`aa2aXaU`c`c`c`c`c`c`b`b`b`baF#C`##0#T`##CaF`b`b`b`b`b`b`b`c`c",
"`aa4aZaO`d`d`c`c`c`c`c`c`b`b`baK#H#C`#`##C#HaK`b`b`b`b`b`b`b`b`b",
"a2aXaO`d`d`d`d`c`c`c`c`c`b`b`b`baKaF#G#GaFaK`b`b`b`b`b`b`c`c`caS",
"aXaQ`d`d`d`d`d`d`d`c`c`c`c`c`b`b`b`b`b`b`b`b`b`b`b`b`b`b`b`b`b`b"
};
