/* XPM */
static char *toggle_wholeface_xpm[] = {
/* width height num_colors chars_per_pixel */
"    32    32      256            2",
/* colors */
"`` c #000000",
"`. c #8c826c",
"`# c #740e14",
"`a c #004684",
"`b c #94c2e4",
"`c c #540a0c",
"`d c #4c3e54",
"`e c #0c0e6c",
"`f c #bc9294",
"`g c #945a5c",
"`h c #5c5a74",
"`i c #00366c",
"`j c #aca25c",
"`k c #948a6c",
"`l c #3c3e8c",
"`m c #ecc2c4",
"`n c #242684",
"`o c #b40000",
"`p c #005a9c",
"`q c #1c1e1c",
"`r c #dc4244",
"`s c #dce6ec",
"`t c #8482a4",
"`u c #4c5254",
"`v c #5c5e94",
"`w c #0c2284",
"`x c #746e6c",
"`y c #2426a4",
"`z c #942a2c",
"`A c #a46e74",
"`B c #000a3c",
"`C c #7472a4",
"`D c #2c36ac",
"`E c #1c3ebc",
"`F c #5c4e5c",
"`G c #1c1a3c",
"`H c #9c0000",
"`I c #b4a65c",
"`J c #a49664",
"`K c #0c0a54",
"`L c #004e8c",
"`M c #84a6bc",
"`N c #f4faff",
"`O c #747a5c",
"`P c #5c5274",
"`Q c #84829c",
"`R c #0c3694",
"`S c #54529c",
"`T c #bc161c",
"`U c #006ebc",
"`V c #1c1a8c",
"`W c #6c6664",
"`X c #dcdedc",
"`Y c #6c6e94",
"`Z c #acaeac",
"`0 c #8c1a1c",
"`1 c #4c4e8c",
"`2 c #24223c",
"`3 c #749eb4",
"`4 c #6c5e8c",
"`5 c #2c3abc",
"`6 c #dcaeac",
"`7 c #7cbaec",
"`8 c #840000",
".` c #c4c2c4",
".. c #141684",
".# c #949294",
".a c #cc0000",
".b c #0062ac",
".c c #ffeaec",
".d c #2c2ebc",
".e c #001244",
".f c #3432c4",
".g c #847a6c",
".h c #645684",
".i c #1c3a9c",
".j c #8c8a7c",
".k c #0046a4",
".l c #3c324c",
".m c #5c5aac",
".n c #2426b4",
".o c #0c0a44",
".p c #ccae5c",
".q c #94969c",
".r c #14125c",
".s c #0052a4",
".t c #7c7a74",
".u c #5c5284",
".v c #24229c",
".w c #6c6e64",
".x c #8c8674",
".y c #acd6f4",
".z c #444684",
".A c #141674",
".B c #e48a8c",
".C c #4446b4",
".D c #e4cecc",
".E c #c40e14",
".F c #8486c4",
".G c #1c1a7c",
".H c #7c767c",
".I c #3432ac",
".J c #5c4e6c",
".K c #941614",
".L c #0c0e64",
".M c #ffffff",
".N c #8c8a84",
".O c #143aa4",
".P c #f4d2d4",
".Q c #34365c",
".R c #94b2c4",
".S c #8c0e0c",
".T c #0062bc",
".U c #0056b4",
".V c #8c8664",
".W c #94caec",
".X c #4c4a64",
".Y c #0c126c",
".Z c #646284",
".0 c #0c2e8c",
".1 c #ac8684",
".2 c #3c3e9c",
".3 c #c40000",
".4 c #001e4c",
".5 c #bc5254",
".6 c #e4f2ff",
".7 c #8482b4",
".8 c #64629c",
"#` c #7c7264",
"#. c #3c3a9c",
"## c #843a3c",
"#a c #8c96d4",
"#b c #a4a29c",
"#c c #d4161c",
"#d c #34367c",
"#e c #6c1214",
"#f c #cc9e9c",
"#g c #7c7e8c",
"#h c #1442b4",
"#i c #e4babc",
"#j c #ec9694",
"#k c #c4ae5c",
"#l c #94a6bc",
"#m c #64568c",
"#n c #d42224",
"#o c #6c9ed4",
"#p c #eceae4",
"#q c #24226c",
"#r c #2c3ebc",
"#s c #4c4eac",
"#t c #d4daf4",
"#u c #8c3e54",
"#v c #ac9e64",
"#w c #6462a4",
"#x c #c45a5c",
"#y c #8caebc",
"#z c #9c9e9c",
"#A c #005eb4",
"#B c #1c1a9c",
"#C c #84b6dc",
"#D c #0c4ab4",
"#E c #fff2f4",
"#F c #f4dadc",
"#G c #00469c",
"#H c #242254",
"#I c #9492a4",
"#J c #6c6e7c",
"#K c #9c8e64",
"#L c #544e5c",
"#M c #645a8c",
"#N c #a4060c",
"#O c #fff6f4",
"#P c #2c2ab4",
"#Q c #d4b254",
"#R c #7c0a14",
"#S c #f4c6c4",
"#T c #6c6674",
"#U c #8c0000",
"#V c #645a7c",
"#W c #7c7a64",
"#X c #bc0000",
"#Y c #4c4e9c",
"#Z c #d40000",
"#0 c #1c3aac",
"#1 c #eccecc",
"#2 c #544a64",
"#3 c #24227c",
"#4 c #242aac",
"#5 c #74769c",
"#6 c #5c5264",
"#7 c #0c0e54",
"#8 c #5c567c",
"a` c #0072c4",
"a. c #c4c6cc",
"a# c #0066ac",
"aa c #3436bc",
"ab c #0c0e4c",
"ac c #ccb254",
"ad c #0056ac",
"ae c #7c7e74",
"af c #3436b4",
"ag c #8c8e84",
"ah c #94b6cc",
"ai c #0c3284",
"aj c #1c1ea4",
"ak c #fffaff",
"al c #94c6e4",
"am c #8486a4",
"an c #0c3a94",
"ao c #6c6a64",
"ap c #6c628c",
"aq c #840600",
"ar c #ffeeec",
"as c #3c364c",
"at c #5c5684",
"au c #5c526c",
"av c #0c0e74",
"aw c #3c3e94",
"ax c #746e74",
"ay c #000a44",
"az c #a4966c",
"aA c #5c527c",
"aB c #006ec4",
"aC c #14168c",
"aD c #0062b4",
"aE c #0c0a4c",
"aF c #0052ac",
"aG c #7c7a7c",
"aH c #2422a4",
"aI c #3432b4",
"aJ c #94161c",
"aK c #143aac",
"aL c #343664",
"aM c #8c866c",
"aN c #001e54",
"aO c #9492ac",
"aP c #2c2abc",
"aQ c #0c0e5c",
"aR c #8c8e8c",
"aS c #000000",
"aT c #000000",
"aU c #000000",
"aV c #000000",
"aW c #000000",
"aX c #000000",
"aY c #000000",
"aZ c #000000",
"a0 c #000000",
"a1 c #000000",
"a2 c #000000",
"a3 c #000000",
"a4 c #000000",
"a5 c #000000",
"a6 c #000000",
"a7 c #000000",
"a8 c #000000",
/* pixels */
".`.`.`.`.`.`.`.`.`.`.`.`.`.`.`.`.`.`.`.`.`.`.`.`.`.`.`.`.`.`aR``",
".`.`.`.`.`.`.`.`.`.`.`.`.`.`.`.`.`.`.`.`.`.`.`.`.`.`.`.`.``Z``ao",
".`.`.`.`.`.`.`.`.`.`.`.`.`.`.`.`.`.`.`.`.`.`.`.`.`.`.`.`aR``.t.j",
".`.`.`.`.`.`.`.`.`.`.`.`.`.`.`.`.`.`.`.`.`.`.`.`.`.`.``Z`q.t.j.j",
".`.`.`.`.`.`.`.`.`.`.`.`.`.`.`.`.`.`.`.`.`.`.`.`.`.`#z``.t.N.N.j",
".`.`.`.`.`.`.`.`.`.`.`.`.`.`.`.`.`.`.`.`.`.`.`.`.`#z`q.w.N.N.N.j",
".`.`.`.`.`.`.`.`.`.`.`.`.`.`.`.`.`.`.`.`.`.`.`.`aR``ae.N.N.N.N.N",
".`.`.`.`.`.`.`.`.`.`.`.`.`.`.`.``Q#w.m.C.A#5.`aG``ae.N.N.N.N.N.N",
".`.`.`.`.`.`.`.`.`.`aO`t.8#s.v`y`5#0#D.UaN.raG`q.wag.N.N.N.N.N.N",
".`.`.`.`.`#I`v`Sapap#M#8#2aK.U`U`Ua`a`a`a#`B.z.wagagag.N.N.N.N.N",
".`.`.Zaw.uat.x.xaz#Q#Q#Q.l#Ga`a`a`#t#ta`a``Lab`vagagag.N.N.N.N.N",
".`.`.Qav.p#Q#Q#Q#Q#Q#Q#Q`u`FaDa`a`#t#ta`a`a``i#7amagagag.N.N.N.N",
".`.``h`e#Q#Q#Q#Q#t#t#Q#Q#Qas.0a`a`a`a``U.baF`R.G#3agagag.N.N.N.N",
".`.`#g.L`I#Q#Q#Q#t#t#Q#Q#Q`u.Y#A.saF.O`DaI#4`E.i.o#d.N.N.N.N.N.N",
".`.`.`#7`.#Q#Q#Q#Q#Q#Q#Q#k.V`e`V#Paf#r#had.Ta`a``iaE`v.N.N.N.N.N",
".`.`.`#H.J#Q#Q#Q#v`k#T#m`4`4`W`e.kaBa`a`a`a`a`a``U.4#7am.N.N.N.N",
".`.`.``h#2.g`PaA.h.H.x#Qac#Q#k`d`wa`a`a`a``N.M.M#o`p.e#q.N.N.N.N",
".`.`.`#J.LaxaM#Q#Q#Q#Q#Q#Q#Q#Q`u.YaDa`a`a``N`z.5.c.y`aay#d.N.N.N",
".`.`.`.#`K`x#Q#Q#Q#Q#Q#Q#Q#Q#Q`jasana`a`a`.6##`H`T#j`b`iaE`1.N.N",
".`.`.`.`abau#Q#Q#Q#Q#Q#Q#Q#Q#Q#Q`G.YaDa`a`al`g#U.3.a#n#S`n.I.7.N",
".`.`.`.`.Q#2#Q#Q#Q#Q#Q#Q#Q#Q#Q#Q`Oas`wa``U#C`A`8.3.a#Z#Z`r.Pa..N",
".`.`.`.``h.L`J#Q#Q#Q#Q#Q#Q#Q#Q#Q#Q`2.Yai.A#a.1aq.3.a#Z#Z#Z#car.N",
".`.`.`.`#gaQ`x#Q#Q#Q#Q#Q#Q#Q#Q#K`W#V.d.faa.F`f.S.3.a#Z#Z.E.B#O.N",
".`.`.`.`.qabau#Q#Q#Qac.V#Lau.haP.n`y`l`C.N.R#faJ`o#X.a#Z#x.M`X.N",
".`.`.`.`.`aL#2#`#W#6`Paj.naH.2.8.N.N.N.N.N#y`6`0#R`8#N.3#Z.B.M.N",
".`.`.`.`.`.X..aC#B#B#.#Y`t.N.N.N.N.N.N.N.N`M#i.K#u#E#e#U#X.a#1.N",
".`.`.`.``Z`Y`Vaw`C.Nagagagagag.N.N.N.N.N.N`3ak#F#O`s.M`c#U#X#1.j",
".`.`.`#z``.w.N.N.N.N.Nagagagag.N.N.N.N.N.N.N.W.M`7.Nah.D`#`m.M.j",
".`.``Z`q.t.N.N.N.N.N.N.N.N.N.N.N.N.N.N.N.N.N.N.N.N.N.N#l#p`X#b.j",
".`#z`q.t.N.N.N.N.N.N.N.N.N.N.N.N.N.N.N.N.N.N.N.N.N.N.N.N.N.j.j.j",
"`Z`q.t.j.j.N.N.N.N.N.N.N.N.N.N.N.N.N.N.N.N.N.N.N.N.N.N.j.j.j.j.j",
"`qao.j.j.j.j.j.N.N.N.N.N.N.N.N.N.N.N.N.N.N.N.N.N.N.N.j.j.j.j.j.j"
};
