/* XPM */
static char *toggle_backface_xpm[] = {
/* width height num_colors chars_per_pixel */
"    32    32      256            2",
/* colors */
"`` c #c1c1c1",
"`. c #9d9d9d",
"`# c #2a2a28",
"`a c #afafaf",
"`b c #2f2f2e",
"`c c #7c7c72",
"`d c #000000",
"`e c #6c6c64",
"`f c #8b8b80",
"`g c #bdbdbf",
"`h c #a6a8b7",
"`i c #7b7b72",
"`j c #b8b9be",
"`k c #7279a3",
"`l c #172681",
"`m c #10207f",
"`n c #12217f",
"`o c #323f8b",
"`p c #545e98",
"`q c #767da5",
"`r c #969ab1",
"`s c #b6b7bd",
"`t c #7b7b71",
"`u c #8a8a80",
"`v c #b4b5bc",
"`w c #656e9f",
"`x c #192882",
"`y c #0c1c7d",
"`z c #212f85",
"`A c #414d91",
"`B c #616a9d",
"`C c #8389aa",
"`D c #9497a7",
"`E c #7a7a71",
"`F c #8a8a7f",
"`G c #acaeb9",
"`H c #59629a",
"`I c #12227f",
"`J c #34418c",
"`K c #2a3788",
"`L c #d4b354",
"`M c #c0a148",
"`N c #52597f",
"`O c #0d1c7b",
"`P c #394170",
"`Q c #89897f",
"`R c #aeb0ba",
"`S c #4e5896",
"`T c #0e1e7e",
"`U c #ddc786",
"`V c #37438d",
"`W c #4b5384",
"`X c #162167",
"`Y c #0f1f7c",
"`Z c #25327e",
"`0 c #6870a0",
"`1 c #0f1f7e",
"`2 c #1f2d84",
"`3 c #545d98",
"`4 c #020413",
"`5 c #18267c",
"`6 c #28347e",
"`7 c #8b8b81",
"`8 c #1b2a83",
".` c #d7af3e",
".. c #020516",
".# c #17257c",
".a c #23307e",
".b c #2a367e",
".c c #39458e",
".d c #1d2c83",
".e c #030822",
".f c #13227b",
".g c #303c7e",
".h c #6a6f80",
".i c #283688",
".j c #323e8b",
".k c #101f7d",
".l c #343f7e",
".m c #888881",
".n c #696e80",
".o c #2e3a7e",
".p c #060f44",
".q c #0e1d7d",
".r c #3a447e",
".s c #666a80",
".t c #313d7e",
".u c #434e92",
".v c #0f1f7d",
".w c #888880",
".x c #4c5695",
".y c #505a97",
".z c #666a7f",
".A c #19277c",
".B c #47507e",
".C c #6b6f7f",
".D c #0d1d7d",
".E c #8c8c81",
".F c #4a5494",
".G c #293788",
".H c #212f82",
".I c #162161",
".J c #15237a",
".K c #676c80",
".L c #646980",
".M c #576099",
".N c #6c707f",
".O c #464f7e",
".P c #1a287d",
".Q c #15247d",
".R c #454e7f",
".S c #39437e",
".T c #3b478f",
".U c #7c7e80",
".V c #12227d",
".W c #1f2d7e",
".X c #1b297d",
".Y c #797b80",
".Z c #48517f",
".0 c #0e1e7d",
".1 c #717480",
".2 c #6b6b62",
".3 c #777980",
".4 c #303b7e",
".5 c #2b2b29",
".6 c #6d6d65",
".7 c #8c8c82",
".8 c #757780",
"#` c #22307e",
"#. c #17257d",
"## c #818381",
"#a c #475293",
"#b c #5c6286",
"#c c #2f2f2f",
"#d c #6d6d64",
"#e c #727580",
"#f c #24317e",
"#g c #737680",
"#h c #686c80",
"#i c #525c97",
"#j c #13227c",
"#k c #39447e",
"#l c #656a80",
"#m c #878881",
"#n c #6c6f82",
"#o c #29357e",
"#p c #838697",
"#q c #060e3f",
"#r c #1e2c7b",
"#s c #12217d",
"#t c #35407e",
"#u c #626780",
"#v c #868781",
"#w c #6d7180",
"#x c #18267d",
"#y c #898981",
"#z c #7a7c80",
"#A c #4e567f",
"#B c #26327e",
"#C c #333e7e",
"#D c #5d6380",
"#E c #828381",
"#F c #787b80",
"#G c #7c7e81",
"#H c #51587f",
"#I c #595f7f",
"#J c #7f8181",
"#K c #555c7f",
"#L c #1f2c7e",
"#M c #818281",
"#N c #545b7f",
"#O c #3f497f",
"#P c #7b7e80",
"#Q c #000000",
"#R c #000000",
"#S c #000000",
"#T c #000000",
"#U c #000000",
"#V c #000000",
"#W c #000000",
"#X c #000000",
"#Y c #000000",
"#Z c #000000",
"#0 c #000000",
"#1 c #000000",
"#2 c #000000",
"#3 c #000000",
"#4 c #000000",
"#5 c #000000",
"#6 c #000000",
"#7 c #000000",
"#8 c #000000",
"a` c #000000",
"a. c #000000",
"a# c #000000",
"aa c #000000",
"ab c #000000",
"ac c #000000",
"ad c #000000",
"ae c #000000",
"af c #000000",
"ag c #000000",
"ah c #000000",
"ai c #000000",
"aj c #000000",
"ak c #000000",
"al c #000000",
"am c #000000",
"an c #000000",
"ao c #000000",
"ap c #000000",
"aq c #000000",
"ar c #000000",
"as c #000000",
"at c #000000",
"au c #000000",
"av c #000000",
"aw c #000000",
"ax c #000000",
"ay c #000000",
"az c #000000",
"aA c #000000",
"aB c #000000",
"aC c #000000",
"aD c #000000",
"aE c #000000",
"aF c #000000",
"aG c #000000",
"aH c #000000",
"aI c #000000",
"aJ c #000000",
"aK c #000000",
"aL c #000000",
"aM c #000000",
"aN c #000000",
"aO c #000000",
"aP c #000000",
"aQ c #000000",
"aR c #000000",
"aS c #000000",
"aT c #000000",
"aU c #000000",
"aV c #000000",
"aW c #000000",
"aX c #000000",
"aY c #000000",
"aZ c #000000",
"a0 c #000000",
"a1 c #000000",
"a2 c #000000",
"a3 c #000000",
"a4 c #000000",
"a5 c #000000",
"a6 c #000000",
"a7 c #000000",
"a8 c #000000",
/* pixels */
"`````````````````````````````````````````````````````````````.`#",
"```````````````````````````````````````````````````````````a`b`c",
"`````````````````````````````````````````````````````````.`d`e`f",
"```````````````````````````g`h`````````````````````````a`#`i`f`f",
"```````````````````````j`k`l`m`n`o`p`q`r`s```````````.`b`t`u`u`f",
"```````````````````v`w`x`y`y`y`y`y`y`y`y`y`z`A`B`C`D`#`E`F`F`u`u",
"```````````````G`H`I`y`y`J`K`y`L`L`M`M`N`m`y`y`y`y`O`P`Q`F`F`F`F",
"```````````R`S`T`y`y`A`U`L`V`y`L`L`L`L`L`L`M`M`W`X`Y`y`Z`f`f`f`f",
"```````````0`1`y`2`3`U`L`L`V`y`L`L`L`L`L`L`L`M`4`5`y`y`6`f`f`7`u",
"```````````V`y`y`y`y`y`y`8`x`y.``L`L`L`L`L`M...#`y.a`y.b`f`7`7`f",
"``````````.c`y`L`L.``M`N`y`y`y`y`y.d`A`M`M.e.f`y.g.h`y.b`7`7`f`f",
"```````````A`y`L`L`L`L`L`M.i`y.j`x`y`y`y`y.k`y.l.m.n`y.o`7`7`f`f",
"```````````A`y`L`L`L`L`L`L`V`y`L`L`L`M.p.q`y.r`u`7.s`y.t`7`7`f`f",
"``````````.u`y`L`L`L`L`L`L`V`y`L`L`L`b`i.v`y.w`f`f.s`y.t`7`7`f`f",
"``````````.x`y`L`L`L`L`L`L`V`y.y`L`b`t`u`y`y`f`f`7.z`y.t`7`7`f`f",
"``````````.x`y`L`L`L`L`L`q`o`y`y`y.A.B.C`y.D`f`7`7.s`y.t.E`7`f`f",
"```````````S`y`L`L`L`L.F`y.G.H.I.J`y`y`y`y.v.K`7`7.L`y.t.E.E.E`f",
"``````````.M`y`L`L`L.u`y`l`L`#`i`f.N.O.P`y`y`y.Q.r.R`y.S.E.E`f`f",
"``````````.M`y`L`L.T`y`x`L`b`t`u`u`f`f.U`y.V.W`y`y`y`y.l.E.E`f`f",
"```````````H`y`L`V`y.d`L`#`E`F`F`u`u`f.U`y.X`7.Y.Z.0`y.1.E.E.E.E",
"```````````B`y`2`y`2`L`#.2`F`F`F`F`F`u.3`y.W`7`7.4`y.o.E.E.E.E`f",
"``````````.M`y`y`z`L.5.6.7`7`7`7`7`7`7.8`y#``7`N`y#.##.E.E.E.E.E",
"``````````#a.D`n#b#c#d.E.E.7`7`7`7`7`7#e`y#f#g.v`y#h.E.E.E.E.E.E",
"``````````#i`y`y`y#j#k#l#m.E.E.E`7.E`7#n`y#o.W`y.R.E.E.E.E.E`f`u",
"````````````#p#q#r`y`y`y#s#t#u#v.E`7`7#w`y#x`y#f#y.E.E.E`f`f`f`u",
"```````````.`d`e.E#z#A#B`y`y`y.v#C#D#E.s`y`y#s#F.E.E.E.E.E`f`u`u",
"`````````a`b`c`7`7`7.E.E#G#H.b`y`y`y.q`Z`y`y#I.E`7`f`f`f`f`u`u`F",
"```````.`d`e`f`f`f`7`7.E.E.E.E#J#K.o`y`y`y#L.E.E.E.E.E.E`f`u`F`F",
"`````a`#`i`f`f`f`f`f`f`7`7`7`7`7`7`7#M#N#O#P.E.E.E.E`f`u`u`F`F`F",
"```.`b`t`u`u`f`f`f`f`f`f`f`f`7`f`7`7`f`f.E.E.E.E.E.E.E.E.E.E.E.E",
"`a`#`E`F`F`u`u`f`f`f`f`f`f`f`f`f`f`f`f.E.E.E.E.E.E.E.E.E`F`F`F`Q",
"`#.2`F`F`F`F`F`u`u`f`f`f`f`f`f`f`f`f`f.E`f.E.E.E`u`u`F.E.E.E.E`Q"
};
