/* XPM */
static char *toggle_surfacecenter_s32_xpm[] = {
/* width height num_colors chars_per_pixel */
"    32    32      256            2",
/* colors */
"`` c #c1c1c1",
"`. c #9d9d9d",
"`# c #000000",
"`a c #afafaf",
"`b c #6b6b63",
"`c c #7a7a71",
"`d c #8a8a7f",
"`e c #2a2a28",
"`f c #7b7b71",
"`g c #7b7b72",
"`h c #8a8a80",
"`i c #2f2f2e",
"`j c #6c6c64",
"`k c #8b8b80",
"`l c #d5d27d",
"`m c #e6e042",
"`n c #dcd863",
"`o c #d0ce8c",
"`p c #c4c4b6",
"`q c #7c7c72",
"`r c #d8d472",
"`s c #f1ea1d",
"`t c #6bad81",
"`u c #86ba64",
"`v c #c9d836",
"`w c #f5ee09",
"`x c #e8e526",
"`y c #e1dd51",
"`z c #c8c7a9",
"`A c #8c8c8c",
"`B c #8b8b81",
"`C c #d5d27b",
"`D c #ece81b",
"`E c #238bb5",
"`F c #007bd2",
"`G c #037cd0",
"`H c #3d98a0",
"`I c #74b272",
"`J c #bbd144",
"`K c #ece916",
"`L c #f6ee0c",
"`M c #e7e13f",
"`N c #bdb94f",
"`O c #5b5921",
"`P c #6f6f63",
"`Q c #8c8c81",
"`R c #d3d182",
"`S c #ede919",
"`T c #268db3",
"`U c #f7ef07",
"`V c #b1ce40",
"`W c #9bc353",
"`X c #65aa87",
"`Y c #a9c856",
"`Z c #e0e227",
"`0 c #f6ee09",
"`1 c #ded824",
"`2 c #c6c23f",
"`3 c #adab5a",
"`4 c #959475",
"`5 c #d2d086",
"`6 c #f1eb12",
"`7 c #8ebd5d",
"`8 c #1d89ba",
".` c #77b370",
".. c #c3d632",
".# c #067ecd",
".a c #0f82c6",
".b c #5fa597",
".c c #97bf69",
".d c #ced939",
".e c #f5ed0b",
".f c #a3a165",
".g c #ebe917",
".h c #5ba687",
".i c #8bbd5f",
".j c #e0e41a",
".k c #71b075",
".l c #1a87bd",
".m c #e3e518",
".n c #ebe915",
".o c #9a996f",
".p c #cecc93",
".q c #3a96a2",
".r c #40999d",
".s c #91bf5b",
".t c #bdd437",
".u c #6cad7a",
".v c #298faf",
".w c #499d96",
".x c #accb4e",
".y c #c4c040",
".z c #cccb9a",
".A c #439a9b",
".B c #469c99",
".C c #98c255",
".D c #f2ed0b",
".E c #dae11f",
".F c #66ab7e",
".G c #1485c1",
".H c #e8e71b",
".I c #90907b",
".J c #cbca9e",
".K c #e4e618",
".L c #4c9e94",
".M c #7db66b",
".N c #bed436",
".O c #4b9e95",
".P c #9dc551",
".Q c #e8e813",
".R c #60a883",
".S c #1183c4",
".T c #ccda2d",
".U c #b2af56",
".V c #c3c3ba",
".W c #ecea12",
".X c #b1ce41",
".Y c #3192a9",
".Z c #a3c74c",
".0 c #aecd43",
".1 c #5aa588",
".2 c #6faf77",
".3 c #dfdb2a",
".4 c #838264",
".5 c #a1ac41",
".6 c #dcdf1c",
".7 c #d0db26",
".8 c #1786bf",
"#` c #097fcb",
"#. c #4ea092",
"## c #f2ed0c",
"#a c #a09f6a",
"#b c #848484",
"#c c #6c6c6c",
"#d c #606060",
"#e c #85834a",
"#f c #aebb3a",
"#g c #e9e812",
"#h c #b7cf3a",
"#i c #57a48a",
"#j c #0c80c8",
"#k c #80b769",
"#l c #ccc83c",
"#m c #9c9c9c",
"#n c #65655d",
"#o c #8c934b",
"#p c #c0c82e",
"#q c #ece910",
"#r c #c8d72d",
"#s c #c8d92e",
"#t c #2e91ac",
"#u c #eae817",
"#v c #949378",
"#w c #787878",
"#x c #6e6d58",
"#y c #a4a73c",
"#z c #dbd91a",
"#A c #e1e218",
"#B c #83b464",
"#C c #b8b54f",
"#D c #909090",
"#E c #7c7b4f",
"#F c #aeb035",
"#G c #e7e413",
"#H c #c8d32b",
"#I c #70aa74",
"#J c #d6dd34",
"#K c #2b2b29",
"#L c #6d6d65",
"#M c #8c8c82",
"#N c #8c8a46",
"#O c #bdc22e",
"#P c #eee90d",
"#Q c #b0c83e",
"#R c #5ca084",
"#S c #dee31e",
"#T c #6d6d64",
"#U c #8e8e84",
"#V c #84847d",
"#W c #69685b",
"#X c #9c993c",
"#Y c #d6d62a",
"#Z c #bab84f",
"#0 c #7c7c73",
"#1 c #909088",
"#2 c #898983",
"#3 c #89897f",
"#4 c #6b6b62",
"#5 c #000000",
"#6 c #000000",
"#7 c #000000",
"#8 c #000000",
"a` c #000000",
"a. c #000000",
"a# c #000000",
"aa c #000000",
"ab c #000000",
"ac c #000000",
"ad c #000000",
"ae c #000000",
"af c #000000",
"ag c #000000",
"ah c #000000",
"ai c #000000",
"aj c #000000",
"ak c #000000",
"al c #000000",
"am c #000000",
"an c #000000",
"ao c #000000",
"ap c #000000",
"aq c #000000",
"ar c #000000",
"as c #000000",
"at c #000000",
"au c #000000",
"av c #000000",
"aw c #000000",
"ax c #000000",
"ay c #000000",
"az c #000000",
"aA c #000000",
"aB c #000000",
"aC c #000000",
"aD c #000000",
"aE c #000000",
"aF c #000000",
"aG c #000000",
"aH c #000000",
"aI c #000000",
"aJ c #000000",
"aK c #000000",
"aL c #000000",
"aM c #000000",
"aN c #000000",
"aO c #000000",
"aP c #000000",
"aQ c #000000",
"aR c #000000",
"aS c #000000",
"aT c #000000",
"aU c #000000",
"aV c #000000",
"aW c #000000",
"aX c #000000",
"aY c #000000",
"aZ c #000000",
"a0 c #000000",
"a1 c #000000",
"a2 c #000000",
"a3 c #000000",
"a4 c #000000",
"a5 c #000000",
"a6 c #000000",
"a7 c #000000",
"a8 c #000000",
/* pixels */
"`````````````````````````````````````````````````````````````.`#",
"```````````````````````````````````````````````````````````a`#`b",
"`````````````````````````````````````````````````````````.`#`c`d",
"```````````````````````````````````````````````````````a`e`f`d`d",
"`````````````````````````````````````````````````````.`#`g`h`h`d",
"```````````````````````````````````````````````````.`i`j`k`h`h`d",
"```````````````````````l`m`n`o`p`````````````````.`#`q`k`k`k`h`h",
"`````````````````````r`s`t`u`v`w`x`y`l`z```````A`#`q`B`k`k`k`k`h",
"```````````````````C`D`E`F`F`F`G`H`I`J`K`L`M`N`O`P`Q`B`B`k`k`k`h",
"`````````````````R`S`T`F`F`U`U`F`F`F`F`V`W`X`Y`Z`0`1`2`3`4`k`k`k",
"```````````````5`6`7`8`F`F`F`F`F`F`F.`...#`F`F`F.a.b.c.d.e.f`k`k",
"`````````````o.g.h.i.j...k.l`F`F`F`H.m`8`F`F`U`U`F`F`F.l.n.o`k`k",
"``````````.p.n.q`F`F`F.r.s.m.t.u.v.j.w`F`F`F`U`U`F`F`F.x.y`k`k`k",
"````````.z.n.A`F`F`F`F`F`F`F.B.C.D.E.F.G`F`F`F`F`F`F.q.H.I`B`k`k",
"``````.J.K.L`F`F`F`U`U`F`F`F`F.M.N.O.P.Q`V.R.S`F`F`G.T.U`Q`B`k`k",
"````.V.W.X.Y`F`F`F`U`U`F`F`F.A.j.l`F`F.#.L.Z.Q.0.1.2.3`Q`Q`B`k`k",
"``````.4.5.6.7`I.8`F`F`F`F.8.j.B`F`F`F`F`F`F#`#..X###a`Q`Q`Q`Q`k",
"````#b#c#d#d#e#f#g#h#i#j`G.t#k`F`F`F`F`U`U`F`F`F.s#l`Q`Q`Q`Q`k`k",
"````````#m#c#c#d#n#o#p#q#r#s`G`F`F`F`F`U`U`F`F#t#u#v`Q`Q`Q`Q`k`k",
"``````````````#b#w#d#d#x#y#z#A#B`T`F`F`F`F`F`F.t#C`Q`Q`Q`Q`Q`Q`Q",
"````````````````````#D#w#d#d#E#F#G#H#I.S`F`F#i#J`Q`Q`Q`Q`Q`Q`Q`k",
"```````````````````.#K#L#M#D#c#d#d#N#O#P#Q#R#S#a`Q`Q`Q`Q`Q`Q`Q`Q",
"`````````````````A`i#T`Q`Q#M#M#U#V#c#d#W#X#Y#Z`Q`Q`Q`Q`Q`Q`Q`Q`Q",
"```````````````a`##0`Q`Q`Q`Q`Q`Q`Q`Q#1#2#w`Q`Q`Q`Q`Q`Q`Q`Q`Q`k`h",
"`````````````.`##0`Q`Q`Q`Q`Q`Q`Q`Q`Q`Q`Q`Q`Q`Q`Q`Q`Q`Q`Q`k`k`k`h",
"```````````.`#`j`Q`Q`Q`Q`Q`Q`Q`Q`Q`Q`Q`Q`Q`Q`Q`Q`Q`Q`Q`Q`Q`k`h`h",
"`````````a`i`q`B`B`B`Q`Q`Q`Q`Q`Q`Q`Q`Q`Q`Q`Q`Q`Q`B`k`k`k`k`h`h`d",
"```````.`#`j`k`k`k`B`B`Q`Q`Q`Q`Q`Q`Q`Q`Q`Q`Q`Q`Q`Q`Q`Q`Q`k`h`d`d",
"`````a`e`g`k`k`k`k`k`k`B`B`B`B`B`B`B`Q`Q`Q`Q`Q`Q`Q`Q`k`h`h`d`d`d",
"```.`i`f`h`h`k`k`k`k`k`k`k`k`B`k`B`B`k`k`Q`Q`Q`Q`Q`Q`Q`Q`Q`Q`Q`Q",
"`a`e`c`d`d`h`h`k`k`k`k`k`k`k`k`k`k`k`k`Q`Q`Q`Q`Q`Q`Q`Q`Q`d`d`d#3",
"`e#4`d`d`d`d`d`h`h`k`k`k`k`k`k`k`k`k`k`Q`k`Q`Q`Q`h`h`d`Q`Q`Q`Q#3"
};
