/* XPM */
static char *togglecamera_s32_xpm[] = {
/* width height num_colors chars_per_pixel */
"    32    32      256            2",
/* colors */
"`` c #c1c1c1",
"`. c #9d9d9d",
"`# c #000000",
"`a c #afafaf",
"`b c #6b6b63",
"`c c #7a7a71",
"`d c #8a8a7f",
"`e c #2a2a28",
"`f c #7b7b71",
"`g c #7b7b72",
"`h c #8a8a80",
"`i c #93979a",
"`j c #94989b",
"`k c #2f2f2e",
"`l c #6c6c64",
"`m c #8b8b80",
"`n c #808384",
"`o c #2a3238",
"`p c #2c343b",
"`q c #435058",
"`r c #7d8d97",
"`s c #5a6c78",
"`t c #889299",
"`u c #7c7c72",
"`v c #696b6c",
"`w c #1c2125",
"`x c #1d2227",
"`y c #586168",
"`z c #87959f",
"`A c #4c5b65",
"`B c #4b5a65",
"`C c #4e5e69",
"`D c #9ca2a6",
"`E c #8c8c8c",
"`F c #8b8b81",
"`G c #343434",
"`H c #89898a",
"`I c #0f1214",
"`J c #121618",
"`K c #23292e",
"`L c #7f8e98",
"`M c #4a5963",
"`N c #4a5964",
"`O c #4b5b65",
"`P c #51626d",
"`Q c #2b2b29",
"`R c #6d6d64",
"`S c #8c8c81",
"`T c #303031",
"`U c #515253",
"`V c #07090a",
"`W c #0d1012",
"`X c #434e56",
"`Y c #4a5863",
"`Z c #4b5a64",
"`0 c #4c5b66",
"`1 c #9ca1a5",
"`2 c #7a7a7a",
"`3 c #3e3e42",
"`4 c #ededf8",
"`5 c #73767b",
"`6 c #050607",
"`7 c #121518",
"`8 c #414e57",
".` c #495862",
".. c #9a9fa2",
".# c #575757",
".a c #232323",
".b c #747476",
".c c #909097",
".d c #80808d",
".e c #24272a",
".f c #6c777f",
".g c #040505",
".h c #1b2024",
".i c #47555f",
".j c #2e373e",
".k c #090b0c",
".l c #717a81",
".m c #8f9497",
".n c #9f9f9f",
".o c #47494a",
".p c #3a3f43",
".q c #0b0d0f",
".r c #040506",
".s c #1e2529",
".t c #485761",
".u c #495863",
".v c #1b2125",
".w c #4a5a64",
".x c #43535e",
".y c #263845",
".z c #2d4250",
".A c #10171d",
".B c #101013",
".C c #030303",
".D c #636a6f",
".E c #37424a",
".F c #3e4b54",
".G c #38444c",
".H c #2b3339",
".I c #47525a",
".J c #495762",
".K c #33404a",
".L c #2b3f4d",
".M c #283c49",
".N c #1c2e3a",
".O c #090f13",
".P c #2c2c30",
".Q c #1c1c21",
".R c #060606",
".S c #a0a1a2",
".T c #495055",
".U c #2e373d",
".V c #354047",
".W c #5d6a72",
".X c #a9b5be",
".Y c #758692",
".Z c #5f6c75",
".0 c #060a0d",
".1 c #1b2c37",
".2 c #1c2d3a",
".3 c #40454a",
".4 c #020202",
".5 c #434347",
".6 c #111111",
".7 c #2f3539",
".8 c #242b30",
"#` c #283035",
"#. c #606e77",
"## c #87939a",
"#a c #495761",
"#b c #090f14",
"#c c #1b2c38",
"#d c #1c2e3b",
"#e c #293d4c",
"#f c #20242b",
"#g c #28282a",
"#h c #3e3e44",
"#i c #333638",
"#j c #171c1f",
"#k c #1d2327",
"#l c #424e56",
"#m c #606f7a",
"#n c #485660",
"#o c #485661",
"#p c #41505a",
"#q c #293944",
"#r c #1a2a36",
"#s c #2a3d4a",
"#t c #2d414f",
"#u c #213340",
"#v c #12161b",
"#w c #121212",
"#x c #080808",
"#y c #464646",
"#z c #9c9c9d",
"#A c #0d0f11",
"#B c #111416",
"#C c #293137",
"#D c #495760",
"#E c #0e1316",
"#F c #152028",
"#G c #374a58",
"#H c #485a67",
"#I c #4e5a65",
"#J c #696969",
"#K c #515152",
"#L c #0e1113",
"#M c #475660",
"#N c #404d56",
"#O c #030507",
"#P c #0b1217",
"#Q c #1a2a35",
"#R c #0d161c",
"#S c #374854",
"#T c #84939c",
"#U c #4e5b65",
"#V c #3d3e3e",
"#W c #121619",
"#X c #3c4851",
"#Y c #364048",
"#Z c #2e383f",
"#0 c #030607",
"#1 c #111c23",
"#2 c #15232c",
"#3 c #17252f",
"#4 c #142129",
"#5 c #192833",
"#6 c #4c5860",
"#7 c #313435",
"#8 c #040405",
"a` c #161b1e",
"a. c #080a0c",
"a# c #090a0c",
"aa c #1d2429",
"ab c #040709",
"ac c #172630",
"ad c #101a21",
"ae c #9fa3a5",
"af c #282929",
"ag c #020304",
"ah c #171c20",
"ai c #43515b",
"aj c #354048",
"ak c #3f4b54",
"al c #030608",
"am c #1b2b37",
"an c #132028",
"ao c #596166",
"ap c #7d7f80",
"aq c #010202",
"ar c #191e22",
"as c #475560",
"at c #040608",
"au c #0c1318",
"av c #192935",
"aw c #7e8589",
"ax c #464647",
"ay c #39444c",
"az c #292f32",
"aA c #121d25",
"aB c #182732",
"aC c #9d9fa0",
"aD c #8d8d8d",
"aE c #3e4346",
"aF c #424f58",
"aG c #9a9a9a",
"aH c #505153",
"aI c #374249",
"aJ c #6b7377",
"aK c #9b9b9b",
"aL c #606467",
"aM c #5f676c",
"aN c #656e74",
"aO c #808588",
"aP c #89897f",
"aQ c #6b6b62",
"aR c #000000",
"aS c #000000",
"aT c #000000",
"aU c #000000",
"aV c #000000",
"aW c #000000",
"aX c #000000",
"aY c #000000",
"aZ c #000000",
"a0 c #000000",
"a1 c #000000",
"a2 c #000000",
"a3 c #000000",
"a4 c #000000",
"a5 c #000000",
"a6 c #000000",
"a7 c #000000",
"a8 c #000000",
/* pixels */
"`````````````````````````````````````````````````````````````.`#",
"```````````````````````````````````````````````````````````a`#`b",
"`````````````````````````````````````````````````````````.`#`c`d",
"```````````````````````````````````````````````````````a`e`f`d`d",
"`````````````````````````````````````````````````````.`#`g`h`h`d",
"`````````````````````````````i`j```````````````````.`k`l`m`h`h`d",
"`````````````````````````n`o`p`q`r`s`t```````````.`#`u`m`m`m`h`h",
"```````````````````````v`w`x`y`z`A`B`C`D```````E`#`u`F`m`m`m`m`h",
"`````````G`G`````````H`I`J`K`L`M`N`B`O`P`````E`Q`R`S`F`F`m`m`m`h",
"```````E`#`#`T```````U`V`W`X`Y`M`N`Z`B`0`1`.`#`R`S`S`S`F`m`m`m`m",
"```````2`#`#`3`4`5```6`6`7`8.``M`M`Z`B`A..`#.#`#`#.a.#`2`.`m`m`m",
"`````````..b.c.d.e.f.g.g.h.i.``Y.j.k`Z`B.l.m.#`#`#`#`#`#`#`E`m`m",
"``````````````.n.o.p.q.r.s.t.`.u.v.k.w.x.y.z.A.B`#`#.C`#`#`.`m`m",
"``````````````.D.E.F.G.H.I.J.`.``Y`M.K.L.M.N.O`#.P.Q.R`#`#`F`m`m",
"``````````.S.T.U.V.W.X.Y.Z.J.`.`.``Y.0.1.2.2.3.4.4.5.C`#.6`F`m`m",
"``````````.7.8#`#.##.t.t.t#a.J.`.``8#b#c#d#e#f#g`##h`#`#`G`F`m`m",
"````````#i#j#k#l#m#n#o.t.t.t#a#p#q#r#s#t#u.N#v.Q#w#x`#`##y`S`S`m",
"``````#z#A#B#C#D#n#n#n#o.t.t.t#E#F#G#c#c#c#H#I`S`.#J`G`#.#`S`m`m",
"``````#K`V#L.E#M#n#n#n#n.t.t#N#O#P#c#Q#R#S#T#U`S`S`S`S`.`.`S`m`m",
"``````#V`6#W#X#M#M#n#Y`7#n#o#Z#0#1#2#3#c#4#5#6`S`S`S`S`S`S`S`S`S",
"``````#7#8a``8#M#M#Ma.a##n#oaaabac.1#c#cad#5ae`S`S`S`S`S`S`S`S`m",
"``````afagahai#M#M#Majak#n#nal.Oam.1.1.1anao`S`S`S`S`S`S`S`S`S`S",
"``````apaqar`8as#M#M#M#M#n.Eatauamam.1avaw`S`S`S`S`S`S`S`S`S`S`S",
"````````ax.qay.ias#M#M#M#MazalaAamaBaoaC`S`S`S`S`S`S`S`S`S`S`m`h",
"``````````aDaE#X.i.i#MaF`SaGaHaIaJ`S`S`S`S`S`S`S`S`S`S`S`m`m`m`h",
"```````````.aKaLaMaNaO`S`S`S`S`S`S`S`S`S`S`S`S`S`S`S`S`S`S`m`h`h",
"`````````a`k`u`F`F`F`S`S`S`S`S`S`S`S`S`S`S`S`S`S`F`m`m`m`m`h`h`d",
"```````.`#`l`m`m`m`F`F`S`S`S`S`S`S`S`S`S`S`S`S`S`S`S`S`S`m`h`d`d",
"`````a`e`g`m`m`m`m`m`m`F`F`F`F`F`F`F`S`S`S`S`S`S`S`S`m`h`h`d`d`d",
"```.`k`f`h`h`m`m`m`m`m`m`m`m`F`m`F`F`m`m`S`S`S`S`S`S`S`S`S`S`S`S",
"`a`e`c`d`d`h`h`m`m`m`m`m`m`m`m`m`m`m`m`S`S`S`S`S`S`S`S`S`d`d`daP",
"`eaQ`d`d`d`d`d`h`h`m`m`m`m`m`m`m`m`m`m`S`m`S`S`S`h`h`d`S`S`S`SaP"
};
