/* XPM */
static char *toggle_is_s32_xpm[] = {
/* width height num_colors chars_per_pixel */
"    32    32      256            2",
/* colors */
"`` c #000000",
"`. c #ffffff",
"`# c #e6bc4c",
"`a c #c1c1c1",
"`b c #8b8b81",
"`c c #8b8b80",
"`d c #007bd2",
"`e c #75696b",
"`f c #725e62",
"`g c #725e65",
"`h c #736269",
"`i c #735f6a",
"`j c #655662",
"`k c #797378",
"`l c #61515f",
"`m c #5a4b59",
"`n c #6a5b6c",
"`o c #695c6b",
"`p c #6e5f71",
"`q c #5e4e63",
"`r c #635369",
"`s c #615267",
"`t c #64536b",
"`u c #66556d",
"`v c #63536b",
"`w c #5e4f66",
"`x c #61516c",
"`y c #5f4f6c",
"`z c #5b5a63",
"`A c #03031a",
"`B c #0f0f79",
"`C c #101080",
"`D c #10107f",
"`E c #10107d",
"`F c #0d0d65",
"`G c #10107b",
"`H c #0f0f72",
"`I c #151570",
"`J c #171760",
"`K c #23238a",
"`L c #222282",
"`M c #171759",
"`N c #202075",
"`O c #1f1f71",
"`P c #21215c",
"`Q c #343490",
"`R c #33338a",
"`S c #22225b",
"`T c #313179",
"`U c #454593",
"`V c #3d3d82",
"`W c #29294d",
"`X c #42427b",
"`Y c #565697",
"`Z c #565695",
"`0 c #50507e",
"`1 c #68689e",
"`2 c #68689c",
"`3 c #33334c",
"`4 c #676794",
"`5 c #6c6c92",
"`6 c #7b7b9c",
"`7 c #8b8bac",
"`8 c #9d9db3",
".` c #4b4b55",
".. c #9d9db0",
".# c #a3a3b0",
".a c #55555b",
".b c #67676b",
".c c #a5a5a7",
".d c #414142",
".e c #8f8f90",
".f c #7b7ca6",
".g c #0e1a84",
".h c #0c1771",
".i c #0e1e8d",
".j c #0f1e88",
".k c #2e398d",
".l c #9496a5",
".m c #0c1b7c",
".n c #656a83",
".o c #707176",
".p c #84889a",
".q c #898a8e",
".r c #0b2789",
".s c #0b247f",
".t c #0a2684",
".u c #0b2b8c",
".v c #5b657d",
".w c #09328f",
".x c #747881",
".y c #09389b",
".z c #093797",
".A c #a6a8ac",
".B c #5c6472",
".C c #073b91",
".D c #06449e",
".E c #064ba6",
".F c #064497",
".G c #054aa0",
".H c #044ea1",
".I c #0555b2",
".J c #054fa5",
".K c #2f65a3",
".L c #506c8a",
".M c #0360bb",
".N c #0357ab",
".O c #0461be",
".P c #0261b6",
".Q c #0363bd",
".R c #016fc8",
".S c #016ec7",
".T c #016dc4",
".U c #026ec8",
".V c #026ec7",
".W c #0265b9",
".X c #006ec1",
".Y c #016fc5",
".Z c #016fc3",
".0 c #016dc3",
".1 c #016dc1",
".2 c #0570c5",
".3 c #4b7da2",
".4 c #517e9f",
".5 c #000305",
".6 c #037cd1",
".7 c #57809c",
".8 c #3a4953",
"#` c #727f88",
"#. c #65737a",
"## c #778287",
"#a c #2b3032",
"#b c #798589",
"#c c #76898e",
"#d c #7c8a8c",
"#e c #6c6d6d",
"#f c #6b6c6c",
"#g c #818483",
"#h c #929f94",
"#i c #b4b8b4",
"#j c #bdc0bd",
"#k c #737473",
"#l c #6b6e69",
"#m c #878b84",
"#n c #828381",
"#o c #878a83",
"#p c #898b83",
"#q c #848581",
"#r c #888b7d",
"#s c #878882",
"#t c #a4a981",
"#u c #83847b",
"#v c #72736b",
"#w c #8b8c82",
"#x c #8a8b81",
"#y c #6d6d64",
"#z c #8c8c81",
"#A c #89897e",
"#B c #88887d",
"#C c #7e7e74",
"#D c #7b7b71",
"#E c #6b6b63",
"#F c #8c8c82",
"#G c #8a8a80",
"#H c #7c7c73",
"#I c #7b7b72",
"#J c #86867d",
"#K c #8b8b82",
"#L c #818179",
"#M c #898981",
"#N c #2a2a28",
"#O c #2e2e2c",
"#P c #8e8e88",
"#Q c #8a8a85",
"#R c #61615e",
"#S c #323231",
"#T c #2f2f2e",
"#U c #676765",
"#V c #383837",
"#W c #81817f",
"#X c #c1c1c0",
"#Y c #858584",
"#Z c #6f6e65",
"#0 c #9d9775",
"#1 c #9e9260",
"#2 c #c1aa5a",
"#3 c #bea85a",
"#4 c #b19e5d",
"#5 c #a79a6c",
"#6 c #958d6e",
"#7 c #ceb155",
"#8 c #c8ae57",
"a` c #c4ab59",
"a. c #c0a95b",
"a# c #b9a45f",
"aa c #a89763",
"ab c #9f905e",
"ac c #9c8e60",
"ad c #e7be4c",
"ae c #e6bd4c",
"af c #e5bc4c",
"ag c #d4b354",
"ah c #d1b255",
"ai c #d1b256",
"aj c #9b8d63",
"ak c #e5bb4d",
"al c #998965",
"am c #8d8166",
"an c #857a62",
"ao c #857b64",
"ap c #948463",
"aq c #98896a",
"ar c #8e826b",
"as c #807462",
"at c #817564",
"au c #827262",
"av c #857565",
"aw c #636261",
"ax c #806f61",
"ay c #79655c",
"az c #746a66",
"aA c #7b7674",
"aB c #746965",
"aC c #776c69",
"aD c #756967",
"aE c #715d5c",
"aF c #685756",
"aG c #7e6867",
"aH c #756969",
"aI c #726666",
"aJ c #796f6f",
"aK c #c2bdbd",
"aL c #c2bebe",
"aM c #c0bfbf",
"aN c #c0c0c0",
"aO c #afafaf",
"aP c #acacac",
"aQ c #aaaaaa",
"aR c #a6a6a6",
"aS c #a5a5a5",
"aT c #9f9f9f",
"aU c #9d9d9d",
"aV c #969696",
"aW c #8c8c8c",
"aX c #8a8a8a",
"aY c #787878",
"aZ c #636363",
"a0 c #606060",
"a1 c #5a5a5a",
"a2 c #313131",
"a3 c #292929",
"a4 c #131313",
"a5 c #0c0c0c",
"a6 c #060606",
"a7 c #030303",
"a8 c #000000",
/* pixels */
"`a`a`a`Y`1`7`a`a`a`a`a`a`a`a`a`a`a`a`a`a`a`a`a`a`a`a`a`a`a`aaU``",
"`a`a`R.z.T.F.u.k`2`7`a`a`a`a`a`a`a`a`a`a`a`a`a`a`a`a`a`a`aaO``#E",
"..`Q.w`d`d`d`d.N.i.D.s.k`Z`7`8`a`a`a`a`a`a`a`a`a`a`a`a`aaU``#D#G",
"`L.t.r.u.O.V.N`E.Y`d`d.P.H`F.g`N`1.f`8`a`a`a`a`a`a`a`aaO#N#D#G#G",
".S`d.P.G.t.m.i.y.Q.Y`d`d.I`E.R.X.P.C.h`T.f`a`a`a`a`aaU``#I#G#G#G",
"`d`d.6`d.0.i.D.C.r.m.y.I`G.U`d`d`d`d.W`E..`a`a`a`aaU#T#y`c#G#G#G",
".y.U.2.1`D.w`d`d`d.Z.N`r`saD.I.U.S`d.s`U`a`a`a`aaU``#H`c`c`c#G#G",
".F.t`I.j`H.R`d`d`d`dacar`#ah#4an`las`K..`a`a`aaW``#H`b`c`c`c`c#G",
"`d.R`wamaj`qaH.E.M.J`v`#`#`#`#`#`#`m`1`a`a`aaW#N#y#z`b`b`c`c`c#G",
"`d`yaBad`#`##2anaB`Camai`#`#`#`##1`p`a`a`aaU``#y#z#z#z`b`c`c`c`c",
".j`e`#`#`#`#`#`#`ealabau`faaai#8`r`Z`a`aaU``#y#z#z#z#z`b`b`c`c`c",
".f#0#t`#ae`#`#aI`t`#`#`##7#3axay`B`a`aaW``#y#z#z#z#z#z#z`b`c`c`c",
"#h`T`hama#`#a``u`#`#`#`#`#`##2aG`4`aaT#T#y#F#z#z`b`b#z#z`b`c`c`c",
"#iaV`z`S`m`w`xaa`#`#`#`#`#`#aFay.#.c.d#C#F#F#F`b`b`b`b`b`b`b`c`c",
"#X#i#R#Ra1`3`MaE`favag`#`##3`i`4.A.8#L#g#x#K`b`b`b`b`b`b`b`b`b`c",
"`aaM`a#W#ZaZaw.a`W`PaE`fap`h`LaVa4#u#x#x`b`b#x#x#x`b`b`b`b`b`b`b",
"#j#XaMaNaMaUaAaZa0a0.``W`6`H..a2.v#o`b`b`b`b`b`b#x#x`b`b`b`b`b`b",
"#j`a`aaN`a`aaKaKaX#ea0.b.o.p#a#v#g#q`b`b`b`b`b`b#x#p#s`b`b`b`b`b",
"`a`a`a`a`a`a`aaL#X`a.e.o.qa2#.###x#x`b`b`b`b`b`b#p`0.3#o`b`b#x#x",
"`a`a`a`a`a`a`a`a#X`a`a.l`A.B#m#o#x`b`b`b`b`b`b#M#n`oaC.K.4.7#c.x",
"`a`a`a`a`a`a`a`a`a`a.e.5.B.L#s#W.n#n#b#m`b#x#W#5aqakah#4ao`jat`K",
"`a`a`a`a`a`a`a`a`aaS#O#l#d#w#w`sar#6`oaA#`#b#.`nak`#`#`#`#`#`m`1",
"`a`a`a`a`a`a`aaNaU#V#y#J#w#w`kaB`#`#afa.aoaz`Camai`#`#`#`##1`p`b",
"`a`a`a`a`a`aaNaQa5#H`c#A#w#naJ`#`#`#`#`#`#`ealabau`faaai#8`r`Z`b",
"`a`a`a`a`a`aaSa6#H#L`c`b`b#Q#0#t`#`#`#`#aI`t`#`#`##7#3axay`B`b`b",
"`a`a`aaNaNaRa3#v#B`b`b`b`b#w`X`pama#`#a``u`#`#`#`#`#`##2aG`4`b`b",
"`a`aaNaNaP#S#J#F`b`b`b`b`b`b#Q.B`P`m`w`yaa`#`#`#`#`#`#aFay`b`b`b",
"`a`a`aaUa7#y`c`b`b`b`b`b`b`b#K#Ua0.a`3`MaE`favag`#`##3`i`5`b`b`b",
"`a`aaO#N#I`c#G`b`b`b`b`b`b`b`b`baYa0a0a0.a`W`PaE`fap`g`V`b`b`b`b",
"`aaU#T#D#G#G`b`b`b`b`b`b`b`b#K`b`b`b#Y#fa0a0a0.``W`J`O#P`b`b`b`b",
"aO#N#D#G#G#G#G`b`b`b`b`b`b`b`b`b`b`b`b`b`b#Y#fa0a0#k.q`b`b`b`b`b",
"#N#E#G#G#G#G#G`b`b`b`b`b`b`b`b#r`c`b`b`b`b`b`b.eaY`b`b`b`b`b`b`b"
};
