/* XPM */
static char *togglewos_xpm[] = {
/* width height num_colors chars_per_pixel */
"    32    32      256            2",
/* colors */
"`` c #c1c1c1",
"`. c #9d9d9d",
"`# c #2a2a28",
"`a c #000000",
"`b c #6d6d64",
"`c c #606060",
"`d c #8a8a7f",
"`e c #ffffff",
"`f c #8a8a80",
"`g c #8b8b80",
"`h c #1182d0",
"`i c #007bd2",
"`j c #348ecd",
"`k c #579bca",
"`l c #9db4c4",
"`m c #8c8c8c",
"`n c #6c6c64",
"`o c #8caec5",
"`p c #69a1c8",
"`q c #bbbbc0",
"`r c #8284b2",
"`s c #595b92",
"`t c #1e2168",
"`u c #565772",
"`v c #8c8c81",
"`w c #8b8b81",
"`x c #0079d1",
"`y c #0e37aa",
"`z c #141999",
"`A c #16209e",
"`B c #1b209a",
"`C c #3c4297",
"`D c #686b89",
"`E c #0d3bad",
"`F c #141c9c",
"`G c #065cc1",
"`H c #0c46b5",
"`I c #1325a1",
"`J c #242ea3",
"`K c #838382",
"`L c #0c42b1",
"`M c #141b9b",
"`N c #0563c5",
"`O c #036bc9",
"`P c #0a49b5",
"`Q c #4b4d8e",
"`R c #4694cc",
"`S c #0a4ab6",
"`T c #141a9a",
"`U c #0857bd",
"`V c #0a51bb",
"`W c #1e2398",
"`X c #0951ba",
"`Y c #0d3aac",
"`Z c #0564c5",
"`0 c #0273cd",
"`1 c #141d9d",
"`2 c #626489",
"`3 c #0856bd",
"`4 c #0d43b2",
"`5 c #1333ac",
"`6 c #1228a3",
"`7 c #0855bc",
"`8 c #1036ab",
".` c #363a93",
".. c #085bc1",
".# c #0c45b4",
".a c #141f9d",
".b c #171d9a",
".c c #7e7e84",
".d c #727272",
".e c #48677c",
".f c #2471a7",
".g c #0c78c4",
".h c #0761c4",
".i c #0c41b0",
".j c #0854bb",
".k c #141b9a",
".l c #55588c",
".m c #848484",
".n c #6c6c6c",
".o c #3c6a8b",
".p c #0765c7",
".q c #151c9c",
".r c #0d3cad",
".s c #0c44b3",
".t c #262c98",
".u c #9c9c9c",
".v c #54636e",
".w c #1739ae",
".x c #1324a1",
".y c #0469c7",
".z c #757686",
".A c #787878",
".B c #3c4880",
".C c #1521a0",
".D c #113fb3",
".E c #0568c8",
".F c #007ad1",
".G c #112aa4",
".H c #484b90",
".I c #909090",
".J c #2b2b29",
".K c #50516c",
".L c #373a7f",
".M c #1b2195",
".N c #0c46b4",
".O c #1c269f",
".P c #868782",
".Q c #6d6d65",
".R c #8c8c82",
".S c #4e4f6d",
".T c #353880",
".U c #192097",
".V c #696a88",
".W c #2f2f2e",
".X c #8e8e84",
".Y c #84847d",
".Z c #4c4e6f",
".0 c #323583",
".1 c #181d99",
".2 c #303494",
".3 c #afafaf",
".4 c #7c7c73",
".5 c #909088",
".6 c #898983",
".7 c #7c7c72",
".8 c #7b7b72",
"#` c #7b7b71",
"#. c #7a7a71",
"## c #89897f",
"#a c #6b6b62",
"#b c #000000",
"#c c #000000",
"#d c #000000",
"#e c #000000",
"#f c #000000",
"#g c #000000",
"#h c #000000",
"#i c #000000",
"#j c #000000",
"#k c #000000",
"#l c #000000",
"#m c #000000",
"#n c #000000",
"#o c #000000",
"#p c #000000",
"#q c #000000",
"#r c #000000",
"#s c #000000",
"#t c #000000",
"#u c #000000",
"#v c #000000",
"#w c #000000",
"#x c #000000",
"#y c #000000",
"#z c #000000",
"#A c #000000",
"#B c #000000",
"#C c #000000",
"#D c #000000",
"#E c #000000",
"#F c #000000",
"#G c #000000",
"#H c #000000",
"#I c #000000",
"#J c #000000",
"#K c #000000",
"#L c #000000",
"#M c #000000",
"#N c #000000",
"#O c #000000",
"#P c #000000",
"#Q c #000000",
"#R c #000000",
"#S c #000000",
"#T c #000000",
"#U c #000000",
"#V c #000000",
"#W c #000000",
"#X c #000000",
"#Y c #000000",
"#Z c #000000",
"#0 c #000000",
"#1 c #000000",
"#2 c #000000",
"#3 c #000000",
"#4 c #000000",
"#5 c #000000",
"#6 c #000000",
"#7 c #000000",
"#8 c #000000",
"a` c #000000",
"a. c #000000",
"a# c #000000",
"aa c #000000",
"ab c #000000",
"ac c #000000",
"ad c #000000",
"ae c #000000",
"af c #000000",
"ag c #000000",
"ah c #000000",
"ai c #000000",
"aj c #000000",
"ak c #000000",
"al c #000000",
"am c #000000",
"an c #000000",
"ao c #000000",
"ap c #000000",
"aq c #000000",
"ar c #000000",
"as c #000000",
"at c #000000",
"au c #000000",
"av c #000000",
"aw c #000000",
"ax c #000000",
"ay c #000000",
"az c #000000",
"aA c #000000",
"aB c #000000",
"aC c #000000",
"aD c #000000",
"aE c #000000",
"aF c #000000",
"aG c #000000",
"aH c #000000",
"aI c #000000",
"aJ c #000000",
"aK c #000000",
"aL c #000000",
"aM c #000000",
"aN c #000000",
"aO c #000000",
"aP c #000000",
"aQ c #000000",
"aR c #000000",
"aS c #000000",
"aT c #000000",
"aU c #000000",
"aV c #000000",
"aW c #000000",
"aX c #000000",
"aY c #000000",
"aZ c #000000",
"a0 c #000000",
"a1 c #000000",
"a2 c #000000",
"a3 c #000000",
"a4 c #000000",
"a5 c #000000",
"a6 c #000000",
"a7 c #000000",
"a8 c #000000",
/* pixels */
"`````````````````````````````````````````````````````````````.`#",
"`````````````````````````````````````````````````````a`a`a`a`a`b",
"```````````````````````````````````````````````````c`c`c`c`c`a`d",
"```````````````````````````````````````````````````c`e`e`e`c`a`d",
"```````````````````````````````````````````````````c`e`e`e`c`a`d",
"```````````````````````````````````````````````````c`e`e`e`c`a`f",
"`````````````````````````````````````````````````.`c`c`c`c`c`g`f",
"`````````````````````````h`i`j`k`l`````````````m`a`n`g`g`g`g`g`g",
"`````````````````````o`i`i`i`i`i`i`i`j`p`q`r`s`t`u`v`w`w`g`g`g`f",
"```````````````````o`i`i`i`i`i`i`i`i`i`x`y`z`A`z`z`B`C`D`g`g`g`g",
"`````````````````o`i`i`i`i`i`i`i`i`i`i`E`z`F`G`H`I`z`z`z`J`K`g`g",
"```````````````p`i`i`i`i`i`i`i`i`i`i`L`z`M`N`i`i`i`O`P`M`z`Q`g`g",
"`````````````R`i`i`i`i`i`i`i`i`i`i`S`z`T`U`i`i`i`i`i`V`z`W`K`g`g",
"```````````R`i`i`i`i`i`i`i`i`i`i`X`z`z`z`T`Y`Z`i`i`0`1`z`2`w`g`g",
"`````````h`i`i`i`i`i`i`i`i`i`i`3`z`z`4`5`T`z`z`6`7`8`z.``v`w`g`g",
"```````j`i`i`i`i`i`i`i`i`i`i..`T`z`P`i`i`0.#.a`z`z`z.b.c`v`w`g`g",
"``````.d.e.f.g`i`i`i`i`i`i.h`M`z.i`i`i`i`i`i`x.j.k`z.l`v`v`v`v`g",
"````.m.n`c`c`c.o.g.g`i`i.p.q`z.r`i`i`i`i`i`i`i.s`z.t`w`v`v`v`g`g",
"````````.u.n.n`c`c.v.o.g.w`z.x`Z`i`i`i`i`i`i.y`T`T.z`v`v`v`v`g`g",
"``````````````.m.A`c`c`c.B`z`z`z.C.D.E`i`i.F.G`z.H`v`v`v`v`v`v`v",
"````````````````````.I.J`c.K.L.M`z`z`z.C.D.N`z.O.P`v`v`v`v`v`v`g",
"```````````````````..J.Q.R.I.n`c.S.T.U`z`z`z`z.V`v`v`v`v`v`v`v`v",
"`````````````````m.W`b`v`v.R.R.X.Y.n`c.Z.0.1.2`v`v`v`v`v`v`v`v`v",
"``````````````.3`a.4`v`v`v`v`v`v`v`v.5.6.A`v`w`v`v`v`v`v`v`v`g`f",
"`````````````.`a.4`v`v`v`v`v`v`v`v`v`v`v`v`v`v`v`v`v`v`v`g`g`g`f",
"```````````.`a`n`v`v`v`v`v`v`v`v`v`v`v`v`v`v`v`v`v`v`v`v`v`g`f`f",
"````````.3.W.7`w`w`w`v`v`v`v`v`v`v`v`v`v`v`v`v`v`w`g`g`g`g`f`f`d",
"```````.`a`n`g`g`g`w`w`v`v`v`v`v`v`v`v`v`v`v`v`v`v`v`v`v`g`f`d`d",
"````.3`#.8`g`g`g`g`g`g`w`w`w`w`w`w`w`v`v`v`v`v`v`v`v`g`f`f`d`d`d",
"```..W#``f`f`g`g`g`g`g`g`g`g`w`g`w`w`g`g`v`v`v`v`v`v`v`v`v`v`v`v",
".3`##.`d`d`f`f`g`g`g`g`g`g`g`g`g`g`g`g`v`v`v`v`v`v`v`v`v`d`d`d##",
"`##a`d`d`d`d`d`f`f`g`g`g`g`g`g`g`g`g`g`v`g`v`v`v`f`f`d`v`v`v`v##"
};
