/* XPM */
static char *uberattach_xpm[] = {
/* width height num_colors chars_per_pixel */
"    32    32      256            2",
/* colors */
"`` c #000000",
"`. c #3c82bc",
"`# c #54423c",
"`a c #0c0e6c",
"`b c #84623c",
"`c c #646264",
"`d c #b4864c",
"`e c #2c2a6c",
"`f c #444274",
"`g c #24224c",
"`h c #7482ac",
"`i c #4452a4",
"`j c #00063c",
"`k c #2c2a9c",
"`l c #1c1e6c",
"`m c #1c1e3c",
"`n c #4462ac",
"`o c #545274",
"`p c #ffca7c",
"`q c #94929c",
"`r c #34366c",
"`s c #44322c",
"`t c #3c9ee4",
"`u c #747284",
"`v c #a4a6ac",
"`w c #64629c",
"`x c #545294",
"`y c #0c0a54",
"`z c #14128c",
"`A c #6c4e2c",
"`B c #3c326c",
"`C c #44468c",
"`D c #7472a4",
"`E c #dcba84",
"`F c #2c2a84",
"`G c #24229c",
"`H c #9c9aa4",
"`I c #3c96dc",
"`J c #444264",
"`K c #342a54",
"`L c #14165c",
"`M c #3c72bc",
"`N c #b4b6b4",
"`O c #848294",
"`P c #343654",
"`Q c #4c4a64",
"`R c #5482bc",
"`S c #14167c",
"`T c #646284",
"`U c #34326c",
"`V c #24225c",
"`W c #24267c",
"`X c #5c5a74",
"`Y c #3caaec",
"`Z c #14125c",
"`0 c #444e9c",
"`1 c #241a64",
"`2 c #8c8e94",
"`3 c #3c8acc",
"`4 c #4c5ab4",
"`5 c #3c3a84",
"`6 c #5c5e94",
"`7 c #747aac",
"`8 c #3c7ab4",
".` c #3c5a94",
".. c #0c0e44",
".# c #2c2eb4",
".a c #1c1e7c",
".b c #9492b4",
".c c #c4ae84",
".d c #140e54",
".e c #54465c",
".f c #14127c",
".g c #8c7a6c",
".h c #342e74",
".i c #2c2a54",
".j c #3ca6e4",
".k c #7c7e8c",
".l c #acb2b4",
".m c #6c6aa4",
".n c #0c0e64",
".o c #1c1a8c",
".p c #4c4a8c",
".q c #9c9ab4",
".r c #44426c",
".s c #1c1664",
".t c #4472b4",
".u c #4c3e5c",
".v c #6c6a84",
".w c #5c5a8c",
".x c #3c82cc",
".y c #cc9654",
".z c #2c2a7c",
".A c #4c4e7c",
".B c #2c2644",
".C c #ffffe4",
".D c #3c3a7c",
".E c #443a44",
".F c #64669c",
".G c #5452a4",
".H c #0c0e54",
".I c #c4c2c4",
".J c #8482a4",
".K c #343264",
".L c #8c8aa4",
".M c #7c7a9c",
".N c #445aa4",
".O c #3436b4",
".P c #6c6a94",
".Q c #3c86c4",
".R c #14126c",
".S c #8c6e54",
".T c #6c6a7c",
".U c #444284",
".V c #24264c",
".W c #0c0a44",
".X c #241e6c",
".Y c #4466ac",
".Z c #545674",
".0 c #9496a4",
".1 c #34367c",
".2 c #4c3a24",
".3 c #3ca2e4",
".4 c #747294",
".5 c #acaaac",
".6 c #14168c",
".7 c #44469c",
".8 c #74769c",
"#` c #2c2e84",
"#. c #241e2c",
"## c #ffe2b4",
"#a c #5c5a64",
"#b c #f4b66c",
"#c c #dca25c",
"#d c #c48a4c",
"#e c #9c7a6c",
"#f c #34329c",
"#g c #846654",
"#h c #2426b4",
"#i c #3432bc",
"#j c #3cb2ec",
"#k c #5c5eac",
"#l c #3c7acc",
"#m c #ffffff",
"#n c #4c4e8c",
"#o c #1c1a7c",
"#p c #2c2664",
"#q c #14123c",
"#r c #24227c",
"#s c #342664",
"#t c #3c8edc",
"#u c #3c3e94",
"#v c #445a9c",
"#w c #1c1e4c",
"#x c #34327c",
"#y c #b4b2b4",
"#z c #1c1a9c",
"#A c #4c4a9c",
"#B c #4c4e9c",
"#C c #44569c",
"#D c #2426a4",
"#E c #9c9eac",
"#F c #3c9ae4",
"#G c #44465c",
"#H c #3c76bc",
"#I c #b4babc",
"#J c #4c4e64",
"#K c #5c5e74",
"#L c #241e5c",
"#M c #3c8ed4",
"#N c #3c3e8c",
"#O c #9496ac",
"#P c #1c1a5c",
"#Q c #6c6e84",
"#R c #5456ac",
"#S c #8486ac",
"#T c #7c7ea4",
"#U c #2c2e6c",
"#V c #3caeec",
"#W c #747eac",
"#X c #9c9eb4",
"#Y c #44466c",
"#Z c #5c5e8c",
"#0 c #2c2e7c",
"#1 c #343664",
"#2 c #8c8ea4",
"#3 c #6c6e7c",
"#4 c #24226c",
"#5 c #3c82c4",
"#6 c #0c0e74",
"#7 c #44427c",
"#8 c #242254",
"a` c #9492a4",
"a. c #343674",
"a# c #443234",
"aa c #74728c",
"ab c #6462a4",
"ac c #0c0a5c",
"ad c #444694",
"ae c #2c2a8c",
"af c #9c9aac",
"ag c #141664",
"ah c #b4b6bc",
"ai c #34365c",
"aj c #4c4a6c",
"ak c #141684",
"al c #343274",
"am c #242264",
"an c #242684",
"ao c #5c5a7c",
"ap c #141264",
"aq c #8c8e9c",
"ar c #5c5e9c",
"as c #1c1e84",
"at c #141284",
"au c #3ca6ec",
"av c #7c7e94",
"aw c #4472bc",
"ax c #6c6a8c",
"ay c #6466a4",
"az c #5452ac",
"aA c #0c0e5c",
"aB c #8482ac",
"aC c #445aac",
"aD c #0c0a4c",
"aE c #4466b4",
"aF c #54567c",
"aG c #3ca2ec",
"aH c #acaab4",
"aI c #141694",
"aJ c #7476a4",
"aK c #3432c4",
"aL c #141244",
"aM c #444664",
"aN c #3c76c4",
"aO c #241e64",
"aP c #9496b4",
"aQ c #1c1a64",
"aR c #000000",
"aS c #000000",
"aT c #000000",
"aU c #000000",
"aV c #000000",
"aW c #000000",
"aX c #000000",
"aY c #000000",
"aZ c #000000",
"a0 c #000000",
"a1 c #000000",
"a2 c #000000",
"a3 c #000000",
"a4 c #000000",
"a5 c #000000",
"a6 c #000000",
"a7 c #000000",
"a8 c #000000",
/* pixels */
".I.I.I.I.I.I.I.I.I.I.I.I.I.I.I.I.I.I.I.I.I.I.I.I.I.I.I.I.I.I.I.I",
".I.I.I.I.I.I.I.I.I.I.I.I.I.I.I.IaB`D#B#Nae.f#6`S#BaP``````````.I",
".I.I.I#Iaaax.P.L#E.I.I.I.I.I`F#6.nacaD.W..aiaL...H`c`c`c`c`c``.I",
".I.I#IaF.r#U#4`l#4.P#E.I.I.I`Taj#Q.kaE.8`h#W#W#W`X`c#m#m#m`c``aH",
".I.I`q#Y`Bam#L#p.h#4`lax`N.I.I.Iah`x.``8`3`3`3`3`3`c#m#m#m`c```H",
".I#IaF`f`U#L#s#4a.`eaQag.1.J#I.b`x`.#F#F#F#F#F#F#F`c#m#m#m`c``.I",
".I`XaM`J`K#P`1#4.ham.s.sap.s.w#C`I`t`t`t`t`t`t`t`t`c`c`c`c`c.I.I",
".I#J#G.E`sa#.e`B.XaO.s`L`Z`Za..D.M`taGaGaGaGaGaGaG#Z.O.1ad`v.I.I",
".I#K`Q.2`A`A.S.u.B#P`L`Z`Z`Z#4#x#x#x#T#XauaGaGaGaG`kas#Qar.I.I.I",
".I.l`X`#`b#d#c`E.ga#aL.d`Z`Z#4al#0.z`W`W.p#S`taG#f.#.Kad.8.I.I.I",
".I.I.l.v.v.y#b.C##`d#.#q#P#Palal#0.z`W#r.a#o.a`G.oaD.4#A`v.I.I.I",
".I.I.I.Iaqaq.c.C`p#c`b.V`g`uaf.U#0`W`W#r.aak.6ap`j`a`F#k.I.I.I.I",
".I.I.I.I.I#Iav.T#e#g`#.i.V`N.I.I#T`5#r`S.6.f`yap.f.f`w.F.I.I.I.I",
".I.I.I.I.I.I.I.I#I#Qaj`oaq.IaB.m`xarak.faA`Z.R.f.f.f#O#2.I.I.I.I",
".I.I.I.I.I.I.I.I.I.I.Iahay`R#M`t#B.6aA`m`OaJ`D#``San.G`N.I.I.I.I",
".I.I.I.I.I.I.I.I.I.IaH#A#5`Y`Y`k.f#8#aauauauaGaGaG.Y`7.I.I.I.I.I",
".I.I.I.I.I.I.I.I.I.I#k.t#V#VaE.f#w`Y`YauauauaGaG`I.GaJ.I.I.I.I.I",
".I.I.I.I.I.I.I.I.IaH`4#j#j#B#h`V`Y`Y`Y`Yauauauau#M#R#2.I.I.I.I.I",
".I.I.I.I.I.I.I.Iah#R.Q#j.q#i#o.0#V`Y`Y`Yauauauau.taz`N.I.I.I.I.I",
".I.I.I.I.I.I.I.I#k.N#j#jabaK#1#V#V`Y`Y`Y`Yauauau`4ay.I.I.I.I.I.I",
".I.I.I.I.I.I.I#k`0.j#V#V#u.O`O#V`Y`Y`Y`Y`Yauau`3`3`3.I.I.I.I.I.I",
".I.I.I.I.Iah#k.N.3#V#V#V`G#D`q`Y`Y`Y`Y`Yauauau`Mad#y.I.I.I.I.I.I",
".I.I.I.IaH.7#v`Y`Y`Y`Y`Y#o#za``Y`Y`Yauauauauauad.A.I.I.I.I.I.I.I",
".I.I`v`x.7#Hau`Y`Y`Y`Y`Y`5#z`DauauauauauauauaNad`u.I.I.I.I.I.I.I",
".I.I`H#7.UadaE#l#tauauau#Q.faI.qauauauauau#Fad`6.I.I.I.I.I.I.I.I",
".I.I.I`Naq`T#7`CadaCaw#taG`rataIabaGaGaGaG`nadaq.I.I.I.I.I.I.I.I",
".I.I.I.I.I.I.I.k.Z`f`Cad`iaE.K#6`z.6abaB.xad.A.I.I.I.I.I.I.I.I.I",
".I.I.I.I.I.I.I.I.I.5`2.Z.r.U`C`X.H#6at`z`zak#u#uababar`war.q.I.I",
".I.I.I.I.I.I.I.I.I.I.I.I.5.kao.raE#Q#wac.n#6#6.fatatat`zatab.I.I",
".I.I.I.I.I.I.I.I.I.I.I.I.I.I.I.I.kao.A.U#3aM`P#8...W`yaD`y#n.I.I",
".I.I.I.I.I.I.I.I.I.I.I.I.I.I.I.I.I.I#y.I.I.I.I.I.I.I.I.I.I.I.I.I",
".I.I.I.I.I.I.I.I.I.I.I.I.I.I.I.I.I.I.I.I.I.I.I.I.I.I.I.I.I.I.I.I"
};
