/* XPM */
static char *unsharedverts_xpm[] = {
/* width height num_colors chars_per_pixel */
"    32    32      256            2",
/* colors */
"`` c #c1c1c1",
"`. c #565697",
"`# c #68689e",
"`a c #8b8baa",
"`b c #afafba",
"`c c #aeaeb6",
"`d c #33338a",
"`e c #093797",
"`f c #016dc4",
"`g c #064498",
"`h c #0a2c89",
"`i c #f3dc23",
"`j c #8c8caf",
"`k c #9c9cae",
"`l c #343490",
"`m c #ff2a25",
"`n c #007bd2",
"`o c #06449e",
"`p c #0b227f",
"`q c #8b8bac",
"`r c #9d9db3",
"`s c #9d9db1",
"`t c #202083",
"`u c #0b2685",
"`v c #0b2788",
"`w c #026ec7",
"`x c #035aad",
"`y c #10107d",
"`z c #016ec5",
"`A c #044ea1",
"`B c #0d0d65",
"`C c #0e1a84",
"`D c #202075",
"`E c #7a7aa5",
"`F c #9d9db2",
"`G c #8b8ba8",
"`H c #0f0f7a",
"`I c #016ec7",
"`J c #0262b6",
"`K c #054aa0",
"`L c #0e1e8c",
"`M c #0a389e",
"`N c #0363bd",
"`O c #045ab2",
"`P c #10107c",
"`Q c #016fc7",
"`R c #006ec1",
"`S c #0360b7",
"`T c #063d92",
"`U c #0c1771",
"`V c #31317b",
"`W c #7a7aaa",
"`X c #0456ad",
"`Y c #073990",
"`Z c #0b2789",
"`0 c #0653b3",
"`1 c #10107b",
"`2 c #026ec8",
"`3 c #0265b9",
"`4 c #565693",
"`5 c #0e0e72",
"`6 c #093899",
"`7 c #016ec6",
"`8 c #016dc1",
".` c #10107f",
".. c #0356a8",
".# c #0f0f78",
".a c #0d1b7f",
".b c #0653b1",
".c c #0a257e",
".d c #454593",
".e c #10107e",
".f c #0262b7",
".g c #054395",
".h c #0a2683",
".i c #0f0f73",
".j c #016fc8",
".k c #083188",
".l c #0c2b95",
".m c #073e95",
".n c #0a237c",
".o c #0d0d6b",
".p c #0b217b",
".q c #22228a",
".r c #9d9daf",
".s c #afafb8",
".t c #33338b",
".u c #0d1c81",
".v c #09328e",
".w c #0e0e70",
".x c #054fa5",
".y c #006bbc",
".z c #0c0c61",
".A c #68689f",
".B c #064ba6",
".C c #0360b8",
".D c #0c1c7d",
".E c #0162b3",
".F c #0553b1",
".G c #063889",
".H c #222288",
".I c #b7b7b7",
".J c #191965",
".K c #0e0e6f",
".L c #0b2a91",
".M c #093795",
".N c #0360b9",
".O c #0e1d88",
".P c #016dc2",
".Q c #0d1b7d",
".R c #0f0f75",
".S c #09389a",
".T c #0351a1",
".U c #565695",
".V c #848484",
".W c #606060",
".X c #53535a",
".Y c #3f3f57",
".Z c #1f1f4d",
".0 c #19196b",
".1 c #0745a6",
".2 c #0d1a7c",
".3 c #016fc2",
".4 c #0355a4",
".5 c #06449d",
".6 c #0d1979",
".7 c #787878",
".8 c #0c0c63",
"#` c #0f0f74",
"#. c #0b2a8f",
"## c #054aa2",
"#a c #111183",
"#b c #034d9a",
"#c c #9c9c9c",
"#d c #6c6c6c",
"#e c #55555b",
"#f c #343452",
"#g c #0c0c5d",
"#h c #212181",
"#i c #a8a8a8",
"#j c #33334c",
"#k c #0d1d84",
"#l c #044998",
"#m c #111184",
"#n c #676794",
"#o c #29294f",
"#p c #21215e",
"#q c #0d0d67",
"#r c #0f0f76",
"#s c #0b278a",
"#t c #b4b4b4",
"#u c #4a4a58",
"#v c #0e0e6e",
"#w c #9d9db0",
"#x c #898998",
"#y c #909090",
"#z c #000000",
"#A c #000000",
"#B c #000000",
"#C c #000000",
"#D c #000000",
"#E c #000000",
"#F c #000000",
"#G c #000000",
"#H c #000000",
"#I c #000000",
"#J c #000000",
"#K c #000000",
"#L c #000000",
"#M c #000000",
"#N c #000000",
"#O c #000000",
"#P c #000000",
"#Q c #000000",
"#R c #000000",
"#S c #000000",
"#T c #000000",
"#U c #000000",
"#V c #000000",
"#W c #000000",
"#X c #000000",
"#Y c #000000",
"#Z c #000000",
"#0 c #000000",
"#1 c #000000",
"#2 c #000000",
"#3 c #000000",
"#4 c #000000",
"#5 c #000000",
"#6 c #000000",
"#7 c #000000",
"#8 c #000000",
"a` c #000000",
"a. c #000000",
"a# c #000000",
"aa c #000000",
"ab c #000000",
"ac c #000000",
"ad c #000000",
"ae c #000000",
"af c #000000",
"ag c #000000",
"ah c #000000",
"ai c #000000",
"aj c #000000",
"ak c #000000",
"al c #000000",
"am c #000000",
"an c #000000",
"ao c #000000",
"ap c #000000",
"aq c #000000",
"ar c #000000",
"as c #000000",
"at c #000000",
"au c #000000",
"av c #000000",
"aw c #000000",
"ax c #000000",
"ay c #000000",
"az c #000000",
"aA c #000000",
"aB c #000000",
"aC c #000000",
"aD c #000000",
"aE c #000000",
"aF c #000000",
"aG c #000000",
"aH c #000000",
"aI c #000000",
"aJ c #000000",
"aK c #000000",
"aL c #000000",
"aM c #000000",
"aN c #000000",
"aO c #000000",
"aP c #000000",
"aQ c #000000",
"aR c #000000",
"aS c #000000",
"aT c #000000",
"aU c #000000",
"aV c #000000",
"aW c #000000",
"aX c #000000",
"aY c #000000",
"aZ c #000000",
"a0 c #000000",
"a1 c #000000",
"a2 c #000000",
"a3 c #000000",
"a4 c #000000",
"a5 c #000000",
"a6 c #000000",
"a7 c #000000",
"a8 c #000000",
/* pixels */
"````````````````````````````````````````````````````````````````",
"````````````````````````````````````````````````````````````````",
"````````````````````````````````````````````````````````````````",
"````````````````````````````````````````````````````````````````",
"````````````````````````````````````````````````````````````````",
"````````````````````````````````````````````````````````````````",
"````````````````````````````````````````````````````````````````",
"````````````````````````````````````````````````````````````````",
"`````````````````````````.`#`a`b````````````````````````````````",
"`````````````````````c`d`e`f`g`h`i`i`j`b````````````````````````",
"```````````````````k`l`m`m`m`n`n`i`i`o`p`m`m`q`r````````````````",
"`````````````````s`t`u`v`m`m`w`x`y`z`n`m`m`A`B`C`D`#`E`F````````",
"```````````````G`H`I`n`J`K`m`m`L`M`N`m`m`m`O`P`Q`R`S`T`U`V`W````",
"`````````````i`i`X`n`n`n`n`m`m`m`Y`Z`m`m`0`1`2`n`n`n`n`3`y`s````",
"```````````4`i`i`5`6`2`7`8.``m`m`n`m`m..`P.#.a.b`2`I`n.c.d``````",
"`````````d.e`7`n.f.g.h`i`i.i.j`m`m`m`n.k.l`n...m.n.o.p.q.r``````",
"````.s.t.u`n`n`n`n`n`Q`i`i.v.w`m`m`m.x.e`I`n`n`n`n.y.z.A````````",
"```c`i`i.B.C`n`n`n`n`y.D`n`n.E`m`m`m`i`i.F`z`n`n`n.G.H`c````````",
"``.I`i`i.J.K.L.M.N.O.O.P`n`n`m`m`n`m`m`i.Q.R.S`0.T`1.U``````````",
"``.V.W.W.X.Y.Z.0`i`i.1`w`n`m`m`m.2`m`m`m.3.4.5.6`i`i````````````",
"``````.V.7.W.W.W`i`i.8#`#.`m`m###a`w`m`m`n`n`n#b`i`i````````````",
"``````````#c.V#d.W.W#e#f`m`m.R.``M`w`n`m`m`n`n#g#h``````````````",
"````````````````#i.7#d`m`m`m#j`i`i.R#k`m`m`m#l#m#n``````````````",
"``````````````````````#c.7.W.W`i`i#o#p#q#r#s`H#h````````````````",
"``````````````````````````#t.V#d.W.W.W#u`i`i#v#w````````````````",
"````````````````````````````````#i.V#d.W`i`i#x``````````````````",
"````````````````````````````````````#t#y.7#i````````````````````",
"````````````````````````````````````````````````````````````````",
"````````````````````````````````````````````````````````````````",
"````````````````````````````````````````````````````````````````",
"````````````````````````````````````````````````````````````````",
"````````````````````````````````````````````````````````````````"
};
