/* XPM */
static char *xbirail2_xpm[] = {
/* width height num_colors chars_per_pixel */
"    32    32      256            2",
/* colors */
"`` c #c1c1c1",
"`. c #aeaeb5",
"`# c #9d9db2",
"`a c #32327e",
"`b c #15158e",
"`c c #32327a",
"`d c #7979a2",
"`e c #aeaeb7",
"`f c #79799f",
"`g c #121286",
"`h c #0d2690",
"`i c #0450a2",
"`j c #0a196c",
"`k c #57579a",
"`l c #8b8bab",
"`m c #afafb8",
"`n c #111180",
"`o c #13138a",
"`p c #016cc4",
"`q c #007ed7",
"`r c #0076cd",
"`s c #05489e",
"`t c #0c1873",
"`u c #afafba",
"`v c #aeaeb4",
"`w c #20207b",
"`x c #161692",
"`y c #07429d",
"`z c #0077ca",
"`A c #007bd2",
"`B c #0080da",
"`C c #0084e2",
"`D c #017ad6",
"`E c #083184",
"`F c #202079",
"`G c #676799",
"`H c #151590",
"`I c #0a3496",
"`J c #0071c1",
"`K c #0076c9",
"`L c #007bd1",
"`M c #0084e1",
"`N c #0087e5",
"`O c #0089e9",
"`P c #0356a9",
"`Q c #0b1970",
"`R c #44448b",
"`S c #9c9cad",
"`T c #9d9dae",
"`U c #131387",
"`V c #111f93",
"`W c #006bb7",
"`X c #006fbd",
"`Y c #0082dd",
"`Z c #0085e2",
"`0 c #0088e7",
"`1 c #0089ea",
"`2 c #064aa2",
"`3 c #0d1a7f",
"`4 c #44448c",
"`5 c #393992",
"`6 c #545486",
"`7 c #33338b",
"`8 c #0260af",
".` c #0067b0",
".. c #0070bf",
".# c #007ad0",
".a c #0080db",
".b c #0084e0",
".c c #0086e4",
".d c #0087e6",
".e c #0088e8",
".f c #09257a",
".g c #68689b",
".h c #2525a1",
".i c #525274",
".j c #64647e",
".k c #676793",
".l c #141490",
".m c #0b3498",
".n c #0066ad",
".o c #0068b1",
".p c #0073c5",
".q c #007dd5",
".r c #0086e5",
".s c #044898",
".t c #0a2881",
".u c #20207a",
".v c #9d9db4",
".w c #555589",
".x c #8a8aa4",
".y c #0f0f78",
".z c #0d1c83",
".A c #0159a3",
".B c #0064aa",
".C c #0078cd",
".D c #0081dc",
".E c #0083e0",
".F c #0083df",
".G c #0085e3",
".H c #0177d1",
".I c #072f7e",
".J c #0d1a79",
".K c #21217f",
".L c #1e1e66",
".M c #0e0e6c",
".N c #0b2785",
".O c #005b9b",
".P c #007acf",
".Q c #007ed6",
".R c #007fd8",
".S c #0081db",
".T c #007fd9",
".U c #0080d9",
".V c #064197",
".W c #101080",
".X c #0d0d68",
".Y c #0c0c63",
".Z c #0a0a4e",
".0 c #0f0f75",
".1 c #044491",
".2 c #006bb6",
".3 c #007dd4",
".4 c #007cd3",
".5 c #0079ce",
".6 c #0078cc",
".7 c #0d288d",
".8 c #14148b",
"#` c #9c9caa",
"#. c #3f3f68",
"## c #0b0b5a",
"#a c #8c8cad",
"#b c #9c9ca9",
"#c c #0c0c61",
"#d c #171750",
"#e c #27276f",
"#f c #09318d",
"#g c #0069b3",
"#h c #0072c2",
"#i c #0077cb",
"#j c #0075c8",
"#k c #006dba",
"#l c #006eba",
"#m c #0264bb",
"#n c #121283",
"#o c #78789b",
"#p c #898997",
"#q c #262664",
"#r c #0d0d6a",
"#s c #44448e",
"#t c #77778e",
"#u c #0d0d66",
"#v c #25255f",
"#w c #323264",
"#x c #0d1a80",
"#y c #0067af",
"#z c #0063a9",
"#A c #0072c3",
"#B c #0266c0",
"#C c #131385",
"#D c #89899c",
"#E c #646481",
"#F c #545488",
"#G c #8c8c96",
"#H c #66666d",
"#I c #0e1c89",
"#J c #0647a1",
"#K c #0259a4",
"#L c #0060a4",
"#M c #005c9d",
"#N c #005896",
"#O c #005793",
"#P c #006fbc",
"#Q c #9c9ca8",
"#R c #7b7b7b",
"#S c #18185e",
"#T c #595969",
"#U c #737373",
"#V c #4c4c67",
"#W c #252562",
"#X c #101083",
"#Y c #0a308e",
"#Z c #053d86",
"#0 c #00497d",
"#1 c #004c81",
"#2 c #005591",
"#3 c #005d9f",
"#4 c #0068b2",
"#5 c #23238a",
"#6 c #aeaeb6",
"#7 c #898989",
"#8 c #4e4e78",
"a` c #1b1b71",
"a. c #10107d",
"a# c #053074",
"aa c #003f6b",
"ab c #00487b",
"ac c #042e6c",
"ad c #65658a",
"ae c #b5b5b5",
"af c #052d6f",
"ag c #003f6c",
"ah c #004b80",
"ai c #0a1769",
"aj c #3f3f65",
"ak c #0e0e6f",
"al c #02346a",
"am c #0c0c62",
"an c #9f9f9f",
"ao c #0e0e70",
"ap c #061a54",
"aq c #0b0b56",
"ar c #313176",
"as c #0c0c64",
"at c #1c1c58",
"au c #0c0c5e",
"av c #0f0f79",
"aw c #6868a0",
"ax c #76768a",
"ay c #1c1c56",
"az c #787896",
"aA c #1f1f70",
"aB c #64647d",
"aC c #1c1c57",
"aD c #101077",
"aE c #121282",
"aF c #38389a",
"aG c #1b1b55",
"aH c #787895",
"aI c #40406e",
"aJ c #000000",
"aK c #000000",
"aL c #000000",
"aM c #000000",
"aN c #000000",
"aO c #000000",
"aP c #000000",
"aQ c #000000",
"aR c #000000",
"aS c #000000",
"aT c #000000",
"aU c #000000",
"aV c #000000",
"aW c #000000",
"aX c #000000",
"aY c #000000",
"aZ c #000000",
"a0 c #000000",
"a1 c #000000",
"a2 c #000000",
"a3 c #000000",
"a4 c #000000",
"a5 c #000000",
"a6 c #000000",
"a7 c #000000",
"a8 c #000000",
/* pixels */
"````````````````````````````````````````````````````````````````",
"````````````````````````````````````````````````````````````````",
"`````````````````.`#`#``````````````````````````````````````````",
"`````````````````a`b`c`d`e``````````````````````````````````````",
"```````````````f`g`h`i`j`k`l````````````````````````````````````",
"`````````````m`n`o`p`q`r`s`t`k`u````````````````````````````````",
"```````````v`w`x`y`z`A`B`C`D`E`F`d`m````````````````````````````",
"```````````G`H`I`J`K`L`B`M`N`O`P`Q`R`l```````````````````S``````",
"`````````T`U`V`W`X`z`q`Y`Z`N`0`O`1`2`3`4`#```````````.`5`n`6````",
"`````````7`x`8.`...#.a.b.c.d`0`0`0.e`D.f`w.g`u```````c.h.i.j````",
"``````.k.l.m.n.o.p.q`Y`M.c`N`N.r.c.c.c.d.s.t.u.v``.w.w.x````````",
"`````S.y.z.A.B`X.C.q.D.E`Z`M`M`M.E.F.b`C.G.H.I.J.K`x.k``````````",
"````.L.M.N.O.n.p.P.Q.R`B.S.a.T.U`B.S`Y.F.b`M.V.W.y.X`k`u````````",
"```v.Y.Z.0.1.2`K`L.3.4`A.5.6`z.#.q.R`B`Y.H.7.8`c#`#.##.K#a``````",
"``#b#c#d#e#f#g#h`z#i.6#j`J#k#l#h.5.3.U#m#n`b#o``````#p#q#r#s`#``",
"``#t#u#v#w#x`2.``X#k#k.2#y#z#z`W#A.4#B#C#C#D```````````v#E.L#F``",
"``#G#c.X#H#q.0#I#J#K#L#M#N#O#M#z#P`P`b`b#Q`````````````````u````",
"``#R#S.y#T#U#V#W.0#X#Y#Z#0#1#2#3#4.J#5#6````````````````````````",
"``#7.i#8#H#U#U#U#H#.a`a.a#aaab#Oac.0ad``````````````````````````",
"``ae#R#R#U#U#U#U#U#U#H#W.0afagahai`c````````````````````````````",
"``````ae#7#U#U#U#U#U#U#Uajakalalamad````````````````````````````",
"``````````an#R#U#U#U#U#U#H#vaoapaq`v````````````````````````````",
"``````````````ae#7#U#U#U#R`varas.Z#6````````````````````````````",
"````````````````ae#7#U#7````#bat.X#s.x``````````````````````````",
"``````````````````ae#7````````#tauav.Waw#o`.````````````````````",
"````````````````````anae``````axayazaAa.`g#5`k`d````````````````",
"````````````````````ae````````aBaC```.adaraDaEaF````````````````",
"``````````````````````````````axaG````````#badaH````````````````",
"``````````````````````````````#paI``````````````````````````````",
"````````````````````````````````````````````````````````````````",
"````````````````````````````````````````````````````````````````",
"````````````````````````````````````````````````````````````````"
};
