/* XPM */
static char *xbirail1_xpm[] = {
/* width height num_colors chars_per_pixel */
"    32    32      256            2",
/* colors */
"`` c #c1c1c1",
"`. c #8cb1cb",
"`# c #69a6d1",
"`a c #1b348a",
"`b c #7a7aa4",
"`c c #afafb9",
"`d c #9db6c8",
"`e c #57a1d5",
"`f c #118be1",
"`g c #0085e3",
"`h c #0085e2",
"`i c #0078d2",
"`j c #09308a",
"`k c #444488",
"`l c #8b8baa",
"`m c #0081dc",
"`n c #0080da",
"`o c #0082dd",
"`p c #0083df",
"`q c #0084e1",
"`r c #0084e0",
"`s c #05479d",
"`t c #1c287e",
"`u c #68689d",
"`v c #aeaeb7",
"`w c #7aa3c0",
"`x c #006fbd",
"`y c #007bd1",
"`z c #0082de",
"`A c #0086e3",
"`B c #0088e8",
"`C c #0089e8",
"`D c #0089e9",
"`E c #008aea",
"`F c #026ac4",
"`G c #0a2887",
"`H c #565695",
"`I c #9d9db3",
"`J c #236ea3",
"`K c #0066ae",
"`L c #007dd5",
"`M c #0089ea",
"`N c #008cef",
"`O c #008ff3",
"`P c #008ef2",
"`Q c #008df0",
"`R c #008def",
"`S c #008aeb",
"`T c #0087e6",
"`U c #073488",
"`V c #0e1982",
"`W c #afb6bb",
"`X c #004a7e",
"`Y c #0068b1",
"`Z c #007cd3",
"`0 c #008ff4",
"`1 c #0092f9",
"`2 c #0090f6",
"`3 c #008bed",
"`4 c #026dc9",
"`5 c #0d197a",
"`6 c #44448e",
"`7 c #afafba",
"`8 c #8b8ba7",
".` c #4b4ba1",
".. c #454591",
".# c #114d77",
".a c #0065ac",
".b c #0078cc",
".c c #0092f8",
".d c #0093fb",
".e c #0093fa",
".f c #0091f6",
".g c #008bec",
".h c #09318c",
".i c #20207b",
".j c #79799d",
".k c #3030c1",
".l c #404098",
".m c #2c2c51",
".n c #2d2d5f",
".o c #144478",
".p c #0061a5",
".q c #0073c3",
".r c #007ed7",
".s c #008cee",
".t c #0090f5",
".u c #008aec",
".v c #0088e7",
".w c #0087e7",
".x c #0086e4",
".y c #05499f",
".z c #0d1a7f",
".A c #5a5a9c",
".B c #2b2bb8",
".C c #363684",
".D c #adadaf",
".E c #898995",
".F c #9b9ba4",
".G c #052560",
".H c #005a9a",
".I c #006bb6",
".J c #0076c9",
".K c #007bd2",
".L c #0086e5",
".M c #0650b1",
".N c #0f0f74",
".O c #121285",
".P c #141488",
".Q c #3d3d7a",
".R c #394976",
".S c #004c81",
".T c #005fa3",
".U c #006bb7",
".V c #0071c1",
".W c #017ad8",
".X c #0b39a3",
".Y c #171790",
".Z c #0c1b7a",
".0 c #073d97",
".1 c #0d0d69",
".2 c #3b457a",
".3 c #02376f",
".4 c #004c82",
".5 c #0069b3",
".6 c #006dba",
".7 c #0075c8",
".8 c #017bdc",
"#` c #0a41ab",
"#. c #151585",
"## c #0940a2",
"#a c #0362b9",
"#b c #333388",
"#c c #8b8bac",
"#d c #303070",
"#e c #033a75",
"#f c #00487a",
"#g c #005089",
"#h c #005692",
"#i c #005d9e",
"#j c #0062a6",
"#k c #006ab4",
"#l c #0077ca",
"#m c #007fd8",
"#n c #2222a4",
"#o c #084eb2",
"#p c #017edf",
"#q c #083186",
"#r c #20207c",
"#s c #565696",
"#t c #5e5e68",
"#u c #27276e",
"#v c #10107d",
"#w c #053177",
"#x c #004271",
"#y c #005795",
"#z c #0061a6",
"#A c #15158c",
"#B c #13309d",
"#C c #017fe2",
"#D c #008ef1",
"#E c #737373",
"#F c #66666c",
"#G c #3f3f61",
"#H c #1b1b70",
"#I c #101080",
"#J c #072b73",
"#K c #003c66",
"#L c #008df1",
"#M c #2397e8",
"#N c #9eabb7",
"#O c #66666e",
"#P c #252562",
"#Q c #0d0d67",
"#R c #07246c",
"#S c #003c67",
"#T c #00538d",
"#U c #063c8c",
"#V c #0c1b7b",
"#W c #016dc2",
"#X c #0091f7",
"#Y c #1195f0",
"#Z c #4c4c64",
"#0 c #19196a",
"#1 c #042b63",
"#2 c #004576",
"#3 c #0c0c63",
"#4 c #082c7c",
"#5 c #0072c2",
"#6 c #0087e5",
"#7 c #0194fb",
"#8 c #349fe9",
"a` c #b5b5b5",
"a. c #40406a",
"a# c #081b64",
"aa c #0c0c60",
"ab c #01559a",
"ac c #0078cd",
"ad c #007fd9",
"ae c #0191f6",
"af c #0395fc",
"ag c #299ff1",
"ah c #09135c",
"ai c #0b0b55",
"aj c #2499eb",
"ak c #aebcc7",
"al c #0c0c5e",
"am c #090949",
"an c #0079ce",
"ao c #57a0d2",
"ap c #052c6b",
"aq c #00416f",
"ar c #0074c5",
"as c #585864",
"at c #0c0c5f",
"au c #0d177c",
"av c #052c6f",
"aw c #004e85",
"ax c #0062a7",
"ay c #5790b7",
"az c #033166",
"aA c #003b65",
"aB c #090946",
"aC c #4b4b5e",
"aD c #0e0e6c",
"aE c #101082",
"aF c #082371",
"aG c #032f62",
"aH c #345b77",
"aI c #9f9f9f",
"aJ c #4b4b61",
"aK c #838383",
"aL c #2e2e64",
"aM c #3a4c82",
"aN c #4d4d6a",
"aO c #9c9ca7",
"aP c #898989",
"aQ c #232350",
"aR c #777790",
"aS c #757582",
"aT c #000000",
"aU c #000000",
"aV c #000000",
"aW c #000000",
"aX c #000000",
"aY c #000000",
"aZ c #000000",
"a0 c #000000",
"a1 c #000000",
"a2 c #000000",
"a3 c #000000",
"a4 c #000000",
"a5 c #000000",
"a6 c #000000",
"a7 c #000000",
"a8 c #000000",
/* pixels */
"````````````````````````````````````````````````````````````````",
"````````````````````````````````````````````````````````````````",
"```````````````````.`#`a`b`c````````````````````````````````````",
"`````````````d`e`f`g`h`i`j`k`l``````````````````````````````````",
"`````````````m`n`o`p`q`h`r`s`t`u`v``````````````````````````````",
"`````````w`x`y`z`A`B`C`D`E`C`F`G`H`I````````````````````````````",
"`````````J`K`L`M`N`O`P`Q`R`N`S`T`U`V`b``````````````````````````",
"```````W`X`Y`Z`E`0`1`1`2`0`P`N`3`D`4`5`6`7```````````8.`..`l````",
"````````.#.a.b`g`R.c.d.e.f`O`R.g`E`B`i.h.i`l``````.j.k.l.m.n````",
"````````.o.p.q.r`q.s`O.t`O`N.u`M`D.v.w.x.y.z`H`7.A.B.C.D.E.F````",
"```````v.G.H.I.J.K`m`g.x`M`D`D`B.v.v.v`T.L.M.N.O.P.Q`v``````````",
"````````.R.S.T.U.V.J.b.K.r`r.L.v.v`B.W.X.Y.O.Z.0.1`H`7``````````",
"````````.2.3.4.H.a.5.I.6.7.r`q.v.8#`.B#.##.u`M`B#a.Z#b#c````````",
"````````#d.Z#e#f#g#h#i#j#k#l#m.W#n#n#o#p`Q`N`N.s`S.W#q#r#s`v````",
"``````.E#t#u#v#w#e#x`X#y#z`x`4#A#B#C`O`O`O`P`P#D`Q`N.g.y`a``````",
"``````#E#E#F#G#H#I#J#K.S.H.5.N`G.v#L.t`2.f`2.t`0`0`O#M#N`7``````",
"``````.E#E#E#E#O#P#Q#R#S#T#U#V#W`z.w`P#X.c`1#X#X.f#Y````````````",
"``````.E#E#E#E#E#E#Z#0#1#2#3#4#5`y`z#6`P#X.e#7.e#8``````````````",
"``````a`#E#E#E#E#E#Ea.a##1aaab.I.Vacad`q.saeafag````````````````",
"````````a`#E#E#E#E#E#O#0ahai#h.p.5.V#l`L`z`Eajak````````````````",
"``````````a`.E#E#E#E#E#Galam#x#T.T`K.6#5an#mao``````````````````",
"``````````````.E#E#E#E#Eahaaapaq.4#y#j`Y.6ar````````````````````",
"``````````````a`#E#E#E#Easatauav#K#2aw.Haxay````````````````````",
"````````````````.E#E#E#Easamat#v`VazaAaq#g``````````````````````",
"``````````````````#E#E#E#EaBaC#GaDaEaFaGaH``````````````````````",
"``````````````````aI#E#E#EaBaJaK`vaL.1#IaM``````````````````````",
"````````````````````aI#E#E#EaN``````aOaL`I``````````````````````",
"``````````````````````aIaPaQaR``````````````````````````````````",
"````````````````````````a`aS`v``````````````````````````````````",
"````````````````````````````````````````````````````````````````",
"````````````````````````````````````````````````````````````````",
"````````````````````````````````````````````````````````````````"
};
