/* XPM */
static char *xbirail3_xpm[] = {
/* width height num_colors chars_per_pixel */
"    32    32      256            2",
/* colors */
"`` c #c1c1c1",
"`. c #9c9cab",
"`# c #8b8ba6",
"`a c #111180",
"`b c #212181",
"`c c #8b8baa",
"`d c #9c9cac",
"`e c #10107d",
"`f c #0f1e8f",
"`g c #053e89",
"`h c #0d1a7e",
"`i c #333389",
"`j c #101d90",
"`k c #0265b9",
"`l c #007ed7",
"`m c #0179d7",
"`n c #434385",
"`o c #101c8d",
"`p c #0453a6",
"`q c #0071c0",
"`r c #007bd1",
"`s c #0084e0",
"`t c #035eb5",
"`u c #0d1e81",
"`v c #7a7aa4",
"`w c #101b8d",
"`x c #005591",
"`y c #006bb6",
"`z c #0077cb",
"`A c #007dd4",
"`B c #0081db",
"`C c #0084e1",
"`D c #0262b9",
"`E c #68689b",
"`F c #9d9db1",
"`G c #141490",
"`H c #0068b2",
"`I c #007acf",
"`J c #007fd8",
"`K c #0081dc",
"`L c #0083df",
"`M c #0085e2",
"`N c #017ad9",
"`O c #0c1976",
"`P c #68689d",
"`Q c #aeaeb5",
"`R c #0e2087",
"`S c #005fa2",
"`T c #0079cd",
"`U c #0086e4",
"`V c #0085e3",
"`W c #026cc6",
"`X c #aeaeb6",
"`Y c #313179",
"`Z c #004c82",
"`0 c #006dba",
"`1 c #0080d9",
"`2 c #0087e6",
"`3 c #008aeb",
"`4 c #0089e9",
"`5 c #0088e7",
"`6 c #0b2a90",
"`7 c #afafb9",
"`8 c #34348c",
".` c #9d9dae",
".. c #0d0d6b",
".# c #0f0f75",
".a c #006fbe",
".b c #007cd3",
".c c #0086e5",
".d c #008cee",
".e c #0088e8",
".f c #0c2a91",
".g c #30309f",
".h c #3636a4",
".i c #676792",
".j c #232352",
".k c #aeaeb7",
".l c #414176",
".m c #0c0c5e",
".n c #0b1569",
".o c #00518b",
".p c #0075c9",
".q c #007dd6",
".r c #008bed",
".s c #0089ea",
".t c #016cc2",
".u c #0a2a86",
".v c #44448e",
".w c #78789a",
".x c #282895",
".y c #3c3c96",
".z c #4b4b98",
".A c #0c146c",
".B c #004779",
".C c #005b9b",
".D c #0068b0",
".E c #007cd4",
".F c #008aec",
".G c #101075",
".H c #22229c",
".I c #0e0e71",
".J c #05377c",
".K c #004c81",
".L c #005692",
".M c #0062a7",
".N c #006ebb",
".O c #008def",
".P c #0744a2",
".Q c #0e2d9a",
".R c #1b1b97",
".S c #0c2889",
".T c #333386",
".U c #585873",
".V c #252561",
".W c #19207c",
".X c #053177",
".Y c #00406e",
".Z c #004a7e",
".0 c #005e9f",
".1 c #0072c3",
".2 c #007ed6",
".3 c #0087e7",
".4 c #018ff2",
".5 c #0090f5",
".6 c #008ff4",
".7 c #0a43a7",
".8 c #142496",
"#` c #121281",
"#. c #0655b9",
"## c #017fe0",
"#a c #0170c8",
"#b c #0b1a72",
"#c c #757581",
"#d c #353576",
"#e c #4c4c68",
"#f c #4d4d6f",
"#g c #1c1c7b",
"#h c #07256e",
"#i c #03356d",
"#j c #0183ea",
"#k c #2727aa",
"#l c #083e97",
"#m c #0191f6",
"#n c #0182e1",
"#o c #0b2a8c",
"#p c #9d9db4",
"#q c #97979d",
"#r c #737373",
"#s c #33336b",
"#t c #191f76",
"#u c #013667",
"#v c #0067b0",
"#w c #035bb0",
"#x c #141487",
"#y c #0f87da",
"#z c #16abff",
"#A c #12a7ff",
"#B c #0ba0fe",
"#C c #099dfe",
"#D c #0699fd",
"#E c #0496fc",
"#F c #0274cf",
"#G c #092677",
"#H c #21217d",
"#I c #7979a1",
"#J c #9f9f9f",
"#K c #59596b",
"#L c #161c60",
"#M c #033068",
"#N c #0169bb",
"#O c #0f1c89",
"#P c #0489ea",
"#Q c #36cdff",
"#R c #41d8ff",
"#S c #46dcff",
"#T c #2cc2ff",
"#U c #0698fa",
"#V c #017cd8",
"#W c #9c9cad",
"#X c #202076",
"#Y c #09135c",
"#Z c #063788",
"#0 c #008df1",
"#1 c #1cb1ff",
"#2 c #40d6ff",
"#3 c #5bf1ff",
"#4 c #5ff5ff",
"#5 c #36cbff",
"#6 c #0fa1fd",
"#7 c #0a1662",
"#8 c #0d0d67",
"a` c #b5b5b5",
"a. c #222260",
"a# c #01396d",
"aa c #0c0c61",
"ab c #063a88",
"ac c #0292f7",
"ad c #2abfff",
"ae c #27bbff",
"af c #0797f9",
"ag c #0062ac",
"ah c #0a0a4c",
"ai c #59596f",
"aj c #0b0b5b",
"ak c #024d93",
"al c #0073c3",
"am c #007fd9",
"an c #008ced",
"ao c #242464",
"ap c #00548f",
"aq c #0064ab",
"ar c #0073c4",
"as c #007dd5",
"at c #0086e3",
"au c #0082dd",
"av c #081253",
"aw c #1d1d60",
"ax c #2f2f68",
"ay c #585864",
"az c #0b0b56",
"aA c #0067af",
"aB c #0079cf",
"aC c #303072",
"aD c #16164c",
"aE c #007bd2",
"aF c #161650",
"aG c #080844",
"aH c #1b1b74",
"aI c #093390",
"aJ c #0163b3",
"aK c #0074c6",
"aL c #0178d3",
"aM c #121286",
"aN c #0c379e",
"aO c #0558b6",
"aP c #0571cf",
"aQ c #40406a",
"aR c #18188d",
"aS c #25257f",
"aT c #101079",
"aU c #10107f",
"aV c #787894",
"aW c #9b9ba5",
"aX c #000000",
"aY c #000000",
"aZ c #000000",
"a0 c #000000",
"a1 c #000000",
"a2 c #000000",
"a3 c #000000",
"a4 c #000000",
"a5 c #000000",
"a6 c #000000",
"a7 c #000000",
"a8 c #000000",
/* pixels */
"````````````````````````````````````````````````````````````````",
"`````````````````.``````````````````````````````````````````````",
"```````````````#`a`b`c``````````````````````````````````````````",
"`````````````d`e`f`g`h`c````````````````````````````````````````",
"`````````````i`j`k`l`m`h`c``````````````````````````````````````",
"```````````n`o`p`q`r`s`t`u`v````````````````````````````````````",
"`````````c`w`x`y`z`A`B`C`D`h`E``````````````````````````````````",
"```````F`G`g`H`I`J`B`K`L`M`N`O`P````````````````````````````````",
"`````Q`b`R`S`T`L`U`V`C`L`L`M`W`h`P`X````````````````````````````",
"`````Y`a`Z`0`1`2`3`4`5`U`s`s`M`W`6`6`7```````Q`Q`8`n.```````````",
"````...#`x.a.b.c`3.d`3.e`U`C`C`U`N.f.f`7```..g.h.i.j.k``````````",
"``.l.m.n.o`H.p.q`M`3.r.s`5`U`C`M`U.t.u.v.w.x.y`Q````````````````",
"``.z.m.A.B.C.D`q.E`C`4.F`3.e`2`V`U`5`D.G.H.z`Q``````````````````",
"````...I.J.K.L.M.N`r`M.F.O.O.d.s.e.P.Q.R.S.T`7``````````````````",
"``.U.I.V.W.X.Y.Z.0.1.2.3.4.5.6.7.8#`#.###a#b`i`F````````````````",
"``#c#d#e#f#g#h#i.B`S.1`M.d#j.8#k#l#j.5.5#m#n#o.T#p``````````````",
"````#q#r#r#r#s#t#u.K#v.E#w#x#x#y#z#A#B#C#D#E#F#G#H`#`````##I````",
"``````#J#r#r#r#K#L#M.0#N.##O#P#z#Q#R#S#Q#T#z#U#V#G#H`c#W.G#X````",
"````````#J#r#r#r#K#Y`Z#Z`u`m#0#D#1#2#3#4#3#5#6.4.p#7..#8#H`.````",
"``````````a`#r#r#ra.a#aaab`l`2.dac#6#1adae#zaf`3`Jagah..#I``````",
"``````````````#r#rai#7ajakalam.c`3an#0ac#m.4`3`s`I.Bahao.I`v````",
"````````````a`#r#r#r.Vahapaqaras`B`V`2`Uat`Cau`A.1avaw`Qax.#`v``",
"``````````````a`#r#rayaz.J`xaA.1aB.b`l`J`1.2`r`Takaj`.```QaC`#``",
"````````````````#q#r#raD.#.u.LaA.N.p`z`I`I`raEaE#b`n````````````",
"``````````````````#q#raFaGaH#OaI`paJaK`T.2`KaL`u#X`Q````````````",
"``````````````````a`#J#J.j.j#s#gaMaM.QaNaOaP.S`b`d``````````````",
"``````````````````````#q.U#r#r#raQ#d#g#xaRaMaR`v````````````````",
"``````````````````````````````#q#r#r``#WaS.HaTaUaU`X````````````",
"``````````````````````````````#r#ra````EaR#paV`Y`e.i````````````",
"``````````````````````````````#q```````7#I````aW#I``````````````",
"````````````````````````````````````````````````````````````````",
"````````````````````````````````````````````````````````````````"
};
