/* XPM */
static char *xbridgeopt_xpm[] = {
/* width height num_colors chars_per_pixel */
"    32    32      256            2",
/* colors */
"`` c #000000",
"`. c #0082d4",
"`# c #a41634",
"`a c #0c42a4",
"`b c #3c4264",
"`c c #848644",
"`d c #0062bc",
"`e c #e44e1c",
"`f c #0c2284",
"`g c #ccca1c",
"`h c #0c3294",
"`i c #24429c",
"`j c #f48200",
"`k c #ec6a0c",
"`l c #f41a0c",
"`m c #0052ac",
"`n c #e43614",
"`o c #243a94",
"`p c #2c72bc",
"`q c #cc524c",
"`r c #9cc2d4",
"`s c #acae2c",
"`t c #0072cc",
"`u c #0c3a9c",
"`v c #5c5e54",
"`w c #242e8c",
"`x c #0c2a8c",
"`y c #d48284",
"`z c #005ab4",
"`A c #ec3a0c",
"`B c #4486c4",
"`C c #341e74",
"`D c #2c52a4",
"`E c #3c5eac",
"`F c #64a2cc",
"`G c #e45a1c",
"`H c #8ca6bc",
"`I c #14429c",
"`J c #006ac4",
"`K c #d46e6c",
"`L c #5462a4",
"`M c #acaabc",
"`N c #0c127c",
"`O c #ffea00",
"`P c #244ea4",
"`Q c #ffffff",
"`R c #1c3a94",
"`S c #6482b4",
"`T c #1c2284",
"`U c #1c3294",
"`V c #dc2a1c",
"`W c #cc5e5c",
"`X c #b4c2cc",
"`Y c #ec4214",
"`Z c #0c1e84",
"`0 c #14227c",
"`1 c #ffa600",
"`2 c #f47600",
"`3 c #1452ac",
"`4 c #007ad4",
"`5 c #c4aeac",
"`6 c #145ab4",
"`7 c #004aac",
"`8 c #8c8eac",
".` c #0c62bc",
".. c #143294",
".# c #0c52ac",
".a c #e4421c",
".b c #143a94",
".c c #142a84",
".d c #0c5ab4",
".e c #f45a00",
".f c #546eac",
".g c #acbac4",
".h c #7492bc",
".i c #f44e00",
".j c #ffc600",
".k c #344294",
".l c #cc928c",
".m c #ec2e0c",
".n c #e45e3c",
".o c #bc9294",
".p c #3c5aa4",
".q c #2c4294",
".r c #ff9e00",
".s c #f47200",
".t c #d43a34",
".u c #243e84",
".v c #acc6cc",
".w c #0c76cc",
".x c #cc8a8c",
".y c #f43e00",
".z c #4c6eac",
".A c #8cbed4",
".B c #1c4aa4",
".C c #0c6ec4",
".D c #14167c",
".E c #fff600",
".F c #344a94",
".G c #7c82ac",
".H c #cc6664",
".I c #c4c2c4",
".J c #ec4a14",
".K c #141a7c",
".L c #14228c",
".M c #0c4aac",
".N c #6472a4",
".O c #bcbabc",
".P c #ffda00",
".Q c #0066c4",
".R c #0c268c",
".S c #0c3694",
".T c #ff8600",
".U c #f46e00",
".V c #e42614",
".W c #0056b4",
".X c #cc5654",
".Y c #a4c2cc",
".Z c #0076cc",
".0 c #0c3e9c",
".1 c #0c2e94",
".2 c #005ebc",
".3 c #5c9acc",
".4 c #4c1264",
".5 c #345aa4",
".6 c #4c62a4",
".7 c #7cb2d4",
".8 c #ec620c",
"#` c #9caec4",
"#. c #cc423c",
"## c #a4a2b4",
"#a c #ffb200",
"#b c #c47e7c",
"#c c #3c4a94",
"#d c #849ebc",
"#e c #74aacc",
"#f c #347ebc",
"#g c #c4babc",
"#h c #441e64",
"#i c #ec2e24",
"#j c #b4a2a4",
"#k c #4c569c",
"#l c #e4463c",
"#m c #ff7e00",
"#n c #4c8ec4",
"#o c #b4bec4",
"#p c #ec3e1c",
"#q c #646264",
"#r c #dc3224",
"#s c #fff200",
"#t c #f46200",
"#u c #ffff00",
"#v c #ffba00",
"#w c #ec5a0c",
"#x c #f44a00",
"#y c #ec5214",
"#z c #2c368c",
"#A c #f43600",
"#B c #4462a4",
"#C c #1c429c",
"#D c #5c5e9c",
"#E c #2c4a9c",
"#F c #6c82b4",
"#G c #bcc2c4",
"#H c #7c8eb4",
"#I c #f43200",
"#J c #dc3a3c",
"#K c #d44e4c",
"#L c #3456a4",
"#M c #1c3a9c",
"#N c #142e94",
"#O c #b4b6c4",
"#P c #ec2214",
"#Q c #94a6c4",
"#R c #2c2e8c",
"#S c #d45e5c",
"#T c #243e94",
"#U c #d48a8c",
"#V c #d46664",
"#W c #d4867c",
"#X c #1446a4",
"#Y c #006ec4",
"#Z c #d47274",
"#0 c #0c167c",
"#1 c #1c3e8c",
"#2 c #6486bc",
"#3 c #ec460c",
"#4 c #007ed4",
"#5 c #0c66bc",
"#6 c #143694",
"#7 c #0c56b4",
"#8 c #143e9c",
"a` c #0c5eb4",
"a. c #f45200",
"a# c #d43e3c",
"aa c #141e84",
"ab c #6476ac",
"ac c #2c4ea4",
"ad c #0c46a4",
"ae c #24469c",
"af c #acaebc",
"ag c #1c3694",
"ah c #b4c6cc",
"ai c #004eac",
"aj c #f45e00",
"ak c #5472ac",
"al c #ffca00",
"am c #14268c",
"an c #0c4eac",
"ao c #ffde00",
"ap c #0062c4",
"aq c #0c228c",
"ar c #f4820c",
"as c #ec6a14",
"at c #0052b4",
"au c #0c2a94",
"av c #005abc",
"aw c #142284",
"ax c #f4760c",
"ay c #0c52b4",
"az c #143a9c",
"aA c #142a8c",
"aB c #f44e0c",
"aC c #2c429c",
"aD c #141a84",
"aE c #0c369c",
"aF c #a4c2d4",
"aG c #0076d4",
"aH c #0c3ea4",
"aI c #006ecc",
"aJ c #0c1684",
"aK c #007edc",
"aL c #0c66c4",
"aM c #14369c",
"aN c #0c5ebc",
"aO c #000000",
"aP c #000000",
"aQ c #000000",
"aR c #000000",
"aS c #000000",
"aT c #000000",
"aU c #000000",
"aV c #000000",
"aW c #000000",
"aX c #000000",
"aY c #000000",
"aZ c #000000",
"a0 c #000000",
"a1 c #000000",
"a2 c #000000",
"a3 c #000000",
"a4 c #000000",
"a5 c #000000",
"a6 c #000000",
"a7 c #000000",
"a8 c #000000",
/* pixels */
".I.I.I.I.I.I.I.I.I.I.I.I.I.I.I.I.I.I.I.I.I.I.I.I.I.I.I.I.I.I.I.I",
".I.I.I.I.I.I.I.I.I.I.I.I.I.I.I.I.I.I.I.I.I.I.I.I.I.I``````````.I",
".I.I.I.I.I.I.I.I.I.I.I.I.I.I.I.I.I.I.I.I.I.I.I.I.I#q#q#q#q#q``.I",
".I.I.I.I.5`3`p#f`B#n.3`F#e.7.A`raF.Y.vahah#G#G#G.I#q`Q`Q`Q#q``.I",
".I.I.I.I`UaEaH`u`uaE`x#0`h.1.1au.1`h`ZaEaz#8#X.B`P#q`Q`Q`Q#q``.I",
".I.I.I#o#N.Z`4`4`4`4`J.R`4`4`4`4.Z.wau`J.Q`d.2avaH#q`Q`Q`Q#q``.I",
".I.I.I#Q.S`4`4`4`4`4#5aE`4`4`4`4`4.w`h`4`4`4`4`4#7#q#q#q#q#q.I.I",
".I.I.I#2aH`4`4`4`4`4#7`a`4`4`4`4`4.CaE`4`4`4`4`4.#.M`4`4`4`4.Q#6",
".I.I.I`E`h#7a`.`aL#Y#Xan`.`.#4#4`4#5.0`4`4`4`4`4.#an`4`4`4`4.Q#6",
".I.I.I`i`uad`a.0aE`h`Zaq.R`x`haE`u`h`x.M.##7aN.`adad.Z`4#4#4.Q#6",
".I.I#G..#Y`4`4`4`4`4`x`J`4`t#Y.Q`d`aaE`m`7ad`a.0.R.R.1`x.R.1`haw",
".I.I.g`xaG`4`4`4`4#4aJ`4`4`4`4`4#4.#ai`4`4`4`4`4anai`4`4`4`t.2..",
".I.I#daE`4`4`4`4`4`t.R`4`4`4`4`4#4.Mat`4`4`4`4`4.M`m`4`4`4`4.2.b",
".I.IakaE`J`t`4`4`4.``h`4`4`4`4`4#4`a`z`4`4`4`4`4.Mat`4`4`4`4.Q.b",
".I.I#EauaE`h.1.1`haAam`aad`7ai.W.2`hataI`taGaGaGadat`4`4`4`4.Qaz",
".I.I`R`d#4#4#4`4aIae#D#H#Fab.f.6.p.qaC#T`oag#M#CaA`hadanay.d.2..",
".I#G.L`t`4`4`4`4.Z.q`8.I.I.I.I.I.I.I.I.I.I.Oaf###E`a.d.#anad`aaw",
".I#`.R`4`4`4`4`4aG`w`M.I.I.I.I.I.I.I.I.I.I.I.I.I.pat`4`4`4`4.QaM",
".I.haE`4`4`4`4`4`4.D.I.I#g#J.t#K.X`W.H`K#g.I.I.I#L.W`4`4`4`4.Qaz",
".I.z`a`4`4`4`4`4aI#R.I#b`V.m#I#m`2.8#w`l#y#W.I.I`D.W`4`4`4`4.Qaz",
".I`o`h.M.#.W`z.2`6`C#.`n#v.T.U#u#u#u#u#Aalax.n`5ac`z`4`4`4`4.Qaz",
".IaAai.d.#anad`aaA#h`k.E#u.s.T#u#u#u#u.y#uao#t.J#E`z`4`4`4`4.Qaz",
"`X#0`4`4`4`4`4`4#6`b#u#u#uaj.r#u#u#u.P#x#u#u#u`1aw`x.S`u.0`aadaA",
"`H.R`4`4`4`4`4aK.c`v#u#u#u.i#v#u#u#u.ja.#u#u#u#u.u.2`t#Y.Q`d`zaA",
"`SaE`4`4`4`4`4aKaa`c#u#u#u.y.P#u#u#u#a.e#u#u#u#u.uap`4`4`4`4.Q#8",
"#B`7`4`4`4`4`4aK.D`s#u`Oar#P.a`e`Gas`AaBal#u#u#u#1ap`4`4`4`4.Q#8",
"`i`z`4`4`4`4`4aI.K`g.r#p#l#U.l`y#Z#V#Sa#.V`j#s#u.u.Q`4`4`4`4.Q#8",
"am`Z`f.R`x.1`h.1.4`Y#i.x.I.I.I.I.I.I.I.I#j#r#3#s.u.Q`4`4`4`4.Q#8",
"#O.G.N`L#k#c.k#z`#`K#g.I.I.I.I.I.I.I.I.I.I#G`q.m`0`uai.W`daI`t`I",
".I.I.I.I.I.I.I.I.I.I.I.I.I.I.I.I.I.I.I.I.I.I.I.o.F`TawaD.D`N`N.M",
".I.I.I.I.I.I.I.I.I.I.I.I.I.I.I.I.I.I.I.I.I.I.I.I.I.I.I.I.I.I.I.I",
".I.I.I.I.I.I.I.I.I.I.I.I.I.I.I.I.I.I.I.I.I.I.I.I.I.I.I.I.I.I.I.I"
};
