/* XPM */
static char *xcluster_xpm[] = {
/* width height num_colors chars_per_pixel */
"    32    32      256            2",
/* colors */
"`` c #c1c1c1",
"`. c #bcbfc1",
"`# c #a6b8c5",
"`a c #ffff00",
"`b c #95b3c8",
"`c c #60a3d2",
"`d c #3d98d8",
"`e c #0487e2",
"`f c #0085e3",
"`g c #1a8dde",
"`h c #2b93db",
"`i c #72a8cf",
"`j c #83aecb",
"`k c #158cdf",
"`l c #006ebb",
"`m c #007fd9",
"`n c #0080db",
"`o c #0084e1",
"`p c #0083e0",
"`q c #0071c1",
"`r c #003d68",
"`s c #72a0c1",
"`t c #006bb6",
"`u c #005fa2",
"`v c #00548f",
"`w c #004474",
"`x c #004b80",
"`y c #005b9b",
"`z c #006ab5",
"`A c #006db9",
"`B c #0084e2",
"`C c #0076c9",
"`D c #005d9f",
"`E c #00406d",
"`F c #4a5e6c",
"`G c #bcbdbd",
"`H c #157cc4",
"`I c #0062a7",
"`J c #00528c",
"`K c #00406c",
"`L c #003a64",
"`M c #003962",
"`N c #003a62",
"`O c #003e69",
"`P c #00487b",
"`Q c #0084e0",
"`R c #007dd6",
"`S c #0072c3",
"`T c #005ea0",
"`U c #275a7e",
"`V c #609dc8",
"`W c #0075c7",
"`X c #0063a9",
"`Y c #004b81",
"`Z c #003b64",
"`0 c #003860",
"`1 c #00375e",
"`2 c #00538e",
"`3 c #007acf",
"`4 c #007ad0",
"`5 c #006ab4",
"`6 c #839dae",
"`7 c #047fd5",
"`8 c #0078cc",
".` c #006dba",
".. c #005998",
".# c #00497d",
".a c #00416e",
".b c #003b65",
".c c #00355b",
".d c #003459",
".e c #004372",
".f c #0070bf",
".g c #0074c6",
".h c #839eb1",
".i c #72a7cc",
".j c #0080d9",
".k c #0079cd",
".l c #006fbe",
".m c #005590",
".n c #003e6a",
".o c #003961",
".p c #00385f",
".q c #00365c",
".r c #003458",
".s c #72a0c0",
".t c #a6b1b8",
".u c #006bb7",
".v c #0082de",
".w c #007bd1",
".x c #0065ad",
".y c #005089",
".z c #004576",
".A c #00365d",
".B c #003357",
".C c #3d7daa",
".D c #60829a",
".E c #004677",
".F c #0180d8",
".G c #0185e2",
".H c #005795",
".I c #00528b",
".J c #004e84",
".K c #003a63",
".L c #003256",
".M c #003154",
".N c #04375a",
".O c #87a0b2",
".P c #bdbdbd",
".Q c #a2a2a2",
".R c #295a7c",
".S c #003d67",
".T c #00426f",
".U c #0992f1",
".V c #0289e7",
".W c #006cb7",
".X c #005692",
".Y c #00528d",
".Z c #004d83",
".0 c #00487a",
".1 c #004270",
".2 c #00355a",
".3 c #002f51",
".4 c #002e4f",
".5 c #274b64",
".6 c #bcbdbe",
".7 c #b1b1b1",
".8 c #8a8a8a",
"#` c #6f6f6f",
"#. c #606060",
"## c #064c7d",
"#a c #00375d",
"#b c #095b8e",
"#c c #15a0f7",
"#d c #088ae3",
"#e c #005a9a",
"#f c #00538d",
"#g c #00477a",
"#h c #004271",
"#i c #002e4e",
"#j c #002b4a",
"#k c #002845",
"#l c #959da4",
"#m c #636363",
"#n c #5d6061",
"#o c #034f84",
"#p c #004778",
"#q c #1673a2",
"#r c #21adf8",
"#s c #0778c7",
"#t c #0170bd",
"#u c #0065ab",
"#v c #004e85",
"#w c #00497c",
"#x c #003255",
"#y c #002947",
"#z c #274459",
"#A c #999999",
"#B c #5a5f63",
"#C c #004c81",
"#D c #004473",
"#E c #0b5b88",
"#F c #189fed",
"#G c #0996f8",
"#H c #018aea",
"#I c #0081dc",
"#J c #0064aa",
"#K c #042b46",
"#L c #a5a5a5",
"#M c #5d6062",
"#N c #0f5281",
"#O c #004e86",
"#P c #004b7f",
"#Q c #00416f",
"#R c #065281",
"#S c #0c9bf9",
"#T c #0290f4",
"#U c #0088e8",
"#V c #0083df",
"#W c #007bd2",
"#X c #006fbd",
"#Y c #0060a3",
"#Z c #155886",
"#0 c #abacac",
"#1 c #969696",
"#2 c #5d5f60",
"#3 c #425b6c",
"#4 c #2a536f",
"#5 c #12496f",
"#6 c #033e67",
"#7 c #014b7f",
"#8 c #028cec",
"a` c #008ff3",
"a. c #0089ea",
"a# c #0079ce",
"aa c #277cb8",
"ab c #abb5bd",
"ac c #7e7e7e",
"ad c #42535f",
"ae c #2a4a61",
"af c #0f3e5f",
"ag c #0077cb",
"ah c #008ef2",
"ai c #008aeb",
"aj c #1582cf",
"ak c #abb6bd",
"al c #626364",
"am c #4c5962",
"an c #354f61",
"ao c #0e72b8",
"ap c #3b8ec9",
"aq c #aeaeae",
"ar c #bababa",
"as c #007236",
"at c #000000",
"au c #000000",
"av c #000000",
"aw c #000000",
"ax c #000000",
"ay c #000000",
"az c #000000",
"aA c #000000",
"aB c #000000",
"aC c #000000",
"aD c #000000",
"aE c #000000",
"aF c #000000",
"aG c #000000",
"aH c #000000",
"aI c #000000",
"aJ c #000000",
"aK c #000000",
"aL c #000000",
"aM c #000000",
"aN c #000000",
"aO c #000000",
"aP c #000000",
"aQ c #000000",
"aR c #000000",
"aS c #000000",
"aT c #000000",
"aU c #000000",
"aV c #000000",
"aW c #000000",
"aX c #000000",
"aY c #000000",
"aZ c #000000",
"a0 c #000000",
"a1 c #000000",
"a2 c #000000",
"a3 c #000000",
"a4 c #000000",
"a5 c #000000",
"a6 c #000000",
"a7 c #000000",
"a8 c #000000",
/* pixels */
"````````````````````````````````````````````````````````````````",
"`````````````````````````.`#`a`a`.``````````````````````````````",
"`````````````````.`b`c`d`e`f`a`a`e`g`h`c`i`j`.``````````````````",
"```````````a`a`d`k`f`f`f`f`f`f`f`f`f`f`f`f`f`e`g`a`a````````````",
"```````````a`a`l`m`n`o`f`f`f`f`f`f`f`f`f`f`p`q`r`a`a````````````",
"```````````s`t`u`v`w`x`y`z`A`o`f`f`f`f`B`C`D`E`F`G``````````````",
"```````````.`H`A`I`J`K`L`M`N`O`P`a`a`Q`R`S`T`U`G````````````````",
"`````````````V`W`A`X`Y`E`Z`N`0`1`a`a`2`3`4`5`6``````````````````",
"`````````````.`7`8.`...#.a.b`M`0`1.c.d.e.f.g.h``````````````````",
"``````````````.i.j.k.l.m`x`w.n.o.p.q.c.r`Z.`.s``````````````````",
"``````````````.t.u.v.w.x.y`x.z`r`N.A.c.d.B`1.C``````````````````",
"``````````````.D.E.F.G`8.H.I.J.E`E.K.q.B.L.M.N.O````````````````",
"``````````.P.Q.R.S.T.U.V.W.X.Y.Z.0.1.K.2.M.3.4.5.6``````````````",
"``````.7.8#`#.##.e#a#b#c#d#e.H#f.Z#g#h.K.c#i#j#k#l``````````````",
"``.7.8#m#.#.#n#o#p.b.q#q#r#s#t#u`v#v#w#h`M#x#y#z.6``````````````",
"``#A#m#.#.#.#B`J#C#D.o.p#E#F#G#H#I`l#J.X`P.2#K`G````````````````",
"````#L#`#.#.#M#N#O#P#Q`M`1#R#S#T#U#V#W#X#Y#Z#0``````````````````",
"``````.P#1#`#.#2#3#4#5#6.K`1#7#8a`a.`oa#aaab````````````````````",
"``````````.P.Q.Qac#m#.#2adaeaf#Qagahaiajak``````````````````````",
"``````````````````.7.Q.8acacalamanaoap`.````````````````````````",
"``````````````````````````````.Paqar.P``````````````````````````",
"``````````````````asasasasas````````````````````````````````````",
"````````````````asas``````asas``````````````````````````````````",
"````````````````asas````````````````````````````````````````````",
"````````````````asas````````````````````````````````````````````",
"````````````````asas````````````````````````````````````````````",
"````````````````asas````````````````````````````````````````````",
"````````````````asas````````````````````````````````````````````",
"````````````````asas``````asas``````````````````````````````````",
"``````````````````asasasasas````````````````````````````````````",
"````````````````````````````````````````````````````````````````",
"````````````````````````````````````````````````````````````````"
};
