/* XPM */
static char *xcvcurve_xpm[] = {
/* width height num_colors chars_per_pixel */
"    32    32      256            2",
/* colors */
"`` c #c1c1c1",
"`. c #bbafaf",
"`# c #963434",
"`a c #8b1111",
"`b c #860000",
"`c c #8c1111",
"`d c #870000",
"`e c #a15757",
"`f c #a25757",
"`g c #880000",
"`h c #a76969",
"`i c #ab7a7a",
"`j c #912323",
"`k c #890000",
"`l c #9b4646",
"`m c #afafb9",
"`n c #8a8aa1",
"`o c #801114",
"`p c #914751",
"`q c #9d9db1",
"`r c #afafb8",
"`s c #b69d9d",
"`t c #676797",
"`u c #0e0e65",
"`v c #6a0108",
"`w c #51062e",
"`x c #121272",
"`y c #171781",
"`z c #131379",
"`A c #191989",
"`B c #3c3c98",
"`C c #4d4da0",
"`D c #7070ad",
"`E c #8e8eb0",
"`F c #998d93",
"`G c #776b78",
"`H c #8e1515",
"`I c #7f353a",
"`J c #757583",
"`K c #505069",
"`L c #3e3e5c",
"`M c #51516c",
"`N c #2d2d58",
"`O c #1b1b51",
"`P c #18186c",
"`Q c #1a1a7e",
"`R c #40409f",
"`S c #9191b7",
"`T c #b18c8c",
"`U c #9d4646",
"`V c #9b9ba0",
"`W c #767685",
"`X c #2d2d5b",
"`Y c #161675",
"`Z c #3e3e99",
"`0 c #ac7a7a",
"`1 c #3d3d58",
"`2 c #151574",
"`3 c #68689a",
"`4 c #a86969",
"`5 c #ad7a7a",
"`6 c #9a9a9e",
"`7 c #0a0a4c",
"`8 c #575794",
".` c #9c9ca7",
".. c #0d0d64",
".# c #55558d",
".a c #aeaeb2",
".b c #303073",
".c c #0f0f6f",
".d c #89899a",
".e c #b79d9d",
".f c #bcafaf",
".g c #9c4646",
".h c #8b8ba8",
".i c #33337f",
".j c #101070",
".k c #40406f",
".l c #a35757",
".m c #8a0000",
".n c #b28c8c",
".o c #993434",
".p c #973434",
".q c #79799f",
".r c #46468f",
".s c #252585",
".t c #101072",
".u c #1e1e61",
".v c #76768b",
".w c #942323",
".x c #8f1111",
".y c #8d1111",
".z c #9c9cac",
".A c #68689b",
".B c #0f0f71",
".C c #0f0f6e",
".D c #0a0a51",
".E c #2c2c55",
".F c #767689",
".G c #aeaeb1",
".H c #9d9dae",
".I c #0d0d6a",
".J c #0c0c5e",
".K c #3f3f65",
".L c #897d8f",
".M c #0e0e6c",
".N c #1d1d5e",
".O c #9b9ba6",
".P c #430630",
".Q c #0d0d67",
".R c #9b9ba5",
".S c #2d2d70",
".T c #434382",
".U c #1d1d63",
".V c #434384",
".W c #414175",
".X c #333387",
".Y c #9d9daf",
".Z c #725966",
".0 c #11116e",
".1 c #3e3ea0",
".2 c #8b8ba7",
".3 c #9e4646",
".4 c #64647d",
".5 c #171770",
".6 c #232394",
".7 c #6a6ab9",
".8 c #7b7ba5",
"#` c #afafba",
"#. c #922323",
"## c #9c9ca8",
"#a c #40406d",
"#b c #29297c",
"#c c #1a1a85",
"#d c #2727a4",
"#e c #3333a4",
"#f c #2d2d99",
"#g c #5656b1",
"#h c #5050a6",
"#i c #5353a8",
"#j c #5d5d9e",
"#k c #5c5c9c",
"#l c #5b4e78",
"#m c #6c0108",
"#n c #aeaeb0",
"#o c #767686",
"#p c #646482",
"#q c #525276",
"#r c #2e2e60",
"#s c #1e1e5f",
"#t c #1d1d65",
"#u c #161671",
"#v c #141471",
"#w c #222288",
"#x c #24248d",
"#y c #73081f",
"#z c #9e9ea3",
"#A c #901515",
"#B c #8e1111",
"#C c #983434",
"#D c #000000",
"#E c #000000",
"#F c #000000",
"#G c #000000",
"#H c #000000",
"#I c #000000",
"#J c #000000",
"#K c #000000",
"#L c #000000",
"#M c #000000",
"#N c #000000",
"#O c #000000",
"#P c #000000",
"#Q c #000000",
"#R c #000000",
"#S c #000000",
"#T c #000000",
"#U c #000000",
"#V c #000000",
"#W c #000000",
"#X c #000000",
"#Y c #000000",
"#Z c #000000",
"#0 c #000000",
"#1 c #000000",
"#2 c #000000",
"#3 c #000000",
"#4 c #000000",
"#5 c #000000",
"#6 c #000000",
"#7 c #000000",
"#8 c #000000",
"a` c #000000",
"a. c #000000",
"a# c #000000",
"aa c #000000",
"ab c #000000",
"ac c #000000",
"ad c #000000",
"ae c #000000",
"af c #000000",
"ag c #000000",
"ah c #000000",
"ai c #000000",
"aj c #000000",
"ak c #000000",
"al c #000000",
"am c #000000",
"an c #000000",
"ao c #000000",
"ap c #000000",
"aq c #000000",
"ar c #000000",
"as c #000000",
"at c #000000",
"au c #000000",
"av c #000000",
"aw c #000000",
"ax c #000000",
"ay c #000000",
"az c #000000",
"aA c #000000",
"aB c #000000",
"aC c #000000",
"aD c #000000",
"aE c #000000",
"aF c #000000",
"aG c #000000",
"aH c #000000",
"aI c #000000",
"aJ c #000000",
"aK c #000000",
"aL c #000000",
"aM c #000000",
"aN c #000000",
"aO c #000000",
"aP c #000000",
"aQ c #000000",
"aR c #000000",
"aS c #000000",
"aT c #000000",
"aU c #000000",
"aV c #000000",
"aW c #000000",
"aX c #000000",
"aY c #000000",
"aZ c #000000",
"a0 c #000000",
"a1 c #000000",
"a2 c #000000",
"a3 c #000000",
"a4 c #000000",
"a5 c #000000",
"a6 c #000000",
"a7 c #000000",
"a8 c #000000",
/* pixels */
"````````````````````````````````````````````````````````````````",
"````````````````````````````````````````````````````````````````",
"```````````````````````````````````````````````.`.```````.`.````",
"```````#`a`a`b`c`d`e`````````````````````````f`g`.`````h`g`.````",
"```````#`#`i`i`i`j`e`````````````````````````f`k`.`````f`g`.````",
"```````#`l```m`n`o`p`q`m`r```````````````````h`k`s`````f`k`.````",
"```````#`l```t`u`v`w`x`y`z`A`B`C`D`E`m```````f`k`s`````f`k`.````",
"```````#`e`.`F`G`H`I`J`K`L`M`N`O`P`Q`R`S`m```f`k`T`s`s`U`k`.````",
"```````#`d`d`d`d`g`h`````````````V`W`X`Y`Z`r`f`k`k`k`k`k`k`.````",
"```````.`i`T`T`0`T`````````````````````1`2`3`T`4`5`h`0`h`0``````",
"```````````````````````````````````````6`7`8````````````````````",
"``````````````````````````````````````.`...#````````````````````",
"```````.`.`````````.````````````````.a.b.c.d``.e``````.f.e``````",
"```````c.g`.```0`g`h``````````````.h.i.j.k``.l.m.n````.o.o``````",
"```````T`c.p`0`g`U``````````.q.r.s.t.u.v````.e.w.x`5.w.w.n``````",
"`````````0.y`g.p``````.z.A.B.C.D.E.F.G````````.f.o.m.x.f````````",
"`````````0`g`g.p`.``.H.I.J.K`W````````````````.e.w.m.x.n````````",
"```````0`d.g`0.y`U.L.M.N.O``````````````````.f.w.m.e.o.m`5``````",
"```````c.g`````T.y.P.Q.R`````````````````````4.m.f``.e.o.o``````",
"```````.`````````..S.T``````````````````````.f.f````````.f``````",
"``````````````````.U.V``````````````````````````````````````````",
"``````````````````.W.X.Y````````````````````````````````````````",
"```````0`s```````f.Z.0.1.2``````````````````.l.w.f````.o.3``````",
"``````.p`c`.``.g`g`..4.5.6.7.8#`.z``````````.e.x.w.n.o.m.n``````",
"```````.#.#..g`g`T````###a#b#c#d#e#f#g#h#i#j#k#l#m.m.m`5````````",
"`````````s`d`d`e``````````#n#o#p#q#r#s#t#u#v#w#x#y.m.w.f````````",
"````````.g`d#..y`.````````````````````````#n#z#A.m`4.w.o.f``````",
"``````.g`d`0`.#.`g`T`````````````````````````5.m`5``.e#B#C``````",
"``````.g`T``````.p`T`````````````````````````.`s`````````s``````",
"````````````````````````````````````````````````````````````````",
"````````````````````````````````````````````````````````````````",
"````````````````````````````````````````````````````````````````"
};
