/* XPM */
static char *xepcurve_xpm[] = {
/* width height num_colors chars_per_pixel */
"    32    32      256            2",
/* colors */
"`` c #c1c1c1",
"`. c #8e1111",
"`# c #ac7a7a",
"`a c #b18c8c",
"`b c #9c4646",
"`c c #880000",
"`d c #afafb8",
"`e c #bbafaf",
"`f c #890000",
"`g c #b69d9d",
"`h c #686899",
"`i c #0e0e6c",
"`j c #151578",
"`k c #6c6ca5",
"`l c #9e9eb4",
"`m c #973434",
"`n c #6d0215",
"`o c #6c010b",
"`p c #59010e",
"`q c #303068",
"`r c #2e2e98",
"`s c #9e9eb3",
"`t c #b28c8c",
"`u c #8f6a71",
"`v c #7b0006",
"`w c #a25757",
"`x c #7b2430",
"`y c #80353c",
"`z c #9d4646",
"`A c #9b9ba0",
"`B c #212165",
"`C c #3c3c96",
"`D c #aeaeb7",
"`E c #888893",
"`F c #7b0007",
"`G c #a86969",
"`H c #4e2950",
"`I c #636379",
"`J c #16167a",
"`K c #8e8eaf",
"`L c #9b9ba2",
"`M c #7b0108",
"`N c #aeaeb6",
"`O c #290b54",
"`P c #2f2f69",
"`Q c #393991",
"`R c #767687",
"`S c #380a47",
"`T c #8f8fa4",
"`U c #65658a",
"`V c #1b0c60",
"`W c #91464a",
"`X c #656583",
"`Y c #280f61",
"`Z c #ad7a7a",
"`0 c #0e0e68",
"`1 c #9c9cae",
"`2 c #545483",
"`3 c #0c0c5c",
"`4 c #9b9ba4",
"`5 c #270842",
"`6 c #8f1111",
"`7 c #64647f",
"`8 c #0e0e6e",
".` c #9c9ca9",
".. c #1e1e66",
".# c #303075",
".a c #3c163b",
".b c #656586",
".c c #0e0e6b",
".d c #0c0c62",
".e c #545485",
".f c #702532",
".g c #53537e",
".h c #202078",
".i c #66668b",
".j c #8a0000",
".k c #7f010a",
".l c #942323",
".m c #2e2e65",
".n c #444487",
".o c #77778e",
".p c #0e0e70",
".q c #8a8a9d",
".r c #7d020e",
".s c #68689a",
".t c #9b9b9f",
".u c #0b0b56",
".v c #676796",
".w c #787895",
".x c #9c9ca7",
".y c #202076",
".z c #888895",
".A c #0d0d67",
".B c #79799c",
".C c #656584",
".D c #0e0e6d",
".E c #0f0f71",
".F c #777791",
".G c #8a8a9e",
".H c #0d0d68",
".I c #0d0d62",
".J c #7979a0",
".K c #a35757",
".L c #5b284f",
".M c #1f1f6f",
".N c #8b5966",
".O c #4a1848",
".P c #adadaf",
".Q c #414176",
".R c #22227f",
".S c #45073c",
".T c #676792",
".U c #5a031c",
".V c #898999",
".W c #0d0d65",
".X c #575797",
".Y c #993434",
".Z c #51062f",
".0 c #aeaeb5",
".1 c #6a1323",
".2 c #40406b",
".3 c #121278",
".4 c #80283f",
".5 c #a66969",
".6 c #922323",
".7 c #983434",
".8 c #3f3f63",
"#` c #3c1252",
"#. c #4e1c68",
"## c #45073b",
"#a c #7b0003",
"#b c #8d1111",
"#c c #aeaeb0",
"#d c #77778c",
"#e c #9b9ba1",
"#f c #932323",
"#g c #000000",
"#h c #000000",
"#i c #000000",
"#j c #000000",
"#k c #000000",
"#l c #000000",
"#m c #000000",
"#n c #000000",
"#o c #000000",
"#p c #000000",
"#q c #000000",
"#r c #000000",
"#s c #000000",
"#t c #000000",
"#u c #000000",
"#v c #000000",
"#w c #000000",
"#x c #000000",
"#y c #000000",
"#z c #000000",
"#A c #000000",
"#B c #000000",
"#C c #000000",
"#D c #000000",
"#E c #000000",
"#F c #000000",
"#G c #000000",
"#H c #000000",
"#I c #000000",
"#J c #000000",
"#K c #000000",
"#L c #000000",
"#M c #000000",
"#N c #000000",
"#O c #000000",
"#P c #000000",
"#Q c #000000",
"#R c #000000",
"#S c #000000",
"#T c #000000",
"#U c #000000",
"#V c #000000",
"#W c #000000",
"#X c #000000",
"#Y c #000000",
"#Z c #000000",
"#0 c #000000",
"#1 c #000000",
"#2 c #000000",
"#3 c #000000",
"#4 c #000000",
"#5 c #000000",
"#6 c #000000",
"#7 c #000000",
"#8 c #000000",
"a` c #000000",
"a. c #000000",
"a# c #000000",
"aa c #000000",
"ab c #000000",
"ac c #000000",
"ad c #000000",
"ae c #000000",
"af c #000000",
"ag c #000000",
"ah c #000000",
"ai c #000000",
"aj c #000000",
"ak c #000000",
"al c #000000",
"am c #000000",
"an c #000000",
"ao c #000000",
"ap c #000000",
"aq c #000000",
"ar c #000000",
"as c #000000",
"at c #000000",
"au c #000000",
"av c #000000",
"aw c #000000",
"ax c #000000",
"ay c #000000",
"az c #000000",
"aA c #000000",
"aB c #000000",
"aC c #000000",
"aD c #000000",
"aE c #000000",
"aF c #000000",
"aG c #000000",
"aH c #000000",
"aI c #000000",
"aJ c #000000",
"aK c #000000",
"aL c #000000",
"aM c #000000",
"aN c #000000",
"aO c #000000",
"aP c #000000",
"aQ c #000000",
"aR c #000000",
"aS c #000000",
"aT c #000000",
"aU c #000000",
"aV c #000000",
"aW c #000000",
"aX c #000000",
"aY c #000000",
"aZ c #000000",
"a0 c #000000",
"a1 c #000000",
"a2 c #000000",
"a3 c #000000",
"a4 c #000000",
"a5 c #000000",
"a6 c #000000",
"a7 c #000000",
"a8 c #000000",
/* pixels */
"````````````````````````````````````````````````````````````````",
"````````````````````````````````````````````````````````````````",
"````````````````````````````````````````````````````````````````",
"````````````````````````````````````````````````````````````````",
"```````````````````````````````````````````````````.`#``````````",
"`````````````a`b```````````````````````````````````.`#``````````",
"`````````````#`c`````d`````````````````````````e`e`f`#`e`e`e````",
"`````````````g`c`h`i`j`k`l```````````````````.`f`f`f`f`f`f`#````",
"```````e`b`m`m`c`n`o`p`q`r`s`````````````````t`t`u`v`w`g`g`e````",
"```````e`b`w`x`c`y`z`z`A`B`C`D```````````````````E`F`G``````````",
"`````````````H`c`````````I`J`K```````````````````L`M`G``````````",
"```````````N`O`c```````````P`Q```````````````````R`S`T``````````",
"```````````U`V`W```````````X`Y`Z`````````````````I`0`1``````````",
"```````````2`3`````````````4`5`6`````````````````7`8.```````````",
"``````````...#``````````````.a`6````````````````.b.c````````````",
"``````````.d.e`````````g`Z`G.f`6`G`G`Z``````````.g.h````````````",
"````````.``8.i`````````a`6`6`6.j.k`6.l``````````.m.n````````````",
"````````.o.p.q```````````````Z.r.s````````````.t.u.v````````````",
"````````.w`i.x```````````````t.j.y````````````.z.A.B````````````",
"````````.C.D`4```````````````Z.l.E`d``````````.F.c.G````````````",
"`````````U.H``````````````````.x.I.J````````.K.L.M``````````````",
"````````.N.O``````````````````.P.Q.R`d``````.l.S.T``````````````",
"`````````b.U````````````````````.V.W.X``````.Y.Z.0``````````````",
"`````````m.1``````````````````````.2.3.4`6`6.j.j`6`6`Z``````````",
"``.5`b`b`c.6.6.7`#``````````````````.8#`#.###a.Y`Z`G`t``````````",
"``.5`b`b.6#b`b`z`#````````````````````#c#d#e.Y.K````````````````",
"`````````b`b````````````````````````````````#f`z````````````````",
"`````````b`b`````````````````````````````````#`e````````````````",
"````````.5`a````````````````````````````````````````````````````",
"````````````````````````````````````````````````````````````````",
"````````````````````````````````````````````````````````````````",
"````````````````````````````````````````````````````````````````"
};
