/* XPM */
static char *xloft_xpm[] = {
/* width height num_colors chars_per_pixel */
"    32    32      256            2",
/* colors */
"`` c #c1c1c1",
"`. c #9d9dae",
"`# c #8c8cb2",
"`a c #8c8cae",
"`b c #7373be",
"`c c #3333b0",
"`d c #1438b4",
"`e c #2d69c7",
"`f c #9db5c6",
"`g c #a8a8ba",
"`h c #5252b8",
"`i c #133fb7",
"`j c #0466c8",
"`k c #0275d2",
"`l c #0084e0",
"`m c #238fdb",
"`n c #6b8fbb",
"`o c #484899",
"`p c #1d34b1",
"`q c #0084e1",
"`r c #0085e2",
"`s c #0953bf",
"`t c #1633b3",
"`u c #1423a0",
"`v c #1b63c7",
"`w c #579fd2",
"`x c #afbbc3",
"`y c #7a7aa8",
"`z c #0e2c9d",
"`A c #007dd5",
"`B c #0081dc",
"`C c #0083df",
"`D c #14229a",
"`E c #112fa3",
"`F c #0e3dac",
"`G c #0082de",
"`H c #9d9db3",
"`I c #afafbd",
"`J c #afafb6",
"`K c #10107f",
"`L c #0162b2",
"`M c #0079ce",
"`N c #101e85",
"`O c #3644cb",
"`P c #1261c8",
"`Q c #007fd9",
"`R c #0081db",
"`S c #0082dd",
"`T c #0083e0",
"`U c #036ac9",
"`V c #1322a3",
"`W c #12209c",
"`X c #7ca0c4",
"`Y c #79799c",
"`Z c #09308b",
"`0 c #0066ae",
"`1 c #0070bf",
"`2 c #09328d",
"`3 c #026bc4",
"`4 c #007ed6",
"`5 c #0083de",
"`6 c #0087e5",
"`7 c #008aeb",
"`8 c #008df0",
".` c #0845a6",
".. c #1d38bd",
".# c #181898",
".a c #0752bc",
".b c #0279db",
".c c #1189de",
".d c #8cb0c9",
".e c #043c7f",
".f c #005a9a",
".g c #034f99",
".h c #0f1e8e",
".i c #006fbd",
".j c #008bed",
".k c #0093fa",
".l c #0186eb",
".m c #1536ac",
".n c #2e2ebc",
".o c #0090f5",
".p c #008aec",
".q c #0086e5",
".r c #68689b",
".s c #09206f",
".t c #004f87",
".u c #0a247d",
".v c #044b99",
".w c #0069b3",
".x c #0076ca",
".y c #0091f7",
".z c #1a2bb1",
".A c #1337a6",
".B c #038fec",
".C c #019cff",
".D c #0199ff",
".E c #008aea",
".F c #0085e3",
".G c #787895",
".H c #04275d",
".I c #013a6b",
".J c #0d0d6a",
".K c #00538d",
".L c #0063a8",
".M c #0074c5",
".N c #0183e7",
".O c #102096",
".P c #102191",
".Q c #03a0ff",
".R c #0080da",
".S c #007cd3",
".T c #007dd6",
".U c #0a227a",
".V c #2331c0",
".W c #898989",
".X c #112757",
".Y c #022550",
".Z c #004a7f",
".0 c #005b9b",
".1 c #006ab5",
".2 c #007ed7",
".3 c #0096fe",
".4 c #0073c4",
".5 c #053c88",
".6 c #69a5cf",
".7 c #9f9f9f",
".8 c #737373",
"#` c #434359",
"#. c #041d4b",
"## c #081b61",
"#a c #003f6c",
"#b c #005088",
"#c c #0065ac",
"#d c #005794",
"#e c #0f0f74",
"#f c #0458b3",
"#g c #008ef2",
"#h c #0088e7",
"#i c #007bd1",
"#j c #0067b0",
"#k c #014a81",
"#l c #0c0c5d",
"#m c #0a2b85",
"#n c #006dba",
"#o c #3d3d58",
"#p c #161b5d",
"#q c #00375d",
"#r c #004677",
"#s c #0d1b7f",
"#t c #0087e7",
"#u c #032c60",
"#v c #004d82",
"#w c #005998",
"#x c #0076cf",
"#y c #35359b",
"#z c #b5b5b5",
"#A c #212153",
"#B c #022b55",
"#C c #00375e",
"#D c #071d5f",
"#E c #007ad0",
"#F c #0086e4",
"#G c #0061a6",
"#H c #04326e",
"#I c #0b1469",
"#J c #003b65",
"#K c #004271",
"#L c #0060a3",
"#M c #0072c2",
"#N c #006fc0",
"#O c #3131bf",
"#P c #1f2a58",
"#Q c #012c55",
"#R c #00365c",
"#S c #062260",
"#T c #083087",
"#U c #0065ad",
"#V c #052664",
"#W c #081d65",
"#X c #003459",
"#Y c #003c66",
"#Z c #00487b",
"#0 c #2424a5",
"#1 c #58589c",
"#2 c #373c5b",
"#3 c #19405c",
"#4 c #051f56",
"#5 c #0080d9",
"#6 c #09094a",
"#7 c #003357",
"#8 c #003a63",
"a` c #0d0d66",
"a. c #57579d",
"a# c #414c5d",
"aa c #0b1465",
"ab c #006ab4",
"ac c #005da4",
"ad c #0b0b58",
"ae c #032b5f",
"af c #003256",
"ag c #051747",
"ah c #0e0e70",
"ai c #afafb9",
"aj c #005691",
"ak c #0159a3",
"al c #00365b",
"am c #003154",
"an c #002a4e",
"ao c #434385",
"ap c #363c57",
"aq c #26506d",
"ar c #008ff4",
"as c #091661",
"at c #00385f",
"au c #0b0b55",
"av c #8b8ba7",
"aw c #666c70",
"ax c #005997",
"ay c #0095fd",
"az c #083083",
"aA c #035eb4",
"aB c #00406e",
"aC c #003358",
"aD c #003153",
"aE c #07073c",
"aF c #1f1f6f",
"aG c #0c68a8",
"aH c #161695",
"aI c #046bd1",
"aJ c #40769b",
"aK c #064398",
"aL c #1c2db3",
"aM c #0183e8",
"aN c #0089e9",
"aO c #7979a0",
"aP c #65747f",
"aQ c #2525a0",
"aR c #031f4c",
"aS c #5a778b",
"aT c #337db1",
"aU c #454596",
"aV c #667580",
"aW c #1981c9",
"aX c #17178c",
"aY c #267fbd",
"aZ c #152f99",
"a0 c #b9b9b9",
"a1 c #3b60c4",
"a2 c #8b8baa",
"a3 c #000000",
"a4 c #000000",
"a5 c #000000",
"a6 c #000000",
"a7 c #000000",
"a8 c #000000",
/* pixels */
"````````````````````````````````````````````````````````````````",
"`````````````````````.`#````````````````````````````````````````",
"```````````````a`b`c`d`e`f``````````````````````````````````````",
"```````````g`h`i`j`k`l`l`m`n`#``````````````````````````````````",
"`````````o`p`k`q`r`q`k`s`t`u`v`w`x``````````````````````````````",
"```````y`z`A`B`C`k`D`E`F`k`G`C`C`l`l`f`H`I``````````````````````",
"`````J`K`L`M`A`N`O`P`Q`R`S`l`T`l`U`F`V`W`X``````````````````````",
"`````Y`Z`0`1`2`E`3`4`5`6`7`8.`...#.a.b`r.c.d````````````````````",
"``````.e.f.g.h.i`M`C.j.k.l.m.n.`.l.o.p.q`r.c`x``````````````````",
"````.r.s.t.u.v.w.x.q.y.b.z.A.B.C.D.o.E.F`l`T`T.r````````````````",
"````.G.H.I.J.K.L.M`r.N.O.P.B.Q.D.k.j.R.S.T.U.V`j`f``````````````",
"````.W.X.Y.s.Z.0.1.2.U.h.N.3.3.k`8`B.4.w.5.#`A`B`l.6`x``````````",
"``.7.8#`#.###a#b#c#d#e#f#g.y.o`8#h#i#j#k#l#m#n.x`Q`T`m.6`x`.````",
"``.7.8.8#o#p#q#r#d.e#s`G#t.p.j`7`S.M.L#u.J#v#w.w.M`A`B#x#m#y````",
"``#z.W.8.8#A#B#C.Z#D.u#E`B`r`6#F`B.x#G#H#I#J#K.K#L#M#N.u#O`y````",
"``````.8.8.8#P#Q#R#S#T#M`M`R`l`T.R.x#U#V#W#X#R#Y#Z.f#D#0#1``````",
"``````#z.8.8.8#2#3#4.U.L.4.S`G`C#5`M.w#6#V#X#7#7#8.Ia`a.````````",
"````````.7.8.8.8.8a#aa.tab.x.R`T`C`4acadae#Xafafafagahai````````",
"``````````#z.W.8.8.8#A.Haj.4`Q#F#h.qaka`#Kalafaman#6ao``````````",
"``````````````.7.W.8.8apaq#c`4.par`8as#m#vatafamamauav``````````",
"``````````````````.W.8.8awax`S.yayaz`KaAajaBaCaDaEaF````````````",
"````````````````````#z.W.8aG`q.l`FaHaI`7#G#Z#RaDaEao````````````",
"````````````````````````.8aJaK.#aLaM#gaN.x.0aBan#6aO````````````",
"``````````````````````#z.8aPaQ.a.E.p#h`q#E#c#kaR.J``````````````",
"````````````````````````.W.8aS`r`6#F`l.R`Mab#H.J.r``````````````",
"``````````````````````````.8.8aT`r`T`S`4`M`L.JaU````````````````",
"````````````````````````````.8aVaW`l`S.2azaX#y``````````````````",
"````````````````````````````.W.8.8aY`kaZ#OaUai``````````````````",
"``````````````````````````````.7.8a0a1`ca2``````````````````````",
"`````````````````````````````````````a`J````````````````````````",
"````````````````````````````````````````````````````````````````",
"````````````````````````````````````````````````````````````````"
};
