/* XPM */
static char *xpencil_xpm[] = {
/* width height num_colors chars_per_pixel */
"    32    32      256            2",
/* colors */
"`` c #000600",
"`. c #a4760c",
"`# c #dcae14",
"`a c #5c4200",
"`b c #b4860c",
"`c c #0c0a5c",
"`d c #b4aea4",
"`e c #74560c",
"`f c #747684",
"`g c #2c2200",
"`h c #dcb274",
"`i c #9c9264",
"`j c #b4966c",
"`k c #3c3e54",
"`l c #2c2e5c",
"`m c #2c2a4c",
"`n c #cc9a0c",
"`o c #6c6a64",
"`p c #f4ce94",
"`q c #645e5c",
"`r c #0c0a44",
"`s c #d4ae7c",
"`t c #acaa94",
"`u c #948e7c",
"`v c #34322c",
"`w c #ecb25c",
"`x c #6c665c",
"`y c #848684",
"`z c #342600",
"`A c #1c1600",
"`B c #1c1e5c",
"`C c #e4c68c",
"`D c #94928c",
"`E c #cca26c",
"`F c #f4b60c",
"`G c #bcbabc",
"`H c #2c2aac",
"`I c #b4922c",
"`J c #4c4e64",
"`K c #241e0c",
"`L c #9c9a94",
"`M c #44423c",
"`N c #acaeac",
"`O c #b4a284",
"`P c #dcaa0c",
"`Q c #54568c",
"`R c #946a0c",
"`S c #a49254",
"`T c #14126c",
"`U c #7c7a9c",
"`V c #343274",
"`W c #342a1c",
"`X c #1c1a14",
"`Y c #f4c68c",
"`Z c #9c9aa4",
"`0 c #947654",
"`1 c #bc8e0c",
"`2 c #0c0e6c",
"`3 c #24221c",
"`4 c #444274",
"`5 c #f4de9c",
"`6 c #c4c2bc",
"`7 c #8482b4",
"`8 c #ffbe0c",
".` c #646684",
".. c #846e4c",
".# c #3c2e1c",
".a c #a47e0c",
".b c #ecae0c",
".c c #bc8a0c",
".d c #6c5a2c",
".e c #7c7a94",
".f c #dcba84",
".g c #c49e6c",
".h c #343634",
".i c #dca20c",
".j c #6c6a9c",
".k c #1c1e54",
".l c #acaaa4",
".m c #241a00",
".n c #1c1e8c",
".o c #4c4e44",
".p c #b4aeb4",
".q c #2c2a1c",
".r c #8c6e44",
".s c #543e24",
".t c #b48a0c",
".u c #0c0e5c",
".v c #bcb694",
".w c #747694",
".x c #b49e7c",
".y c #2c2e6c",
".z c #d4a214",
".A c #0c0a54",
".B c #ccb67c",
".C c #8c8a94",
".D c #1c1a0c",
".E c #1c1e74",
".F c #ecc284",
".G c #d4aa64",
".H c #ffba0c",
".I c #34369c",
".J c #c4920c",
".K c #54527c",
".L c #9c9e9c",
".M c #acaebc",
".N c #bca27c",
".O c #e4aa34",
".P c #343284",
".Q c #342e24",
".R c #ffca8c",
".S c #9c9ea4",
".T c #2c261c",
".U c #444284",
".V c #ffde9c",
".W c #64669c",
".X c #ac7e0c",
".Y c #ecb60c",
".Z c #141200",
".0 c #5c420c",
".1 c #b4b29c",
".2 c #7c5e0c",
".3 c #74768c",
".4 c #e4b27c",
".5 c #ac9a64",
".6 c #44426c",
".7 c #2c2e64",
".8 c #2c2a54",
"#` c #d49e0c",
"#. c #7c6a44",
"## c #443a2c",
"#a c #a48e6c",
"#b c #54422c",
"#c c #9496ac",
"#d c #8c8aa4",
"#e c #74726c",
"#f c #ffd694",
"#g c #ecba64",
"#h c #bc9e6c",
"#i c #54526c",
"#j c #e4be84",
"#k c #6c6eac",
"#l c #cc960c",
"#m c #544e4c",
"#n c #e4aa0c",
"#o c #6c5a3c",
"#p c #3c3634",
"#q c #d4aa74",
"#r c #646254",
"#s c #ecc68c",
"#t c #ffe2a4",
"#u c #d4b27c",
"#v c #f4ba0c",
"#w c #bcbebc",
"#x c #b4a684",
"#y c #f4ca8c",
"#z c #ffc20c",
"#A c #84724c",
"#B c #ecb20c",
"#C c #ac820c",
"#D c #0c0a4c",
"#E c #acaa9c",
"#F c #1c160c",
"#G c #1c1e64",
"#H c #241e14",
"#I c #9c9a9c",
"#J c #acaeb4",
"#K c #545694",
"#L c #7c7aa4",
"#M c #34327c",
"#N c #342a24",
"#O c #1c1a1c",
"#P c #0c0e74",
"#Q c #242224",
"#R c #44427c",
"#S c #c4c2c4",
"#T c #64668c",
"#U c #3c2e24",
"#V c #acaaac",
"#W c #8c6e4c",
"#X c #b48a14",
"#Y c #0c0e64",
"#Z c #8c8a9c",
"#0 c #3436a4",
"#1 c #9c9eac",
"#2 c #000000",
"#3 c #000000",
"#4 c #000000",
"#5 c #000000",
"#6 c #000000",
"#7 c #000000",
"#8 c #000000",
"a` c #000000",
"a. c #000000",
"a# c #000000",
"aa c #000000",
"ab c #000000",
"ac c #000000",
"ad c #000000",
"ae c #000000",
"af c #000000",
"ag c #000000",
"ah c #000000",
"ai c #000000",
"aj c #000000",
"ak c #000000",
"al c #000000",
"am c #000000",
"an c #000000",
"ao c #000000",
"ap c #000000",
"aq c #000000",
"ar c #000000",
"as c #000000",
"at c #000000",
"au c #000000",
"av c #000000",
"aw c #000000",
"ax c #000000",
"ay c #000000",
"az c #000000",
"aA c #000000",
"aB c #000000",
"aC c #000000",
"aD c #000000",
"aE c #000000",
"aF c #000000",
"aG c #000000",
"aH c #000000",
"aI c #000000",
"aJ c #000000",
"aK c #000000",
"aL c #000000",
"aM c #000000",
"aN c #000000",
"aO c #000000",
"aP c #000000",
"aQ c #000000",
"aR c #000000",
"aS c #000000",
"aT c #000000",
"aU c #000000",
"aV c #000000",
"aW c #000000",
"aX c #000000",
"aY c #000000",
"aZ c #000000",
"a0 c #000000",
"a1 c #000000",
"a2 c #000000",
"a3 c #000000",
"a4 c #000000",
"a5 c #000000",
"a6 c #000000",
"a7 c #000000",
"a8 c #000000",
/* pixels */
"#S#S#S#S#S#S#S#S#S#S#S#S#S#S#S#S#S#S#S#S#S#S#S#S#S#S`u#n`8`8.b.c",
"#S#S#S#S#S#S#S#S#S#S#S#S#S#S#S#S#S#S#S#S#S#S#S#S#S#x.z`8`8`F`1.t",
"#S#S#S#S#S#S#S#S#S#S#S#S#S#S#S#S#S#S#S#S#S#S#S#S#S#X`8`8.H#`.t.t",
"#S#S#S#S#S#S#S#S#S#S#S#S#S#S#S#S#S#S#S#S#S#S#S#S`I.H`8.H`n.t.t.a",
"#S#S#S#S#S#S#S#S#S#S#S#S#S#S#S#S#S#S#S#S#S#S#S`S`F`8`8.i.t.t`b.0",
"#S#S#S#S#S#S#S#S#d.j#L.M#S#S#S#S#S#S#S#S#S#S`S#B`8`8#n.t.t#C`a`K",
"#S#S#S#S#S#S#J#M#P`T.n#0#k#S#S#S#S#S#S#S#S`i#B`8`8#n.t`b.t.2`A#r",
"#S#S#S#S#S#S.y`2`r`J`m#Y`H`7#S#S#S#S#S#S.5`P#z`8.Y`1`b.t`R.m.q#S",
"#S#S#S#S#S#Z`2.A.C#S#J`k.I#1#S#S#S#S#S.v`##z#z`F`1`b`b`..m.q#S#S",
"#S#S#S#S#S`V`2`l#S#S#S#J#S#S#S#S#S#S.1`I`8#z`8.J`b`b`.`z.Z#E#S#S",
"#S#S#S#S.S#Y`2.3#S#S#S#S#S#S#S#1#S#S`j.O#v`F#l`b`b#C`g`K#S#S#S#S",
"#S#S#S#S#T#P.A#S#S#S#S#S#S#S#K.W#S`t`C#g`w.O`b`b`b.0.Z`x#S#S#w#S",
"#S#S#S#S#R#P`4#S#S#S#S#S#S.3#Y.P#S.N`5#f`p.G.a.X`e.Z.Q#c#J#S#S#S",
"#S#S#S#J#Y#P.`#S#S#S#S#S#S`f.A#L#E`h.R`Y#s.g.r.d`A.Q.8`2#J#S#S#S",
"#S#S#S#J`2`2.3#S#S#S#S#S#S#I.K#S.x#t#f#j#h#W.d`W.D`M`V`2#S#S#S#S",
"#S#S#S.w`2#Y#J#S#S#S#S#S#S#S#S#S`s`Y#y.g#W.s#H`X.h.l#1.`#S#S#S#S",
"#S#S#S.``2.A#S#S#S#S#S#S#S#S#S#a.F`Y#u`0#b#H`v#m.L#S#S#w#w#w#S#S",
"#S#S#S.K#P`B#S#S#S#S#S#S#S#S`d.B#y`E..###F`v`M`N#S#S#S`G#w#S#S#S",
"#S#S#S#R#P#R#S#S#S#S#S#S#S#S`O.V.f#..#`3#p#m`N#S#I.k#L.p#S#S#S#S",
"#S#S#S.7#P.K#S#S#S#S#S#S#S#S#q.4#A#N`v#p`o#V#S#S.C.A`2#1#S#S#S#S",
"#S#S#S#D#P.K#S#S#S#S#S#S#S`o#U#o.T#p#p`y#w#S#S#S#J.U.E#S#S#S#S#S",
"#S#S#S.u#P#T#S#S#S#S#S#S#S#Q```v#p`q`L`6#S#S#S#S#S#J#d#S#S#S#S#S",
"#S#S#J.A#P.e#S#S#S#S#S#S`D#O.o#e#E.M.P.M#S#S#S#S#S#S#S#S#S#S#S#S",
"#S#S`Z`c#P.e#S#S#S#S#w#S#w#S#S#S#S`U#P.j#S#S#S#i.M#S#S#S#S#S#S#S",
"#S#S`Z#Y`2.w#S#S#S#S#S#S#S#S#S#S#S#Z#G#L#S#S.6`2`Q#S#S#S#S#S#S#S",
"#S#S`Z.u#P#1#S#S#S#S#S#S#S#S#S#S#S#S`f#Z#S#S.W#Y#Z#S#S#S#S#S#S#S",
"#S#S#S.M.M#S#w#S#S#S#S#S#S#S#S#S#S#S#S#S#S#S#J#J#S#S#S#S#S#S#S#S",
"#S#S#S#S#S#S#S#S#S#S#S#S#S#S#S#S#S#S#S#S#S#S#S#S#S#S#S#S#S#S#S#S",
"#S#S#S#S#S#S#w#S#S#S#S#S#S#S#S#S#S#S#S#S#S#S#S#S#S#S#S#S#S#S#S#S",
"#S#S#S#S#S#S#S#S#S#S#S#S#S#S#S#S#S#S#S#S#S#S#S#S#S#S#S#S#S#S#S#S",
"#S#S#S#S#S#S#S#S#S#S#S#S#S#S#S#S#S#S#S#S#S#S#S#S#S#S#S#S#S#S#S#S",
"#S#S#S#S#S#S#S#S#S#S#S#S#S#S#S#S#S#S#S#S#S#S#S#S#S#S#S#S#S#S#S#S"
};
