/* XPM */
static char *xplanar_xpm[] = {
/* width height num_colors chars_per_pixel */
"    32    32      256            2",
/* colors */
"`` c #c1c1c1",
"`. c #afafba",
"`# c #9d9db3",
"`a c #7c7cae",
"`b c #6262b6",
"`c c #24248d",
"`d c #101d89",
"`e c #0a3aa1",
"`f c #0a3496",
"`g c #0c1977",
"`h c #1d2a85",
"`i c #444488",
"`j c #7979a2",
"`k c #5e5ea2",
"`l c #3838a8",
"`m c #1b54c3",
"`n c #0271d2",
"`o c #008ef2",
"`p c #0081df",
"`q c #026ac1",
"`r c #044c9e",
"`s c #0b1871",
"`t c #676796",
"`u c #464699",
"`v c #1828a6",
"`w c #0180e5",
"`x c #0351a2",
"`y c #0a1769",
"`z c #676799",
"`A c #afafbb",
"`B c #7a7aa7",
"`C c #102098",
"`D c #063a88",
"`E c #313178",
"`F c #9d9db4",
"`G c #aeaeae",
"`H c #21217d",
"`I c #0372d6",
"`J c #008ef3",
"`K c #04387b",
"`L c #1e1e6b",
"`M c #8c8cae",
"`N c #b5b5b5",
"`O c #6f6f6f",
"`P c #0f0f76",
"`Q c #0180e6",
"`R c #02549d",
"`S c #1e1e67",
"`T c #888888",
"`U c #666666",
"`V c #222259",
"`W c #008ff3",
"`X c #04458e",
"`Y c #31317b",
"`Z c #5b5b62",
"`0 c #131358",
"`1 c #0a359a",
"`2 c #0a3aa5",
"`3 c #0756be",
"`4 c #0565ce",
"`5 c #0372d8",
"`6 c #062d74",
"`7 c #44448d",
"`8 c #939393",
".` c #5a5a5f",
".. c #383857",
".# c #212158",
".a c #17175c",
".b c #0b0b5c",
".c c #0d0d6b",
".d c #0c288d",
".e c #0564cb",
".f c #0078cf",
".g c #0a1362",
".h c #8c8cb0",
".i c #727272",
".j c #4e4e59",
".k c #2b2b50",
".l c #0d0d66",
".m c #0372d9",
".n c #0f2f9c",
".o c #0848ae",
".p c #033873",
".q c #21217f",
".r c #9f9f9f",
".s c #36364c",
".t c #0f0f74",
".u c #0373d9",
".v c #0a1e75",
".w c #252574",
".x c #17175d",
".y c #0e0e6c",
".z c #0f0f78",
".A c #0b3ba7",
".B c #0756bd",
".C c #0069b9",
".D c #0d0d67",
".E c #9e9eb7",
".F c #212157",
".G c #0a49ba",
".H c #0082dd",
".I c #09145d",
".J c #363679",
".K c #373753",
".L c #434359",
".M c #20204c",
".N c #10106e",
".O c #0858cb",
".P c #0087e5",
".Q c #081357",
".R c #6969a9",
".S c #38385b",
".T c #111185",
".U c #043979",
".V c #141482",
".W c #19196d",
".X c #5a5a6b",
".Y c #11219f",
".Z c #0181e6",
".0 c #061c55",
".1 c #5858a3",
".2 c #aaaaaa",
".3 c #373754",
".4 c #111186",
".5 c #0176d5",
".6 c #0367c4",
".7 c #06205d",
".8 c #191971",
"#` c #0e0e72",
"#. c #0858c9",
"## c #07124f",
"#a c #5858a5",
"#b c #424252",
"#c c #008bec",
"#d c #081557",
"#e c #141486",
"#f c #0181e5",
"#g c #6b6bae",
"#h c #4e4e5a",
"#i c #0f1d8c",
"#j c #0172c8",
"#k c #055bb9",
"#l c #015da8",
"#m c #131389",
"#n c #0373da",
"#o c #081a5f",
"#p c #2a2aa2",
"#q c #5a5a5e",
"#r c #151552",
"#s c #072a74",
"#t c #2929b6",
"#u c #8c8caf",
"#v c #7d7d7d",
"#w c #36364e",
"#x c #0c0c63",
"#y c #0948b2",
"#z c #0180e0",
"#A c #09287a",
"#B c #3131c3",
"#C c #68689d",
"#D c #2b2b4a",
"#E c #181866",
"#F c #0c2991",
"#G c #0a3aa4",
"#H c #0656ba",
"#I c #065cbf",
"#J c #1733a0",
"#K c #2727ad",
"#L c #3a3ab4",
"#M c #7a7aa6",
"#N c #5a5a61",
"#O c #1f1f48",
"#P c #17175f",
"#Q c #0e0e6a",
"#R c #11117d",
"#S c #12127d",
"#T c #171780",
"#U c #aeaeb7",
"#V c #5a5a60",
"#W c #53535d",
"#X c #777781",
"#Y c #93939a",
"#Z c #000000",
"#0 c #000000",
"#1 c #000000",
"#2 c #000000",
"#3 c #000000",
"#4 c #000000",
"#5 c #000000",
"#6 c #000000",
"#7 c #000000",
"#8 c #000000",
"a` c #000000",
"a. c #000000",
"a# c #000000",
"aa c #000000",
"ab c #000000",
"ac c #000000",
"ad c #000000",
"ae c #000000",
"af c #000000",
"ag c #000000",
"ah c #000000",
"ai c #000000",
"aj c #000000",
"ak c #000000",
"al c #000000",
"am c #000000",
"an c #000000",
"ao c #000000",
"ap c #000000",
"aq c #000000",
"ar c #000000",
"as c #000000",
"at c #000000",
"au c #000000",
"av c #000000",
"aw c #000000",
"ax c #000000",
"ay c #000000",
"az c #000000",
"aA c #000000",
"aB c #000000",
"aC c #000000",
"aD c #000000",
"aE c #000000",
"aF c #000000",
"aG c #000000",
"aH c #000000",
"aI c #000000",
"aJ c #000000",
"aK c #000000",
"aL c #000000",
"aM c #000000",
"aN c #000000",
"aO c #000000",
"aP c #000000",
"aQ c #000000",
"aR c #000000",
"aS c #000000",
"aT c #000000",
"aU c #000000",
"aV c #000000",
"aW c #000000",
"aX c #000000",
"aY c #000000",
"aZ c #000000",
"a0 c #000000",
"a1 c #000000",
"a2 c #000000",
"a3 c #000000",
"a4 c #000000",
"a5 c #000000",
"a6 c #000000",
"a7 c #000000",
"a8 c #000000",
/* pixels */
"````````````````````````````````````````````````````````````````",
"````````````````````````````````````````````````````````````````",
"````````````````````````````````````````````````````````````````",
"````````````````````````````````````````````````````````````````",
"`````````````````````````.`#`.``````````````````````````````````",
"`````````````````a`b`c`d`e`f`g`h`i`j`.``````````````````````````",
"`````````````k`l`m`n`o`o`o`o`o`p`q`r`s`t`#``````````````````````",
"```````````u`v`w`o`o`o`o`o`o`o`o`o`o`p`x`y`z`A``````````````````",
"`````````B`C`o`o`o`o`o`o`o`o`o`o`o`o`o`o`p`D`E`F````````````````",
"```````G`H`I`J`J`J`o`o`o`o`o`o`o`o`o`o`o`o`o`K`L`M``````````````",
"`````N`O`P`Q`J`J`J`J`J`J`J`J`J`J`J`J`J`o`o`o`o`R`S`F````````````",
"`````T`U`V`I`W`W`W`W`W`J`J`J`J`J`J`J`J`J`J`J`J`J`X`Y`A``````````",
"`````T`U`Z`0`1`2`3`4`5`W`W`W`W`W`W`W`W`W`J`W`J`J`J`6`7``````````",
"`````8`U`U.`...#.a.b.c.d.e`W`W`W`W`W`W`W`W`W`W`W`W.f.g.h````````",
"```````T.i`U`U`U`U`U.j.k.l.m`W`W`W`w.n.o.m`W`W`W`W`W.p.q````````",
"`````````N.r`T`T`T`U`U`U.s.t.u`W`W.v.w.x.y.z.A.B.m`W.C.D.E``````",
"```````````````````N.i`U`U.F.G`W.H.I.J.`.K.L.M.N.O`W.P.Q.R``````",
"`````````````````````T`U`U.S.T`W`W.U.l.V.W.X.#.Y.Z`W`W.0.1``````",
"````````````````````.2`U`U.3.4`W`W`W.5.6.7.8#`#.`W`W`W###a``````",
"`````````````````````N`U`U#b.4`W`W`W`W`W#c#d#e#f`W`W.P.I#g``````",
"`````````````````````N`U`U#h#i`W`W`W`W`W`W#j#k`W`W`W#l#m`M``````",
"`````````````````````N`U`U#b#`#n`W`W`W`W`W`W`W`W`W#c#o#p````````",
"```````````````````````U`U#q#r`e`W`W`W`W`W`W`W`W#c#s#t#u````````",
"``````````````````````#v`U`U#w#x#y.Z`W`W`W`W`W#z#A#B#C``````````",
"```````````````````````8`U`U`U#D#E#F#G.e#H#I#J#K#L#M````````````",
"````````````````````````#v`U`U`U#N#O#P#Q#R#S#T`t#U``````````````",
"```````````````````````````N#v`U`U`U#V#W#X#Y````````````````````",
"````````````````````````````````.r.r.2`N````````````````````````",
"````````````````````````````````````````````````````````````````",
"````````````````````````````````````````````````````````````````",
"````````````````````````````````````````````````````````````````",
"````````````````````````````````````````````````````````````````"
};
