/* XPM */
static char *xsquare_xpm[] = {
/* width height num_colors chars_per_pixel */
"    32    32      256            2",
/* colors */
"`` c #c1c1c1",
"`. c #3f42ad",
"`# c #afaec9",
"`a c #8a89cf",
"`b c #b0afce",
"`c c #8989a0",
"`d c #3331ac",
"`e c #8989c9",
"`f c #bbbbc3",
"`g c #2c2ae5",
"`h c #403ec7",
"`i c #bbbbb6",
"`j c #1d1cb2",
"`k c #3a38e1",
"`l c #2f2de6",
"`m c #7372c9",
"`n c #bbbbbf",
"`o c #6f6ddf",
"`p c #262ded",
"`q c #074af3",
"`r c #004ccb",
"`s c #1a29d1",
"`t c #aeaec4",
"`u c #1b28e8",
"`v c #0560f2",
"`w c #0090f6",
"`x c #0090f5",
"`y c #006ed3",
"`z c #0d25b6",
"`A c #7e7cd9",
"`B c #c7c7bf",
"`C c #3331bd",
"`D c #bbbbc9",
"`E c #006bcf",
"`F c #0086e4",
"`G c #008ff3",
"`H c #0088ec",
"`I c #013bc6",
"`J c #4c4ac8",
"`K c #9695b1",
"`L c #0051a2",
"`M c #006cb8",
"`N c #007cd4",
"`O c #0089e9",
"`P c #008ff4",
"`Q c #004cb9",
"`R c #5857c4",
"`S c #011799",
"`T c #004f87",
"`U c #0063a8",
"`V c #0073c4",
"`W c #0081dc",
"`X c #008bec",
"`Y c #0077dd",
"`Z c #0d1daf",
"`0 c #7170ce",
"`1 c #0d0c9e",
"`2 c #00226f",
"`3 c #004779",
"`4 c #005c9c",
"`5 c #006ebb",
"`6 c #0079cf",
"`7 c #0084e0",
"`8 c #008aeb",
".` c #007fe1",
".. c #0132b8",
".# c #5857c2",
".a c #002259",
".b c #00416f",
".c c #005692",
".d c #0066ae",
".e c #007bd2",
".f c #0083de",
".g c #008df1",
".h c #0054c2",
".i c #1a21c0",
".j c #aeaec7",
".k c #383870",
".l c #001277",
".m c #003860",
".n c #0060a4",
".o c #006bb7",
".p c #0078cd",
".q c #007ed6",
".r c #008ef2",
".s c #0076dc",
".t c #0d2eb9",
".u c #c8c8b9",
".v c #818177",
".w c #002963",
".x c #005795",
".y c #0062a6",
".z c #0068b2",
".A c #0071c1",
".B c #0076c9",
".C c #007dd5",
".D c #0085e3",
".E c #008cee",
".F c #0090f4",
".G c #0087eb",
".H c #003bb9",
".I c #1a18c5",
".J c #100ee8",
".K c #5957d6",
".L c #95958a",
".M c #010f9b",
".N c #00386e",
".O c #004c81",
".P c #005794",
".Q c #005c9d",
".R c #0061a4",
".S c #0064aa",
".T c #0067b0",
".U c #0076ca",
".V c #0082de",
".W c #004cb3",
".X c #0301cb",
".Y c #8a89d1",
".Z c #01119c",
".0 c #003280",
".1 c #004474",
".2 c #004c82",
".3 c #00518a",
".4 c #005490",
".5 c #005d9f",
".6 c #0067af",
".7 c #0075c6",
".8 c #007ff1",
"#` c #070ed8",
"#. c #2927d4",
"## c #262595",
"#a c #4c4ac5",
"#b c #181d95",
"#c c #0113a8",
"#d c #002d77",
"#e c #003a64",
"#f c #003f6c",
"#g c #004575",
"#h c #004e86",
"#i c #005a9a",
"#j c #0069b3",
"#k c #0078cc",
"#l c #024ddd",
"#m c #0704e8",
"#n c #7170d5",
"#o c #0e0cb1",
"#p c #8a89c4",
"#q c #c7c7c1",
"#r c #45446c",
"#s c #1412a0",
"#t c #011493",
"#u c #002d5a",
"#v c #003358",
"#w c #003e6b",
"#x c #006fbd",
"#y c #0078d7",
"#z c #1513e6",
"#A c #9695c7",
"#B c #9595a5",
"#C c #9695c0",
"#D c #3b3a68",
"#E c #071085",
"#F c #002058",
"#G c #003154",
"#H c #004576",
"#I c #005896",
"#J c #0069c2",
"#K c #4a48e5",
"#L c #99998d",
"#M c #7c7c77",
"#N c #5e5e66",
"#O c #0c1869",
"#P c #002946",
"#Q c #003c66",
"#R c #00589d",
"#S c #010d9e",
"#T c #3331dc",
"#U c #181b5c",
"#V c #001d57",
"#W c #003256",
"#X c #004a7d",
"#Y c #001f83",
"#Z c #1a18d1",
"#0 c #001169",
"#1 c #002b4a",
"#2 c #002a5e",
"#3 c #0e0cb0",
"#4 c #bbbbc5",
"#5 c #001e60",
"#6 c #01066f",
"#7 c #6463be",
"#8 c #b0b0a3",
"a` c #a2a2b4",
"a. c #0d0f87",
"a# c #1a1895",
"aa c #a4a498",
"ab c #0200b2",
"ac c #4d4bd6",
"ad c #bbbbb2",
"ae c #00005a",
"af c #2826c0",
"ag c #0604cf",
"ah c #1210dc",
"ai c #201edc",
"aj c #4746dc",
"ak c #7877d7",
"al c #bcbcae",
"am c #4b4a91",
"an c #8989ae",
"ao c #7170bc",
"ap c #7271c3",
"aq c #959599",
"ar c #a2a2b6",
"as c #000000",
"at c #000000",
"au c #000000",
"av c #000000",
"aw c #000000",
"ax c #000000",
"ay c #000000",
"az c #000000",
"aA c #000000",
"aB c #000000",
"aC c #000000",
"aD c #000000",
"aE c #000000",
"aF c #000000",
"aG c #000000",
"aH c #000000",
"aI c #000000",
"aJ c #000000",
"aK c #000000",
"aL c #000000",
"aM c #000000",
"aN c #000000",
"aO c #000000",
"aP c #000000",
"aQ c #000000",
"aR c #000000",
"aS c #000000",
"aT c #000000",
"aU c #000000",
"aV c #000000",
"aW c #000000",
"aX c #000000",
"aY c #000000",
"aZ c #000000",
"a0 c #000000",
"a1 c #000000",
"a2 c #000000",
"a3 c #000000",
"a4 c #000000",
"a5 c #000000",
"a6 c #000000",
"a7 c #000000",
"a8 c #000000",
/* pixels */
"````````````````````````````````````````````````````````````````",
"````````````````````````````````````````````````````````````````",
"```````````````````.`#```````````a`b````````````````````````````",
"```````````````````c`d`e```f`.`g`h``````````````````````````````",
"`````````````````````i`j`k`l`m`n````````````````````````````````",
"`````````````````f`o`p`q`r`s`#``````````````````````````````````",
"`````.`a```````t`u`v`w`w`x`y`z`A````````````````````````````````",
"`````B`C`D```n`.`E`F`G`x`x`x`H`I`J`D````````````````````````````",
"```````K`J```.`L`M`N`O`P`x`x`x`x`Q`C`#``````````````````````````",
"```````````R`S`T`U`V`W`X`G`x`x`x`x`Y`Z`0````````````````````````",
"`````````i`1`2`3`4`5`6`7`8`G`x`x`x`x.`...#`D````````````````````",
"```````````..a.b.c.d`V.e.f`O.g`P`x`x`x`x.h.i.j``````````````````",
"`````````..k.l.m`T.n.o`V.p.q`7`8.r`x`x`x`x.s.t`0`````````.`A````",
"``````.u`..v.v.w`3.x.y.z`5.A.B.C.D.E.F`x`x`x.G.H.I.j`K.J.K``````",
"```````..v.L.v.M.N.O.P.Q.R.S.T`M.U.V.E.F`x`x`x.F.W.X.J.Y````````",
"```````..L.L.v.v.Z.0.1.2.3.4.P.5.6.7.V.E`x`x`x.8#`#.###a`D``````",
"``````.L.L.L.L.L.v#b#c#d#e#f#g#h#i#j#k.D.r`x#l#m#n```i`.#o#p````",
"``````#q.L.L.L.L.v.v#r#s#t#u#v#w#h.n#x`N#y`s#z#A````````#B#C````",
"````````.u.v.v.v.v.v.v.v#D#E#F#G#H#I.z#J.X#K````````````````````",
"``````````.u#L#M#M#M#M#M#M#N#O#P#Q.3#R#S#T``````````````````````",
"``````````````.u#L#L#L.v.v.v#U#V#W#X#Y#Z#q``````````````````````",
"``````````````````#L#L.v.v.v.L#0#1#2#3#4````````````````````````",
"````````````````````.L.L.L.v.v.L#5#6#7``````````````````````````",
"````````````````````#8#8#8#8#La`a.a##q``````````````````````````",
"````````````````````.u.L.Laa````.kabac.Y`t``````````````````````",
"``````````````````````#8.L````adae.L`.afagahaiajak``````````````",
"````````````````````````al``````am```````Ba`anaoap``````````````",
"````````````````````````````aq#O#q``````````````````````````````",
"``````````````````````````````ar````````````````````````````````",
"````````````````````````````````````````````````````````````````",
"````````````````````````````````````````````````````````````````",
"````````````````````````````````````````````````````````````````"
};
