/* XPM */
static char *face_________OnK_[] = {
/* columns rows colors chars-per-pixel */
"32 32 30 1",
"  c #FF6666",
". c #FF6C66",
"X c #FF7166",
"o c #FF7666",
"O c #FF7E66",
"+ c #FF8266",
"@ c #FF8566",
"# c #FF8C66",
"$ c #FF8F66",
"% c #FF9166",
"& c #FF9466",
"* c #FF9A66",
"= c #FF9C66",
"- c #FFA266",
"; c #FFA366",
": c #FFA866",
"> c #FFAD66",
", c #FFB166",
"< c #FFB566",
"1 c #FFBA66",
"2 c #FFBF66",
"3 c #FFC466",
"4 c #FFC866",
"5 c #FFD166",
"6 c #FFD766",
"7 c #FFE366",
"8 c #FFF266",
"9 c #FFF566",
"0 c #FFFF66",
"q c gray75",
/* pixels */
"qqqqqqqqqqqqqqqqqqqqqqqqqqqqqqqq",
"q000000000000000000000000000000q",
"q000000000000000000000000000000q",
"q000000000000000000000000000000q",
"q000000000000000000000000000000q",
"q000000000000000000000000000000q",
"q000000000000000000000000000000q",
"q000000000000000000000000000000q",
"q000000000000000000000000000000q",
"q000000000000000000000000000000q",
"q000000000000000000000000000000q",
"q000000000000000000000000000000q",
"q000000000000000000000000000000q",
"q000000000000000000000000000000q",
"q000000000000000000000000000000q",
"q000000000000000000000000000000q",
"q000000000000000000000000000000q",
"q0000000000000000000000000008:Oq",
"q0000000000000000000000006,#O. q",
"q000000000000000000974:&#o..   q",
"q=--=*%%#%&-----=&#@Oo.      .+q",
"q . .        ..          .o%<70q",
"q                  .Xo+-3680000q",
"q>>:>>,>131,>>>:,<2578000000000q",
"q000000000000000000000000000000q",
"q000000000000000000000000000000q",
"q000000000000000000000000000000q",
"q000000000000000000000000000000q",
"q000000000000000000000000000000q",
"q000000000000000000000000000000q",
"q000000000000000000000000000000q",
"qqqqqqqqqqqqqqqqqqqqqqqqqqqqqqqq"
};
