/* XPM */
static char *face_________OffK_[] = {
/* columns rows colors chars-per-pixel */
"15 14 32 1",
"  c #444444",
". c #474646",
"X c #4A4646",
"o c #4B4747",
"O c #504949",
"+ c #544B4B",
"@ c #5C4E4E",
"# c #5F4F4F",
"$ c #695353",
"% c #6C5454",
"& c #715656",
"* c #785959",
"= c #855E5E",
"- c #8E6262",
"; c #916363",
": c #9B6767",
"> c #A86C6C",
", c #AA6D6D",
"< c #AE6F6F",
"1 c #BE7575",
"2 c #CC7B7B",
"3 c #D07C7C",
"4 c #D67F7F",
"5 c gray75",
"6 c #DF8282",
"7 c #F28A8A",
"8 c #FE8E8E",
"9 c #FF9797",
"0 c #FF9C9C",
"q c #FFA2A2",
"w c #FFA8A8",
"e c #FFAAAA",
/* pixels */
"555555555555555",
"5eeeeeeeeeeeee5",
"5eeeeeeeeeeeee5",
"5eeeeeeeeeeeee5",
"5eeeeeeeeeeeee5",
"5eeeeeeeeeeeee5",
"5eeeeeeeeeeeee5",
"5eeeeeeeeeeeee5",
"5eeeeeeeeeeeq95",
"5eeeewq09741<;5",
"5q98761,:=%@oo5",
"53,-=%O..oO@%&5",
"5o.oO+@%&*-<265",
"555555555555555"
};
