/* XPM */
static char *face_________OffK_[] = {
/* columns rows colors chars-per-pixel */
"24 17 47 1",
"  c #444444",
". c #454544",
"X c #484644",
"o c #4A4844",
"O c #4C4944",
"+ c #504B44",
"@ c #544E44",
"# c #554E44",
"$ c #585044",
"% c #5C5244",
"& c #635744",
"* c #6D5C44",
"= c #786344",
"- c #7D6644",
"; c #7F6744",
": c #806844",
"> c #816844",
", c #866B44",
"< c #896D44",
"1 c #8F7044",
"2 c #917244",
"3 c #947344",
"4 c #997644",
"5 c #A27C44",
"6 c #A98044",
"7 c #B58744",
"8 c #B78844",
"9 c #B98944",
"0 c #C28F44",
"q c #CB9444",
"w c #CD9544",
"e c #D19744",
"r c #D39944",
"t c #D79B44",
"y c #DA9D44",
"u c #DE9F44",
"i c #DFA044",
"p c #E1A144",
"a c #E4A344",
"s c #E6A444",
"d c #EBA744",
"f c #EEA944",
"g c #F1AB44",
"h c #F3AC44",
"j c #F4AC44",
"k c #F5AD44",
"l c gray75",
/* pixels */
"llllllllllllllllllllllll",
"lkkkkkkkkkkkkkkkkkkkkkkl",
"lkkkkkkkkkkkkkkkkkkkkkkl",
"lkkkkkkkkkkkkkkkkkkkkkkl",
"lkkkkkkkkkkkkkkkkkkkkkkl",
"lkkkkkkkkkkkkkkkkkkkkkkl",
"lkkkkkkkkkkhkhkkkkkkkkkl",
"lkkkkhhhhhgffffffgggfffl",
"lkkgfsspitq088787qyr098l",
"l53,=*&%$#@#@oO@####@@Ol",
"l##+OoX..  ..... ..    l",
"l ...XO##@ooOO..   .   l",
"l--:<245554444<<<::-:>,l",
"lwweyusfkdaaaauuyrwrwwtl",
"lkkkkkkkkkkkkkkkkkkkkkkl",
"lkjjkkkkhkkjjkgkkkkkkkgl",
"llllllllllllllllllllllll"
};
