/* XPM */
static char *face________OnK_[] = {
/* columns rows colors chars-per-pixel */
"19 18 22 1",
"  c #FF6666",
". c #FF6866",
"X c #FF6D66",
"o c #FF7066",
"O c #FF7866",
"+ c #FF7A66",
"@ c #FF8366",
"# c #FF8966",
"$ c #FF9666",
"% c #FF9D66",
"& c #FFA166",
"* c #FFAF66",
"= c #FFBB66",
"- c #FFBC66",
"; c #FFC966",
": c #FFDC66",
"> c #FFE166",
", c #FFE466",
"< c #FFEE66",
"1 c #FFFA66",
"2 c #FFFF66",
"3 c gray75",
/* pixels */
"3333333333333333333",
"3222222222222222223",
"3222222222222222223",
"3222222222222222223",
"3222222222222222223",
"3222222222222222223",
"3222222222222222223",
"3222222222222222223",
"3222222222222222223",
"3222222222222222223",
"3222222222222222223",
"3222222222222222223",
"3222222222222222223",
"322222222222222<,>3",
"322222221;=*&$#+oX3",
"31<:=%#@+         3",
"3                 3",
"3333333333333333333"
};
