/* XPM */
static char *face________OffK_[] = {
/* columns rows colors chars-per-pixel */
"59 13 45 1",
"  c #444444",
". c #484744",
"X c #4A4844",
"o c #4D4A44",
"O c #514C44",
"+ c #544D44",
"@ c #585044",
"# c #625644",
"$ c #685944",
"% c #6A5B44",
"& c #756144",
"* c #7B6544",
"= c #7F6744",
"- c #816844",
"; c #856B44",
": c #8F7144",
"> c #937344",
", c #997644",
"< c #9C7844",
"1 c #9F7A44",
"2 c #A67E44",
"3 c #AC8244",
"4 c #AF8444",
"5 c #B38644",
"6 c #B88944",
"7 c #C79244",
"8 c #C99344",
"9 c #CD9544",
"0 c #D09744",
"q c #D39944",
"w c #D79B44",
"e c #D89C44",
"r c #D99C44",
"t c #DEA044",
"y c #E0A144",
"u c #E5A344",
"i c #E6A444",
"p c #EAA644",
"a c #EAA744",
"s c #EDA844",
"d c #F1AB44",
"f c #F2AB44",
"g c #F4AC44",
"h c #F5AD44",
"j c gray75",
/* pixels */
"jjjjjjjjjjjjjjjjjjjjjjjjjjjjjjjjjjjjjjjjjjjjjjjjjjjjjjjjjjj",
"j@Oo.    .#&:37wwrasssdhhhhhhhhhhhhhhhhdssssarrw83>-$O    j",
"j     +$-268wudhhhhdhhdhhhhhhhhhhhhhhhhhhhgghhhhdur975<-$Oj",
"j  X#*,59yddgghhhhhhhhhghhhhhhhhhhhhhhhhhhhhhhhhdhhhddr75<j",
"j O&29idhhhhggdhdhhhhghghhhhhhhhhhhhhhhhhhhhdhhhdhhhdhhhdsj",
"jO;0dhhhggggghhhhhhhhhdhhhhhhhhhhhhhhhhhhhhhhhhhgdhhhddhhhj",
"j>ahdhhhhhhhhhhhhhhhhhhhhhhhhhhhhhhhhhhhhhhhhhhhhhhhhhhhhhj",
"jyhhhhhhhhhhhhhhhhhhhhhhhhhhhhhhhhhhhhhhhhhhhhhhhhhhhhhhhhj",
"jhdhhdhhhhhhhhhhhhhhhhhhhhhhhhhhhhhhhhhhhhhhhhhhhhhhhhhhhhj",
"jhdhhhhhhhhhhhhhhhhhhhhhhhhhhhhhhhhhhhhhhhhhhhhhhhhhhhhhhhj",
"jhhhhdhhhhhhhhhhhhhhhhhhhhhhhhhhhhhhhhhhhhhhhhhhhhhhhhhhhhj",
"jdhhdhhhhddsassgghhhhhhhhhhhhhhhhhhhhhhhhhhhhhhhhhhhhhhhhhj",
"jjjjjjjjjjjjjjjjjjjjjjjjjjjjjjjjjjjjjjjjjjjjjjjjjjjjjjjjjjj"
};
