/* XPM */
static char *face_________OffK_[] = {
/* columns rows colors chars-per-pixel */
"43 45 10 1",
"  c gray27",
". c #494646",
"X c #8D6161",
"o c #956565",
"O c #BA7373",
"+ c #BB7474",
"@ c #BC7474",
"# c #C17676",
"$ c #C27676",
"% c gray75",
/* pixels */
"%%%%%%%%%%%%%%%%%%%%%%%%%%%%%%%%%%%%%%%%%%%",
"%. o@###O$$$O$@$$$$@$O$$$$$O$$$O$$$$$O$$O$%",
"%.XO##@#$$$O$@$$##$$OO$@$$$$O$$$$$$$$$$$O$%",
"%o+#####O$$$$$$@@##O@%$$$$$$$$$O$$$$$O$O$$%",
"%@$$@@#$$$$$$O$$##$@$$@$@$O$$$$$%@O$$$$@$$%",
"%$@$##$@O$O$$$$$###@$@$$$$$$$O$O$$OO@@$#$O%",
"%$@$$$$@$$$O$O$$@###$$@@$@O$O$$$$@$@$$@#$$%",
"%$$$@@$$O$$$$$$$##@#@$$$$$$$$$$O$@$$$@##$O%",
"%$$%$$$$$$$@OO$$$@@$O$O$@$####@#$$@$O##@$$%",
"%@O@O$O$O$$$O@$$$$$$$$$$@$#@@#@$@$$$####$$%",
"%$OO$$$O@$@$$%$@@$O$$$O$$O##$@$$@$$$####$$%",
"%$##O$$$$$@$$@$$@$$$$O$$$$##$$$@$$@$@##@$$%",
"%$##$@$$$$#@#$@$$O##O$$$$$$$@@$$$O$O$$$$$O%",
"%$@$##O$#O#@$@$$$$##$$$O$$$$$$$@$$$$O$O$$$%",
"%$$$$#$$#@##$$@@#@@#O$O$$$$$O@$@$O$$$$$O$$%",
"%$$$@#@$####@$$$####$$$$$O$OO%$$$$O$O$$$O$%",
"%$$@$O$OOO$$$$$@###@$$O$O$$$O$O$##@##@$$@@%",
"%@$$$$$$O@%@@@$$#@$#$O$$$$$O$$$$######@$$$%",
"%$$$$O$$$$$$$$@#@$@$$$$$O$O$@$@$#@O$@@$$@$%",
"%@O$$$O$$$@$$@##$$@$$O$O$$$$$$@$###$#$$@$$%",
"%$$O$$$$$$$$@##@$@O$$$$$@$$#$###$@$$$O$O$%%",
"%$##O$O$$$$$####$$OO$$$O$$@@$O@#$@$@$$$$O@%",
"%###$$$O$O$O####@@$@$$$$$@######$$$O$O$$O$%",
"%##@O$$$$$$$@##O$$$%$$$$$$@##@##@$$$$$O$O$%",
"%##$@@$$O$$$$$$$$@@$##@#@$$$$$$$$$$$$O$$#O%",
"%@@#$$$@$$$O$O$@$$$#@###@$OO$$$$$$@$$$O$#$%",
"%###$$$@O$O$$$$$@$#@####$$$O$$$$$$$#$$$$##%",
"%##@@@$$$$$$$@@$@$#@##O$$@%@O$O$$$$#O$O$#O%",
"%$$$$@OOO$$$O$$$$$$@@$$$$$$$$O$$$%@O$@@$#@%",
"%O$O$%$O$$$O$$$$$@$$$$@$O$O$$$O$$@OO$$$$##%",
"%$$$$$$$O$O$$$$$$$%@$@$$$$$O$$$$$$@$@$#@##%",
"%$$$$$$$$$$$$O$$$OOO$$O$O$$$O$O$@$$$@$#@##%",
"%$$$##O##@$@$$$@#@$$$@$$@%@O$$@@$$$@$$$$$$%",
"%O$O######$@$@$$#@$@$$@$$$OO$O$$$@$$$$$$@$%",
"%$$$$O@$###$%$@$####@@$$$$##$$$$##$$##@%$O%",
"%$$O$$$$#@@$@$@$##@#$$$@$$$$$O$OO##OOOO$$$%",
"%O$$O$$@$$$$O##$####$$$$$$$$O$$$##$@$$@$$$%",
"%$$O$$$@O$O$OO$$O$#O@$O$$$$O$$$O##$@$@$$O$%",
"%$O$O$O$$$$O$$$$$$$@$$$O@$O$O$O$@###$$@@$$%",
"%$$$$$$$O$$$@$$$$@$$$@$$$$$$$$$$##@#@$$$O$%",
"%$#@##O$$$$O$O$$$O$O$$$O$$#O$$$@$@@$$$$$$$%",
"%@##O##$O$$$$$O$$$$$O$$$$$#O@@$$$$$$O$O$O$%",
"%$####$$$O$O@$$$$O$$$O$O$$@O$$@$@$$@$$$O$O%",
"%@#@##@$$$$$$$@$$$@$$$$$$$%$$@$$$$$$O$$$$$%",
"%%%%%%%%%%%%%%%%%%%%%%%%%%%%%%%%%%%%%%%%%%%"
};
