/* XPM */
static char *face_________OffK_[] = {
/* columns rows colors chars-per-pixel */
"32 32 57 1",
"  c #444444",
". c #454444",
"X c #474644",
"o c #4A4844",
"O c #4D4944",
"+ c #524D44",
"@ c #554E44",
"# c #575044",
"$ c #5A5144",
"% c #5C5344",
"& c #5F5444",
"* c #635644",
"= c #645744",
"- c #655844",
"; c #6A5B44",
": c #6C5C44",
"> c #6F5E44",
", c #736044",
"< c #766244",
"1 c #776344",
"2 c #786344",
"3 c #7C6544",
"4 c #836944",
"5 c #866B44",
"6 c #896D44",
"7 c #8F7144",
"8 c #937344",
"9 c #9B7844",
"0 c #9C7844",
"q c #A67E44",
"w c #B08444",
"e c #B68744",
"r c #B98944",
"t c #BC8B44",
"y c #BD8C44",
"u c #C28E44",
"i c #C49044",
"p c #C89344",
"a c #CA9444",
"s c #CB9444",
"d c #CF9644",
"f c #D09744",
"g c #D19844",
"h c #D59A44",
"j c #D69B44",
"k c #D89C44",
"l c #D99D44",
"z c #DFA044",
"x c #E2A244",
"c c #E8A544",
"v c #EAA644",
"b c #EEA944",
"n c #EFAA44",
"m c #F3AC44",
"M c #F4AC44",
"N c #F5AD44",
"B c gray75",
/* pixels */
"BBBBBBBBBBBBBBBBBBBBBBBBBBBBBBBB",
"BNNNNNNNNNNNNNNNNNNNNNNNNNNNNNmB",
"BNNNNNNNNNNNNNNNNNNNNNNNNNNNNNNB",
"BNNNNNNNNNNNNNNNNNNNNNNNNNNNNNNB",
"BNNNNNNNNNNNNNNNNNNNNNNNNNNNNNNB",
"BNNNNNNNNNNNNNNNNNNNNNNNNNNNNNNB",
"BNNNNNNNNNNNNNNNNNNNNNNNNNNNNNNB",
"BNNNNNNNNNNNNNNNNNNNNNNNNNNNNNNB",
"BNNNNNNNNNNNNNNNNNNNNNNNNNNNNNNB",
"BNNNNNNNNNNNNNNNNNNNNNNNNNNNNNNB",
"BNNNNNNNNNNNNNNNNNNNNNNNNNNNmNmB",
"BNNNNNNNNNNNNNNNNNNNNNNNNNNNMmNB",
"BNNNNNNNNNNNNNNNNNNNNNNNNNNNMNNB",
"BNNNNNNNNNNNNNNNNNNNNNNNNNNNMMmB",
"BNNNNNNNNNNNNNNNNNNNNNNNNNNMMMNB",
"BNNNNNNNNNNNNNNNNNNNMNMmMNMmNNmB",
"BNNNNNNNNNNNNNNNNNNmmNNmmNmNNbiB",
"BNNNNNNNNNNNNNNNNNNNNNNNNNbgq<#B",
"BNNNNNmNNNNNNNNNNNNNNbxly82=+o.B",
"Bhljgditruahljllgueq96,-$+o....B",
"B:::::=***=::,:>;=&$@Oo...   .$B",
"B.o...    ........  .. ...O-20rB",
"B .... ...... .....oOo#:58qugxmB",
"B<1<<1133432<<<<23479wwujxvNNNNB",
"BpappaadghgdppppadjzcmmNNNNmmNNB",
"BNNNNNNNNNNNNNNNNNNNmNNNNNNNNNNB",
"BNNNNNNNNNNNNNNNNNNNNNNNNNNNNNNB",
"BNNNNNNNNNNNNNNNNNNNNNNNNNNNNNNB",
"BNNNNNNNNNNNNNNNNNNNNNNNNNNNNNNB",
"BNNNNNNNNNNNNNNNNNNNNNNNNNNNNNNB",
"BNNNNNNNNNNNNNNNNNNNNNNNNNNNNNNB",
"BBBBBBBBBBBBBBBBBBBBBBBBBBBBBBBB"
};
