/* XPM */
static char *face_________OnK_[] = {
/* columns rows colors chars-per-pixel */
"43 45 11 1",
"  c #454544",
". c #464944",
"X c #5A8D44",
"o c #5C9544",
"O c #67BA44",
"+ c #67BB44",
"@ c #68BC44",
"# c #69C044",
"$ c #69C144",
"% c #69C244",
"& c gray75",
/* pixels */
"&&&&&&&&&&&&&&&&&&&&&&&&&&&&&&&&&&&&&&&&&&&",
"&. oO%%%@%%%%@%%@%@%%%@%@%%@%@%%##########&",
"&.XO%%@%@%$@%%@@%@%%%@%@%%%%#%@%##########&",
"&oO%@%%@$$$$@%%%%%%@%@%%%@@%#%@%##########&",
"&+%@%%%@$$@$$$$$@%%@%%@%##################&",
"&%%%%@%%$$$$$@$$@%%@%@%%##################&",
"&$%+@%%+$@@$$@$@%%%%%%@@##################&",
"&$%%%@%%$$$$$$$$%@@%@%%%##################&",
"&$$@@%%%@@%%%%@$##########################&",
"&$$$%%@%%%%@@%%%##########################&",
"&$$$%@%@%%%@@%%%##########################&",
"&$$@%@%%@@%%%%@@##########################&",
"&$$@$$@%%%@%%@%%##########################&",
"&@$$$@%%%@%%%%@%##########################&",
"&$$$%%@@%%@@@@%%##########################&",
"&$$@@%%%@%%%%%%@##########################&",
"&#########################################&",
"&#########################################&",
"&#########################################&",
"&#########################################&",
"&#########################################&",
"&#########################################&",
"&#########################################&",
"&#########################################&",
"&#########################################&",
"&#########################################&",
"&#########################################&",
"&#########################################&",
"&#########################################&",
"&#########################################&",
"&#########################################&",
"&#########################################&",
"&#########################################&",
"&#########################################&",
"&#########################################&",
"&#########################################&",
"&#########################################&",
"&#########################################&",
"&#########################################&",
"&#########################################&",
"&#########################################&",
"&#########################################&",
"&#########################################&",
"&#########################################&",
"&&&&&&&&&&&&&&&&&&&&&&&&&&&&&&&&&&&&&&&&&&&"
};
