/* XPM */
static char *face_______OnK_[] = {
/* columns rows colors chars-per-pixel */
"19 15 23 1",
"  c #444444",
". c #444544",
"X c #464B44",
"o c #495444",
"O c #4C5D44",
"+ c #4F6A44",
"@ c #568244",
"# c #5E9A44",
"$ c #5F9D44",
"% c #61A444",
"& c #64AF44",
"* c #6BC644",
"= c #6FD444",
"- c #72E144",
"; c #76ED44",
": c #79F744",
"> c #7AFB44",
", c #7FFF44",
"< c #80FF44",
"1 c #85FF44",
"2 c #8AFF44",
"3 c #8FFF44",
"4 c gray75",
/* pixels */
"4444444444444444444",
"4333333333333333334",
"4333333333333333334",
"4333333333333333334",
"4333333333333333334",
"4333333333333333334",
"4333333333333333334",
"4333333333333333334",
"4333333333333333334",
"4333333333333333334",
"43333333333333321,4",
"433333333332,:-*&#4",
"433333331<;=%@+o. 4",
"433333<>*$OX.. . .4",
"4444444444444444444"
};
