/* XPM */
static char *face_________OffK_[] = {
/* columns rows colors chars-per-pixel */
"32 34 37 1",
"  c #444444",
". c #454544",
"X c #474644",
"o c #4D4A44",
"O c #504B44",
"+ c #554E44",
"@ c #5A5144",
"# c #675944",
"$ c #685944",
"% c #6A5B44",
"& c #6E5D44",
"* c #746044",
"= c #7B6544",
"- c #856A44",
"; c #886D44",
": c #8D6F44",
"> c #9C7844",
", c #AB8144",
"< c #B38644",
"1 c #B88944",
"2 c #BD8C44",
"3 c #C38F44",
"4 c #C39044",
"5 c #CA9444",
"6 c #CE9644",
"7 c #D69B44",
"8 c #D99C44",
"9 c #DE9F44",
"0 c #DFA044",
"q c #E5A344",
"w c #EAA744",
"e c #EDA844",
"r c #F2AB44",
"t c #F3AC44",
"y c #F4AC44",
"u c #F5AD44",
"i c gray75",
/* pixels */
"iiiiiiiiiiiiiiiiiiiiiiiiiiiiiiii",
"iuuuuuuuuuuuuuuuuuuuuuuuuuuuuuui",
"iuuuuuuuuuuuuuuuuuuuuuuuuuuuuuui",
"iuuuuuuuuuuuuuuuuuuuuuuuuuuuuuui",
"iuuuuuuuuuuuuuuuuuuuuuuuuuuuuuui",
"iuuuuuuuuuuuuuuuuuuuuuuuuuuuuuui",
"iuuuuuuuuuuuuuuuuuuuuuuuuuuuuuui",
"iuuuuuuuuuuuuuuuuuuuuuuuuuuuuuui",
"iuuuuuuuuuuuuuuuuuuuuuuuuuuuuuui",
"iuuuuuuuuuuuuuuuuuuuuuuuuuuuuuui",
"iuuuuuuuuuuuuuuuuuuuuuuuuuuuuuui",
"iuuuuuuuuuuuuuuuuuuuuuuuuuuuuuui",
"iuuuuuuuuuuuuuuuuuuuuuuuuuuuuuui",
"iuuuuuuuuuuuuuuuuuuuuuuuuuuuuuui",
"iuuuuuuuuuuuuuuuuuuuuuuuuuuuuuui",
"iuuuuuuuuuuuuuuuuuuuuuuuuuuuuuui",
"iuuuuuuuuuuuuuuuuuuuuuuuuuuuuuui",
"iuuuuuuuuuuuuuuuuuuuuuuuuuuuuuui",
"iuuuuuuuuuuuuuuuuuuuuuuuuuuuuuui",
"iuuuuuuuuuuuuuuuuuuuruuuuuuuuuui",
"iuuuuuuuuuuuuuuuuuuuuuruuuruuuui",
"iuuuuuuuuuuuuuuuuuurttuuuuuuuuui",
"iuuuuuuuuuuuuuuuuuuuuuurrruruuui",
"iuuuuuuuuuuuuuuuuuutruu7<3euuuui",
"iuuuuuuuuuuuuuuuuuutttt,$:qrruui",
"iuuuuuuuuuuuuuuuuuuttrq;X$1wuuui",
"iuuuuuuuuuuuuuuuuuuuur2&.O;quuui",
"iuuuuuuuuuuuuuuuuuuuuw>+..$4ruui",
"iuuuuuuuuuuuuuuuuuuur9=X..@>quui",
"iuuuuuuuuuuuuuuuuuuue1$...o=7uti",
"iuuuuuuuuuuuuuuuuuuu9-o . .$6uui",
"iuuuuuuuuuuuuuuuuutu8*    .#5uui",
"iuuuuuuuuuuuuuuuuuuu6&  ...#4uui",
"iiiiiiiiiiiiiiiiiiiiiiiiiiiiiiii"
};
