/* XPM */
static char *face________OffK_[] = {
/* columns rows colors chars-per-pixel */
"19 18 34 1",
"  c #444444",
". c #454544",
"X c #494744",
"o c #534D44",
"O c #595044",
"+ c #5D5344",
"@ c #665844",
"# c #6B5B44",
"$ c #6E5D44",
"% c #776244",
"& c #806744",
"* c #816844",
"= c #896D44",
"- c #967544",
"; c #9C7844",
": c #A37C44",
"> c #A47D44",
", c #AB8144",
"< c #AE8344",
"1 c #B88944",
"2 c #BE8D44",
"3 c #C69144",
"4 c #CD9544",
"5 c #D19844",
"6 c #D59A44",
"7 c #DD9F44",
"8 c #E4A344",
"9 c #E7A444",
"0 c #EBA744",
"q c #EFA944",
"w c #F2AB44",
"e c #F4AC44",
"r c #F5AD44",
"t c gray75",
/* pixels */
"ttttttttttttttttttt",
"trrrrrrrrrrrrrrrrrt",
"trrrrrrrrrrrrrrrrrt",
"trrrrrrrrrrrrrrrrrt",
"trrrrrrrrrrrrrrrrrt",
"trrrrrrrrrrrrrrrrrt",
"trrrrrrrrrrrrrrrrrt",
"trrrrrrrrrrrrrrrrrt",
"trrrrrrrrrrrrrrrrrt",
"trrrrrrrrrrrrrrrrrt",
"trrrrrerrrrrrwrrret",
"trrreeeerwwrrrrrret",
"teeerrrrrrrrrrwqw0t",
"trrrrrre064321<:;;t",
"t8875321,=&%$@+oX t",
"t,>-&#+Oo        .t",
"t......    ..   ..t",
"ttttttttttttttttttt"
};
