/* XPM */
static char *face_________OnK_[] = {
/* columns rows colors chars-per-pixel */
"17 17 26 1",
"  c #FF6666",
". c #FF6A66",
"X c #FF6D66",
"o c #FF7266",
"O c #FF7366",
"+ c #FF8266",
"@ c #FF8666",
"# c #FF8866",
"$ c #FF8E66",
"% c #FF9466",
"& c #FF9866",
"* c #FFAA66",
"= c #FFAD66",
"- c #FFB266",
"; c #FFB466",
": c #FFBB66",
"> c #FFC266",
", c #FFD166",
"< c #FFDB66",
"1 c #FFDF66",
"2 c #FFE566",
"3 c #FFEB66",
"4 c #FFEF66",
"5 c #FFF066",
"6 c #FFFF66",
"7 c gray75",
/* pixels */
"77777777777777777",
"7666666@      .@7",
"766666,.      o=7",
"766666-       +<7",
"766666&       $67",
"766664@       $67",
"766663+       @17",
"766663+       o*7",
"766666%       .@7",
"766666;      . o7",
"7666661o      ..7",
"7666666>        7",
"76666666-X      7",
"766666666:@X    7",
"76666666662*#o  7",
"7666666666665-$+7",
"77777777777777777"
};
