/* XPM */
static char *face________OffK_[] = {
/* columns rows colors chars-per-pixel */
"28 25 48 1",
"  c #444444",
". c #474644",
"X c #494744",
"o c #4B4844",
"O c #4F4B44",
"+ c #504B44",
"@ c #564F44",
"# c #585044",
"$ c #5A5144",
"% c #5C5244",
"& c #625644",
"* c #695A44",
"= c #6C5C44",
"- c #6E5D44",
"; c #705E44",
": c #766244",
"> c #7B6544",
", c #7C6544",
"< c #886C44",
"1 c #8B6E44",
"2 c #907144",
"3 c #937344",
"4 c #957444",
"5 c #9A7744",
"6 c #A17B44",
"7 c #A37C44",
"8 c #A77F44",
"9 c #A87F44",
"0 c #B68744",
"q c #B68844",
"w c #B98944",
"e c #BC8B44",
"r c #C18E44",
"t c #C59044",
"y c #CF9744",
"u c #D39944",
"i c #D79B44",
"p c #DB9D44",
"a c #DFA044",
"s c #E3A244",
"d c #E7A544",
"f c #EBA744",
"g c #ECA844",
"h c #F2AB44",
"j c #F3AC44",
"k c #F4AC44",
"l c #F5AD44",
"z c gray75",
/* pixels */
"zzzzzzzzzzzzzzzzzzzzzzzzzzzz",
"zllllllllllhjllhljlllllllllz",
"zlllllllllljlllllllllllllljz",
"zjlljlllllllhhlhjljljlllljlz",
"zlllllllllllljlllljjjhlhjjlz",
"zllllllllllllhhlljljjlhlljjz",
"zlllllllllllllhgglllljhdairz",
"zlllllllllllllgpupspyt0721-z",
"zlllllllllllllgy8552>*$X.XXz",
"zlllllllllllllju>+.  .XO@&-z",
"zllllllllllllllp:X   .@:2esz",
"zlllllllllllllju:X.  .#:4wiz",
"zlllllllllllllfy4@..  .O$*>z",
"zlllllllllllljlgr1*&@O.XX.Xz",
"zlllllfssglllllldy001-%X ..z",
"zlllllhghlllhhlhjgspr071,;$z",
"zllllllllhljjljllhhhfdsurw2z",
"zllllllllljljllljllllllffsyz",
"zlllllllllllllllljlllhllhlgz",
"zlllllllllllllllllhlhhlllllz",
"zlllllllllllllllljjjhhjljhjz",
"zllllllllllllllllljjlhjljhlz",
"zllllllllllllllllljljllljjlz",
"zllllllllllllllllllllllllljz",
"zzzzzzzzzzzzzzzzzzzzzzzzzzzz"
};
