/* XPM */
static char *face________OnK_[] = {
/* columns rows colors chars-per-pixel */
"32 34 29 1",
"  c #444444",
". c #454644",
"X c #464B44",
"o c #4F6744",
"O c #4F6944",
"+ c #537644",
"@ c #557D44",
"# c #578344",
"$ c #588844",
"% c #5A8D44",
"& c #5C9444",
"* c #5D9744",
"= c #5D9844",
"- c #5FA044",
"; c #61A544",
": c #62A944",
"> c #64AF44",
", c #68BD44",
"< c #6ED244",
"1 c #6FD644",
"2 c #71DD44",
"3 c #73E244",
"4 c #76EE44",
"5 c #7CFF44",
"6 c #81FF44",
"7 c #87FF44",
"8 c #8BFF44",
"9 c #8FFF44",
"0 c gray75",
/* pixels */
"00000000000000000000000000000000",
"09999999999999999999999999999990",
"09999999999999999999999999999990",
"09999999999999999999999999999990",
"09999999999999999999999999999990",
"09999999999999999999999999999990",
"09999999999999999999999999999990",
"09999999999999999999999999999990",
"09999999999999999999999999999990",
"09999999999999999999999999999990",
"09999999999999999999999999999990",
"09999999999999999999999999999990",
"09999999999999999999999999999990",
"09999999999999999999999999999990",
"09999999999999999999999999999990",
"09999999999999999999999999999990",
"09999999999999999999999999999990",
"09999999999999999999999999999990",
"09999999999999999999999999999990",
"09999999999999979999999999999990",
"099999999999998<5899999999999990",
"099999999999998:>699999999999990",
"099999999999999=o499999999999990",
"099999999999998*X189999999999990",
"099999999999998&.;69999999999990",
"099999999999998%.o38999999999990",
"099999999999998$..,7999999999990",
"099999999999998#..>7999999999990",
"099999999999998@. *6999999999990",
"099999999999997+. O2899999999990",
"099999999999998+. .:699999999990",
"099999999999998+.  *699999999990",
"099999999999998+   #599999999990",
"00000000000000000000000000000000"
};
