/* XPM */
static char *face________OnK_[] = {
/* columns rows colors chars-per-pixel */
"55 15 28 1",
"  c #FF6666",
". c #FF6A66",
"X c #FF6D66",
"o c #FF7066",
"O c #FF7766",
"+ c #FF7966",
"@ c #FF7E66",
"# c #FF8166",
"$ c #FF8866",
"% c #FF9266",
"& c #FF9766",
"* c #FF9A66",
"= c #FF9C66",
"- c #FFA966",
"; c #FFB366",
": c #FFB666",
"> c #FFBA66",
", c #FFC266",
"< c #FFC866",
"1 c #FFCE66",
"2 c #FFD566",
"3 c #FFDB66",
"4 c #FFE266",
"5 c #FFEA66",
"6 c #FFF666",
"7 c #FFFB66",
"8 c #FFFF66",
"9 c gray75",
/* pixels */
"9999999999999999999999999999999999999999999999999999999",
"9888888888888888888888888888888888888888888888888888889",
"9888888888888888888888888888888888888888888888888888889",
"9888888888888888888888888888888888888888888888888888889",
"9188888888888888888888888888888888888888888888888888889",
"9.;8888888888888888888888888888888888888888888888888889",
"9  @288888888888888888888888888888888888888888888888889",
"9    %7888888888888888888888888888888888888888888888889",
"9    X+-68888888888888888888888888888888888888888888889",
"9.     o$;588888888888888888888888888888888888888888889",
"93&X     X$-3888888888888888888888888888888888888888889",
"988<=+     .@=,5888888888888888888888888888888888888889",
"988881=@X      +&:4888888888888888888888888888888888889",
"98888881*#o.      .O%>358888888888888888888888888888889",
"9999999999999999999999999999999999999999999999999999999"
};
