/* XPM */
static char *face_________OnK_[] = {
/* columns rows colors chars-per-pixel */
"15 14 32 1",
"  c #444444",
". c #454744",
"X c #464B44",
"o c #484F44",
"O c #485044",
"+ c #495444",
"@ c #4B5C44",
"# c #4F6944",
"$ c #506C44",
"% c #527144",
"& c #547844",
"* c #578544",
"= c #5A8D44",
"- c #5A8E44",
"; c #5B9144",
": c #5E9B44",
"> c #62A844",
", c #62AA44",
"< c #63AE44",
"1 c #68BE44",
"2 c #6CCC44",
"3 c #6DD044",
"4 c #6FD644",
"5 c #72DF44",
"6 c #77F244",
"7 c #78F344",
"8 c #7BFE44",
"9 c #81FF44",
"0 c #85FF44",
"q c #89FF44",
"w c #8FFF44",
"e c gray75",
/* pixels */
"eeeeeeeeeeeeeee",
"ewwwwwwwwwwwwwe",
"ewwwwwwwwwwwwwe",
"ewwwwwwwwwwwwwe",
"ewwwwwwwwwwwwwe",
"ewwwwwwwwwwwwwe",
"ewwwwwwwwwwwwwe",
"ewwwwwwwwwwwwwe",
"ewwwwwwwwwwww9e",
"ewwwwwq08741,;e",
"eq98651,:*$#oXe",
"e3,-*$o. .o@$%e",
"eX.XO+@$$&-<25e",
"eeeeeeeeeeeeeee"
};
