/* XPM */
static char *face________OffK_[] = {
/* columns rows colors chars-per-pixel */
"18 21 2 1",
"  c #F5AD44",
". c gray75",
/* pixels */
"..................",
".                .",
".                .",
".                .",
".                .",
".                .",
".                .",
".                .",
".                .",
".                .",
".                .",
".                .",
".                .",
".                .",
".                .",
".                .",
".                .",
".                .",
".                .",
".                .",
".................."
};
