/* XPM */
static char *face_________OffK_[] = {
/* columns rows colors chars-per-pixel */
"17 17 46 1",
"  c #444444",
". c #454544",
"X c #464544",
"o c #494744",
"O c #4D4944",
"+ c #4E4A44",
"@ c #595044",
"# c #595144",
"$ c #5C5344",
"% c #605544",
"& c #655844",
"* c #675944",
"= c #746044",
"- c #766244",
"; c #796444",
": c #7B6444",
"> c #806744",
", c #856A44",
"< c #8F7044",
"1 c #967544",
"2 c #997744",
"3 c #9D7944",
"4 c #A17B44",
"5 c #A47D44",
"6 c #AD8344",
"7 c #AE8344",
"8 c #B18544",
"9 c #B48644",
"0 c #C49044",
"q c #C89244",
"w c #CB9444",
"e c #CF9744",
"r c #D29844",
"t c #D79B44",
"y c #DB9E44",
"u c #DEA044",
"i c #E0A044",
"p c #E5A344",
"a c #E5A444",
"s c #ECA844",
"d c #EEA944",
"f c #EFA944",
"g c #F3AC44",
"h c #F4AC44",
"j c #F5AD44",
"k c gray75",
/* pixels */
"kkkkkkkkkkkkkkkkk",
"khhhga6# X    .$k",
"khhhgt<X   X  +;k",
"khhhd0;  X    #1k",
"khhja9*X O .  $9k",
"khhjy6#X  ..  $9k",
"khhju4#X   .  $2k",
"khhhu4#X   .  O;k",
"khhha8*      .O#k",
"khhhd0;      . +k",
"khhhhy2+       .k",
"khhhgdw,      .Xk",
"khhhhhd0;+    .Xk",
"khhhjjhd0:#O   Ok",
"kjhjjjhhgr3-$+  k",
"kjjjjjhhhhde5;$#k",
"kkkkkkkkkkkkkkkkk"
};
