/* XPM */
static char *face________OnK_[] = {
/* columns rows colors chars-per-pixel */
"28 25 29 1",
"  c #FF6666",
". c #FF6A66",
"X c #FF6E66",
"o c #FF7066",
"O c #FF7666",
"+ c #FF8066",
"@ c #FF8666",
"# c #FF8766",
"$ c #FF9166",
"% c #FF9A66",
"& c #FF9F66",
"* c #FFA566",
"= c #FFA866",
"- c #FFAD66",
"; c #FFB466",
": c #FFB766",
"> c #FFC766",
", c #FFCB66",
"< c #FFCC66",
"1 c #FFD266",
"2 c #FFD666",
"3 c #FFD966",
"4 c #FFE066",
"5 c #FFEB66",
"6 c #FFED66",
"7 c #FFF366",
"8 c #FFF566",
"9 c #FFFF66",
"0 c gray75",
/* pixels */
"0000000000000000000000000000",
"0999999999999999999999999990",
"0999999999999999999999999990",
"0999999999999999999999999990",
"0999999999999999999999999990",
"0999999999999999999999999990",
"0999999999999999999999999990",
"0999999999999999999999952,&0",
"09999999999999997441;&@o  .0",
"0999999999999999;O    .O+$=0",
"0999999999999999-X   .+=2990",
"0999999999999999-o   .+;3990",
"09999999999999993+    .O@%;0",
"09999999999999999>&$+X....X0",
"09999999999999999998<*#o   0",
"09999999999999999999996<;*@0",
"0999999999999999999999999910",
"0999999999999999999999999990",
"0999999999999999999999999990",
"0999999999999999999999999990",
"0999999999999999999999999990",
"0999999999999999999999999990",
"0999999999999999999999999990",
"0999999999999999999999999990",
"0000000000000000000000000000"
};
