/* XPM */
static char *face_________OnK_[] = {
/* columns rows colors chars-per-pixel */
"32 32 45 1",
"  c #444444",
". c #464B44",
"X c #474E44",
"o c #485044",
"O c #495544",
"+ c #4A5944",
"@ c #4C5D44",
"# c #4D6144",
"$ c #4E6444",
"% c #506B44",
"& c #506D44",
"* c #527244",
"= c #537544",
"- c #547B44",
"; c #557D44",
": c #568044",
"> c #568244",
", c #588744",
"< c #598B44",
"1 c #5A8E44",
"2 c #5B9144",
"3 c #5B9244",
"4 c #5C9444",
"5 c #5D9944",
"6 c #5E9C44",
"7 c #5F9E44",
"8 c #61A744",
"9 c #64B044",
"0 c #66B644",
"q c #69C244",
"w c #6ED144",
"e c #6FD444",
"r c #72DF44",
"t c #74E744",
"y c #76EC44",
"u c #77F144",
"i c #78F544",
"p c #7AFA44",
"a c #7AFC44",
"s c #7EFF44",
"d c #81FF44",
"f c #84FF44",
"g c #8AFF44",
"h c #8FFF44",
"j c gray75",
/* pixels */
"jjjjjjjjjjjjjjjjjjjjjjjjjjjjjjjj",
"jhhhhhhhhhhhhhhhhhhhhhhhhhhhhhhj",
"jhhhhhhhhhhhhhhhhhhhhhhhhhhhhhhj",
"jhhhhhhhhhhhhhhhhhhhhhhhhhhhhhhj",
"jhhhhhhhhhhhhhhhhhhhhhhhhhhhhhhj",
"jhhhhhhhhhhhhhhhhhhhhhhhhhhhhhhj",
"jhhhhhhhhhhhhhhhhhhhhhhhhhhhhhhj",
"jhhhhhhhhhhhhhhhhhhhhhhhhhhhhhhj",
"jhhhhhhhhhhhhhhhhhhhhhhhhhhhhhhj",
"jhhhhhhhhhhhhhhhhhhhhhhhhhhhhhhj",
"jhhhhhhhhhhhhhhhhhhhhhhhhhhhhhhj",
"jhhhhhhhhhhhhhhhhhhhhhhhhhhhhhhj",
"jhhhhhhhhhhhhhhhhhhhhhhhhhhhhhhj",
"jhhhhhhhhhhhhhhhhhhhhhhhhhhhhhhj",
"jhhhhhhhhhhhhhhhhhhhhhhhhhhhhhhj",
"jhhhhhhhhhhhhhhhhhhhhhhhhhhhhhhj",
"jhhhhhhhhhhhhhhhhhhhhhhhhhhhhgsj",
"jhhhhhhhhhhhhhhhhhhhhhhhhhhdw<+j",
"jhhhhhhhhhhhhhhhhhhhhggfu02&+X j",
"jddddssuyisdfffdsateq8,=$+X.   j",
"j;::;-*%&*=;:,::-*%$@O.      .#j",
"j X                       O*4qyj",
"j                  .oO#:80wpsfhj",
"j<<111225752<1<11479qwrpdfghhhhj",
"jssssssssddsssassdffghhhhhhhhhhj",
"jhhhhhhhhhhhhhhhhhhhhhhhhhhhhhhj",
"jhhhhhhhhhhhhhhhhhhhhhhhhhhhhhhj",
"jhhhhhhhhhhhhhhhhhhhhhhhhhhhhhhj",
"jhhhhhhhhhhhhhhhhhhhhhhhhhhhhhhj",
"jhhhhhhhhhhhhhhhhhhhhhhhhhhhhhhj",
"jhhhhhhhhhhhhhhhhhhhhhhhhhhhhhhj",
"jjjjjjjjjjjjjjjjjjjjjjjjjjjjjjjj"
};
