/* XPM */
static char *face________OffK_[] = {
/* columns rows colors chars-per-pixel */
"55 15 53 1",
"  c #444444",
". c #474644",
"X c #484744",
"o c #4C4944",
"O c #4E4A44",
"+ c #524D44",
"@ c #554E44",
"# c #5C5244",
"$ c #635644",
"% c #675944",
"& c #695A44",
"* c #6A5B44",
"= c #736044",
"- c #796344",
"; c #7A6444",
": c #7C6644",
"> c #7F6744",
", c #856A44",
"< c #896D44",
"1 c #8D6F44",
"2 c #8E7044",
"3 c #927244",
"4 c #967544",
"5 c #9B7744",
"6 c #A07B44",
"7 c #A57E44",
"8 c #A98044",
"9 c #AC8244",
"0 c #B58744",
"q c #B68844",
"w c #B98944",
"e c #BD8C44",
"r c #C49044",
"t c #C99344",
"y c #CB9444",
"u c #D39944",
"i c #D59A44",
"p c #D89C44",
"a c #D99D44",
"s c #DE9F44",
"d c #DEA044",
"f c #E3A244",
"g c #E5A444",
"h c #E7A544",
"j c #E9A644",
"k c #EAA744",
"l c #EEA944",
"z c #F1AA44",
"x c #F3AC44",
"c c #F4AC44",
"v c #F4AD44",
"b c #F5AD44",
"n c gray75",
/* pixels */
"nnnnnnnnnnnnnnnnnnnnnnnnnnnnnnnnnnnnnnnnnnnnnnnnnnnnnnn",
"nxccccccbbbbbbbbbbbbbbbbbbbbbbbbbbbbbbbbbbbbbbbbbbbbbbn",
"ncccbbcbbbbbbbbbbbbbbbbbbbbbbbbbbbbbbbbbbbbbbbbbbbbbbbn",
"niccbccbbbbbbbbbbbbbbbbbbbbbbbbbbbbbbbbbbbbbbbbbbbbbbbn",
"n2tkbxxxccbbbbbbbbbbbbbbbbbbbbbbbbbbbbbbbbbbbbbbbbbbbbn",
"nX;qfxcccbbbbbbbbbbbbbbbbbbbbbbbbbbbbbbbbbbbbbbbbbbbbbn",
"n  @3ukxbbbbbbbbbbbbbbbbbbbbbbbbbbbbbbbbbbbbbbbbbbbbbbn",
"n    $9fcbbbbbbcbbbbbbbbbbbbbbbbbbbbbbbbbbbbbbbbbbbbbbn",
"n    X+=7azcccccbbbbcbccbbbbbbbbbbbbbbbbbbbbbbbbbbbbcbn",
"nX     O#;5ykcccbbxbcccccccbcbbbbbbbbbbbbbbbbbbbbbbbccn",
"n4% X    O$=40ikxbbbbbxxccccbbbbbbbbbbbbbbbbbbbbbbbbccn",
"ndq1*OX    X@*,5etdlcbxxccbcbbbbbbbcbbbbbbbbbbbbbbbbxxn",
"nxcsq2*@X X    +%:5qruafkxxxbccccbbcbbbcbbbbxccbbbxxxxn",
"nxccche2*@OX      XO$>48wtuaddfjkkklklkllkkllklkkkfhddn",
"nnnnnnnnnnnnnnnnnnnnnnnnnnnnnnnnnnnnnnnnnnnnnnnnnnnnnnn"
};
