/* XPM */
static char *face_______OffK_[] = {
/* columns rows colors chars-per-pixel */
"19 19 36 1",
"  c #444444",
". c #454544",
"X c #4F4B44",
"o c #514C44",
"O c #554E44",
"+ c #5F5444",
"@ c #635744",
"# c #6C5C44",
"$ c #756144",
"% c #7A6444",
"& c #7E6744",
"* c #846A44",
"= c #876C44",
"- c #8E7044",
"; c #947344",
": c #987644",
"> c #A37C44",
", c #A77F44",
"< c #B28544",
"1 c #B98A44",
"2 c #BF8D44",
"3 c #C28F44",
"4 c #C69144",
"5 c #CA9344",
"6 c #CD9544",
"7 c #D29844",
"8 c #D59A44",
"9 c #D99C44",
"0 c #DFA044",
"q c #E6A444",
"w c #E9A644",
"e c #ECA844",
"r c #F2AB44",
"t c #F3AC44",
"y c #F5AD44",
"u c gray75",
/* pixels */
"uuuuuuuuuuuuuuuuuuu",
"uyyyyyyyyyyyyyyyyyu",
"uyyyyyyyyyyyyyyyyyu",
"uyyyyyyyyyyyyyyyyyu",
"uyyyyyyyyyyyyyyyyyu",
"uyyyyyyyyyyyyyyyyyu",
"uyyyyyyyyyyyyyyyyyu",
"uyyyyyyyyyyyyyyyyyu",
"uyyyyyyyyyyyyyyyyyu",
"uyyyyyyyyyyyyyyyyyu",
"uyyyyyyyyyyyyyyyyyu",
"uyyyyyyyyyyyyyyyyyu",
"uyyyyyyyyyyyyyyyyyu",
"utyyyyyyyyyyyyrewqu",
"uyyttrw0976542<>:;u",
"u8631<,:-*&%$#+o. u",
"u=$@OXX.          u",
"u.....      ...   u",
"uuuuuuuuuuuuuuuuuuu"
};
