/* XPM */
static char *face_________OffK_[] = {
/* columns rows colors chars-per-pixel */
"17 23 52 1",
"  c #444444",
". c #484744",
"X c #4D4944",
"o c #514C44",
"O c #564F44",
"+ c #575044",
"@ c #5A5144",
"# c #5C5344",
"$ c #5D5344",
"% c #635644",
"& c #675944",
"* c #685944",
"= c #6B5C44",
"- c #6F5E44",
"; c #725F44",
": c #736044",
"> c #776244",
", c #7B6544",
"< c #816844",
"1 c #896D44",
"2 c #8C6F44",
"3 c #917244",
"4 c #987644",
"5 c #9F7A44",
"6 c #A57D44",
"7 c #A88044",
"8 c #AC8244",
"9 c #B28544",
"0 c #B78844",
"q c #BA8A44",
"w c #BE8D44",
"e c #BF8D44",
"r c #C08D44",
"t c #C49044",
"y c #C59044",
"u c #C99344",
"i c #CC9544",
"p c #D39944",
"a c #DB9D44",
"s c #DC9E44",
"d c #DFA044",
"f c #E1A144",
"g c #E5A344",
"h c #E6A444",
"j c #E9A644",
"k c #ECA844",
"l c #EDA844",
"z c #F2AB44",
"x c #F4AC44",
"c c #F4AD44",
"v c #F5AD44",
"b c gray75",
/* pixels */
"bbbbbbbbbbbbbbbbb",
"bvvvvvvvvvvvvvvvb",
"bvvvvvvvvvvvvvvvb",
"bvvvvvvvvvvvvvcvb",
"bvccvvvvvvvvvczvb",
"bvcczcvvvvvvvvvvb",
"bvvvvvvvvvvvvvvvb",
"bvvvvvvzkkkkjjgfb",
"bgkkkjfapiiurr95b",
"bqryyq9643322<;$b",
"b&->:=%@@OOOOoX.b",
"b               b",
"b         . .XO@b",
"b      XO%*;,258b",
"b%&&*>><2468qiafb",
"b790wrripsffhkzvb",
"bdhjjkkzzcccvvvvb",
"bzcvvvvvvvvvvvvvb",
"bvvvvvvvvvvczczxb",
"bcvvvvvvvvvcvvvvb",
"bvvvvvvvvvvvvvvvb",
"bvvvvvvvvvvvvvvvb",
"bbbbbbbbbbbbbbbbb"
};
