/* XPM */
static char *face_________OnK_[] = {
/* columns rows colors chars-per-pixel */
"17 23 33 1",
"  c #FF6666",
". c #FF6A66",
"X c #FF6E66",
"o c #FF7266",
"O c #FF7466",
"+ c #FF7966",
"@ c #FF7E66",
"# c #FF8366",
"$ c #FF8566",
"% c #FF8C66",
"& c #FF9666",
"* c #FF9A66",
"= c #FF9F66",
"- c #FFA066",
"; c #FFA666",
": c #FFAB66",
"> c #FFAD66",
", c #FFB366",
"< c #FFB566",
"1 c #FFBE66",
"2 c #FFC366",
"3 c #FFC666",
"4 c #FFC966",
"5 c #FFCC66",
"6 c #FFD166",
"7 c #FFD466",
"8 c #FFDD66",
"9 c #FFE866",
"0 c #FFEA66",
"q c #FFEF66",
"w c #FFF066",
"e c #FFFF66",
"r c gray75",
/* pixels */
"rrrrrrrrrrrrrrrrr",
"reeeeeeeeeeeeeeer",
"reeeeeeeeeeeeeeer",
"reeeeeeeeeeeeeeer",
"r60eeeeeeeeeeeeer",
"r#%-,30eeeeeeeeer",
"r  .o@&1460eeeeer",
"r%@OX.XoO+%>48qer",
"rw3:&$o.X. o#%&;r",
"reeeq7:&%@X.    r",
"reeeeeeew2*#O..Xr",
"reeeeeeeeeeq6<;=r",
"reeeeeeeeeeeeeeer",
"reeeeeeeeeeeeeeer",
"reeeeeeeeeeeeeeer",
"reeeeeeeeeeeeeeer",
"reeeeeeeeeeeeeeer",
"reeeeeeeeeeeeeeer",
"reeeeeeeeeeeeeeer",
"reeeeeeeeeeeeeeer",
"reeeeeeeeeeeeeeer",
"reeeeeeeeeeeeeeer",
"rrrrrrrrrrrrrrrrr"
};
