/* XPM */
static char *face_________OffK_[] = {
/* columns rows colors chars-per-pixel */
"28 25 71 1",
"  c #444444",
". c #464544",
"X c #484744",
"o c #494744",
"O c #4A4844",
"+ c #4D4A44",
"@ c #504B44",
"# c #524D44",
"$ c #544E44",
"% c #574F44",
"& c #575044",
"* c #5B5244",
"= c #5D5344",
"- c #5E5344",
"; c #635644",
": c #645744",
"> c #665844",
", c #6A5A44",
"< c #6B5B44",
"1 c #6D5C44",
"2 c #6E5D44",
"3 c #705E44",
"4 c #736044",
"5 c #756144",
"6 c #786344",
"7 c #7D6644",
"8 c #806744",
"9 c #826944",
"0 c #846A44",
"q c #876C44",
"w c #886D44",
"e c #8F7144",
"r c #927344",
"t c #957444",
"y c #967544",
"u c #997644",
"i c #9C7844",
"p c #9E7A44",
"a c #A07A44",
"s c #A27C44",
"d c #A57E44",
"f c #AA8144",
"g c #AC8144",
"h c #B18444",
"j c #B58744",
"k c #B68844",
"l c #B88944",
"z c #BF8D44",
"x c #C08E44",
"c c #C49044",
"v c #C79244",
"b c #C89244",
"n c #CA9344",
"m c #CC9544",
"M c #CF9744",
"N c #D29944",
"B c #D79B44",
"V c #D89C44",
"C c #DC9E44",
"Z c #DFA044",
"A c #E1A144",
"S c #E4A344",
"D c #E5A444",
"F c #EAA744",
"G c #ECA744",
"H c #EEA944",
"J c #F1AA44",
"K c #F3AC44",
"L c #F4AC44",
"P c #F5AD44",
"I c gray75",
/* pixels */
"IIIIIIIIIIIIIIIIIIIIIIIIIIII",
"IPPPPPPPPPPPPPPPPPPKJPJPPPPI",
"IPPKPPPPPPPPKPPPPPPKPPJPPKPI",
"IPPPJPPPPPPPPPPKKKPPPPPJKPPI",
"ICGJKPPPPPKKKPKKKPKKPPPKPPPI",
"I9rdlvVFKPKPKPKKKPPPPPKPPPPI",
"I.+*,5qpfknCAFKPKPPJHHKKPPPI",
"I6,*@O.+$-6eyfzvBZZBBAJPPPPI",
"INlsr72-*+...+;39yupjVJPPPPI",
"IKPKJZvha9,-#+..  .=sAKPPPPI",
"IKKHJJPPJFBg9,O.  .#sDPPPPPI",
"IJJJJPJHFCmgq2O. ..&pZPPPPPI",
"IPJPPHBzge5;$O.... 2gVHPPPPI",
"IHSVmly7<#.....#=>4pVJPKPPPI",
"Imhr7>&+O.. .+:6uhvVHKKPPPPI",
"Iw3*+O...O;69yglmCFHKKPKPPPI",
"I$+oo@$>25pxnBSFHJPLPPJPKPPI",
"I.o$>6rfzzVFFPPPPPPJPPPPPPPI",
"I,5wajmAHHKJPPLPPPLPPPPPPPPI",
"IgvmCSGPPPKPPPJJLLLPPPPPPPPI",
"ISPPPPPPPPJKKPJPPJJPPPPPPPPI",
"IJPPPPPPPPPJKPKJJPPPPPPPPPPI",
"IPPPPPPPPJPKPPPPPPPPPPPPPPPI",
"IPPJPPPPPPKPKPPPPPPPPPPPPPPI",
"IIIIIIIIIIIIIIIIIIIIIIIIIIII"
};
