/* XPM */
static char *face_________OffK_[] = {
/* columns rows colors chars-per-pixel */
"30 22 2 1",
"  c #9A7744",
". c gray75",
/* pixels */
"..............................",
".                            .",
".                            .",
".                            .",
".                            .",
".                            .",
".                            .",
".                            .",
".                            .",
".                            .",
".                            .",
".                            .",
".                            .",
".                            .",
".                            .",
".                            .",
".                            .",
".                            .",
".                            .",
".                            .",
".                            .",
".............................."
};
