/* XPM */
static char *face________OnK_[] = {
/* columns rows colors chars-per-pixel */
"19 18 37 1",
"  c #444444",
". c #444544",
"X c #464B44",
"o c #485044",
"O c #485144",
"+ c #4B5944",
"@ c #4E6644",
"# c #516E44",
"$ c #527444",
"% c #557C44",
"& c #557E44",
"* c #588644",
"= c #598C44",
"- c #5A8F44",
"; c #5D9844",
": c #5E9A44",
"> c #5F9D44",
", c #61A644",
"< c #64AF44",
"1 c #66B844",
"2 c #67B844",
"3 c #68BD44",
"4 c #69C044",
"5 c #6AC544",
"6 c #6DCE44",
"7 c #71DB44",
"8 c #73E444",
"9 c #75E944",
"0 c #78F244",
"q c #78F344",
"w c #7AFA44",
"e c #7EFF44",
"r c #81FF44",
"t c #84FF44",
"y c #8AFF44",
"u c #8FFF44",
"i c gray75",
/* pixels */
"iiiiiiiiiiiiiiiiiii",
"iuuuuuuuuuuuuuuuuui",
"iuuuuuuuuuuuuuuuuui",
"iuuuuuuuuuuuuuuuuui",
"iuuuuuuuuuuuuuuuuui",
"iuuuuuuuuuuuuuuuuui",
"iuuuuuuuuuuuuuuuuui",
"iuuuuuuuuuuuuuuuuui",
"iuuuuuuuuuuuuuuuuui",
"iuuuuuuuuuuuuuuuuui",
"iuuuuuuuuuuuuuuuuui",
"iuuuuuuuuuuuuuuuuui",
"iytrrttuuyyuuuuuuui",
"ie2:>,<2345679qweei",
"i0#.  XXXXO+@$&*=:i",
"ie=o              i",
"iu8&X   . ....    i",
"iiiiiiiiiiiiiiiiiii"
};
