/* XPM */
static char *face_________OnK_[] = {
/* columns rows colors chars-per-pixel */
"30 22 2 1",
"  c #69C044",
". c gray75",
/* pixels */
"..............................",
".                            .",
".                            .",
".                            .",
".                            .",
".                            .",
".                            .",
".                            .",
".                            .",
".                            .",
".                            .",
".                            .",
".                            .",
".                            .",
".                            .",
".                            .",
".                            .",
".                            .",
".                            .",
".                            .",
".                            .",
".............................."
};
