/* XPM */
static char *face_________OffK_[] = {
/* columns rows colors chars-per-pixel */
"15 14 40 1",
"  c #444444",
". c #4B4747",
"X c #4C4747",
"o c #4F4949",
"O c #534A4A",
"+ c #564C4C",
"@ c #584C4C",
"# c #5B4E4E",
"$ c #5D4E4E",
"% c #675252",
"& c #6F5555",
"* c #745757",
"= c #775959",
"- c #7C5B5B",
"; c #845E5E",
": c #8B6161",
"> c #8F6262",
", c #926363",
"< c #926464",
"1 c #976565",
"2 c #986666",
"3 c #A26A6A",
"4 c #AB6D6D",
"5 c #AE6F6F",
"6 c #BB7474",
"7 c #BC7474",
"8 c #C87979",
"9 c #CF7C7C",
"0 c gray75",
"q c #E08383",
"w c #F18A8A",
"e c #FA8D8D",
"r c #FF8F8F",
"t c #FF9191",
"y c #FF9797",
"u c #FF9999",
"i c #FF9D9D",
"p c #FFA2A2",
"a c #FFA5A5",
"s c #FFAAAA",
/* pixels */
"000000000000000",
"0sssssssssssss0",
"0sssssssssssss0",
"0sssssssssssss0",
"0sssssssssssss0",
"0sasssssssssss0",
"0yyuippaaasass0",
"0+$%*;1478qryp0",
"0  ..oO@$$%&-;0",
"0##O.       ..0",
"0986531,,>:;=%0",
"0aapiyyttrewq80",
"0sssssssssssss0",
"000000000000000"
};
