/* XPM */
static char *face_________OnK_[] = {
/* columns rows colors chars-per-pixel */
"17 23 45 1",
"  c #444444",
". c #444544",
"X c #464B44",
"o c #474E44",
"O c #485144",
"+ c #4B5A44",
"@ c #4B5C44",
"# c #4C5D44",
"$ c #4C6044",
"% c #4F6744",
"& c #506B44",
"* c #527144",
"= c #537644",
"- c #557D44",
"; c #578244",
": c #578444",
"> c #598B44",
", c #5A8D44",
"< c #5C9344",
"1 c #5E9B44",
"2 c #5E9C44",
"3 c #62A744",
"4 c #63AB44",
"5 c #63AE44",
"6 c #65B344",
"7 c #68BD44",
"8 c #69C044",
"9 c #6BC744",
"0 c #6DCF44",
"q c #6FD444",
"w c #71DB44",
"e c #71DD44",
"r c #73E244",
"t c #74E644",
"y c #75EA44",
"u c #76ED44",
"i c #78F444",
"p c #78F544",
"a c #7BFE44",
"s c #7EFF44",
"d c #81FF44",
"f c #85FF44",
"g c #88FF44",
"h c #8FFF44",
"j c gray75",
/* pixels */
"jjjjjjjjjjjjjjjjj",
"jhhhhhhhhhhhhhhhj",
"jhhhhhhhhhhhhhhhj",
"jhhhhhhhhhhhhhhhj",
"jhhhhhhhhhhhhhhhj",
"jhhhhhhhhhhhhhhhj",
"jhhhhhhhhhhhhhhhj",
"jhhhhhhhhghghggfj",
"jghfhgffdsssair9j",
"jtissuwq766532:%j",
"j=;,;-*&$##@++OXj",
"j   ..          j",
"j         XXXO+$j",
"j      o#&=;<49wj",
"j*==-:,1580wudfgj",
"jqryuissdffggghhj",
"jfgghghhhhhhhhhhj",
"jhhhhhhhhhhhhhhhj",
"jhhhhhhhhhhhhhhhj",
"jhhhhhhhhhhhhhhhj",
"jhhhhhhhhhhhhhhhj",
"jhhhhhhhhhhhhhhhj",
"jjjjjjjjjjjjjjjjj"
};
