/* XPM */
static char *face_________OffK_[] = {
/* columns rows colors chars-per-pixel */
"32 34 32 1",
"  c #454444",
". c gray27",
"X c #484646",
"o c #504949",
"O c #514A4A",
"+ c #554B4B",
"@ c #5D4E4E",
"# c #635151",
"$ c #745858",
"% c #765858",
"& c #795959",
"* c #7B5A5A",
"= c #815D5D",
"- c #896060",
"; c #946464",
": c #9A6767",
"> c #A76C6C",
", c #AC6E6E",
"< c #C37777",
"1 c gray75",
"2 c #D98080",
"3 c #E48484",
"4 c #EB8787",
"5 c #F38A8A",
"6 c #FB8D8D",
"7 c #FF9292",
"8 c #FF9494",
"9 c #FF9898",
"0 c #FF9D9D",
"q c #FFA1A1",
"w c #FFA7A7",
"e c #FFAAAA",
/* pixels */
"11111111111111111111111111111111",
"1eeeeeeeeeeeeeeeeeeeeeeeeeeeeee1",
"1eeeeeeeeeeeeeeeeeeeeeeeeeeeeee1",
"1eeeeeeeeeeeeeeeeeeeeeeeeeeeeee1",
"1eeeeeeeeeeeeeeeeeeeeeeeeeeeeee1",
"1eeeeeeeeeeeeeeeeeeeeeeeeeeeeee1",
"1eeeeeeeeeeeeeeeeeeeeeeeeeeeeee1",
"1eeeeeeeeeeeeeeeeeeeeeeeeeeeeee1",
"1eeeeeeeeeeeeeeeeeeeeeeeeeeeeee1",
"1eeeeeeeeeeeeeeeeeeeeeeeeeeeeee1",
"1eeeeeeeeeeeeeeeeeeeeeeeeeeeeee1",
"1eeeeeeeeeeeeeeeeeeeeeeeeeeeeee1",
"1eeeeeeeeeeeeeeeeeeeeeeeeeeeeee1",
"1eeeeeeeeeeeeeeeeeeeeeeeeeeeeee1",
"1eeeeeeeeeeeeeeeeeeeeeeeeeeeeee1",
"1eeeeeeeeeeeeeeeeeeeeeeeeeeeeee1",
"1eeeeeeeeeeeeeeeeeeeeeeeeeeeeee1",
"1eeeeeeeeeeeeeeeeeeeeeeeeeeeeee1",
"1eeeeeeeeeeeeeeeeeeeeeeeeeeeeee1",
"1eeeeeeeeeeeeeeeeeeeeeeeeeeeeee1",
"1eeeeeeeeeeeeeeeeeeeeeeeeeeeeee1",
"1eeeeeeeeeeeeeeeeeeeeeeeeeeeeee1",
"1eeeeeeeeeeeeeeeeeeeweeeweeeeee1",
"1eeeeeeeeeeeeeeeeeeeeee836weeee1",
"1eeeeeeeeeeeeeeeeeeeeee2%,0eeee1",
"1eeeeeeeeeeeeeeeeeeeee0>X&4eeee1",
"1eeeeeeeeeeeeeeeeeeeew5= +>0eee1",
"1eeeeeeeeeeeeeeeeeeeeq<@  &6wee1",
"1eeeeeeeeeeeeeeeeeeee0:   #<qee1",
"1eeeeeeeeeeeeeeeeeeew4&   O;8ee1",
"1eeeeeeeeeeeeeeeeeee0:O.   &8ee1",
"1eeeeeeeeeeeeeeeeeee0-     %7ee1",
"1eeeeeeeeeeeeeeeeeee7=     $7ee1",
"11111111111111111111111111111111"
};
