/* XPM */
static char *face_________OnK_[] = {
/* columns rows colors chars-per-pixel */
"20 21 33 1",
"  c #FF6666",
". c #FF6966",
"X c #FF6C66",
"o c #FF7266",
"O c #FF7666",
"+ c #FF7866",
"@ c #FF7C66",
"# c #FF8366",
"$ c #FF8766",
"% c #FF8B66",
"& c #FF8E66",
"* c #FF9366",
"= c #FF9666",
"- c #FF9B66",
"; c #FF9D66",
": c #FFA166",
"> c #FFA766",
", c #FFAA66",
"< c #FFAC66",
"1 c #FFB266",
"2 c #FFB866",
"3 c #FFBC66",
"4 c #FFC966",
"5 c #FFD266",
"6 c #FFD766",
"7 c #FFD966",
"8 c #FFE166",
"9 c #FFE666",
"0 c #FFEC66",
"q c #FFF566",
"w c #FFFB66",
"e c #FFFF66",
"r c gray75",
/* pixels */
"rrrrrrrrrrrrrrrrrrrr",
"reeeeeeeeeeeeeeeeeer",
"reeeeeeeeeeeeeeeeeer",
"reeeeeeeeeeeeeeeeeer",
"reeeeeeeeeeeeeeeeeer",
"r3469qe088885443222r",
"r+@#%*=*$%$$#@++OO+r",
"r              .   r",
"rX.          .     r",
"r&@oXXXX..........Xr",
"r07431<>:-==*=-;,>;r",
"reeeeeeeeeeqqweeeeer",
"reeeeeeeeeeeeeeeeeer",
"reeeeeeeeeeeeeeeeeer",
"reeeeeeeeeeeeeeeeeer",
"reeeeeeeeeeeeeeeeeer",
"reeeeeeeeeeeeeeeeeer",
"reeeeeeeeeeeeeeeeeer",
"reeeeeeeeeeeeeeeeeer",
"reeeeeeeeeeeeeeeeeer",
"rrrrrrrrrrrrrrrrrrrr"
};
