/* XPM */
static char *face________OffK_[] = {
/* columns rows colors chars-per-pixel */
"32 34 39 1",
"  c #444444",
". c #464544",
"X c #494744",
"o c #5C5344",
"O c #5E5444",
"+ c #675944",
"@ c #6C5C44",
"# c #736044",
"$ c #766244",
"% c #7B6544",
"& c #7D6644",
"* c #7F6744",
"= c #846A44",
"- c #876C44",
"; c #8A6E44",
": c #8E7044",
"> c #987644",
", c #A77F44",
"< c #AA8044",
"1 c #AE8344",
"2 c #B28544",
"3 c #BA8A44",
"4 c #CA9444",
"5 c #D39944",
"6 c #D49A44",
"7 c #D79B44",
"8 c #DD9F44",
"9 c #E1A144",
"0 c #E3A344",
"q c #E4A344",
"w c #E7A544",
"e c #E8A544",
"r c #EAA744",
"t c #ECA844",
"y c #F0AA44",
"u c #F3AC44",
"i c #F4AC44",
"p c #F5AD44",
"a c gray75",
/* pixels */
"aaaaaaaaaaaaaaaaaaaaaaaaaaaaaaaa",
"appppppppppppppppppppppppppppppa",
"appppppppppppppppppppppppppppppa",
"appppppppppppppppppppppppppppppa",
"appppppppppppppppppppppppppppppa",
"appppppppppppppppppppppppppppppa",
"appppppppppppppppppppppppppppppa",
"appppppppppppppppppppppppppppppa",
"appppppppppppppppppppppppppppppa",
"appppppppppppppppppppppppppppppa",
"appppppppppppppppppppppppppppppa",
"appppppppppppppppppppppppppppppa",
"appppppppppppppppppppppppppppppa",
"appppppppppppppppppppppppppppppa",
"appppppppppppppppppppppppppppppa",
"appppppppppppppppppppppppppppppa",
"appppppppppppppppppppppppppppppa",
"appppppppppppppppppppppppppppppa",
"appppppppppppppppppppppppppppppa",
"apppppppppppppt0yppppppppppppppa",
"appppppppppuput<4tpppppppppppppa",
"apppppppppppput;:6yppppppppppppa",
"appppppppupuupr=o3tppppppppppppa",
"apppppppppupppr*X<tppppppppppppa",
"apppppppppuuppt*.-7ppppppppppppa",
"appppppppuupppe#.o2euppupppupppa",
"apppppppppppppe#..>9pupuupuppppa",
"apppppppppppppe#..:9pppppppppppa",
"appppppppuppppw@. &5yppppppppppa",
"appppppppppuppw+. o1epppuupppppa",
"apppppppppppppw+. .;8pppppuppppa",
"appppppppppuppw+. .%5ppypppppppa",
"apppppppppppppw+.. @4tpypppppppa",
"aaaaaaaaaaaaaaaaaaaaaaaaaaaaaaaa"
};
