/* XPM */
static char *face________OnK_[] = {
/* columns rows colors chars-per-pixel */
"59 13 38 1",
"  c #444444",
". c #444544",
"X c #464A44",
"o c #474C44",
"O c #485144",
"+ c #4A5744",
"@ c #4A5944",
"# c #4B5B44",
"$ c #4D6144",
"% c #506B44",
"& c #516F44",
"* c #537744",
"= c #547B44",
"- c #598B44",
"; c #5A8D44",
": c #5C9344",
"> c #5C9544",
", c #5E9B44",
"< c #60A244",
"1 c #64B044",
"2 c #65B444",
"3 c #66B644",
"4 c #68BE44",
"5 c #69C244",
"6 c #6BC744",
"7 c #6ED144",
"8 c #71DA44",
"9 c #72DE44",
"0 c #73E444",
"q c #76EB44",
"w c #7AF944",
"e c #7FFF44",
"r c #80FF44",
"t c #86FF44",
"y c #89FF44",
"u c #8EFF44",
"i c #8FFF44",
"p c gray75",
/* pixels */
"ppppppppppppppppppppppppppppppppppppppppppppppppppppppppppp",
"p$+OX    o&-18rrryyyuuuuiiiiiiiiiiiiiiiuuuyyyttrr92,=@    p",
"p     @=,6qrryuuiiuiiiiiiiiiiiiiiiiiiiiiiiiiiiiiuyrrw94>*#p",
"p  o&:40etuiuuuuiiiiiiiiiiiiiiiiiiiiiiiiiiiiiiiiuuuiuutr05p",
"p +-7eyuiiiiiiiiiiiiiiiiiiiiiiiiiiiiiiiiiiiiiiiiiiiiuuuiiup",
"p+<ruuuuiiiiiiiiiiiiiiiiiiiiiiiiiiiiiiiiiiiiiiiiiiiiuuiiiip",
"p3uuiiiiiiiiiiiiiiiiiiiiiiiiiiiiiiiiiiiiiiiiiiiiiiiiiiiiiip",
"ptiiiiiiiiiiiiiiiiiiiiiiiiiiiiiiiiiiiiiiiiiiiiiiiiiiiiiiiip",
"puuiiiiiiiiiiiiiiiiiiiiiiiiiiiiiiiiiiiiiiiiiiiiiiiiiiiiiiip",
"puiiiiiiiiiiiiiiiiiiiiiiiiiiiiiiiiiiiiiiiiiiiiiiiiiiiiiiiip",
"piiiiiiiuuiiuiiiiiiiiiiiiiiiiiiiiiiiiiiiiiiiiiiiiiiiiiiiiip",
"puiiiiiiiuuuuyuuiiiiiiiiiiiiiiiiiiiiiiiiiiiiiiiiiiiiiiiiiip",
"ppppppppppppppppppppppppppppppppppppppppppppppppppppppppppp"
};
