/* XPM */
static char *face_______OnK_[] = {
/* columns rows colors chars-per-pixel */
"19 19 20 1",
"  c #FF6666",
". c #FF6A66",
"X c #FF7166",
"o c #FF7566",
"O c #FF7866",
"+ c #FF8C66",
"@ c #FF9266",
"# c #FF9E66",
"$ c #FFAC66",
"% c #FFB366",
"& c #FFB966",
"* c #FFC266",
"= c #FFC566",
"- c #FFCF66",
"; c #FFD866",
": c #FFDE66",
"> c #FFEE66",
", c #FFF466",
"< c #FFFF66",
"1 c gray75",
/* pixels */
"1111111111111111111",
"1<<<<<<<<<<<<<<<<<1",
"1<<<<<<<<<<<<<<<<<1",
"1<<<<<<<<<<<<<<<<<1",
"1<<<<<<<<<<<<<<<<<1",
"1<<<<<<<<<<<<<<<<<1",
"1<<<<<<<<<<<<<<<<<1",
"1<<<<<<<<<<<<<<<<<1",
"1<<<<<<<<<<<<<<<<<1",
"1<<<<<<<<<<<<<<<<<1",
"1<<<<<<<<<<<<<<<<<1",
"1<<<<<<<<<<<<<<<<<1",
"1<<<<<<<<<<<<<<<<<1",
"1<<<<<<<<<<<<<<<<<1",
"1<<<<<<<<<<<<<<>:;1",
"1<<<<<,:-*&%$#+O. 1",
"1=%@OoX.          1",
"1                 1",
"1111111111111111111"
};
