/* XPM */
static char *magick[] = {
/* columns rows colors chars-per-pixel */
"12 16 49 1",
"  c Gray0",
". c #0f0a0b",
"X c #100a0a",
"o c #100b0b",
"O c #120e0e",
"+ c #161011",
"@ c #161111",
"# c #171011",
"$ c #191413",
"% c #1b1615",
"& c #1c1515",
"* c #1d1615",
"= c #1f1918",
"- c #231c1b",
"; c #453636",
": c #453637",
"> c #463636",
", c #483838",
"< c #493a3a",
"1 c #4a3a3a",
"2 c #4b3b3b",
"3 c #4d3c3c",
"4 c #4f3e3d",
"5 c #4e3e3e",
"6 c #4f3f3f",
"7 c #503f3f",
"8 c #513f3f",
"9 c #544242",
"0 c #544243",
"q c #544342",
"w c #544343",
"e c #554242",
"r c #554243",
"t c #554342",
"y c #554343",
"u c #564243",
"i c #564342",
"p c #564343",
"a c #574343",
"s c #574444",
"d c #574445",
"f c #584445",
"g c #584544",
"h c #5a4646",
"j c #5a4746",
"k c #5b4746",
"l c #5c4848",
"z c #5f4a4a",
"x c Gray75",
/* pixels */
"zppppq7-  xx",
"zppppp6=  xx",
"jppppp6&  xx",
"jppppp6%  xx",
"jppppp6&  xx",
"jppppp6&  xx",
"dppppp3$  xx",
"jppppp1+  xx",
"jppppp1@  xx",
"pppppp1@  xx",
"pppppp1O  xx",
"pppppp:o  xx",
"pppppq:.  xx",
"pppppp:.  xx",
"xxxxxxxxxxxx",
"xxxxxxxxxxxx"
};
