/* XPM */
static char *magick[] = {
/* columns rows colors chars-per-pixel */
"17 12 32 1",
"  c #686868",
". c #686869",
"X c #686968",
"o c #696869",
"O c #6a6969",
"+ c #6a6a69",
"@ c #6a6a6a",
"# c Gray42",
"$ c #6b6c6c",
"% c #6c6c6d",
"& c #6c6d6d",
"* c #6d6c6d",
"= c #6d6d6c",
"- c #6d6d6d",
"; c #6d6e6e",
": c Gray43",
"> c #6e6f6e",
", c #6f6f6e",
"< c #777777",
"1 c Gray47",
"2 c Gray48",
"3 c #7b7a7b",
"4 c #7c7c7c",
"5 c #7e7f7e",
"6 c Gray50",
"7 c #818181",
"8 c Gray51",
"9 c #828283",
"0 c #868686",
"q c Gray53",
"w c Gray58",
"e c Gray75",
/* pixels */
"w9@@@@ oo@@@oqwee",
"w9====$==$==$qwee",
"w9==::::==::=0wee",
"w6==::::==::=0wee",
"w5::::::::::=0wee",
"w5:::::::::=$0wee",
"w2==::::::==@0wee",
"w2==::::::==@0wee",
"w2::::==::::$0wee",
"w1::::==::::@0wee",
"eeeeeeeeeeeeeeeee",
"eeeeeeeeeeeeeeeee"
};
