/* XPM */
static char *magick[] = {
/* columns rows colors chars-per-pixel */
"24 26 157 2",
"   c #8e3f3f",
".  c #963a38",
"X  c #973b3b",
"o  c #9b3535",
"O  c #9f3231",
"+  c #9f3333",
"@  c #9c3535",
"#  c #9c3635",
"$  c #9c3736",
"%  c #9e3535",
"&  c #9f3535",
"*  c #993938",
"=  c #9a3b3b",
"-  c #9b3d3d",
";  c #9c3a39",
":  c #a02e2e",
">  c #a32d2c",
",  c #a32e2d",
"<  c #a22e2e",
"1  c #a22f2e",
"2  c #a52b2b",
"3  c #a72b2b",
"4  c #a72c2b",
"5  c #a42d2d",
"6  c #a52c2c",
"7  c #a42e2e",
"8  c #a42f2e",
"9  c #a52e2e",
"0  c #a62c2c",
"q  c #a72c2c",
"w  c #a72d2c",
"e  c #a62e2c",
"r  c #ab2726",
"t  c #ac2525",
"y  c #af2727",
"u  c #a92a29",
"i  c #a92b2a",
"p  c #ab2828",
"a  c #ab2b2b",
"s  c #aa2c2b",
"d  c #ac2c2a",
"f  c #a2302f",
"g  c #a4302f",
"h  c #a13030",
"j  c #a23131",
"k  c #a23231",
"l  c #a43131",
"z  c #b12423",
"x  c #b32423",
"c  c #b02727",
"v  c #b32b29",
"b  c #bc2322",
"n  c #894747",
"m  c #8a4746",
"M  c #8b4a4a",
"N  c #8c4b4b",
"B  c #8e4f4f",
"V  c #835756",
"C  c #875151",
"Z  c #845656",
"A  c #855757",
"S  c #865655",
"D  c #875757",
"F  c #855858",
"G  c #865a5a",
"H  c #845d5d",
"J  c #845e5d",
"K  c #845f5e",
"L  c #855f5f",
"P  c #865f5e",
"I  c #865f5f",
"U  c #895352",
"Y  c #895353",
"T  c #8a5656",
"R  c #8a5756",
"E  c #8a5a5a",
"W  c #8b5a5a",
"Q  c #934443",
"!  c #914444",
"~  c #924646",
"^  c #934646",
"/  c #944242",
"(  c #954242",
")  c #826565",
"_  c #836767",
"`  c #846161",
"'  c #846666",
"]  c #866666",
"[  c #836969",
"{  c #826a6a",
"}  c #826c6c",
"|  c #836d6d",
" . c #846969",
".. c #846d6d",
"X. c #886464",
"o. c #857070",
"O. c #847373",
"+. c #857373",
"@. c #847777",
"#. c #857676",
"$. c #877676",
"%. c #877777",
"&. c #867877",
"*. c #877877",
"=. c #857878",
"-. c #867a7a",
";. c #877a7a",
":. c #877b7b",
">. c #877d7d",
",. c #887e7e",
"<. c #897e7e",
"1. c #897f7f",
"2. c #8a7f7f",
"3. c #cf0e0c",
"4. c #c21716",
"5. c #c11918",
"6. c #d10e0c",
"7. c #d60c0b",
"8. c #dd0d0c",
"9. c #e90604",
"0. c #ee0100",
"q. c #eb0807",
"w. c #f00000",
"e. c #888180",
"r. c #898181",
"t. c #8a8282",
"y. c #8b8282",
"u. c #8b8383",
"i. c #8b8483",
"p. c #8b8686",
"a. c #8c8585",
"s. c #8c8686",
"d. c #8c8787",
"f. c #8d8787",
"g. c #8f8989",
"h. c #8e8b8b",
"j. c #8f8a8a",
"k. c #8f8b8b",
"l. c #908c8c",
"z. c #918e8e",
"x. c #928f8f",
"c. c #929191",
"v. c #939090",
"b. c #939292",
"n. c #959393",
"m. c #959494",
"M. c #969595",
"N. c #979797",
"B. c #989898",
"V. c Gray60",
"C. c #9a9a9a",
"Z. c Gray61",
"A. c #9d9d9d",
"S. c #9e9d9d",
"D. c Gray62",
"F. c #9f9f9f",
"G. c Gray75",
/* pixels */
"F.F.F.F.F.F.F.B.z.a.a.c.B.F.F.F.F.F.F.F.F.F.G.G.",
"F.F.F.F.F.a.E - l 7 7 & / H z.F.F.F.F.F.F.F.G.G.",
"F.F.F.g.R s 2 M H | | H N , & _ n.F.F.F.F.F.G.G.",
"F.F.i.& p V a.Z.F.F.F.F.F.a.A , Y n.F.F.F.F.G.G.",
"F.a.k k 1.F.F.F.F.F.F.F.F.F.Z.-.O Y M.F.F.F.G.G.",
"B.~ 7 y.F.F.F.F.F.F.F.F.F.F.F.F.-.f H F.F.F.G.G.",
"*.z { F.F.F.F.F.F.F.F.F.F.F.F.F.Z.` f a.F.F.G.G.",
"~ . c.F.F.F.F.F.F.F.F.F.F.F.F.F.F.z.& F F.F.G.G.",
"7 _ F.F.F.F.F.F.F.F.F.F.F.F.F.F.F.F.F o c.F.G.G.",
"e >.F.F.F.F.F.F.F.F.F.F.F.F.F.F.F.F.+., y.F.G.G.",
"f g.F.F.F.F.F.F.F.F.F.F.F.F.F.F.F.F.1.2 +.F.G.G.",
"o z.F.F.F.F.F.F.F.F.F.F.F.F.F.F.F.F.u.e | F.G.G.",
", a.F.F.F.F.F.F.F.F.F.F.F.F.F.F.F.F.$.p -.F.G.G.",
"7 #.F.F.F.F.F.F.F.F.F.F.F.F.F.F.F.F.] 7 a.F.G.G.",
"& V F.F.F.F.F.F.F.F.F.F.F.F.F.F.F.N.Q . M.F.G.G.",
"H , a.F.F.F.F.F.F.F.F.F.F.F.F.F.F.#.z _ F.F.G.G.",
"g.O A B.F.F.F.F.F.F.F.F.F.F.F.F.z.= = c.F.F.G.G.",
"F...7  .B.F.M.M.F.F.F.F.F.F.F.z.~ t #.F.F.F.G.G.",
"F.B.{ 7 H y.m   #.B.F.F.F.F.p./ c +.F.F.F.F.G.G.",
"F.F.B._ 7 7 t 7.4.M -.g.1.R d 2 +.F.F.F.F.F.G.G.",
"F.F.F.B.y.C r 6.w.9.5.p z p A p.F.F.F.F.F.F.G.G.",
"F.F.F.F.F.M.F 3.0.9.b B { p.F.F.F.F.F.F.F.F.G.G.",
"F.F.F.F.F.n.; 8.v E a.F.F.F.F.F.F.F.F.F.F.F.G.G.",
"F.F.F.F.F.F.1.X.z.F.F.F.F.F.F.F.F.F.F.F.F.F.G.G.",
"G.G.G.G.G.G.G.G.G.G.G.G.G.G.G.G.G.G.G.G.G.G.G.G.",
"G.G.G.G.G.G.G.G.G.G.G.G.G.G.G.G.G.G.G.G.G.G.G.G."
};
