/* XPM */
static char *magick[] = {
/* columns rows colors chars-per-pixel */
"24 24 58 1",
"  c #7f5f5f",
". c #7d6b6b",
"X c #7e6a6a",
"o c #7e6b6b",
"O c #7e6c6b",
"+ c #7f6e6e",
"@ c #8f3636",
"# c #913b3b",
"$ c #9c3636",
"% c #b71b19",
"& c #bc1515",
"* c #bd1515",
"= c #bc1615",
"- c #bc1715",
"; c #bd1615",
": c #bd1715",
"> c #bd1b1b",
", c #ad2a29",
"< c #ad2b29",
"1 c #ac2a2a",
"2 c #ac2b2a",
"3 c #ae2929",
"4 c #ae2a29",
"5 c #ae2b29",
"6 c #854f4f",
"7 c #864f4f",
"8 c #85504f",
"9 c #86504f",
"0 c #805252",
"q c #855150",
"w c #865050",
"e c #885a5a",
"r c #885f5f",
"t c #806b6b",
"y c #836868",
"u c #876a6a",
"i c #876b6b",
"p c #876c6b",
"a c #876d6d",
"s c #857676",
"d c #847a7a",
"f c #897c7c",
"g c #c71211",
"h c #c51c1b",
"j c #d50a0a",
"k c #e40706",
"l c #8f8a8a",
"z c #8f8c8c",
"x c #908d8d",
"c c #918d8d",
"v c #949393",
"b c #969595",
"n c #979696",
"m c #9a9999",
"M c #9a9a9a",
"N c #9b9b9b",
"B c #9f9f9f",
"V c Gray75",
/* pixels */
"BBBBBBBBBBsebBBBBBBBBBVV",
"BBBBBBBBBBw<xBBBBBBBBBVV",
"BBBBBBBBBB9<xBBBBBBBBBVV",
"BBBBBBBBBB9<xBBBBBBBBBVV",
"BBBBBBBBBB6<xBBBBBBBBBVV",
"BBBBBBBBBB9<xBBBBBBBBBVV",
"BBBBBBBBBB9<xBBBBBBBBBVV",
"BBBBBBBBBB9<xBBBBBBBBBVV",
"BBBBBBBBBB6<xBBBBBBBBBVV",
"Nfpupuuuuu$hruuupuuualVV",
"v#::::::::jkg:::::::%tVV",
"Nd....O...@> .......+zVV",
"BBBBBBBBBB6<xBBBBBBBBBVV",
"BBBBBBBBBB9<xBBBBBBBBBVV",
"BBBBBBBBBB9<xBBBBBBBBBVV",
"BBBBBBBBBB6<xBBBBBBBBBVV",
"BBBBBBBBBB6<xBBBBBBBBBVV",
"BBBBBBBBBB9<xBBBBBBBBBVV",
"BBBBBBBBBB9<xBBBBBBBBBVV",
"BBBBBBBBBBw<xBBBBBBBBBVV",
"BBBBBBBBBBt0bBBBBBBBBBVV",
"BBBBBBBBBBNNBBBBBBBBBBVV",
"VVVVVVVVVVVVVVVVVVVVVVVV",
"VVVVVVVVVVVVVVVVVVVVVVVV"
};
