/* XPM */
static char *magick[] = {
/* columns rows colors chars-per-pixel */
"50 14 2 1",
"  c #947474",
". c Gray75",
/* pixels */
"                                                ..",
"                                                ..",
"                                                ..",
"                                                ..",
"                                                ..",
"                                                ..",
"                                                ..",
"                                                ..",
"                                                ..",
"                                                ..",
"                                                ..",
"                                                ..",
"..................................................",
".................................................."
};
