/* XPM */
static char *magick[] = {
/* columns rows colors chars-per-pixel */
"12 16 42 1",
"  c Gray34",
". c #575758",
"X c #575857",
"o c #575858",
"O c #585757",
"+ c #585758",
"@ c #585857",
"# c #585858",
"$ c Gray36",
"% c #5d5d5d",
"& c #5d5d5e",
"* c #5d5e5d",
"= c #5e5d5e",
"- c #5f5e5f",
"; c #5f5f5f",
": c #606060",
"> c Gray38",
", c #6c6b6c",
"< c #6c6c6c",
"1 c #6c6d6c",
"2 c #6d6d6c",
"3 c #6d6d6d",
"4 c #6e6d6d",
"5 c #6e6d6e",
"6 c #6e6e6d",
"7 c Gray43",
"8 c #6e6f6f",
"9 c #6f6f6f",
"0 c #6f6f70",
"q c #6f706f",
"w c #6f7070",
"e c #706f6f",
"r c #706f70",
"t c #70706f",
"y c Gray44",
"u c #707071",
"i c #717071",
"p c #717171",
"a c #727172",
"s c #727272",
"d c Gray45",
"f c Gray75",
/* pixels */
"  >88q88rdff",
" @>88q88rdff",
"O@;808880dff",
"O@;8r0888dff",
" #;888888dff",
" X;888888dff",
" +;88088edff",
" @;888000dff",
" @;1888d8dff",
"  ;1888t8dff",
"X.;<088q8dff",
"@X;8w88q8dff",
"#o;8q88qeeff",
".+$,q8w8eeff",
"ffffffffffff",
"ffffffffffff"
};
