/* XPM */
static char *magick[] = {
/* columns rows colors chars-per-pixel */
"12 16 38 1",
"  c #444444",
". c #444545",
"X c Gray27",
"o c #464545",
"O c #464646",
"+ c #464746",
"@ c #474646",
"# c #484848",
"$ c #494949",
"% c #5a595a",
"& c #5a5a5a",
"* c #5c5b5c",
"= c #5d5d5e",
"- c #5e5d5d",
"; c #5f5f60",
": c Gray38",
"> c #616162",
", c #616262",
"< c Gray39",
"1 c #656464",
"2 c #6f6f6f",
"3 c #6f6f70",
"4 c #6f706f",
"5 c #6f7070",
"6 c #706f6f",
"7 c #706f70",
"8 c #70706f",
"9 c #777777",
"0 c #797979",
"q c Gray48",
"w c #7a7b7a",
"e c #7b7b7b",
"r c #7c7c7c",
"t c #7f7f7e",
"y c Gray50",
"u c #818181",
"i c #838383",
"p c Gray75",
/* pixels */
"i4624621$ pp",
"i232272:$ pp",
"i732222:  pp",
"t232222:  pp",
"t282222:  pp",
"t842234:  pp",
"t224632;# pp",
"e224222=  pp",
"e226242=  pp",
"e266222=  pp",
"e282222*  pp",
"9572422&  pp",
"9632522&  pp",
"9422242&  pp",
"pppppppppppp",
"pppppppppppp"
};
