/* XPM */
static char *magick[] = {
/* columns rows colors chars-per-pixel */
"12 17 75 1",
"  c #111311",
". c #121312",
"X c #151516",
"o c #191919",
"O c #191a1a",
"+ c #202020",
"@ c #222120",
"# c #252525",
"$ c #252526",
"% c #252626",
"& c #262526",
"* c #262625",
"= c #272625",
"- c Gray15",
"; c #262627",
": c #262726",
"> c #262727",
", c #272626",
"< c #272726",
"1 c #292828",
"2 c Gray16",
"3 c #292a2a",
"4 c #2a2b2b",
"5 c #2b2b2c",
"6 c #2c2c2b",
"7 c #2c2c2d",
"8 c #2d2d2d",
"9 c #2e2e2f",
"0 c #2e2f2e",
"q c #2e2f2f",
"w c #3d3e3e",
"e c #444344",
"r c #444544",
"t c #454544",
"y c Gray27",
"u c #464646",
"i c #484847",
"p c #484848",
"a c #494848",
"s c #494949",
"d c #4a494b",
"f c #4b4b4b",
"g c #4b4d4c",
"h c #4c4c4b",
"j c #4c4c4c",
"k c #4d4e4d",
"l c #4f5050",
"z c #51504f",
"x c #505050",
"c c #505150",
"v c #515150",
"b c #515251",
"n c #535251",
"m c #545455",
"M c #545555",
"N c #555455",
"B c #555554",
"V c #555555",
"C c #545556",
"Z c #555556",
"A c #555557",
"S c #545655",
"D c #555655",
"F c #555656",
"G c #555756",
"H c #565554",
"J c #565555",
"K c #565556",
"L c #565655",
"P c #5b5b5b",
"I c #5f6060",
"U c Gray48",
"Y c #909090",
"T c Gray61",
"R c Gray75",
/* pixels */
",,0jMMJJMMRR",
",,0hJJJJJMRR",
",,0gMMMMJMRR",
",,0dMMMMJMRR",
",,6iMMMMJJRR",
",,6iMMMMMMRR",
",,0dMMMMMJRR",
",,5dMMMMMJRR",
",,2tMMMMMMRR",
",,2tMMMMMMRR",
";,2tMMMMMMRR",
",,2tMMMMMMRR",
",,,wfjvvznRR",
"+o  Xo+0eIRR",
"MvvvvvPUYTRR",
"RRRRRRRRRRRR",
"RRRRRRRRRRRR"
};
