/* XPM */
static char *magick[] = {
/* columns rows colors chars-per-pixel */
"12 12 39 1",
"  c Gray0",
". c #010000",
"X c #010100",
"o c #020100",
"O c #030101",
"+ c #040203",
"@ c #211a1b",
"# c #292121",
"$ c #2a2122",
"% c #2d2424",
"& c #302626",
"* c #302627",
"= c #312626",
"- c #342a2a",
"; c #3d2f2f",
": c #544242",
"> c #544243",
", c #544342",
"< c #544343",
"1 c #554242",
"2 c #554243",
"3 c #554342",
"4 c #554343",
"5 c #564242",
"6 c #564243",
"7 c #564343",
"8 c #654f4e",
"9 c #654f4f",
"0 c #695151",
"q c #6a5353",
"w c #6b5454",
"e c #6c5555",
"r c #6f5857",
"t c #745b5b",
"y c #765c5c",
"u c #816565",
"i c #8e6f6f",
"p c #9f7c7c",
"a c Gray75",
/* pixels */
"ppppppppppaa",
"piyrewww0uaa",
"pt777777;@aa",
"pe777777-+aa",
"pw<7777<= aa",
"pw7<777<= aa",
"p0777<77= aa",
"p8777<77% aa",
"p8777<77# aa",
"p8777777# aa",
"aaaaaaaaaaaa",
"aaaaaaaaaaaa"
};
