/* XPM */
static char *magick[] = {
/* columns rows colors chars-per-pixel */
"32 10 17 1",
"  c #513f3f",
". c #523f3f",
"X c #513f40",
"o c #523f40",
"O c #51403f",
"+ c #52403f",
"@ c #514040",
"# c #524040",
"$ c #534142",
"% c #534242",
"& c #544141",
"* c #544142",
"= c #544241",
"- c #544242",
"; c #866868",
": c #9f7c7c",
"> c Gray75",
/* pixels */
":;%  %  %+ ooo % +o++oo%ooo%;:>>",
":;-o+%o + o+oooo %o+  o++oo-;:>>",
":;-o %%o %o+%  +++ % % ++% -;:>>",
":;-++o%o%+% % + ++ %%% o+%o-;:>>",
":;%  ++%%+o%+ +% + %% % +%%-;:>>",
":;-%oo % +%++%  ooo oo+ +oo-;:>>",
":;-% o  oo%+o%% oo%%%+%+%oo-;:>>",
":;-o% oo%oo  %%o %% o+% %+o-;:>>",
">>>>>>>>>>>>>>>>>>>>>>>>>>>>>>>>",
">>>>>>>>>>>>>>>>>>>>>>>>>>>>>>>>"
};
