/* XPM */
static char *magick[] = {
/* columns rows colors chars-per-pixel */
"20 57 49 1",
"  c #554343",
". c #564343",
"X c #574343",
"o c #554344",
"O c #564344",
"+ c #574344",
"@ c #554443",
"# c #564443",
"$ c #574443",
"% c #554444",
"& c #564444",
"* c #564445",
"= c #574444",
"- c #574445",
"; c #574544",
": c #584343",
"> c #584344",
", c #584345",
"< c #584443",
"1 c #594443",
"2 c #584444",
"3 c #584445",
"4 c #584544",
"5 c #584545",
"6 c #594545",
"7 c #584546",
"8 c #594546",
"9 c #584645",
"0 c #594645",
"q c #584646",
"w c #594646",
"e c #6c5454",
"r c #6c5455",
"t c #6c5554",
"y c #6d5454",
"u c #6d5455",
"i c #6d5554",
"p c #6d5555",
"a c #705758",
"s c #755b5b",
"d c #795e5e",
"f c #7d6161",
"g c #826565",
"h c #856868",
"j c #866868",
"k c #896c6b",
"l c #8d6e6e",
"z c #9f7c7c",
"x c Gray75",
/* pixels */
"zzzzj4+X#X&X+&+&jzxx",
"zzzzj,#XX+&#&++4jzxx",
"zzzzj+#XXXXX&&+4jzxx",
"zzzzj4&&+##X#++4jzxx",
"zzzzj1XXX+XXX#+&jzxx",
"zzzzj4+XXXXX#&#&jzxx",
"zzzzg4#+X++###X4jzxx",
"zzzzfX+#XXX&X#X4jzxx",
"zzzzf4XX+#XXXX+#jzxx",
"zzzzfXX#&+X#XX+4jzxx",
"zzzzf&+&&&+#XX&1jzxx",
"zzzzf4X++X+#&&X#jzxx",
"zzzzf&#+X&XX+&X&jzxx",
"zzzzf&#++&&&&X&#jzxx",
"zzzzf+#++#+++XX1jzxx",
"zzzzf:#++##+++++jzxx",
"zzzzf##&+X&++++&jzxx",
"zzzzf1X&+X+&++++jzxx",
"zzzzf+XX+XX#XXX#jzxx",
"zzzzf+X+++&X##X#jzxx",
"zzzzfX#XX+&XX#X&jzxx",
"zzzzfX+XX#X+XXX4jzxx",
"zzzzd+++&X+#XXX4jzxx",
"zzzzs#X&+#XXXX+&jzxx",
"zzzzs+X&+&X++##Xjzxx",
"zzzzs#+++&#++#+4jzxx",
"zzzzs#X++###+X&:jzxx",
"zzzzs1X&+XX#XXX+jzxx",
"zzzzsX+++X#X&&#,jzxx",
"zzzzs&X##+X&XXX1jzxx",
"zzzzsX&#X++&&#+&jzxx",
"zzzzs##XXXX+XX#&kzxx",
"zzzzs,&&XX#+XXX4lzxx",
"zzzzs:&#X+#XX+&4lzxx",
"zzzzsXXXX&XX++X4lzxx",
"zzzzs1XX++#X#X+4lzxx",
"zzzzs#+XXX##XX#4lzxx",
"zzzzs+X#&XXX#XX4lzxx",
"zzzzs+X##X#XXX#4lzxx",
"zzzzaXX++X#&#XX4lzxx",
"zzzzy###&+X&X#X4lzxx",
"zzzzy1&+#&++X#X4lzxx",
"zzzzyX&+X&+X+#X4lzxx",
"zzzzy#XXXXX#XX+4lzxx",
"zzzzy+X+XXXXX#+4lzxx",
"zzzzyXX##XX+XXX4lzxx",
"zzzzyXX&#&#X#XX4lzxx",
"zzzzyXX&##&##X&4lzxx",
"zzzzyXXXX&+#+&+4lzxx",
"zzzzy#XXX&X#+&X4lzxx",
"zzzzy#++#XXX&##4lzxx",
"zzzzyX+##XX#+X&4lzxx",
"zzzzyX&#XX+##X+4lzxx",
"zzzzyXXX+#XXXX#4lzxx",
"zzzzy:###&&#&&#4lzxx",
"xxxxxxxxxxxxxxxxxxxx",
"xxxxxxxxxxxxxxxxxxxx"
};
