/* XPM */
static char *magick[] = {
/* columns rows colors chars-per-pixel */
"12 17 49 1",
"  c Gray0",
". c #010100",
"X c #010101",
"o c #020202",
"O c #030202",
"+ c #040303",
"@ c #040404",
"# c #060506",
"$ c #080707",
"% c #090707",
"& c #0c0a0a",
"* c #171110",
"= c #302626",
"- c #342929",
"; c #362a2a",
": c #372b2c",
"> c #372c2c",
", c #382c2c",
"< c #392c2d",
"1 c #3b2e2f",
"2 c #3d3131",
"3 c #3e3130",
"4 c #3e3131",
"5 c #423433",
"6 c #463737",
"7 c #544242",
"8 c #544243",
"9 c #544342",
"0 c #544343",
"q c #554242",
"w c #554243",
"e c #554342",
"r c #554343",
"t c #564242",
"y c #564243",
"u c #564342",
"i c #564343",
"p c #574444",
"a c #6c5454",
"s c #6d5555",
"d c #715757",
"f c #735b5b",
"g c #745b5b",
"h c #785e5e",
"j c #7c6161",
"k c #816565",
"l c #856868",
"z c #866868",
"x c Gray75",
/* pixels */
"ziiiiii6*;xx",
"zpiiii05&oxx",
"kiiiiii2%oxx",
"jiiiiii2%oxx",
"jiiiiii2#oxx",
"jiiiii82%oxx",
"jiiiiii,#oxx",
"hiiiii0,ooxx",
"f0iiiii>+oxx",
"g0iiiii:ooxx",
"fi0i0ii;+oxx",
"giii0ii-ooxx",
"diiii00=ooxx",
"siiiiii=ooxx",
"siiiii0=ooxx",
"xxxxxxxxxxxx",
"xxxxxxxxxxxx"
};
