/* XPM */
static char *magick[] = {
/* columns rows colors chars-per-pixel */
"14 19 43 1",
"  c #4f4b4a",
". c #544e4e",
"X c #554f4f",
"o c #564f4e",
"O c #564f4f",
"+ c #57504f",
"@ c #5a5151",
"# c #5b5252",
"$ c #5d5353",
"% c #5e5454",
"& c #5f5454",
"* c #5f5555",
"= c #615655",
"- c #635657",
"; c #635757",
": c #645757",
"> c #645858",
", c #665959",
"< c #675959",
"1 c #67595a",
"2 c #685a59",
"3 c #685a5a",
"4 c #695a5a",
"5 c #695b5b",
"6 c #6a5b5b",
"7 c #6b5b5c",
"8 c #6b5c5b",
"9 c #6c5c5c",
"0 c #6c5c5d",
"q c #6c5d5c",
"w c #6c5d5d",
"e c #6d5c5c",
"r c #6d5c5d",
"t c #6d5d5c",
"y c #6d5d5d",
"u c #776363",
"i c #816969",
"p c #886d6d",
"a c #8e7070",
"s c #917373",
"d c #937474",
"f c #947474",
"g c Gray75",
/* pixels */
" 1qqqqqqqq72gg",
"@qqqqqqqqqqqgg",
"$qqqqqqqqqqqgg",
"*qqqqqqqqqqqgg",
"=qqqqqqqqqq8gg",
"=qqqqqqqqqq:gg",
"1qqqqqqqqq2+gg",
"1qqqqqqqqq*@gg",
"2qqqqqqqq2Ougg",
"2qqqqqqqq@=agg",
"2qqqqqqq:Oifgg",
"0qqqqqq2Oqsfgg",
"qqqqqqq*@pffgg",
"qqqqqq1Oudffgg",
"qqqqq7@=afffgg",
"qqqqq=Oiffffgg",
"qqqq7Oqsffffgg",
"gggggggggggggg",
"gggggggggggggg"
};
