/* XPM */
static char *magick[] = {
/* columns rows colors chars-per-pixel */
"17 12 30 1",
"  c #686868",
". c #686968",
"X c Gray41",
"o c #6a6a6a",
"O c #6c6c6c",
"+ c #6c6d6c",
"@ c #6c6d6d",
"# c #6d6c6c",
"$ c #6d6c6d",
"% c #6d6d6c",
"& c #6d6d6d",
"* c #6d6e6d",
"= c #6d6e6e",
"- c #6e6d6e",
"; c Gray43",
": c #6e6f6e",
"> c #6f6e6e",
", c #6f6f6e",
"< c #777777",
"1 c Gray47",
"2 c Gray48",
"3 c #7a7a7b",
"4 c #7c7c7c",
"5 c #7e7f7f",
"6 c #7f7e7f",
"7 c #818181",
"8 c Gray51",
"9 c Gray53",
"0 c Gray58",
"q c Gray75",
/* pixels */
"09oooo    ooo80qq",
"09#####+++###80qq",
"09##::::#:::#80qq",
"09##::::##::#50qq",
"09::::::::::#50qq",
"09#::::::::::40qq",
"09##::::::::#30qq",
"09##::::::::#30qq",
"09#::::::::::10qq",
"09$::::::::::<0qq",
"qqqqqqqqqqqqqqqqq",
"qqqqqqqqqqqqqqqqq"
};
