/* XPM */
static char *magick[] = {
/* columns rows colors chars-per-pixel */
"24 24 58 1",
"  c #943b3b",
". c #963b3a",
"X c #be211f",
"o c #ad2929",
"O c #ad2a29",
"+ c #ad2b29",
"@ c #ad2a2a",
"# c #ae2929",
"$ c #af2929",
"% c #ae2a29",
"& c #ae2b29",
"* c #ae2d2c",
"= c #b32727",
"- c #b42727",
"; c #b32827",
": c #b32927",
"> c #b42827",
", c #b42927",
"< c #b52827",
"1 c #be2321",
"2 c #854f4f",
"3 c #864f4f",
"4 c #874f4f",
"5 c #86504f",
"6 c #855050",
"7 c #865050",
"8 c #904746",
"9 c #866565",
"0 c #876868",
"q c #866a6a",
"w c #877170",
"e c #867777",
"r c #877676",
"t c #877777",
"y c #877877",
"u c #867979",
"i c #877979",
"p c #867a7a",
"a c #887676",
"s c #887776",
"d c #887878",
"f c #c11d1d",
"g c #d01514",
"h c #e10c0b",
"j c #8b8484",
"k c #8c8383",
"l c #908d8d",
"z c #918c8c",
"x c #918d8d",
"c c #928f8f",
"v c #929090",
"b c #969494",
"n c #979696",
"m c #989797",
"M c #9b9a9a",
"N c #9c9b9b",
"B c #9f9f9f",
"V c Gray75",
/* pixels */
"BBBBBBBBBBu9mBBBBBBBBBVV",
"BBBBBBBBBB7&xBBBBBBBBBVV",
"BBBBBBBBBB3&xBBBBBBBBBVV",
"BBBBBBBBBB5&xBBBBBBBBBVV",
"BBBBBBBBBB3&xBBBBBBBBBVV",
"BBBBBBBBBB5&xBBBBBBBBBVV",
"BBBBBBBBBB3&xBBBBBBBBBVV",
"BBBBBBBBBB3&xBBBBBBBBBVV",
"BBBBBBBBBB3&xBBBBBBBBBVV",
"Njrryrrrrr.XqyyrrrrruvVV",
"b8<<-:<=:<gh1-<:<<==*wVV",
"Mkssssssss.fqsssssssdxVV",
"BBBBBBBBBB3&xBBBBBBBBBVV",
"BBBBBBBBBB3&xBBBBBBBBBVV",
"BBBBBBBBBB5&xBBBBBBBBBVV",
"BBBBBBBBBB3&xBBBBBBBBBVV",
"BBBBBBBBBB3&xBBBBBBBBBVV",
"BBBBBBBBBB3&xBBBBBBBBBVV",
"BBBBBBBBBB5&xBBBBBBBBBVV",
"BBBBBBBBBB7&xBBBBBBBBBVV",
"BBBBBBBBBBu9bBBBBBBBBBVV",
"BBBBBBBBBBBBBBBBBBBBBBVV",
"VVVVVVVVVVVVVVVVVVVVVVVV",
"VVVVVVVVVVVVVVVVVVVVVVVV"
};
