/* XPM */
static char *magick[] = {
/* columns rows colors chars-per-pixel */
"41 41 111 2",
"   c #7d4444",
".  c #7d4646",
"X  c #7e4444",
"o  c #7a4a4a",
"O  c #7b4a4a",
"+  c #794c4c",
"@  c #794f4f",
"#  c #7c4a4a",
"$  c #7d4a4a",
"%  c #7e4848",
"&  c #7e4c4c",
"*  c #795656",
"=  c #795959",
"-  c #7e5f5f",
";  c #7f6363",
":  c #804444",
">  c #804c4c",
",  c #864949",
"<  c #894444",
"1  c #8a4444",
"2  c #8a4545",
"3  c #8b4444",
"4  c #8c4444",
"5  c #8c4545",
"6  c #894d4d",
"7  c #805959",
"8  c #835b5b",
"9  c #805d5d",
"0  c #835e5e",
"q  c #845959",
"w  c #855f5f",
"e  c #885d5d",
"r  c #924444",
"t  c #924544",
"y  c #974444",
"u  c #964747",
"i  c #954949",
"p  c #994544",
"a  c #984746",
"s  c #984747",
"d  c #994747",
"f  c #9a4444",
"g  c #9d4444",
"h  c #9e4444",
"j  c #9e4544",
"k  c #9f4444",
"l  c #984847",
"z  c #994847",
"x  c #984949",
"c  c #955353",
"v  c #975555",
"b  c #915858",
"n  c #915958",
"m  c #836767",
"M  c #856161",
"N  c #846464",
"B  c #846564",
"V  c #846666",
"C  c #856767",
"Z  c #846868",
"A  c #856969",
"S  c #866a6a",
"D  c #896b6b",
"F  c #886c6c",
"G  c #8a6c6c",
"H  c #8b6c6c",
"J  c #8c6d6d",
"K  c #8d6f6f",
"L  c #8d7070",
"P  c #8f7171",
"I  c #907171",
"U  c #917272",
"Y  c #927373",
"T  c #937373",
"R  c #947474",
"E  c #a04444",
"W  c #a04747",
"Q  c #a24747",
"!  c #a54444",
"~  c #a64444",
"^  c #a64847",
"/  c #a24a49",
"(  c #a04f4f",
")  c #a54e4e",
"_  c #a74d4d",
"`  c #ac4544",
"'  c #ad4444",
"]  c #ad4544",
"[  c #ae4444",
"{  c #ae4544",
"}  c #af4747",
"|  c #a84d4d",
" . c #a94d4c",
".. c #a84e4d",
"X. c #af4a4a",
"o. c #b14544",
"O. c #b24544",
"+. c #b64444",
"@. c #b64544",
"#. c #b74444",
"$. c #b74544",
"%. c #b74848",
"&. c #b84544",
"*. c #ba4645",
"=. c #bc4444",
"-. c #bd4544",
";. c #c04544",
":. c #c14544",
">. c #c24544",
",. c #c34544",
"<. c Gray75",
/* pixels */
"R R R R R R R R R R R R R R R R R L 0 / :.b Y R R R R R R R R R R R R R R R R <.<.",
"R R R R R R R R R R R R R R R R K q l { :.b Y R R R R R R R R R R R R R R R R <.<.",
"R R R R R R R R R R R R R R R L q d j { :.b Y R R R R R R R R R R R R R R R R <.<.",
"R R R R R R R R R R R R R R R N i j j { :.b Y R R R R R R R R R R R R R R R R <.<.",
"R R R R R R R R R R R R R R R N d j j { :.b Y R R R R R R R R R R R R R R R R <.<.",
"R R R R R R R R R R R R R R R N d j j { :.b Y R R R R R R R R R R R R R R R R <.<.",
"R R R R R R R R R R R R R R R N d j j { :.b Y R R R R R R R R R R R R R R R R <.<.",
"R R R R R R R R R R R R R R R N l j j { :.b Y R R R R R R R R R R R R R R R R <.<.",
"R R R R R R R R R R R R R R R N l j j { :.b Y R R R R R R R R R R R R R R R R <.<.",
"R R R R R R R R R R R R R R R N l j j { :.b Y R R R R R R R R R R R R R R R R <.<.",
"R R R R R R R R R R R R R R R N l j j { :.b Y R R R R R R R R R R R R R R R R <.<.",
"R R R R R R R R R R R R R R R N d j j { :.b Y R R R R R R R R R R R R R R R R <.<.",
"R R R R R R R R R R R R R R R N l j j { :.b Y R R R R R R R R R R R R R R R R <.<.",
"R R R R R R R R R R R R R R R N d j j { :.b Y R R R R R R R R R R R R R R R R <.<.",
"R R R R R R R R R R R R R R R N d j j { :.b Y R R R R R R R R R R R R R R R R <.<.",
"R R R R R R R R R R R R R R R N d j j { :.b Y R R R R R R R R R R R R R R R R <.<.",
"R Y K G G G G G G G G G G G G w W ! ! o.:.v D G G G G G G G G G G G G G G G G <.<.",
"Y M (  . . . . . . . . . . . .X.*.=.=.:.:.%. . . . . . . . ._  . . . . . . ._ <.<.",
"8 x o.$.$.$.$.$.$.$.$.$.$.$.$.$.$.$.*.=.:.=.$.$.$.$.$.$.$.$.$.$.$.$.$.$.$.$.{ <.<.",
"y t 3 3 3 3 3 3 3 3 3 3 3 3 3 3 3 3 t { :.{ 4 3 3 3 3 3 3 3 3 3 3 3 3 3 3 , 8 <.<.",
"4 :                             : 3 y { :.! :                           @ ; L <.<.",
"$ o o o o o o o o o o o o o o $ 4 d j { :.W $ o o o o o o o o o o $ @ = G Y R <.<.",
"Z Z Z Z Z Z Z Z Z Z Z Z Z Z Z 0 d j j { :.c m Z Z Z Z Z Z Z Z Z Z Z Z L R R R <.<.",
"R R R R R R R R R R R R R R R N l j j { :.b Y R R R R R R R R R R R R R R R R <.<.",
"R R R R R R R R R R R R R R R N l j j { :.b Y R R R R R R R R R R R R R R R R <.<.",
"R R R R R R R R R R R R R R R N d j j { :.b Y R R R R R R R R R R R R R R R R <.<.",
"R R R R R R R R R R R R R R R N d j j { :.b Y R R R R R R R R R R R R R R R R <.<.",
"R R R R R R R R R R R R R R R N d j j { :.b Y R R R R R R R R R R R R R R R R <.<.",
"R R R R R R R R R R R R R R R N d j j { :.b Y R R R R R R R R R R R R R R R R <.<.",
"R R R R R R R R R R R R R R R N l j j { :.b Y R R R R R R R R R R R R R R R R <.<.",
"R R R R R R R R R R R R R R R N d j j { :.b Y R R R R R R R R R R R R R R R R <.<.",
"R R R R R R R R R R R R R R R N l j j { :.b Y R R R R R R R R R R R R R R R R <.<.",
"R R R R R R R R R R R R R R R N d j j { :.b Y R R R R R R R R R R R R R R R R <.<.",
"R R R R R R R R R R R R R R R N d j j { :.b Y R R R R R R R R R R R R R R R R <.<.",
"R R R R R R R R R R R R R R R N d j k [ :.b Y R R R R R R R R R R R R R R R R <.<.",
"R R R R R R R R R R R R R R R N d k k { :.b Y R R R R R R R R R R R R R R R R <.<.",
"R R R R R R R R R R R R R R R N l j j W ^ e Y R R R R R R R R R R R R R R R R <.<.",
"R R R R R R R R R R R R R R R N l d 4 & - K R R R R R R R R R R R R R R R R R <.<.",
"R R R R R R R R R R R R R R R N 6 > * Z Y R R R R R R R R R R R R R R R R R R <.<.",
"<.<.<.<.<.<.<.<.<.<.<.<.<.<.<.<.<.<.<.<.<.<.<.<.<.<.<.<.<.<.<.<.<.<.<.<.<.<.<.<.<.",
"<.<.<.<.<.<.<.<.<.<.<.<.<.<.<.<.<.<.<.<.<.<.<.<.<.<.<.<.<.<.<.<.<.<.<.<.<.<.<.<.<."
};
