/* XPM */
static char *magick[] = {
/* columns rows colors chars-per-pixel */
"12 16 58 1",
"  c Gray0",
". c #010101",
"X c #020101",
"o c #030302",
"O c #030403",
"+ c #040303",
"@ c #070706",
"# c #090809",
"$ c #2b2a2b",
"% c Gray17",
"& c #2b2b2c",
"* c #2e2d2e",
"= c #323131",
"- c #323233",
"; c #333232",
": c #353436",
"> c #383939",
", c #39393b",
"< c #393a3a",
"1 c #3e3d3d",
"2 c #414040",
"3 c #545455",
"4 c #545555",
"5 c #555455",
"6 c #555554",
"7 c #555555",
"8 c #555456",
"9 c #555556",
"0 c #545655",
"q c #555655",
"w c #555755",
"e c #545656",
"r c #555656",
"t c #565454",
"y c #565455",
"u c #565554",
"i c #565555",
"p c #565456",
"a c #565556",
"s c #565655",
"d c #565656",
"f c #565657",
"g c #565756",
"h c #565757",
"j c #575656",
"k c #575756",
"l c Gray40",
"z c Gray41",
"x c #6c6c6c",
"c c #6c6d6c",
"v c #6d6d6d",
"b c Gray44",
"n c #747474",
"m c #757574",
"M c Gray46",
"N c Gray47",
"B c Gray49",
"V c Gray75",
/* pixels */
"Bqqqqtq2# VV",
"Bqqqqqq1@ VV",
"Nqqqqqq>O VV",
"mqqqqqq>O VV",
"mqqqqqq>+ VV",
"mqqqqqq>+ VV",
"bqqqqqq:  VV",
"vqqqqqq-  VV",
"xqqqqqq-  VV",
"vqqttqq-  VV",
"zqqqqtq*  VV",
"lqqqqqq$  VV",
"lqqqqqq$  VV",
"lqqqqqq&  VV",
"VVVVVVVVVVVV",
"VVVVVVVVVVVV"
};
