/* XPM */
static char *magick[] = {
/* columns rows colors chars-per-pixel */
"14 11 15 1",
"  c #6b5b5b",
". c #6b5b5c",
"X c #6b5c5b",
"o c #6a5c5c",
"O c #6b5c5c",
"+ c #6c5c5c",
"@ c #6c5c5d",
"# c #6c5d5c",
"$ c #6d5c5c",
"% c #6e5e5e",
"& c #6f5e5e",
"* c #705e5e",
"= c #705f5f",
"- c #715f5f",
"; c Gray75",
/* pixels */
"+XX  OXO..O-;;",
"+++++++++++-;;",
"+++++++++++-;;",
"+++++++++++-;;",
"+++++++++++-;;",
"+++++++++++-;;",
"+++++++++++-;;",
"-++++++++++-;;",
"-++++++++++-;;",
";;;;;;;;;;;;;;",
";;;;;;;;;;;;;;"
};
