/* XPM */
static char *magick[] = {
/* columns rows colors chars-per-pixel */
"14 19 73 1",
"  c #2a292a",
". c #2c2b2b",
"X c #2c2b2d",
"o c #2c2c2d",
"O c #2f2f2e",
"+ c #2e2e30",
"@ c #302f30",
"# c #323332",
"$ c #343332",
"% c #353536",
"& c #393837",
"* c #393938",
"= c #404141",
"- c #424141",
"; c Gray26",
": c #464647",
"> c Gray29",
", c #4b4b4b",
"< c #4c4b4b",
"1 c #4c4c4c",
"2 c #4f5050",
"3 c #515252",
"4 c #535252",
"5 c #535353",
"6 c #535453",
"7 c #535454",
"8 c #545553",
"9 c #555454",
"0 c #575758",
"q c #585958",
"w c #595958",
"e c Gray35",
"r c #595a59",
"t c #585a5a",
"y c #5a5a5a",
"u c #5b5b5a",
"i c #5c5c5b",
"p c #5d5c5d",
"a c #5d5d5d",
"s c #5d5e5f",
"d c #5e5d5d",
"f c #5f5d5f",
"g c #5e5e5d",
"h c #5f5f5f",
"j c #5e5f60",
"k c #5f5f60",
"l c #5f605f",
"z c #5f615f",
"x c #5f6060",
"c c #5f6061",
"v c #5f6160",
"b c #605f5f",
"n c #605f60",
"m c #60605f",
"M c #60615f",
"N c #606060",
"B c #606061",
"V c #606160",
"C c #606161",
"Z c #616060",
"A c #616160",
"S c #646564",
"D c #666665",
"F c #797979",
"G c #7b7b7b",
"H c #868686",
"J c Gray57",
"K c #929292",
"L c #989898",
"P c Gray60",
"I c Gray61",
"U c #9f9f9f",
"Y c Gray75",
/* pixels */
"4wgmmNNNNxw%YY",
"gNNNmNNNNNN:YY",
"lNNNNNNNNbn>YY",
"lNNmlNNNNll1YY",
"gxxlnNNNNgb2YY",
"<NNNNNNNNjN4YY",
"+wNNNNNNNNN9YY",
"$-jxNNNNNNm0YY",
"S 8NNNNNmNNwYY",
"J-*iNNNNnNNwYY",
"UGX1xNnNxNNgYY",
"UL8owbNNxmmgYY",
"UUH#-gNNNgNjYY",
"UUUS.6NNNNNxYY",
"UUUJ-&gNNNNNYY",
"UUUUGo>mNNNNYY",
"UUUUL7@wnNNNYY",
"YYYYYYYYYYYYYY",
"YYYYYYYYYYYYYY"
};
