/* XPM */
static char *magick[] = {
/* columns rows colors chars-per-pixel */
"25 17 94 2",
"   c #191919",
".  c #1b1919",
"X  c #1b1a1b",
"o  c #1d1e1d",
"O  c #1f2020",
"+  c #202020",
"@  c #202120",
"#  c #212120",
"$  c Gray13",
"%  c #252324",
"&  c #262727",
"*  c #272627",
"=  c #272827",
"-  c #2b2a2b",
";  c Gray17",
":  c #2c2c2c",
">  c #2d2e2d",
",  c #2e2d2d",
"<  c #2f2e2e",
"1  c #313031",
"2  c #323232",
"3  c #343334",
"4  c #343434",
"5  c #343435",
"6  c #343534",
"7  c #343535",
"8  c #353535",
"9  c #3c3c3c",
"0  c #414141",
"q  c Gray26",
"w  c #484848",
"e  c #494949",
"r  c #4a4849",
"t  c #4a4a49",
"y  c Gray29",
"u  c #4b4c4c",
"i  c #4c4b4c",
"p  c #4c4c4c",
"a  c #4c4d4c",
"s  c #4d4d4e",
"d  c #4d4e4d",
"f  c #4d4e4e",
"g  c #4d4f4e",
"h  c #4e4d4d",
"j  c #4e4c4e",
"k  c #4e4d4e",
"l  c #4e4d4f",
"z  c #4e4e4d",
"x  c #4e4f4d",
"c  c #4e4e4e",
"v  c #4e4e4f",
"b  c #4e4f4e",
"n  c #4e4f4f",
"m  c #4f4e4e",
"M  c #4f4e4f",
"N  c Gray31",
"B  c #4f504f",
"V  c #4f5150",
"C  c #514f4f",
"Z  c #50514f",
"A  c #515151",
"S  c #505251",
"D  c #515251",
"F  c #515252",
"G  c Gray32",
"H  c #545354",
"J  c #545355",
"K  c Gray33",
"L  c #555454",
"P  c #555555",
"I  c Gray34",
"U  c #575758",
"Y  c Gray45",
"T  c #787778",
"R  c #7b7b7b",
"E  c #7b7c7b",
"W  c #7c7c7b",
"Q  c #7c7c7c",
"!  c #808081",
"~  c Gray51",
"^  c Gray52",
"/  c Gray53",
"(  c #898989",
")  c Gray55",
"_  c #8d8d8d",
"`  c #909090",
"'  c Gray57",
"]  c #959595",
"[  c Gray59",
"{  c #989898",
"}  c #9a9a9a",
"|  c #9d9d9d",
" . c #9f9f9f",
".. c Gray75",
/* pixels */
" . . . . . . . . . . . . . . . . . . . . . . .....",
" . . . . . . . . . . . . . . . . . . . . . . .....",
"Y Y Y Y T W W R E ! ^ ^ ^ ^ ( _ _ _ _ ` ] ] ] ....",
"M M M M C C B Z B A A A A A A K K H H L K U U ....",
"M M h M M M M M M M M M M M M M M M M M M M M ....",
"M M M M M M M M M M M M M M M M M M M M M M M ....",
"M M M M M M h M M M M M M M M M M M M M M M M ....",
"M M M M M M M M M M M M M M M M h M M M M M M ....",
"M M M M M a M M M M M M a M M M M M M M M M M ....",
"y y y y u a a a M M M M M M M M M M M M h h M ....",
"X X X o O % % % % & & & = ; : : : : : 1 3 6 3 ....",
"M M M M w 0 0 0 0 0 9 4 7 7 7 1 ; ; ; ; ; & # ....",
" . . . . .{ { { { { { ] ] ] ] ` _ _ _ _ _ ^ ! ....",
" . . . . . . . . . . . . . . . . . . . . . . .....",
" . . . . . . . . . . . . . . . . . . . . . . .....",
"..................................................",
".................................................."
};
