/* XPM */
static char *magick[] = {
/* columns rows colors chars-per-pixel */
"12 17 34 1",
"  c #444444",
". c #4e4b4a",
"X c #4f4b4b",
"o c #514c4c",
"O c #524c4d",
"+ c #524d4c",
"@ c #524d4d",
"# c #534e4e",
"$ c #564f4f",
"% c #585050",
"& c #595151",
"* c #5a5151",
"= c #695b5b",
"- c #6a5b5b",
"; c #6b5c5b",
": c #6c5c5c",
"> c #6c5c5d",
", c #6d5c5d",
"< c #6d5d5c",
"1 c #6d5d5d",
"2 c #6d5d5e",
"3 c #6e5d5d",
"4 c #6e5d5e",
"5 c #6e5e5d",
"6 c #6f5e5e",
"7 c #705e5e",
"8 c #715f5f",
"9 c #726060",
"0 c #736061",
"q c #746161",
"w c #756161",
"e c #766262",
"r c #776363",
"t c Gray75",
/* pixels */
"r766666%  tt",
"r666666%  tt",
"r666666%  tt",
"r666676$  tt",
"r666676$  tt",
"9666666$  tt",
"9766666$  tt",
"9766666#  tt",
"967666:#  tt",
"967766:#  tt",
"9667666O  tt",
"766666:#  tt",
"766666;#  tt",
"766666=.  tt",
"777667=.  tt",
"tttttttttttt",
"tttttttttttt"
};
