/* XPM */
static char *magick[] = {
/* columns rows colors chars-per-pixel */
"46 12 31 1",
"  c #5d5d5d",
". c #6a6a6a",
"X c #6b6c6b",
"o c #6c6c6c",
"O c #6c6c6d",
"+ c #6c6d6c",
"@ c #6d6c6d",
"# c #6d6d6c",
"$ c #6d6d6d",
"% c #6d6d6e",
"& c #6d6e6d",
"* c #6d6e6e",
"= c #6e6d6d",
"- c #6e6d6e",
"; c #6e6e6d",
": c Gray43",
"> c #6f6f6f",
", c #6f6f70",
"< c #706f70",
"1 c #70706f",
"2 c #808080",
"3 c #828283",
"4 c #828382",
"5 c #838282",
"6 c #838283",
"7 c #838383",
"8 c #898989",
"9 c #8b8b8b",
"0 c Gray56",
"q c Gray58",
"w c Gray75",
/* pixels */
"qqqqqqqq91ooooooo>ooo>>oooooooooooo7qqqqqqqqww",
"qqqqqqqq9<oooo,oo>>oooooo>oooooo>o>2qqqqqqqqww",
"qqqqqqqq8<ooooooooooo>>oooooo,ooo>o7qqqqqqqqww",
"qqqqqqqq0<oooooooooo>oooooo>ooooo>o2qqqqqqqqww",
"qqqqqqqq8<ooooooooooo>ooooooooooo>o7qqqqqqqqww",
"qqqqqqqq8,ooooooooooo>oooooooooooo17qqqqqqqqww",
"qqqqqqqq81oooooooooo>oooo>o>oo>oooo2qqqqqqqqww",
"qqqqqqqq0<ooooooooooooooooooooooooo2qqqqqqqqww",
"qqqqqqqq0X                        X9qqqqqqqqww",
"qqqqqqqqq82222222222222222222222229qqqqqqqqqww",
"wwwwwwwwwwwwwwwwwwwwwwwwwwwwwwwwwwwwwwwwwwwwww",
"wwwwwwwwwwwwwwwwwwwwwwwwwwwwwwwwwwwwwwwwwwwwww"
};
