/* XPM */
static char *magick[] = {
/* columns rows colors chars-per-pixel */
"27 16 58 1",
"  c #494747",
". c #494848",
"X c #4a4848",
"o c #4b4949",
"O c #4c4949",
"+ c #4d4a4a",
"@ c #4e4a4a",
"# c #4f4b4b",
"$ c #504c4c",
"% c #514c4c",
"& c #524d4d",
"* c #534d4d",
"= c #564f4f",
"- c #575050",
"; c #5b5252",
": c #655857",
"> c #645858",
", c #655858",
"< c #665958",
"1 c #675959",
"2 c #675a59",
"3 c #68595a",
"4 c #685a59",
"5 c #695a5b",
"6 c #6a5b5b",
"7 c #6b5b5b",
"8 c #6b5c5b",
"9 c #6c5c5c",
"0 c #6c5d5d",
"q c #6d5c5c",
"w c #6d5c5d",
"e c #6d5d5c",
"r c #6d5d5d",
"t c #6e5e5e",
"y c #6f5e5e",
"u c #705e5e",
"i c #705e5f",
"p c #705f5e",
"a c #705f5f",
"s c #715f5f",
"d c #715f60",
"f c #726060",
"g c #736161",
"h c #746161",
"j c #756161",
"k c #766262",
"l c #776363",
"z c #7a6464",
"x c #7a6565",
"c c #7b6565",
"v c #7d6767",
"b c #806868",
"n c #836a6a",
"m c #866c6c",
"M c #876c6c",
"N c #886d6d",
"B c #937474",
"V c Gray75",
/* pixels */
"llllllflfffffffdyuuuuuuyuVV",
"uuyyyyyyyuyyyyyyyyyyyyyyyVV",
"uyyyyyyyyyyyyyyyyyyyyyyyyVV",
"uyyyyyyyyyyyyyyyyyyyyyyyyVV",
"yyyyyyyyyyyyyyyyyyyyyyyyyVV",
"yyyyyyyyyyyyyyyyyyyyyyyyyVV",
"yyyyyyyyyyyyyyyyyyyyyyyyyVV",
"yyyyyyyyyyyyyyyyyyyyyyyyyVV",
"yyyyyyyyyyyyyyyyyyyyyyyyyVV",
"yyyyyyyyyyyyyyyyyyyyyyyyyVV",
"yyyyyy8777777777222722>2:VV",
";$$$$$$#######ooo#o##oo  VV",
"z-o     ########$$=$=$$$=VV",
"BMzzzzzzvbbbvbbbbMMMMMMMNVV",
"VVVVVVVVVVVVVVVVVVVVVVVVVVV",
"VVVVVVVVVVVVVVVVVVVVVVVVVVV"
};
