/* XPM */
static char *magick[] = {
/* columns rows colors chars-per-pixel */
"12 17 52 1",
"  c Gray34",
". c #575758",
"X c #575857",
"o c #575858",
"O c #585757",
"+ c #585758",
"@ c #585857",
"# c #585858",
"$ c #5e5d5e",
"% c Gray37",
"& c #5e5f5f",
"* c #5f6060",
"= c #605f60",
"- c #60605f",
"; c #606060",
": c #606160",
"> c Gray38",
", c #616262",
"< c #626161",
"1 c #626262",
"2 c #636263",
"3 c Gray39",
"4 c #646463",
"5 c #6c6c6c",
"6 c #6c6d6c",
"7 c #6d6d6d",
"8 c #6d6e6e",
"9 c #6e6d6d",
"0 c #6e6d6e",
"q c #6e6e6d",
"w c Gray43",
"e c #6e6f6e",
"r c #6e6f6f",
"t c #6f6e6f",
"y c #6f6f6f",
"u c #6f6f70",
"i c #6f706f",
"p c #6f7070",
"a c #706f6f",
"s c #706f70",
"d c #70706f",
"f c Gray44",
"g c #717071",
"h c #717171",
"j c #717172",
"k c #727272",
"l c Gray45",
"z c #747474",
"x c #757475",
"c c #757676",
"v c #777777",
"b c Gray75",
/* pixels */
"X+3yyayasvbb",
"X@4yyyyyyvbb",
".#3yyyyyyvbb",
"#X3yyyapsvbb",
"@O*yyyyiyvbb",
"Xo3yyyyuuzbb",
".O3yyyyyplbb",
"O@3yyiyuplbb",
"  =yyyiiilbb",
"  3yyyyyylbb",
"O@*yyyiyulbb",
"O#-yyiiyulbb",
"X.&yyyyaylbb",
" @&yyyiaylbb",
"  &5yyyyylbb",
"bbbbbbbbbbbb",
"bbbbbbbbbbbb"
};
