/* XPM */
static char *magick[] = {
/* columns rows colors chars-per-pixel */
"12 12 45 1",
"  c Gray0",
". c #0f0b0c",
"X c #120e0f",
"o c #131011",
"O c #131110",
"+ c #141110",
"@ c #181313",
"# c #1a1515",
"$ c #1b1515",
"% c #1c1615",
"& c #1f1918",
"* c #463637",
"= c #493839",
"- c #4a3a3a",
"; c #4b3a3a",
": c #4b3b3a",
"> c #4d3c3c",
", c #503e3f",
"< c #503f3f",
"1 c #51403f",
"2 c #544242",
"3 c #544243",
"4 c #544342",
"5 c #544343",
"6 c #554242",
"7 c #554243",
"8 c #554342",
"9 c #554343",
"0 c #564242",
"q c #564243",
"w c #564342",
"e c #564343",
"r c #574344",
"t c #584545",
"y c #584645",
"u c #5a4746",
"i c #5a4747",
"p c #5b4746",
"a c #856868",
"s c #866868",
"d c #896b6b",
"f c #8d6e6e",
"g c #917171",
"h c #967575",
"j c Gray75",
/* pixels */
"hp999991& jj",
"hp99999<% jj",
"hp99999<# jj",
"gp99999<# jj",
"fr99999>@ jj",
"fp99999:+ jj",
"fp99999:o jj",
"dr99999:o jj",
"a999999:X jj",
"a999999*. jj",
"jjjjjjjjjjjj",
"jjjjjjjjjjjj"
};
