/* XPM */
static char *magick[] = {
/* columns rows colors chars-per-pixel */
"12 12 29 1",
"  c #58504f",
". c #575050",
"X c #585050",
"o c #5c5253",
"O c #5d5353",
"+ c #5e5353",
"@ c #5e5453",
"# c #5e5454",
"$ c #5f5555",
"% c #605555",
"& c #615556",
"* c #6c5c5c",
"= c #6d5c5d",
"- c #6d5d5c",
"; c #6e5d5d",
": c #6e5d5e",
"> c #6e5e5d",
", c #6e5e5e",
"< c #6f5e5e",
"1 c #705e5e",
"2 c #705e5f",
"3 c #715f5f",
"4 c #726060",
"5 c #876d6d",
"6 c #896e6e",
"7 c #8b6f6f",
"8 c #8d7070",
"9 c #907272",
"0 c Gray75",
/* pixels */
".&;;;;;;4900",
".&;;;;1;4900",
".$;;;;;;4900",
" $;;;;;11800",
".$;;;;;;1700",
".$;;;;;;1600",
".+;;;;;;1600",
"X@;;;;1;1600",
"X+;;1;;;1500",
"X+;;11;;1500",
"000000000000",
"000000000000"
};
