/* XPM */
static char *magick[] = {
/* columns rows colors chars-per-pixel */
"41 41 105 2",
"   c #7e4e4e",
".  c #7f5353",
"X  c #7f5453",
"o  c #7f5454",
"O  c #8c1f1f",
"+  c #8d1e1e",
"@  c #921c1c",
"#  c #951c1b",
"$  c #872b2b",
"%  c #852f2f",
"&  c #882929",
"*  c #892929",
"=  c #882a29",
"-  c #892a29",
";  c #853333",
":  c #8b3838",
">  c #9d2a2a",
",  c #9e2928",
"<  c #9e2a2a",
"1  c #943938",
"2  c #a60707",
"3  c #a70707",
"4  c #a60807",
"5  c #a70807",
"6  c #a70908",
"7  c #a80707",
"8  c #aa0707",
"9  c #ad0504",
"0  c #a80807",
"q  c #ab0d0d",
"w  c #a21f1f",
"e  c #a81c1b",
"r  c #b10303",
"t  c #b50302",
"y  c #b60100",
"u  c #b90000",
"i  c #ba0000",
"p  c #bb0000",
"a  c #be0000",
"s  c #be0100",
"d  c #bf0000",
"f  c #bf0100",
"g  c #be0908",
"h  c #ab2625",
"j  c #874e4e",
"k  c #805353",
"l  c #875353",
"z  c #875453",
"x  c #875454",
"c  c #845f5f",
"v  c #855f5f",
"b  c #895f5f",
"n  c #886363",
"m  c #8a6767",
"M  c #8c6666",
"N  c #8c6767",
"B  c #926f6f",
"V  c #947272",
"C  c #947373",
"Z  c #967474",
"A  c #977575",
"S  c #997777",
"D  c #9d7b7b",
"F  c #9e7b7b",
"G  c #9e7c7c",
"H  c #9f7c7c",
"J  c #c00000",
"K  c #c00100",
"L  c #c10000",
"P  c #c30504",
"I  c #c50302",
"U  c #d10000",
"Y  c #d30000",
"T  c #e10302",
"R  c #e10403",
"E  c #e40000",
"W  c #e50000",
"Q  c #e50100",
"!  c #e60000",
"~  c #e60100",
"^  c #e70000",
"/  c #e60807",
"(  c #e60907",
")  c #e70807",
"_  c #e70907",
"`  c #e40908",
"'  c #e80000",
"]  c #e90000",
"[  c #e80707",
"{  c #ea0707",
"}  c #ed0000",
"|  c #ef0000",
" . c #ee0504",
".. c #ef0604",
"X. c #e80807",
"o. c #e80907",
"O. c #f20303",
"+. c #f00504",
"@. c #f40200",
"#. c #f60000",
"$. c #f80000",
"%. c #f90000",
"&. c #fa0000",
"*. c #fa0100",
"=. c Gray75",
/* pixels */
"H H H H H H H H H H H H H H H H . 5 y g , M H H H H H H H H H H H H H H H H H =.=.",
"H H H H H H H H H H H H H H H H X 5 i E ) l H H H H H H H H H H H H H H H H H =.=.",
"H H H H H H H H H H H H H H H H . 5 i E ) l H H H H H H H H H H H H H H H H H =.=.",
"H H H H H H H H H H H H H H H H . 5 i E X.l H H H H H H H H H H H H H H H H H =.=.",
"H H H H H H H H H H H H H H H H . 7 i E ) l H H H H H H H H H H H H H H H H H =.=.",
"H H H H H H H H H H H H H H H H . 3 i E X.l H H H H H H H H H H H H H H H H H =.=.",
"H H H H H H H H H H H H H H H H . 3 i E ) l H H H H H H H H H H H H H H H H H =.=.",
"H H H H H H H H H H H H H H H H . 5 i E ) l H H H H H H H H H H H H H H H H H =.=.",
"H H H H H H H H H H H H H H H H X 3 i E ) z H H H H H H H H H H H H H H H H H =.=.",
"H H H H H H H H H H H H H H H H . 3 i E { z H H H H H H H H H H H H H H H H H =.=.",
"H H H H H H H H H H H H H H H H . 3 i E ) z H H H H H H H H H H H H H H H H H =.=.",
"H H H H H H H H H H H H H H H H . 7 i E ) z H H H H H H H H H H H H H H H H H =.=.",
"H H H H H H H H H H H H H H H H . 0 i E X.l H H H H H H H H H H H H H H H H H =.=.",
"H H H H H H H H H H H H H H H H . 5 i E ) l H H H H H H H H H H H H H H H H H =.=.",
"H H H H H H H H H H H H H H H H k 0 i E ) z H H H H H H H H H H H H H H H H H =.=.",
"A A A A A A A A A A A A A A A A   7 i E { j A A A A A A A A A A A A A S H H H =.=.",
"$ & & & & & & & & & & & & & & & # r i E @.e & & & & & & & & & & & & & % k V H =.=.",
"9 i d L d d d d d d d d d d L L d d L ] *.U d d d d d d d d d d d d d d q ; n =.=.",
"+ I E E E E E E E E E E E E E E E E ] #.*.@.E E E E E E E E E E E E E E E R , =.=.",
"v w ` ) ) ) ) ) ) X.X.) ) ) ) )  .#.*.*.*.+.) X.) ) X.X.) ) ) ) ) ) ) ) ) ) h =.=.",
"F M x l l l l z l l l l l l l z : P U }  .1 z z l z l l l l l l z l z z l z b =.=.",
"H H H H H H H H H H H H H H H H X 7 i E ) z H H H H H H H H H H H H H H H H H =.=.",
"H H H H H H H H H H H H H H H H . 7 i E ) l H H H H H H H H H H H H H H H H H =.=.",
"H H H H H H H H H H H H H H H H . 3 i E ) z H H H H H H H H H H H H H H H H H =.=.",
"H H H H H H H H H H H H H H H H . 3 i E ) l H H H H H H H H H H H H H H H H H =.=.",
"H H H H H H H H H H H H H H H H . 3 i E ) l H H H H H H H H H H H H H H H H H =.=.",
"H H H H H H H H H H H H H H H H . 7 i E ) l H H H H H H H H H H H H H H H H H =.=.",
"H H H H H H H H H H H H H H H H . 7 i E ) z H H H H H H H H H H H H H H H H H =.=.",
"H H H H H H H H H H H H H H H H . 3 i E ) z H H H H H H H H H H H H H H H H H =.=.",
"H H H H H H H H H H H H H H H H . 3 i E ) l H H H H H H H H H H H H H H H H H =.=.",
"H H H H H H H H H H H H H H H H X 3 i E X.l H H H H H H H H H H H H H H H H H =.=.",
"H H H H H H H H H H H H H H H H . 3 i E ) z H H H H H H H H H H H H H H H H H =.=.",
"H H H H H H H H H H H H H H H H . 5 i E ) z H H H H H H H H H H H H H H H H H =.=.",
"H H H H H H H H H H H H H H H H . 3 i E ) l H H H H H H H H H H H H H H H H H =.=.",
"H H H H H H H H H H H H H H H H o 6 i E ) l H H H H H H H H H H H H H H H H H =.=.",
"H H H H H H H H H H H H H H H H m + y E X.z H H H H H H H H H H H H H H H H H =.=.",
"H H H H H H H H H H H H H H H H F v @ T ) l H H H H H H H H H H H H H H H H H =.=.",
"H H H H H H H H H H H H H H H H H F v , h b H H H H H H H H H H H H H H H H H =.=.",
"H H H H H H H H H H H H H H H H H H F V B S H H H H H H H H H H H H H H H H H =.=.",
"=.=.=.=.=.=.=.=.=.=.=.=.=.=.=.=.=.=.=.=.=.=.=.=.=.=.=.=.=.=.=.=.=.=.=.=.=.=.=.=.=.",
"=.=.=.=.=.=.=.=.=.=.=.=.=.=.=.=.=.=.=.=.=.=.=.=.=.=.=.=.=.=.=.=.=.=.=.=.=.=.=.=.=."
};
