/* XPM */
static char *magick[] = {
/* columns rows colors chars-per-pixel */
"17 38 92 1",
"  c #434344",
". c #434543",
"X c #434444",
"o c #434445",
"O c #434544",
"+ c #434545",
"@ c #444344",
"# c #444345",
"$ c #454344",
"% c #454345",
"& c #444443",
"* c #454443",
"= c #454543",
"- c #444444",
"; c #444445",
": c #444544",
"> c #444545",
", c #454444",
"< c #454445",
"1 c #454544",
"2 c Gray27",
"3 c #454546",
"4 c #454644",
"5 c #454645",
"6 c #454646",
"7 c #454647",
"8 c #454746",
"9 c #464444",
"0 c #464445",
"q c #464545",
"w c #474545",
"e c #464546",
"r c #474546",
"t c #464644",
"y c #464645",
"u c #464646",
"i c #464647",
"p c #464746",
"a c #474646",
"s c #474647",
"d c #474746",
"f c #474847",
"g c #484646",
"h c #484848",
"j c #484948",
"k c #484949",
"l c #494848",
"z c #494a49",
"x c #494a4b",
"c c #494b4a",
"v c #4a484a",
"b c #4b494a",
"n c #4b4a49",
"m c Gray29",
"M c #4a4b4a",
"N c #4b4b4b",
"B c #4d4e4d",
"V c #4e4d4d",
"C c #4e4d4e",
"Z c #4e4e4d",
"A c #4e4e4e",
"S c #4e4e4f",
"D c #4e4f4f",
"F c #4f4f4e",
"G c #5a5959",
"H c #5a5a59",
"J c #5a5a5a",
"K c #5c5c5d",
"L c #606060",
"P c #606061",
"I c #606160",
"U c #606161",
"Y c #616160",
"T c Gray38",
"R c #646565",
"E c #686969",
"W c #696869",
"Q c #696968",
"! c Gray41",
"~ c #69696a",
"^ c #6d6e6d",
"/ c #727272",
"( c #777777",
") c #7b7b7b",
"_ c Gray52",
"` c #898a8a",
"' c #8d8e8e",
"] c #8e8e8e",
"[ c #9a9a9a",
"{ c #9d9d9d",
"} c #9f9f9f",
"| c Gray75",
/* pixels */
"]Brr&r.oooorH[}||",
"]BrorrroorrrH[}||",
"]BrrororrrroH[}||",
"]Broo&or$&.rK{}||",
"]Br$rror rrrL}}||",
"]Br.oror.rorL}}||",
"]Bro.rro rrrL}}||",
"]Brorr.rrorrL}}||",
"]BrrrrororrrL}}||",
"]BrrorroorroL}}||",
"]BrorrorroorL}}||",
"`Mrr&r&r$rorL}}||",
"_Mrrooo.$r&rL}}||",
"_Mr&rrrooor&R}}||",
"_hrroorrrorrW}}||",
"_hrrrrororrrW}}||",
"_fr$or.rororW}}||",
"_frorooo orrE}}||",
"_MrrorrroorrE}}||",
"_Mr .r.rorrrW}}||",
"_Mr.orooorrrW}}||",
"_sr oorr&rrrW}}||",
"_frrrrrorrrrE}}||",
"_fr oror oro^}}||",
"_Mr&rrrooorr/}}||",
"_Mrrroorrorr/}}||",
"_Mrororr$rrr/}}||",
"_Mrrorr.rorf/}}||",
"_Mrrrrro.r&r/}}||",
"_Mro.&&rrrrr/}}||",
"_Mrorrrrorrr/}}||",
"_Mro.&rooorr/}}||",
"_Mroorr&.rrr/}}||",
"_Mr$rooroorf(}}||",
"_Mrrrrr&r&rf)}}||",
"_Mrrorrrorrf)}}||",
"|||||||||||||||||",
"|||||||||||||||||"
};
