/* XPM */
static char *magick[] = {
/* columns rows colors chars-per-pixel */
"19 15 63 1",
"  c #474746",
". c Gray28",
"X c #484948",
"o c #494948",
"O c #4c4c4c",
"+ c #4e4d4e",
"@ c #4e4e4e",
"# c #545354",
"$ c #545453",
"% c Gray33",
"& c #565555",
"* c Gray35",
"= c #5a5a5a",
"- c #5b5a5b",
"; c #5b5b5b",
": c #5b5b5c",
"> c #5c5c5d",
", c #5d5e5d",
"< c #5e5e5d",
"1 c Gray37",
"2 c Gray38",
"3 c #626261",
"4 c #626262",
"5 c #626362",
"6 c #636263",
"7 c Gray39",
"8 c #636463",
"9 c #686768",
"0 c #686867",
"q c #686868",
"w c Gray41",
"e c #6a6a6a",
"r c #6b6b6a",
"t c Gray42",
"y c #6b6b6c",
"u c #6b6c6b",
"i c #6b6c6c",
"p c #6c6c6c",
"a c #6d6c6c",
"s c #6d6d6d",
"d c #6d6d6e",
"f c #6d6e6d",
"g c #6d6e6e",
"h c #6e6d6d",
"j c #6e6d6e",
"k c #6e6e6d",
"l c Gray43",
"z c #6f6e6f",
"x c #6f6f6f",
"c c #6f6f70",
"v c #706f6f",
"b c #706f70",
"n c Gray45",
"m c #757574",
"M c #777777",
"N c #797979",
"B c #818181",
"V c #818281",
"C c #828281",
"Z c Gray54",
"A c Gray57",
"S c Gray58",
"D c Gray75",
/* pixels */
"xrBmnMBZASASSSSSSDD",
"x>2xxyxxnNBZASSSSDD",
"x=&xxxdxxxxxnNBZADD",
"x==xxxyxxxxxxxxbnDD",
"x>2xxxxxyxyxxxaxrDD",
"x8qxxdyxxxxxxxxx7DD",
"xryxxdxxxxyxxxyx>DD",
"xxxxxxxxxxxyxyxr>DD",
"xxxxdxxxxxxuxxu02DD",
"xxdxxdxxuaxuuxx2dDD",
"229uxdxxxxyxxxx>mDD",
".X@$=2ryxaxxuxu2mDD",
"==%O.X@#=2uxxxxrxDD",
"DDDDDDDDDDDDDDDDDDD",
"DDDDDDDDDDDDDDDDDDD"
};
