/* XPM */
static char *magick[] = {
/* columns rows colors chars-per-pixel */
"24 26 167 2",
"   c #853838",
".  c #863f3e",
"X  c #873e3e",
"o  c #8f3131",
"O  c #8f3333",
"+  c #8c3737",
"@  c #8e3535",
"#  c #8f3535",
"$  c #8a3b3b",
"%  c #8b3a3a",
"&  c #8b3f3f",
"*  c #8d3838",
"=  c #8f3939",
"-  c #8f3c3b",
";  c #8d3e3e",
":  c #8e3c3c",
">  c #912f2f",
",  c #932d2d",
"<  c #962d2c",
"1  c #972f2f",
"2  c #9d2625",
"3  c #9d2626",
"4  c #9f2524",
"5  c #9e2626",
"6  c #9f2727",
"7  c #9d2827",
"8  c #992929",
"9  c #992d2d",
"0  c #9c2929",
"q  c #9c2a2a",
"w  c #9c2d2d",
"e  c #913130",
"r  c #913131",
"t  c #903433",
"y  c #913433",
"u  c #913535",
"i  c #913636",
"p  c #923636",
"a  c #903939",
"s  c #a81f1f",
"d  c #a91f1f",
"f  c #ac1f1f",
"g  c #ae1e1e",
"h  c #af1e1e",
"j  c #b41616",
"k  c #b71717",
"l  c #b21b1b",
"z  c #b21d1c",
"x  c #b41a19",
"c  c #b51b1b",
"v  c #be1514",
"b  c #a7201f",
"n  c #ac201f",
"m  c #a12626",
"M  c #a12726",
"N  c #a32424",
"B  c #a32625",
"V  c #a22726",
"C  c #a32727",
"Z  c #a42221",
"A  c #a42222",
"S  c #a42323",
"D  c #a52222",
"F  c #a62120",
"G  c #a62322",
"H  c #a62323",
"J  c #a42524",
"K  c #a42726",
"L  c #a42727",
"P  c #a32a2a",
"I  c #a82120",
"U  c #a92120",
"Y  c #a82423",
"T  c #ab2626",
"R  c #824040",
"E  c #854242",
"W  c #864343",
"Q  c #874343",
"!  c #854646",
"~  c #824a4a",
"^  c #814e4e",
"/  c #834e4d",
"(  c #874949",
")  c #864b4b",
"_  c #844f4f",
"`  c #854e4e",
"'  c #884040",
"]  c #894443",
"[  c #884646",
"{  c #884949",
"}  c #884a49",
"|  c #825353",
" . c #825757",
".. c #835656",
"X. c #835757",
"o. c #845151",
"O. c #845353",
"+. c #865151",
"@. c #875353",
"#. c #845454",
"$. c #865555",
"%. c #875757",
"&. c #835858",
"*. c #845858",
"=. c #855959",
"-. c #855b5a",
";. c #875858",
":. c #855f5f",
">. c #865c5c",
",. c #885f5f",
"<. c #876060",
"1. c #876363",
"2. c #886060",
"3. c #886160",
"4. c #896060",
"5. c #886363",
"6. c #8a6363",
"7. c #886565",
"8. c #896565",
"9. c #896666",
"0. c #8a6565",
"q. c #8b6565",
"w. c #8a6666",
"e. c #8b6666",
"r. c #8c6969",
"t. c #8e6a6a",
"y. c #8e6b6b",
"u. c #8f6d6d",
"i. c #906d6d",
"p. c #906e6e",
"a. c #916f6f",
"s. c #926f6f",
"d. c #917070",
"f. c #927070",
"g. c #927171",
"h. c #937171",
"j. c #947272",
"k. c #957272",
"l. c #957373",
"z. c #957474",
"x. c #967474",
"c. c #977575",
"v. c #977676",
"b. c #987575",
"n. c #987676",
"m. c #987777",
"M. c #997777",
"N. c #9a7777",
"B. c #997878",
"V. c #9a7878",
"C. c #9b7878",
"Z. c #9b7979",
"A. c #9c7878",
"S. c #9c7a7a",
"D. c #9d7a7a",
"F. c #9d7b7b",
"G. c #9e7b7b",
"H. c #9e7c7c",
"J. c #9f7c7c",
"K. c #d60e0e",
"L. c #dd0706",
"P. c #de0604",
"I. c #de0b0a",
"U. c #e20605",
"Y. c #f10100",
"T. c #f00200",
"R. c Gray75",
/* pixels */
"J.J.J.J.J.J.J.S.N.i.7.t.l.S.J.J.J.J.J.J.J.J.R.R.",
"J.J.J.J.J.N.6.; w L I B 0 i O.d.J.J.J.J.J.J.R.R.",
"J.J.J.S.6.= g 0 X ~ X.| ! t b 1 >.V.J.J.J.J.R.R.",
"J.J.S.=.n 5 ^ d.G.J.J.J.J.N.<.% F O.V.J.J.J.R.R.",
"J.S.=.g # u.J.J.J.J.J.J.J.J.J.N.O.F O.V.J.J.R.R.",
"J.i.B r i.J.J.J.J.J.J.J.J.J.J.J.V.` F >.J.J.R.R.",
"S.{ s 7.J.J.J.J.J.J.J.J.J.J.J.J.J.x.= r x.J.R.R.",
"i.L E V.J.J.J.J.J.J.J.J.J.J.J.J.J.J.<.F &.J.R.R.",
"=.F 6.J.J.J.J.J.J.J.J.J.J.J.J.J.J.J.N.t % S.R.R.",
"{ 8 d.J.J.J.J.J.J.J.J.J.J.J.J.J.J.J.J.] 1 x.R.R.",
"; O V.J.J.J.J.J.J.J.J.J.J.J.J.J.J.J.J.O.5 t.R.R.",
"i # V.J.J.J.J.J.J.J.J.J.J.J.J.J.J.J.J.#.F t.R.R.",
"& , x.J.J.J.J.J.J.J.J.J.J.J.J.J.J.J.J.) 5 i.R.R.",
"` 5 u.J.J.J.J.J.J.J.J.J.J.J.J.J.J.J.S.- , N.R.R.",
"6.F X.J.J.J.J.J.J.J.J.J.J.J.J.J.J.J.i.B E J.R.R.",
"N.i O x.J.J.J.J.J.J.J.J.J.J.J.J.J.S.) I 7.J.R.R.",
"S.>.b X.S.J.J.J.J.J.J.J.J.J.J.J.J.7.g X V.J.R.R.",
"J.N.E 5 ,.S.J.x.V.J.J.J.J.J.J.J.7.B 5 t.J.J.R.R.",
"J.J.l.' B #.>.r   <.V.J.J.J.N.,.L B 7.J.J.J.R.R.",
"J.J.J.l.E b G v P.j R 7.u.>.a z 9 e.J.J.J.J.R.R.",
"J.J.J.J.x.>.# k P.T.U.x Y l 7 ^ i.J.J.J.J.J.R.R.",
"J.J.J.J.J.J.u.# P.T.I.T [ &.i.J.J.J.J.J.J.J.R.R.",
"J.J.J.J.J.J.6.c K.P O.d.J.J.J.J.J.J.J.J.J.J.R.R.",
"J.J.J.J.J.J.x.%.=.l.J.J.J.J.J.J.J.J.J.J.J.J.R.R.",
"R.R.R.R.R.R.R.R.R.R.R.R.R.R.R.R.R.R.R.R.R.R.R.R.",
"R.R.R.R.R.R.R.R.R.R.R.R.R.R.R.R.R.R.R.R.R.R.R.R."
};
