/* XPM */
static char *magick[] = {
/* columns rows colors chars-per-pixel */
"12 12 50 1",
"  c #242425",
". c #252425",
"X c #252525",
"o c #252526",
"O c #262525",
"+ c #262526",
"@ c #262727",
"# c #272727",
"$ c #272728",
"% c #272828",
"& c #282928",
"* c #292a2b",
"= c Gray17",
"- c #2b2c2b",
"; c #434242",
": c #434243",
"> c #434342",
", c #444546",
"< c #464647",
"1 c #474746",
"2 c #484747",
"3 c #494949",
"4 c #4a4a4b",
"5 c #545555",
"6 c #555454",
"7 c #555455",
"8 c #555554",
"9 c #555555",
"0 c #555456",
"q c #555556",
"w c #555654",
"e c #555655",
"r c #555656",
"t c #565555",
"y c #565556",
"u c #565655",
"i c #565656",
"p c #565756",
"a c #565757",
"s c Gray34",
"d c Gray40",
"f c Gray41",
"g c #6c6c6c",
"h c #6c6d6c",
"j c #6d6d6d",
"k c #707071",
"l c #757475",
"z c Gray46",
"x c #797979",
"c c Gray75",
/* pixels */
"X-3qqqqqpxcc",
"X=3qqqqqqzcc",
"X=3qqqqqqzcc",
"X=<qqqqqqzcc",
"X=<qqq88qkcc",
"XX2qqqq8qgcc",
"X%<qqq8qqgcc",
"X%;qqqqqqgcc",
"X$;qqqqqqfcc",
"XX;qqqqqqdcc",
"cccccccccccc",
"cccccccccccc"
};
