/* XPM */
static char *magick[] = {
/* columns rows colors chars-per-pixel */
"41 41 96 2",
"   c #7d4444",
".  c #7d4545",
"X  c #7d4646",
"o  c #7d4747",
"O  c #7e4444",
"+  c #7b4949",
"@  c #7b4a49",
"#  c #7b4a4a",
"$  c #7b4b4b",
"%  c #7a4e4e",
"&  c #7a4f4e",
"*  c #7b4e4e",
"=  c #7c4848",
"-  c #7c4949",
";  c #7c4b4b",
":  c #7c4e4e",
">  c #795252",
",  c #7a5050",
"<  c #7a5151",
"1  c #7b5252",
"2  c #785656",
"3  c #796262",
"4  c #796666",
"5  c #7a6969",
"6  c #7b6c6c",
"7  c #7b6d6d",
"8  c #7e7070",
"9  c #7f7777",
"0  c #804444",
"q  c #844b4b",
"w  c #864c4c",
"e  c #884444",
"r  c #8a4444",
"t  c #8a4544",
"y  c #8a4545",
"u  c #8b4444",
"i  c #8c4544",
"p  c #8f4444",
"a  c #884848",
"s  c #954b4b",
"d  c #9a4444",
"f  c #9b4444",
"g  c #9b4544",
"h  c #945d5d",
"j  c #9f5554",
"k  c #97605f",
"l  c #806767",
"z  c #806e6e",
"x  c #886e6e",
"c  c #827171",
"v  c #807a7a",
"b  c #817c7c",
"n  c #827d7d",
"m  c #837e7e",
"M  c #906666",
"N  c #916666",
"B  c #a24444",
"V  c #a64444",
"C  c #a24949",
"Z  c #a54a49",
"A  c #ab4444",
"S  c #ac4444",
"D  c #af4a49",
"F  c #ad4e4d",
"G  c #a55555",
"H  c #a85353",
"J  c #a95252",
"K  c #a85453",
"L  c #b54646",
"P  c #b64444",
"I  c #b64544",
"U  c #b74444",
"Y  c #b74544",
"T  c #b64b4a",
"R  c #bc4544",
"E  c #bd4544",
"W  c #c04544",
"Q  c #c14544",
"!  c #c14644",
"~  c #c24544",
"^  c #c34544",
"/  c #848080",
"(  c #858282",
")  c #898484",
"_  c #888686",
"`  c #8a8686",
"'  c #8b8787",
"]  c #8b8888",
"[  c #8c8b8b",
"{  c #8e8e8e",
"}  c #8f8e8e",
"|  c #909090",
" . c #929292",
".. c #939393",
"X. c Gray58",
"o. c Gray75",
/* pixels */
"X.X.X.X.X.X.X.X.X.X.X.X.X.X.X.X. .N ! s 6 { X.X.X.X.X.X.X.X.X.X.X.X.X.X.X.X.X.o.o.",
"X.X.X.X.X.X.X.X.X.X.X.X.X.X.X.X. .N ! g - 6 { X.X.X.X.X.X.X.X.X.X.X.X.X.X.X.X.o.o.",
"X.X.X.X.X.X.X.X.X.X.X.X.X.X.X.X. .N ! g   + 5 [ X.X.X.X.X.X.X.X.X.X.X.X.X.X.X.o.o.",
"X.X.X.X.X.X.X.X.X.X.X.X.X.X.X.X. .N ! g     + b X.X.X.X.X.X.X.X.X.X.X.X.X.X.X.o.o.",
"X.X.X.X.X.X.X.X.X.X.X.X.X.X.X.X. .N ! g     + v X.X.X.X.X.X.X.X.X.X.X.X.X.X.X.o.o.",
"X.X.X.X.X.X.X.X.X.X.X.X.X.X.X.X. .N ! g     + v X.X.X.X.X.X.X.X.X.X.X.X.X.X.X.o.o.",
"X.X.X.X.X.X.X.X.X.X.X.X.X.X.X.X. .N ! g     - v X.X.X.X.X.X.X.X.X.X.X.X.X.X.X.o.o.",
"X.X.X.X.X.X.X.X.X.X.X.X.X.X.X.X. .N ! g     - v X.X.X.X.X.X.X.X.X.X.X.X.X.X.X.o.o.",
"X.X.X.X.X.X.X.X.X.X.X.X.X.X.X.X. .N ! g     - v X.X.X.X.X.X.X.X.X.X.X.X.X.X.X.o.o.",
"X.X.X.X.X.X.X.X.X.X.X.X.X.X.X.X. .N ! g     - v X.X.X.X.X.X.X.X.X.X.X.X.X.X.X.o.o.",
"X.X.X.X.X.X.X.X.X.X.X.X.X.X.X.X. .N ! g     + v X.X.X.X.X.X.X.X.X.X.X.X.X.X.X.o.o.",
"X.X.X.X.X.X.X.X.X.X.X.X.X.X.X.X. .N ! g     + v X.X.X.X.X.X.X.X.X.X.X.X.X.X.X.o.o.",
"X.X.X.X.X.X.X.X.X.X.X.X.X.X.X.X. .N ! g     - v X.X.X.X.X.X.X.X.X.X.X.X.X.X.X.o.o.",
"X.X.X.X.X.X.X.X.X.X.X.X.X.X.X.X. .N ! g     - v X.X.X.X.X.X.X.X.X.X.X.X.X.X.X.o.o.",
"X.X.X.X.X.X.X.X.X.X.X.X.X.X.X.X. .N ! g     + v X.X.X.X.X.X.X.X.X.X.X.X.X.X.X.o.o.",
"X.X.X.X.X.X.X.X.X.X.X.X.X.X.X.X. .N ! g     - v X.X.X.X.X.X.X.X.X.X.X.X.X.X.X.o.o.",
"' ' ) ' ) ' ) ) ) ' ) ' ) ' ) ) ) k ! B u u a c ) ) ) ) ' ) ) ' ) ) ) ) ]  .X.o.o.",
"G H H K H H K H K H H H H K K K J T ! R Y Y Y F H K H H K H K H K J K K j z { o.o.",
"D Y Y Y Y Y Y Y Y Y Y Y Y Y Y Y Y R ! R Y Y Y Y Y Y Y Y Y Y Y Y Y Y Y Y S q 6 o.o.",
"l w u u u u u u u u u u u u u u i A ! B u u u u u u u u u u u u u u u u u   + o.o.",
"{ 9 2 o                         0 V ! g                                       o.o.",
"X...) 4 > % & & % % % % & & & & : C ! g       + & & & & & & & & & & & & & & & o.o.",
"X.X.X.{ ( / / / / / / / / / / / b h ! g     - 6 / / / / / / / / / / / / / / / o.o.",
"X.X.X.X.X.X.X.X.X.X.X.X.X.X.X.X. .N ! g     + v X.X.X.X.X.X.X.X.X.X.X.X.X.X.X.o.o.",
"X.X.X.X.X.X.X.X.X.X.X.X.X.X.X.X. .N ! g     - v X.X.X.X.X.X.X.X.X.X.X.X.X.X.X.o.o.",
"X.X.X.X.X.X.X.X.X.X.X.X.X.X.X.X. .N ! g     + v X.X.X.X.X.X.X.X.X.X.X.X.X.X.X.o.o.",
"X.X.X.X.X.X.X.X.X.X.X.X.X.X.X.X. .N ! g     - v X.X.X.X.X.X.X.X.X.X.X.X.X.X.X.o.o.",
"X.X.X.X.X.X.X.X.X.X.X.X.X.X.X.X. .N ! g     - v X.X.X.X.X.X.X.X.X.X.X.X.X.X.X.o.o.",
"X.X.X.X.X.X.X.X.X.X.X.X.X.X.X.X. .N ! g     + v X.X.X.X.X.X.X.X.X.X.X.X.X.X.X.o.o.",
"X.X.X.X.X.X.X.X.X.X.X.X.X.X.X.X. .N ! g     - v X.X.X.X.X.X.X.X.X.X.X.X.X.X.X.o.o.",
"X.X.X.X.X.X.X.X.X.X.X.X.X.X.X.X. .N ! g     + v X.X.X.X.X.X.X.X.X.X.X.X.X.X.X.o.o.",
"X.X.X.X.X.X.X.X.X.X.X.X.X.X.X.X. .N ! g     + v X.X.X.X.X.X.X.X.X.X.X.X.X.X.X.o.o.",
"X.X.X.X.X.X.X.X.X.X.X.X.X.X.X.X. .N ! g     + v X.X.X.X.X.X.X.X.X.X.X.X.X.X.X.o.o.",
"X.X.X.X.X.X.X.X.X.X.X.X.X.X.X.X. .N ! g     - v X.X.X.X.X.X.X.X.X.X.X.X.X.X.X.o.o.",
"X.X.X.X.X.X.X.X.X.X.X.X.X.X.X.X. .N ! g     - v X.X.X.X.X.X.X.X.X.X.X.X.X.X.X.o.o.",
"X.X.X.X.X.X.X.X.X.X.X.X.X.X.X.X. .N ! g     + v X.X.X.X.X.X.X.X.X.X.X.X.X.X.X.o.o.",
"X.X.X.X.X.X.X.X.X.X.X.X.X.X.X.X. .x Z i     - v X.X.X.X.X.X.X.X.X.X.X.X.X.X.X.o.o.",
"X.X.X.X.X.X.X.X.X.X.X.X.X.X.X.X.X.[ 8 >     - v X.X.X.X.X.X.X.X.X.X.X.X.X.X.X.o.o.",
"X.X.X.X.X.X.X.X.X.X.X.X.X.X.X.X.X.X. ./ 3 > > b X.X.X.X.X.X.X.X.X.X.X.X.X.X.X.o.o.",
"o.o.o.o.o.o.o.o.o.o.o.o.o.o.o.o.o.o.o.o.o.o.o.o.o.o.o.o.o.o.o.o.o.o.o.o.o.o.o.o.o.",
"o.o.o.o.o.o.o.o.o.o.o.o.o.o.o.o.o.o.o.o.o.o.o.o.o.o.o.o.o.o.o.o.o.o.o.o.o.o.o.o.o."
};
