/* XPM */
static char *magick[] = {
/* columns rows colors chars-per-pixel */
"19 15 85 1",
"  c #060304",
". c #050403",
"X c #080705",
"o c #090706",
"O c #0f0b0b",
"+ c #140e0e",
"@ c #140e0f",
"# c #1f1817",
"$ c #1f1818",
"% c #201718",
"& c #23191a",
"* c #281f1f",
"= c #2c2121",
"- c #2c2323",
"; c #2d2223",
": c #2d2323",
"> c #2d2324",
", c #302526",
"< c #332728",
"1 c #342728",
"2 c #312826",
"3 c #332827",
"4 c #382c2c",
"5 c #382d2c",
"6 c #392c2c",
"7 c #3a2e2e",
"8 c #3b2f2e",
"9 c #3c2e2d",
"0 c #3c2e2e",
"q c #3d2f2f",
"w c #3e2e30",
"e c #3e3130",
"r c #463736",
"t c #463638",
"y c #463738",
"u c #483737",
"i c #493839",
"p c #4b3b3a",
"a c #4c3c3b",
"s c #4c3c3c",
"d c #4d3c3d",
"f c #4d3d3c",
"g c #4e3c3d",
"h c #4e3d3d",
"j c #4f3d3d",
"k c #503d3d",
"l c #503f3f",
"z c #513e3e",
"x c #513f3f",
"c c #523f3f",
"v c #503f40",
"b c #513f40",
"n c #523f40",
"m c #51403f",
"M c #52403f",
"N c #504040",
"B c #514040",
"V c #524040",
"C c #524041",
"Z c #534040",
"A c #534141",
"S c #544040",
"D c #554142",
"F c #554143",
"G c #544242",
"H c #554242",
"J c #554243",
"K c #554342",
"L c #554343",
"P c #564343",
"I c #5c4849",
"U c #5c4948",
"Y c #5d4848",
"T c #5d4948",
"R c #604b4a",
"E c #644f4f",
"W c #654f4f",
"Q c #695252",
"! c #795f5f",
"~ c #7a5f5f",
"^ c #8b6d6d",
"/ c #987777",
"( c #9e7c7c",
") c #9f7c7c",
"_ c Gray75",
/* pixels */
"Ja!RIQ!^/((((((((__",
"J,4lZbZJIQ!^/((((__",
"J;&lZlZZZlZJIQ!^/__",
"J;>lMblZZllZbZlJI__",
"J<0bbZlZlllZlJlbp__",
"JerZbZlZlMMlllZZw__",
"JpgZZMbZJZblbllZ2__",
"JZlZZMbZZZbbZlbg1__",
"JJlZZZbbMbMMMMMr0__",
"JZllZbMZMllMMMM4g__",
"44ygbbMMllnMMMl2W__",
".o@#;0ygllbJMMl4W__",
"**$O X@%;0gZMllgM__",
"___________________",
"___________________"
};
