/* XPM */
static char *magick[] = {
/* columns rows colors chars-per-pixel */
"46 12 65 1",
"  c #313131",
". c #313132",
"X c #313231",
"o c #313232",
"O c #323132",
"+ c #323231",
"@ c #323232",
"# c #4c4b4c",
"$ c #4e4f4e",
"% c Gray31",
"& c #4f4f50",
"* c #4f504f",
"= c #4f5050",
"- c #504f4f",
"; c #504f50",
": c #50504f",
"> c #505050",
", c #505051",
"< c #505150",
"1 c #505151",
"2 c #515050",
"3 c #515051",
"4 c #515150",
"5 c #515151",
"6 c #505052",
"7 c #505152",
"8 c #515052",
"9 c #515152",
"0 c #505251",
"q c #515250",
"w c #515251",
"e c #505252",
"r c #515252",
"t c #525050",
"y c #525051",
"u c #525150",
"i c #525151",
"p c #525152",
"a c #525250",
"s c #525251",
"d c Gray32",
"f c #525253",
"g c #525352",
"h c #535253",
"j c #535352",
"k c #555556",
"l c #565556",
"z c #565655",
"x c #767676",
"c c #767677",
"v c #767776",
"b c #777676",
"n c #777777",
"m c #7c7c7d",
"M c #7c7d7c",
"N c #7d7c7c",
"B c #7d7c7d",
"V c Gray49",
"C c #898989",
"Z c Gray55",
"A c #8d8d8d",
"S c Gray58",
"D c Gray62",
"F c #9f9f9f",
"G c Gray75",
/* pixels */
"FFFFFFFFAz<<<<<<<<<<<ff<<<<<<<<<<<<VFFFFFFFFGG",
"FFFFFFFFAz<<<<f<<<<<<<<<<<<<<<<<j<jVFFFFFFFFGG",
"FFFFFFFFAz<<<ff<<<f<<<<<<<<<<f<<<j<VFFFFFFFFGG",
"FFFFFFFFAz<<<<<<<<f<<<f<<<<<<<<hj<<VFFFFFFFFGG",
"FFFFFFFFAz<<<<<<<<<<<<f<<<<<<<<<<<jVFFFFFFFFGG",
"FFFFFFFFAz<<<<<<<<<<<f<<<<<<<<<<<<jVFFFFFFFFGG",
"FFFFFFFFAz<<<<<<<<<<<<<<<<<<<<<<<<<VFFFFFFFFGG",
"FFFFFFFFAz<;;;<=<<<<=;&&<=;<<;;;-:<VFFFFFFFFGG",
"FFFFFFFFS$XXXXXXXXXXXXXX.XXXXXXXXX#AFFFFFFFFGG",
"FFFFFFFFFCbbbbbbbbbbbbbbccbbbbbbbcAFFFFFFFFFGG",
"GGGGGGGGGGGGGGGGGGGGGGGGGGGGGGGGGGGGGGGGGGGGGG",
"GGGGGGGGGGGGGGGGGGGGGGGGGGGGGGGGGGGGGGGGGGGGGG"
};
