/* XPM */
static char *magick[] = {
/* columns rows colors chars-per-pixel */
"27 16 101 2",
"   c #090b0b",
".  c #0a090a",
"X  c Gray4",
"o  c #0b0b0b",
"O  c #0c0c0c",
"+  c Gray6",
"@  c #0e0f10",
"#  c #0f100f",
"$  c #0f1010",
"%  c #10100e",
"&  c #10100f",
"*  c #121313",
"=  c #131313",
"-  c Gray8",
";  c #151615",
":  c #151716",
">  c #161516",
",  c #161616",
"<  c Gray9",
"1  c #1a181a",
"2  c #1b1c1c",
"3  c Gray11",
"4  c #1c1c1d",
"5  c #1c1d1c",
"6  c #1d1c1d",
"7  c #1e1e1d",
"8  c #222222",
"9  c Gray15",
"0  c #2d2d2c",
"q  c #3f403f",
"w  c #40403e",
"e  c #40403f",
"r  c #444343",
"t  c Gray27",
"y  c #454745",
"u  c #464547",
"i  c #464645",
"p  c #494849",
"a  c #4a4b4a",
"s  c #4a4b4b",
"d  c #4b4a4a",
"f  c #4b4b4a",
"g  c #4b4c4b",
"h  c #4c4c4b",
"j  c #4e4d4d",
"k  c Gray31",
"l  c #4f5050",
"z  c #504f4f",
"x  c #514f50",
"c  c #50504f",
"v  c #505051",
"b  c #555355",
"n  c Gray33",
"m  c #545455",
"M  c #545554",
"N  c #545555",
"B  c #555454",
"V  c #555455",
"C  c #555554",
"Z  c #555555",
"A  c #555556",
"S  c #555655",
"D  c #555656",
"F  c #565555",
"G  c #565556",
"H  c #565655",
"J  c #565656",
"K  c #565657",
"L  c #565756",
"P  c #565757",
"I  c #575656",
"U  c #575657",
"Y  c #575856",
"T  c #585758",
"R  c #585959",
"E  c #595859",
"W  c Gray35",
"Q  c #5a5a5b",
"!  c #5b5b5b",
"~  c #5b5b5c",
"^  c #5b5c5c",
"/  c #5c5b5b",
"(  c #5d5e5e",
")  c #60615f",
"_  c #606060",
"`  c #606160",
"'  c #616060",
"]  c #636262",
"[  c #656565",
"{  c #666665",
"}  c #6a6a6a",
"|  c Gray42",
" . c #6d6d6d",
".. c #717171",
"X. c #767676",
"o. c Gray49",
"O. c Gray51",
"+. c #848484",
"@. c Gray53",
"#. c #9d9d9d",
"$. c Gray75",
/* pixels */
"[ [ ] ] ) ) ) _ ( ! ! ^ ~ ! ^ ! R ! R R R I Y I I $.$.",
"I I I I I I I I I I N I N I I I I I I N I I I N N $.$.",
"I N I I N I n N I I N I N I N I N N I n I N I N N $.$.",
"I I N I N I M I I N I N I N I N I N N I N I n I N $.$.",
"I N N I N N I N N N I n N I N I b I I N I N I N N $.$.",
"N I I N N I m I I I N I I N I m m N N I n I N I N $.$.",
"I N I I I N I N N M I N I n N b I I M M M M I N N $.$.",
"N N N N N I m I M M N I N I N I I I I I M M N I I $.$.",
"N I N I m I I I I I N N I I n N I I N N I I I N b $.$.",
"I I N I N I M I I N I I N I I M I I n n I N I I I $.$.",
"j l v z j x j f f g f f f f t t t t t t t r q q w $.$.",
"0 4 4 4 2 4 1 ; ; ; ; ; ; * # + @ # & $ + O . . . $.$.",
" .9 . . . . . . + - - - ; * * - ; 4 4 4 4 4 4 4 8 $.$.",
"#.+.} } } } } } ..X.X.X.X.X.X.X.o.O.O.O.O.O.O.O.+.$.$.",
"$.$.$.$.$.$.$.$.$.$.$.$.$.$.$.$.$.$.$.$.$.$.$.$.$.$.$.",
"$.$.$.$.$.$.$.$.$.$.$.$.$.$.$.$.$.$.$.$.$.$.$.$.$.$.$."
};
