/* XPM */
static char *magick[] = {
/* columns rows colors chars-per-pixel */
"12 16 30 1",
"  c #444444",
". c #444545",
"X c Gray27",
"o c #464545",
"O c #474546",
"+ c #464645",
"@ c #464646",
"# c #484746",
"$ c #494747",
"% c #5a5151",
"& c #5a5152",
"* c #5c5252",
"= c #5e5353",
"- c #5d5354",
"; c #5f5455",
": c #615556",
"> c #615656",
", c #635757",
"< c #655858",
"1 c #6f5e5e",
"2 c #705e5e",
"3 c #776363",
"4 c #796464",
"5 c #7a6565",
"6 c #7b6565",
"7 c #7c6666",
"8 c #7f6767",
"9 c #816969",
"0 c #836a6a",
"q c Gray75",
/* pixels */
"0121121<$ qq",
"0111121>$ qq",
"0211111>  qq",
"8111111>  qq",
"8121111>  qq",
"8211111>  qq",
"8111211;  qq",
"6111111-  qq",
"6112112*  qq",
"6122111*  qq",
"6121111*  qq",
"3121111&  qq",
"3211111&  qq",
"3111121&  qq",
"qqqqqqqqqqqq",
"qqqqqqqqqqqq"
};
