/* XPM */
static char *magick[] = {
/* columns rows colors chars-per-pixel */
"12 16 68 1",
"  c #181212",
". c #191513",
"X c #1e1717",
"o c #201818",
"O c #211819",
"+ c #241b1c",
"@ c #241c1c",
"# c #241d1c",
"$ c #251c1c",
"% c #251d1c",
"& c #251d1e",
"* c #251e1d",
"= c #251e1e",
"- c #261c1c",
"; c #261c1d",
": c #261d1d",
"> c #271d1d",
", c #261d1e",
"< c #271d1e",
"1 c #261e1d",
"2 c #271e1d",
"3 c #261e1e",
"4 c #261f1e",
"5 c #271e1e",
"6 c #271f1e",
"7 c #271f1f",
"8 c #291e1f",
"9 c #291f1f",
"0 c #2a1f1f",
"q c #291f20",
"w c #2b1f20",
"e c #2a201f",
"r c #2c2221",
"t c #2c2322",
"y c #312726",
"u c #3b2e2e",
"i c #3e3130",
"p c #403232",
"a c #433333",
"s c #433433",
"d c #433434",
"f c #453535",
"g c #463736",
"h c #463737",
"j c #473636",
"k c #473637",
"l c #483838",
"z c #4b3839",
"x c #503f3e",
"c c #503f3f",
"v c #513e3e",
"b c #513e3f",
"n c #513f3e",
"m c #513f3f",
"M c #544243",
"N c #544342",
"B c #554242",
"V c #554243",
"C c #554342",
"Z c #554343",
"A c #564243",
"S c #564342",
"D c #564343",
"F c #574243",
"G c #574342",
"H c #574343",
"J c #584544",
"K c Gray75",
/* pixels */
"&&tzSSSSSSKK",
"&&tzSSSSSSKK",
"&&ehSSSSSSKK",
"&&whSSSSSSKK",
"&&whSSSSSSKK",
"&&8hSSSSSSKK",
"&88hSSSSSSKK",
"&&8aSSSSSSKK",
"&&&aSSSSSSKK",
"&&8sSSSSSSKK",
"&&8aSSSSSSKK",
"%&&iSNSSSSKK",
"&&&uxxxxccKK",
"+X .OO&ydJKK",
"KKKKKKKKKKKK",
"KKKKKKKKKKKK"
};
