/* XPM */
static char *magick[] = {
/* columns rows colors chars-per-pixel */
"17 38 42 1",
"  c #665959",
". c #675959",
"X c #67595a",
"o c #675a59",
"O c #675a5a",
"+ c #685959",
"@ c #68595a",
"# c #685a59",
"$ c #685a5a",
"% c #695a5a",
"& c #695a5b",
"* c #695b5a",
"= c #695b5b",
"- c #6a5a5b",
"; c #6a5b5a",
": c #6a5b5b",
"> c #6b5b5b",
", c #6b5b5c",
"< c #6b5c5b",
"1 c #6b5c5c",
"2 c #6c5c5c",
"3 c #725f5f",
"4 c #72605f",
"5 c #726060",
"6 c #736061",
"7 c #756161",
"8 c #756162",
"9 c #756261",
"0 c #756262",
"q c #776363",
"w c #796464",
"e c #7b6665",
"r c #7e6767",
"t c #806868",
"y c #826a6a",
"u c #876c6c",
"i c #896e6e",
"p c #8b6f6f",
"a c #927373",
"s c #937474",
"d c #947474",
"f c Gray75",
/* pixels */
"p<XXXXXXXXXX4adff",
"p1>XXXXXXXXX3adff",
"p>>X  XXXXXX4adff",
"p<XX XXXXXXX6sdff",
"p<      XXX>9ddff",
"p<+     XXXX9ddff",
"p<> +   XXXX9ddff",
"p,      XXX>9ddff",
"p1>X       +9ddff",
"p1XX +     X9ddff",
"p<>X        9ddff",
"p>XX        9ddff",
"uXXXXX     +4ddff",
"u>XXXX      qddff",
"uXXXXX   + +wddff",
"u>XXXX    ++wddff",
"u>      XXXXwddff",
"u>      XXXXwddff",
"uX  +   XXX>wddff",
"u>      XXX>wddff",
"u>   +  XXX>wddff",
"uX      XX >wddff",
"u>         +wddff",
"u>         Xeddff",
"u>      XXXXrsdff",
"u>      XXX>rddff",
"u>      XXXXrddff",
"uX     +XXX>rddff",
"u>      XX>Xrddff",
"u>      XX>Xrddff",
"u>      XXX>rddff",
"u>    + XXX>rddff",
"u>      +  >rddff",
"u>        X>rddff",
"u>         >yddff",
"u>        X>yddff",
"fffffffffffffffff",
"fffffffffffffffff"
};
