/* XPM */
static char *magick[] = {
/* columns rows colors chars-per-pixel */
"24 26 118 2",
"   c #925f5f",
".  c #935f5f",
"X  c #955b5b",
"o  c #965b5a",
"O  c #965b5b",
"+  c #975a5a",
"@  c #975b5b",
"#  c #965c5b",
"$  c #975c5b",
"%  c #945d5d",
"&  c #955c5c",
"*  c #945e5e",
"=  c #945f5f",
"-  c #965c5c",
";  c #965d5d",
":  c #975c5c",
">  c #975d5d",
",  c #9b5757",
"<  c #9d5656",
"1  c #9d5756",
"2  c #9e5656",
"3  c #9a5857",
"4  c #995959",
"5  c #995a59",
"6  c #985a5a",
"7  c #985b5a",
"8  c #985b5b",
"9  c #9a5858",
"0  c #9b5a59",
"q  c #9a5a5a",
"w  c #9c5858",
"e  c #9d5858",
"r  c #9e5a59",
"t  c #93605f",
"y  c #8b6464",
"u  c #8f6160",
"i  c #8d6666",
"p  c #8d6767",
"a  c #8e6565",
"s  c #8f6565",
"d  c #8e6766",
"f  c #8e6767",
"g  c #8a6867",
"h  c #896868",
"j  c #8a6a6a",
"k  c #886d6d",
"l  c #886f6f",
"z  c #896e6e",
"x  c #8b6c6c",
"c  c #867070",
"v  c #877070",
"b  c #867373",
"n  c #877272",
"m  c #867473",
"M  c #877473",
"N  c #857777",
"B  c #867575",
"V  c #877474",
"C  c #857a7a",
"Z  c #857b7b",
"A  c #867878",
"S  c #867979",
"D  c #877878",
"F  c #867a7a",
"G  c #867b7b",
"H  c #877d7d",
"J  c #867e7e",
"K  c #877e7e",
"L  c #887070",
"P  c #897070",
"I  c #897171",
"U  c #8a7171",
"Y  c #887777",
"T  c #916160",
"R  c #906262",
"E  c #936161",
"W  c #926262",
"Q  c #926363",
"!  c #ac4c4b",
"~  c #ad4c4b",
"^  c #a6504f",
"/  c #a25656",
"(  c #a55151",
")  c #b04b4a",
"_  c #b34b4b",
"`  c #b94746",
"'  c #bc4544",
"]  c #bd4444",
"[  c #ba4848",
"{  c #868080",
"}  c #878080",
"|  c #878181",
" . c #878282",
".. c #888080",
"X. c #888181",
"o. c #888282",
"O. c #888383",
"+. c #898484",
"@. c #898585",
"#. c #898686",
"$. c #8a8686",
"%. c #8a8787",
"&. c #8a8888",
"*. c #8b8888",
"=. c #8c8989",
"-. c #8c8a8a",
";. c #8d8b8b",
":. c #8d8c8c",
">. c #8e8d8d",
",. c #8f8e8e",
"<. c Gray56",
"1. c #908f8f",
"2. c #909090",
"3. c Gray57",
"4. c #929292",
"5. c #939393",
"6. c Gray58",
"7. c Gray75",
/* pixels */
"6.6.6.6.6.6.6.2.=.$.&.>.2.6.6.6.6.6.6.6.6.6.7.7.",
"6.6.6.6.2.=.P Q > 6 @ = p V =.6.6.6.6.6.6.6.7.7.",
"6.6.6.=.P 6 6 j c H C m j # . C >.6.6.6.6.6.7.7.",
"6.6.$.= 6 c &.5.6.6.6.6.2.&.c @ l 1.6.6.6.6.7.7.",
"6.$.= = ..5.6.6.6.6.6.6.6.6.2...= l 1.6.6.6.7.7.",
"2.p @ $.6.6.6.6.6.6.6.6.6.6.6.6...= m 5.6.6.7.7.",
"..< C 6.6.6.6.6.6.6.6.6.6.6.6.6.2.V = &.6.6.7.7.",
"p u >.6.6.6.6.6.6.6.6.6.6.6.6.6.6.>.t c 2.6.7.7.",
"$ V 6.6.6.6.6.6.6.6.6.6.6.6.6.6.6.6.c . >.6.7.7.",
"$ ..6.6.6.6.6.6.6.6.6.6.6.6.6.6.6.6.H @ $.6.7.7.",
"= =.6.6.6.6.6.6.6.6.6.6.6.6.6.6.6.6.$.6 H 6.7.7.",
". >.6.6.6.6.6.6.6.6.6.6.6.6.6.6.6.6.$.6 C 6.7.7.",
"@ &.6.6.6.6.6.6.6.6.6.6.6.6.6.6.6.6...6 } 6.7.7.",
"6 } 6.6.6.6.6.6.6.6.6.6.6.6.6.6.6.6.C 6 &.6.7.7.",
". c 2.6.6.6.6.6.6.6.6.6.6.6.6.6.6.2.p Q 1.6.7.7.",
"m @ &.6.6.6.6.6.6.6.6.6.6.6.6.6.6...< C 6.6.7.7.",
"=.= l 2.6.6.6.6.6.6.6.6.6.6.6.6.>.Q Q >.6.6.7.7.",
"2.C 6 C 2.6.1.1.6.6.6.6.6.6.6.>.p r ..6.6.6.7.7.",
"6.2.C $ V $.g y } 2.6.6.6.2.$.Q r H 2.6.6.6.7.7.",
"6.6.2.C @ @ , ) ^ j ..=.$.P 6 6 H 2.6.6.6.6.7.7.",
"6.6.6.2.$.l 3 ~ ' ` ( 6 < 6 P &.2.6.6.6.6.6.7.7.",
"6.6.6.6.6.>.c ~ ' [ / x C $.2.6.6.6.6.6.6.6.7.7.",
"6.6.6.6.6.1.Q ) r P =.5.6.6.6.6.6.6.6.6.6.6.7.7.",
"6.6.6.6.6.2.$.Y =.2.6.6.6.6.6.6.6.6.6.6.6.6.7.7.",
"7.7.7.7.7.7.7.7.7.7.7.7.7.7.7.7.7.7.7.7.7.7.7.7.",
"7.7.7.7.7.7.7.7.7.7.7.7.7.7.7.7.7.7.7.7.7.7.7.7."
};
