/* XPM */
static char *magick[] = {
/* columns rows colors chars-per-pixel */
"24 26 164 2",
"   c #7e3838",
".  c #7d4545",
"X  c #7d4646",
"o  c #7c4949",
"O  c #7c4a4a",
"+  c #7e4949",
"@  c #7e4c4c",
"#  c #7e5050",
"$  c #7e5151",
"%  c #7f5858",
"&  c #9f1e1e",
"*  c #8e2e2e",
"=  c #8f2f2e",
"-  c #833535",
";  c #823636",
":  c #833f3f",
">  c #843838",
",  c #873a3a",
"<  c #883131",
"1  c #8f3333",
"2  c #893a3a",
"3  c #8c3b3b",
"4  c #8c3f3e",
"5  c #8e3f3f",
"6  c #962222",
"7  c #942626",
"8  c #912929",
"9  c #902a2a",
"0  c #912a2a",
"q  c #952e2e",
"w  c #972d2d",
"e  c #962f2f",
"r  c #982323",
"t  c #9a2020",
"y  c #9b2120",
"u  c #9a2222",
"i  c #9b2222",
"p  c #9a2727",
"a  c #9b2626",
"s  c #9d2222",
"d  c #9d2323",
"f  c #9c2424",
"g  c #9f2424",
"h  c #9f2827",
"j  c #9f2929",
"k  c #913737",
"l  c #923535",
"z  c #953333",
"x  c #903838",
"c  c #a01d1c",
"v  c #a21d1d",
"b  c #a41d1d",
"n  c #a51e1e",
"m  c #a61c1c",
"M  c #aa1b1a",
"N  c #a91f1f",
"B  c #ab1c1c",
"V  c #ac1c1a",
"C  c #ad1d1c",
"Z  c #ac1e1e",
"A  c #ac1f1e",
"S  c #b20908",
"D  c #bd1c1c",
"F  c #a12120",
"G  c #a02323",
"H  c #a22121",
"J  c #a22323",
"K  c #a22727",
"L  c #a52221",
"P  c #a52222",
"I  c #a52323",
"U  c #a72020",
"Y  c #a62323",
"T  c #a72322",
"R  c #a72323",
"E  c #af2120",
"W  c #824343",
"Q  c #844343",
"!  c #874343",
"~  c #864443",
"^  c #844444",
"/  c #834a49",
"(  c #854949",
")  c #854d4d",
"_  c #874e4e",
"`  c #884343",
"'  c #8a4242",
"]  c #8a4343",
"[  c #894444",
"{  c #884646",
"}  c #8a4646",
"|  c #884949",
" . c #884a4a",
".. c #884d4d",
"X. c #835555",
"o. c #845151",
"O. c #855353",
"+. c #865151",
"@. c #865252",
"#. c #845453",
"$. c #875757",
"%. c #815858",
"&. c #815959",
"*. c #825c5c",
"=. c #865858",
"-. c #875b5b",
";. c #875c5c",
":. c #875d5d",
">. c #875f5f",
",. c #885d5d",
"<. c #885f5f",
"1. c #895f5f",
"2. c #866363",
"3. c #886161",
"4. c #896262",
"5. c #896363",
"6. c #896565",
"7. c #886666",
"8. c #896666",
"9. c #8c6666",
"0. c #8b6969",
"q. c #8c6969",
"w. c #8d6969",
"e. c #8e6a6a",
"r. c #8e6b6b",
"t. c #8f6b6b",
"y. c #8e6d6d",
"u. c #8f6d6d",
"i. c #906d6d",
"p. c #916d6d",
"a. c #906e6e",
"s. c #906f6f",
"d. c #926f6f",
"f. c #927171",
"g. c #937070",
"h. c #937171",
"j. c #947272",
"k. c #957373",
"l. c #967474",
"z. c #967575",
"x. c #977575",
"c. c #977676",
"v. c #987676",
"b. c #997676",
"n. c #997878",
"m. c #9a7878",
"M. c #9b7878",
"N. c #9b7979",
"B. c #9c7a7a",
"V. c #9d7a7a",
"C. c #9d7b7b",
"Z. c #9e7b7b",
"A. c #9e7c7c",
"S. c #9f7c7c",
"D. c #cd0a0a",
"F. c #c41515",
"G. c #cc1111",
"H. c #d10808",
"J. c #da0100",
"K. c #dc0a08",
"L. c #e50706",
"P. c #ed0000",
"I. c #ec0303",
"U. c Gray75",
/* pixels */
"S.S.S.S.S.S.S.S.S.N.g.w.w.s.b.B.S.S.S.S.S.S.U.U.",
"S.S.S.S.S.S.S.s. .z j I I K e ~ w.B.S.S.S.S.U.U.",
"S.S.S.S.S.g._ h G 2 / X.X.( 3 I I ^ y.S.S.S.U.U.",
"S.S.S.S.s.l n W 0.B.S.S.S.S.B.w.Q C * w.S.S.U.U.",
"S.S.S.g.l & &.N.S.S.S.S.S.S.S.S.B.:.I * w.S.U.U.",
"S.S.B.[ v &.B.S.S.S.S.S.S.S.S.S.S.B.1.I , c.U.U.",
"S.S.w.g O B.S.S.S.S.S.S.S.S.S.S.S.S.B.+.n *.U.U.",
"S.B.[ 9 s.S.S.S.S.S.S.S.S.S.S.S.S.S.S.g.e ; U.U.",
"S.g.p X S.S.S.S.S.S.S.S.S.S.S.S.S.S.S.S._ r U.U.",
"S.9.r % S.S.S.S.S.S.S.S.S.S.S.S.S.S.S.S.3.d U.U.",
"S.-.r 2.S.S.S.S.S.S.S.S.S.S.S.S.S.S.S.S.w.g U.U.",
"S.$.6 7.S.S.S.S.S.S.S.S.S.S.S.S.S.S.S.S.s.g U.U.",
"S.1.r *.S.S.S.S.S.S.S.S.S.S.S.S.S.S.S.S.w.d U.U.",
"S.w.d $ S.S.S.S.S.S.S.S.S.S.S.S.S.S.S.S.:.r U.U.",
"S.c.e ; c.S.S.S.S.S.S.S.S.S.S.S.S.S.S.B.` 9 U.U.",
"S.S.+.v *.S.S.S.S.S.S.S.S.S.S.S.S.S.S.w.G O U.U.",
"S.S.g.e < j.S.S.S.S.S.S.S.S.S.S.S.S.c.5 7 y.U.U.",
"S.S.B.-.B : j.S.S.S.S.S.S.S.c.c.S.c. .M # B.U.U.",
"S.S.S.N.+.C , w.B.S.S.S.b.:.1   7.` V O b.S.U.U.",
"S.S.S.S.N.+.I G Q 3.s.3.x G.K.B I G @ c.S.S.U.U.",
"S.S.S.S.S.N.w.` I C I F.P.P.H.n : 7.N.S.S.S.U.U.",
"S.S.S.S.S.S.S.B.0.$.5 D L.J.S X c.S.S.S.S.S.U.U.",
"S.S.S.S.S.S.S.S.S.S.B.w.[ E D.9 j.S.S.S.S.S.U.U.",
"S.S.S.S.S.S.S.S.S.S.S.S.B.w...1.B.S.S.S.S.S.U.U.",
"U.U.U.U.U.U.U.U.U.U.U.U.U.U.U.U.U.U.U.U.U.U.U.U.",
"U.U.U.U.U.U.U.U.U.U.U.U.U.U.U.U.U.U.U.U.U.U.U.U."
};
