/* XPM */
static char *magick[] = {
/* columns rows colors chars-per-pixel */
"19 19 91 1",
"  c #36297f",
". c #382a7e",
"X c #392a7e",
"o c #392b7f",
"O c #3a2b7c",
"+ c #3b2d7a",
"@ c #3b2c7d",
"# c #3d2e78",
"$ c #3d2e7a",
"% c #3d2e7b",
"& c #3e2e78",
"* c #3e2f78",
"= c #3f2f79",
"- c #413176",
"; c #453573",
": c #463572",
"> c #473671",
", c #473672",
"< c #453574",
"1 c #403178",
"2 c #413178",
"3 c #413179",
"4 c #40307a",
"5 c #483671",
"6 c #483771",
"7 c #493773",
"8 c #483674",
"9 c #483871",
"0 c #493870",
"q c #493871",
"w c #493872",
"e c #493873",
"r c #4a3871",
"t c #4a3971",
"y c #4a3872",
"u c #4a3873",
"i c #4d3a71",
"p c #53406e",
"a c #5b4769",
"s c #58446d",
"d c #5a456c",
"f c #5c466b",
"g c #5d4969",
"h c #5e496a",
"j c #5e496b",
"k c #5f496b",
"l c #5f4a6a",
"z c #654e69",
"x c #654f69",
"c c #664f69",
"v c #695269",
"b c #6a5268",
"n c #6b5368",
"m c #6b5369",
"M c #6e5569",
"N c #715769",
"B c #725968",
"V c #735a68",
"C c #7b606a",
"Z c #7e626a",
"A c #7f636a",
"S c #2c1f8a",
"D c #2d2188",
"F c #322683",
"G c #332586",
"H c #372980",
"J c #80646c",
"K c #82666c",
"L c #83666c",
"P c #86696d",
"I c #87696d",
"U c #876a6d",
"Y c #896b6f",
"T c #8a6b6f",
"R c #8b6d70",
"E c #8c6d71",
"W c #907172",
"Q c #927274",
"! c #937374",
"~ c #957475",
"^ c #977676",
"/ c #997878",
"( c #9a7879",
") c #9b7879",
"_ c #9c7979",
"` c #9c7a7a",
"' c #9d7b7b",
"] c #9e7b7b",
"[ c #9e7c7c",
"{ c #9f7c7c",
"} c Gray75",
/* pixels */
"{{{{{]z$$d){{{{{{}}",
"{{{{{)8-9$~{{{{{{}}",
"{{{{{)9kb2~{{{{{{}}",
"{{{{{)9kb2~{{{{{{}}",
"{{{{{)9kb2~{{{{{{}}",
"{{{{{)9kb2~{{{{{{}}",
"NkkkkfHbBFdkkkkbQ}}",
" .9996kQQa6999.GT}}",
"@zIIIIW{]WIIIIz.R}}",
",$6,,,9KT9<,,,+$E}}",
"RKKKKA$kM.CKKKKT)}}",
"{{{{{)9kb2~{{{{{{}}",
"{{{{{)9kb2~{{{{{{}}",
"{{{{{)9kb2~{{{{{{}}",
"{{{{{)6pk2~{{{{{{}}",
"{{{{{]iSD2~{{{{{{}}",
"{{{{{{KBBA]{{{{{{}}",
"}}}}}}}}}}}}}}}}}}}",
"}}}}}}}}}}}}}}}}}}}"
};
