/* XPM */
static char *magick[] = {
/* columns rows colors chars-per-pixel */
"8 14 9 1",
"  c #6d6d6d",
". c #6d6d6e",
"X c #6d6e6d",
"o c #6d6e6e",
"O c #6e6d6d",
"+ c #6e6d6e",
"@ c #6e6e6d",
"# c Gray43",
"$ c Gray75",
/* pixels */
"oooooo$$",
"oooooo$$",
"oooooo$$",
"oooooo$$",
"oooooo$$",
"oooooo$$",
"oooooo$$",
"oooooo$$",
"oooooo$$",
"oooooo$$",
"oooooo$$",
"oooooo$$",
"$$$$$$$$",
"$$$$$$$$"
};
