/* XPM */
static char *magick[] = {
/* columns rows colors chars-per-pixel */
"32 10 15 1",
"  c #6d6d6d",
". c #6d6d6e",
"X c #6d6e6d",
"o c #6d6e6e",
"O c #6e6d6d",
"+ c #6e6d6e",
"@ c #6e6e6d",
"# c Gray43",
"$ c #6e6e6f",
"% c #6f6e6f",
"& c #6f6f6e",
"* c #6f6f6f",
"= c Gray53",
"- c Gray58",
"; c Gray75",
/* pixels */
"-=$$$$$$$@@@$$@@@$@@$@$@@$@$=-;;",
"-=$$$$$$$@$@$$$$$@@$$@$$$$@$=-;;",
"-=$$$@$$$@$@@@$$$$@@$$$$$$@$=-;;",
"-=$$@$@$$@$@@@$@$$$@$$$$@$@$=-;;",
"-=$$$$@@$@@@@@$@$@$$$@$$$$$$=-;;",
"-=$@$@@@@$@@@$$@$@$@$$$$$$$$=-;;",
"-=$@@@@@@@@$@$$@$@@@@@$@$$@$=-;;",
"-=$$$@$$@@@$@$$@$$$$$@$$$@@$=-;;",
";;;;;;;;;;;;;;;;;;;;;;;;;;;;;;;;",
";;;;;;;;;;;;;;;;;;;;;;;;;;;;;;;;"
};
