/* XPM */
static char *magick[] = {
/* columns rows colors chars-per-pixel */
"12 16 58 1",
"  c Gray0",
". c #0f0e0f",
"X c #100e0e",
"o c #100f0f",
"O c Gray7",
"+ c #161516",
"@ c #171516",
"# c #161717",
"$ c #191919",
"% c #1b1d1c",
"& c Gray11",
"* c #1d1d1c",
"= c #1f2120",
"- c #232423",
"; c Gray27",
": c #454546",
"> c #464545",
", c #484848",
"< c #494a4a",
"1 c Gray29",
"2 c #4b4b4b",
"3 c Gray30",
"4 c #4e4f4f",
"5 c #4f4f4e",
"6 c #4f5050",
"7 c #505050",
"8 c #515151",
"9 c #545455",
"0 c #545554",
"q c #545555",
"w c #555454",
"e c #555455",
"r c #555554",
"t c #555555",
"y c #555556",
"u c #545654",
"i c #555654",
"p c #555655",
"a c #555656",
"s c #565455",
"d c #565554",
"f c #565555",
"g c #565456",
"h c #565556",
"j c #565655",
"k c #575655",
"l c #565656",
"z c #575657",
"x c Gray34",
"c c #575758",
"v c #585758",
"b c #585858",
"n c #5a5959",
"m c #5a5b5a",
"M c #5b5b5a",
"N c Gray36",
"B c #5f5f5f",
"V c Gray75",
/* pixels */
"Blllrr8-  VV",
"Bllllr7=  VV",
"mlllll3*  VV",
"mlllll3%  VV",
"mlllll3*  VV",
"mlrlll6&  VV",
"llllll3$  VV",
"vlrlll1+  VV",
"veelll1+  VV",
"lleell1+  VV",
"lllele1O  VV",
"lllell:o  VV",
"lllll9:.  VV",
"lllrll:.  VV",
"VVVVVVVVVVVV",
"VVVVVVVVVVVV"
};
