/* XPM */
static char *magick[] = {
/* columns rows colors chars-per-pixel */
"24 26 156 2",
"   c #873f3f",
".  c #893737",
"X  c #8a3736",
"o  c #8e3131",
"O  c #8b3a3a",
"+  c #8c3b3b",
"@  c #8e3e3e",
"#  c #962d2b",
"$  c #972e2e",
"%  c #9f2726",
"&  c #9f2727",
"*  c #9b2929",
"=  c #992c2b",
"-  c #9a2e2e",
";  c #9b2f2f",
":  c #9c2929",
">  c #9c2a29",
",  c #9c2a2a",
"<  c #9e2929",
"1  c #9f2929",
"2  c #9c2d2c",
"3  c #913535",
"4  c #933535",
"5  c #923636",
"6  c #933636",
"7  c #943333",
"8  c #953333",
"9  c #ab1e1d",
"0  c #ab1f1f",
"q  c #ac1c1c",
"w  c #af1e1e",
"e  c #b11c1b",
"r  c #b31c1b",
"t  c #b11c1c",
"y  c #b01e1e",
"u  c #bc1c1b",
"i  c #a9201f",
"p  c #b3211f",
"a  c #a02323",
"s  c #a22323",
"d  c #a32322",
"f  c #a32323",
"g  c #a22423",
"h  c #a12525",
"j  c #a22524",
"k  c #a22626",
"l  c #a22726",
"z  c #a52121",
"x  c #a42323",
"c  c #a52222",
"v  c #a52323",
"b  c #a72121",
"n  c #a72221",
"m  c #a62222",
"M  c #a62322",
"N  c #a72222",
"B  c #a72322",
"V  c #a72323",
"C  c #a42423",
"Z  c #a42524",
"A  c #a42626",
"S  c #a92120",
"D  c #aa2221",
"F  c #ab2222",
"G  c #ac2220",
"H  c #834443",
"J  c #844343",
"K  c #864342",
"L  c #874343",
"P  c #854444",
"I  c #864646",
"U  c #824f4f",
"Y  c #844949",
"T  c #844a49",
"R  c #854a4a",
"E  c #864a49",
"W  c #864a4a",
"Q  c #844c4c",
"!  c #894040",
"~  c #894140",
"^  c #8a4343",
"/  c #8a4443",
"(  c #8a4646",
")  c #8b4646",
"_  c #884e4e",
"`  c #835050",
"'  c #835151",
"]  c #825353",
"[  c #825555",
"{  c #835555",
"}  c #845050",
"|  c #845151",
" . c #865050",
".. c #845555",
"X. c #845959",
"o. c #855858",
"O. c #845a5a",
"+. c #855a5a",
"@. c #845c5c",
"#. c #855c5c",
"$. c #855e5e",
"%. c #865d5c",
"&. c #875c5c",
"*. c #875d5c",
"=. c #865f5f",
"-. c #875f5f",
";. c #876262",
":. c #886363",
">. c #896363",
",. c #8a6363",
"<. c #886564",
"1. c #896565",
"2. c #8a6666",
"3. c #8b6666",
"4. c #8c6767",
"5. c #8b6868",
"6. c #8b6969",
"7. c #8c6868",
"8. c #8c6969",
"9. c #8d6969",
"0. c #8d6a6a",
"q. c #8f6b6b",
"w. c #8e6d6d",
"e. c #8f6d6d",
"r. c #906d6d",
"t. c #916e6e",
"y. c #916f6f",
"u. c #926f6f",
"i. c #927171",
"p. c #937171",
"a. c #957272",
"s. c #957373",
"d. c #967474",
"f. c #977676",
"g. c #987676",
"h. c #997777",
"j. c #997878",
"k. c #9a7878",
"l. c #9c7979",
"z. c #9c7a7a",
"x. c #9d7a7a",
"c. c #9d7b7b",
"v. c #9e7b7b",
"b. c #9e7c7c",
"n. c #9f7c7c",
"m. c #cf0b0a",
"M. c #c21111",
"N. c #c11413",
"B. c #d10b0a",
"V. c #d60a09",
"C. c #dd0a0a",
"Z. c #e90403",
"A. c #eb0605",
"S. c #ee0000",
"D. c #f00000",
"F. c Gray75",
/* pixels */
"n.n.n.n.n.n.n.g.t.4.q.i.k.n.n.n.n.n.n.n.n.n.F.F.",
"n.n.n.n.z.q.( ; A x x 1 7 Y t.n.n.n.n.n.n.n.F.F.",
"n.n.n.q./ D x O Y { { Y O d 1 ] a.n.n.n.n.n.F.F.",
"n.n.3.1 9 H q.z.n.n.n.n.z.q.P d ^ a.n.n.n.n.F.F.",
"n.4.l l >.z.n.n.n.n.n.n.n.n.z.*.% ^ a.n.n.n.F.F.",
"g.5 x 3.n.n.n.n.n.n.n.n.n.n.n.z.*.A Y z.n.n.F.F.",
"*.e ] n.n.n.n.n.n.n.n.n.n.n.n.n.k.Q l q.n.n.F.F.",
"5 # i.n.n.n.n.n.n.n.n.n.n.n.n.n.n.t.1 P z.n.F.F.",
"x U n.n.n.n.n.n.n.n.n.n.n.n.n.n.n.n.P * i.n.F.F.",
"x ;.n.n.n.n.n.n.n.n.n.n.n.n.n.n.n.n.+.d 3.n.F.F.",
"l e.n.n.n.n.n.n.n.n.n.n.n.n.n.n.n.n.>.x +.n.F.F.",
"* t.n.n.n.n.n.n.n.n.n.n.n.n.n.n.n.n.4.D { n.F.F.",
"d q.n.n.n.n.n.n.n.n.n.n.n.n.n.n.n.n.*.i *.n.F.F.",
"x *.n.n.n.n.n.n.n.n.n.n.n.n.n.n.n.n.} x q.n.F.F.",
"1 J k.n.n.n.n.n.n.n.n.n.n.n.n.n.n.f.5 $ f.n.F.F.",
"Y % q.n.n.n.n.n.n.n.n.n.n.n.n.n.n.+.r ] n.n.F.F.",
"q.% J k.n.n.n.n.n.n.n.n.n.n.n.n.t.; = i.n.n.F.F.",
"z...x } k.n.d.d.n.n.n.n.n.n.n.t.5 w *.n.n.n.F.F.",
"n.k.] C Y 3.X o *.f.n.n.n.z.q.7 t +.z.n.n.n.F.F.",
"n.n.k.] x x q V.M.X *.e.>.^ D x +.z.n.n.n.n.F.F.",
"n.n.n.k.<.  9 B.D.Z.N.D t D J 6.z.n.n.n.n.n.F.F.",
"n.n.n.n.n.a.P m.S.A.u @ ] 6.z.n.n.n.n.n.n.n.F.F.",
"n.n.n.n.n.a.2 C.p ( q.z.n.n.n.n.n.n.n.n.n.n.F.F.",
"n.n.n.n.n.z.>._ t.z.n.n.n.n.n.n.n.n.n.n.n.n.F.F.",
"F.F.F.F.F.F.F.F.F.F.F.F.F.F.F.F.F.F.F.F.F.F.F.F.",
"F.F.F.F.F.F.F.F.F.F.F.F.F.F.F.F.F.F.F.F.F.F.F.F."
};
