/* XPM */
static char *magick[] = {
/* columns rows colors chars-per-pixel */
"12 17 40 1",
"  c #4d4a49",
". c #4d4a4a",
"X c #4f4b4b",
"o c #514c4c",
"O c #544e4e",
"+ c #554e4e",
"@ c #575050",
"# c #585050",
"$ c #595151",
"% c #5a5252",
"& c #5b5252",
"* c #5c5352",
"= c #5c5353",
"- c #635757",
"; c #665859",
": c #675959",
"> c #685a5a",
", c #695a5a",
"< c #695b5b",
"1 c #6a5b5b",
"2 c #6b5b5b",
"3 c #6a5c5b",
"4 c #6b5c5c",
"5 c #6c5c5c",
"6 c #6c5d5c",
"7 c #6c5d5d",
"8 c #6d5d5c",
"9 c #6d5d5d",
"0 c #6e5d5d",
"q c #6e5e5e",
"w c #6f5e5e",
"e c #6f5e5f",
"r c #6f5f5e",
"t c #705e5e",
"y c #726060",
"u c #746161",
"i c #826969",
"p c #8d7070",
"a c #937373",
"s c Gray75",
/* pixels */
"##*2wwttwwss",
"@#*2twttwwss",
"#@*3wwwwtwss",
"@@#2wwtwwwss",
"#@#2wwwwttss",
"@##2wwwwwwss",
"@##2wwwwwwss",
"@##2wwwwwtss",
"@@#2wwwwwwss",
"@@#;wwwwwwss",
"@##;wwtwwwss",
"@##;wwwwwwss",
"@@#-24wwwwss",
"Oo...oO#;uss",
"wwwwwwyipass",
"ssssssssssss",
"ssssssssssss"
};
