/* XPM */
static char *magick[] = {
/* columns rows colors chars-per-pixel */
"17 12 51 1",
"  c Gray28",
". c #474748",
"X c #474848",
"o c #484748",
"O c #494748",
"+ c #484848",
"@ c #4b4c4b",
"# c #4c4a4a",
"$ c #4c4b4a",
"% c #4c4c4a",
"& c Gray30",
"* c #4d4e4e",
"= c #4f4f50",
"- c #4f4f51",
"; c #4f5150",
": c #504f51",
"> c #50504f",
", c #51514f",
"< c #505050",
"1 c #505051",
"2 c #505151",
"3 c #515352",
"4 c #515353",
"5 c Gray32",
"6 c #525253",
"7 c #525352",
"8 c #525353",
"9 c #535252",
"0 c #535253",
"q c #535352",
"w c #535353",
"e c #535453",
"r c #545354",
"t c #545453",
"y c #555553",
"u c Gray33",
"i c #545554",
"p c #666665",
"a c #676767",
"s c #6c6c6c",
"d c #6d6c6d",
"f c Gray44",
"g c #747574",
"h c Gray46",
"j c Gray48",
"k c #7c7c7c",
"l c #7c7c7d",
"z c #848484",
"x c Gray52",
"c c #9f9f9f",
"v c Gray75",
/* pixels */
"cl@    Xo+X.oxcvv",
"cle,;==>0=0=*xcvv",
"cju0000000000xcvv",
"chr0000000000xcvv",
"chr000000000>xcvv",
"cft000000000*xcvv",
"cst000000000@zcvv",
"csu000000000$zcvv",
"cpu000000000@xcvv",
"cpu000000000+xcvv",
"vvvvvvvvvvvvvvvvv",
"vvvvvvvvvvvvvvvvv"
};
