/* XPM */
static char *magick[] = {
/* columns rows colors chars-per-pixel */
"12 17 47 1",
"  c #444444",
". c Gray27",
"X c #464646",
"o c #464747",
"O c #474746",
"+ c Gray28",
"@ c #484848",
"# c #494949",
"$ c #4a4b4a",
"% c #4b4b4b",
"& c #4b4c4b",
"* c #4b4c4c",
"= c Gray31",
"- c #515151",
"; c Gray33",
": c #5b5b5b",
"> c #5d5e5d",
", c #606061",
"< c #606161",
"1 c #626263",
"2 c #646463",
"3 c #646464",
"4 c #666566",
"5 c #676767",
"6 c #676768",
"7 c #686768",
"8 c #6a6a6a",
"9 c #6c6b6c",
"0 c #6c6c6c",
"q c #6c6c6d",
"w c #6c6d6c",
"e c #6d6d6d",
"r c Gray43",
"t c #6f6f6f",
"y c #6f6f70",
"u c #6f706f",
"i c #6f7070",
"p c #706f6f",
"a c #706f70",
"s c #70706f",
"d c Gray44",
"f c #717171",
"g c #767676",
"h c #808080",
"j c #8d8d8d",
"k c #939393",
"l c Gray75",
/* pixels */
"itpyyt7*  ll",
"utttpy6#  ll",
"utttda3&  ll",
"ytttdd3#  ll",
"ttutpp3#  ll",
"ttpttt2#  ll",
"utttua3#  ll",
"dutyya3#  ll",
"yityys<#  ll",
"tyttyd<+  ll",
"utttyt<   ll",
"tatptt<@  ll",
"tttt88>   ll",
"g3:--=#   ll",
"kjhd8tt8ttll",
"llllllllllll",
"llllllllllll"
};
