/* XPM */
static char *magick[] = {
/* columns rows colors chars-per-pixel */
"25 17 55 1",
"  c #514c4c",
". c #524c4c",
"X c #534d4d",
"o c #544e4e",
"O c #554e4e",
"+ c #554f4e",
"@ c #574f4f",
"# c #575050",
"$ c #585050",
"% c #5a5151",
"& c #5b5252",
"* c #5c5252",
"= c #5d5353",
"- c #5f5454",
"; c #5f5455",
": c #5f5554",
"> c #5f5555",
", c #625656",
"< c #655858",
"1 c #665858",
"2 c #695a5a",
"3 c #695b5b",
"4 c #6a5a5b",
"5 c #6a5b5b",
"6 c #6b5b5b",
"7 c #6b5c5b",
"8 c #6b5c5c",
"9 c #6c5b5c",
"0 c #6c5c5c",
"q c #6c5d5c",
"w c #6c5d5d",
"e c #6d5c5c",
"r c #6d5d5c",
"t c #6d5d5d",
"y c #6e5d5d",
"u c #6f5e5e",
"i c #705f5f",
"p c #7e6767",
"a c #816869",
"s c #826a6a",
"d c #836a6a",
"f c #856b6b",
"g c #866c6c",
"h c #876d6d",
"j c #886d6d",
"k c #896e6e",
"l c #8b6f6f",
"z c #8d7070",
"x c #8f7171",
"c c #907272",
"v c #917272",
"b c #927373",
"n c #937474",
"m c #947474",
"M c Gray75",
/* pixels */
"mmmmmmmmmmmmmmmmmmmmmmmMM",
"mmmmmmmmmmmmmmmmmmmmmmmMM",
"ppppsssssfhhkkkkllkxvvvMM",
"00000000000000000i00iiiMM",
"00800000000800000000000MM",
"00000008000000000000000MM",
"00000000000000000000000MM",
"00008000008800000000000MM",
"00000880000880000000000MM",
"33333733900880000000008MM",
"....@@@@@$$$$$******;;;MM",
"0000311111,;;;;**$$$$#@MM",
"mmmmnvvvvvvxxxxxkkllkkhMM",
"mmmmmmmmmmmmmmmmmmmmmmmMM",
"mmmmmmmmmmmmmmmmmmmmmmmMM",
"MMMMMMMMMMMMMMMMMMMMMMMMM",
"MMMMMMMMMMMMMMMMMMMMMMMMM"
};
