/* XPM */
static char *magick[] = {
/* columns rows colors chars-per-pixel */
"17 38 89 1",
"  c #434343",
". c #434344",
"X c #434443",
"o c #434543",
"O c #434444",
"+ c #434445",
"@ c #434544",
"# c #434545",
"$ c #444343",
"% c #454343",
"& c #444344",
"* c #454344",
"= c #454345",
"- c #444443",
"; c #444543",
": c #454443",
"> c #454543",
", c #444444",
"< c #444445",
"1 c #444544",
"2 c #444545",
"3 c #454444",
"4 c #454445",
"5 c #454544",
"6 c Gray27",
"7 c #454546",
"8 c #444644",
"9 c #444645",
"0 c #454645",
"q c #454646",
"w c #464545",
"e c #464546",
"r c #474546",
"t c #464645",
"y c #474645",
"u c #464646",
"i c #464647",
"p c #464746",
"a c #464747",
"s c #474646",
"d c #474647",
"f c #474746",
"g c Gray28",
"h c #474748",
"j c #474847",
"k c #474848",
"l c #484747",
"z c #484748",
"x c #484848",
"c c #484849",
"v c #494949",
"b c #4b4b4b",
"n c #4b4b4c",
"m c #4b4d4b",
"M c #4b4c4c",
"N c #4c4b4b",
"B c #4c4b4c",
"V c #4c4b4d",
"C c #4d4b4c",
"Z c #4c4c4b",
"A c #4d4c4b",
"S c #4c4c4d",
"D c #59595a",
"F c #595a59",
"G c #5a5959",
"H c #5d5d5d",
"J c #606160",
"K c #606161",
"L c #616060",
"P c #616061",
"I c Gray38",
"U c #656565",
"Y c #686969",
"T c #696869",
"R c Gray41",
"E c #6a696a",
"W c #6d6d6d",
"Q c #727272",
"! c #777777",
"~ c #7b7b7b",
"^ c #848484",
"/ c #858484",
"( c Gray52",
") c #898989",
"_ c #8d8d8d",
"` c #9a9a9a",
"' c #9d9d9d",
"] c #9f9f9f",
"[ c Gray75",
/* pixels */
"]`F666$666666V_[[",
"]`F6666666666V_[[",
"]`F6666666666V_[[",
"]]H66666666*6m_[[",
"]]P666o666666Z_[[",
"]]P6666666666S_[[",
"]]P6666666666N_[[",
"]]P6666666666n_[[",
"]]P6666666666Z_[[",
"]]P6666666666b_[[",
"]]P6666666666M_[[",
"]]P6666666666h)[[",
"]]P6666666666 ^[[",
"]]U66666666;@o^[[",
"]]Y6666666666 ^[[",
"]]Y666@66666; ^[[",
"]]Y6666666666 ^[[",
"]]Y6666666666 ^[[",
"]]Y666666666@ ^[[",
"]]Y666;6666;@.^[[",
"]]Y66@o6666;6 ^[[",
"]]Y66666666@;$^[[",
"]]Y666@66666* ^[[",
"]]W666@666666 ^[[",
"]]Ql66*6666666^[[",
"]]Q6666666666b^[[",
"]]Q66666666*6b^[[",
"]]Qj6666666*6z^[[",
"]]Qh6666666;6l^[[",
"]]Q666$66@666k^[[",
"]]Q666666@**6b^[[",
"]]Q66666666;6b^[[",
"]]Q666.66;666b^[[",
"]]!b666666666b^[[",
"]]~b@66*666;6b^[[",
"]]~b666;666*6z^[[",
"[[[[[[[[[[[[[[[[[",
"[[[[[[[[[[[[[[[[["
};
