/* XPM */
static char *magick[] = {
/* columns rows colors chars-per-pixel */
"14 11 28 1",
"  c #4b3c3c",
". c #4c3c3b",
"X c #4c3c3c",
"o c #4c3c3d",
"O c #4d3c3c",
"+ c #4e3d3d",
"@ c #4f3d3d",
"# c #4e3d3e",
"$ c #4f3d3e",
"% c #4e3e3d",
"& c #4f3e3d",
"* c #4e3e3e",
"= c #4f3e3e",
"- c #4f3e3f",
"; c #503e3d",
": c #503e3e",
"> c #503f3e",
", c #544141",
"< c #564343",
"1 c #574343",
"2 c #574444",
"3 c #574545",
"4 c #574645",
"5 c #584444",
"6 c #584445",
"7 c #584544",
"8 c #584545",
"9 c Gray75",
/* pixels */
";OOOOOOoOOO299",
";O-OOO-OO;O899",
";OO;O;OOOOO899",
";OO;--O->O>899",
",OOO;O;O>O>899",
",O-OO;O,O;O899",
"2;O,OO;OOOO899",
",;OO,,O-;O>899",
"1OO-OO-OO>O899",
"99999999999999",
"99999999999999"
};
