/* XPM */
static char *magick[] = {
/* columns rows colors chars-per-pixel */
"16 15 44 1",
"  c #606060",
". c #636464",
"X c #656564",
"o c #656565",
"O c #6c6c6b",
"+ c #6d6d6d",
"@ c Gray44",
"# c #707071",
"$ c #717172",
"% c #747374",
"& c #747474",
"* c #747574",
"= c #747575",
"- c #757574",
"; c Gray46",
": c #757576",
"> c #757675",
", c #757676",
"< c #767575",
"1 c #767576",
"2 c #767675",
"3 c #767676",
"4 c #767677",
"5 c #767776",
"6 c #767777",
"7 c #777677",
"8 c #777777",
"9 c #797979",
"0 c #7b7b7b",
"q c Gray49",
"w c #808080",
"e c #818181",
"r c #848484",
"t c #868686",
"y c Gray54",
"u c Gray55",
"i c #8d8d8c",
"p c #8d8d8d",
"a c #909090",
"s c Gray57",
"d c #929292",
"f c #939393",
"g c Gray58",
"h c Gray75",
/* pixels */
"ggggggggapaggghh",
"ggggggay9>tggghh",
"gggggpq>>>>pgghh",
"gggae>>>>>>9aghh",
"gat>>>>>>>>>tghh",
"y9>>>>>>>>>>>phh",
"%>>>>>>>>>>>>9hh",
"+>>>>>>>>>>>>>hh",
"X$>>>>>>>>>>>>hh",
">.>>>>>>>>>>>7hh",
"pXO>>>>>>>>>>>hh",
"ge $>>>>>>>>>>hh",
"ga$X>>>>>>>>>>hh",
"hhhhhhhhhhhhhhhh",
"hhhhhhhhhhhhhhhh"
};
