/* XPM */
static char *magick[] = {
/* columns rows colors chars-per-pixel */
"12 16 54 1",
"  c #261d1d",
". c #261d1e",
"X c #261e1d",
"o c #271e1d",
"O c #261e1e",
"+ c #261e1f",
"@ c #261f1f",
"# c #271e1f",
"$ c #271f1f",
"% c #281e1f",
"& c #281f1e",
"* c #281f1f",
"= c #2d2323",
"- c #3c2f2f",
"; c #3d2f30",
": c #3c302f",
"> c #3c3031",
", c #3e3031",
"< c #3e3231",
"1 c #403333",
"2 c #413333",
"3 c #423333",
"4 c #423334",
"5 c #413533",
"6 c #433534",
"7 c #4b3839",
"8 c #544141",
"9 c #544243",
"0 c #544342",
"q c #544343",
"w c #554243",
"e c #554342",
"r c #554343",
"t c #564243",
"y c #564342",
"u c #564343",
"i c #654e4e",
"p c #664e4e",
"a c #664e4f",
"s c #664f4e",
"d c #664f4f",
"f c #695151",
"g c #6c5454",
"h c #6d5454",
"j c #6d5555",
"k c #705758",
"l c #755b5b",
"z c #775c5c",
"x c #7b5f5f",
"c c #8c6d6d",
"v c #8f6f6f",
"b c #957474",
"n c #9f7c7c",
"m c Gray75",
/* pixels */
"nnnnnnnnnnmm",
"nbxlllllzcmm",
"cu7uuuuuuzmm",
"6=5u9uuuukmm",
"**3uuuuuugmm",
"##2uuuuuugmm",
"##39uuuuugmm",
"#*3u9uuuugmm",
"##>9uuuuufmm",
"##:uuuuuuamm",
"##-uuuuuuamm",
"##>uuuu9uamm",
"  -uuuuuuamm",
"##>uuuuuuamm",
"mmmmmmmmmmmm",
"mmmmmmmmmmmm"
};
