/* XPM */
static char *magick[] = {
/* columns rows colors chars-per-pixel */
"14 11 12 1",
"  c #6a5b5b",
". c #6b5b5b",
"X c #6b5b5c",
"o c #6b5c5b",
"O c #6b5c5c",
"+ c #6c5c5c",
"@ c #6d5c5c",
"# c #6e5e5e",
"$ c #6f5e5e",
"% c #705f5f",
"& c #715f5f",
"* c Gray75",
/* pixels */
"%.XXO..XXo..**",
"%++++++++++.**",
"%++++++++++.**",
"%++++++++++.**",
"%++++++++++O**",
"%+++++++++++**",
"%+++++++++++**",
"%+++++++++++**",
"%+++++++++++**",
"**************",
"**************"
};
