/* XPM */
static char *magick[] = {
/* columns rows colors chars-per-pixel */
"12 16 40 1",
"  c #504c4c",
". c #514c4c",
"X c #534d4d",
"o c #544e4e",
"O c #554e4e",
"+ c #564f4f",
"@ c #574f4f",
"# c #584f4f",
"$ c #584f50",
"% c #57504f",
"& c #575050",
"* c #585050",
"= c #595050",
"- c #595150",
"; c #595151",
": c #5a5151",
"> c #5a5251",
", c #5a5252",
"< c #5d5353",
"1 c #625656",
"2 c #635757",
"3 c #645858",
"4 c #665858",
"5 c #675959",
"6 c #675a59",
"7 c #675a5a",
"8 c #685959",
"9 c #68595a",
"0 c #685a5a",
"q c #6a5a5b",
"w c #6c5d5c",
"e c #6c5d5d",
"r c #6d5c5c",
"t c #6d5c5d",
"y c #6d5d5c",
"u c #6d5d5d",
"i c #6f5e5e",
"p c #705e5e",
"a c #705f5f",
"s c Gray75",
/* pixels */
"&**qiiiiipss",
"&&*qiiiiiiss",
"&**7iipiipss",
"&&*7iiiiipss",
"$&*qppipiiss",
"#&*qipiiiiss",
"&**7iiipppss",
"***7iiiiiiss",
"*&#4iipiiiss",
"o**7iiiippss",
"%&*7iiiiiiss",
"%&&2iiiippss",
"&*&2iiwiiiss",
"oXXXooo<7pss",
"ssssssssssss",
"ssssssssssss"
};
